<svg width="24" height="24" viewBox="0 0 24 24" fill="none" xmlns="http://www.w3.org/2000/svg">
<path d="M19.8482 4.49194C18.8688 3.49289 17.7 2.69919 16.4101 2.15729C15.1203 1.61538 13.7353 1.33616 12.3363 1.33594H12.1362C10.73 1.33491 9.33766 1.61459 8.04087 2.15858C6.74408 2.70258 5.56892 3.49994 4.58425 4.50394C2.56065 6.5396 1.41911 9.28963 1.40625 12.1599C1.4114 14.5948 2.24037 16.9562 3.75825 18.8599L2.18425 21.8199V21.8359C2.12665 21.978 2.12564 22.1368 2.18144 22.2796C2.23723 22.4225 2.34558 22.5385 2.48425 22.6039C2.55985 22.6371 2.64172 22.6534 2.72425 22.6519C2.76066 22.6539 2.79715 22.6498 2.83225 22.6399L8.59225 22.3159C9.73009 22.7322 10.9327 22.9434 12.1442 22.9399H12.2882C13.6911 22.9415 15.0802 22.6631 16.3742 22.1212C17.6682 21.5793 18.8411 20.7847 19.8242 19.7839C21.8447 17.746 22.9862 14.9976 23.0042 12.1279V12.1159C22.9948 9.25984 21.861 6.52234 19.8482 4.49594M6.20625 11.7279C6.20625 11.5688 6.26946 11.4162 6.38199 11.3037C6.49451 11.1912 6.64712 11.1279 6.80625 11.1279H12.8062C12.9654 11.1279 13.118 11.1912 13.2305 11.3037C13.343 11.4162 13.4062 11.5688 13.4062 11.7279V12.9279C13.4071 13.007 13.3921 13.0853 13.3622 13.1585C13.3323 13.2317 13.2882 13.2981 13.2323 13.354C13.1764 13.4099 13.11 13.454 13.0368 13.4839C12.9636 13.5138 12.8853 13.5287 12.8062 13.5279H6.80625C6.72723 13.5287 6.64885 13.5138 6.57569 13.4839C6.50254 13.454 6.43607 13.4099 6.3802 13.354C6.32432 13.2981 6.28016 13.2317 6.25029 13.1585C6.22042 13.0853 6.20545 13.007 6.20625 12.9279V11.7279ZM18.2062 16.5279C18.2071 16.607 18.1921 16.6853 18.1622 16.7585C18.1323 16.8317 18.0882 16.8981 18.0323 16.954C17.9764 17.0099 17.91 17.054 17.8368 17.0839C17.7636 17.1138 17.6853 17.1287 17.6063 17.1279H6.80625C6.72723 17.1287 6.64885 17.1138 6.57569 17.0839C6.50254 17.054 6.43607 17.0099 6.3802 16.954C6.32432 16.8981 6.28016 16.8317 6.25029 16.7585C6.22042 16.6853 6.20545 16.607 6.20625 16.5279V15.3279C6.20625 15.1688 6.26946 15.0162 6.38199 14.9037C6.49451 14.7912 6.64712 14.7279 6.80625 14.7279H17.6063C17.7654 14.7279 17.918 14.7912 18.0305 14.9037C18.143 15.0162 18.2062 15.1688 18.2062 15.3279V16.5279ZM18.2062 9.32794C18.2071 9.40696 18.1921 9.48534 18.1622 9.5585C18.1323 9.63165 18.0882 9.69812 18.0323 9.75399C17.9764 9.80987 17.91 9.85403 17.8368 9.8839C17.7636 9.91377 17.6853 9.92874 17.6063 9.92794H6.80625C6.72723 9.92874 6.64885 9.91377 6.57569 9.8839C6.50254 9.85403 6.43607 9.80987 6.3802 9.75399C6.32432 9.69812 6.28016 9.63165 6.25029 9.5585C6.22042 9.48534 6.20545 9.40696 6.20625 9.32794V8.12794C6.20625 7.96881 6.26946 7.8162 6.38199 7.70368C6.49451 7.59115 6.64712 7.52794 6.80625 7.52794H17.6063C17.7654 7.52794 17.918 7.59115 18.0305 7.70368C18.143 7.8162 18.2062 7.96881 18.2062 8.12794V9.32794Z" fill="currentColor"/>
</svg>
