<svg width="25" height="24" viewBox="0 0 25 24" fill="none" xmlns="http://www.w3.org/2000/svg">
<path d="M10.5975 12.2534C10.6041 12.5145 10.6674 12.771 10.7831 13.0051C10.8988 13.2393 11.0641 13.4455 11.2675 13.6094C11.9755 14.1794 12.7035 14.7374 13.4565 15.2524C14.7825 16.1634 16.1325 17.0284 17.4715 17.9154C17.558 17.983 17.659 18.0296 17.7666 18.0516C17.8741 18.0737 17.9853 18.0705 18.0915 18.0424C18.2521 17.9942 18.3871 17.8843 18.4668 17.7368C18.5464 17.5892 18.5643 17.4161 18.5165 17.2554C18.4982 17.193 18.4702 17.134 18.4335 17.0804C18.2335 16.7424 18.0135 16.4074 17.7905 16.0804C16.7145 14.5024 15.6385 12.9234 14.5505 11.3534C14.2842 10.9144 13.9041 10.5557 13.4505 10.3154C13.135 10.1712 12.7877 10.1108 12.442 10.14C12.0964 10.1691 11.7642 10.2869 11.4773 10.4819C11.1904 10.6769 10.9587 10.9425 10.8044 11.2532C10.6501 11.5638 10.5785 11.909 10.5965 12.2554" fill="currentColor"/>
<path d="M8.69938 6.43844C9.49984 5.88456 10.4101 5.50941 11.3684 5.33844C11.5295 5.3132 11.6765 5.23181 11.7833 5.10864C11.8902 4.98548 11.9501 4.82849 11.9524 4.66544V1.95544C11.9545 1.77685 11.8857 1.60471 11.761 1.47684C11.6363 1.34897 11.466 1.27581 11.2874 1.27344H11.2194C9.30838 1.56285 7.49655 2.31312 5.94038 3.45944C5.87201 3.51585 5.81543 3.58519 5.7739 3.66349C5.73236 3.7418 5.70668 3.82752 5.69832 3.91577C5.68996 4.00401 5.69909 4.09304 5.72518 4.17775C5.75127 4.26246 5.79382 4.34119 5.85038 4.40944C5.86478 4.42694 5.88014 4.44363 5.89638 4.45944L7.81238 6.37744C7.92915 6.49046 8.08212 6.55857 8.24424 6.56973C8.40637 6.58089 8.56722 6.53439 8.69838 6.43844" fill="currentColor"/>
<path d="M13.8408 5.34337C14.791 5.51461 15.6938 5.88655 16.4888 6.43437C16.6192 6.5285 16.7786 6.57368 16.939 6.56198C17.0993 6.55027 17.2505 6.48243 17.3658 6.37037L19.2658 4.47037C19.329 4.40609 19.3788 4.32997 19.4125 4.24639C19.4462 4.16281 19.463 4.07341 19.4621 3.9833C19.4612 3.89319 19.4425 3.80415 19.4071 3.72129C19.3717 3.63842 19.3203 3.56335 19.2558 3.50037C19.2329 3.47745 19.2085 3.45607 19.1828 3.43637C17.6869 2.29186 15.9157 1.562 14.0478 1.32037C13.9586 1.30674 13.8676 1.31084 13.78 1.33242C13.6924 1.35401 13.61 1.39266 13.5373 1.44616C13.4647 1.49966 13.4033 1.56697 13.3567 1.64422C13.3101 1.72148 13.2792 1.80716 13.2658 1.89637C13.2606 1.92946 13.258 1.96289 13.2578 1.99637V4.67037C13.2607 4.83326 13.3208 4.98994 13.4275 5.11298C13.5343 5.23602 13.681 5.31758 13.8418 5.34337" fill="currentColor"/>
<path d="M18.252 8.20565C18.8031 8.99843 19.1782 9.89994 19.352 10.8496C19.3772 11.0086 19.4578 11.1536 19.5795 11.259C19.7011 11.3644 19.8561 11.4234 20.017 11.4256H22.711C22.8932 11.4233 23.0669 11.3488 23.1942 11.2185C23.3215 11.0882 23.3919 10.9128 23.39 10.7306C23.3902 10.6988 23.3878 10.6671 23.383 10.6356C23.1348 8.76749 22.398 6.99791 21.247 5.50565C21.1389 5.35929 20.9771 5.26175 20.7972 5.23439C20.6173 5.20702 20.4338 5.25206 20.287 5.35965C20.261 5.37934 20.2363 5.40072 20.213 5.42365L18.313 7.32365C18.1994 7.44037 18.1307 7.59349 18.119 7.75597C18.1073 7.91845 18.1533 8.07984 18.249 8.21165" fill="currentColor"/>
<path d="M2.45595 16.0824C2.41395 15.9734 2.36995 15.8654 2.33095 15.7534C2.07655 15.0439 1.89756 14.3095 1.79695 13.5624C1.78332 13.4734 1.78739 13.3825 1.80892 13.295C1.83045 13.2076 1.86903 13.1252 1.92244 13.0527C1.97585 12.9801 2.04305 12.9188 2.12018 12.8723C2.19731 12.8257 2.28287 12.7949 2.37195 12.7814C2.40503 12.7763 2.43846 12.7736 2.47195 12.7734H5.15895C5.31978 12.7761 5.47456 12.8353 5.59614 12.9406C5.71773 13.0459 5.79838 13.1906 5.82395 13.3494C5.89995 13.6924 5.98195 13.9914 6.06995 14.2694C6.11795 14.4084 6.16195 14.5504 6.21895 14.6854L6.23795 14.7344C6.41317 15.1503 6.62887 15.5479 6.88195 15.9214C7.14445 16.2895 7.42757 16.6424 7.72995 16.9784C7.78981 17.0343 7.83806 17.1014 7.87197 17.1759C7.90587 17.2504 7.92476 17.3309 7.92755 17.4127C7.93033 17.4945 7.91696 17.5761 7.88821 17.6528C7.85945 17.7294 7.81587 17.7996 7.75995 17.8594L7.70995 17.9074C7.09062 18.5314 6.46995 19.1528 5.84795 19.7714C5.79481 19.8365 5.72936 19.8905 5.65535 19.9302C5.58133 19.9699 5.50021 19.9947 5.41661 20.0031C5.33302 20.0114 5.2486 20.0032 5.16818 19.9789C5.08776 19.9546 5.01292 19.9147 4.94795 19.8614C4.91094 19.832 4.87739 19.7985 4.84795 19.7614C3.87507 18.7763 3.09978 17.6141 2.56395 16.3374C2.52795 16.2534 2.49595 16.1684 2.46395 16.0834" fill="currentColor"/>
<path d="M5.83459 10.8441C6.0049 9.89527 6.37546 8.99358 6.92159 8.19915C7.01578 8.06892 7.06119 7.90971 7.04985 7.74939C7.03852 7.58906 6.97117 7.43783 6.85959 7.32215L4.95959 5.42215C4.82915 5.29487 4.65355 5.22454 4.47131 5.22661C4.28908 5.22867 4.11511 5.30295 3.98759 5.43315C3.96533 5.45573 3.94461 5.47978 3.92559 5.50515C2.77969 6.99997 2.04811 8.77046 1.80459 10.6381C1.7911 10.7274 1.79533 10.8184 1.81703 10.906C1.83874 10.9936 1.87748 11.0761 1.93107 11.1487C1.98465 11.2213 2.05202 11.2827 2.12932 11.3292C2.20662 11.3758 2.29234 11.4067 2.38159 11.4201C2.41466 11.4255 2.4481 11.4281 2.48159 11.4281H5.16159C5.32522 11.4264 5.48296 11.3668 5.60686 11.2599C5.73077 11.153 5.81286 11.0058 5.83859 10.8441" fill="currentColor"/>
<path d="M18.7031 19.1514L19.1911 19.6394L19.3281 19.7764C19.4231 19.8718 19.5413 19.9407 19.6711 19.9764C19.6953 19.9839 19.7201 19.9896 19.7451 19.9934C19.7952 20.0006 19.846 20.0006 19.8961 19.9934C19.9117 19.9911 19.9271 19.9874 19.9421 19.9824C20.0896 19.9504 20.2238 19.8744 20.3271 19.7644C21.2317 18.8512 21.9638 17.7821 22.4881 16.6084C22.5005 16.5922 22.51 16.5739 22.5161 16.5544C22.5519 16.484 22.5837 16.4115 22.6111 16.3374C22.6521 16.2554 22.6791 16.1674 22.7111 16.0854C22.7581 15.9774 22.7991 15.8684 22.8391 15.7514C22.8651 15.6794 22.8811 15.6024 22.9051 15.5294C22.9291 15.4564 22.9411 15.4084 22.9591 15.3494C23.061 15.0341 23.1465 14.7137 23.2151 14.3894C23.2176 14.3738 23.2213 14.3585 23.2261 14.3434C23.2371 14.2894 23.2431 14.2354 23.2541 14.1814C23.2941 13.9814 23.3421 13.7754 23.3701 13.5624C23.376 13.5221 23.3784 13.4812 23.3771 13.4404C23.3737 13.2625 23.3007 13.093 23.1738 12.9683C23.0468 12.8436 22.8761 12.7737 22.6981 12.7734H20.0141C19.8539 12.7754 19.6995 12.8336 19.5778 12.9377C19.4561 13.0419 19.3748 13.1855 19.3481 13.3434C19.2741 13.6914 19.1911 13.9904 19.1031 14.2684C19.0551 14.4054 19.0081 14.5464 18.9541 14.6834C18.9285 14.7613 18.8949 14.8363 18.8541 14.9074C18.8323 14.9653 18.8069 15.0217 18.7781 15.0764C18.7649 15.148 18.7691 15.2217 18.7903 15.2913C18.8116 15.3609 18.8492 15.4244 18.9001 15.4764C19.0701 15.7064 19.2001 15.9664 19.3761 16.2044C19.5323 16.4109 19.6462 16.646 19.7115 16.8965C19.7767 17.147 19.792 17.4079 19.7565 17.6643C19.7209 17.9206 19.6352 18.1675 19.5042 18.3908C19.3732 18.614 19.1996 18.8093 18.9931 18.9654C18.9016 19.034 18.8046 19.0949 18.7031 19.1474" fill="currentColor"/>
</svg>
