<svg width="120" height="120" viewBox="0 0 120 120" fill="none" xmlns="http://www.w3.org/2000/svg">
    <g clip-path="url(#clip0_166_163710)">
    <path d="M54.3972 73.1327C54.6599 72.8373 54.9911 72.6103 55.3621 72.4713C55.7072 72.3486 56.0737 72.2963 56.4397 72.3177C56.7536 72.3322 57.0646 72.3858 57.3653 72.477C57.891 72.6465 58.3936 72.8803 58.8616 73.173C59.2974 73.4426 59.7157 73.7392 60.1142 74.061C61.6189 75.3154 62.9762 76.7353 64.1601 78.2936C65.3503 79.8214 66.4006 81.4523 67.2984 83.1667C67.753 84.0174 68.15 84.8937 68.532 85.7758C68.914 86.6579 69.2413 87.561 69.5339 88.4752C70.1272 90.2997 70.5698 92.1693 70.8572 94.0654C71.15 95.9483 71.2908 97.8515 71.2783 99.7565C71.2814 100.713 71.2226 101.663 71.152 102.612C71.0813 103.561 70.9536 104.505 70.7818 105.432C70.4658 107.291 69.9789 109.117 69.3271 110.886C69.8978 109.09 70.3021 107.246 70.5352 105.376C70.6618 104.444 70.7123 103.505 70.7697 102.569C70.8271 101.633 70.8104 100.694 70.7623 99.7579C70.6882 97.8897 70.463 96.0305 70.0887 94.1982C69.7204 92.3686 69.201 90.5723 68.5358 88.8276C68.2154 87.9538 67.8376 87.1032 67.447 86.2609C67.0564 85.4186 66.6177 84.6029 66.1434 83.8077C65.2131 82.2095 64.1412 80.6974 62.9404 79.2893C61.769 77.8869 60.4554 76.6086 59.0204 75.4749C58.373 74.9526 57.6377 74.5489 56.8488 74.2824C56.5941 74.1928 56.3176 74.1859 56.0588 74.2625C55.9857 74.2941 55.9223 74.3441 55.8747 74.4076C55.8012 74.5027 55.7448 74.6097 55.7079 74.724" fill="#3074D3"/>
    <path d="M117.373 106.339C117.238 107.469 116.961 108.578 116.549 109.639C116.128 110.719 115.552 111.732 114.839 112.646C113.422 114.439 111.552 115.825 109.419 116.661C107.416 117.439 105.287 117.853 103.136 117.882C102.103 117.911 101.068 117.87 100.04 117.759C99.0284 117.657 98.0226 117.501 97.0276 117.29C95.0717 116.879 93.152 116.312 91.2872 115.594C87.6365 114.167 84.147 112.359 80.8765 110.203C77.6454 108.085 74.5615 105.752 71.6459 103.221C71.0425 102.7 70.447 102.172 69.8595 101.635C67.5963 99.5758 65.4599 97.3826 63.4621 95.0673C60.9183 92.1482 58.68 88.9787 56.7817 85.6079C55.8238 83.9005 55.0206 82.1115 54.3817 80.2623C54.0558 79.3063 53.8139 78.324 53.659 77.3264C53.5788 76.8043 53.5421 76.2765 53.5492 75.7484C53.551 75.1585 53.6551 74.5734 53.8569 74.0189C53.9819 73.6876 54.1653 73.3812 54.3985 73.1143C54.6613 72.819 54.9925 72.5919 55.3634 72.453C55.7086 72.3302 56.0751 72.278 56.4411 72.2993C56.7552 72.3202 57.0656 72.3801 57.3649 72.4776C57.8906 72.6471 58.3932 72.8809 58.8612 73.1736C59.297 73.4432 59.7153 73.7398 60.1138 74.0616L59.0207 75.4683C58.3732 74.9461 57.638 74.5424 56.8491 74.2759C56.5944 74.1863 56.3178 74.1794 56.059 74.256C55.986 74.2875 55.9225 74.3376 55.8749 74.4011C55.8014 74.4961 55.745 74.6032 55.7082 74.7174C55.6044 75.0584 55.5585 75.4142 55.5725 75.7703C55.579 76.1855 55.62 76.5994 55.6953 77.0078C55.8605 77.8748 56.101 78.7259 56.4144 79.5514C57.0654 81.2533 57.8674 82.8942 58.8107 84.4546C60.7236 87.6182 62.9561 90.579 65.4732 93.2911C67.9918 96.0207 70.7094 98.5615 73.6037 100.893C76.4865 103.232 79.5221 105.377 82.6905 107.316C85.8037 109.241 89.1113 110.836 92.5589 112.073C94.2505 112.667 95.9871 113.124 97.7519 113.442C98.6148 113.598 99.4857 113.707 100.361 113.768C101.219 113.834 102.081 113.842 102.94 113.792C104.587 113.724 106.209 113.364 107.728 112.728C109.126 112.138 110.34 111.187 111.245 109.974C112.123 108.76 112.647 107.329 112.76 105.837C112.874 104.242 112.692 102.64 112.223 101.11C111.73 99.4891 111.047 97.9311 110.189 96.4683C109.761 95.7109 109.277 94.9913 108.784 94.2707C108.242 93.4787 107.681 92.6919 107.152 91.8868C105.003 88.6821 103.004 85.3792 101.153 81.9781C99.2944 78.5678 97.6238 75.0593 96.1487 71.4682C95.409 69.6666 94.7281 67.8347 94.1061 65.9725C94.0517 65.812 93.9999 65.6494 93.9488 65.4797C93.702 64.706 93.4626 63.9234 93.2303 63.132C93.0932 62.6539 92.9631 62.17 92.8398 61.6805L92.6585 60.9345L92.5687 60.5652C92.5386 60.4261 92.515 60.3211 92.4782 60.1265L98.6005 59.0812L98.6457 59.3388L98.7054 59.6455L98.8398 60.2795C98.9335 60.7089 99.0367 61.1393 99.1445 61.5724C99.3648 62.4392 99.6026 63.3068 99.858 64.1753C100.38 65.9117 100.962 67.6395 101.604 69.3586C102.896 72.7994 104.376 76.1677 106.036 79.4487C107.692 82.7453 109.507 85.9631 111.484 89.102C111.965 89.8932 112.481 90.6612 112.982 91.4447C113.533 92.2997 114.067 93.1651 114.548 94.0732C115.548 95.9027 116.327 97.8438 116.868 99.8558C117.437 101.967 117.608 104.165 117.373 106.339Z" fill="#3074D3"/>
    <path d="M117.37 106.338C117.235 107.468 116.959 108.577 116.547 109.639C116.126 110.718 115.55 111.731 114.837 112.645C113.42 114.439 111.549 115.824 109.417 116.66C107.413 117.439 105.285 117.852 103.134 117.882C102.101 117.91 101.066 117.869 100.038 117.758C99.0262 117.657 98.0204 117.5 97.0254 117.289C95.0694 116.878 93.1498 116.311 91.285 115.594C87.6343 114.166 84.1448 112.359 80.8743 110.202C77.6432 108.084 74.5593 105.752 71.6437 103.22C71.0402 102.7 70.4448 102.171 69.8573 101.634C76.7381 106.821 84.8357 111.805 92.9964 114.322C114.214 120.871 118.31 105.488 112.956 96.1395C108.351 88.0977 99.128 72.3687 97.8443 68.185C96.7824 64.7248 94.7077 65.3981 94.0028 65.6707C93.7497 64.8964 93.4462 63.9453 93.2268 63.1456C93.0897 62.6674 92.9595 62.1836 92.8363 61.694L92.6549 60.948L92.5664 60.5645C92.5364 60.4254 92.5128 60.3204 92.476 60.1258L98.5982 59.0805L98.6434 59.3381L98.7032 59.6448L98.8375 60.2788C98.9313 60.7083 99.0345 61.1386 99.1423 61.5718C99.3626 62.4385 99.6004 63.3061 99.8558 64.1746C100.378 65.911 100.96 67.6388 101.602 69.3579C102.894 72.7987 104.374 76.167 106.034 79.448C107.689 82.7446 109.505 85.9624 111.481 89.1014C111.963 89.8925 112.478 90.6605 112.98 91.444C113.53 92.299 114.065 93.1645 114.546 94.0726C115.546 95.902 116.325 97.8431 116.866 99.8551C117.434 101.967 117.605 104.165 117.37 106.338Z" fill="#255BB9"/>
    <path d="M97.9664 59.5465C96.6808 60.5884 94.585 62.1263 92.4514 62.1846C89.7938 62.2558 89.6295 62.5006 89.3267 58.7129C89.209 57.1945 89.0612 55.0277 88.7261 51.9398C87.7948 43.3861 87.1918 38.9583 86.2969 37.5589C86.2078 37.4051 86.0867 37.272 85.9417 37.1687C85.8252 37.0869 85.6835 37.0486 85.5415 37.0605C84.2489 37.1828 82.7887 25.463 95.4518 30.1892C96.2096 30.4691 97.0037 30.8073 97.8607 31.1982L101.01 52.5275C101.359 54.9945 100.218 57.7136 97.9664 59.5465Z" fill="#98B9EA"/>
    <path d="M97.9645 59.5466C96.679 60.5885 94.5832 62.1264 92.4496 62.1847C89.792 62.2559 89.6277 62.5007 89.3249 58.713L90.6399 55.2607C93.0936 55.769 94.2591 49.3401 93.0338 42.4558C91.8085 35.5715 87.4245 38.8009 87.4245 38.8009L86.2951 37.559L85.9399 37.1687L84.9264 36.055L91.9732 32.203L95.4396 30.1883C96.1974 30.4683 96.9915 30.8064 97.8486 31.1973L100.998 52.5266C101.357 54.9946 100.216 57.7136 97.9645 59.5466Z" fill="#6F9EE0"/>
    <path d="M93.6246 57.6313C94.5855 58.9692 94.3242 60.9281 92.978 62.3626C88.8155 66.787 79.4436 75.0681 76.5459 74.9969C75.6878 74.9755 75.0284 74.4575 74.5463 73.696C72.9713 71.1676 73.5813 65.9669 76.8319 67.4747C81.0616 69.437 88.49 55.5625 90.4484 55.2272C90.7962 55.1851 91.1481 55.2605 91.4477 55.4416C92.2138 55.8551 92.9914 56.754 93.6246 57.6313Z" fill="#3074D3"/>
    <path d="M93.7407 57.7975C94.6252 59.0579 94.3554 60.8858 93.1014 62.2301C89.0038 66.632 79.4758 75.0702 76.5468 74.9985C75.6887 74.9772 75.0293 74.4592 74.5472 73.6977L79.9628 68.6292C79.9628 68.6292 82.6908 69.3326 86.061 64.9659C88.8014 61.4247 92.3571 56.4508 91.4434 55.4428C92.2619 55.8821 93.0911 56.8717 93.7407 57.7975Z" fill="#255BB9"/>
    <path d="M84.6316 47.6475C84.6316 47.6475 83.2849 44.9168 80.3308 45.9387C77.3766 46.9606 76.9832 49.2663 76.9832 49.2663L84.6316 47.6475Z" fill="#3074D3"/>
    <path d="M80.608 49.6116C80.608 49.6116 81.4997 50.2167 81.2536 52.0156C81.0075 53.8145 77.5567 64.9419 79.0748 67.353C79.8 68.502 81.2312 68.1298 81.5646 67.7839L82.1366 63.8136L84.154 48.3854L79.3073 47.6662L78.5204 50.4553L80.608 49.6116Z" fill="#3074D3"/>
    <path d="M79.0493 47.6403C79.0493 47.6403 83.2885 44.9179 84.6352 47.6485C85.9818 50.3792 83.7876 54.3366 83.4479 59.2505C83.1082 64.1644 83.4054 66.6031 81.8334 67.6882C81.5007 67.917 80.6523 68.097 80.4235 67.034C79.8066 64.1616 83.0381 53.2243 82.6568 50.8454C82.2755 48.4664 79.3621 50.2731 79.3621 50.2731L79.0493 47.6403Z" fill="#255BB9"/>
    <path d="M79.5591 50.5515L76.78 51.8504L76.9854 49.2666L76.2411 48.1549L80.0332 45.1297L80.5403 45.5448C80.7189 45.6961 80.8544 45.8916 80.9332 46.1115C81.012 46.3315 81.0312 46.5681 80.989 46.7977L80.6114 49.2116C80.5565 49.5026 80.4323 49.7761 80.2492 50.0093C80.0661 50.2425 79.8294 50.4284 79.5591 50.5515Z" fill="#6F9EE0"/>
    <path d="M80.4632 46.5114L76.9815 49.2666L76.2371 48.1549L80.0293 45.1297L80.5824 45.583C80.8564 45.8094 80.8048 46.2444 80.4632 46.5114Z" fill="#98B9EA"/>
    <path d="M79.5559 50.5527L76.7768 51.8515L76.9822 49.2677L80.4598 46.5278C80.7086 46.3301 81.0378 46.4706 80.9951 46.7555L80.6108 49.213C80.5556 49.5042 80.431 49.7778 80.2474 50.011C80.0639 50.2441 79.8267 50.4299 79.5559 50.5527Z" fill="#3074D3"/>
    <path d="M75.0761 52.2113C76.1307 54.7254 76.6268 57.4365 76.5302 60.1585C76.3326 64.5653 77.5493 61.8482 77.5493 61.8482C77.5493 61.8482 79.2089 52.6026 77.8119 51.9497L75.9245 52.0313L75.0761 52.2113Z" fill="#98B9EA"/>
    <path d="M79.8329 49.8737L79.1918 50.9844C78.8376 51.5674 78.6925 52.253 78.7803 52.9291C79.0218 54.4644 79.2373 57.8767 77.6937 62.6116L77.0915 62.8149C77.0915 62.8149 78.0252 57.3429 76.9912 53.2699C76.9258 52.9624 76.9253 52.6446 76.99 52.337C77.0547 52.0294 77.1831 51.7386 77.3669 51.4832L78.8093 49.3368L79.8329 49.8737Z" fill="#6F9EE0"/>
    <path d="M79.7599 50.0463C80.0336 49.5775 80.0257 49.0643 79.7424 48.9002C79.459 48.736 79.0074 48.983 78.7338 49.4519C78.4601 49.9207 78.468 50.4339 78.7514 50.598C79.0347 50.7622 79.4863 50.5152 79.7599 50.0463Z" fill="#6F9EE0"/>
    <path d="M79.6745 49.9985C79.9027 49.6076 79.8962 49.1798 79.6601 49.043C79.4239 48.9062 79.0475 49.1122 78.8194 49.5031C78.5912 49.894 78.5977 50.3218 78.8338 50.4586C79.0699 50.5954 79.4463 50.3895 79.6745 49.9985Z" fill="#3074D3"/>
    <path d="M83.0443 42.0336L77.7305 50.9697C76.5303 52.988 76.113 55.2419 76.566 57.2502L78.762 67.1915C79.1302 68.8247 81.1984 69.2912 82.7591 68.1035C83.6774 67.3865 84.6639 66.7606 85.7046 66.2348C95.5904 61.4437 81.8546 73.3779 78.0267 75.4C76.7719 76.0621 75.2858 75.7705 74.6583 75.0811C72.1712 72.357 72.2207 63.136 72.2207 63.136C72.2207 63.136 70.0188 47.5687 71.6948 43.5623C73.3708 39.5558 83.0443 42.0336 83.0443 42.0336Z" fill="#255BB9"/>
    <path d="M66.7418 44.1343C66.7418 44.1343 68.5859 43.2676 68.7748 50.0538C68.9357 55.8377 72.3119 69.3008 73.3068 73.1514C73.4286 73.6591 73.6645 74.1327 73.9966 74.5366C74.3288 74.9405 74.7486 75.2642 75.2245 75.4832C75.5086 75.6142 75.8098 75.705 76.1192 75.7527C77.0217 75.885 77.8984 74.9632 77.6623 74.1443C76.3102 69.4269 71.4811 57.3386 72.6865 49.3829C73.3074 45.3104 72.911 37.4295 72.911 37.4295L66.7418 44.1343Z" fill="#3074D3"/>
    <path d="M98.9203 28.2584C98.8079 29.4575 98.508 30.6315 98.0315 31.738C97.5542 32.8399 96.9026 33.8584 96.1015 34.7546C93.0373 38.1819 86.9164 43.5481 76.3579 47.242C75.8838 47.4076 75.3935 47.5234 74.8952 47.5877C74.2949 47.6744 73.6861 47.6868 73.0826 47.6244C70.5863 47.3724 66.1561 46.7552 65.2704 45.4791C63.8505 43.4391 69.451 39.7313 69.7527 33.4237C70.3196 21.5548 68.3608 21.6453 74.2035 15.8206C78.8208 11.231 82.8685 5.6451 85.6117 4.14505C85.8595 4.01233 86.4027 4.07416 87.0014 4.21154C88.5285 4.57433 89.9426 5.30637 91.1184 6.34284L95.0929 9.81431C96.429 10.9748 97.2988 12.5773 97.5415 14.3258L98.0093 17.6683C98.1425 18.6363 98.3072 19.602 98.5043 20.5578C98.5235 20.6586 98.543 20.7567 98.5646 20.8603C99.0371 23.2971 99.1569 25.7884 98.9203 28.2584Z" fill="#6F9EE0"/>
    <path d="M98.9203 28.2566C98.8079 29.4557 98.5079 30.6297 98.0314 31.7362C97.5541 32.8381 96.9026 33.8566 96.1014 34.7528C93.0372 38.1801 86.9163 43.5463 76.3579 47.2402C75.8837 47.4058 75.3935 47.5216 74.8951 47.5859C76.7797 46.7882 85.1298 42.9216 82.1105 38.1973C78.7155 32.8856 91.3466 21.6304 93.819 25.587C95.5983 28.4419 98.1582 25.1778 98.5542 20.8575C99.0303 23.2941 99.1535 25.7858 98.9203 28.2566Z" fill="#3074D3"/>
    <path d="M91.0886 36.4045C89.8611 37.3582 88.3347 38.432 86.4222 39.6619C86.039 39.9108 85.6069 40.0759 85.1547 40.1462C84.7025 40.2164 84.2403 40.1903 83.7988 40.0695C83.3573 39.9487 82.9465 39.7361 82.5935 39.4455C82.2406 39.1549 81.9535 38.7931 81.7513 38.384C81.5868 38.0479 81.4831 37.6856 81.4448 37.3137C81.1527 34.6829 80.5962 31.4205 80.2567 28.655C80.0349 26.9099 80.2442 25.1377 80.8665 23.4922C81.4888 21.8467 82.5053 20.3777 83.8277 19.2129C85.4511 17.8047 87.5673 16.3832 90.0794 15.6397C91.9965 15.0792 92.5476 19.7234 93.6097 24.6867C93.7931 25.5111 93.9757 26.3432 94.1909 27.1627C94.6382 28.8372 94.5827 30.6052 94.0313 32.2478C93.4799 33.8904 92.4568 35.3356 91.0886 36.4045Z" fill="#3074D3"/>
    <path d="M74.3468 46.1866C74.3269 46.3933 74.2663 46.594 74.1685 46.7772C74.0707 46.9605 73.9376 47.1228 73.7768 47.2548C73.6159 47.3867 73.4306 47.4859 73.2312 47.5465C73.0319 47.6071 72.8225 47.628 72.6149 47.608C70.8789 47.4437 68.4253 47.0994 66.4899 46.3904C65.8342 46.1477 65.2399 45.7647 64.7489 45.2684C64.2579 44.7721 63.8822 44.1746 63.6483 43.5181C63.5509 43.2486 63.44 42.957 63.3297 42.6576L63.141 42.1659C62.3529 40.1952 61.9892 38.0819 62.0734 35.963L62.5767 23.8537L72.2761 24.5117L72.5353 24.5362C72.5353 24.5362 75.5549 22.0497 74.9826 28.0948C74.742 30.6362 74.2546 34.8176 73.8821 37.8957C73.5697 40.4987 73.7136 43.1363 74.3075 45.6909C74.3459 45.8532 74.3592 46.0204 74.3468 46.1866Z" fill="#98B9EA"/>
    <path d="M87.8808 6.79439L75.99 18.0728C74.362 19.6165 73.2992 21.6581 72.9703 23.8732C72.8913 24.4173 72.6273 24.9178 72.2222 25.2912C71.8172 25.6646 71.2957 25.8882 70.7448 25.9247C66.8534 26.1602 62.552 24.8445 61.4449 24.029C61.1415 23.8102 60.9814 23.402 60.9336 22.9133C60.9044 22.6256 60.8994 22.3361 60.9188 22.0476C61.0468 20.1606 61.9097 18.3984 63.3236 17.1366L76.9052 4.81555C77.7898 4.01968 78.9223 3.5507 80.1132 3.48706C82.5172 3.35664 84.9268 3.61553 87.2482 4.25366C87.3268 4.27607 87.4037 4.30423 87.4781 4.33791C87.6995 4.44358 87.8921 4.60099 88.0393 4.79671C88.1865 4.99242 88.284 5.22065 88.3236 5.46193C88.3632 5.70321 88.3435 5.95039 88.2665 6.1824C88.1894 6.41441 88.057 6.62438 87.8808 6.79439Z" fill="#98B9EA"/>
    <path d="M87.8813 6.7951L75.9904 18.0735C74.3625 19.6173 73.2997 21.6588 72.9708 23.8739C72.8918 24.418 72.6277 24.9185 72.2227 25.2919C71.8177 25.6653 71.2962 25.8889 70.7453 25.9254C66.8539 26.1609 62.5525 24.8452 61.4454 24.0297C61.1419 23.8109 60.9819 23.4027 60.9341 22.914C61.4792 23.5071 62.4585 24.1256 64.2023 24.2907C67.7909 24.6305 67.8584 21.5703 66.0447 21.3986C64.2309 21.2269 62.0946 20.2098 62.2248 18.8346L79.4318 7.70806C79.4318 7.70806 83.4309 9.64858 87.4876 4.32645C87.7106 4.4324 87.9045 4.5908 88.0524 4.78796C88.2003 4.98512 88.2979 5.21513 88.3366 5.45813C88.3754 5.70113 88.3542 5.94983 88.2748 6.18276C88.1955 6.41569 88.0604 6.62585 87.8813 6.7951Z" fill="#6F9EE0"/>
    <path d="M71.8506 20.0259C69.5687 20.9058 67.5325 21.455 65.8205 21.3684C63.6222 21.254 61.9331 20.0971 60.8611 17.2544C58.9513 12.1614 64.6134 5.8146 67.9532 5.85485C67.9532 5.85485 74.2828 6.12609 79.4231 7.72169C79.5776 7.77094 79.7292 7.82875 79.8772 7.89485C84.0787 9.85193 76.8785 18.0862 71.8506 20.0259Z" fill="#98B9EA"/>
    <path d="M72.2318 15.9226C74.1641 12.1206 73.3174 7.82084 70.3406 6.31875C67.3638 4.81665 63.3842 6.68109 61.4519 10.4831C59.5196 14.2851 60.3663 18.5849 63.3431 20.087C66.3199 21.5891 70.2995 19.7246 72.2318 15.9226Z" fill="#98B9EA"/>
    <path d="M71.8476 20.0247C69.5657 20.9046 67.5295 21.4537 65.8175 21.3672C67.0234 21.359 67.4261 20.7229 66.2302 20.6253C64.5793 20.5002 64.7001 19.0591 64.7001 19.0591L71.0311 8.02219C71.0311 8.02219 71.1374 7.09251 73.0134 7.65539C75.7234 8.46643 80.8637 10.062 80.4417 8.63719C80.3337 8.33818 80.1378 8.07837 79.8797 7.89153C84.0757 9.8507 76.8755 18.0849 71.8476 20.0247Z" fill="#6F9EE0"/>
    <path d="M71.3068 15.1686C69.761 18.2138 66.7972 19.8908 64.3564 19.2458C64.1964 19.2068 64.0396 19.1563 63.887 19.0946C63.7878 19.0569 63.6906 19.0138 63.596 18.9656L63.5635 18.9495L63.402 18.8613C63.3497 18.8329 63.2978 18.802 63.2486 18.7687C62.4823 18.2773 61.8915 17.5571 61.5612 16.7112C61.032 15.3313 60.9571 13.82 61.3475 12.3957C61.5072 11.7395 61.7428 11.104 62.0497 10.502C62.2639 10.0723 62.5127 9.66052 62.7936 9.27081C63.8338 7.83861 65.2134 6.85245 66.6147 6.46448C66.8685 6.39164 67.1279 6.33958 67.3902 6.30882C68.2092 6.20338 69.0414 6.34288 69.7809 6.70957C69.9119 6.7751 70.0385 6.84882 70.16 6.93029C70.2094 6.96099 70.2611 6.99453 70.3074 7.03015C72.4321 8.55632 72.8976 12.034 71.3068 15.1686Z" fill="#3074D3"/>
    <path d="M63.8888 19.0957C63.7895 19.0579 63.6924 19.0149 63.5978 18.9666L63.5653 18.9505L63.4037 18.8623C63.3515 18.834 63.2995 18.803 63.2504 18.7697C60.8928 17.3569 60.3734 14.78 60.3734 14.78C60.3734 14.78 60.7699 13.7398 61.3493 12.3968C61.7656 11.4235 62.2778 10.2928 62.7994 9.28527C63.5028 7.93052 64.2292 6.80183 64.7626 6.60763C65.4965 6.3387 66.5358 6.29651 67.4025 6.33692C68.2692 6.37732 68.9591 6.46346 68.9591 6.46346C69.1997 6.64653 69.415 6.86035 69.5995 7.0994C70.2854 7.94529 71.2567 9.69808 71.154 12.7705C70.986 17.279 66.5837 20.1214 63.8888 19.0957Z" fill="#3074D3"/>
    <path d="M68.318 13.707C66.995 16.3047 64.55 17.7757 62.6062 17.2377C62.4155 17.1856 62.2304 17.1149 62.0537 17.0266C60.0401 16.0107 59.5699 12.8866 61.0297 10.0312C62.4896 7.17572 65.2831 5.69606 67.2933 6.7194C67.5713 6.85891 67.825 7.04201 68.0446 7.2617C69.411 8.59633 69.5616 11.258 68.318 13.707Z" fill="#3074D3"/>
    <path d="M71.3072 15.1703C69.7615 18.2155 66.7976 19.8925 64.3568 19.2475L64.406 19.2522C64.8553 19.201 65.1803 19.0261 64.4766 18.5065C63.9424 18.1482 63.4347 17.7522 62.9575 17.3214C62.6097 16.9631 62.5485 16.671 63.0029 16.4276C63.8843 15.954 65.9707 14.4881 65.9707 14.4881L64.549 11.8596L67.1474 7.94054C67.1474 7.94054 66.5147 7.05803 67.969 7.1879C68.5507 7.26877 69.1392 7.28959 69.7251 7.25003C69.9903 7.21006 70.1454 7.11801 70.1672 6.94306C70.2166 6.97377 70.2683 7.0073 70.3146 7.04292C72.4325 8.55804 72.898 12.0357 71.3072 15.1703Z" fill="#255BB9"/>
    <path d="M67.2418 13.3161C66.1275 15.504 64.1447 16.7871 62.5646 16.4396C62.375 16.4029 62.1917 16.3391 62.0205 16.2501C60.3812 15.4233 60.0602 12.7663 61.3035 10.3199C62.5469 7.87345 64.896 6.55997 66.5249 7.38581C66.7839 7.51925 67.0159 7.6992 67.2092 7.91657C68.2252 9.05923 68.2859 11.2621 67.2418 13.3161Z" fill="#98B9EA"/>
    <path d="M67.2414 13.3186C66.1271 15.5065 64.1443 16.7896 62.5642 16.4421C62.5642 16.4421 61.7178 15.6904 62.5939 15.1069C63.47 14.5234 66.1738 8.248 66.1738 8.248C66.1738 8.248 66.2286 7.4488 67.2089 7.91907C68.2248 9.06173 68.2855 11.2646 67.2414 13.3186Z" fill="#6F9EE0"/>
    <path d="M65.909 12.9442C64.683 14.8482 62.5465 15.5726 61.4772 14.8831L61.4382 14.8534L61.3284 14.7701L61.3092 14.7526C60.4567 13.9821 60.873 12.2357 62.0385 10.4457C62.9164 9.09709 64.0113 8.13603 64.9582 7.93673C65.2836 7.85662 65.6271 7.89654 65.9253 8.04911L66.0072 8.09591C67.0864 8.79161 67.145 11.0437 65.909 12.9442Z" fill="#B1CFF2"/>
    <path d="M66.0152 8.10021L65.0725 12.1761L61.4749 14.8864L61.4359 14.8567L61.3261 14.7734L61.3069 14.756C60.165 13.9216 53.3938 9.22995 45.0025 9.44555C36.7841 9.65671 16.9087 11.193 12.7236 11.5205L12.4311 11.5449L10.5148 5.63643L10.3287 5.06173L11.9415 1.47364L12.2455 1.46598C17.459 1.32177 36.868 0.790379 43.6022 0.709445C51.4092 0.618143 52.7356 1.2982 59.1267 4.39972C64.2307 6.87437 65.5746 7.75653 65.9114 8.00968C65.9455 8.03561 65.9778 8.06389 66.008 8.09432L66.0152 8.10021Z" fill="#B1CFF2"/>
    <path d="M14.6286 4.27237C14.9765 3.52435 16.002 2.79883 18.6227 2.78662C24.1962 2.75981 50.7809 1.40571 54.5413 2.85767C57.4785 4.00261 62.7522 6.92284 64.9592 7.93877C65.5753 8.22358 65.9495 8.35793 65.9741 8.26394C65.9761 8.19089 65.9615 8.11832 65.9314 8.05165C65.9254 8.03948 65.9205 8.02682 65.9167 8.01381C65.9509 8.03974 65.9831 8.06802 66.0133 8.09844C67.0826 8.788 67.1413 11.0401 65.9052 12.9406C64.6691 14.841 62.5427 15.569 61.4734 14.8795L61.4344 14.8497L61.3246 14.7665L61.3054 14.749C60.1635 13.9146 53.3923 9.22302 45.001 9.43862C36.7826 9.64978 16.9072 11.1861 12.7222 11.5136C12.6059 11.5431 12.4868 11.5606 12.3669 11.5658C10.7915 11.638 9.43228 9.42673 9.29696 6.63111C9.27929 6.256 9.28692 5.88015 9.31982 5.5061L14.6286 4.27237Z" fill="#98B9EA"/>
    <path d="M12.7248 11.5167C12.6085 11.5462 12.4894 11.5637 12.3695 11.569C10.7941 11.6411 9.43488 9.42987 9.29956 6.63425C9.28189 6.25914 9.28952 5.88329 9.32242 5.50923C9.50319 3.24075 10.5613 1.50828 11.9135 1.44626C12.0249 1.44514 12.136 1.45566 12.2452 1.47766C13.2545 1.6409 14.1472 2.73285 14.6255 4.28017C14.8355 4.96759 14.9562 5.67889 14.9846 6.39672C15.1023 8.96419 14.1091 11.1428 12.7248 11.5167Z" fill="#98B9EA"/>
    <path d="M12.3247 10.5025C13.5653 10.4481 14.4905 8.61424 14.3912 6.40636C14.2919 4.19849 13.2057 2.45271 11.9651 2.50706C10.7245 2.56141 9.79925 4.39531 9.89855 6.60318C9.99785 8.81106 11.0841 10.5568 12.3247 10.5025Z" fill="#255BB9"/>
    <path d="M74.3468 46.1897C74.3269 46.3964 74.2663 46.5971 74.1685 46.7803C74.0707 46.9636 73.9376 47.1259 73.7768 47.2578C73.616 47.3898 73.4306 47.489 73.2312 47.5496C73.0319 47.6102 72.8225 47.6311 72.615 47.6111C70.879 47.4468 68.4254 47.1025 66.49 46.3935C65.8343 46.1508 65.2399 45.7678 64.7489 45.2715C64.2579 44.7752 63.8822 44.1777 63.6483 43.5212C63.5509 43.2517 63.44 42.9601 63.3298 42.6607C64.2409 43.3639 65.441 43.8602 67.0516 44.2443C70.8628 45.1596 70.0282 39.2573 71.9411 30.8427C72.7361 27.3333 72.6504 25.477 72.2797 24.5047L72.5388 24.5292C72.5388 24.5292 75.5585 22.0427 74.9861 28.0878C74.7455 30.6292 74.2582 34.8106 73.8857 37.8888C73.5733 40.4917 73.7172 43.1293 74.3111 45.6839C74.3493 45.8497 74.3614 46.0203 74.3468 46.1897Z" fill="#6F9EE0"/>
    <path d="M91.0891 36.4078C89.8616 37.3615 88.3352 38.4353 86.4227 39.6652C85.9209 39.9905 85.3377 40.1698 84.7388 40.183C84.1399 40.1963 83.5491 40.0428 83.0328 39.7399C82.9455 39.698 82.8763 39.6262 82.8377 39.5376C82.7992 39.449 82.794 39.3496 82.823 39.2576C82.8521 39.1655 82.9134 39.087 82.9958 39.0363C83.0782 38.9857 83.1762 38.9662 83.2719 38.9816C84.7581 39.0781 87.0612 38.0023 90.3668 33.4057C92.0795 31.0271 93.025 29.0757 93.416 27.1551C93.4333 27.0656 93.4806 26.9846 93.5503 26.9255C93.6199 26.8664 93.7077 26.8326 93.7992 26.8298C93.8907 26.8269 93.9805 26.8552 94.0538 26.9099C94.1271 26.9645 94.1796 27.0424 94.2026 27.1307L94.2004 27.1539C94.6492 28.831 94.5936 30.6021 94.0405 32.2472C93.4874 33.8924 92.4611 35.3391 91.0891 36.4078Z" fill="#255BB9"/>
    <path d="M19.3556 36.2958C19.3556 38.3234 18.5466 40.268 17.1068 41.7018C15.6669 43.1355 13.714 43.941 11.6778 43.941C9.6415 43.941 7.68863 43.1355 6.24877 41.7018C4.80891 40.268 4 38.3234 4 36.2958C4 36.2543 4 36.2103 4 36.1688C4.00621 34.1412 4.82108 32.199 6.26533 30.7696C7.70959 29.3403 9.66493 28.5407 11.7012 28.5469C13.7375 28.5531 15.6879 29.3645 17.1233 30.8026C18.5588 32.2408 19.3618 34.1878 19.3556 36.2155C19.3556 36.2414 19.3556 36.2699 19.3556 36.2958Z" fill="#3074D3"/>
    <path d="M19.3556 36.164C19.3568 36.1804 19.3568 36.1969 19.3556 36.2133C19.3139 37.4598 17.591 37.8693 15.3137 37.8641C10.8189 37.8486 4.16397 36.2055 4 36.164C4 29.584 7.753 19.7825 9.96784 14.576C10.0373 14.4116 10.1522 14.2702 10.2993 14.1684C10.4464 14.0666 10.6195 14.0085 10.7984 14.0009C10.9774 13.9933 11.1548 14.0365 11.31 14.1254C11.4653 14.2144 11.5919 14.3455 11.6752 14.5034C11.7294 14.6095 11.7638 14.7246 11.7767 14.8429C11.778 14.8636 11.778 14.8844 11.7767 14.9051C12.8464 24.2893 18.023 29.4 19.1369 34.3421C19.1552 34.4277 19.176 34.5158 19.1916 34.6013C19.2072 34.6868 19.2254 34.7749 19.2384 34.8605C19.2514 34.946 19.2671 35.0315 19.2775 35.1196C19.2879 35.2077 19.3009 35.2933 19.3087 35.3788C19.3388 35.6395 19.3544 35.9016 19.3556 36.164Z" fill="#3074D3"/>
    <path d="M19.3559 36.2137C19.3559 36.2397 19.3559 36.2682 19.3559 36.2941C19.3559 38.0473 18.7507 39.7473 17.6418 41.1091C16.5329 42.4709 14.9876 43.4119 13.2649 43.7742C11.5422 44.1365 9.74676 43.8983 8.17948 43.0993C6.6122 42.3004 5.36831 40.9893 4.65625 39.3859C6.71233 41.0419 10.382 42.8638 14.1507 39.2744C14.5971 38.8563 14.9872 38.3824 15.3114 37.8646C16.7273 35.5529 16.1781 32.8991 15.1136 29.4574C13.9372 25.6426 12.131 20.8741 11.6756 14.5039C11.7298 14.61 11.7642 14.725 11.7771 14.8434C12.9196 24.2587 18.0416 29.3875 19.1425 34.3426C19.1607 34.4281 19.1816 34.5162 19.1972 34.6018C19.2128 34.6873 19.231 34.7754 19.244 34.8609C19.257 34.9464 19.2727 35.032 19.2831 35.1201C19.2935 35.2082 19.3065 35.2937 19.3143 35.3792C19.3423 35.6375 19.3562 35.897 19.3559 36.1567C19.3577 36.1757 19.3577 36.1948 19.3559 36.2137Z" fill="#255BB9"/>
    <path d="M6.34242 33.9943C5.66053 34.4919 5.24671 40.4033 7.90401 41.2016C8.73164 41.4607 9.95749 41.2353 10.2984 40.6288C10.6133 40.0664 10.0382 39.403 8.45316 37.0006C6.65214 34.2742 6.55324 33.8466 6.34242 33.9943Z" fill="white"/>
    </g>
    <defs>
    <clipPath id="clip0_166_163710">
    <rect width="120" height="120" fill="white"/>
    </clipPath>
    </defs>
    </svg>
    