<svg width="120" height="120" viewBox="0 0 120 120" fill="none" xmlns="http://www.w3.org/2000/svg">
    <g clip-path="url(#clip0_166_170677)">
    <path d="M39.5049 80.3928V81.7402L26.8064 83.9391C26.7916 83.9377 26.7767 83.9377 26.762 83.9391C26.4626 83.9887 26.1588 84.0053 25.8558 83.9884C25.5418 83.9716 25.2306 83.9212 24.9274 83.8379L19.0658 82.2264C18.9066 82.1859 18.7653 82.0936 18.6643 81.964C18.5633 81.8345 18.5082 81.675 18.5078 81.5107V81.3602C18.5095 81.2841 18.5288 81.2094 18.5641 81.1419C18.5995 81.0745 18.65 81.0161 18.7117 80.9714C18.7734 80.9267 18.8446 80.8969 18.9197 80.8843C18.9949 80.8717 19.0719 80.8766 19.1448 80.8987L24.8929 82.4781C25.5281 82.653 26.1941 82.6858 26.8434 82.5744L39.5049 80.3928Z" fill="#255BB9"/>
    <path d="M25.8661 83.1649C25.8652 83.277 25.8381 83.3873 25.7871 83.4871C25.736 83.5869 25.6624 83.6735 25.572 83.7398C25.4817 83.8062 25.377 83.8506 25.2665 83.8695C25.156 83.8883 25.0425 83.8812 24.9352 83.8485L19.6909 82.4048L19.0761 82.237C18.9164 82.197 18.7746 82.1049 18.6731 81.9753C18.5716 81.8457 18.5162 81.686 18.5156 81.5214V81.3313C18.5175 81.2601 18.5359 81.1902 18.5692 81.1272C18.6025 81.0642 18.6498 81.0096 18.7076 80.9679C18.7654 80.9261 18.8321 80.8982 18.9024 80.8864C18.9727 80.8745 19.0448 80.879 19.1131 80.8995L21.3353 81.5115L25.4291 82.6146C25.5531 82.644 25.6637 82.7142 25.743 82.8141C25.8223 82.9139 25.8656 83.0375 25.8661 83.1649Z" fill="#6F9EE0"/>
    <path d="M39.5064 80.3928V81.7402L26.8079 83.9391C26.7931 83.9377 26.7783 83.9377 26.7635 83.9391C26.6536 83.9568 26.5412 83.9507 26.4339 83.921C26.3266 83.8913 26.227 83.8389 26.1419 83.7672C26.0568 83.6954 25.9882 83.6062 25.9407 83.5055C25.8933 83.4049 25.8682 83.2952 25.8672 83.1839V82.7447L39.5064 80.3928Z" fill="#255BB9"/>
    <path d="M35.6634 75.3025V81.0525L26.8043 82.5751C26.4937 82.6272 26.1783 82.6462 25.8636 82.6319C25.553 82.6159 25.245 82.5663 24.9451 82.4838L19.2415 80.9143C19.0356 80.8612 18.853 80.7418 18.7217 80.5745C18.5905 80.4072 18.5181 80.2014 18.5156 79.9889V75.2877C18.5173 75.2204 18.5341 75.1544 18.5648 75.0945C18.5954 75.0346 18.6391 74.9823 18.6927 74.9416C18.7463 74.9008 18.8083 74.8726 18.8742 74.8591C18.9402 74.8455 19.0083 74.8469 19.0736 74.8632L25.8636 76.3982V76.3118L35.6634 75.3025Z" fill="#3074D3"/>
    <path d="M25.8661 77.3707V81.8128C25.8628 81.9227 25.8344 82.0305 25.7831 82.1278C25.7319 82.2252 25.6591 82.3095 25.5703 82.3745C25.4814 82.4395 25.379 82.4833 25.2706 82.5027C25.1623 82.5221 25.051 82.5166 24.9451 82.4865L21.3403 81.4994L19.202 80.9096C19.0072 80.8592 18.8345 80.7461 18.7104 80.5877C18.5863 80.4294 18.5179 80.2346 18.5156 80.0335V75.283C18.5169 75.2164 18.5332 75.1511 18.5634 75.0917C18.5935 75.0324 18.6366 74.9806 18.6896 74.9403C18.7425 74.9 18.8039 74.8721 18.8691 74.8588C18.9343 74.8455 19.0017 74.8471 19.0662 74.8634L24.0859 75.9962L24.8834 76.1763C25.1589 76.2337 25.4065 76.3833 25.5852 76.6006C25.7639 76.8178 25.863 77.0895 25.8661 77.3707Z" fill="#98B9EA"/>
    <path d="M35.6649 75.3049V81.0549L26.8058 82.5776C26.6922 82.5964 26.5759 82.5905 26.4648 82.5603C26.3536 82.53 26.2503 82.4762 26.162 82.4024C26.0736 82.3286 26.0022 82.2366 25.9527 82.1326C25.9031 82.0287 25.8766 81.9153 25.875 81.8002V76.3143L35.6649 75.3049Z" fill="#3074D3"/>
    <path d="M25.8666 83.1613C25.8657 83.2733 25.8386 83.3837 25.7876 83.4835C25.7365 83.5833 25.6629 83.6698 25.5725 83.7362C25.4822 83.8025 25.3775 83.8469 25.267 83.8658C25.1565 83.8846 25.043 83.8775 24.9357 83.8448L19.6914 82.4012C20.2247 82.4012 21.2494 82.4012 21.3383 81.5078L25.4296 82.6109C25.5536 82.6403 25.6642 82.7106 25.7435 82.8104C25.8228 82.9102 25.8661 83.0338 25.8666 83.1613Z" fill="#3074D3"/>
    <path d="M25.8696 77.3709V81.8129C25.8663 81.9229 25.8379 82.0306 25.7866 82.128C25.7354 82.2253 25.6626 82.3097 25.5737 82.3746C25.4849 82.4396 25.3825 82.4834 25.2741 82.5029C25.1658 82.5223 25.0545 82.5167 24.9486 82.4866L21.3438 81.4995C22.2771 81.0602 23.319 80.4852 23.9857 79.0638C24.4573 78.0767 24.4227 76.6206 24.0894 76.0012L24.8869 76.1814C25.1615 76.2385 25.4085 76.3875 25.5871 76.6037C25.7658 76.8199 25.8654 77.0905 25.8696 77.3709Z" fill="#6F9EE0"/>
    <path d="M51.483 85.499L43.5943 87.2536C42.9824 87.3916 42.3463 87.3797 41.74 87.2191L35.4389 85.5607C35.3843 85.5453 35.3269 85.5425 35.2711 85.5526C35.2153 85.5627 35.1626 85.5854 35.1168 85.619C35.0711 85.6525 35.0337 85.6961 35.0073 85.7463C34.981 85.7965 34.9665 85.852 34.9648 85.9087V86.2418C34.9657 86.4022 35.0186 86.558 35.1157 86.6858C35.2128 86.8135 35.3487 86.9063 35.5031 86.9501L41.7894 88.8775H41.8314C42.1013 88.9599 42.3813 89.0048 42.6634 89.0107C42.9633 89.0288 43.2641 89.0047 43.5573 88.9392L51.483 87.2117V85.499Z" fill="#255BB9"/>
    <path d="M42.6589 88.2024V88.2987C42.6564 88.3967 42.6313 88.4927 42.5854 88.5794C42.5396 88.666 42.4742 88.7408 42.3946 88.798C42.3149 88.8551 42.2231 88.893 42.1263 88.9087C42.0295 88.9244 41.9304 88.9175 41.8367 88.8885H41.7947L35.5085 86.9611C35.3536 86.9155 35.2171 86.8222 35.1183 86.6946C35.0236 86.5668 34.9725 86.4119 34.9727 86.2529V85.9074C34.9737 85.8524 34.9873 85.7984 35.0124 85.7495C35.0375 85.7006 35.0735 85.6581 35.1175 85.6252C35.1616 85.5923 35.2127 85.57 35.2667 85.5599C35.3208 85.5497 35.3764 85.5521 35.4294 85.5668L35.7825 85.6606C35.7825 85.6606 35.7998 85.6606 35.8047 85.6606L36.5455 85.8556L41.8096 87.2425H41.8293L41.9058 87.2622C42.1176 87.3139 42.3063 87.4342 42.4425 87.6042C42.5787 87.7743 42.6548 87.9846 42.6589 88.2024Z" fill="#6F9EE0"/>
    <path d="M51.4836 85.499L42.6641 87.4609V88.2482C42.6674 88.3556 42.6941 88.461 42.7423 88.557C42.7905 88.6531 42.859 88.7375 42.9431 88.8044C43.0272 88.8713 43.1249 88.9192 43.2293 88.9446C43.3338 88.97 43.4425 88.9723 43.548 88.9515L51.4738 87.224L51.4836 85.499Z" fill="#255BB9"/>
    <path d="M46.1308 88.3744L88.5596 79.0905V76.9114L45.7852 86.3779L46.1308 88.3744Z" fill="#255BB9"/>
    <path d="M57.0113 78.6636V84.4161L43.4906 87.2762C43.2185 87.3313 42.9409 87.3545 42.6634 87.3453C42.3769 87.3388 42.0919 87.2999 41.8141 87.2294L35.8488 85.6598C35.599 85.5973 35.377 85.454 35.2171 85.2523C35.0572 85.0506 34.9686 84.8017 34.9648 84.5444V79.6507C34.9668 79.5307 34.9956 79.4127 35.0492 79.3054C35.1028 79.198 35.1799 79.1041 35.2746 79.0304C35.3694 78.9568 35.4795 78.9053 35.5968 78.8798C35.7141 78.8544 35.8357 78.8555 35.9525 78.8832L42.6634 80.3516L57.0113 78.6636Z" fill="#3074D3"/>
    <path d="M42.6599 81.3782V86.6075C42.6575 86.7066 42.6329 86.8039 42.588 86.8923C42.5432 86.9807 42.4791 87.0579 42.4006 87.1185C42.322 87.179 42.231 87.2212 42.1341 87.2421C42.0371 87.263 41.9367 87.2621 41.8402 87.2393H41.8205L36.5416 85.8499L35.8008 85.6549C35.8008 85.6549 35.786 85.6549 35.7786 85.6549C35.5478 85.5921 35.3438 85.4556 35.1976 85.2663C35.0514 85.077 34.9711 84.8452 34.9688 84.6061V79.5989C34.9711 79.4853 34.999 79.3737 35.0502 79.2723C35.1014 79.1709 35.1747 79.0823 35.2647 79.0129C35.3547 78.9435 35.4591 78.8952 35.5703 78.8715C35.6814 78.8478 35.7965 78.8493 35.907 78.8758L36.8946 79.0905L41.6377 80.127C41.9243 80.1899 42.1812 80.3476 42.3668 80.5748C42.5523 80.8019 42.6556 81.085 42.6599 81.3782Z" fill="#98B9EA"/>
    <path d="M57.0084 78.6636V84.4161L43.4877 87.2762C43.3886 87.2954 43.2865 87.2926 43.1886 87.2679C43.0907 87.2433 42.9994 87.1975 42.9212 87.1337C42.843 87.0699 42.7798 86.9897 42.736 86.8987C42.6923 86.8078 42.669 86.7084 42.668 86.6075V80.3565L57.0084 78.6636Z" fill="#3074D3"/>
    <path d="M42.6578 88.2028V88.299C42.6553 88.397 42.6301 88.4931 42.5843 88.5797C42.5384 88.6663 42.4731 88.7411 42.3934 88.7983C42.3138 88.8554 42.2219 88.8933 42.1251 88.9091C42.0283 88.9248 41.9292 88.9178 41.8356 88.8888H41.7936L35.5073 86.9615C35.3525 86.9158 35.216 86.8226 35.1172 86.6949C35.611 86.7221 36.29 86.7221 36.5542 85.8633L41.8183 87.2502H41.838L41.9146 87.2699C42.1233 87.3232 42.3089 87.4431 42.443 87.6115C42.5772 87.7799 42.6526 87.9876 42.6578 88.2028Z" fill="#3074D3"/>
    <path d="M42.6614 81.379V86.6083C42.6589 86.7074 42.6343 86.8046 42.5894 86.893C42.5446 86.9814 42.4805 87.0587 42.402 87.1192C42.3235 87.1798 42.2324 87.222 42.1355 87.2429C42.0385 87.2638 41.9381 87.2628 41.8416 87.24H41.8219L36.543 85.8507C37.5306 85.1449 39.0121 83.7407 39.0121 81.3888C39.0121 79.7255 37.9874 79.3924 36.8738 79.0913L41.6169 80.1278C41.9076 80.1862 42.1696 80.3421 42.3595 80.5696C42.5494 80.7972 42.6559 81.0827 42.6614 81.379Z" fill="#6F9EE0"/>
    <path d="M119.997 78.6227V78.8695C119.996 79.0171 119.948 79.1604 119.859 79.2782C119.77 79.3961 119.645 79.482 119.503 79.5235L65.9488 95.853L65.9019 95.8653H65.8846C65.5056 95.9733 65.1133 96.0281 64.7192 96.0282C64.3004 96.028 63.8841 95.9639 63.4847 95.8382L55.4601 93.3556C55.3058 93.3117 55.1698 93.219 55.0727 93.0912C54.9757 92.9635 54.9227 92.8077 54.9219 92.6473V91.907C54.9219 91.7846 54.9468 91.6634 54.9952 91.551C55.0436 91.4386 55.1144 91.3372 55.2034 91.253C55.3265 91.1308 55.4812 91.0453 55.6503 91.0062L115.454 76.6929L119.417 77.87C119.56 77.9117 119.689 77.9919 119.79 78.102C119.919 78.2451 119.993 78.4299 119.997 78.6227Z" fill="#FFB74D"/>
    <path d="M119.997 78.6231V78.8699C119.996 79.0175 119.948 79.1609 119.859 79.2787C119.77 79.3965 119.645 79.4825 119.503 79.5239L65.9488 95.8534L65.9019 95.8658H65.8846C65.5056 95.9737 65.1133 96.0285 64.7192 96.0286C64.3004 96.0284 63.8841 95.9644 63.4847 95.8386L55.4601 93.356C55.3058 93.3122 55.1698 93.2194 55.0727 93.0917C54.9757 92.9639 54.9227 92.8081 54.9219 92.6477V91.9074C54.9219 91.785 54.9468 91.6639 54.9952 91.5514C55.0436 91.439 55.1144 91.3376 55.2034 91.2534L63.5192 93.5435C63.7396 93.607 63.9652 93.6508 64.1933 93.6743C64.3679 93.6941 64.5435 93.7039 64.7192 93.704C65.1251 93.6995 65.5286 93.6414 65.9192 93.5312L66.1118 93.4745L119.795 78.0901C119.925 78.2371 119.997 78.4267 119.997 78.6231Z" fill="#255BB9"/>
    <path d="M119.779 78.0792L100.038 83.7354L96.0657 84.8731L76.8463 90.3862L66.0959 93.471C65.6791 93.5911 65.2482 93.6558 64.8145 93.6634C64.5853 93.6728 64.3558 93.6638 64.1281 93.6363C63.8508 93.6099 63.5764 93.5587 63.3083 93.4833L55.1875 91.2623C55.3128 91.1404 55.4691 91.0551 55.6393 91.0155L81.7647 84.762L87.1819 83.4615L104.735 79.2662L115.443 76.7021L119.394 77.8793C119.538 77.9092 119.671 77.9784 119.779 78.0792Z" fill="#6F9EE0"/>
    <path d="M119.783 78.0774L100.043 83.7336L99.1562 81.7174H102.22C102.22 81.7174 106.665 81.0511 104.954 79.3878C104.888 79.3237 104.813 79.2704 104.731 79.2298L115.44 76.6658L119.39 77.8429C119.541 77.8812 119.678 77.9627 119.783 78.0774Z" fill="#3074D3"/>
    <path d="M96.0709 84.8762L76.8516 90.3869L76.9479 88.3731C76.9479 88.3731 85.4242 86.7222 81.7724 84.738L87.1896 83.4375L96.0709 84.8762Z" fill="#3074D3"/>
    <path d="M55.1916 91.2515C55.1027 91.3356 55.0319 91.437 54.9835 91.5495C54.9351 91.6619 54.9102 91.783 54.9102 91.9054V92.6458C54.911 92.8062 54.9639 92.962 55.061 93.0897C55.1581 93.2174 55.294 93.3102 55.4484 93.354L63.4729 95.8367C63.6111 95.8833 63.7583 95.897 63.9027 95.8767C64.0472 95.8563 64.1848 95.8026 64.3048 95.7196C64.4247 95.6367 64.5236 95.5268 64.5935 95.3989C64.6634 95.271 64.7025 95.1285 64.7075 94.9828V94.7064C64.7068 94.5039 64.6589 94.3044 64.5676 94.1236C64.4764 93.9428 64.3442 93.7858 64.1816 93.665C64.1663 93.6518 64.1498 93.6403 64.1322 93.6304C63.9987 93.5361 63.8489 93.4675 63.6902 93.4281L55.1916 91.2515Z" fill="#3074D3"/>
    <path d="M119.997 78.6264V78.8732C119.996 79.0208 119.947 79.1642 119.858 79.282C119.769 79.3998 119.645 79.4858 119.503 79.5272L65.9484 95.8567L65.9014 95.8691H65.8842C65.7481 95.905 65.6056 95.9096 65.4675 95.8823C65.3293 95.8551 65.1992 95.7969 65.087 95.712C64.9747 95.6271 64.8832 95.5179 64.8194 95.3924C64.7556 95.267 64.7212 95.1287 64.7188 94.9881V93.6949L64.8299 93.6604L119.794 78.0811C119.927 78.2312 120 78.4258 119.997 78.6264Z" fill="#255BB9"/>
    <path d="M119.145 73.0734C119.23 73.0588 119.316 73.063 119.398 73.0857C119.481 73.1084 119.557 73.1491 119.622 73.2047C119.687 73.2604 119.739 73.3297 119.774 73.4076C119.809 73.4856 119.826 73.5703 119.824 73.6558V77.5006C119.823 77.6679 119.768 77.8302 119.667 77.9636C119.566 78.097 119.425 78.1942 119.264 78.241L115.027 79.5168C114.823 79.5794 114.611 79.6143 114.397 79.6205C114.193 79.6282 113.988 79.6099 113.787 79.5662L109.059 78.4952C108.884 78.4533 108.729 78.3534 108.618 78.2117C108.507 78.0701 108.448 77.8951 108.449 77.7153V72.7427L114.397 74.0728V73.9568L119.145 73.0734Z" fill="#3074D3"/>
    <path d="M114.397 75.2771V79.0578C114.399 79.134 114.383 79.2096 114.352 79.2789C114.32 79.3483 114.273 79.4096 114.215 79.4584C114.156 79.5072 114.087 79.5423 114.013 79.5609C113.939 79.5796 113.862 79.5814 113.787 79.5662L109.049 78.4927C108.877 78.4514 108.724 78.353 108.615 78.2137C108.506 78.0743 108.448 77.9021 108.449 77.7252V72.7427L113.252 73.8162C113.581 73.8927 113.874 74.0792 114.082 74.3449C114.29 74.6106 114.402 74.9395 114.397 75.2771Z" fill="#6F9EE0"/>
    <path d="M119.229 73.0546C119.303 73.0422 119.379 73.0463 119.451 73.0666C119.524 73.0868 119.591 73.1227 119.647 73.1717C119.704 73.2207 119.749 73.2816 119.78 73.3501C119.811 73.4185 119.826 73.4929 119.824 73.5679V77.4991C119.823 77.6663 119.768 77.8287 119.667 77.9621C119.566 78.0955 119.425 78.1927 119.264 78.2394L115.027 79.5153C114.954 79.5354 114.877 79.5384 114.802 79.5239C114.727 79.5094 114.657 79.4779 114.597 79.4318C114.536 79.3857 114.487 79.3263 114.453 79.2581C114.42 79.19 114.402 79.115 114.402 79.039V73.9553L119.229 73.0546Z" fill="#3074D3"/>
    <path d="M102.08 76.7995C102.175 76.7819 102.273 76.7856 102.366 76.8104C102.459 76.8352 102.546 76.8804 102.62 76.9427C102.694 77.0051 102.753 77.083 102.792 77.1709C102.832 77.2588 102.852 77.3544 102.851 77.451V82.1398C102.847 82.4144 102.754 82.6803 102.586 82.8972C102.417 83.1141 102.183 83.2702 101.917 83.3416L95.4976 85.1407C94.8131 85.3289 94.095 85.361 93.3964 85.2344L86.5521 83.9142C86.3086 83.8653 86.0898 83.7331 85.9334 83.5403C85.777 83.3475 85.6928 83.1061 85.6954 82.8579V77.0635L94.4433 78.3295L102.08 76.7995Z" fill="#3074D3"/>
    <path d="M102.128 76.7903C102.217 76.7734 102.308 76.7764 102.395 76.7991C102.482 76.8219 102.563 76.8637 102.631 76.9216C102.7 76.9796 102.755 77.0521 102.793 77.134C102.83 77.2159 102.848 77.305 102.847 77.3949V82.1381C102.843 82.4126 102.75 82.6786 102.582 82.8955C102.413 83.1124 102.179 83.2685 101.913 83.3399L95.4937 85.1389C95.3695 85.1717 95.2394 85.1753 95.1136 85.1494C94.9878 85.1236 94.8697 85.0689 94.7685 84.9898C94.6674 84.9107 94.5859 84.8092 94.5305 84.6934C94.4751 84.5775 94.4473 84.4505 94.4493 84.3221V78.3302L102.128 76.7903Z" fill="#3074D3"/>
    <path d="M94.4956 79.8721L94.4585 84.3413C94.4598 84.4731 94.432 84.6037 94.3771 84.7236C94.3223 84.8435 94.2417 84.9498 94.141 85.0351C94.0404 85.1204 93.9222 85.1825 93.7949 85.2169C93.6675 85.2514 93.5342 85.2575 93.4042 85.2346L86.5155 83.9069C86.2846 83.8595 86.0774 83.7334 85.9293 83.5502C85.7811 83.367 85.7012 83.1381 85.7032 82.9026V77.0662L93.0265 78.1249C93.442 78.1878 93.8204 78.3999 94.0908 78.7214C94.3612 79.043 94.5051 79.4521 94.4956 79.8721Z" fill="#6F9EE0"/>
    <path d="M77.7577 83.6473V88.8964C77.7538 89.2597 77.6311 89.6118 77.4081 89.8987C77.1852 90.1857 76.8744 90.3919 76.5232 90.4857L65.9234 93.5161C65.5279 93.6313 65.118 93.6895 64.7061 93.6889C64.3101 93.6899 63.9158 93.6384 63.5333 93.5359L56.1261 91.4629C55.8272 91.3837 55.5626 91.2088 55.3727 90.965C55.1827 90.7212 55.0779 90.422 55.0742 90.113V84.6147C55.0772 84.4579 55.1151 84.3037 55.1853 84.1634C55.2555 84.0231 55.3561 83.9002 55.4798 83.8037C55.6036 83.7073 55.7473 83.6396 55.9005 83.6057C56.0538 83.5718 56.2126 83.5726 56.3655 83.6079L57.0199 83.751L64.716 85.4192L76.5676 82.7367C76.7073 82.7028 76.8528 82.7005 76.9934 82.7301C77.1341 82.7597 77.2663 82.8204 77.3804 82.9077C77.4946 82.995 77.5877 83.1068 77.653 83.2348C77.7182 83.3628 77.754 83.5037 77.7577 83.6473Z" fill="#3074D3"/>
    <path d="M77.7547 83.5993V89.0285C77.751 89.3545 77.641 89.6705 77.4414 89.9284C77.2418 90.1862 76.9634 90.372 76.6486 90.4574L65.9204 93.515C65.7821 93.5581 65.6356 93.5686 65.4926 93.5457C65.3495 93.5228 65.2137 93.4671 65.0958 93.383C64.9779 93.2988 64.8811 93.1885 64.8129 93.0607C64.7448 92.9329 64.7072 92.7911 64.7031 92.6463V85.4181L76.6189 82.7232C76.7529 82.6897 76.8927 82.6869 77.0278 82.7151C77.163 82.7433 77.29 82.8017 77.3993 82.886C77.5087 82.9704 77.5974 83.0783 77.659 83.2019C77.7205 83.3254 77.7533 83.4613 77.7547 83.5993Z" fill="#3074D3"/>
    <path d="M64.7088 86.7687V92.6915C64.7048 92.8306 64.669 92.967 64.6042 93.0903C64.5393 93.2135 64.4472 93.3203 64.3347 93.4024C64.2222 93.4846 64.0925 93.5399 63.9553 93.5643C63.8182 93.5886 63.6773 93.5813 63.5434 93.5429L56.0472 91.4378C55.8469 91.3839 55.6621 91.2836 55.5077 91.1452C55.3533 91.0067 55.2337 90.8339 55.1584 90.6407C55.1032 90.4965 55.0748 90.3435 55.0744 90.1891V84.5674C55.0714 84.4194 55.1018 84.2725 55.1633 84.1378C55.2247 84.0031 55.3158 83.8839 55.4296 83.7891C55.5434 83.6943 55.6771 83.6263 55.8208 83.5902C55.9645 83.554 56.1144 83.5506 56.2596 83.5803L57.0201 83.7481L58.1065 83.9825L63.3459 85.1202C63.7271 85.1984 64.0701 85.4045 64.318 85.7044C64.5659 86.0042 64.7038 86.3798 64.7088 86.7687Z" fill="#98B9EA"/>
    <path d="M64.7067 86.769V92.6917C64.7027 92.8309 64.6669 92.9673 64.6021 93.0905C64.5372 93.2138 64.445 93.3205 64.3326 93.4027C64.2201 93.4848 64.0904 93.5402 63.9532 93.5645C63.816 93.5889 63.6751 93.5816 63.5413 93.5431L56.0451 91.4381C55.8448 91.3841 55.66 91.2839 55.5056 91.1454C55.3512 91.007 55.2315 90.8342 55.1562 90.641C55.9587 90.4682 57.7216 89.7402 58.5019 86.7073C58.7244 85.785 58.582 84.8125 58.1043 83.9927L63.3437 85.1303C63.7233 85.2082 64.0651 85.4128 64.3128 85.7107C64.5605 86.0085 64.6994 86.3817 64.7067 86.769Z" fill="#6F9EE0"/>
    <path d="M102.849 75.982V76.2658C102.85 76.4468 102.791 76.6231 102.68 76.766C102.569 76.909 102.412 77.0101 102.236 77.053L95.4932 78.6151C95.165 78.6917 94.83 78.7355 94.4932 78.7459H94.4512C94.1396 78.7566 93.8276 78.7351 93.5204 78.6817L81.4219 76.631V75.2959L94.508 77.3861V77.5293L102.575 75.75C102.608 75.7438 102.643 75.7451 102.676 75.754C102.709 75.7628 102.74 75.7789 102.767 75.8011C102.793 75.8233 102.814 75.851 102.828 75.8823C102.842 75.9136 102.849 75.9476 102.849 75.982Z" fill="#255BB9"/>
    <path d="M102.847 76.3281V76.3454C102.848 76.5049 102.795 76.6602 102.697 76.7861C102.599 76.912 102.461 77.001 102.306 77.0388L95.4912 78.6182C95.163 78.6948 94.828 78.7386 94.4912 78.749H94.4492V77.5423H94.5011L102.239 75.837C102.313 75.8196 102.389 75.8193 102.463 75.8361C102.536 75.8528 102.605 75.8862 102.663 75.9336C102.722 75.981 102.769 76.0412 102.801 76.1096C102.833 76.178 102.848 76.2527 102.847 76.3281Z" fill="#255BB9"/>
    <path d="M94.4867 77.8638C94.485 77.9832 94.4579 78.1008 94.4073 78.209C94.3568 78.3172 94.2838 78.4134 94.1932 78.4913C94.1027 78.5693 93.9966 78.6271 93.8821 78.661C93.7675 78.6949 93.647 78.7041 93.5287 78.688L81.4301 76.6373L49.332 71.2081V70.1987L81.4301 75.3145L94.5163 77.4048V77.5479L94.4867 77.8638Z" fill="#3074D3"/>
    <path d="M119.998 72.2894V72.6942C119.997 72.7634 119.972 72.8303 119.927 72.8828C119.882 72.9352 119.819 72.9699 119.751 72.9804L115.208 74.1082C114.939 74.1749 114.665 74.2146 114.388 74.2267C114.114 74.2435 113.838 74.2319 113.566 74.1921L102.156 72.5486V71.0679L114.388 72.6349V73.1606L116.191 72.7509L119.613 72.0106C119.657 71.9983 119.703 71.9961 119.748 72.0041C119.793 72.0122 119.836 72.0303 119.873 72.0571C119.91 72.0839 119.94 72.1187 119.962 72.1589C119.984 72.1992 119.996 72.2438 119.998 72.2894Z" fill="#255BB9"/>
    <path d="M119.993 72.2877V72.6924C119.993 72.7617 119.968 72.8285 119.922 72.881C119.877 72.9335 119.815 72.9681 119.746 72.9787L115.203 74.1065C115.103 74.1269 115 74.1246 114.902 74.0997C114.803 74.0749 114.711 74.0281 114.633 73.9629C114.555 73.8977 114.493 73.8157 114.451 73.723C114.409 73.6304 114.388 73.5295 114.391 73.4278V73.1465L116.193 72.7368L119.615 71.9965C119.66 71.9853 119.706 71.9843 119.751 71.9937C119.796 72.003 119.839 72.0225 119.875 72.0505C119.911 72.0785 119.941 72.1144 119.961 72.1555C119.982 72.1966 119.993 72.2418 119.993 72.2877Z" fill="#255BB9"/>
    <path d="M114.393 72.625V73.4418C114.394 73.5456 114.373 73.6483 114.331 73.7433C114.289 73.8383 114.228 73.9235 114.151 73.9933C114.074 74.0631 113.983 74.116 113.885 74.1485C113.786 74.1811 113.682 74.1925 113.578 74.1821L102.169 72.5386L72.3398 68.2545V67.2451L102.169 71.0579L114.393 72.625Z" fill="#3074D3"/>
    <path d="M77.7593 81.7726V82.1181C77.7573 82.2991 77.6939 82.474 77.5795 82.6143C77.4652 82.7546 77.3066 82.852 77.1296 82.8905L66.0336 85.4669C65.1679 85.6693 64.2672 85.6693 63.4015 85.4669H63.3842L45.4414 81.2716V79.865L63.4657 83.8135C64.2911 83.9961 65.1465 83.9961 65.9719 83.8135L77.2037 81.3457C77.2689 81.3316 77.3364 81.3319 77.4014 81.3466C77.4665 81.3612 77.5276 81.3899 77.5805 81.4305C77.6333 81.4711 77.6767 81.5228 77.7076 81.5819C77.7385 81.6409 77.7561 81.706 77.7593 81.7726Z" fill="#255BB9"/>
    <path d="M64.7048 83.7154V84.4557C64.7012 84.6135 64.6623 84.7685 64.5908 84.9092C64.5193 85.0499 64.417 85.1728 64.2917 85.2687C64.1663 85.3647 64.021 85.4312 63.8664 85.4635C63.7118 85.4958 63.552 85.4929 63.3986 85.4552H63.3814L45.4385 81.2599L19.0317 75.0904C18.8888 75.0587 18.7605 74.9804 18.6671 74.8678C18.5737 74.7552 18.5204 74.6147 18.5156 74.4685C18.5172 74.4071 18.5325 74.3468 18.5604 74.2921C18.5883 74.2374 18.6281 74.1896 18.6769 74.1522C18.7256 74.1149 18.7821 74.0889 18.8422 74.0761C18.9023 74.0634 18.9645 74.0642 19.0243 74.0786L45.4435 79.8705L63.4678 83.819L64.7048 83.7154Z" fill="#3074D3"/>
    <path d="M77.7547 81.7596V82.1668C77.7516 82.3324 77.6929 82.4923 77.5882 82.6207C77.4835 82.7491 77.3386 82.8386 77.1769 82.8751L66.029 85.4638C65.8738 85.5022 65.7119 85.5054 65.5553 85.473C65.3987 85.4406 65.2513 85.3735 65.1241 85.2767C64.9969 85.1798 64.893 85.0557 64.8201 84.9134C64.7473 84.7711 64.7073 84.6143 64.7031 84.4545V83.7141L65.9574 83.8104L77.2016 81.3425C77.266 81.3272 77.333 81.3263 77.3978 81.3398C77.4626 81.3534 77.5236 81.3811 77.5764 81.4209C77.6293 81.4608 77.6726 81.5118 77.7035 81.5703C77.7343 81.6289 77.7518 81.6935 77.7547 81.7596Z" fill="#255BB9"/>
    <path d="M119.705 71.2004C119.766 71.2737 119.807 71.3618 119.823 71.4559C119.839 71.5501 119.831 71.6468 119.797 71.7364C119.764 71.8261 119.708 71.9054 119.635 71.9664C119.561 72.0274 119.473 72.0679 119.379 72.0839L117.774 72.4392L65.9501 83.8134C65.1365 83.9893 64.2947 83.9893 63.4811 83.8134L61.2589 83.3198L19.1017 74.1001C19.0094 74.0818 18.9235 74.0395 18.8528 73.9773C18.7822 73.9151 18.7292 73.8354 18.6994 73.7462C18.6695 73.6569 18.6639 73.5614 18.6829 73.4692C18.702 73.3771 18.7451 73.2916 18.8079 73.2215C18.8626 73.1623 18.923 73.1086 18.9882 73.0611C19.1436 72.9509 19.323 72.879 19.5116 72.8514H19.5536L77.9968 66.2302L118.949 70.8327C119.154 70.8539 119.349 70.9279 119.517 71.0474C119.581 71.0941 119.641 71.147 119.695 71.2053L119.705 71.2004Z" fill="#3074D3"/>
    <path d="M64.7036 83.1448C64.7024 83.2536 64.6778 83.3609 64.6315 83.4594C64.5851 83.5579 64.518 83.6452 64.4349 83.7155C64.3517 83.7857 64.2543 83.8373 64.1495 83.8665C64.0446 83.8958 63.9346 83.9021 63.827 83.8851C63.7061 83.8654 63.5801 83.8432 63.4616 83.816L61.2394 83.3225L19.1317 74.1076C19.0374 74.0912 18.9492 74.0503 18.8757 73.9891C18.8023 73.9278 18.7462 73.8483 18.7132 73.7586C18.6802 73.6688 18.6714 73.572 18.6876 73.4777C18.7039 73.3835 18.7446 73.2952 18.8058 73.2217C18.8604 73.1625 18.9208 73.1087 18.986 73.0613L63.5875 81.8393C63.8962 81.8937 64.1764 82.0536 64.38 82.2918C64.5836 82.53 64.698 82.8315 64.7036 83.1448Z" fill="#6F9EE0"/>
    <path d="M119.705 71.2036C119.766 71.2769 119.807 71.3651 119.823 71.4592C119.84 71.5533 119.831 71.6501 119.798 71.7397C119.765 71.8293 119.709 71.9086 119.635 71.9696C119.561 72.0306 119.473 72.0711 119.379 72.0871L117.774 72.4425L65.9504 83.8167L65.7208 83.8635C65.6005 83.8881 65.4764 83.886 65.357 83.8575C65.2376 83.829 65.1259 83.7748 65.0297 83.6986C64.9335 83.6224 64.8551 83.5262 64.8001 83.4165C64.745 83.3069 64.7146 83.1866 64.7109 83.064C64.7151 82.7762 64.821 82.4991 65.0099 82.2819C65.1988 82.0646 65.4585 81.9212 65.743 81.877L74.5651 80.3617L117.774 71.4035L119.522 71.0408C119.586 71.0875 119.646 71.1404 119.7 71.1987L119.705 71.2036Z" fill="#3074D3"/>
    <path d="M119.525 71.0381L117.777 71.4008L74.5678 80.359L70.2617 81.2524L67.2988 81.8644C65.5885 82.2179 63.824 82.2179 62.1137 81.8644L18.9961 73.0567C19.1516 72.9465 19.3309 72.8746 19.5195 72.847H19.5615L56.899 68.6171L78.0048 66.2258L118.957 70.8283C119.161 70.848 119.357 70.9203 119.525 71.0381Z" fill="#98B9EA"/>
    <path d="M119.524 71.0384L117.776 71.4011L74.5666 80.3593L70.2605 81.2527C65.2162 81.0454 61.9743 80.885 61.9743 80.885C44.95 78.5084 45.1253 72.9583 56.8979 68.6125L78.0036 66.2212L118.956 70.8237C119.161 70.8449 119.356 70.9188 119.524 71.0384Z" fill="#6F9EE0"/>
    <path d="M117.502 29.8171L105.011 30.7895L94.6602 24.6199L101.067 7.95477L106.045 7.34521C106.045 7.34521 108.373 7.34521 109.41 8.08556C110.447 8.8259 122.714 27.4505 117.941 29.7036C117.803 29.7676 117.654 29.806 117.502 29.8171Z" fill="#3074D3"/>
    <path d="M90 9.81343V29.8027L108.582 24.6203L116.73 29.7558C118.194 29.9681 119.513 28.8896 119.513 27.4781V12.7748C119.497 12.0969 119.266 11.4415 118.854 10.9028C118.442 10.3641 117.87 9.96975 117.219 9.77642L111.725 7.9527C110.725 7.6206 109.689 7.40287 108.639 7.30366L108.466 7.28886C107.439 7.20371 106.406 7.23102 105.385 7.3703L90 9.81343Z" fill="#98B9EA"/>
    <path d="M108.639 9.56595L108.614 26.4557C108.607 27.0395 108.376 27.5982 107.969 28.0172C107.562 28.4362 107.01 28.6836 106.427 28.7088L91.2148 29.7157L90 29.7971V9.81273L105.377 7.3696C105.56 7.34492 105.745 7.32271 105.928 7.30543C105.928 7.30543 108.372 6.89578 108.619 9.17851C108.622 9.22618 108.622 9.27396 108.619 9.32164C108.639 9.40061 108.639 9.48205 108.639 9.56595Z" fill="#6F9EE0"/>
    <path d="M108.641 9.56592L108.616 26.4556C108.608 27.0394 108.377 27.5982 107.971 28.0171C107.564 28.4361 107.012 28.6836 106.428 28.7088L91.2164 29.7156C90.7868 29.4466 90.3794 29.185 90.0016 28.9407C88.3572 27.8746 87.2461 27.1121 87.2461 27.1121C87.2461 27.1121 88.5004 21.4188 90.0016 18.0429C90.5078 16.9101 91.0337 16.039 91.5546 15.7305C93.6237 14.4966 105.786 10.5481 105.786 10.5481C105.786 10.5481 108.641 11.5155 108.641 9.56592Z" fill="#3074D3"/>
    <path d="M119.503 12.7751V27.7128C119.503 29.0084 118.268 29.998 116.898 29.8031L113.422 29.3095L110.654 28.9122C110.48 28.8877 110.309 28.8463 110.143 28.7888C109.644 28.6312 109.207 28.3215 108.894 27.9033C108.58 27.485 108.406 26.9792 108.395 26.4567V24.2011L108.639 9.56696C108.651 8.03445 110.007 7.45205 111.555 7.95301L117.16 9.76439C118.565 10.2185 119.503 11.4203 119.503 12.7751Z" fill="#6F9EE0"/>
    <path d="M119.503 24.0518V27.6992C119.503 28.9948 118.269 29.9844 116.898 29.7894L113.422 29.2959C115.239 29.3403 118.553 28.7529 119.503 24.0518Z" fill="#3074D3"/>
    <path d="M104.425 28.3928L84.4454 30.5398L72.5938 24.3703L94.5686 21.1621L104.425 28.3928Z" fill="#3074D3"/>
    <path d="M107.157 9.2787V26.0475C107.157 26.3898 107.083 26.728 106.94 27.039C106.798 27.35 106.589 27.6264 106.329 27.8493C106.069 28.0722 105.764 28.2364 105.435 28.3304C105.106 28.4245 104.76 28.4463 104.422 28.3944L87.8985 20.6701L66.7804 27.1728C66.4488 27.193 66.1165 27.1452 65.804 27.0323C65.4916 26.9195 65.2055 26.7439 64.9633 26.5165C64.7212 26.2891 64.5282 26.0146 64.3961 25.7098C64.264 25.4051 64.1957 25.0766 64.1953 24.7445V8.14104C64.1963 7.42277 64.4411 6.72608 64.8896 6.16486C65.3381 5.60364 65.9638 5.21107 66.6644 5.05133L84.3727 0.996712C86.6745 0.470789 89.0775 0.598145 91.3108 1.36442H91.3306L104.869 6.05327C105.538 6.28658 106.118 6.72256 106.528 7.3006C106.939 7.87864 107.158 8.57003 107.157 9.2787Z" fill="#98B9EA"/>
    <path d="M107.157 9.27916V26.048C107.157 26.3902 107.083 26.7284 106.94 27.0394C106.797 27.3505 106.589 27.6269 106.329 27.8498C106.069 28.0727 105.764 28.2368 105.435 28.3309C105.106 28.425 104.76 28.4468 104.422 28.3949L92.8169 26.6082L90.0885 26.1886C89.4793 26.0965 88.9233 25.7892 88.5215 25.3223C88.1197 24.8555 87.8986 24.2601 87.8985 23.6443V3.80308C87.8969 3.3961 87.9921 2.99456 88.1762 2.63155C88.3603 2.26855 88.6281 1.95445 88.9574 1.71515C89.2868 1.47584 89.6683 1.31817 90.0706 1.25513C90.4729 1.19209 90.8844 1.22547 91.2712 1.35254L91.3033 1.36487H91.3231L104.861 6.05372C105.532 6.2858 106.114 6.72124 106.525 7.29938C106.937 7.87753 107.158 8.56959 107.157 9.27916Z" fill="#6F9EE0"/>
    <path d="M107.157 21.4854V26.0483C107.157 26.3906 107.083 26.7288 106.94 27.0398C106.797 27.3508 106.588 27.6273 106.329 27.8502C106.069 28.0731 105.764 28.2372 105.435 28.3313C105.105 28.4254 104.76 28.4472 104.421 28.3952L92.8164 26.6085C97.4929 27.0873 105.142 26.9861 107.157 21.4854Z" fill="#3074D3"/>
    <path d="M87.8985 3.4276V23.4342C87.8991 24.0892 87.6496 24.7198 87.2008 25.1973C86.7521 25.6747 86.1379 25.9629 85.4838 26.0032L66.7804 27.1729C66.4488 27.1931 66.1165 27.1453 65.804 27.0324C65.4916 26.9196 65.2055 26.744 64.9633 26.5166C64.7212 26.2892 64.5282 26.0146 64.3961 25.7099C64.264 25.4052 64.1957 25.0767 64.1953 24.7446V8.14113C64.1968 7.42297 64.4417 6.72651 64.8901 6.16538C65.3385 5.60424 65.964 5.21157 66.6644 5.05142L72.0964 3.80517L77.2815 2.61815L84.3653 0.996799C84.5381 0.957314 84.7085 0.922765 84.8813 0.890683C85.2516 0.824895 85.6319 0.841214 85.9952 0.938486C86.3584 1.03576 86.6959 1.21161 86.9837 1.4536C87.2716 1.6956 87.5027 1.99783 87.6607 2.33894C87.8188 2.68004 87.9 3.05169 87.8985 3.4276Z" fill="#98B9EA"/>
    <path d="M87.8985 20.0889V23.4328C87.8991 24.0878 87.6496 24.7184 87.2008 25.1959C86.7521 25.6733 86.1379 25.9615 85.4838 26.0018L66.7804 27.1715C66.4488 27.1917 66.1165 27.1439 65.804 27.031C65.4916 26.9182 65.2055 26.7426 64.9633 26.5152C64.7212 26.2878 64.5282 26.0132 64.3961 25.7085C64.264 25.4038 64.1957 25.0753 64.1953 24.7432V8.13973C64.1955 7.53919 64.3667 6.95111 64.6891 6.44434C64.7089 8.66537 65.3558 21.3376 77.2815 23.1366C83.3381 24.0497 86.38 22.268 87.8985 20.0889Z" fill="#6F9EE0"/>
    <path d="M77.2827 2.6167V11.1085C77.2829 11.4416 77.1707 11.7652 76.9641 12.0267C76.7575 12.2882 76.4688 12.4725 76.1445 12.5497L73.4112 13.1987C73.2546 13.2359 73.0915 13.2373 72.9343 13.2026C72.7771 13.1679 72.6297 13.098 72.5034 12.9983C72.377 12.8986 72.2748 12.7716 72.2046 12.6268C72.1343 12.482 72.0978 12.3231 72.0977 12.1622V3.80372L77.2827 2.6167Z" fill="#C2DEFF"/>
    <path d="M117.033 51.0254L102.219 51.2722L104.194 72.2486L106.169 72.4559C107.971 72.6468 109.79 72.5636 111.567 72.2091L113.823 71.755L117.033 51.0254Z" fill="#3074D3"/>
    <path d="M119.995 53.6688V68.0883C119.995 68.1475 119.995 68.2092 119.995 68.2709C119.995 68.3326 119.977 68.4338 119.967 68.5177C119.946 68.6652 119.915 68.8112 119.874 68.9545C119.874 68.9964 119.849 69.0384 119.834 69.0803C119.804 69.1642 119.772 69.2481 119.738 69.3271C119.721 69.3685 119.702 69.4089 119.681 69.448C119.661 69.4875 119.642 69.527 119.619 69.5665C119.384 69.9989 119.052 70.3712 118.649 70.6548L118.535 70.7313C118.416 70.8103 118.292 70.8804 118.163 70.9411C118.126 70.9594 118.089 70.9759 118.051 70.9904C117.836 71.0854 117.611 71.1566 117.38 71.2026L111.513 72.1898C111.147 72.2517 110.771 72.2302 110.414 72.1268C110.057 72.0234 109.728 71.8408 109.452 71.5926C109.196 71.3618 108.991 71.0802 108.851 70.7656C108.711 70.4511 108.638 70.1107 108.637 69.7664L108.59 54.2981C108.586 53.4767 108.903 52.6861 109.473 52.0941C110.042 51.5021 110.82 51.1552 111.642 51.127L116.311 50.9567L117.148 50.9271C117.516 50.9138 117.884 50.9749 118.229 51.1067C118.573 51.2385 118.888 51.4382 119.153 51.6941C119.419 51.9499 119.63 52.2567 119.775 52.5959C119.919 52.9352 119.994 53.3001 119.995 53.6688Z" fill="#6F9EE0"/>
    <path d="M119.996 61.6111V68.0866C119.996 68.1459 119.996 68.2076 119.996 68.2693C119.996 68.3309 119.979 68.4321 119.969 68.516C119.948 68.6636 119.916 68.8095 119.875 68.9528C119.875 68.9948 119.85 69.0367 119.836 69.0787C119.806 69.1626 119.774 69.2465 119.739 69.3255C119.723 69.3669 119.704 69.4073 119.683 69.4464C119.663 69.4859 119.643 69.5254 119.621 69.5649C119.385 69.9972 119.053 70.3696 118.65 70.6532L118.537 70.7297C118.418 70.8087 118.293 70.8788 118.164 70.9394C118.128 70.9578 118.091 70.9743 118.053 70.9888C117.838 71.0838 117.612 71.155 117.381 71.201L111.515 72.1881C111.148 72.2501 110.773 72.2286 110.416 72.1252C110.059 72.0218 109.73 71.8392 109.453 71.5909C109.856 71.8081 110.456 71.9142 111.357 71.7513C113.749 71.3195 118.833 70.3077 119.996 61.6111Z" fill="#3074D3"/>
    <path d="M95.0601 51.2712L83.6875 51.4168V75.209L87.4751 76.0802C89.2154 76.4861 91.026 76.4861 92.7663 76.0802L94.3194 75.7026L95.0601 51.2712Z" fill="#3074D3"/>
    <path d="M108.276 54.1695V70.4225C108.272 71.1434 108.018 71.8406 107.557 72.395C107.096 72.9495 106.457 73.3269 105.748 73.4628L97.9211 75.0324L97.2199 75.1706L96.1631 75.3828L93.0151 76.0146C92.515 76.1157 91.9969 76.0809 91.5148 75.9138C91.0328 75.7467 90.6044 75.4534 90.2744 75.0645C89.854 74.5717 89.6237 73.945 89.625 73.2975V54.6902C89.6258 54.075 89.7967 53.472 90.1188 52.9479C90.3435 52.5776 90.6358 52.2527 90.9805 51.9904C91.5736 51.5423 92.2939 51.2943 93.0373 51.2821L104.094 51.0847L105.064 51.0674C105.48 51.0569 105.893 51.1292 106.281 51.28C106.668 51.4308 107.021 51.6572 107.32 51.9459C107.619 52.2346 107.858 52.5799 108.022 52.9616C108.186 53.3434 108.273 53.754 108.276 54.1695Z" fill="#6F9EE0"/>
    <path d="M108.28 63.2812V70.4256C108.276 71.1465 108.021 71.8437 107.56 72.3981C107.099 72.9526 106.46 73.33 105.752 73.4659L97.9245 75.0355L97.2233 75.1737L93.0258 76.0176C92.5258 76.1188 92.0077 76.084 91.5256 75.9169C91.0435 75.7498 90.6152 75.4565 90.2852 75.0675C90.7 75.3513 91.7271 75.7141 94.0801 75.2107C97.322 74.5147 107.124 72.728 108.28 63.2812Z" fill="#3074D3"/>
    <path d="M119.256 32.7217V48.2418C119.256 49.8039 117.664 51.0798 115.676 51.1118L109.257 51.213C106.42 51.213 105.674 51.4598 105.481 50.5319C105.45 50.3277 105.433 50.1215 105.43 49.915C105.412 49.3523 105.43 48.6194 105.43 48.264V31.8086C105.43 30.1058 107.365 28.8053 109.504 29.0693L116.17 29.8862C117.95 30.1058 119.256 31.3076 119.256 32.7217Z" fill="#6F9EE0"/>
    <path d="M119.253 42.5198V48.2402C119.253 49.8023 117.66 51.0782 115.672 51.1102L109.253 51.2114C106.416 51.2114 105.67 51.4582 105.478 50.5303C105.446 50.3261 105.429 50.1199 105.426 49.9134C105.905 50.2465 106.794 50.5303 107.937 50.5303C110.226 50.5303 116.806 49.2446 119.253 42.5198Z" fill="#3074D3"/>
    <path d="M84.194 27.332C90.3668 26.0981 92.2778 26.604 95.8753 27.1544L95.9543 27.1667L107.065 28.9411C107.541 29.0168 107.974 29.2597 108.287 29.6261C108.6 29.9925 108.771 30.4584 108.771 30.94V48.881C108.771 49.4847 108.535 50.0643 108.112 50.4953C107.689 50.9263 107.114 51.1743 106.51 51.1859L98.5962 51.3365H97.9073L90.4482 51.4771L76.293 51.5166V28.5659L84.194 27.332Z" fill="#3074D3"/>
    <path d="M108.771 30.9412V48.8822C108.771 49.4859 108.534 50.0655 108.111 50.4965C107.688 50.9275 107.113 51.1755 106.509 51.1871L98.5958 51.3377H97.9069L93.1317 51.4265C92.8048 51.4346 92.4795 51.3793 92.1737 51.2636C91.6672 51.079 91.2298 50.7432 90.9207 50.3018C90.6115 49.8604 90.4456 49.3347 90.4453 48.7958V29.3914C90.4452 29.012 90.5271 28.6372 90.6855 28.2924C90.844 27.9477 91.0751 27.6413 91.3631 27.3942C91.6511 27.1472 91.9892 26.9653 92.3541 26.861C92.719 26.7568 93.1022 26.7327 93.4773 26.7903L95.8724 27.1556L95.9514 27.1679L107.062 28.9423C107.539 29.0175 107.972 29.2602 108.286 29.6266C108.599 29.9931 108.771 30.4592 108.771 30.9412Z" fill="#6F9EE0"/>
    <path d="M108.773 41.8916V48.8854C108.773 49.4891 108.537 50.0687 108.114 50.4997C107.691 50.9307 107.115 51.1787 106.512 51.1903L98.5982 51.3409H97.9093L93.1341 51.4297C90.8625 51.4297 91.1094 51.2619 91.1094 51.0151C92.2798 51.1089 107.371 52.1626 108.773 41.8916Z" fill="#3074D3"/>
    <path d="M90.4482 29.4397V48.9108C90.4484 49.6 90.1778 50.2618 89.6949 50.7537C89.2119 51.2457 88.555 51.5285 87.8656 51.5415L76.293 51.5193V28.5686L87.4039 26.8411C87.7795 26.7827 88.1633 26.8062 88.529 26.9101C88.8946 27.014 89.2335 27.1957 89.5222 27.4428C89.811 27.6899 90.0428 27.9966 90.2018 28.3417C90.3608 28.6868 90.4432 29.0622 90.4433 29.4422L90.4482 29.4397Z" fill="#3074D3"/>
    <path d="M64.1979 12.7434V7.7239C64.199 6.98209 63.9495 6.26163 63.4897 5.67933C63.0299 5.09703 62.3868 4.68701 61.6646 4.51574L44.2428 0.406822C42.8536 0.0813565 41.4261 -0.0498661 40.0009 0.0169074L39.754 0.034182C38.4592 0.116975 37.1804 0.365796 35.9491 0.774527L35.88 0.796737L22.6926 5.23881C22.0471 5.45012 21.484 5.85816 21.0823 6.40566C20.6807 6.95316 20.4606 7.61263 20.4531 8.29149V12.7336L64.1979 12.7434Z" fill="#98B9EA"/>
    <path d="M20.4414 17.6804V25.7749C20.4414 27.2555 21.75 28.793 23.2093 28.5684L36.2954 26.3474C38.441 28.7584 41.2336 28.5684 43.2953 25.8069L64.1961 26.841V17.6804H20.4414Z" fill="#6F9EE0"/>
    <path d="M64.197 7.6901V24.18C64.1972 24.5227 64.1275 24.8617 63.9923 25.1766C63.8571 25.4914 63.6592 25.7755 63.4107 26.0114C63.1621 26.2474 62.8681 26.4303 62.5466 26.5491C62.225 26.6678 61.8826 26.7199 61.5403 26.7021L43.3999 25.7767C42.4824 25.7305 41.6178 25.3335 40.985 24.6679C40.3521 24.0023 39.9995 23.1191 40 22.2009V3.96369C40.0003 3.42385 40.1226 2.89105 40.3578 2.40508C40.5931 1.91912 40.9351 1.49256 41.3584 1.15726C41.7817 0.821968 42.2754 0.586604 42.8025 0.468752C43.3296 0.3509 43.8765 0.353607 44.4024 0.476671L61.686 4.53376C62.3996 4.69925 63.0361 5.10126 63.4921 5.67436C63.948 6.24745 64.1965 6.95791 64.197 7.6901Z" fill="#6F9EE0"/>
    <path d="M39.9986 3.11065V22.4361C39.9986 23.3177 39.6826 24.1702 39.1078 24.8389C38.5329 25.5076 37.7374 25.9483 36.8654 26.0811L34.8333 26.3896L29.1346 27.2533L23.9496 28.0381L23.2088 28.1491C22.9706 28.1836 22.7286 28.1836 22.4903 28.1491C21.9186 28.065 21.3962 27.7781 21.0186 27.3409C20.641 26.9037 20.4334 26.3453 20.4336 25.7677V8.29553C20.4411 7.61667 20.6611 6.9572 21.0628 6.4097C21.4644 5.8622 22.0275 5.45416 22.6731 5.24285L25.9248 4.1496L26.4187 3.98179L31.1099 2.40732L31.6037 2.24198L35.8678 0.803244L35.937 0.781034C36.1715 0.702064 36.4086 0.630497 36.6456 0.563866C37.0384 0.455701 37.4509 0.439544 37.8509 0.516651C38.251 0.593758 38.6279 0.762052 38.9523 1.00845C39.2767 1.25484 39.5398 1.5727 39.7213 1.9373C39.9028 2.3019 39.9977 2.70343 39.9986 3.11065Z" fill="#98B9EA"/>
    <path d="M31.603 2.23438V12.3524C31.6032 12.6856 31.491 13.0091 31.2844 13.2707C31.0779 13.5322 30.7891 13.7164 30.4648 13.7936L27.7315 14.4427C27.5749 14.4799 27.4118 14.4812 27.2546 14.4465C27.0974 14.4118 26.9501 14.342 26.8237 14.2423C26.6973 14.1426 26.5951 14.0155 26.5249 13.8707C26.4546 13.7259 26.4181 13.5671 26.418 13.4062V3.98159L31.1092 2.40712L31.603 2.23438Z" fill="#C2DEFF"/>
    <path d="M36.7878 51.0261L44.8345 49.7922V74.964L45.1827 75.2107C45.1827 75.2107 41.2321 77.185 34.8125 75.7043L36.7878 51.0261Z" fill="#6F9EE0"/>
    <path d="M40.4927 54.7727V72.5681C40.4928 73.098 40.3752 73.6214 40.1484 74.1004C39.9216 74.5794 39.5913 75.0021 39.1812 75.3381C38.7712 75.674 38.2916 75.9148 37.7772 76.0431C37.2627 76.1714 36.7262 76.1839 36.2063 76.0798L23.614 73.5528C23.0082 73.4386 22.4465 73.1571 21.9926 72.7401C21.5387 72.3231 21.2108 71.7873 21.0462 71.1935C21.0068 71.0487 20.9787 70.901 20.9622 70.7518C20.9453 70.6283 20.9371 70.5038 20.9375 70.3792V53.2056C20.9378 52.8954 21 52.5883 21.1204 52.3024C21.2409 52.0165 21.4173 51.7575 21.6392 51.5405C21.8611 51.3236 22.124 51.153 22.4127 51.0389C22.7013 50.9248 23.0099 50.8694 23.3202 50.876L25.6831 50.9303L30.8682 51.0512L36.9989 51.1919C37.9334 51.2157 38.8216 51.6034 39.4743 52.2723C40.1269 52.9412 40.4923 53.8384 40.4927 54.7727Z" fill="#98B9EA"/>
    <path d="M40.4934 54.7727V72.5681C40.4935 73.098 40.3759 73.6214 40.1491 74.1004C39.9223 74.5794 39.592 75.0021 39.1819 75.3381C38.7719 75.674 38.2923 75.9148 37.7779 76.0431C37.2635 76.1714 36.7269 76.1839 36.2071 76.0798L23.6147 73.5528C23.0089 73.4386 22.4472 73.1571 21.9933 72.7401C21.5394 72.3231 21.2116 71.7873 21.0469 71.1935C21.3506 71.5662 21.9753 72.003 23.2098 72.2498C25.6789 72.7433 39.2588 76.9386 39.2588 62.1317C39.2588 49.8247 25.9554 50.9871 21.4617 51.7299C21.6858 51.4564 21.9692 51.2374 22.2904 51.0895C22.6117 50.9415 22.9623 50.8686 23.316 50.876L36.9947 51.1919C37.9302 51.2138 38.8201 51.6007 39.4739 52.2699C40.1277 52.9391 40.4936 53.8374 40.4934 54.7727Z" fill="#6F9EE0"/>
    <path d="M31.8491 51.0509V60.2558C31.8501 60.4627 31.8076 60.6674 31.7245 60.8569C31.6415 61.0464 31.5196 61.2164 31.3667 61.3559C31.2139 61.4954 31.0335 61.6013 30.8372 61.6669C30.6409 61.7324 30.433 61.7561 30.227 61.7365L27.6295 61.4897C27.3651 61.4651 27.1195 61.3426 26.9409 61.1462C26.7623 60.9499 26.6635 60.6939 26.6641 60.4286V50.9299L31.8491 51.0509Z" fill="#C2DEFF"/>
    <path d="M31.8491 51.0736V51.9817C30.1578 51.5313 28.4144 51.3065 26.6641 51.3129V50.9526L31.8491 51.0736Z" fill="#98B9EA"/>
    <path d="M84.9 60.9958L86.9864 54.7399C87.1192 54.3445 87.1557 53.9232 87.0928 53.5109C87.03 53.0986 86.8696 52.7073 86.625 52.3694C86.3803 52.0315 86.0586 51.7568 85.6864 51.5682C85.3143 51.3796 84.9025 51.2825 84.4852 51.285L43.207 51.5169L43.2984 60.9958H84.9Z" fill="#6F9EE0"/>
    <path d="M43.3477 65.9346L43.4563 77.4321L59.0115 80.6403C62.4989 81.3237 66.0887 81.2943 69.5644 80.5539L79.0111 78.666L83.2579 65.9346H43.3477Z" fill="#6F9EE0"/>
    <path d="M88.3944 54.3817V74.408C88.3901 75.0974 88.1473 75.7641 87.7071 76.2949C87.267 76.8257 86.6566 77.1879 85.9797 77.32L73.0861 79.9088L68.543 80.8219H68.4986C67.5782 81.0156 66.6186 80.8506 65.816 80.3607C65.0133 79.8708 64.4281 79.093 64.1801 78.1862C64.1255 77.9613 64.0932 77.7315 64.0838 77.5002C64.0814 77.4558 64.0814 77.4113 64.0838 77.3669V56.4522C64.0935 55.2011 64.594 54.0037 65.4778 53.1176C66.3615 52.2315 67.5579 51.7275 68.8097 51.714L85.3254 51.4179C85.7223 51.4083 86.1172 51.4778 86.487 51.6221C86.8569 51.7663 87.1944 51.9826 87.4799 52.2584C87.7655 52.5341 87.9933 52.8638 88.1503 53.2283C88.3073 53.5928 88.3903 53.9849 88.3944 54.3817Z" fill="#6F9EE0"/>
    <path d="M88.3904 64.105V74.4106C88.3861 75.1 88.1432 75.7666 87.7031 76.2974C87.2629 76.8282 86.6526 77.1904 85.9756 77.3226L73.082 79.9113C79.5017 78.2826 88.3904 74.2033 88.3904 64.105Z" fill="#3074D3"/>
    <path d="M64.0799 56.7812V77.3751C64.0799 79.5962 61.9788 81.294 59.7245 80.8449H59.6825L43.1396 77.5035C42.3421 77.3428 41.623 76.9156 41.1006 76.2922C40.5783 75.6687 40.2838 74.8862 40.2656 74.0732V54.8983C40.2655 54.4215 40.3607 53.9496 40.5455 53.5101C40.7303 53.0706 41.001 52.6724 41.3419 52.3388C41.6827 52.0053 42.0867 51.7432 42.5303 51.5678C42.9738 51.3924 43.4479 51.3073 43.9248 51.3175L48.3963 51.4112L54.5172 51.542L59.4381 51.6457C60.675 51.6708 61.853 52.1785 62.7204 53.0602C63.5877 53.9418 64.0757 55.1276 64.0799 56.3642V56.7812Z" fill="#98B9EA"/>
    <path d="M54.2693 51.5295V63.2146C54.2702 63.4215 54.2278 63.6262 54.1447 63.8157C54.0616 64.0052 53.9397 64.1751 53.7869 64.3146C53.634 64.4541 53.4537 64.5601 53.2573 64.6257C53.061 64.6912 52.8532 64.7149 52.6471 64.6953L49.1139 64.3498C48.8495 64.3251 48.6039 64.2026 48.4253 64.0063C48.2466 63.81 48.1479 63.554 48.1484 63.2886V51.3987L54.2693 51.5295Z" fill="#C2DEFF"/>
    <path d="M64.0799 71.1909V77.3605C64.0799 79.5815 61.9788 81.2793 59.7245 80.8302H59.6825L43.1396 77.4888C42.3425 77.3273 41.6239 76.8999 41.1017 76.2766C40.5795 75.6534 40.2847 74.8712 40.2656 74.0585C40.599 74.6977 41.3446 75.5392 43.0236 75.9612C45.6779 76.63 61.48 80.6377 64.0799 71.1909Z" fill="#6F9EE0"/>
    <path d="M62.0887 39.398L63.9504 28.5939L41.9508 26.2198C41.8521 26.2198 41.7533 26.1976 41.6546 26.1902C40.6348 26.09 39.6098 26.0537 38.5855 26.0816H38.5188C37.4372 26.1096 36.3584 26.2069 35.2893 26.3728L21.4821 28.5494C21.0508 28.6189 20.6586 28.8401 20.376 29.1731C20.0935 29.5061 19.9394 29.9291 19.9414 30.3657V39.398H62.0887Z" fill="#6F9EE0"/>
    <path d="M19.9453 44.3311V49.0495C19.9432 49.5287 20.1288 49.9896 20.4625 50.3337C20.7961 50.6777 21.2513 50.8776 21.7305 50.8905L38.582 51.2533L59.9964 51.5173L61.2309 44.3311H19.9453Z" fill="#6F9EE0"/>
    <path d="M38.5821 28.9978C38.58 28.6061 38.6601 28.2182 38.8171 27.8592C38.9741 27.5003 39.2046 27.1781 39.4937 26.9136C39.7828 26.649 40.1241 26.4479 40.4957 26.3232C40.8673 26.1985 41.2609 26.1529 41.6511 26.1895L59.7495 28.3217L56.5397 51.5191L41.2857 51.302C40.5602 51.2839 39.8708 50.9823 39.3653 50.4618C38.8598 49.9414 38.5786 49.2436 38.5821 48.5183V28.9978Z" fill="#6F9EE0"/>
    <path d="M38.5756 48.3952C38.5786 48.7649 38.5076 49.1314 38.3666 49.4732C38.2256 49.815 38.0176 50.1251 37.7548 50.3852C37.492 50.6454 37.1797 50.8503 36.8364 50.9879C36.4931 51.1254 36.1257 51.1929 35.7559 51.1863L21.7266 50.8853C21.2482 50.8699 20.7945 50.6692 20.4614 50.3257C20.1283 49.9822 19.9418 49.5227 19.9414 49.0443V30.3654C19.9394 29.9287 20.0935 29.5058 20.3761 29.1727C20.6586 28.8397 21.0508 28.6185 21.4821 28.5491L25.4327 27.9272L30.6177 27.1103L35.2893 26.37H35.3362C35.7311 26.3126 36.1337 26.3408 36.5167 26.4528C36.8997 26.5648 37.2541 26.7579 37.5558 27.0189C37.8575 27.28 38.0995 27.6029 38.2652 27.9657C38.431 28.3285 38.5166 28.7227 38.5164 29.1216L38.5559 43.657L38.5756 48.3952Z" fill="#98B9EA"/>
    <path d="M38.5774 48.3957C38.5804 48.7653 38.5093 49.1319 38.3684 49.4737C38.2274 49.8154 38.0194 50.1255 37.7566 50.3857C37.4938 50.6458 37.1815 50.8507 36.8382 50.9883C36.4949 51.1259 36.1275 51.1934 35.7577 51.1868L21.7284 50.8857C21.3317 50.877 20.9487 50.7397 20.6369 50.4944C20.3252 50.2491 20.1016 49.9092 20 49.5259C20.3309 49.901 21.0691 50.286 22.716 50.286C25.5727 50.286 36.2466 51.2731 38.5651 43.6575L38.5774 48.3957Z" fill="#6F9EE0"/>
    <path d="M31.357 26.9917V36.4632C31.3661 36.8177 31.2458 37.1634 31.0187 37.4359C30.7915 37.7083 30.473 37.8889 30.1224 37.9439L27.3891 38.0179C27.2374 38.0395 27.0828 38.0282 26.9358 37.9847C26.7888 37.9413 26.6529 37.8666 26.5374 37.7659C26.4219 37.6652 26.3294 37.5408 26.2664 37.4012C26.2033 37.2615 26.1711 37.1099 26.1719 36.9567V27.8085L31.357 26.9917Z" fill="#C2DEFF"/>
    <path d="M88.1472 37.0433V28.6972C88.1474 27.8357 87.8394 27.0025 87.2789 26.3481C86.7183 25.6937 85.9421 25.2612 85.0904 25.1287L67.0143 22.3179C65.0705 22.0145 63.0914 22.0145 61.1477 22.3179L43.0567 25.1287C42.2051 25.2612 41.4289 25.6937 40.8683 26.3481C40.3077 27.0025 39.9998 27.8357 40 28.6972V37.0433H88.1472Z" fill="#6F9EE0"/>
    <path d="M40 41.978V47.7675C39.9996 48.7059 40.3649 49.6075 41.0186 50.2811C41.6722 50.9547 42.5627 51.3472 43.5012 51.3755L61.2267 51.9184C63.202 51.9809 65.1822 51.9809 67.1673 51.9184L84.646 51.3779C85.584 51.3485 86.4738 50.9555 87.1272 50.2822C87.7806 49.6089 88.1463 48.708 88.1472 47.77V41.978H40Z" fill="#6F9EE0"/>
    <path d="M88.1486 28.4024V48.061C88.1488 48.9153 87.8142 49.7357 87.2166 50.3464C86.6189 50.9572 85.8057 51.3097 84.9511 51.3284L76.3488 51.5159L67.2997 51.7109C66.8812 51.7187 66.4653 51.6432 66.0764 51.4886C65.6874 51.3341 65.3332 51.1036 65.0344 50.8106C64.7355 50.5177 64.4981 50.1682 64.3359 49.7825C64.1738 49.3969 64.0901 48.9828 64.0898 48.5644V24.977C64.0901 24.5927 64.1734 24.2131 64.334 23.8639C64.4945 23.5147 64.7286 23.2043 65.0202 22.9538C65.3118 22.7034 65.6541 22.5188 66.0236 22.4127C66.3931 22.3066 66.7812 22.2814 67.1614 22.3389L85.3808 25.1745C86.1515 25.294 86.8542 25.685 87.3617 26.277C87.8693 26.8689 88.1484 27.6228 88.1486 28.4024Z" fill="#6F9EE0"/>
    <path d="M88.1474 39.9802V48.0623C88.1476 48.9166 87.813 49.737 87.2154 50.3478C86.6177 50.9585 85.8045 51.311 84.9499 51.3297L76.3477 51.5173C81.4957 50.8904 86.94 48.5559 88.1474 39.9802Z" fill="#3074D3"/>
    <path d="M64.081 25.0137V48.5271C64.0811 48.9455 63.9976 49.3597 63.8356 49.7456C63.6735 50.1314 63.4361 50.481 63.1372 50.774C62.8383 51.067 62.484 51.2975 62.0949 51.452C61.7058 51.6064 61.2898 51.6817 60.8712 51.6735L43.2098 51.333C42.3525 51.3181 41.5354 50.9668 40.9349 50.3551C40.3344 49.7433 39.9986 48.9201 40 48.0631V28.4094C40.0003 27.6288 40.28 26.8741 40.7885 26.2816C41.2971 25.6891 42.0009 25.2981 42.7728 25.1791L47.6542 24.4387L53.775 23.496L61.002 22.3855C61.3819 22.3269 61.77 22.3509 62.1397 22.4559C62.5095 22.561 62.8522 22.7445 63.1445 22.994C63.4367 23.2435 63.6717 23.5531 63.8333 23.9016C63.995 24.2502 64.0794 24.6295 64.081 25.0137Z" fill="#98B9EA"/>
    <path d="M53.7771 23.4875V34.9851C53.796 35.3339 53.686 35.6776 53.4679 35.9506C53.2498 36.2236 52.939 36.407 52.5944 36.4658L48.8784 36.6904C48.7269 36.7127 48.5724 36.7021 48.4253 36.6594C48.2783 36.6167 48.1421 36.5429 48.0262 36.4429C47.9102 36.3429 47.8172 36.2192 47.7533 36.08C47.6895 35.9409 47.6564 35.7897 47.6562 35.6366V24.4303L53.7771 23.4875Z" fill="#C2DEFF"/>
    <path d="M64.081 42.5833V48.5282C64.0811 48.9467 63.9976 49.3609 63.8356 49.7467C63.6735 50.1326 63.4361 50.4822 63.1372 50.7752C62.8383 51.0682 62.484 51.2987 62.0949 51.4531C61.7058 51.6076 61.2898 51.6829 60.8712 51.6747L43.2098 51.3341C42.3525 51.3192 41.5354 50.968 40.9349 50.3563C40.3344 49.7445 39.9986 48.9213 40 48.0643V47.9902C40.3975 48.8638 41.3308 50.2828 43.2098 50.2828C45.9258 50.2828 58.7527 50.5148 61.481 48.0618C63.9501 45.8432 63.9501 43.869 64.081 42.5833Z" fill="#6F9EE0"/>
    <path d="M44.6337 86.066C45.628 86.2737 46.5203 86.8176 47.1603 87.606C47.8003 88.3945 48.1488 89.3793 48.1472 90.3946V110.384C48.1468 110.99 47.9559 111.581 47.6015 112.074C47.2472 112.566 46.7471 112.935 46.1719 113.128L27.4809 119.419C25.1806 120.189 22.6907 120.182 20.3947 119.399L2.15801 113.212C1.52684 112.999 0.978736 112.593 0.591409 112.051C0.204083 111.509 -0.00282067 110.86 2.90465e-05 110.194C0.0123745 103.923 0.53829 86.8557 0.493846 86.8064L21.2144 82.5222C21.3453 82.4951 21.4761 82.4704 21.6095 82.4482C23.5981 82.1021 25.634 82.1314 27.6118 82.5346L44.6337 86.066Z" fill="#6F9EE0"/>
    <path d="M17.5322 83.2832L21.621 82.4491H21.6482C22.014 82.384 22.3902 82.4086 22.7444 82.5207C23.2379 82.674 23.6692 82.9812 23.9753 83.3973C24.2815 83.8134 24.4463 84.3165 24.4456 84.833V116.115L23.9518 116.036L3.95222 112.788C2.98436 112.63 2.10352 112.135 1.46487 111.391C0.826207 110.647 0.470692 109.702 0.460938 108.721L0.495505 86.8073L17.5322 83.2832Z" fill="#255BB9"/>
    <path d="M46.9101 111.734L24.4414 116.176V85.1288C24.4416 84.7364 24.529 84.3489 24.6974 83.9944C24.8658 83.6398 25.1109 83.3272 25.415 83.0789C25.7191 82.8307 26.0746 82.6531 26.4558 82.5591C26.837 82.465 27.2344 82.4569 27.6191 82.5351L45.3323 86.2245C46.1168 86.3868 46.8172 86.8244 47.3068 87.4581C47.7964 88.0919 48.0428 88.8799 48.0014 89.6795L46.9101 111.734Z" fill="#3074D3"/>
    <path d="M48.1495 89.5986V110.395C48.1491 111.001 47.9582 111.592 47.6039 112.085C47.2495 112.577 46.7494 112.946 46.1742 113.139L27.4833 119.43C27.0802 119.565 26.6505 119.603 26.2299 119.54C25.8093 119.476 25.4098 119.313 25.0647 119.065C24.7195 118.817 24.4386 118.489 24.2452 118.111C24.0518 117.732 23.9514 117.313 23.9525 116.888V91.7456L15.6489 85.8228C15.6206 85.803 15.5988 85.7752 15.5862 85.743C15.5736 85.7108 15.5709 85.6756 15.5783 85.6419C15.5857 85.6081 15.6029 85.5773 15.6278 85.5533C15.6526 85.5293 15.6841 85.5131 15.7181 85.5069L37.3127 81.6448C38.2515 81.4756 39.2199 81.6444 40.046 82.1211L45.7249 85.4132C46.4601 85.8394 47.0702 86.4514 47.494 87.1878C47.9179 87.9241 48.1405 88.759 48.1396 89.6085L48.1495 89.5986Z" fill="#6F9EE0"/>
    <path d="M33.6232 74.7351C33.6276 74.7773 33.6211 74.8199 33.6042 74.8588C33.5873 74.8977 33.5607 74.9316 33.5269 74.9572L31.3912 76.6847H28.6406V74.9251L33.3319 74.4858H33.3714C33.437 74.4882 33.4993 74.5152 33.5459 74.5614C33.5926 74.6075 33.6202 74.6695 33.6232 74.7351Z" fill="#6F9EE0"/>
    <path d="M33.6225 74.7361C33.6269 74.7783 33.6204 74.8209 33.6035 74.8598C33.5866 74.8987 33.56 74.9326 33.5262 74.9582L31.3905 76.6857L26.0918 80.9797C25.1707 81.7252 24.0831 82.2374 22.9215 82.4727L22.7413 82.5097L2.71451 86.5619C1.40837 86.8259 1.97379 87.3022 4.68978 87.7958C5.92432 88.0203 1.29479 87.6477 0.492338 87.6156H0.304688L0.492338 87.0554L0.403451 86.8925L0.546658 86.7469L1.30467 85.9745L1.3343 85.9424L1.35652 85.9202L7.03541 80.1061L9.40574 77.6777L9.49462 77.5889L9.65264 77.426C9.96014 77.1107 10.3696 76.9148 10.8082 76.8732L11.1613 76.8411L28.6399 75.2099L33.6225 74.7361Z" fill="#3074D3"/>
    <path d="M33.624 74.7348L28.6414 75.2086L11.1553 76.8472C10.5329 76.9021 9.94653 77.1626 9.48869 77.5876L9.39981 77.6764L7.02948 80.1048L1.35059 85.9189L1.32837 85.9411L1.29874 85.9732C0.879012 86.4321 0.599676 87.0016 0.493817 87.6143C0.490065 87.6743 0.490065 87.7345 0.493817 87.7945L0 88.288C0.0189713 87.8666 0.102234 87.4505 0.246908 87.0541C0.26913 86.9949 0.293821 86.9357 0.318512 86.8764C0.501697 86.4385 0.763632 86.0379 1.09134 85.6944L9.1529 77.4296C9.6199 76.951 10.2423 76.6544 10.9084 76.5931L28.6414 74.9297L33.3326 74.4905H33.3722C33.437 74.4928 33.4986 74.5191 33.5451 74.5642C33.5916 74.6093 33.6198 74.6701 33.624 74.7348Z" fill="#98B9EA"/>
    <path d="M34.3195 90.0172L24.4431 92.8058L22.9617 93.2253L0.246094 87.922L0.493002 86.809L8.71012 85.0816C9.49239 84.9162 10.3006 84.9162 11.0829 85.0816L24.4431 87.9245L34.3195 90.0172Z" fill="#6F9EE0"/>
    <path d="M41.7544 88.2528L24.4437 84.7041L18.7648 83.5393C18.6977 83.5393 18.6333 83.5126 18.5858 83.4652C18.5384 83.4177 18.5117 83.3534 18.5117 83.2863C18.5117 83.2192 18.5384 83.1549 18.5858 83.1074C18.6333 83.06 18.6977 83.0334 18.7648 83.0334L23.8832 81.9895C24.2578 81.9117 24.6444 81.9117 25.019 81.9895L45.6778 86.3156" fill="#3074D3"/>
    <path d="M45.3744 87.3743C45.7047 87.3042 46.0465 87.3077 46.3753 87.3847C46.7042 87.4617 47.0119 87.6103 47.2767 87.8198C47.5415 88.0293 47.7568 88.2946 47.9073 88.5969C48.0577 88.8991 48.1396 89.2307 48.1472 89.5682V110.394C48.1467 111.001 47.9559 111.592 47.6015 112.084C47.2471 112.576 46.7471 112.945 46.1719 113.138L27.4809 119.429C27.0788 119.564 26.6502 119.602 26.2306 119.539C25.8109 119.476 25.4122 119.315 25.0673 119.068C24.7225 118.821 24.4413 118.495 24.2471 118.118C24.0528 117.741 23.951 117.323 23.9501 116.899C23.9501 117.322 23.8493 117.739 23.656 118.115C23.4627 118.492 23.1825 118.817 22.8387 119.063C22.4948 119.31 22.0971 119.471 21.6785 119.533C21.2599 119.595 20.8325 119.557 20.4317 119.421H20.3971L2.15799 113.215C1.52763 113.001 0.98037 112.594 0.593251 112.053C0.206131 111.511 -0.00135284 110.862 6.63816e-06 110.197V89.9828C-0.000245681 89.5989 0.0850687 89.2199 0.249749 88.8731C0.414429 88.5264 0.654337 88.2206 0.952039 87.9781C1.24974 87.7357 1.59775 87.5625 1.97079 87.4713C2.34382 87.3801 2.7325 87.3731 3.10858 87.4508L20.328 91.0045C22.7179 91.4945 25.1824 91.4945 27.5723 91.0045L45.3744 87.3743Z" fill="#6F9EE0"/>
    <path d="M20.2463 85.1289V88.4185C20.2463 88.5153 20.2078 88.6082 20.1393 88.6767C20.0707 88.7452 19.9778 88.7837 19.8809 88.7837H19.2266C19.1504 88.7827 19.0764 88.7586 19.0142 88.7146L15.4612 86.1777C15.4197 86.148 15.3849 86.1099 15.359 86.066C15.3332 86.022 15.3168 85.9731 15.311 85.9224C15.3052 85.8717 15.31 85.8204 15.3253 85.7717C15.3405 85.723 15.3658 85.678 15.3995 85.6397C15.4532 85.5792 15.5251 85.5376 15.6044 85.5213L19.8192 84.7809C19.8706 84.7721 19.9234 84.7744 19.9739 84.7876C20.0244 84.8009 20.0715 84.8248 20.1119 84.8578C20.1524 84.8907 20.1854 84.932 20.2085 84.9788C20.2317 85.0255 20.2446 85.0767 20.2463 85.1289Z" fill="#98B9EA"/>
    <path d="M45.4338 87.3611L24.4466 91.6427L23.9528 91.7439L19.8047 88.7825L15.4023 85.6386C15.4561 85.578 15.528 85.5364 15.6073 85.5201L19.822 84.7798L20.2492 84.7032L37.471 81.6234C38.3083 81.4737 39.1716 81.6249 39.908 82.0503L45.7351 85.4239L45.7548 85.4362C45.9342 85.5453 46.0769 85.7056 46.1644 85.8965C46.2518 86.0874 46.2801 86.3 46.2456 86.5071C46.2111 86.7142 46.1153 86.9062 45.9706 87.0584C45.8259 87.2106 45.639 87.316 45.4338 87.3611Z" fill="#98B9EA"/>
    <path d="M23.9499 91.7458L19.8019 88.7844L15.3995 85.6404C15.3658 85.6787 15.3405 85.7237 15.3253 85.7723C15.31 85.821 15.3052 85.8724 15.311 85.9231C15.3168 85.9737 15.3332 86.0226 15.359 86.0666C15.3849 86.1106 15.4197 86.1487 15.4612 86.1784L20.4932 89.7715C20.4932 89.7715 23.2092 91.7458 23.9499 91.7458Z" fill="#98B9EA"/>
    <path d="M23.9501 95.4293V116.899C23.9501 117.322 23.8493 117.739 23.656 118.115C23.4627 118.492 23.1825 118.817 22.8387 119.063C22.4948 119.31 22.0971 119.471 21.6785 119.533C21.2599 119.595 20.8325 119.557 20.4317 119.421H20.3971L2.15799 113.212C1.52763 112.998 0.98037 112.592 0.59325 112.05C0.206131 111.509 -0.00135284 110.86 6.63816e-06 110.194V88.4084C0.00508746 88.2127 0.0532584 88.0205 0.141093 87.8455C0.228927 87.6704 0.354268 87.5169 0.508198 87.3958C0.662129 87.2747 0.840867 87.189 1.0317 87.1448C1.22253 87.1006 1.42077 87.0989 1.61232 87.14L20.3379 91.0021C21.3574 91.2126 22.2732 91.7677 22.9312 92.5741C23.5891 93.3805 23.9489 94.3888 23.9501 95.4293Z" fill="#98B9EA"/>
    <path d="M23.9501 109.264V116.897C23.9501 117.32 23.8493 117.737 23.656 118.113C23.4627 118.49 23.1825 118.815 22.8387 119.061C22.4948 119.308 22.0971 119.469 21.6785 119.531C21.2599 119.593 20.8325 119.555 20.4317 119.419H20.3971L2.15799 113.213C1.52763 112.999 0.98037 112.592 0.59325 112.051C0.206131 111.509 -0.00135284 110.86 6.63816e-06 110.195V109.815C0.392591 110.424 1.39751 111.429 3.95054 112.226C7.90108 113.46 23.9501 118.395 23.9501 109.264Z" fill="#6F9EE0"/>
    <path d="M48.1502 89.566V110.392C48.1497 110.998 47.9589 111.589 47.6045 112.082C47.2501 112.574 46.7501 112.943 46.1749 113.136L36.7627 116.305L31.627 118.032L27.4839 119.427C27.0818 119.562 26.6532 119.6 26.2336 119.537C25.8139 119.474 25.4152 119.313 25.0703 119.066C24.7255 118.819 24.4443 118.493 24.25 118.116C24.0558 117.739 23.954 117.321 23.9531 116.897V95.4271C23.9531 94.3861 24.3129 93.3772 24.9716 92.5709C25.6303 91.7646 26.5474 91.2105 27.5679 91.0023L45.3774 87.3697C45.7079 87.2995 46.0499 87.3031 46.3789 87.3803C46.7079 87.4574 47.0158 87.6062 47.2807 87.816C47.5455 88.0257 47.7607 88.2914 47.9111 88.5939C48.0614 88.8964 48.143 89.2283 48.1502 89.566Z" fill="#6F9EE0"/>
    <path d="M48.1481 96.4307V110.391C48.1477 110.998 47.9568 111.589 47.6025 112.081C47.2481 112.573 46.748 112.942 46.1728 113.135L36.7607 116.304L31.625 118.031C37.0372 116.173 48.1481 112.615 48.1481 96.4307Z" fill="#3074D3"/>
    </g>
    <defs>
    <clipPath id="clip0_166_170677">
    <rect width="120" height="120" fill="white"/>
    </clipPath>
    </defs>
    </svg>
    