<svg width="23" height="22" viewBox="0 0 23 22" fill="none" xmlns="http://www.w3.org/2000/svg">
    <path d="M10.1491 13.1603V20.4463C10.1499 20.5446 10.1313 20.6421 10.0944 20.7332C10.0575 20.8243 10.003 20.9073 9.93395 20.9773C9.86494 21.0473 9.7828 21.1031 9.69224 21.1413C9.60167 21.1796 9.50445 21.1996 9.40614 21.2003H1.70714C1.60797 21.2008 1.50969 21.1817 1.41797 21.144C1.32625 21.1063 1.24292 21.0507 1.17279 20.9806C1.10267 20.9105 1.04715 20.8272 1.00945 20.7354C0.971746 20.6437 0.952605 20.5454 0.953136 20.4463V13.1463C0.955247 12.9482 1.03581 12.7591 1.17716 12.6204C1.3185 12.4817 1.5091 12.4047 1.70714 12.4063H4.05614V14.7063C4.05614 14.8633 4.07614 14.9993 4.23414 15.0623C5.10861 15.1355 5.98767 15.1355 6.86214 15.0623C7.01914 14.9983 7.05014 14.8743 7.05014 14.7163V12.4063H9.40714C9.50545 12.4069 9.60267 12.427 9.69324 12.4652C9.7838 12.5035 9.86594 12.5592 9.93495 12.6292C10.004 12.6993 10.0585 12.7822 10.0954 12.8733C10.1323 12.9645 10.1509 13.062 10.1501 13.1603" fill="currentColor"/>
    <path d="M22.5582 13.1554V20.4414C22.5587 20.5406 22.5396 20.6389 22.5019 20.7306C22.4642 20.8223 22.4087 20.9057 22.3386 20.9758C22.2684 21.0459 22.1851 21.1014 22.0934 21.1391C22.0017 21.1768 21.9034 21.196 21.8042 21.1954H14.1102C14.0119 21.1948 13.9147 21.1748 13.8241 21.1365C13.7335 21.0982 13.6514 21.0425 13.5824 20.9725C13.5134 20.9024 13.4589 20.8195 13.4219 20.7284C13.385 20.6373 13.3664 20.5398 13.3672 20.4414V13.1414C13.368 12.9446 13.4465 12.7561 13.5857 12.6169C13.7249 12.4778 13.9134 12.3992 14.1102 12.3984H16.4552V12.7124C16.4552 13.3824 16.4662 14.0404 16.4552 14.7004C16.4552 14.8574 16.4862 14.9934 16.6432 15.0564C17.5177 15.1296 18.3967 15.1296 19.2712 15.0564C19.4282 14.9924 19.4592 14.8684 19.4592 14.7104V12.4014H21.8042C21.9034 12.4009 22.0017 12.42 22.0934 12.4578C22.1851 12.4955 22.2684 12.551 22.3386 12.6211C22.4087 12.6912 22.4642 12.7745 22.5019 12.8663C22.5396 12.958 22.5587 13.0563 22.5582 13.1554Z" fill="currentColor"/>
    <path d="M20.5397 1.89716V8.48115C20.5373 8.62994 20.5054 8.77677 20.446 8.9132C20.3866 9.04963 20.3008 9.17297 20.1936 9.27612C20.0863 9.37928 19.9597 9.46022 19.8211 9.51428C19.6825 9.56835 19.5345 9.59447 19.3857 9.59116H3.87275C3.72398 9.59447 3.57603 9.56835 3.43739 9.51428C3.29876 9.46022 3.17218 9.37928 3.06493 9.27612C2.95769 9.17297 2.87189 9.04963 2.81248 8.9132C2.75307 8.77677 2.72122 8.62994 2.71875 8.48115V1.90716C2.72122 1.75837 2.75307 1.61154 2.81248 1.47511C2.87189 1.33868 2.95769 1.21535 3.06493 1.11219C3.17218 1.00903 3.29876 0.928096 3.43739 0.874031C3.57603 0.819966 3.72398 0.79384 3.87275 0.797155H9.54275V1.08016C9.54275 2.11616 9.55275 3.14216 9.54275 4.16816C9.54275 4.40916 9.58575 4.61816 9.84275 4.71316C11.1856 4.80137 12.5329 4.80137 13.8757 4.71316C13.9747 4.68063 14.0594 4.61485 14.1153 4.52698C14.1713 4.43912 14.1951 4.33459 14.1827 4.23116V0.797155H19.3908C19.6888 0.791251 19.9771 0.903691 20.1924 1.10986C20.4078 1.31602 20.5327 1.59911 20.5397 1.89716Z" fill="currentColor"/>
    </svg>
    