<svg width="24" height="24" viewBox="0 0 24 24" fill="none" xmlns="http://www.w3.org/2000/svg">
<path d="M12.003 23.0009C12.3688 23.0057 12.7319 22.9384 13.0716 22.8028C13.4113 22.6672 13.721 22.466 13.9829 22.2108C14.2449 21.9555 14.454 21.6511 14.5983 21.315C14.7426 20.9789 14.8193 20.6177 14.824 20.2519H9.18203C9.18659 20.6177 9.2632 20.979 9.40747 21.3152C9.55174 21.6513 9.76085 21.9558 10.0228 22.2111C10.2848 22.4664 10.5946 22.6675 10.9343 22.8031C11.2741 22.9386 11.6373 23.0058 12.003 23.0009ZM21.503 16.5669C20.65 15.6749 19.058 14.3329 19.058 9.93494C19.0427 8.33997 18.4699 6.80062 17.4389 5.58356C16.408 4.36649 14.9837 3.54837 13.413 3.27094V2.37094C13.413 1.99698 13.2645 1.63834 13 1.37392C12.7356 1.10949 12.377 0.960937 12.003 0.960938C11.6291 0.960937 11.2704 1.10949 11.006 1.37392C10.7416 1.63834 10.593 1.99698 10.593 2.37094V3.27094C9.02128 3.54793 7.5961 4.36643 6.56479 5.58443C5.53348 6.80242 4.96112 8.34303 4.94703 9.93894C4.94703 14.3389 3.35303 15.6789 2.50103 16.5709C2.25792 16.8204 2.12284 17.1556 2.12503 17.5039C2.12737 17.687 2.1658 17.8679 2.23811 18.0361C2.31042 18.2044 2.41519 18.3567 2.54643 18.4844C2.67767 18.6121 2.8328 18.7127 3.00295 18.7804C3.1731 18.8481 3.35492 18.8816 3.53803 18.8789H20.467C20.6504 18.8816 20.8325 18.848 21.0029 18.7801C21.1733 18.7123 21.3287 18.6114 21.46 18.4834C21.5914 18.3554 21.6962 18.2027 21.7684 18.0341C21.8407 17.8655 21.8789 17.6843 21.881 17.5009C21.8832 17.1526 21.7481 16.8174 21.505 16.5679" fill="currentColor"/>
</svg>
