<svg width="54" height="54" viewBox="0 0 54 54" fill="none" xmlns="http://www.w3.org/2000/svg">
    <g clip-path="url(#clip0_2882_93230)">
    <path d="M52.779 18.813L50.4196 17.4609L48.0703 18.8265L48.0781 21.5452L50.4364 22.8973L52.7857 21.5318L52.779 18.813ZM49.7797 21.3137C49.5563 21.1855 49.376 20.994 49.2615 20.7634C49.1471 20.5327 49.1036 20.2733 49.1365 20.018C49.1695 19.7627 49.2775 19.5228 49.4468 19.3288C49.6162 19.1348 49.8392 18.9954 50.0878 18.9281C50.3364 18.8609 50.5994 18.8688 50.8435 18.951C51.0876 19.0331 51.3018 19.1858 51.4591 19.3897C51.6164 19.5936 51.7097 19.8395 51.7272 20.0963C51.7446 20.3532 51.6855 20.6095 51.5573 20.8328C51.4722 20.9811 51.3587 21.1111 51.2233 21.2155C51.0879 21.3199 50.9332 21.3966 50.7681 21.4413C50.6031 21.4859 50.4308 21.4977 50.2612 21.4758C50.0916 21.4539 49.928 21.3988 49.7797 21.3137Z" fill="#EEEEEE"/>
    <path d="M6.53437 32.5089L3.79242 30.3203L0.525792 31.6042L0 35.0711L2.74195 37.2597L6.00746 35.977L6.53437 32.5089ZM2.2184 35.1013C1.95968 34.8939 1.76824 34.6145 1.66825 34.2984C1.56826 33.9823 1.5642 33.6437 1.65659 33.3253C1.74898 33.0069 1.93367 32.723 2.18734 32.5094C2.44101 32.2959 2.75229 32.1623 3.08187 32.1254C3.41145 32.0886 3.74455 32.1503 4.03912 32.3026C4.33368 32.4549 4.5765 32.691 4.73691 32.9812C4.89732 33.2713 4.96813 33.6025 4.9404 33.9329C4.91267 34.2632 4.78764 34.578 4.58111 34.8374C4.44355 35.0101 4.27322 35.154 4.0799 35.2608C3.88659 35.3676 3.67408 35.4352 3.45457 35.4598C3.23506 35.4843 3.01287 35.4652 2.80074 35.4037C2.58861 35.3422 2.39071 35.2394 2.2184 35.1013Z" fill="#EEEEEE"/>
    <path d="M1.78906 37.1484C1.78906 37.1484 2.33947 39.8974 6.46414 41.2718C10.5888 42.6463 44.3581 44.571 45.9254 44.571C47.0251 44.571 48.8128 43.3341 48.2624 41.1343C47.712 38.9345 1.78906 37.1484 1.78906 37.1484Z" fill="#AAAAAA"/>
    <path d="M44.27 42.5069C44.27 42.5069 1.50737 41.9633 1.78257 37.2137C1.78257 37.1924 1.78257 37.1701 1.78817 37.1466C2.47617 32.3376 6.2932 27.6953 6.2932 27.6953C11.9662 28.5766 22.7192 29.2029 31.6756 29.6032C39.8186 29.9645 46.4749 30.1367 46.4749 30.1367C43.9992 37.1466 44.27 42.5069 44.27 42.5069Z" fill="#DADADA"/>
    <path d="M44.27 42.5052C44.27 42.5052 1.50737 41.9617 1.78257 37.212C2.6037 37.6482 4.49656 38.4209 8.38854 39.0696C14.1633 40.0314 33.6903 42.4985 37.5376 33.8457C38.0869 32.6088 37.4 29.8599 32.7271 29.8599C31.8187 29.8599 31.5379 29.7604 31.6778 29.6016C39.8209 29.9628 46.4772 30.135 46.4772 30.135C43.9992 37.1449 44.27 42.5052 44.27 42.5052Z" fill="#CCCCCC"/>
    <path d="M44.0816 42.1091C44.0925 42.5399 44.2138 42.9607 44.434 43.3312C44.6542 43.7016 44.9658 44.0094 45.339 44.225C45.8558 44.5125 46.4969 44.6131 47.1782 44.1132C48.8115 42.9166 50.8699 40.7179 51.0108 34.6698C51.1518 28.6217 49.9112 26.4219 49.9112 26.4219L46.2966 30.1829C46.2966 30.1829 43.822 35.5253 44.0816 42.1091Z" fill="#AAAAAA"/>
    <path d="M12.2713 25.7344H48.7412C50.4192 25.7344 50.4528 27.384 49.4907 28.0706L47.015 29.7202C46.167 30.1922 45.5394 30.9381 44.5695 30.9012L7.06037 28.9251C6.08822 28.8881 5.87119 27.5428 6.78293 27.2028L9.26534 26.2768C10.227 25.9185 11.245 25.7349 12.2713 25.7344Z" fill="#E5E5E5"/>
    <path d="M47.7132 27.0664C47.6816 27.104 47.6438 27.1357 47.6013 27.1603L45.2845 28.423C45.1983 28.4699 45.1088 28.5135 45.0193 28.5538C44.5171 28.7786 43.9708 28.8875 43.4207 28.8725L41.6811 28.8211L40.5277 28.7864L13.1317 27.9633H13.0747L9.07752 27.8436C8.99832 27.8403 8.9226 27.8102 8.86275 27.7582C8.80289 27.7062 8.76245 27.6355 8.74803 27.5576C8.73361 27.4797 8.74607 27.3992 8.78336 27.3292C8.82066 27.2593 8.88058 27.2041 8.95334 27.1726L9.79349 26.8483C10.682 26.4799 11.6351 26.2925 12.597 26.297H13.408H13.615L41.2985 26.3976H42.0492L47.4134 26.4166C47.4901 26.4161 47.5653 26.4383 47.6295 26.4806C47.6936 26.5228 47.7437 26.583 47.7736 26.6537C47.8032 26.7212 47.8132 26.7957 47.8026 26.8687C47.7919 26.9417 47.7609 27.0102 47.7132 27.0664Z" fill="#919191"/>
    <path d="M48.8092 19.0041C48.8092 19.0041 48.1536 23.8757 47.7699 26.6582C47.7509 26.8014 47.7307 26.9378 47.7128 27.0686C47.6813 27.1062 47.6434 27.138 47.6009 27.1626L45.2841 28.4252C45.198 28.4722 45.1085 28.5158 45.019 28.5561L12.3415 27.5495C12.2288 27.5461 12.1181 27.5178 12.0176 27.4665C11.9171 27.4152 11.8293 27.3423 11.7604 27.253C11.6915 27.1637 11.6432 27.0602 11.6191 26.95C11.5951 26.8398 11.5957 26.7256 11.6211 26.6157V26.5945L11.6781 26.3428L13.6146 17.9048C13.8898 16.8055 14.4402 16.943 14.4402 16.943H47.5763C49.222 16.943 48.8092 19.0041 48.8092 19.0041Z" fill="#919191"/>
    <path d="M48.8092 19.0042C48.8092 19.0042 48.1536 23.8758 47.7699 26.6583C47.7509 26.8014 47.7307 26.9379 47.7128 27.0687C47.6813 27.1063 47.6434 27.1381 47.601 27.1627L45.2841 28.4253C45.198 28.4723 45.1085 28.5159 45.019 28.5561L12.3415 27.5496C12.2288 27.5462 12.1181 27.5179 12.0176 27.4666C11.9171 27.4153 11.8293 27.3424 11.7604 27.253C11.6915 27.1637 11.6432 27.0602 11.6191 26.9501C11.5951 26.8399 11.5957 26.7257 11.6211 26.6158V26.5945C12.0484 26.7779 13.0027 26.9714 15.1215 26.9714C18.9811 26.9714 34.4327 27.6145 35.4205 16.9375H47.5719C49.222 16.9431 48.8092 19.0042 48.8092 19.0042Z" fill="#919191"/>
    <path d="M53.0341 1.5657C52.3807 0.546878 51.4063 0.0246039 50.3492 0H50.1903L38.5949 0.043616L37.1562 9.30028L38.9137 12.0425C39.3232 12.68 40.1443 12.68 40.7518 12.0425L42.4298 10.2833C43.0362 9.64473 43.8584 9.64473 44.2668 10.2833L44.4245 10.5294L44.4581 10.5797L45.3094 11.9184C45.7177 12.5558 46.54 12.5558 47.1474 11.9184L48.9038 10.0719C49.0284 9.92927 49.1807 9.81337 49.3515 9.73129C49.5223 9.6492 49.7079 9.60263 49.8972 9.59441C50.0673 9.59408 50.2346 9.63792 50.3826 9.72163C50.5307 9.80534 50.6545 9.92605 50.7418 10.0719C51.4007 11.0997 52.9144 10.3717 53.1403 8.91892L53.6941 5.35471C53.7467 5.01577 53.7733 4.67329 53.7735 4.33029C53.7758 3.28798 53.5207 2.32507 53.0341 1.5657ZM50.6311 1.48854C50.4073 1.16086 50.5192 0.894688 50.8738 0.894688C51.2285 0.894688 51.7039 1.16086 51.9288 1.48854C52.1536 1.81622 52.0406 2.08239 51.6849 2.08239C51.3292 2.08239 50.8548 1.81733 50.6311 1.48854ZM52.3214 6.0548C52.1064 6.05171 51.8988 5.97549 51.7328 5.83867C51.5669 5.70186 51.4525 5.51263 51.4086 5.30214C51.391 5.20698 51.3952 5.10906 51.421 5.01578C51.4468 4.9225 51.4935 4.8363 51.5575 4.7637C51.6215 4.69109 51.7011 4.63398 51.7905 4.59668C51.8798 4.55937 51.9764 4.54285 52.0731 4.54837C52.2883 4.55171 52.4959 4.62817 52.6618 4.76517C52.8277 4.90217 52.942 5.09155 52.986 5.30214C53.0036 5.39725 52.9994 5.49513 52.9736 5.58837C52.9478 5.6816 52.9011 5.76775 52.8371 5.84027C52.773 5.9128 52.6933 5.9698 52.604 6.00697C52.5147 6.04414 52.418 6.0605 52.3214 6.0548Z" fill="#CCCCCC"/>
    <path d="M31.6072 0L24.2796 0.00671031C23.2985 0.0241235 22.3395 0.301607 21.5008 0.810811C20.5467 1.38338 19.7196 2.14447 19.0698 3.04753C18.1167 4.34259 17.5942 5.88257 17.2206 7.52097L13.4998 25.8352L13.4069 26.2949L13.3208 26.6829L13.125 27.9612L40.521 28.7843L41.6744 28.819L41.9832 26.7825L42.0425 26.3978L44.4343 10.6904L44.4522 10.5786L44.488 10.3448L45.2285 5.4699C45.4472 4.03668 46.087 2.70074 47.0666 1.63169L47.1057 1.59254C48.0454 0.586021 49.1463 0.0603915 50.1855 0.00447354H31.6072V0ZM43.1869 12.6375C43.1315 12.9026 42.9874 13.1411 42.7784 13.3134C42.5694 13.4858 42.3078 13.5819 42.0369 13.5858C41.4887 13.5858 41.1128 13.1609 41.2001 12.6375C41.2551 12.3717 41.3991 12.1326 41.6084 11.9598C41.8177 11.7869 42.0798 11.6907 42.3512 11.6869C42.8994 11.6857 43.273 12.1107 43.1869 12.6363V12.6375ZM44.0405 7.7055C43.9853 7.97088 43.8413 8.20955 43.6323 8.38216C43.4232 8.55476 43.1616 8.65099 42.8904 8.65499C42.3423 8.65499 41.9664 8.23001 42.0536 7.7055C42.1091 7.44013 42.2533 7.20158 42.4626 7.02918C42.6719 6.85677 42.9337 6.76082 43.2048 6.75713C43.7518 6.75713 44.1255 7.18211 44.0405 7.7055ZM23.8556 0.150978C24.2427 0.0324323 24.7428 0.0134203 24.9743 0.109599C25.2059 0.205778 25.0862 0.380242 24.6969 0.499907C24.3076 0.619571 23.8098 0.636347 23.5782 0.540168C23.3466 0.443989 23.4697 0.269525 23.8556 0.150978ZM19.7645 2.8328C20.0162 2.36869 20.6215 2.0164 21.1148 2.04995C21.6082 2.0835 21.8062 2.48276 21.5533 2.94464C21.3005 3.40652 20.6986 3.76104 20.2031 3.72749C19.7075 3.69394 19.5083 3.29916 19.7645 2.8328ZM17.7755 7.7301C17.8368 7.47008 17.9831 7.23789 18.1911 7.07021C18.3992 6.90252 18.6572 6.80889 18.9244 6.8041C19.4625 6.8041 19.8193 7.21901 19.722 7.7301C19.6604 7.98992 19.5141 8.22185 19.3061 8.38932C19.098 8.55679 18.8402 8.65026 18.5731 8.65499C18.0294 8.65499 17.6725 8.24119 17.771 7.7301H17.7755ZM16.8805 12.5055C16.942 12.2453 17.0885 12.0129 17.2967 11.845C17.5049 11.6772 17.7631 11.5834 18.0305 11.5784C18.5675 11.5784 18.9255 11.9944 18.827 12.5055C18.7655 12.7653 18.6191 12.9972 18.4111 13.1647C18.2031 13.3322 17.9452 13.4257 17.6781 13.4304C17.1378 13.4304 16.7809 13.0166 16.8783 12.5055H16.8805ZM15.9855 17.2149C16.0467 16.9547 16.1928 16.7222 16.4009 16.5543C16.609 16.3864 16.8671 16.2926 17.1344 16.2878C17.6725 16.2878 18.0294 16.7027 17.9321 17.2149C17.8705 17.4747 17.7242 17.7067 17.5161 17.8741C17.3081 18.0416 17.0502 18.1351 16.7832 18.1398C16.2417 18.1398 15.886 17.726 15.9833 17.2149H15.9855ZM15.0906 21.9232C15.152 21.6633 15.2983 21.4313 15.5063 21.2638C15.7144 21.0963 15.9724 21.0029 16.2395 20.9983C16.7776 20.9983 17.1344 21.4121 17.0371 21.9232C16.9759 22.1836 16.8296 22.4162 16.6213 22.5841C16.413 22.752 16.1546 22.8457 15.8871 22.8503C15.3468 22.8503 14.9888 22.4332 15.0872 21.9232H15.0906ZM16.1422 26.6326C16.0806 26.8927 15.9341 27.1249 15.7259 27.2926C15.5176 27.4603 15.2595 27.5539 14.9921 27.5586C14.4551 27.5586 14.0972 27.1437 14.1945 26.6326C14.2455 26.3927 14.3741 26.1761 14.5603 26.0164C14.7756 25.8226 15.0537 25.713 15.3434 25.7077C15.5092 25.6987 15.6735 25.743 15.8122 25.8342C15.9509 25.9254 16.0568 26.0586 16.1142 26.2144C16.1598 26.349 16.1683 26.4935 16.1388 26.6326H16.1422ZM40.7962 27.1236C40.7413 27.3889 40.5975 27.6275 40.3887 27.8001C40.1798 27.9727 39.9183 28.069 39.6473 28.0731C39.0969 28.0731 38.7233 27.6481 38.8094 27.1236C38.8652 26.8584 39.0096 26.6201 39.2187 26.4477C39.4279 26.2754 39.6895 26.1793 39.9605 26.1752C40.5065 26.1752 40.8812 26.6002 40.7962 27.1236ZM41.5939 22.2945C41.5387 22.5596 41.3948 22.798 41.186 22.9704C40.9771 23.1428 40.7158 23.2389 40.4449 23.2429C39.8957 23.2429 39.5209 22.8179 39.607 22.2945C39.6624 22.029 39.8066 21.7903 40.0159 21.6177C40.2251 21.4451 40.4869 21.349 40.7582 21.345C41.3041 21.345 41.6789 21.77 41.5916 22.2945H41.5939ZM42.3915 17.4643C42.3367 17.73 42.1929 17.969 41.9838 18.1419C41.7747 18.3147 41.5128 18.4111 41.2415 18.4149C40.7873 18.4149 40.4517 18.1219 40.4002 17.7226C40.3863 17.6371 40.3863 17.5499 40.4002 17.4643C40.4455 17.2445 40.5523 17.042 40.7081 16.8805C40.864 16.7189 41.0625 16.6049 41.2806 16.5517C41.3689 16.5279 41.4599 16.5159 41.5514 16.5159C42.1018 16.5159 42.4743 16.9409 42.3893 17.4643H42.3915ZM45.0473 3.20969C44.7688 3.70736 44.1177 4.06412 43.593 4.00708C43.0683 3.95005 42.8614 3.49823 43.1377 3.00056C43.414 2.50289 44.0684 2.1439 44.592 2.20205C45.1156 2.2602 45.3236 2.7109 45.0473 3.20969ZM47.4335 0.637465C46.9536 0.778378 46.3327 0.79068 46.0486 0.667661C45.7644 0.544641 45.9188 0.332153 46.3987 0.192358C46.8786 0.052563 47.4984 0.0391427 47.7848 0.162162C48.0712 0.285182 47.9134 0.493197 47.4335 0.632992V0.637465Z" fill="#EEEEEE"/>
    <path d="M44.4186 10.5294C43.6395 12.6635 42.5866 14.6875 41.2862 16.5506C41.3745 16.5269 41.4655 16.5148 41.5569 16.5149C42.1051 16.5149 42.4788 16.9398 42.3926 17.4632C42.3379 17.7289 42.194 17.968 41.9849 18.1408C41.7758 18.3137 41.5139 18.41 41.2426 18.4138C40.7884 18.4138 40.4528 18.1208 40.4013 17.7216C39.3155 19.0714 38.0715 20.286 36.6962 21.3395C36.7518 21.4039 36.7925 21.4798 36.8153 21.5618C36.8381 21.6438 36.8425 21.7298 36.8282 21.8136C36.8058 21.9508 36.7354 22.0756 36.6294 22.1656C36.5234 22.2555 36.3888 22.3048 36.2498 22.3046H36.2408L35.356 22.289C31.888 24.5547 28.0844 25.644 24.6164 26.116L26.799 26.1629L28.4837 26.1999C28.6356 26.2079 28.7784 26.2742 28.8825 26.385C28.9866 26.4959 29.0438 26.6426 29.0422 26.7946C29.0406 26.9466 28.9803 27.0921 28.874 27.2007C28.7676 27.3093 28.6234 27.3726 28.4714 27.3775H28.458L24.2069 27.2802L19.2734 27.1684C19.1888 27.1663 19.1056 27.1458 19.0296 27.1084C18.9537 27.0709 18.8868 27.0174 18.8335 26.9516C18.7803 26.8857 18.7421 26.8091 18.7215 26.727C18.7008 26.6449 18.6983 26.5593 18.7141 26.4761C18.7191 26.449 18.7266 26.4224 18.7364 26.3967C17.7665 26.3631 16.885 26.2949 16.1175 26.2144C16.1639 26.3489 16.1732 26.4934 16.1444 26.6327C16.0828 26.8928 15.9363 27.125 15.7281 27.2927C15.5199 27.4603 15.2617 27.5539 14.9944 27.5587C14.4574 27.5587 14.0994 27.1437 14.1967 26.6327C14.2478 26.3927 14.3763 26.1762 14.5625 26.0164C14.1262 25.9505 13.7683 25.8878 13.4998 25.8353L13.4069 26.2949L13.3208 26.6819L13.125 27.9602L40.521 28.7833L41.6744 28.8179L41.9832 26.7814L42.0425 26.3967L44.4343 10.6893L44.4522 10.5775L44.488 10.3438C44.4656 10.4064 44.4421 10.4657 44.4186 10.5294ZM40.7962 27.1225C40.7413 27.3878 40.5975 27.6264 40.3887 27.7991C40.1798 27.9717 39.9183 28.0679 39.6473 28.072C39.0969 28.072 38.7233 27.647 38.8094 27.1225C38.8652 26.8573 39.0096 26.619 39.2187 26.4467C39.4279 26.2743 39.6895 26.1782 39.9606 26.1741C40.5065 26.1741 40.8812 26.5991 40.7962 27.1225ZM41.5939 22.2934C41.5387 22.5585 41.3948 22.7969 41.186 22.9693C40.9771 23.1417 40.7158 23.2378 40.445 23.2418C39.8957 23.2418 39.5209 22.8168 39.607 22.2934C39.6624 22.0279 39.8066 21.7893 40.0159 21.6167C40.2251 21.4441 40.4869 21.3479 40.7582 21.3439C41.3041 21.3439 41.6789 21.7689 41.5916 22.2934H41.5939Z" fill="#DADADA"/>
    <path d="M51.3931 35.2118C52.0321 32.4865 51.5143 30.0345 50.2366 29.7351C48.9589 29.4358 47.4052 31.4024 46.7662 34.1278C46.1273 36.8532 46.6451 39.3052 47.9228 39.6045C49.2005 39.9039 50.7542 37.9372 51.3931 35.2118Z" fill="#CCCCCC"/>
    <path d="M50.1876 29.7188C50.1876 29.7188 51.7247 30.5844 52.0559 31.0451C52.387 31.5059 49.7748 39.34 49.7748 39.34C49.7748 39.34 48.8127 39.8902 47.9849 39.6151C47.1571 39.34 47.2969 35.4917 48.3966 32.7428C49.4963 29.9939 50.1876 29.7188 50.1876 29.7188Z" fill="#CCCCCC"/>
    <path d="M52.6069 35.5493C53.1613 33.1841 52.7116 31.0561 51.6023 30.7963C50.4931 30.5364 49.1444 32.243 48.5899 34.6082C48.0354 36.9733 48.4852 39.1013 49.5944 39.3612C50.7037 39.6211 52.0524 37.9144 52.6069 35.5493Z" fill="#DADADA"/>
    <path d="M32.105 6.77905L23.1005 6.76899C23.0202 6.76816 22.9411 6.74982 22.8687 6.71525C22.7962 6.68068 22.7322 6.63071 22.681 6.56883C22.6299 6.50695 22.5929 6.43466 22.5726 6.357C22.5523 6.27934 22.5492 6.19819 22.5635 6.11922C22.5877 5.99337 22.655 5.87987 22.7538 5.79823C22.8526 5.71659 22.9768 5.67191 23.105 5.67188H32.1117C32.1921 5.67194 32.2715 5.68962 32.3443 5.72365C32.4171 5.75768 32.4816 5.80724 32.5332 5.86885C32.5848 5.93047 32.6223 6.00263 32.643 6.08028C32.6638 6.15792 32.6672 6.23916 32.6532 6.31829V6.33171C32.6292 6.4589 32.561 6.57353 32.4607 6.65538C32.3605 6.73723 32.2345 6.78103 32.105 6.77905Z" fill="#6F9EE0"/>
    <path d="M31.2141 11.8238L22.1649 11.7646C22.083 11.764 22.0023 11.7455 21.9284 11.7103C21.8545 11.6752 21.7892 11.6242 21.7371 11.5611C21.6851 11.4979 21.6475 11.4242 21.6271 11.3449C21.6066 11.2657 21.6039 11.1829 21.6189 11.1025C21.6435 10.9742 21.7122 10.8586 21.8132 10.7756C21.9141 10.6927 22.0409 10.6477 22.1716 10.6484L31.2219 10.6954C31.3033 10.6958 31.3836 10.714 31.4572 10.7486C31.5308 10.7832 31.596 10.8335 31.6482 10.8959C31.7004 10.9583 31.7383 11.0313 31.7594 11.1099C31.7804 11.1884 31.7841 11.2707 31.7701 11.3508V11.362C31.7471 11.4923 31.6785 11.6102 31.5767 11.6948C31.4749 11.7793 31.3464 11.8251 31.2141 11.8238Z" fill="#6F9EE0"/>
    <path d="M30.3103 16.9389L21.2163 16.8271C21.1336 16.8261 21.0521 16.8069 20.9776 16.7711C20.9031 16.7353 20.8373 16.6836 20.7848 16.6197C20.7324 16.5557 20.6946 16.4811 20.674 16.401C20.6535 16.321 20.6507 16.2374 20.6659 16.1561C20.6907 16.0261 20.7602 15.9089 20.8623 15.8247C20.9645 15.7406 21.0929 15.6948 21.2252 15.6953L30.3203 15.7926C30.4026 15.7933 30.4837 15.8119 30.5581 15.8472C30.6324 15.8824 30.6981 15.9334 30.7508 15.9966C30.8034 16.0599 30.8415 16.1338 30.8627 16.2133C30.8838 16.2928 30.8873 16.3759 30.873 16.4569V16.4681C30.8502 16.6005 30.7811 16.7205 30.678 16.8067C30.575 16.893 30.4446 16.9398 30.3103 16.9389Z" fill="#6F9EE0"/>
    <path d="M26.7938 26.1619C25.9156 26.5746 25.0497 26.9448 24.2062 27.2803L19.2727 27.1684C19.188 27.1664 19.1048 27.1459 19.0289 27.1085C18.9529 27.071 18.886 27.0175 18.8328 26.9517C18.7796 26.8858 18.7414 26.8092 18.7207 26.7271C18.7001 26.645 18.6976 26.5594 18.7133 26.4762C18.7184 26.4491 18.7259 26.4225 18.7357 26.3968C20.6989 26.4676 22.6646 26.374 24.6123 26.1172L26.7938 26.1619Z" fill="#3074D3"/>
    <path d="M24.6109 26.1152C22.6633 26.372 20.6976 26.4656 18.7344 26.3948C18.7731 26.2796 18.8471 26.1795 18.9459 26.1086C19.0446 26.0378 19.1632 25.9998 19.2848 26H19.2993L24.6109 26.1152Z" fill="#6F9EE0"/>
    <path d="M29.389 22.1211L20.2492 21.9623C20.165 21.9615 20.0821 21.9422 20.0062 21.9058C19.9303 21.8695 19.8633 21.8169 19.81 21.7519C19.7566 21.6868 19.7182 21.6108 19.6975 21.5293C19.6767 21.4478 19.6741 21.3627 19.6898 21.2801C19.7151 21.1469 19.7867 21.0269 19.8919 20.9414C19.9971 20.8558 20.1292 20.8102 20.2648 20.8126L29.4058 20.9602C29.4888 20.9613 29.5706 20.9803 29.6455 21.016C29.7205 21.0517 29.7868 21.1032 29.84 21.167C29.8931 21.2308 29.9318 21.3053 29.9534 21.3854C29.975 21.4655 29.979 21.5494 29.9651 21.6312V21.6424C29.9424 21.778 29.8717 21.9008 29.766 21.9887C29.6602 22.0765 29.5265 22.1235 29.389 22.1211Z" fill="#6F9EE0"/>
    <path d="M38.8504 6.78912H37.0269C36.9457 6.78894 36.8655 6.77109 36.7919 6.73681C36.7183 6.70252 36.653 6.65262 36.6006 6.59058C36.5483 6.52853 36.51 6.45583 36.4886 6.37752C36.4671 6.29921 36.463 6.21717 36.4765 6.13711C36.4987 6.00695 36.5662 5.88884 36.6672 5.80369C36.7681 5.71854 36.896 5.67185 37.028 5.67188H38.8515C38.9327 5.67191 39.0129 5.68962 39.0866 5.72377C39.1603 5.75792 39.2256 5.80769 39.2781 5.86963C39.3306 5.93156 39.3689 6.00418 39.3905 6.08243C39.4121 6.16068 39.4164 6.24269 39.403 6.32276C39.3811 6.45331 39.3135 6.57184 39.2123 6.65723C39.1111 6.74263 38.9828 6.78936 38.8504 6.78912Z" fill="#6F9EE0"/>
    <path d="M37.9871 11.9331L36.1613 11.9231C36.0787 11.9233 35.9971 11.9054 35.9221 11.8708C35.8471 11.8361 35.7807 11.7854 35.7274 11.7223C35.6741 11.6592 35.6352 11.5853 35.6136 11.5056C35.5919 11.4259 35.5879 11.3424 35.602 11.261C35.6242 11.1289 35.6927 11.0089 35.7951 10.9225C35.8975 10.8361 36.0273 10.7888 36.1613 10.7891L37.9871 10.7991C38.0693 10.7993 38.1506 10.8174 38.2252 10.8521C38.2998 10.8868 38.3659 10.9372 38.4191 10.9999C38.4723 11.0627 38.5112 11.1362 38.5332 11.2155C38.5552 11.2947 38.5597 11.3778 38.5464 11.459C38.5244 11.5914 38.4562 11.7118 38.3537 11.7986C38.2513 11.8854 38.1214 11.9331 37.9871 11.9331Z" fill="#6F9EE0"/>
    <path d="M37.1298 17.0169L35.3018 16.9946C35.2188 16.9935 35.137 16.9744 35.0621 16.9387C34.9871 16.903 34.9208 16.8515 34.8677 16.7878C34.8145 16.724 34.7758 16.6495 34.7542 16.5694C34.7326 16.4892 34.7286 16.4054 34.7425 16.3235C34.7656 16.1885 34.836 16.066 34.9412 15.9781C35.0463 15.8902 35.1793 15.8426 35.3164 15.8438L37.1444 15.8639C37.2274 15.865 37.3092 15.884 37.3841 15.9197C37.4591 15.9554 37.5254 16.0069 37.5785 16.0707C37.6317 16.1344 37.6704 16.209 37.692 16.2891C37.7136 16.3692 37.7176 16.4531 37.7037 16.5349C37.6815 16.6706 37.6114 16.7938 37.5061 16.8823C37.4008 16.9707 37.2673 17.0185 37.1298 17.0169Z" fill="#6F9EE0"/>
    <path d="M34.8418 21.1139C34.4939 21.407 34.1392 21.6899 33.7812 21.9628L33.817 21.7548C33.8483 21.5721 33.9438 21.4067 34.0864 21.2884C34.229 21.17 34.4092 21.1066 34.5945 21.1095L34.8418 21.1139Z" fill="#6F9EE0"/>
    <path d="M35.359 27.5395L33.5243 27.4981C33.4392 27.4961 33.3555 27.4758 33.279 27.4386C33.2024 27.4014 33.1348 27.3481 33.0806 27.2824C33.0265 27.2168 32.9871 27.1402 32.9653 27.058C32.9434 26.9757 32.9394 26.8897 32.9538 26.8058C32.9776 26.6657 33.0511 26.5387 33.1607 26.4482C33.2704 26.3577 33.409 26.3096 33.5511 26.3126L35.3825 26.3529C35.4673 26.3548 35.5508 26.3749 35.6272 26.4119C35.7036 26.4488 35.7712 26.5017 35.8254 26.567C35.8796 26.6324 35.9192 26.7085 35.9414 26.7905C35.9636 26.8724 35.9679 26.9581 35.9541 27.0418C35.9311 27.1823 35.8583 27.3099 35.7491 27.4012C35.6398 27.4925 35.5014 27.5416 35.359 27.5395Z" fill="#3074D3"/>
    <path d="M29.0471 26.8921C29.0236 27.0287 28.9526 27.1525 28.8465 27.2418C28.7405 27.331 28.6063 27.3799 28.4676 27.3797H28.4542L24.2031 27.2824C25.0466 26.9469 25.9125 26.5779 26.7907 26.1641L28.4755 26.201C28.5608 26.2021 28.6449 26.2217 28.7219 26.2586C28.7988 26.2954 28.8669 26.3486 28.9213 26.4143C28.9756 26.4801 29.0151 26.5569 29.0368 26.6394C29.0585 26.7219 29.0621 26.8081 29.0471 26.8921Z" fill="#3074D3"/>
    <path d="M36.8316 21.8179C36.8093 21.9551 36.7388 22.0799 36.6328 22.1698C36.5268 22.2598 36.3923 22.3091 36.2532 22.3089H36.2443L35.3594 22.2932C35.8121 21.9995 36.2596 21.683 36.7018 21.3438C36.757 21.4084 36.7973 21.4844 36.8197 21.5663C36.8422 21.6483 36.8462 21.7342 36.8316 21.8179Z" fill="#3074D3"/>
    <path d="M36.6924 21.3375C36.2524 21.6775 35.8049 21.994 35.35 22.287L34.031 22.2646C33.9933 22.2639 33.9561 22.255 33.9221 22.2386C33.8881 22.2222 33.858 22.1986 33.8339 22.1695C33.8098 22.1405 33.7922 22.1065 33.7824 22.0701C33.7726 22.0336 33.7708 21.9954 33.7771 21.9582C34.1351 21.6853 34.4886 21.4024 34.8376 21.1094L36.2539 21.1317C36.3374 21.1331 36.4197 21.1522 36.4952 21.1876C36.5708 21.2231 36.6381 21.2742 36.6924 21.3375Z" fill="#6F9EE0"/>
    <path d="M33.4153 2.18028L24.4153 2.17245C24.0707 2.17245 23.979 1.93536 24.224 1.67926C24.4347 1.47475 24.7136 1.35527 25.0071 1.34375H34.0138C34.3561 1.34375 34.4501 1.57637 34.2118 1.83024L34.204 1.83806C33.9932 2.04684 33.7118 2.16897 33.4153 2.18028Z" fill="#6F9EE0"/>
    <path d="M40.1502 2.17918H38.3345C37.9888 2.17918 37.8926 1.94321 38.1331 1.6871C38.3456 1.47365 38.6309 1.34824 38.9319 1.33594H40.7554C41.1011 1.33594 41.2029 1.56967 40.959 1.82578C40.744 2.04191 40.4549 2.16824 40.1502 2.17918Z" fill="#6F9EE0"/>
    <path d="M42.3105 43.2867L38.0863 50.4419L30.8359 46.162L31.7779 44.5649L35.0591 39.0078L38.3413 40.9448L42.3105 43.2867Z" fill="#3074D3"/>
    <path d="M42.315 43.2883L38.0907 50.4458L30.8438 46.1636L31.7868 44.5666C32.5755 45.1201 36.397 47.67 37.7674 46.1043C39.0696 44.6169 39.2643 42.1789 38.3492 40.9453L42.315 43.2883Z" fill="#255BB9"/>
    <path d="M48.2332 40.5698L45.7452 44.7827C45.6713 44.9079 45.5735 45.0173 45.4574 45.1046C45.3412 45.192 45.209 45.2556 45.0682 45.2919C44.9274 45.3281 44.7809 45.3363 44.6369 45.3159C44.493 45.2955 44.3545 45.2469 44.2294 45.173L37.1614 41.0015L32.4818 38.2403C32.3565 38.1666 32.2469 38.0689 32.1595 37.9527C32.072 37.8366 32.0084 37.7043 31.9722 37.5635C31.936 37.4227 31.928 37.2761 31.9487 37.1322C31.9693 36.9883 32.0182 36.8499 32.0925 36.7249L34.5794 32.5121C34.729 32.2597 34.9725 32.0769 35.2566 32.0038C35.5408 31.9306 35.8423 31.973 36.0952 32.1218L44.65 37.17L47.8484 39.0545C48.1001 39.2047 48.2819 39.4486 48.3541 39.7326C48.4262 40.0167 48.3827 40.3178 48.2332 40.5698Z" fill="#98B9EA"/>
    <path d="M48.2281 40.5717L45.7401 44.7846C45.6662 44.9097 45.5684 45.0191 45.4523 45.1065C45.3361 45.1939 45.2038 45.2575 45.0631 45.2937C44.9223 45.33 44.7758 45.3381 44.6318 45.3177C44.4879 45.2973 44.3494 45.2488 44.2242 45.1749L37.1562 41.0034C38.9652 41.7773 41.9354 42.7626 43.1156 41.5089C44.4581 40.0852 44.7691 38.1482 44.6449 37.1719L47.8433 39.0563C48.095 39.2066 48.2768 39.4504 48.349 39.7345C48.4211 40.0186 48.3776 40.3196 48.2281 40.5717Z" fill="#6F9EE0"/>
    <path d="M41.4069 52.1315L40.6171 53.4736C40.471 53.7202 40.2331 53.8989 39.9554 53.9704C39.6777 54.0419 39.3831 54.0003 39.136 53.8549L35.3167 51.5981L27.3437 46.8931C27.097 46.7471 26.9182 46.5092 26.8467 46.2316C26.7752 45.954 26.8167 45.6594 26.9622 45.4124L27.7531 44.0704C27.8252 43.9482 27.9207 43.8414 28.0342 43.7561C28.1476 43.6708 28.2767 43.6087 28.4141 43.5733C28.5516 43.5378 28.6946 43.5298 28.8352 43.5497C28.9757 43.5696 29.1109 43.6169 29.2332 43.689L32.7907 45.7871L41.0221 50.6508C41.1447 50.7228 41.2518 50.8181 41.3375 50.9315C41.4232 51.0448 41.4857 51.174 41.5214 51.3115C41.5572 51.449 41.5654 51.5922 41.5458 51.7329C41.5262 51.8736 41.479 52.0091 41.4069 52.1315Z" fill="#6F9EE0"/>
    <path d="M41.4042 52.1302L40.6144 53.4722C40.4683 53.7188 40.2304 53.8975 39.9527 53.969C39.675 54.0405 39.3803 53.999 39.1333 53.8536L35.314 51.5967C36.5692 52.0921 38.82 52.8146 39.3995 51.8942C40.7229 49.7939 35.6798 47.8301 32.7891 45.7891L41.0194 50.6495C41.1419 50.7214 41.2491 50.8168 41.3348 50.9301C41.4205 51.0435 41.483 51.1726 41.5187 51.3101C41.5544 51.4476 41.5627 51.5908 41.5431 51.7315C41.5234 51.8722 41.4763 52.0077 41.4042 52.1302Z" fill="#3074D3"/>
    <path d="M53.8887 41.6352L53.6292 42.0747C53.5769 42.1635 53.5077 42.241 53.4253 42.3029C53.343 42.3649 53.2493 42.41 53.1496 42.4356C53.0498 42.4613 52.9459 42.467 52.844 42.4525C52.742 42.438 52.6439 42.4035 52.5552 42.351L40.7417 35.3802L30.9318 29.5927C30.8431 29.5404 30.7656 29.471 30.7038 29.3887C30.6419 29.3064 30.5969 29.2127 30.5714 29.113C30.5458 29.0132 30.5402 28.9095 30.5548 28.8076C30.5694 28.7056 30.604 28.6076 30.6565 28.5191L30.9161 28.0796C30.9685 27.9911 31.0377 27.9138 31.12 27.852C31.2023 27.7903 31.2959 27.7454 31.3955 27.7199C31.4951 27.6943 31.5988 27.6886 31.7006 27.7032C31.8025 27.7177 31.9004 27.7521 31.9889 27.8045L42.1692 33.8134L53.6113 40.5661C53.7895 40.6714 53.9188 40.843 53.9708 41.0434C54.0228 41.2437 53.9933 41.4565 53.8887 41.6352Z" fill="#3074D3"/>
    <path d="M53.8892 41.6332L53.6297 42.0727C53.5774 42.1614 53.5081 42.239 53.4258 42.3009C53.3435 42.3628 53.2498 42.4079 53.1501 42.4336C53.0503 42.4593 52.9464 42.465 52.8445 42.4505C52.7425 42.4359 52.6444 42.4014 52.5557 42.3489L40.7422 35.3782C41.4559 35.6667 42.7715 36.142 43.0076 35.8255C43.2705 35.4755 43.2526 34.9152 42.1697 33.8125L53.6118 40.5652C53.7897 40.6705 53.9188 40.8419 53.9707 41.042C54.0227 41.2421 53.9934 41.4546 53.8892 41.6332Z" fill="#255BB9"/>
    </g>
    <defs>
    <clipPath id="clip0_2882_93230">
    <rect width="54" height="54" fill="white"/>
    </clipPath>
    </defs>
    </svg>
    