<svg width="119" height="118" viewBox="0 0 119 118" fill="none" xmlns="http://www.w3.org/2000/svg">
    <path d="M106.302 90.5133C106.298 90.5945 106.294 90.6758 106.29 90.7598C105.25 98.4658 81.5995 112.803 73.86 113.841C73.0492 113.846 72.2407 113.754 71.4521 113.566C71.0794 113.444 70.6729 113.292 70.2375 113.116C64.2517 110.695 52.761 103.527 51.4858 98.3375C50.0355 92.4386 55.1706 84.6442 55.1706 84.6442C80.7248 73.6674 100.844 78.5338 101.547 78.7092L101.566 78.7101C101.566 78.7101 106.891 82.2721 106.302 90.5133Z" fill="#6F9EE0"/>
    <path d="M106.296 90.4947C106.292 90.576 106.288 90.6572 106.284 90.7412C105.379 98.1225 87.2219 110.79 76.2048 113.529C74.6427 113.914 73.0108 113.92 71.4456 113.547C71.073 113.426 70.6664 113.273 70.231 113.097C71.1893 112.895 72.056 112.388 72.7009 111.653C73.364 110.9 73.8537 108.396 73.9052 107.339L74.0494 104.378C74.1637 102.008 73.6127 99.6534 72.4584 97.5787C71.3041 95.5039 69.5922 93.7913 67.5154 92.6335C67.5154 92.6335 90.5247 89.952 95.8722 86.4102C99.2978 84.1327 101.471 80.2761 101.516 78.6894L101.535 78.6904C101.535 78.6904 106.885 82.2535 106.296 90.4947Z" fill="#3074D3"/>
    <path d="M103.238 82.0548C103.126 82.2344 102.999 82.4036 102.856 82.5604C101.034 84.6444 95.2727 88.1198 89.0224 90.8491C82.4167 93.7185 75.2669 95.7358 71.6385 94.3478C64.2768 91.5449 50.5946 86.5928 56.2019 83.6449C60.0202 81.6364 74.2673 78.1207 82.9597 76.0835C88.5167 74.7816 94.475 75.3081 99.5712 77.7073C102.253 78.9678 104.197 80.491 103.238 82.0548Z" fill="#98B9EA"/>
    <path d="M102.855 82.55C101.033 84.634 95.2717 88.1094 89.0214 90.8387C88.0352 89.0552 86.953 86.6125 84.1925 85.8588C79.3543 84.5368 80.4815 83.4266 80.4815 83.4266C79.5677 79.4847 90.8255 78.2922 90.8255 78.2922C90.8255 78.2922 97.629 79.1912 102.855 82.55Z" fill="#6F9EE0"/>
    <path d="M54.0271 42.5113C53.897 42.5539 56.5746 43.499 59.59 43.1027C62.6053 42.7064 55.9442 39.6661 54.8442 39.8841C53.7441 40.1021 54.0271 42.5113 54.0271 42.5113Z" fill="#98B9EA"/>
    <path d="M54.9153 42.6799C55.5838 42.5241 55.9768 41.7627 55.793 40.9793C55.6091 40.1959 54.9182 39.6871 54.2496 39.8429C53.581 39.9987 53.1881 40.7601 53.3719 41.5435C53.5557 42.3269 54.2467 42.8357 54.9153 42.6799Z" fill="#3074D3"/>
    <path d="M92.0009 75.0948C92.0009 75.0948 92.2323 77.2788 91.6267 78.5285C91.0211 79.7782 88.9926 82.2812 84.3073 83.4109C81.6506 84.0501 79.9238 83.6021 78.9341 82.8967C78.1788 82.3547 77.8556 81.6654 77.8784 81.1967C77.9312 80.1129 81.2974 78.1041 81.2974 78.1041L84.4707 77.0936L85.2148 76.8582C84.7907 73.4862 85.3265 68.0778 87.2256 62.6407C87.5421 61.7327 87.8543 60.9168 88.1623 60.185C90.3341 55.1305 92.3568 54.1997 92.8463 56.3393C93.0096 57.2565 93.009 58.1952 92.8447 59.1121C92.8447 59.1121 90.8317 66.8902 91.8604 73.73L92.0009 75.0948Z" fill="#B6D0EF"/>
    <path d="M92.009 75.0953C92.009 75.0953 92.2404 77.2792 91.6348 78.5289C91.0292 79.7786 89.0007 82.2817 84.3155 83.4114C81.6587 84.0506 79.932 83.6026 78.9422 82.8971C79.7127 82.9591 81.7343 83.0032 83.2946 82.0037C83.9524 81.5822 84.2477 79.6574 84.4788 77.094C84.9451 71.9946 85.167 64.3628 87.5349 61.0426C87.7511 60.7417 87.9666 60.4561 88.1813 60.186C89.8861 58.0637 91.5943 56.9356 92.8653 56.3403C93.0249 57.2579 93.0207 58.1965 92.8529 59.1126C92.8529 59.1126 90.8398 66.8906 91.8685 73.7305L92.009 75.0953Z" fill="#6F9EE0"/>
    <path d="M87.502 79.2229C87.382 80.6809 84.7116 81.8789 82.793 82.182C82.5845 82.2161 82.3731 82.2295 82.1619 82.2218C81.8068 82.2134 81.4547 82.1542 81.1164 82.046C80.4871 81.8473 79.9065 81.5192 79.412 81.083C78.5965 79.4844 75.6894 68.7128 76.84 66.2267C77.9906 63.7407 77.6285 60.4395 77.6285 60.4395C77.6285 60.4395 80.0058 60.3924 82.5523 60.4512C82.9436 60.4703 83.3413 60.4679 83.7355 60.4844C86.1281 60.5711 88.3654 60.7697 88.6029 61.2049C89.1549 62.1742 88.0304 68.2058 86.7849 71.8577C85.5393 75.5097 87.622 77.7648 87.502 79.2229Z" fill="#3074D3"/>
    <path d="M87.5067 79.2254C87.4002 80.6868 84.408 81.8366 82.276 82.1048C82.0427 82.1362 81.807 82.1465 81.5718 82.1357C81.743 81.9186 81.989 81.2299 82.1429 79.1326C82.4035 75.6282 82.0506 70.85 82.5928 68.2746C83.1209 65.7637 84.2303 64.4598 82.9507 60.367C85.619 60.497 88.1079 60.7323 88.3968 61.1755C89.03 62.1542 87.8811 68.1845 86.5544 71.8244C85.2277 75.4643 87.6133 77.764 87.5067 79.2254Z" fill="#255BB9"/>
    <path d="M95.4543 50.2798C92.3279 58.5468 95.3037 58.9633 90.592 60.635C80.7641 64.1215 76.2544 63.3804 74.3597 62.2425C73.5472 61.7575 73.2148 61.2008 73.1491 60.8717C72.9302 59.7747 74.4735 56.0476 74.3074 53.8668C74.2368 53.0176 74.0512 52.1817 73.7557 51.3821C73.5892 50.9065 73.381 50.4465 73.1335 50.0074C70.9256 45.0112 98.5806 42.0128 95.4543 50.2798Z" fill="#6F9EE0"/>
    <path d="M80.4828 61.5017C79.1317 63.519 75.8311 62.7254 74.3702 62.2442C73.5576 61.7592 73.2252 61.2025 73.1595 60.8734C72.9406 59.7764 74.484 56.0493 74.3178 53.8685C74.2472 53.0193 74.0616 52.1834 73.7661 51.3838C75.4655 52.114 77.2052 52.7474 78.9767 53.2807C81.3958 53.9417 82.2451 58.8717 80.4828 61.5017Z" fill="#98B9EA"/>
    <path d="M79.1751 60.3482C78.3463 62.1546 75.1044 61.8338 73.7483 60.7112C73.1097 60.1777 72.8883 59.4662 73.535 58.7155C75.0563 56.951 74.7852 54.3522 74.3328 52.5676C74.1637 51.8857 73.9384 51.2188 73.6592 50.5739C73.6592 50.5739 77.4369 51.3011 78.7823 51.6382C80.1277 51.9753 80.4398 57.5907 79.1751 60.3482Z" fill="#3074D3"/>
    <path d="M79.1722 60.3446C78.3434 62.151 75.1015 61.8302 73.7454 60.7077C73.7331 60.6799 73.7235 60.6523 73.7114 60.6218C72.9886 58.6855 76.6739 61.3093 77.6607 57.8267C78.6474 54.3441 77.6133 53.2074 75.7376 52.5728C74.9766 52.3158 74.5591 52.3878 74.3299 52.564C74.1608 51.8821 73.9355 51.2153 73.6562 50.5703C73.6562 50.5703 77.434 51.2975 78.7794 51.6346C80.1248 51.9717 80.4368 57.5871 79.1722 60.3446Z" fill="#255BB9"/>
    <path d="M97.4091 49.2885C96.4752 51.6873 80.8287 54.1843 75.2282 51.7388C74.2567 51.3245 73.3637 50.7473 72.5876 50.0322C71.2871 48.8281 70.4489 47.209 70.2177 45.4546C70.1487 45.0262 70.1261 44.5917 70.1501 44.1585C69.0818 38.1315 98.8919 41.213 99.0977 42.581C99.3034 43.949 98.3431 46.8897 97.4091 49.2885Z" fill="#6F9EE0"/>
    <path d="M97.4091 49.2885C96.4752 51.6873 80.8287 54.1843 75.2282 51.7388C74.2567 51.3245 73.3637 50.7473 72.5876 50.0322C75.7434 51.4488 79.2493 51.2149 78.9589 48.1182C78.6446 44.7841 71.9259 45.2771 70.2177 45.4546C70.1487 45.0262 70.1261 44.5917 70.1501 44.1585C69.0818 38.1315 98.8919 41.213 99.0977 42.581C99.3034 43.949 98.3431 46.8897 97.4091 49.2885Z" fill="#3074D3"/>
    <path d="M97.5378 46.8477C97.1473 49.273 87.207 52.0479 88.1146 50.191C89.0221 48.3341 88.3521 45.314 88.3521 45.314C88.2391 44.1108 92.0733 44.0694 94.826 44.8145C96.4418 45.249 97.6822 45.9531 97.5378 46.8477Z" fill="#98B9EA"/>
    <path d="M107.243 33.7576C105.974 39.6219 102.051 43.8252 98.2413 43.5961C97.9929 43.5811 97.746 43.5473 97.5027 43.495C93.4757 42.628 91.3053 36.8624 92.6554 30.6164C92.8811 29.5735 93.1997 28.5529 93.6074 27.5666C94.5107 25.4053 95.7905 23.6236 97.2432 22.4287C97.4958 22.2198 97.7599 22.025 98.0342 21.8453C99.4239 20.938 100.932 20.5633 102.396 20.879C102.817 20.9689 103.225 21.1148 103.608 21.3129L103.633 21.3141L103.652 21.315L103.678 21.3326C104.531 21.8028 105.259 22.4696 105.8 23.2773C107.495 25.7335 108.132 29.6429 107.243 33.7576Z" fill="#B6D0EF"/>
    <path d="M103.673 21.3473L102.782 24.9867L98.2317 43.5944L98.2303 43.6242L70.2869 44.4358C66.766 44.5496 63.2441 44.2422 59.7964 43.5202C59.6614 43.4946 59.5266 43.4663 59.3947 43.4355C55.9511 42.6702 52.3896 41.4186 51.3206 39.4328C51.2181 39.2577 51.1269 39.0764 51.0474 38.8899C50.9211 38.6294 50.8497 38.3458 50.8374 38.0567C50.8638 37.5148 59.496 22.4547 59.496 22.4547L58.4121 5.56335C58.0961 5.4535 57.8329 5.22939 57.6747 4.93536C57.378 4.42662 64.522 3.14504 69.6319 4.48029C72.8135 5.31151 85.2273 11.644 94.1435 16.3069C99.1475 18.9216 103.049 21.0128 103.604 21.3114L103.629 21.3126L103.648 21.3135L103.673 21.3473Z" fill="#B6D0EF"/>
    <path d="M107.246 33.7492C105.977 39.6135 102.055 43.8168 98.2444 43.5877L98.2429 43.6175L70.2995 44.4292C66.7787 44.543 63.2567 44.2356 59.809 43.5136C58.7362 43.1707 56.8346 42.3421 56.7149 40.7746C56.5487 38.5938 63.938 37.8674 63.938 37.8674L70.4942 15.1016L71.3225 14.8703C71.3225 14.8703 71.1432 12.9605 73.5755 13.3505C76.0078 13.7406 74.0634 12.4482 74.0634 12.4482C74.0634 12.4482 82.2462 14.0499 94.4419 20.8905C95.4573 21.4587 96.3885 21.9684 97.2462 22.4203C99.031 23.4039 100.883 24.2601 102.789 24.9825C105.963 26.0904 106.396 25.1338 105.802 23.2906C107.498 25.7252 108.135 29.6345 107.246 33.7492Z" fill="#98B9EA"/>
    <path d="M72.081 26.0956C70.1793 34.8867 64.2023 41.1218 58.5163 40.4294C58.3052 40.4028 58.0917 40.3679 57.8787 40.3223C54.0377 39.4969 51.3737 35.6437 50.5263 30.5074C50.3162 29.2245 50.22 27.9257 50.2387 26.626C50.2643 24.9074 50.4618 23.1956 50.828 21.5162C51.0783 20.3607 51.4067 19.2234 51.8109 18.1122C52.767 15.3706 54.2804 12.8555 56.2563 10.7242C56.9181 10.0279 57.6505 9.40189 58.4417 8.85617C60.5325 7.42353 62.8146 6.81497 65.0275 7.29211C65.1623 7.32041 65.2968 7.35412 65.4231 7.39014C66.9119 7.82325 68.2398 8.68427 69.2409 9.8656C72.2582 13.2879 73.5077 19.5084 72.081 26.0956Z" fill="#3074D3"/>
    <path d="M69.2758 28.6269C65.2816 37.9379 59.8071 40.4524 59.8071 40.4524C59.8071 40.4524 59.3224 40.4505 58.5178 40.4167C56.2245 40.3197 53.9408 40.0624 51.6836 39.6466C49.2389 39.1745 46.778 38.4218 45.161 37.2295C43.544 36.0373 44.6704 36.1193 44.6704 36.1193C47.018 33.2634 48.8979 30.0551 50.2402 26.6133C51.0135 24.633 51.5044 22.5543 51.6986 20.4378C51.7609 19.6424 51.7989 18.863 51.8125 18.0995C51.8612 13.6901 51.1537 9.30455 49.7204 5.13245C49.7204 5.13245 48.9977 4.98318 50.0185 4.60379C51.8602 3.92218 57.0965 3.89206 65.4247 7.37481C65.8812 7.56543 66.3454 7.76457 66.8194 7.98592C67.827 8.43695 68.8164 9.65297 69.5929 11.3801C71.3893 15.3758 72.0625 22.1331 69.2758 28.6269Z" fill="#3074D3"/>
    <path d="M72.0792 26.0847C70.1775 34.8757 64.2004 41.1109 58.5145 40.4184C56.2212 40.3214 53.9375 40.0641 51.6802 39.6483C50.5393 39.2505 49.3384 38.6869 48.6636 37.9451C47.1125 36.24 48.5414 36.0381 48.5414 36.0381L49.7163 33.1078L50.5245 30.4964L56.1801 12.2387L56.3121 9.52919C56.3121 9.52919 56.3913 7.90351 57.7235 8.51157L58.44 8.84251C61.1277 10.0842 69.2119 13.7126 69.5473 11.8034C69.572 11.6632 69.5862 11.5213 69.5897 11.379C69.6037 10.8487 69.4832 10.3234 69.2392 9.85193C72.2563 13.277 73.5058 19.4975 72.0792 26.0847Z" fill="#255BB9"/>
    <path d="M57.9818 22.8588C56.1434 31.3569 50.3932 37.3505 45.0666 36.3822L44.867 36.3426C42.2282 35.7741 40.1969 33.5812 39.0326 30.4773C38.445 28.8665 38.0914 27.1802 37.9828 25.4696C37.8289 23.1874 38.0011 20.8951 38.4941 18.6614C38.6111 18.1239 38.741 17.6015 38.8837 17.0943C40.8586 10.0992 45.5093 5.14927 50.0934 5.03306L50.107 5.03372C50.6078 5.02239 51.1083 5.06956 51.5982 5.17425C52.6463 5.40295 53.623 5.88204 54.4445 6.57034C57.9219 9.4366 59.4799 15.922 57.9818 22.8588Z" fill="#98B9EA"/>
    <path d="M45.3125 36.3985C45.2309 36.3945 45.1494 36.3906 45.0631 36.3728C42.3898 36.0117 37.486 32.5138 37.486 32.5138C37.486 32.5138 37.5155 31.9069 37.5794 30.8752C37.6577 29.6026 37.7867 27.6806 37.9765 25.4628C38.1941 22.896 38.4913 19.9257 38.8774 17.0874C39.643 11.4892 40.76 6.39426 42.3261 5.89206C45.2781 4.94948 48.8882 4.98137 50.098 5.02672L50.1116 5.02738C50.3697 5.03996 50.5164 5.0471 50.5164 5.0471C50.5164 5.0471 52.2659 4.86073 53.4042 10.1769C53.7547 11.9004 53.9927 13.6447 54.1168 15.3989C54.9607 26.032 47.9115 36.5523 45.3125 36.3985Z" fill="#98B9EA"/>
    <path d="M57.9775 22.8554C56.1391 31.3535 50.3889 37.3472 45.0623 36.3789C42.3916 36.018 37.4878 32.52 37.4878 32.52C37.4878 32.52 37.5174 31.9131 37.5813 30.8815C38.0704 30.7709 38.5534 30.6348 39.0283 30.474C40.0668 30.1226 41.0717 29.6229 41.7484 28.9253C43.756 26.8504 48.7316 19.7598 47.6424 8.57157C47.6424 8.57157 51.0718 10.0178 53.4064 10.1777C54.6411 10.2704 55.5672 9.98961 55.5223 8.95538C55.449 8.05861 55.0666 7.21471 54.4402 6.56701C57.9176 9.43327 59.4756 15.9187 57.9775 22.8554Z" fill="#6F9EE0"/>
    <path d="M49.8006 21.1634C48.1801 28.6537 43.2351 33.9424 38.758 32.9802C38.5718 32.9394 38.3879 32.8887 38.207 32.8284C34.0911 31.4411 32.0291 24.8469 33.5827 17.6657C35.2031 10.1755 40.1483 4.88404 44.6253 5.84897C46.2424 6.19933 47.5506 7.30052 48.531 8.92349C50.2616 11.8106 50.8384 16.3525 49.8006 21.1634Z" fill="#B6D0EF"/>
    <path d="M49.8016 21.1656C48.1811 28.6559 43.2361 33.9446 38.759 32.9824C38.5728 32.9416 38.3889 32.8909 38.208 32.8306C38.8792 32.8633 40.5357 32.7973 39.7433 31.0042C39.448 30.3479 39.0207 29.759 38.4876 29.2743C37.9546 28.7895 37.3273 28.4192 36.6448 28.1863L43.5702 10.3108L44.2658 10.8472L45.598 11.4552L46.6717 11.7791C46.6717 11.7791 49.2611 12.242 48.5244 8.91445C50.2626 11.8128 50.8394 16.3547 49.8016 21.1656Z" fill="#6F9EE0"/>
    <path d="M47.5041 20.7129C46.3511 26.045 43.3771 30.1207 40.3166 30.9982C40.1065 31.0587 39.8922 31.1037 39.6754 31.1327C39.207 31.2021 38.7299 31.1871 38.2667 31.0885C34.5741 30.2921 32.7278 24.3576 34.1404 17.8349C35.553 11.3122 39.6878 6.66576 43.3778 7.45928C44.5799 7.71881 45.5865 8.52557 46.3482 9.71964C47.9276 12.1866 48.4564 16.316 47.5041 20.7129Z" fill="#3074D3"/>
    <path d="M38.2207 28.7544C39.2701 29.0018 40.3676 28.9563 41.3927 28.623C42.4179 28.2897 43.3311 27.6814 44.0324 26.8647C46.623 24.0034 47.6493 19.708 47.5096 16.9853C47.3698 14.2626 46.5449 9.83893 42.321 9.38062C38.0971 8.92231 38.2207 28.7544 38.2207 28.7544Z" fill="#255BB9"/>
    <path d="M46.3482 9.71964C45.3001 8.31065 44.0231 7.52059 42.494 8.04632C36.954 9.9492 34.9014 18.5401 35.1413 24.7983C35.3157 29.3261 38.0646 30.7093 39.6754 31.1327C39.207 31.2021 38.7299 31.1871 38.2667 31.0885C34.5741 30.2921 32.7278 24.3576 34.1404 17.8349C35.553 11.3122 39.6878 6.66576 43.3778 7.45928C44.5799 7.71881 45.5865 8.52557 46.3482 9.71964Z" fill="#255BB9"/>
    <path d="M46.4881 20.349C45.3386 25.6624 41.6066 29.367 38.156 28.6341C37.435 28.4744 36.7658 28.1364 36.2101 27.6512C35.9725 27.4488 35.7537 27.2254 35.5563 26.9838C35.5386 26.9669 35.5231 26.9479 35.51 26.9272C35.2024 26.5504 34.9383 26.1404 34.7225 25.7048C33.6631 23.6325 33.3313 20.7158 33.9892 17.6653C34.691 14.4404 36.3454 11.7888 38.312 10.3881C38.6626 10.1327 39.0383 9.91354 39.4333 9.7339C39.7583 9.58749 40.0979 9.47568 40.4465 9.4003C41.0585 9.2617 41.6934 9.25742 42.3073 9.38773L42.3725 9.39091C42.4162 9.39852 42.4594 9.40879 42.5018 9.42165L42.5425 9.42363C42.9032 9.52065 43.2489 9.66632 43.57 9.85662C46.2045 11.4081 47.4868 15.7263 46.4881 20.349Z" fill="#98B9EA"/>
    <path d="M38.627 9.82622C38.627 9.82622 40.8191 9.05304 42.4362 9.4034C44.0533 9.75375 46.4934 15.576 44.9104 20.1159C43.3275 24.6558 37.6951 28.4553 37.6951 28.4553L34.7985 26.4131C34.7985 26.4131 33.5936 18.606 38.627 9.82622Z" fill="#98B9EA"/>
    <path d="M46.4883 20.3423C45.3389 25.6557 41.6068 29.3604 38.1562 28.6274C37.4352 28.4677 36.766 28.1297 36.2103 27.6445C36.1448 27.5354 36.1115 27.436 36.1556 27.3703C36.1997 27.3045 36.2403 27.3092 36.341 27.3114L36.2647 27.2561C36.0023 27.0505 35.0718 26.3044 35.1055 25.6108C35.1319 25.0689 35.6959 25.2322 35.6959 25.2322L37.1979 16.2044L39.417 12.4152C39.4027 12.3187 39.4119 12.2203 39.4437 12.1282C39.4756 12.0361 39.5292 11.953 39.6 11.8859C39.6708 11.8188 39.7568 11.7696 39.8507 11.7426C39.9446 11.7156 40.0436 11.7115 40.1394 11.7306C40.9197 11.7229 41.6953 11.6118 42.4461 11.4003C43.1172 11.2103 43.6723 10.9413 43.7301 10.5937C43.7335 10.5786 43.7343 10.563 43.7324 10.5477C43.7413 10.3111 43.6879 10.0763 43.5776 9.8666C46.2047 11.4014 47.487 15.7197 46.4883 20.3423Z" fill="#6F9EE0"/>
    <path d="M43.4552 19.6475C42.4024 24.4848 39.2564 27.9003 36.41 27.2891C36.0063 27.2009 35.6233 27.0366 35.2815 26.805C33.2005 25.4082 32.2679 21.574 33.1534 17.4293C34.2061 12.5919 37.3521 9.17648 40.1984 9.7904C41.1276 10.0175 41.9323 10.5951 42.4432 11.4016L42.6963 11.7969L42.7087 11.8219C43.7755 13.6854 44.1192 16.5837 43.4552 19.6475Z" fill="#B6D0EF"/>
    <path d="M43.455 19.6542C42.4023 24.4915 39.2563 27.9069 36.4099 27.2957C36.0062 27.2076 35.6232 27.0433 35.2814 26.8117C35.0328 26.451 34.8772 26.0349 34.8283 25.6C34.8361 25.5171 34.8637 25.4372 34.9088 25.3671C34.9539 25.297 35.0152 25.2387 35.0876 25.1971L35.4114 24.8137L39.498 13.6059C39.498 13.6059 38.981 13.0376 39.5772 11.9803C40.1734 10.923 42.4405 11.4055 42.4405 11.4055L42.6936 11.8007L42.706 11.8258C43.7754 13.6921 44.119 16.5904 43.455 19.6542Z" fill="#98B9EA"/>
    <path d="M40.5771 19.1964C41.4007 15.3889 40.155 11.8903 37.7948 11.3821C35.4347 10.8738 32.8538 13.5484 32.0302 17.3559C31.2067 21.1634 32.4524 24.662 34.8125 25.1702C37.1727 25.6784 39.7536 23.0039 40.5771 19.1964Z" fill="#3074D3"/>
    <path d="M7.25284 4.69788L37.7066 11.3414L38.4371 18.7099L34.8598 25.0538L4.40602 18.4103L3.67546 11.0418L7.25284 4.69788Z" fill="#3074D3"/>
    <path d="M10.124 12.5479C10.9475 8.74043 9.70188 5.24185 7.34172 4.73363C4.98156 4.2254 2.40065 6.89999 1.5771 10.7075C0.753555 14.515 1.99923 18.0136 4.35939 18.5218C6.71955 19.03 9.30045 16.3554 10.124 12.5479Z" fill="#255BB9"/>
    <path d="M74.4105 12.8603L74.3093 12.7576C73.941 12.3581 73.6463 11.8969 73.4387 11.3953C72.9484 10.2226 72.7217 8.38918 74.197 6.06018C74.197 6.06018 75.9051 4.98913 80.5961 8.43866C81.3061 8.95939 82.084 9.59749 82.9386 10.3371C83.6777 10.9869 84.47 11.7208 85.3189 12.5769C93.6313 20.8578 74.4105 12.8603 74.4105 12.8603Z" fill="#B6D0EF"/>
    <path d="M74.4007 12.8587L74.2995 12.756C74.5266 12.8458 74.7853 12.9589 75.0781 13.0981C75.0781 13.0981 81.3731 15.0994 83.043 14.366C84.4067 13.767 84.2018 11.8233 82.9288 10.3355C83.6679 10.9853 84.4602 11.7191 85.3091 12.5752C93.6215 20.8562 74.4007 12.8587 74.4007 12.8587Z" fill="#98B9EA"/>
    <path d="M75.6511 13.0911C77.0513 12.8151 77.8788 11.0424 77.4994 9.13176C77.1201 7.22111 75.6775 5.896 74.2774 6.17205C72.8772 6.44809 72.0497 8.22076 72.4291 10.1314C72.8084 12.0421 74.251 13.3672 75.6511 13.0911Z" fill="#3074D3"/>
    <path d="M84.0301 44.5611C82.7593 45.7105 76.0105 48.1058 72.6753 47.7451C72.3154 47.7171 71.9626 47.6302 71.631 47.4879C68.9666 46.2717 73.2536 42.1351 73.2536 42.1351L74.1481 42.2221L84.096 43.2064C84.096 43.2064 85.4546 43.2726 84.0301 44.5611Z" fill="#98B9EA"/>
    <path d="M73.2614 47.5673C73.0742 47.6506 72.8773 47.7103 72.6753 47.7451C72.3154 47.7171 71.9626 47.6302 71.631 47.4879C68.9666 46.2717 73.2536 42.1351 73.2536 42.1351L74.1481 42.2221C74.6488 42.6331 74.9794 43.2141 75.0765 43.8534C75.2822 45.2214 74.9313 46.8338 73.2614 47.5673Z" fill="#B6D0EF"/>
    <path d="M74.6283 45.5617C75.1108 44.143 74.5215 42.6612 73.312 42.2519C72.1026 41.8426 70.731 42.6609 70.2486 44.0796C69.7661 45.4984 70.3554 46.9802 71.5649 47.3895C72.7743 47.7987 74.1459 46.9804 74.6283 45.5617Z" fill="#255BB9"/>
    <path d="M97.5381 46.849C97.1476 49.2742 87.2073 52.0492 88.1149 50.1922C88.1149 50.1922 89.732 50.5426 90.3414 49.2143C90.9508 47.8861 90.294 44.595 93.5415 45.0248C95.0921 45.2306 95.1743 45.0527 94.8291 44.8159C96.4421 45.2502 97.6825 45.9543 97.5381 46.849Z" fill="#6F9EE0"/>
    <path d="M74.4051 11.7658C73.8705 11.0485 73.5876 10.1757 73.6 9.28227C73.6469 8.432 73.8992 7.60569 74.3356 6.87379C74.6521 8.48726 74.6756 10.1442 74.4051 11.7658Z" fill="#98B9EA"/>
    <path d="M72.627 10.2467C72.627 10.2467 74.0967 8.59094 77.263 10.1275C77.263 10.1275 76.7541 8.72037 74.4445 8.60788C73.0587 8.54038 72.627 10.2467 72.627 10.2467Z" fill="#98B9EA"/>
    <path d="M71.6232 46.5373C71.2971 45.8784 71.1894 45.1332 71.3156 44.4094C71.4596 43.7219 71.7603 43.0768 72.1946 42.5239C72.2344 43.8844 72.0412 45.2417 71.6232 46.5373Z" fill="#98B9EA"/>
    <path d="M70.433 45.0974C70.433 45.0974 71.7843 43.9166 74.0473 45.545C74.0473 45.545 73.8339 44.3342 72.0512 43.9731C70.9861 43.7528 70.433 45.0974 70.433 45.0974Z" fill="#98B9EA"/>
    <path d="M12.2477 8.47211C12.2477 8.47211 24.9526 10.4489 31.925 12.6896C38.8973 14.9303 38.2141 12.1812 25.5488 9.39155C12.8835 6.60195 9.90778 6.18542 12.2477 8.47211Z" fill="#98B9EA"/>
    <path d="M8.58435 7.41222L5.29398 6.52138L2.40152 10.658L2.79956 15.6828L6.0898 16.5764L8.98225 12.4397L8.58435 7.41222Z" fill="#0E489B"/>
    <path d="M111.252 96.5016C111.074 93.8626 106.653 92.2106 101.376 92.9508C96.0989 93.691 92.2851 96.4319 92.8337 99.0172C93.3717 101.501 97.7556 102.901 102.661 102.235C107.567 101.57 111.413 99.0494 111.252 96.5016Z" fill="#6F9EE0"/>
    <path d="M91.048 95.1992L86.9922 103.1L103.581 107.965L118.239 98.8466L112.231 92.3082L101.365 91.6484L91.048 95.1992ZM109.003 95.7356C110.079 97.6719 107.314 100.123 102.586 100.767C97.8579 101.41 94.5175 99.7906 95.0554 97.6398C95.4696 95.8804 98.3959 94.3196 101.645 93.8851C104.894 93.4507 108.127 94.1318 109.003 95.7142V95.7356Z" fill="#B6D7FF"/>
    <path d="M87.0469 103.18L93.2758 113.156L104.83 117.238L103.561 107.975L87.0469 103.18Z" fill="#98B9EA"/>
    <path d="M118.159 98.9297L114.856 110.21L104.824 117.236L103.555 107.973L118.159 98.9297Z" fill="#6F9EE0"/>
    <path d="M24.6667 84.3028C24.7696 82.0205 28.5419 80.5275 33.0904 81.051C37.6389 81.5745 40.9681 83.8912 40.5421 86.1362C40.1161 88.3811 36.3881 89.5818 32.1564 89.0958C27.9247 88.6099 24.5745 86.4963 24.6667 84.3028Z" fill="#9ABBE9"/>
    <path d="M32.8359 80.1553L23.6531 80.9018L18.6592 86.4502L31.2554 93.8057L45.1999 89.4479L41.6274 82.9268L32.8359 80.1553ZM32.614 81.9944C35.3759 82.3083 37.878 83.5572 38.276 85.0101C38.7496 86.7975 35.9685 88.2082 31.9596 87.7558C27.9508 87.3034 25.5635 85.3122 26.4427 83.6731C27.1359 82.3499 29.8584 81.6864 32.614 81.9944Z" fill="#CCE3FF"/>
    <path d="M45.1851 88.966L40.0694 97.6657L30.321 101.387L31.2318 93.3953L45.1851 88.966Z" fill="#9ABBE9"/>
    <path d="M18.6641 86.5156L21.7728 95.7727L30.7227 101.388L31.6779 93.7146L18.6641 86.5156Z" fill="#B7CEF0"/>
    <path d="M53.2242 63.8352C53.2586 63.46 52.5017 63.0843 51.5336 62.9961C50.5655 62.9079 49.7529 63.1406 49.7185 63.5159C49.6841 63.8911 50.441 64.2668 51.4091 64.355C52.3772 64.4432 53.1899 64.2105 53.2242 63.8352Z" fill="#B8CFF0"/>
    <path d="M52.7959 62.8672L50.3985 62.6484L48.5312 63.3125L49.4113 64.776L53.3835 65.1379L54.5117 63.8567L52.7959 62.8672ZM51.4614 64.2473C50.5447 64.164 49.9415 63.7864 50.0903 63.4661C50.2183 63.1823 50.8738 63.0312 51.5685 63.0937C52.2631 63.1562 52.8742 63.4245 52.9552 63.7265C53.0414 64.0677 52.378 64.3307 51.4614 64.2473Z" fill="#CDDDF5"/>
    <path d="M52.3402 64.9583L50.4625 64.7891L49 65.3099L49.6868 66.4557L52.7998 66.7395L53.6851 65.7239L52.3402 64.9583ZM51.2955 66.0416C50.5774 65.9739 50.1047 65.6797 50.2196 65.4192C50.3214 65.1979 50.8333 65.0781 51.3791 65.1276C51.9249 65.1771 52.4081 65.388 52.4655 65.625C52.523 65.8619 52.0137 66.1067 51.2955 66.0416Z" fill="#CDDDF5"/>
    <path d="M54.497 63.8672L53.6875 65.7708L52.7812 66.7525L53.3819 65.1328L54.497 63.8672Z" fill="#9ABBE9"/>
    <path d="M49.4219 64.7734L49.7196 66.4739L52.7777 66.7525L53.3784 65.1328L49.4219 64.7734Z" fill="#B8CFF0"/>
    <path d="M48.5547 63.3203L49.0039 65.3385L49.7168 66.4687L49.4191 64.7682L48.5547 63.3203Z" fill="#DBEBFF"/>
    </svg>
    