<svg width="54" height="54" viewBox="0 0 54 54" fill="none" xmlns="http://www.w3.org/2000/svg">
    <g clip-path="url(#clip0_2882_93177)">
    <path d="M2.67635 26.1562L0.236531 27.2935L0 29.9719L2.21038 31.5166L4.6502 30.3793L4.88673 27.6997L2.67635 26.1562ZM2.98857 30.0014C2.75754 30.1089 2.49979 30.1456 2.2479 30.1068C1.99601 30.068 1.76127 29.9556 1.57336 29.7837C1.38545 29.6117 1.25279 29.388 1.19215 29.1408C1.13151 28.8937 1.14561 28.6341 1.23267 28.3949C1.31973 28.1557 1.47584 27.9476 1.68127 27.797C1.88671 27.6464 2.13224 27.5599 2.38686 27.5486C2.64147 27.5373 2.89373 27.6016 3.11176 27.7334C3.3298 27.8652 3.50381 28.0585 3.61183 28.289C3.68365 28.4423 3.7245 28.6082 3.73204 28.7773C3.73958 28.9463 3.71367 29.1152 3.65578 29.2743C3.59789 29.4333 3.50916 29.5794 3.39468 29.7042C3.28019 29.829 3.14219 29.93 2.98857 30.0014Z" fill="#AECCFA"/>
    <path d="M36.9782 38.2812L30.7102 41.2053L30.1094 48.0902L35.7861 52.0499L42.0542 49.1259L42.6538 42.2421L36.9782 38.2812ZM37.7813 48.1681C37.1878 48.4441 36.5257 48.5383 35.8787 48.4386C35.2316 48.339 34.6287 48.0501 34.146 47.6084C33.6634 47.1668 33.3226 46.5921 33.1669 45.9572C33.0112 45.3222 33.0474 44.6554 33.2711 44.041C33.4947 43.4266 33.8957 42.8922 34.4234 42.5052C34.9512 42.1183 35.5819 41.8963 36.2359 41.8672C36.8899 41.8381 37.5379 42.0033 38.098 42.3418C38.6581 42.6803 39.1051 43.177 39.3826 43.7691C39.5671 44.1629 39.6721 44.5891 39.6914 45.0234C39.7108 45.4578 39.6442 45.8916 39.4955 46.3002C39.3468 46.7088 39.1188 47.0841 38.8246 47.4046C38.5305 47.7252 38.1759 47.9846 37.7813 48.1681Z" fill="#AECCFA"/>
    <path d="M46.2454 1.25781L37.6723 5.25532L36.8516 14.6698L44.6074 20.0845L53.1805 16.087L54.0012 6.67246L46.2454 1.25781ZM47.3441 14.7714C46.5318 15.1496 45.6254 15.2788 44.7396 15.1426C43.8538 15.0065 43.0283 14.6111 42.3675 14.0066C41.7067 13.402 41.2402 12.6153 41.0271 11.7461C40.814 10.8768 40.8637 9.96393 41.1701 9.1229C41.4765 8.28187 42.0257 7.55044 42.7483 7.02107C43.471 6.4917 44.3346 6.18818 45.23 6.14887C46.1253 6.10956 47.0123 6.33624 47.7787 6.80023C48.545 7.26423 49.1564 7.94471 49.5355 8.75565C49.7874 9.29431 49.9304 9.87724 49.9566 10.4711C49.9827 11.065 49.8914 11.6582 49.6879 12.2169C49.4844 12.7755 49.1727 13.2887 48.7705 13.727C48.3683 14.1653 47.8836 14.5202 47.3441 14.7714Z" fill="#AECCFA"/>
    <path d="M21.696 53.0097L4.48836 39.7087C2.84447 38.4392 2.29335 36.3135 3.17561 34.6377L17.8263 6.69057C18.6353 5.14825 20.4601 4.36765 22.3204 4.76799L44.0529 9.43864C46.8913 10.0492 48.5198 13.0452 47.2839 15.4001L28.106 51.9775C26.947 54.1836 23.8602 54.6807 21.696 53.0097Z" fill="#424242"/>
    <path d="M26.4219 5.75811L27.7228 3.27103C27.7228 3.27103 28.1509 2.24479 29.2981 2.38887L37.9173 3.47179C37.9173 3.47179 39.2738 3.53084 38.6718 4.67754L37.1415 7.59566L26.4219 5.75811Z" fill="#6C6C6C"/>
    <path d="M31.1641 3.01566L31.8216 1.76268C31.8216 1.76268 32.1173 1.19937 32.6235 1.25369L35.8497 1.60207C35.8497 1.60207 36.3737 1.58908 36.0295 2.24569L35.3424 3.5589L31.1641 3.01566Z" fill="#6C6C6C"/>
    <path d="M17.7455 52.4406L1.72998 39.5234C0.942069 38.8877 0.398983 37.9991 0.193076 37.0087C-0.0128309 36.0183 0.131155 34.9873 0.600548 34.091L16.3026 4.13981C16.7376 3.31304 17.4259 2.64676 18.2669 2.23821C19.108 1.82966 20.0578 1.70025 20.9777 1.86885L41.7723 5.67386C42.448 5.79764 43.0851 6.07825 43.6323 6.49307C44.1794 6.90789 44.6213 7.4453 44.9223 8.06197C45.2232 8.67864 45.3748 9.3573 45.3649 10.0432C45.3549 10.7291 45.1837 11.4031 44.8649 12.0108L24.3837 51.0659C24.083 51.6397 23.6586 52.1397 23.1409 52.5298C22.6233 52.92 22.0254 53.1905 21.3904 53.322C20.7554 53.4535 20.0991 53.4427 19.4688 53.2902C18.8385 53.1378 18.2499 52.8476 17.7455 52.4406Z" fill="#3074D3"/>
    <path d="M16.8184 47.3905L4.68079 38.2441C3.85176 37.6195 3.27174 36.7213 3.0441 35.7096C2.81646 34.6978 2.95599 33.6382 3.43782 32.7196L16.8917 7.05406C17.337 6.20624 18.0485 5.52767 18.9171 5.12238C19.7857 4.71708 20.7634 4.60744 21.7004 4.81026L36.914 8.09093C37.574 8.23336 38.1921 8.52611 38.7201 8.94636C39.2481 9.36661 39.6717 9.90299 39.9579 10.5137C40.2441 11.1243 40.3851 11.7927 40.37 12.4668C40.3549 13.1409 40.184 13.8023 39.8707 14.3995L23.336 45.9308C23.0403 46.4923 22.6259 46.983 22.1216 47.3687C21.6173 47.7545 21.035 48.0262 20.4151 48.165C19.7952 48.3039 19.1524 48.3065 18.5314 48.1728C17.9104 48.039 17.3259 47.7721 16.8184 47.3905Z" fill="white"/>
    <path d="M35.6685 17.4145L16.2422 11.3622L16.7803 10.3359L36.3367 16.1427L35.6685 17.4145Z" fill="#3074D3"/>
    <path d="M33.4477 21.6607L14.4531 14.7829L14.9901 13.7578L34.1148 20.3877L33.4477 21.6607Z" fill="#3074D3"/>
    <path d="M22.9391 22.6222L12.6016 18.3141L13.1397 17.2891L23.5482 21.459L22.9391 22.6222Z" fill="#3074D3"/>
    <path d="M20.9088 26.4945L10.8125 21.7282L11.3506 20.7031L21.5191 25.3313L20.9088 26.4945Z" fill="#3074D3"/>
    <path d="M18.5129 34.2645L17.5703 30.0757L18.9493 29.5312L19.9427 33.7472L18.5129 34.2645Z" fill="#80CBBA"/>
    <path d="M18.1562 32.7408L26.2409 29.7188L26.6927 31.293L18.4969 34.2548L18.1562 32.7408Z" fill="#4DB6A2"/>
    <path d="M24.0469 4.24988L25.3301 1.80296C25.3301 1.80296 25.7416 0.787342 26.9858 0.986922L36.3051 2.49027C36.3051 2.49027 37.7657 2.61545 37.1743 3.74325L35.6676 6.61532L24.0469 4.24988Z" fill="#CCCCCC"/>
    <path d="M36.6516 4.7329L24.9197 2.58594L24.0469 4.25107L35.6641 6.61651L36.6516 4.7329Z" fill="#AAAAAA"/>
    <path d="M29.0078 1.71347L29.6535 0.480562C29.6535 0.480562 29.9445 -0.0733015 30.492 0.00818383L33.9785 0.513629C33.9785 0.513629 34.5403 0.525438 34.202 1.17142L33.5244 2.47046L29.0078 1.71347Z" fill="#CCCCCC"/>
    <path d="M32.3491 1.09911C32.1847 1.41443 31.7944 1.62936 31.481 1.57976C31.1676 1.53016 31.0505 1.23728 31.2149 0.925513C31.3793 0.613743 31.7625 0.397629 32.0759 0.443686C32.3893 0.489743 32.5146 0.783799 32.3491 1.09911Z" fill="#6C6C6C"/>
    </g>
    <defs>
    <clipPath id="clip0_2882_93177">
    <rect width="54" height="54" fill="white"/>
    </clipPath>
    </defs>
    </svg>
    