<svg width="54" height="54" viewBox="0 0 54 54" fill="none" xmlns="http://www.w3.org/2000/svg">
    <g clip-path="url(#clip0_2882_93202)">
    <path d="M51.9951 42.4016L49.1988 32.0483L38.8223 29.2891L31.2422 36.8854L34.0385 47.2399L44.415 49.9992L51.9951 42.4016ZM36.6536 40.982C36.3887 40.0011 36.421 38.9638 36.7464 38.0013C37.0718 37.0388 37.6756 36.1942 38.4815 35.5745C39.2875 34.9547 40.2593 34.5875 41.2742 34.5194C42.289 34.4512 43.3013 34.6852 44.1831 35.1917C45.0648 35.6982 45.7763 36.4544 46.2278 37.3648C46.6792 38.2752 46.8502 39.2988 46.7191 40.3062C46.5881 41.3137 46.1609 42.2597 45.4915 43.0246C44.8222 43.7895 43.9408 44.3391 42.9587 44.6037C41.6418 44.9583 40.2377 44.7759 39.0553 44.0967C37.873 43.4176 37.009 42.2972 36.6536 40.982Z" fill="#EEEEEE"/>
    <path d="M9.6803 30.7339L5.19986 27.7344L0.359132 30.1106L0 35.4851L4.47927 38.4847L9.32 36.1085L9.6803 30.7339ZM3.4042 35.253C2.97952 34.969 2.6487 34.5656 2.45361 34.0938C2.25851 33.622 2.2079 33.103 2.30817 32.6024C2.40845 32.1019 2.6551 31.6423 3.01694 31.2818C3.37877 30.9213 3.83953 30.6761 4.34093 30.5771C4.84233 30.4782 5.36183 30.53 5.83374 30.7261C6.30564 30.9221 6.70873 31.2535 6.99203 31.6783C7.27533 32.1032 7.4261 32.6024 7.42527 33.1129C7.42445 33.6234 7.27206 34.1221 6.98739 34.546C6.79859 34.8278 6.55604 35.0696 6.2736 35.2576C5.99116 35.4457 5.67438 35.5762 5.34137 35.6419C5.00836 35.7076 4.66565 35.707 4.33286 35.6403C4.00006 35.5735 3.68371 35.4419 3.40188 35.253H3.4042Z" fill="#EEEEEE"/>
    <path d="M34.9689 0L27.9689 0.580862L25 6.58086L29.0346 12L36.0346 11.4158L39 5.41242L34.9689 0ZM32.2958 9.15948C31.6328 9.21457 30.9673 9.08336 30.3834 8.78242C29.7995 8.48147 29.3233 8.0243 29.015 7.46861C28.7066 6.91291 28.58 6.28362 28.6511 5.66018C28.7221 5.03674 28.9876 4.44711 29.4141 3.96572C29.8406 3.48434 30.409 3.13279 31.0474 2.95546C31.6858 2.77813 32.3657 2.78297 33.0012 2.96936C33.6367 3.15576 34.1993 3.51536 34.6181 4.00276C35.0368 4.49016 35.2928 5.08351 35.3539 5.70789C35.395 6.12392 35.3484 6.54351 35.2168 6.94251C35.0852 7.34152 34.8711 7.71207 34.5869 8.03285C34.3027 8.35363 33.954 8.61831 33.5608 8.81166C33.1676 9.00502 32.7377 9.12322 32.2958 9.15948Z" fill="#EEEEEE"/>
    <path d="M28.7889 17.2529V48.5752C27.9796 48.6486 27.1725 48.4134 26.5295 47.917L26.5051 47.8984L23.6867 45.6929L23.3892 45.4607L23.2206 45.3284L6.72729 32.3946L6.43557 32.1624L6.2624 32.0254L5.01415 31.0457C4.75382 30.8412 4.54076 30.583 4.38952 30.2887C4.23828 29.9944 4.15242 29.6709 4.13782 29.3405L3.28125 10.9531L5.89164 11.5985L28.7889 17.2529Z" fill="#E5E5E5"/>
    <path d="M52.0466 11.5625L50.7798 26.2375C50.7266 26.866 50.4572 27.4566 50.0174 27.9091L49.8709 28.06L47.0943 30.904L41.7294 36.4109L30.7742 47.6534C30.2417 48.1855 29.5392 48.5141 28.7891 48.5821V17.1832L41.7294 14.0559L52.0466 11.5625Z" fill="#CCCCCC"/>
    <path d="M51.5936 16.0784L49.3376 17.0221L33.0454 23.8361L32.348 24.1286C31.3156 24.5548 30.2108 24.7787 29.0938 24.788L29.2448 5.35938C30.5173 5.40253 31.7863 5.5188 33.0454 5.70762L33.7137 5.80629L44.4074 7.42679L48.108 7.98398C49.0785 8.14301 49.899 8.65261 50.3302 9.35955L52.7395 13.3191C53.359 14.3313 52.8523 15.5525 51.5936 16.0784Z" fill="#919191"/>
    <path d="M29.2428 5.36246L29.0987 24.791C27.9707 24.8078 26.8499 24.6072 25.7979 24.2002L6.40132 16.6003L2.78094 15.1725C2.02432 14.8765 1.63846 14.1974 1.85812 13.5474L3.64332 8.29816C3.87577 7.60979 4.61379 7.10484 5.50291 7.02126L7.74603 6.84366L25.3877 5.45068H25.4562C26.7157 5.34961 27.98 5.32016 29.2428 5.36246Z" fill="#CCCCCC"/>
    <path d="M23.6831 45.6843L23.3856 45.4521L23.2171 45.3198L6.72374 32.3906L6.37507 21.9038C6.36461 20.8034 7.55358 19.9885 8.50429 20.454L20.6857 26.3997C21.5393 26.8107 22.2574 27.4569 22.7553 28.2621C23.2532 29.0673 23.5102 29.9979 23.496 30.9442L23.6831 45.6843Z" fill="#CCCCCC"/>
    <path d="M47.0938 30.8971L49.8703 28.0496L50.3492 21.599C50.3536 21.5429 50.3423 21.4867 50.3164 21.4367C50.2906 21.3868 50.2513 21.345 50.2029 21.3162C50.1546 21.2873 50.0991 21.2725 50.0428 21.2735C49.9865 21.2744 49.9316 21.2911 49.8843 21.3215L47.7504 22.7609C47.5947 22.8667 47.4667 23.0083 47.3771 23.1737C47.2875 23.3391 47.239 23.5236 47.2355 23.7116L47.0938 30.8971Z" fill="#424242"/>
    <path d="M44.0896 21.5156V29.8642C44.0905 30.3661 43.9891 30.863 43.7917 31.3246C43.5943 31.7861 43.305 32.2028 42.9413 32.5492L37.0034 38.1908L33.3215 41.6848C33.2169 41.7836 33.0855 41.8495 32.9437 41.8741C32.8019 41.8988 32.656 41.8812 32.5242 41.8235C32.3923 41.7657 32.2805 41.6705 32.2025 41.5496C32.1246 41.4287 32.0841 41.2876 32.086 41.1439V29.4649C32.0846 28.8259 32.2492 28.1974 32.5637 27.6409C32.8783 27.0845 33.332 26.619 33.8805 26.2901L40.5413 22.3282L42.982 20.876C43.0941 20.8096 43.2218 20.7742 43.3521 20.7734C43.4824 20.7727 43.6106 20.8067 43.7234 20.8718C43.8362 20.9369 43.9296 21.0309 43.994 21.1441C44.0583 21.2573 44.0913 21.3855 44.0896 21.5156Z" fill="#6C6C6C"/>
    <path d="M44.0896 21.5156V23.0526L37.0034 38.1908L33.3215 41.6848C33.2169 41.7836 33.0855 41.8495 32.9437 41.8741C32.8019 41.8988 32.656 41.8812 32.5242 41.8235C32.3923 41.7657 32.2805 41.6705 32.2025 41.5496C32.1246 41.4287 32.0841 41.2876 32.086 41.1439V38.8373L40.5413 22.3282L42.982 20.876C43.0941 20.8096 43.2218 20.7742 43.3521 20.7734C43.4824 20.7727 43.6106 20.8067 43.7234 20.8718C43.8362 20.9369 43.9296 21.0309 43.994 21.1441C44.0583 21.2573 44.0913 21.3855 44.0896 21.5156Z" fill="#F7F7F7"/>
    <path d="M38.3203 22.5753V37.9178L39.3663 36.8545V21.6641C39.3663 21.6641 38.3203 22.6032 38.3203 22.5753Z" fill="#CCCCCC"/>
    <path d="M6.7289 15.1L6.68473 14.6276C6.74452 14.6185 6.80052 14.5928 6.84628 14.5533C7.04619 14.3873 7.16125 13.9729 7.11592 13.4935C7.0706 13.0141 6.88348 12.6078 6.65103 12.4487C6.60019 12.411 6.54063 12.3866 6.47786 12.3779L6.44531 12.0181C6.44531 12.0181 6.59408 12.0425 6.84396 12.0784L6.95089 12.0935C8.2956 12.2816 19.3218 12.5265 19.2974 11.1997C19.2671 9.54902 20.4375 7.53732 22.6806 7.80547C25.0249 8.08523 27.0483 10.5276 26.4533 10.8329C25.7001 11.2206 24.9028 10.5856 22.977 10.473C22.5864 10.4408 22.1988 10.5639 21.8985 10.8155C21.0849 11.4922 20.9396 13.021 21.5056 14.3327C22.0158 15.5191 22.5819 16.2887 23.6139 16.5174C25.8222 17.0073 27.6213 18.1367 24.4275 18.5279C21.6288 18.8762 21.6149 16.8714 19.8564 15.136C18.5524 13.8487 8.34441 14.652 7.1752 14.9723L7.03457 15.0118C6.84164 15.0641 6.7289 15.1 6.7289 15.1Z" fill="#255BB9"/>
    <path d="M6.6916 15.255C6.78028 15.2565 6.86795 15.2361 6.94683 15.1956C7.02571 15.1551 7.09334 15.0958 7.14371 15.0229C7.15533 15.0078 7.16579 14.9938 7.17625 14.9776C7.39359 14.6642 7.50633 14.1186 7.44705 13.4976C7.39126 12.9171 7.20066 12.4134 6.95194 12.1046L6.93102 12.0721C6.76017 11.8655 6.56375 11.7529 6.36733 11.7668C5.89314 11.8016 5.58631 12.5794 5.66999 13.508C5.75367 14.4367 6.20578 15.2272 6.6916 15.255ZM5.96984 13.5057C5.91522 12.8974 6.11861 12.3936 6.42777 12.3774C6.44479 12.3762 6.46188 12.3762 6.47891 12.3774C6.54168 12.386 6.60124 12.4104 6.65208 12.4482C6.88453 12.6072 7.07165 13.0112 7.11698 13.4929C7.1623 13.9747 7.04724 14.3867 6.84734 14.5527C6.80157 14.5922 6.74557 14.618 6.68578 14.627C6.66878 14.6288 6.65165 14.6288 6.63465 14.627C6.31968 14.6259 6.02447 14.1163 5.96984 13.5057Z" fill="#255BB9"/>
    <path d="M5.56484 14.3946L5.52067 13.9233C5.58046 13.9142 5.63646 13.8885 5.68222 13.849C5.88213 13.683 5.99719 13.2686 5.95186 12.7892C5.90653 12.3098 5.71941 11.9023 5.48697 11.7444C5.4358 11.7075 5.37634 11.6836 5.31379 11.6748L5.28125 11.3138C5.28125 11.3138 5.43002 11.3393 5.6799 11.3753L5.78682 11.3904C7.13154 11.5785 18.1577 11.8234 18.1333 10.4966C18.1031 8.84589 19.2735 6.8342 21.5166 7.10235C23.8608 7.3821 25.8843 9.8233 25.2892 10.1298C24.5361 10.5175 23.7388 9.8825 21.813 9.7699C21.4214 9.73863 21.0335 9.86389 20.7344 10.1181C19.9208 10.7949 19.7755 12.3237 20.3416 13.6354C20.8518 14.8218 21.4178 15.5914 22.4499 15.8201C24.6581 16.3099 26.4573 17.4452 23.2634 17.8306C20.4648 18.1789 20.4508 16.1741 18.6923 14.4375C17.3895 13.1514 7.18616 13.9546 6.01114 14.2727L5.87051 14.3122C5.67757 14.3609 5.56484 14.3946 5.56484 14.3946Z" fill="#6F9EE0"/>
    <path d="M5.52288 14.5481C5.61158 14.5497 5.6993 14.5294 5.77819 14.4889C5.85709 14.4483 5.9247 14.3889 5.975 14.3159C5.98662 14.3009 5.99708 14.2869 6.00754 14.2707C6.22488 13.9573 6.33761 13.4117 6.27834 12.7906C6.22255 12.2102 6.03195 11.7053 5.78323 11.3977L5.76695 11.3768C5.59611 11.1701 5.39969 11.0575 5.20327 11.0715C4.72907 11.1063 4.42224 11.884 4.50592 12.8127C4.58961 13.7413 5.03707 14.5214 5.52288 14.5481ZM4.80113 12.7999C4.74651 12.1905 4.9499 11.6879 5.25906 11.6716C5.27608 11.6704 5.29317 11.6704 5.31019 11.6716C5.37274 11.6804 5.4322 11.7043 5.48337 11.7413C5.71582 11.9003 5.90294 12.3054 5.94826 12.786C5.99359 13.2666 5.87853 13.6798 5.67862 13.8458C5.63286 13.8853 5.57686 13.911 5.51707 13.9201C5.50005 13.9213 5.48296 13.9213 5.46593 13.9201C5.15097 13.9166 4.85576 13.4105 4.80113 12.7999Z" fill="#6F9EE0"/>
    <path d="M20.206 29.5196C20.2076 29.2987 20.1476 29.0816 20.0326 28.8927C19.9177 28.7039 19.7523 28.5508 19.5551 28.4505L9.08449 23.0249C9.01209 22.9925 8.93261 22.9792 8.8536 22.9862C8.77459 22.9932 8.69868 23.0202 8.63309 23.0648C8.56751 23.1093 8.51443 23.1699 8.47891 23.2408C8.44339 23.3116 8.4266 23.3903 8.43015 23.4695C8.43524 23.6263 8.4807 23.7792 8.56212 23.9134C8.64355 24.0476 8.75821 24.1585 8.89505 24.2356L19.332 30.0281C19.4215 30.0749 19.5214 30.0982 19.6225 30.0959C19.7235 30.0936 19.8223 30.0658 19.9096 30.015C19.9969 29.9642 20.0699 29.8921 20.1217 29.8055C20.1736 29.7189 20.2025 29.6205 20.206 29.5196Z" fill="#919191"/>
    <path d="M20.3338 34.6499C20.3425 34.3919 20.2802 34.1365 20.1538 33.9114C20.0274 33.6863 19.8416 33.5001 19.6167 33.373L9.27276 27.4899C8.98452 27.3263 8.61144 27.5677 8.61725 27.9102C8.6185 28.0698 8.66018 28.2266 8.73842 28.3658C8.81666 28.505 8.92891 28.6222 9.06472 28.7065L19.5621 35.0712C19.6386 35.115 19.7252 35.1384 19.8134 35.1393C19.9016 35.1402 19.9885 35.1184 20.066 35.0762C20.1434 35.0339 20.2086 34.9725 20.2555 34.8979C20.3024 34.8232 20.3294 34.7379 20.3338 34.6499Z" fill="#919191"/>
    <path d="M20.3067 39.1116C20.3227 38.8896 20.2802 38.6673 20.1836 38.4667C20.0869 38.2662 19.9395 38.0943 19.7558 37.9682L9.63505 31.0637C9.55994 31.0125 9.47229 30.9826 9.3815 30.9774C9.29071 30.9722 9.20021 30.9917 9.1197 31.0339C9.03919 31.0762 8.9717 31.1395 8.92449 31.2171C8.87728 31.2948 8.85212 31.3838 8.8517 31.4746C8.8493 31.6034 8.87817 31.7309 8.93586 31.8461C8.99354 31.9613 9.07832 32.0609 9.18294 32.1363L19.4816 39.504C19.5574 39.5583 19.6464 39.5914 19.7394 39.5997C19.8324 39.608 19.9259 39.5912 20.0101 39.5511C20.0944 39.511 20.1664 39.4491 20.2185 39.3718C20.2707 39.2945 20.3012 39.2047 20.3067 39.1116Z" fill="#919191"/>
    </g>
    <defs>
    <clipPath id="clip0_2882_93202">
    <rect width="54" height="54" fill="white"/>
    </clipPath>
    </defs>
    </svg>
    