<svg width="54" height="54" viewBox="0 0 54 54" fill="none" xmlns="http://www.w3.org/2000/svg">
    <g clip-path="url(#clip0_2882_93330)">
    <path d="M6.18515 25.0547L0.539622 27.6869L0 33.8843L5.10591 37.4495L10.7514 34.8173L11.2911 28.6199L6.18515 25.0547ZM6.90824 33.9511C6.37343 34.2003 5.77661 34.2856 5.19325 34.1962C4.60988 34.1068 4.06617 33.8467 3.63088 33.4488C3.19559 33.0509 2.88826 32.533 2.74776 31.9608C2.60725 31.3885 2.63989 30.7875 2.84154 30.2337C3.04319 29.68 3.40479 29.1983 3.88062 28.8498C4.35645 28.5012 4.92514 28.3013 5.51477 28.2753C6.1044 28.2494 6.68849 28.3986 7.19317 28.7041C7.69786 29.0096 8.10048 29.4576 8.35011 29.9915C8.51587 30.346 8.61005 30.7296 8.6273 31.1205C8.64454 31.5113 8.5845 31.9017 8.45061 32.2694C8.31672 32.6371 8.1116 32.9748 7.84696 33.2634C7.58232 33.5519 7.26334 33.7856 6.90824 33.9511Z" fill="#EEEEEE"/>
    <path d="M52.2496 4.26988L41.3492 0L32.1875 7.29316L33.937 18.8573L44.8373 23.1261L53.9947 15.834L52.2496 4.26988ZM41.0449 16.7778C40.0113 16.3734 39.1212 15.672 38.4869 14.7625C37.8527 13.8529 37.503 12.776 37.4819 11.668C37.4608 10.5599 37.7693 9.47055 38.3685 8.53761C38.9677 7.60466 39.8305 6.87006 40.8479 6.42673C41.8653 5.9834 42.9916 5.85125 44.0842 6.047C45.1768 6.24275 46.1868 6.7576 46.9863 7.52644C47.7858 8.29528 48.339 9.28356 48.5758 10.3663C48.8126 11.449 48.7225 12.5775 48.3168 13.6091C47.7731 14.9917 46.7016 16.1022 45.3379 16.6964C43.9743 17.2906 42.4301 17.3199 41.0449 16.7778Z" fill="#EEEEEE"/>
    <path d="M13.9845 38.2656C5.86966 48.0207 8.68325 50.3114 15.6433 40.5369L13.9845 38.2656Z" fill="#919191"/>
    <path d="M34.6673 44.2656C36.2797 56.8447 32.6739 57.2724 32.0469 45.2957L34.6673 44.2656Z" fill="#919191"/>
    <path d="M20.6347 11.5182C24.9555 10.2601 27.9809 7.60691 27.3923 5.59211C26.8037 3.57731 22.8238 2.96389 18.5031 4.222C14.1823 5.4801 11.1569 8.13332 11.7455 10.1481C12.3341 12.1629 16.314 12.7763 20.6347 11.5182Z" fill="#919191"/>
    <path d="M12.5802 13.0908L11.7266 10.1494L27.3195 5.63281L28.2358 8.46216L12.5802 13.0908Z" fill="#919191"/>
    <path d="M20.7021 11.8271C25.0246 10.575 28.3904 9.08423 28.2198 8.49732C28.0493 7.9104 24.4069 8.44962 20.0844 9.70168C15.7619 10.9537 12.3961 12.4445 12.5667 13.0314C12.7372 13.6184 16.3796 13.0791 20.7021 11.8271Z" fill="#919191"/>
    <path d="M51.8057 21.8017C53.3827 20.4138 52.2482 16.5564 49.2717 13.1859C46.2953 9.81552 42.6041 8.20839 41.0272 9.59631C39.4502 10.9842 40.5847 14.8416 43.5612 18.2121C46.5376 21.5825 50.2288 23.1896 51.8057 21.8017Z" fill="#919191"/>
    <path d="M49.5189 23.8162L51.8188 21.7917L41.0814 9.63281L38.7891 11.5313L49.5189 23.8162Z" fill="#919191"/>
    <path d="M49.5709 23.7705C50.0301 23.3664 47.9895 20.3065 45.013 16.936C42.0366 13.5656 39.2515 11.161 38.7923 11.5651C38.3332 11.9693 40.3738 15.0291 43.3502 18.3996C46.3266 21.77 49.1117 24.1746 49.5709 23.7705Z" fill="#919191"/>
    <path d="M27.7266 47.5266C37.5167 47.5266 45.4532 39.6034 45.4532 29.8297C45.4532 20.056 37.5167 12.1328 27.7266 12.1328C17.9365 12.1328 10 20.056 10 29.8297C10 39.6034 17.9365 47.5266 27.7266 47.5266Z" fill="#919191"/>
    <path d="M27.7258 31.2515C28.515 31.2515 29.1547 30.6128 29.1547 29.825C29.1547 29.0371 28.515 28.3984 27.7258 28.3984C26.9366 28.3984 26.2969 29.0371 26.2969 29.825C26.2969 30.6128 26.9366 31.2515 27.7258 31.2515Z" fill="#424242"/>
    <path d="M31.8333 18.7315L30.1797 18.25L26.8045 29.8025L28.4581 30.284L31.8333 18.7315Z" fill="#424242"/>
    <path d="M28.7049 29.8125L27.1953 30.6406L30.3175 36.3128L31.8271 35.4846L28.7049 29.8125Z" fill="#424242"/>
    <path d="M11.1486 35.4375C3.03372 45.1926 5.84732 47.4843 12.8074 37.7087L11.1486 35.4375Z" fill="#AAAAAA"/>
    <path d="M31.8313 41.4375C33.4437 54.0166 29.838 54.4443 29.2109 42.4675L31.8313 41.4375Z" fill="#AAAAAA"/>
    <path d="M17.7839 8.71963C22.1064 7.46756 25.1356 4.81858 24.5498 2.80297C23.964 0.787349 19.985 0.168369 15.6625 1.42043C11.34 2.6725 8.31083 5.32148 8.89664 7.3371C9.48245 9.35271 13.4614 9.97169 17.7839 8.71963Z" fill="#6F9EE0"/>
    <path d="M9.74431 10.2627L8.89062 7.32238L24.4835 2.80469L25.3998 5.63403L9.74431 10.2627Z" fill="#6F9EE0"/>
    <path d="M17.8662 8.99896C22.1887 7.74689 25.5545 6.2561 25.3839 5.66919C25.2133 5.08228 21.571 5.62149 17.2485 6.87356C12.926 8.12563 9.56016 9.61641 9.73073 10.2033C9.90131 10.7902 13.5437 10.251 17.8662 8.99896Z" fill="#3074D3"/>
    <path d="M48.9698 18.9736C50.5467 17.5856 49.4122 13.7282 46.4358 10.3578C43.4594 6.98739 39.7682 5.38026 38.1912 6.76819C36.6143 8.15611 37.7488 12.0135 40.7252 15.3839C43.7016 18.7544 47.3929 20.3615 48.9698 18.9736Z" fill="#6F9EE0"/>
    <path d="M46.6841 20.9802L48.9839 18.9557L38.2465 6.79688L35.9531 8.69532L46.6841 20.9802Z" fill="#6F9EE0"/>
    <path d="M46.735 20.9424C47.1941 20.5382 45.1535 17.4783 42.1771 14.1079C39.2007 10.7375 36.4156 8.33285 35.9564 8.73699C35.4972 9.14113 37.5379 12.201 40.5143 15.5714C43.4907 18.9419 46.2758 21.3465 46.735 20.9424Z" fill="#3074D3"/>
    <path d="M24.8907 44.6906C34.6808 44.6906 42.6172 36.7675 42.6172 26.9938C42.6172 17.22 34.6808 9.29688 24.8907 9.29688C15.1005 9.29688 7.16406 17.22 7.16406 26.9938C7.16406 36.7675 15.1005 44.6906 24.8907 44.6906Z" fill="#CCCCCC"/>
    <path d="M24.8924 40.949C32.6125 40.949 38.8708 34.7011 38.8708 26.994C38.8708 19.2869 32.6125 13.0391 24.8924 13.0391C17.1724 13.0391 10.9141 19.2869 10.9141 26.994C10.9141 34.7011 17.1724 40.949 24.8924 40.949Z" fill="white"/>
    <path d="M24.8899 28.4234C25.679 28.4234 26.3188 27.7847 26.3188 26.9968C26.3188 26.209 25.679 25.5703 24.8899 25.5703C24.1007 25.5703 23.4609 26.209 23.4609 26.9968C23.4609 27.7847 24.1007 28.4234 24.8899 28.4234Z" fill="#3074D3"/>
    <path d="M28.1763 15.6266L28.2198 15.6392C28.4334 15.7012 28.6135 15.8453 28.7206 16.0399C28.8277 16.2345 28.853 16.4636 28.7909 16.6768L25.6603 27.4273L24.0022 26.9461L27.1331 16.1945C27.1952 15.9813 27.3396 15.8015 27.5345 15.6945C27.7294 15.5876 27.9589 15.5623 28.1724 15.6243L28.1763 15.6266Z" fill="#3074D3"/>
    <path d="M24.3594 27.8047L25.8727 26.9745L28.5911 31.9129C28.6982 32.1075 28.7235 32.3366 28.6614 32.5498C28.5993 32.763 28.4549 32.9428 28.26 33.0498L28.2203 33.0716C28.0254 33.1785 27.7959 33.2038 27.5824 33.1418C27.3688 33.0798 27.1886 32.9356 27.0815 32.7411L24.3632 27.8026L24.3594 27.8047Z" fill="#3074D3"/>
    <path d="M45.226 41.6953L41.7465 43.3179L41.4141 47.1374L44.5611 49.3343L48.0406 47.7128L48.373 43.8933L45.226 41.6953ZM45.6717 47.1795C45.3429 47.3317 44.9763 47.3833 44.6181 47.3277C44.26 47.2722 43.9264 47.112 43.6593 46.8674C43.3923 46.6227 43.2038 46.3046 43.1176 45.9532C43.0315 45.6017 43.0516 45.2326 43.1753 44.8925C43.299 44.5524 43.5209 44.2565 43.8129 44.0422C44.1048 43.8278 44.4539 43.7046 44.8159 43.6881C45.178 43.6716 45.5369 43.7624 45.8472 43.9493C46.1576 44.1362 46.4056 44.4106 46.5599 44.738C46.6628 44.9564 46.7215 45.193 46.7326 45.4341C46.7436 45.6753 46.7068 45.9162 46.6243 46.1431C46.5417 46.37 46.4151 46.5783 46.2516 46.7562C46.0881 46.9341 45.891 47.0779 45.6717 47.1795Z" fill="#EEEEEE"/>
    </g>
    <defs>
    <clipPath id="clip0_2882_93330">
    <rect width="54" height="54" fill="white"/>
    </clipPath>
    </defs>
    </svg>
    