<svg width="54" height="54" viewBox="0 0 54 54" fill="none" xmlns="http://www.w3.org/2000/svg">
    <g clip-path="url(#clip0_2882_93279)">
    <path d="M52.916 18.855L50.5506 17.5L48.1953 18.8685L48.2032 21.5932L50.5674 22.9482L52.9227 21.5797L52.916 18.855ZM49.9091 21.3611C49.6851 21.2327 49.5044 21.0408 49.3896 20.8096C49.2748 20.5785 49.2312 20.3185 49.2643 20.0626C49.2973 19.8067 49.4056 19.5664 49.5754 19.372C49.7451 19.1775 49.9688 19.0378 50.218 18.9704C50.4672 18.903 50.7309 18.911 50.9756 18.9933C51.2203 19.0756 51.4351 19.2286 51.5928 19.4329C51.7505 19.6373 51.844 19.8837 51.8615 20.1411C51.879 20.3986 51.8198 20.6554 51.6912 20.8792C51.6059 21.0278 51.4921 21.1581 51.3563 21.2627C51.2206 21.3674 51.0655 21.4443 50.9 21.489C50.7345 21.5338 50.5619 21.5455 50.3918 21.5236C50.2218 21.5016 50.0577 21.4464 49.9091 21.3611Z" fill="#EEEEEE"/>
    <path d="M6.55106 32.5762L3.80211 30.3828L0.527136 31.6695L0 35.144L2.74896 37.3374L6.02281 36.0518L6.55106 32.5762ZM2.22406 35.1742C1.96469 34.9664 1.77276 34.6864 1.67251 34.3696C1.57227 34.0528 1.5682 33.7134 1.66082 33.3943C1.75345 33.0752 1.93861 32.7907 2.19293 32.5767C2.44725 32.3627 2.75932 32.2288 3.08974 32.1919C3.42016 32.155 3.75412 32.2167 4.04944 32.3694C4.34475 32.522 4.58819 32.7587 4.74901 33.0495C4.90983 33.3403 4.98083 33.6722 4.95302 34.0032C4.92522 34.3343 4.79988 34.6498 4.59281 34.9097C4.4549 35.0828 4.28414 35.2271 4.09033 35.3341C3.89652 35.4411 3.68347 35.5089 3.4634 35.5335C3.24333 35.558 3.02057 35.539 2.80789 35.4773C2.59522 35.4157 2.39682 35.3127 2.22406 35.1742Z" fill="#EEEEEE"/>
    <path d="M1.78906 37.2266C1.78906 37.2266 2.34087 39.9815 6.47608 41.3589C10.6113 42.7364 44.4669 44.6653 46.0382 44.6653C47.1407 44.6653 48.9329 43.4257 48.3811 41.2211C47.8293 39.0165 1.78906 37.2266 1.78906 37.2266Z" fill="#AAAAAA"/>
    <path d="M44.3785 42.6016C44.3785 42.6016 1.50667 42.0569 1.78258 37.2969C1.78258 37.2756 1.78258 37.2532 1.78818 37.2297C2.47795 32.4102 6.30473 27.7578 6.30473 27.7578C11.9922 28.641 22.7727 29.2686 31.7519 29.6699C39.9158 30.0319 46.5891 30.2045 46.5891 30.2045C44.1071 37.2297 44.3785 42.6016 44.3785 42.6016Z" fill="#DADADA"/>
    <path d="M44.3785 42.5958C44.3785 42.5958 1.50667 42.0511 1.78258 37.2911C2.6058 37.7282 4.50349 38.5027 8.40542 39.1527C14.1949 40.1166 33.7719 42.5891 37.6289 33.9175C38.1796 32.6779 37.491 29.923 32.8062 29.923C31.8955 29.923 31.614 29.8232 31.7542 29.6641C39.918 30.0261 46.5914 30.1987 46.5914 30.1987C44.1071 37.2238 44.3785 42.5958 44.3785 42.5958Z" fill="#CCCCCC"/>
    <path d="M44.191 42.198C44.2019 42.6297 44.3236 43.0514 44.5443 43.4227C44.7651 43.794 45.0775 44.1024 45.4516 44.3185C45.9698 44.6066 46.6125 44.7074 47.2955 44.2064C48.933 43.0072 50.9967 40.8037 51.138 34.7424C51.2793 28.6812 50.0355 26.4766 50.0355 26.4766L46.4117 30.2458C46.4117 30.2458 43.9308 35.5998 44.191 42.198Z" fill="#AAAAAA"/>
    <path d="M12.3024 25.7891H48.8655C50.5478 25.7891 50.5815 27.4422 49.6169 28.1304L47.1349 29.7836C46.2847 30.2566 45.6555 31.0041 44.6831 30.9671L7.07819 28.9867C6.10355 28.9497 5.88596 27.6014 6.80004 27.2607L9.28879 26.3326C10.253 25.9736 11.2735 25.7895 12.3024 25.7891Z" fill="#E5E5E5"/>
    <path d="M47.8362 27.1228C47.8045 27.1604 47.7666 27.1923 47.724 27.2169L45.4013 28.4823C45.3149 28.5293 45.2252 28.5731 45.1355 28.6134C44.632 28.8387 44.0842 28.9479 43.5327 28.9328L41.7887 28.8813L40.6324 28.8465L13.1664 28.0216H13.1092L9.10181 27.9017C9.02241 27.8983 8.9465 27.8682 8.88649 27.8161C8.82649 27.764 8.78594 27.6931 8.77148 27.615C8.75703 27.5369 8.76951 27.4562 8.8069 27.3862C8.84429 27.3161 8.90437 27.2608 8.97732 27.2292L9.81961 26.9042C10.7104 26.535 11.6659 26.3471 12.6303 26.3516H13.4434H13.6509L41.4051 26.4525H42.1577L47.5356 26.4716C47.6126 26.471 47.688 26.4933 47.7522 26.5356C47.8165 26.5779 47.8668 26.6383 47.8967 26.7092C47.9264 26.7769 47.9365 26.8515 47.9258 26.9246C47.9151 26.9978 47.884 27.0664 47.8362 27.1228Z" fill="#919191"/>
    <path d="M48.9355 19.0399C48.9355 19.0399 48.2782 23.9221 47.8935 26.7106C47.8745 26.8541 47.8543 26.9908 47.8363 27.122C47.8047 27.1596 47.7667 27.1915 47.7242 27.2161L45.4014 28.4815C45.315 28.5286 45.2253 28.5723 45.1356 28.6126L12.3747 27.6039C12.2616 27.6005 12.1507 27.5721 12.05 27.5207C11.9492 27.4693 11.8611 27.3962 11.792 27.3067C11.7229 27.2172 11.6746 27.1135 11.6504 27.003C11.6263 26.8926 11.627 26.7782 11.6524 26.668V26.6468L11.7096 26.3946L13.651 17.9382C13.9269 16.8364 14.4787 16.9743 14.4787 16.9743H47.6995C49.3493 16.9743 48.9355 19.0399 48.9355 19.0399Z" fill="#919191"/>
    <path d="M48.9355 19.04C48.9355 19.04 48.2782 23.9222 47.8935 26.7107C47.8745 26.8542 47.8543 26.9909 47.8363 27.1221C47.8047 27.1597 47.7667 27.1916 47.7242 27.2162L45.4014 28.4816C45.315 28.5286 45.2253 28.5724 45.1356 28.6127L12.3747 27.604C12.2616 27.6006 12.1507 27.5722 12.05 27.5208C11.9492 27.4694 11.8611 27.3963 11.792 27.3068C11.7229 27.2173 11.6746 27.1136 11.6504 27.0031C11.6263 26.8927 11.627 26.7783 11.6524 26.6681V26.6468C12.0808 26.8306 13.0375 27.0245 15.1618 27.0245C19.0312 27.0245 34.5222 27.669 35.5126 16.9688H47.695C49.3493 16.9744 48.9355 19.04 48.9355 19.04Z" fill="#919191"/>
    <path d="M53.1684 1.56912C52.5134 0.54807 51.5365 0.0246575 50.4766 0H50.3174L38.6923 0.043711L37.25 9.32055L39.012 12.0687C39.4225 12.7076 40.2457 12.7076 40.8547 12.0687L42.5371 10.3057C43.1449 9.66575 43.9693 9.66575 44.3787 10.3057L44.5368 10.5523L44.5705 10.6027L45.424 11.9443C45.8333 12.5832 46.6577 12.5832 47.2667 11.9443L49.0276 10.0939C49.1525 9.95091 49.3052 9.83476 49.4764 9.75249C49.6476 9.67023 49.8337 9.62356 50.0235 9.61532C50.194 9.61499 50.3617 9.65893 50.5102 9.74282C50.6586 9.82671 50.7827 9.94769 50.8703 10.0939C51.5309 11.1239 53.0484 10.3943 53.2749 8.93836L53.8301 5.36638C53.8829 5.0267 53.9095 4.68348 53.9097 4.33973C53.912 3.29514 53.6563 2.33014 53.1684 1.56912ZM50.7593 1.49178C50.5349 1.16339 50.6471 0.896638 51.0026 0.896638C51.3582 0.896638 51.8348 1.16339 52.0603 1.49178C52.2857 1.82017 52.1724 2.08692 51.8158 2.08692C51.4591 2.08692 50.9836 1.8213 50.7593 1.49178ZM52.4539 6.068C52.2383 6.0649 52.0302 5.98851 51.8638 5.8514C51.6975 5.71429 51.5828 5.52464 51.5387 5.3137C51.5211 5.21833 51.5253 5.1202 51.5512 5.02671C51.577 4.93323 51.6238 4.84684 51.688 4.77408C51.7522 4.70131 51.8321 4.64408 51.9216 4.60669C52.0112 4.56931 52.1081 4.55275 52.2049 4.55828C52.4207 4.56163 52.6288 4.63826 52.7952 4.77556C52.9615 4.91286 53.0761 5.10264 53.1201 5.3137C53.1378 5.40902 53.1336 5.50711 53.1077 5.60055C53.0819 5.69399 53.0351 5.78032 52.9709 5.853C52.9067 5.92568 52.8268 5.98281 52.7372 6.02006C52.6477 6.05731 52.5508 6.0737 52.4539 6.068Z" fill="#CCCCCC"/>
    <path d="M31.6934 0L24.3472 0.00672494C23.3635 0.0241761 22.4021 0.302264 21.5612 0.812578C20.6048 1.38639 19.7755 2.14914 19.1241 3.05417C18.1685 4.35206 17.6447 5.89539 17.2701 7.53736L13.5398 25.8915L13.4467 26.3522L13.3603 26.7411L13.1641 28.0222L40.6301 28.8471L41.7864 28.8818L42.096 26.8408L42.1554 26.4553L44.5533 10.7137L44.5713 10.6016L44.6071 10.3674L45.3496 5.48182C45.5689 4.04548 46.2102 2.70662 47.1924 1.63524L47.2316 1.59602C48.1737 0.587298 49.2773 0.0605231 50.3193 0.00448329H31.6934V0ZM43.3028 12.665C43.2472 12.9308 43.1028 13.1697 42.8932 13.3425C42.6836 13.5152 42.4214 13.6115 42.1498 13.6154C41.6002 13.6154 41.2234 13.1895 41.3109 12.665C41.366 12.3986 41.5104 12.1591 41.7203 11.9858C41.9301 11.8126 42.1928 11.7161 42.465 11.7123C43.0145 11.7112 43.3891 12.1371 43.3028 12.6639V12.665ZM44.1585 7.72229C44.1032 7.98825 43.9589 8.22745 43.7493 8.40043C43.5397 8.57341 43.2774 8.66985 43.0056 8.67385C42.456 8.67385 42.0791 8.24794 42.1666 7.72229C42.2222 7.45635 42.3668 7.21727 42.5766 7.04449C42.7864 6.87172 43.0489 6.77555 43.3207 6.77186C43.8692 6.77186 44.2438 7.19776 44.1585 7.72229ZM23.9221 0.151307C24.3102 0.0325029 24.8115 0.0134495 25.0437 0.109838C25.2758 0.206227 25.1558 0.381071 24.7655 0.500996C24.3752 0.620922 23.8761 0.637734 23.644 0.541345C23.4118 0.444957 23.5352 0.270112 23.9221 0.151307ZM19.8206 2.83898C20.0729 2.37385 20.6797 2.0208 21.1743 2.05442C21.6689 2.08804 21.8674 2.48817 21.6139 2.95106C21.3605 3.41395 20.7571 3.76924 20.2602 3.73562C19.7634 3.70199 19.5637 3.30635 19.8206 2.83898ZM17.8264 7.74695C17.8879 7.48636 18.0346 7.25366 18.2431 7.08561C18.4517 6.91756 18.7104 6.82373 18.9783 6.81893C19.5177 6.81893 19.8755 7.23474 19.7779 7.74695C19.7162 8.00733 19.5695 8.23977 19.3609 8.4076C19.1524 8.57543 18.8938 8.66911 18.6261 8.67385C18.081 8.67385 17.7232 8.25915 17.8219 7.74695H17.8264ZM16.9292 12.5328C16.9909 12.272 17.1377 12.0391 17.3464 11.8709C17.5552 11.7026 17.814 11.6086 18.0821 11.6036C18.6205 11.6036 18.9794 12.0205 18.8807 12.5328C18.8189 12.7931 18.6722 13.0256 18.4637 13.1934C18.2551 13.3612 17.9966 13.4549 17.7288 13.4597C17.1871 13.4597 16.8293 13.045 16.9269 12.5328H16.9292ZM16.0319 17.2524C16.0932 16.9916 16.2397 16.7587 16.4483 16.5904C16.6569 16.4221 16.9157 16.3281 17.1838 16.3233C17.7232 16.3233 18.081 16.7391 17.9834 17.2524C17.9217 17.5128 17.775 17.7453 17.5664 17.9131C17.3579 18.0809 17.0993 18.1746 16.8316 18.1793C16.2887 18.1793 15.9321 17.7646 16.0297 17.2524H16.0319ZM15.1347 21.971C15.1962 21.7105 15.3429 21.478 15.5515 21.3101C15.7601 21.1422 16.0187 21.0486 16.2865 21.0441C16.826 21.0441 17.1838 21.4588 17.0862 21.971C17.0248 22.232 16.8781 22.465 16.6693 22.6333C16.4605 22.8016 16.2014 22.8955 15.9332 22.9001C15.3915 22.9001 15.0326 22.4821 15.1313 21.971H15.1347ZM16.1889 26.6907C16.1272 26.9513 15.9803 27.1841 15.7716 27.3521C15.5628 27.5201 15.304 27.6139 15.036 27.6187C14.4976 27.6187 14.1387 27.2029 14.2363 26.6907C14.2874 26.4502 14.4163 26.2332 14.603 26.0731C14.8189 25.8788 15.0977 25.769 15.3881 25.7638C15.5543 25.7547 15.7191 25.7991 15.8581 25.8905C15.9972 25.9819 16.1033 26.1154 16.1609 26.2715C16.2066 26.4065 16.2151 26.5513 16.1856 26.6907H16.1889ZM40.906 27.1827C40.8509 27.4486 40.7068 27.6877 40.4974 27.8607C40.288 28.0337 40.0258 28.1302 39.7541 28.1342C39.2023 28.1342 38.8277 27.7083 38.9141 27.1827C38.97 26.9169 39.1147 26.6781 39.3245 26.5054C39.5342 26.3327 39.7964 26.2364 40.0682 26.2323C40.6155 26.2323 40.9912 26.6582 40.906 27.1827ZM41.7057 22.3431C41.6504 22.6088 41.5061 22.8477 41.2967 23.0204C41.0874 23.1932 40.8253 23.2895 40.5538 23.2935C40.0031 23.2935 39.6274 22.8676 39.7138 22.3431C39.7693 22.077 39.9139 21.8378 40.1236 21.6649C40.3334 21.4919 40.5959 21.3955 40.8678 21.3915C41.4152 21.3915 41.7909 21.8174 41.7034 22.3431H41.7057ZM42.5053 17.5024C42.4504 17.7686 42.3062 18.0082 42.0966 18.1814C41.8869 18.3547 41.6244 18.4512 41.3524 18.455C40.897 18.455 40.5605 18.1614 40.5089 17.7613C40.495 17.6755 40.495 17.5881 40.5089 17.5024C40.5543 17.2821 40.6614 17.0792 40.8177 16.9173C40.9739 16.7554 41.1729 16.6411 41.3916 16.5878C41.4801 16.564 41.5714 16.5519 41.663 16.5519C42.2148 16.5519 42.5883 16.9778 42.5031 17.5024H42.5053ZM45.1679 3.21669C44.8887 3.71544 44.2359 4.07298 43.7099 4.01582C43.1839 3.95865 42.9764 3.50585 43.2534 3.0071C43.5304 2.50834 44.1866 2.14857 44.7115 2.20685C45.2363 2.26513 45.445 2.71681 45.1679 3.21669ZM47.5602 0.638854C47.0791 0.780075 46.4566 0.792404 46.1717 0.669116C45.8869 0.545828 46.0416 0.332877 46.5228 0.192777C47.0039 0.0526776 47.6253 0.039228 47.9124 0.162516C48.1995 0.285803 48.0414 0.494271 47.5602 0.634371V0.638854Z" fill="#EEEEEE"/>
    <path d="M44.5376 10.5532C43.7565 12.692 42.7009 14.7204 41.3972 16.5876C41.4857 16.5638 41.577 16.5517 41.6686 16.5517C42.2182 16.5517 42.5928 16.9776 42.5065 17.5022C42.4516 17.7684 42.3074 18.008 42.0977 18.1812C41.888 18.3545 41.6255 18.451 41.3535 18.4549C40.8981 18.4549 40.5617 18.1612 40.5101 17.7611C39.4215 19.1138 38.1743 20.3311 36.7954 21.3869C36.8512 21.4514 36.892 21.5275 36.9149 21.6097C36.9377 21.6918 36.9422 21.778 36.9278 21.8621C36.9054 21.9996 36.8347 22.1246 36.7285 22.2148C36.6222 22.3049 36.4873 22.3543 36.3479 22.3541H36.339L35.4518 22.3384C31.975 24.6092 28.1616 25.7008 24.6848 26.1738L26.873 26.2209L28.562 26.2578C28.7143 26.2659 28.8575 26.3324 28.9618 26.4434C29.0661 26.5545 29.1235 26.7015 29.1219 26.8539C29.1203 27.0062 29.0599 27.152 28.9533 27.2609C28.8466 27.3697 28.7021 27.4332 28.5497 27.438H28.5362L24.2743 27.3405L19.3282 27.2285C19.2433 27.2264 19.1599 27.2059 19.0838 27.1683C19.0076 27.1308 18.9405 27.0772 18.8872 27.0112C18.8338 26.9452 18.7955 26.8684 18.7748 26.7861C18.7541 26.7038 18.7516 26.618 18.7674 26.5347C18.7725 26.5075 18.78 26.4809 18.7898 26.4551C17.8174 26.4215 16.9336 26.3531 16.1642 26.2724C16.2107 26.4072 16.22 26.552 16.1912 26.6916C16.1294 26.9523 15.9826 27.185 15.7738 27.353C15.565 27.5211 15.3062 27.6149 15.0382 27.6196C14.4998 27.6196 14.1409 27.2038 14.2385 26.6916C14.2897 26.4511 14.4186 26.2341 14.6053 26.074C14.1679 26.0079 13.809 25.9451 13.5398 25.8925L13.4467 26.3531L13.3603 26.7409L13.1641 28.022L40.6301 28.8469L41.7864 28.8816L42.096 26.8407L42.1554 26.4551L44.5533 10.7135L44.5713 10.6014L44.6071 10.3672C44.5847 10.43 44.5612 10.4894 44.5376 10.5532ZM40.906 27.1825C40.8509 27.4484 40.7068 27.6875 40.4974 27.8605C40.288 28.0335 40.0258 28.13 39.7541 28.1341C39.2023 28.1341 38.8277 27.7082 38.9141 27.1825C38.97 26.9167 39.1147 26.6779 39.3245 26.5052C39.5342 26.3325 39.7964 26.2362 40.0682 26.2321C40.6155 26.2321 40.9912 26.658 40.906 27.1825ZM41.7057 22.3429C41.6504 22.6086 41.5061 22.8475 41.2967 23.0202C41.0874 23.193 40.8253 23.2893 40.5538 23.2933C40.0031 23.2933 39.6274 22.8674 39.7138 22.3429C39.7693 22.0768 39.9139 21.8376 40.1236 21.6647C40.3334 21.4917 40.5959 21.3953 40.8678 21.3913C41.4152 21.3913 41.7909 21.8172 41.7034 22.3429H41.7057Z" fill="#DADADA"/>
    <path d="M51.5251 35.2894C52.1657 32.5581 51.6465 30.1007 50.3656 29.8007C49.0846 29.5007 47.5269 31.4717 46.8864 34.203C46.2458 36.9343 46.765 39.3916 48.0459 39.6916C49.3269 39.9916 50.8846 38.0207 51.5251 35.2894Z" fill="#CCCCCC"/>
    <path d="M50.3118 29.7891C50.3118 29.7891 51.8528 30.6566 52.1848 31.1183C52.5168 31.5801 49.8979 39.4313 49.8979 39.4313C49.8979 39.4313 48.9334 39.9827 48.1034 39.707C47.2735 39.4313 47.4137 35.5746 48.5162 32.8197C49.6187 30.0648 50.3118 29.7891 50.3118 29.7891Z" fill="#CCCCCC"/>
    <path d="M52.7369 35.6279C53.2928 33.2576 52.8419 31.125 51.7298 30.8645C50.6177 30.6041 49.2656 32.3145 48.7097 34.6848C48.1538 37.0551 48.6046 39.1877 49.7167 39.4482C50.8288 39.7086 52.181 37.9982 52.7369 35.6279Z" fill="#DADADA"/>
    <path d="M32.1841 6.78928L23.1566 6.77919C23.0761 6.77836 22.9968 6.75998 22.9241 6.72533C22.8515 6.69069 22.7873 6.64061 22.736 6.5786C22.6848 6.51658 22.6477 6.44413 22.6273 6.36631C22.607 6.28848 22.6039 6.20715 22.6183 6.12801C22.6425 6.00188 22.71 5.88813 22.809 5.80632C22.9081 5.7245 23.0326 5.67973 23.1611 5.67969H32.1908C32.2714 5.67976 32.351 5.69747 32.424 5.73157C32.497 5.76568 32.5617 5.81535 32.6134 5.8771C32.6652 5.93884 32.7027 6.01116 32.7235 6.08898C32.7443 6.16679 32.7477 6.24821 32.7337 6.32751V6.34096C32.7096 6.46842 32.6413 6.58331 32.5407 6.66533C32.4402 6.74736 32.3139 6.79126 32.1841 6.78928Z" fill="#6F9EE0"/>
    <path d="M31.2933 11.8498L22.221 11.7904C22.1389 11.7899 22.058 11.7713 21.9839 11.7361C21.9098 11.7008 21.8443 11.6498 21.7921 11.5865C21.7399 11.5232 21.7023 11.4493 21.6818 11.3699C21.6613 11.2905 21.6585 11.2075 21.6736 11.1269C21.6983 10.9984 21.7672 10.8825 21.8684 10.7993C21.9696 10.7162 22.0967 10.6711 22.2277 10.6719L31.3012 10.719C31.3827 10.7194 31.4632 10.7376 31.537 10.7723C31.6108 10.807 31.6762 10.8573 31.7285 10.9199C31.7808 10.9824 31.8189 11.0556 31.84 11.1343C31.8611 11.2131 31.8648 11.2954 31.8507 11.3757V11.387C31.8276 11.5175 31.759 11.6357 31.6569 11.7205C31.5548 11.8052 31.426 11.8511 31.2933 11.8498Z" fill="#6F9EE0"/>
    <path d="M30.3818 16.9729L21.2646 16.8608C21.1817 16.8598 21.1 16.8406 21.0253 16.8047C20.9506 16.7688 20.8846 16.717 20.8321 16.6529C20.7795 16.5889 20.7416 16.5141 20.721 16.4338C20.7004 16.3536 20.6976 16.2698 20.7128 16.1883C20.7376 16.0581 20.8073 15.9406 20.9097 15.8563C21.0122 15.7719 21.1409 15.726 21.2736 15.7266L30.3919 15.8241C30.4744 15.8248 30.5557 15.8434 30.6302 15.8787C30.7048 15.9141 30.7707 15.9652 30.8234 16.0285C30.8762 16.0919 30.9144 16.166 30.9356 16.2457C30.9568 16.3253 30.9603 16.4087 30.9459 16.4898V16.501C30.9231 16.6337 30.8538 16.754 30.7505 16.8404C30.6472 16.9268 30.5165 16.9738 30.3818 16.9729Z" fill="#6F9EE0"/>
    <path d="M26.8613 26.2245C25.9809 26.6381 25.1128 27.0091 24.2671 27.3453L19.321 27.2332C19.2361 27.2311 19.1527 27.2106 19.0766 27.1731C19.0004 27.1356 18.9334 27.082 18.88 27.016C18.8267 26.95 18.7883 26.8732 18.7676 26.7909C18.747 26.7086 18.7444 26.6228 18.7602 26.5395C18.7653 26.5123 18.7728 26.4857 18.7827 26.4599C20.7509 26.5308 22.7216 26.4371 24.6742 26.1797L26.8613 26.2245Z" fill="#3074D3"/>
    <path d="M24.6728 26.1701C22.7202 26.4275 20.7495 26.5213 18.7812 26.4503C18.8201 26.3349 18.8943 26.2345 18.9933 26.1635C19.0923 26.0925 19.2112 26.0545 19.3331 26.0547H19.3476L24.6728 26.1701Z" fill="#6F9EE0"/>
    <path d="M29.4607 22.1708L20.2975 22.0116C20.2131 22.0108 20.13 21.9915 20.0539 21.9551C19.9778 21.9187 19.9107 21.866 19.8572 21.8008C19.8037 21.7356 19.7652 21.6594 19.7444 21.5777C19.7236 21.496 19.721 21.4108 19.7367 21.328C19.7621 21.1945 19.8339 21.0742 19.9393 20.9885C20.0448 20.9028 20.1773 20.8571 20.3132 20.8595L29.4775 21.0074C29.5607 21.0085 29.6427 21.0276 29.7179 21.0634C29.793 21.0991 29.8595 21.1507 29.9128 21.2146C29.9661 21.2785 30.0049 21.3532 30.0266 21.4335C30.0482 21.5138 30.0522 21.5979 30.0383 21.6799V21.6911C30.0155 21.8269 29.9446 21.9501 29.8386 22.0381C29.7326 22.1262 29.5985 22.1732 29.4607 22.1708Z" fill="#6F9EE0"/>
    <path d="M38.9502 6.79936H37.1221C37.0407 6.79919 36.9603 6.7813 36.8865 6.74694C36.8127 6.71258 36.7472 6.66257 36.6947 6.60039C36.6422 6.53821 36.6039 6.46535 36.5824 6.38687C36.5609 6.30839 36.5568 6.22617 36.5703 6.14594C36.5925 6.0155 36.6602 5.89713 36.7614 5.81179C36.8626 5.72646 36.9908 5.67966 37.1232 5.67969H38.9514C39.0328 5.67972 39.1132 5.69747 39.187 5.7317C39.2609 5.76592 39.3264 5.8158 39.379 5.87787C39.4316 5.93994 39.4701 6.01271 39.4917 6.09114C39.5134 6.16956 39.5176 6.25175 39.5043 6.33199C39.4823 6.46283 39.4145 6.58161 39.313 6.66719C39.2116 6.75278 39.083 6.79961 38.9502 6.79936Z" fill="#6F9EE0"/>
    <path d="M38.0791 11.9591L36.2487 11.949C36.1659 11.9492 36.084 11.9313 36.0089 11.8966C35.9337 11.8618 35.8671 11.811 35.8136 11.7478C35.7602 11.6846 35.7213 11.6104 35.6995 11.5306C35.6778 11.4507 35.6739 11.367 35.6879 11.2855C35.7103 11.1531 35.7789 11.0328 35.8815 10.9462C35.9842 10.8596 36.1144 10.8122 36.2487 10.8125L38.0791 10.8226C38.1616 10.8228 38.243 10.8409 38.3178 10.8757C38.3926 10.9104 38.459 10.961 38.5123 11.0238C38.5656 11.0867 38.6046 11.1604 38.6267 11.2398C38.6487 11.3193 38.6532 11.4025 38.6399 11.4839C38.6179 11.6166 38.5494 11.7372 38.4467 11.8242C38.344 11.9112 38.2138 11.959 38.0791 11.9591Z" fill="#6F9EE0"/>
    <path d="M37.2219 17.0586L35.3892 17.0361C35.306 17.035 35.224 17.016 35.1489 16.9802C35.0737 16.9444 35.0072 16.8928 34.9539 16.8289C34.9006 16.765 34.8618 16.6903 34.8402 16.61C34.8185 16.5297 34.8145 16.4457 34.8284 16.3637C34.8516 16.2283 34.9222 16.1056 35.0276 16.0175C35.1331 15.9294 35.2664 15.8817 35.4038 15.8828L37.2364 15.903C37.3197 15.9041 37.4017 15.9232 37.4768 15.959C37.552 15.9947 37.6185 16.0463 37.6717 16.1102C37.725 16.1741 37.7638 16.2488 37.7855 16.3291C37.8072 16.4094 37.8112 16.4935 37.7972 16.5755C37.775 16.7115 37.7047 16.835 37.5991 16.9236C37.4936 17.0122 37.3597 17.0601 37.2219 17.0586Z" fill="#6F9EE0"/>
    <path d="M34.9304 21.1608C34.5816 21.4545 34.2261 21.738 33.8672 22.0115L33.9031 21.803C33.9344 21.62 34.0302 21.4542 34.1731 21.3356C34.3161 21.217 34.4968 21.1534 34.6826 21.1563L34.9304 21.1608Z" fill="#6F9EE0"/>
    <path d="M35.4511 27.5968L33.6117 27.5554C33.5264 27.5534 33.4425 27.533 33.3657 27.4957C33.289 27.4584 33.2212 27.4051 33.1669 27.3392C33.1126 27.2734 33.0732 27.1967 33.0512 27.1143C33.0293 27.0318 33.0254 26.9457 33.0397 26.8616C33.0636 26.7211 33.1373 26.5939 33.2472 26.5032C33.3572 26.4125 33.4961 26.3642 33.6386 26.3673L35.4746 26.4077C35.5597 26.4096 35.6434 26.4297 35.72 26.4668C35.7966 26.5038 35.8644 26.5568 35.9187 26.6223C35.9731 26.6877 36.0127 26.7641 36.035 26.8462C36.0572 26.9283 36.0616 27.0142 36.0478 27.0981C36.0246 27.2389 35.9517 27.3667 35.8422 27.4583C35.7326 27.5498 35.5939 27.599 35.4511 27.5968Z" fill="#3074D3"/>
    <path d="M29.122 26.9484C29.0984 27.0853 29.0272 27.2094 28.9209 27.2988C28.8146 27.3882 28.68 27.4372 28.541 27.4371H28.5276L24.2656 27.3395C25.1113 27.0033 25.9794 26.6334 26.8598 26.2188L28.5489 26.2557C28.6344 26.2569 28.7187 26.2766 28.7959 26.3135C28.8731 26.3504 28.9413 26.4037 28.9958 26.4695C29.0503 26.5354 29.0899 26.6124 29.1117 26.6951C29.1334 26.7778 29.137 26.8642 29.122 26.9484Z" fill="#3074D3"/>
    <path d="M36.9213 21.8658C36.8989 22.0033 36.8283 22.1284 36.722 22.2185C36.6157 22.3087 36.4808 22.3581 36.3414 22.3579H36.3325L35.4453 22.3422C35.8992 22.0478 36.3478 21.7306 36.7912 21.3906C36.8466 21.4554 36.8869 21.5315 36.9094 21.6137C36.9319 21.6958 36.936 21.7819 36.9213 21.8658Z" fill="#3074D3"/>
    <path d="M36.7858 21.3849C36.3447 21.7256 35.8961 22.0428 35.44 22.3364L34.1176 22.314C34.0798 22.3133 34.0425 22.3044 34.0084 22.2879C33.9743 22.2715 33.9441 22.2479 33.92 22.2187C33.8958 22.1896 33.8782 22.1556 33.8684 22.119C33.8586 22.0825 33.8567 22.0443 33.863 22.0069C34.2219 21.7335 34.5764 21.4499 34.9263 21.1562L36.3462 21.1787C36.4299 21.18 36.5124 21.1991 36.5881 21.2347C36.6639 21.2702 36.7313 21.3214 36.7858 21.3849Z" fill="#6F9EE0"/>
    <path d="M33.5016 2.18211L24.4786 2.17426C24.1332 2.17426 24.0412 1.93665 24.2868 1.67999C24.4981 1.47504 24.7777 1.3553 25.0719 1.34375H34.1016C34.4448 1.34375 34.539 1.57688 34.3002 1.8313L34.2923 1.83914C34.081 2.04838 33.7988 2.17076 33.5016 2.18211Z" fill="#6F9EE0"/>
    <path d="M40.2572 2.18883H38.4369C38.0904 2.18883 37.9939 1.95234 38.235 1.69568C38.4481 1.48177 38.7341 1.35608 39.0358 1.34375H40.864C41.2105 1.34375 41.3126 1.578 41.0681 1.83466C40.8526 2.05126 40.5627 2.17787 40.2572 2.18883Z" fill="#6F9EE0"/>
    <path d="M45.4706 26.4403L41.0124 39.7229L40.834 40.2531L38.0312 39.3138L38.6358 37.5093L39.3222 35.4661L42.6656 25.5L43.8241 25.8878L45.4706 26.4403Z" fill="#98B9EA"/>
    <path d="M45.4732 26.4387L41.0172 39.7224C40.8969 39.7416 40.7756 39.7532 40.6538 39.7571C40.1581 39.7571 40.1581 39.9219 39.6624 39.2617C39.4123 38.9255 38.9894 38.1746 38.6406 37.5088L39.3259 35.4656H39.3315C39.3315 35.4656 40.9836 35.961 41.4804 34.4748C41.9773 32.9886 43.7942 27.8677 43.2985 27.0417C43.0192 26.5766 43.4241 26.1619 43.829 25.8906L45.4732 26.4387Z" fill="#6F9EE0"/>
    <path d="M40.0572 40.7098L39.5346 40.8151L25.7663 43.6048L25.5924 42.744L25.1797 40.7075L35.682 38.5802L38.782 37.9515L39.4684 37.8125L40.0572 40.7098Z" fill="#98B9EA"/>
    <path d="M39.5359 40.8123L25.7676 43.602L25.5938 42.7412C25.9852 42.6358 26.2667 42.5641 26.2667 42.5641C26.2667 42.5641 35.0272 41.904 35.523 39.7621C35.6184 39.376 35.6718 38.9807 35.6822 38.583L38.7834 37.9453C38.8067 37.995 38.8225 38.0479 38.8305 38.1022C38.9056 38.6368 39.2499 39.7251 39.5359 40.8123Z" fill="#6F9EE0"/>
    <path d="M50.2055 49.0974L47.9893 51.0554L44.6717 47.3019L42.2805 44.5963L38.3359 40.1355L40.5521 38.1797L50.2055 49.0974Z" fill="#98B9EA"/>
    <path d="M50.2111 49.0929L47.9893 51.0498L44.6717 47.2974C44.9865 47.368 45.3159 47.3309 45.607 47.1921C46.5985 46.6967 43.1273 43.7176 42.4667 43.7176C42.0651 43.7176 42.1504 44.2051 42.2794 44.5862L38.3359 40.1254L40.5522 38.1719L50.2111 49.0929Z" fill="#6F9EE0"/>
    <path d="M43.5076 40.8627C43.2476 41.6367 42.7676 42.3182 42.1265 42.824C41.4853 43.3299 40.7106 43.6383 39.8969 43.7116C39.0833 43.7848 38.2659 43.6198 37.5446 43.2365C36.8232 42.8533 36.2292 42.2684 35.8349 41.5534C35.4406 40.8384 35.2632 40.0242 35.3243 39.2101C35.3854 38.396 35.6823 37.6173 36.1789 36.969C36.6754 36.3208 37.3501 35.831 38.1206 35.5595C38.891 35.2881 39.7239 35.2467 40.5175 35.4403C40.6297 35.4683 40.7418 35.502 40.854 35.5401C41.378 35.7154 41.8624 35.9921 42.2794 36.3545C42.6964 36.7168 43.0378 37.1578 43.2842 37.6521C43.5307 38.1463 43.6772 38.6843 43.7156 39.2352C43.7539 39.7861 43.6832 40.3391 43.5076 40.8627Z" fill="#3074D3"/>
    <path d="M42.2352 39.8936C42.0054 40.5794 41.5812 41.1838 41.0141 41.6332C40.4471 42.0827 39.7615 42.3578 39.0409 42.4253C38.3203 42.4927 37.5956 42.3495 36.9549 42.0131C36.3142 41.6766 35.7851 41.1615 35.4318 40.5302C35.261 39.8286 35.2738 39.0949 35.4689 38.3996C35.6639 37.7044 36.0348 37.071 36.5457 36.5605C37.0566 36.0499 37.6904 35.6793 38.3861 35.4844C39.0818 35.2894 39.8161 35.2767 40.5181 35.4474C41.2774 35.873 41.8643 36.5499 42.1777 37.3615C42.4912 38.1731 42.5115 39.0686 42.2352 39.8936Z" fill="#6F9EE0"/>
    <path d="M46.7172 26.9705C44.1275 25.4872 41.1423 24.8399 38.1703 25.1175C35.1983 25.395 32.3848 26.5837 30.1149 28.5208C27.8451 30.458 26.2298 33.0489 25.4904 35.9388C24.7509 38.8287 24.9233 41.8764 25.9841 44.6646C27.0448 47.4528 28.942 49.8452 31.4159 51.5143C33.8898 53.1834 36.8195 54.0476 39.8039 53.9886C42.7882 53.9296 45.6814 52.9502 48.0873 51.1846C50.4931 49.419 52.2941 46.9534 53.2436 44.1254C54.3183 40.9535 54.2548 37.5067 53.0639 34.3765C51.8731 31.2463 49.6291 28.6278 46.7172 26.9705ZM28.5692 35.8573C29.2953 33.6923 30.6477 31.791 32.4551 30.3941C34.2626 28.9972 36.4441 28.1673 38.7236 28.0094C41.0031 27.8515 43.2783 28.3727 45.2614 29.507C47.2445 30.6414 48.8464 32.338 49.8645 34.3822C50.8826 36.4265 51.2712 38.7265 50.9811 40.9915C50.691 43.2564 49.7353 45.3845 48.2348 47.1066C46.7344 48.8287 44.7565 50.0675 42.5515 50.6662C40.3464 51.265 38.0133 51.1968 35.847 50.4703C32.9431 49.4964 30.5452 47.4099 29.1804 44.6696C27.8156 41.9293 27.5958 38.7596 28.5692 35.8573Z" fill="#3074D3"/>
    <path d="M53.2371 44.1315C52.4909 46.3509 51.2171 48.3562 49.5248 49.9755C47.8326 51.5947 45.7725 52.7796 43.5213 53.4283C41.2701 54.077 38.895 54.1702 36.5998 53.7C34.3047 53.2297 32.1579 52.2101 30.3438 50.7285C34.5631 52.4478 43.7442 54.9617 49.5719 47.5264C56.2014 39.0688 51.2755 30.3782 46.7108 26.9766C49.6157 28.641 51.8536 31.26 53.0435 34.3878C54.2335 37.5157 54.3019 40.9589 53.2371 44.1315Z" fill="#255BB9"/>
    </g>
    <defs>
    <clipPath id="clip0_2882_93279">
    <rect width="54" height="54" fill="white"/>
    </clipPath>
    </defs>
    </svg>
    