<svg width="44" height="54" viewBox="0 0 44 54" fill="none" xmlns="http://www.w3.org/2000/svg">
    <path d="M17.6418 53.8718L38.1009 49.3014C38.5481 49.2045 38.9706 49.0163 39.3418 48.7488C39.7131 48.4813 40.0252 48.14 40.2586 47.7464C40.4921 47.3528 40.6419 46.9153 40.6986 46.4613C40.7554 46.0072 40.7179 45.5463 40.5885 45.1073L29.8023 7.47486C29.5618 6.61197 29.0581 5.84559 28.3615 5.28246C27.6648 4.71933 26.8099 4.3875 25.9158 4.33319L5.26462 3.01736C1.90236 2.80194 -0.735808 6.27062 0.185539 9.64586L11.1574 49.7958C11.9489 52.6909 14.8129 54.5051 17.6418 53.8718Z" fill="#424242"/>
    <path d="M0.164062 6.95902C0.164062 6.95902 1.38906 1.16622 5.87382 0.17739C11.7808 -1.12937 28.391 32.8333 28.391 32.8333L42.9522 44.1646C42.9522 44.1646 42.2735 48.3846 38.2806 49.2514L9.47226 27.8074L0.164062 6.95902Z" fill="#424242"/>
    <path d="M2.27614 6.69587L6.21587 21.0403L7.12424 24.3364L13.3401 46.9704C14.1382 49.8759 17.0281 51.6822 19.8816 51.0321L40.525 46.3268C40.9749 46.2276 41.3997 46.037 41.7729 45.7669C42.1462 45.4967 42.46 45.1528 42.6948 44.7564C42.9296 44.36 43.0805 43.9195 43.1381 43.4624C43.1956 43.0053 43.1587 42.5412 43.0295 42.0989L42.3924 39.9098L38.598 26.7384L32.1459 4.34579C31.9021 3.47896 31.3928 2.71028 30.6897 2.14773C29.9866 1.58518 29.1249 1.25701 28.2257 1.20931L7.39935 0.00637145C6.74415 -0.0273604 6.08897 0.0731044 5.47399 0.301604C4.859 0.530103 4.29718 0.88182 3.82296 1.33519C3.10291 2.00422 2.57852 2.85661 2.30602 3.80098C2.03352 4.74535 2.02319 5.74608 2.27614 6.69587Z" fill="#919191"/>
    <path opacity="0.21" d="M2.27666 6.69662L7.12086 24.3385L42.3929 39.9105L38.5985 26.7392L3.82088 1.33594C3.10128 2.00525 2.57738 2.85777 2.30535 3.80212C2.03331 4.74648 2.02339 5.74706 2.27666 6.69662Z" fill="white"/>
    <path d="M6.5627 9.04565L6.673 9.44663L7.38023 12.003L9.97558 21.3995V21.419L9.99764 21.5007L10.64 23.8261L11.2888 26.1827L11.342 26.3709L11.3758 26.4877L14.3202 37.1467L15.043 39.7654L15.8112 42.5476C16.5989 45.4025 19.4161 47.1829 22.2528 46.6016L25.6917 45.8943L28.6672 45.2818L34.011 44.1944L37.9183 43.3898L37.9715 43.3794C38.2983 43.3063 38.6066 43.1669 38.8774 42.97C39.1482 42.773 39.3757 42.5227 39.5459 42.2343C39.7162 41.946 39.8255 41.6258 39.8672 41.2936C39.9089 40.9614 39.882 40.6241 39.7883 40.3027L39.29 38.5391L35.1906 24.2518L34.9648 23.4641L34.0214 20.1875L32.6615 15.451L32.6381 15.364L32.3578 14.3856L32.1113 13.5252L31.8997 12.7907L31.8842 12.7427L30.1855 6.82145C29.987 6.10943 29.5667 5.47921 28.9857 5.02231C28.4046 4.56541 27.6931 4.3056 26.9543 4.2806L21.521 4.06649L19.9547 4.0068L10.6543 3.64345C9.73383 3.60839 8.83079 3.90082 8.10563 4.46877C7.42605 4.99471 6.91704 5.70974 6.64252 6.52405C6.36801 7.33835 6.34024 8.21562 6.5627 9.04565Z" fill="#AAAAAA"/>
    <path opacity="0.4" d="M6.56237 9.04434L6.67267 9.44532L7.3799 12.0017L9.97524 21.3982V21.4189L9.9973 21.4994L10.6397 23.8261L11.2885 26.1814L39.2896 38.5378L35.189 24.2492L8.1066 4.46875C7.42689 4.99433 6.91768 5.70906 6.64293 6.52315C6.36818 7.33724 6.34015 8.21437 6.56237 9.04434Z" fill="white"/>
    <path d="M12.839 24.483C13.8707 31.1673 20.0087 36.0141 25.9702 35.2744C31.388 34.6048 34.5971 29.4842 33.5823 23.8549C32.5792 18.3087 27.7078 13.6318 22.2666 13.3139C16.2986 12.9687 11.8256 17.909 12.839 24.483ZM22.7429 15.699C26.9901 15.8703 30.8546 19.4804 31.6423 23.8186C32.4391 28.2047 29.8736 32.1237 25.6406 32.548C21.0792 33.0087 16.453 29.2947 15.6485 24.2779C14.8504 19.3247 18.1738 15.5187 22.7429 15.699Z" fill="#3074D3"/>
    <path d="M21.3421 25.8444L27.2284 25.5848C27.9966 25.5524 28.4949 24.8465 28.3496 24.0108C28.2042 23.1764 27.4698 22.5106 26.7015 22.5236L20.8127 22.6248C19.9536 22.6391 19.3671 23.3775 19.515 24.2755C19.6591 25.1813 20.4831 25.882 21.3421 25.8444Z" fill="#3074D3"/>
    <path d="M13.3395 24.121C14.3776 30.8118 20.5221 35.6586 26.4953 34.9151C31.9247 34.2403 35.1403 29.1132 34.123 23.4826C33.1186 17.9311 28.238 13.2543 22.7865 12.939C16.8055 12.5925 12.3234 17.5418 13.3395 24.121ZM23.2628 15.3215C27.5178 15.4889 31.3901 19.1004 32.1791 23.4424C32.9771 27.8324 30.4064 31.7552 26.1644 32.1861C21.5953 32.6493 16.96 28.9354 16.1528 23.9134C15.3547 18.9563 18.6846 15.1425 23.2628 15.3215Z" fill="#98B9EA"/>
    <path d="M21.8562 25.4785L27.7528 25.2189C28.5236 25.1852 29.0232 24.478 28.8766 23.641C28.7312 22.8079 27.9994 22.1435 27.2207 22.1564L21.3215 22.2615C20.4612 22.2771 19.872 23.0168 20.0239 23.9148C20.1692 24.8154 20.9919 25.5161 21.8562 25.4785Z" fill="#98B9EA"/>
    </svg>
    