<svg width="54" height="54" viewBox="0 0 54 54" fill="none" xmlns="http://www.w3.org/2000/svg">
    <g clip-path="url(#clip0_166_163615)">
    <path d="M48.3848 25.8462C48.7867 29.397 43.6498 32.7524 41.4996 31.8333C40.3528 31.343 40.2995 29.7275 39.2237 29.6482C38.0345 29.5554 37.5342 31.4851 36.2602 31.4236C35.3567 31.3786 34.2509 30.3311 34.3466 29.0911C34.38 28.7527 34.4913 28.4266 34.6717 28.1382C34.8522 27.8499 35.0969 27.6072 35.3868 27.429C35.5202 27.3433 35.6448 27.2445 35.7586 27.134C36.0386 26.8666 36.2431 26.53 36.3514 26.1584C36.4596 25.7867 36.4678 25.3931 36.3751 25.0173C36.3176 24.785 36.2164 24.5658 36.0771 24.3713C35.6301 23.7622 35.0533 23.8059 34.4368 23.1955C33.5469 22.3173 33.4321 20.9284 33.5141 20.2347C33.8627 17.2602 39.2552 14.9782 41.1866 16.389C42.8392 17.5935 41.6883 21.2794 43.4803 22.0374C44.0776 22.2873 44.3155 21.9267 45.1766 22.122C45.6442 22.2321 46.0834 22.4392 46.4656 22.7298C47.5195 23.5014 48.2672 24.8015 48.3848 25.8462Z" fill="#98B9EA"/>
    <path d="M30.7708 27.6784C31.6429 28.095 33.193 27.2564 33.3091 26.0314C33.4062 25.0236 32.5136 23.9215 31.5486 23.9829C30.5835 24.0444 29.9944 25.2189 30.008 26.127C30.0094 26.1967 30.0395 27.3275 30.7708 27.6784Z" fill="#EEEEEE"/>
    <path d="M52.7518 23.7935C52.5315 24.051 52.3995 24.3722 52.3749 24.71C52.3503 25.0478 52.4345 25.3847 52.6151 25.6713C52.8725 26.0681 52.993 26.5381 52.9582 27.0097C52.7682 28.8615 49.8143 29.7806 49.0994 29.1292C48.2683 28.3658 50.8764 25.7792 49.8047 23.5463C49.355 22.6136 48.5335 22.3172 47.7885 21.9253C47.2158 21.6235 46.669 21.267 46.3956 20.5255C45.894 19.1803 46.5241 17.3312 47.7625 16.5322C49.3112 15.5312 51.6965 16.2441 53.0169 17.8351C53.2614 18.1285 53.4664 18.4526 53.6266 18.7992C54.3511 20.3957 54.0011 22.3705 52.7518 23.7935Z" fill="#98B9EA"/>
    <path d="M43.9522 17.9049C44.7286 18.3801 46.5781 17.5553 46.846 16.4231C47.185 14.9892 44.8995 13.4269 43.3467 12.8423C42.6632 12.5842 41.1378 12.012 40.4147 12.7659C39.8966 13.3053 39.8857 14.4224 40.3955 15.0097C41.079 15.8004 42.2477 15.1053 43.0842 15.9301C43.8019 16.6321 43.3522 17.5362 43.9522 17.9049Z" fill="#98B9EA"/>
    <path d="M5.34069 8.01239C6.39595 8.14076 7.39107 7.5426 8.08683 6.51015C8.8236 5.41762 8.08683 4.76346 8.54885 3.35955C9.07648 1.77401 10.8917 0.00136567 12.815 0C15.1497 0 17.0948 2.6057 16.2911 5.01884C15.7443 6.6754 13.3207 6.38451 12.6469 8.07658C11.9347 9.86697 14.201 10.9677 13.6324 13.3221C13.3043 14.6878 12.0946 16.1805 10.5801 16.4823C9.06554 16.7841 8.98489 14.6591 6.51488 13.6212C4.40709 12.7403 3.1878 13.6458 1.77031 12.627C0.883183 11.9892 -0.437257 10.5594 0.142315 9.1377C0.746492 7.65459 3.09349 6.9458 4.22393 7.48251C4.54105 7.6382 4.87458 7.9564 5.34069 8.01239Z" fill="#98B9EA"/>
    <path d="M29.2609 47.4405C26.9809 48.5672 24.0024 41.9996 19.5558 42.5896C19.3759 42.6138 19.1979 42.6499 19.0227 42.6975C16.1317 43.4855 15.8679 47.2397 11.5252 48.9236C8.40452 50.1336 3.62305 50.1008 1.70117 47.1783C-0.220718 44.2557 1.78181 40.0631 1.89117 39.8433C2.18232 39.2533 3.47542 36.6408 6.0835 35.85C9.48302 34.8176 11.4691 37.9859 14.6185 36.6462C15.9034 36.0999 17.2252 34.8708 17.1309 33.7565C17.0093 32.3444 14.7115 32.1654 14.5638 30.965C14.3069 28.8619 20.8093 25.3453 22.4345 26.95C23.5786 28.0766 21.3601 30.7984 21.8782 33.7865C21.9274 34.0741 22.0015 34.357 22.0996 34.6319C23.2301 37.7961 27.6316 36.3676 29.6997 39.6452C31.3865 42.3165 30.8834 46.6375 29.2609 47.4405Z" fill="#98B9EA"/>
    <path d="M9.56372 32.6044C7.71429 33.4743 5.93183 32.6044 5.62017 32.4487C4.33254 31.8178 2.58835 30.2636 2.77562 28.618C3.02303 26.4479 6.56198 24.6425 9.06343 25.8061C10.7734 26.6036 12.1281 28.8597 11.5403 30.6365C11.1302 31.8683 9.92869 32.4309 9.56372 32.6044Z" fill="#98B9EA"/>
    <path d="M17.4198 50.0213C16.858 48.3825 18.363 45.7973 20.2822 45.2265C23.5628 44.2527 27.1509 49.4245 26.3827 51.1576C25.5325 53.0873 18.3904 52.8373 17.4198 50.0213Z" fill="#98B9EA"/>
    <path d="M25.003 13.9216C25.003 13.9216 16.5541 6.88289 9.96696 7.08228C5.26751 7.21885 4.96815 10.3503 5.25794 12.3128C5.33859 12.8591 6.13003 13.0284 6.39658 12.5573C6.60845 12.1831 7.19212 12.194 7.4409 12.5764L8.34443 13.968C8.8748 14.7874 10.1324 14.7259 10.4632 13.8738L10.5998 13.531C10.906 12.7389 12.0283 12.6269 12.601 13.3275L13.4212 14.3326C13.9857 15.0223 15.0779 14.9103 15.3786 14.136C15.9732 12.6092 16.6402 11.9277 18.4514 14.304L25.003 13.9216Z" fill="#255BB9"/>
    <path d="M43.8675 48.3235C43.6528 48.9831 42.8764 49.1743 42.4664 48.6635C42.4138 48.5958 42.35 48.5376 42.2777 48.4914L42.2682 48.4846C42.181 48.4297 42.0831 48.3939 41.9811 48.3795C41.9109 48.3685 41.8394 48.3685 41.7692 48.3795C41.7501 48.3795 41.7323 48.3795 41.7146 48.3877C41.5992 48.4129 41.4902 48.4613 41.3941 48.5298C41.298 48.5984 41.2169 48.6857 41.1555 48.7864L39.5152 51.3812C39.1215 52.004 38.2645 51.9357 38.0239 51.2597L37.5701 49.9882C37.3486 49.3627 36.5777 49.2344 36.1362 49.7506L33.2725 53.0883C32.8214 53.6141 32.0313 53.5048 31.7921 52.8793L31.1237 51.1245C30.8886 50.5058 30.1081 50.3774 29.642 50.8841L27.0558 53.6755C26.4912 54.2873 25.5316 53.9924 25.466 53.1825L25.3949 52.3126C25.3854 52.1662 25.3395 52.0245 25.2616 51.9001C25.1837 51.7758 25.0761 51.6727 24.9484 51.6001C24.8208 51.5276 24.6772 51.4878 24.5303 51.4844C24.3835 51.481 24.2382 51.514 24.1073 51.5806C24.0376 51.6125 23.9716 51.6519 23.9105 51.698L22.3932 52.8643C21.6769 53.4106 20.7174 52.8493 20.8896 51.9725C21.219 50.3242 21.5211 47.795 21.5156 44.0667L21.5813 42.7829C21.6359 35.6637 21.2546 30.0262 20.6025 25.5331C18.0054 7.67836 10.7977 7.08976 9.82031 7.08976L13.2376 6.98597L29.914 6.48067L31.732 6.42604C44.3746 6.04229 45.1469 32.2755 45.1797 37.8365C45.1797 38.4811 45.1797 38.843 45.1797 38.843C45.2644 43.2172 44.4443 46.5481 43.8675 48.3235Z" fill="#EEEEEE"/>
    <path d="M22.3936 52.8614L23.9122 51.6952C24.5137 51.2322 25.3366 51.575 25.3953 52.3097L25.4664 53.1796C25.532 53.9895 26.4916 54.2845 27.0575 53.6726L29.6423 50.8812C30.1098 50.3759 30.8903 50.5029 31.1254 51.1216L31.7939 52.8765C32.0303 53.5019 32.8218 53.6126 33.2715 53.0854L36.1352 49.745C36.5781 49.2274 37.3476 49.3571 37.5691 49.9799L38.0229 51.2527C38.2635 51.9287 39.1164 51.997 39.5156 51.3756L41.1559 48.7808C41.217 48.6801 41.2979 48.5928 41.3938 48.5243C41.4896 48.4557 41.5984 48.4073 41.7136 48.382C41.8523 48.3527 41.9965 48.3627 42.1299 48.411C42.2632 48.4593 42.3804 48.5438 42.4681 48.6552C42.8782 49.1659 43.6546 48.9747 43.8692 48.3151C44.4447 46.5397 45.2676 43.2089 45.1801 38.8374C45.1801 38.8374 45.1801 38.4755 45.1801 37.8309C44.8684 38.6626 43.507 40.0706 38.0229 41.0074C31.1788 42.1751 24.5519 36.6455 20.6016 25.5234C21.2549 30.0165 21.6363 35.654 21.5803 42.7719L21.516 44.057C21.516 47.7839 21.2194 50.3131 20.89 51.9628C20.7178 52.8464 21.676 53.4118 22.3936 52.8614Z" fill="#DADADA"/>
    <path d="M9.82031 7.08953C10.7977 7.08953 18.0054 7.67814 20.6025 25.5329C21.2546 30.026 21.6359 35.6635 21.5813 42.7827L21.5156 44.0664C21.5156 47.7947 21.219 50.3239 20.8896 51.9723C20.7146 52.8491 21.6742 53.4131 22.3932 52.8641L23.9105 51.6978C23.9323 51.6805 23.9551 51.6646 23.9788 51.65C24.0198 51.6232 24.0628 51.5994 24.1073 51.579C24.3998 49.9224 24.6472 47.5243 24.6418 44.147L24.7074 42.8565C24.7347 39.4245 24.6595 36.334 24.5024 33.5467C24.3315 30.5217 24.0608 27.8573 23.7177 25.5056C21.3366 9.22681 15.1062 7.2179 13.2444 6.98438L9.82031 7.08953Z" fill="#3074D3"/>
    <path d="M20.8937 51.9706C20.7187 52.8474 21.6783 53.4114 22.3973 52.8624L23.9146 51.6961C23.9361 51.6785 23.959 51.6626 23.9829 51.6483C24.0239 51.6215 24.0669 51.5978 24.1114 51.5773C24.4039 49.9208 24.6513 47.5226 24.6459 44.1453L24.7115 42.8548C24.7388 39.4229 24.6636 36.3323 24.5065 33.545C23.0357 31.3326 21.7166 28.6545 20.6094 25.5312C21.2614 30.0243 21.6428 35.6618 21.5881 42.781L21.5225 44.0648C21.5197 47.7931 21.2231 50.3223 20.8937 51.9706Z" fill="#255BB9"/>
    <path d="M43.8687 48.3197C43.6541 48.9794 42.8777 49.1706 42.4676 48.6598C42.4188 48.5887 42.3542 48.5299 42.279 48.4877L42.2694 48.4809C42.1822 48.426 42.0844 48.3902 41.9823 48.3757C42.119 48.0125 42.2831 47.6369 42.3828 47.2641C43.0495 44.7416 43.3931 42.1447 43.4053 39.5358V39.4579C43.4053 39.1998 43.4053 38.8229 43.4053 38.5825C43.4053 38.5825 43.4053 38.1359 43.4053 37.49C43.3739 31.9426 42.3323 6.12325 29.7812 6.5029L29.9179 6.47286L31.7359 6.41823C44.3785 6.03448 45.1508 32.2677 45.1837 37.8287C45.1837 38.4733 45.1837 38.8352 45.1837 38.8352C45.2657 43.2135 44.4455 46.5444 43.8687 48.3197Z" fill="#3074D3"/>
    <path d="M43.8735 48.3202C43.6588 48.9798 42.8824 49.171 42.4724 48.6602C42.4196 48.5913 42.3548 48.5325 42.281 48.4868L42.2714 48.48C42.1844 48.4247 42.0865 48.3888 41.9844 48.3748C42.1211 48.0116 42.2851 47.636 42.3849 47.2632C43.0515 44.7406 43.3951 42.1438 43.4073 39.5348V39.457C44.5774 38.8575 45.0244 38.2689 45.1843 37.8359C45.1843 38.4805 45.1843 38.8424 45.1843 38.8424C45.2704 43.2139 44.4503 46.5448 43.8735 48.3202Z" fill="#255BB9"/>
    <path d="M22.9535 8.56781C22.758 8.37252 22.8168 8.02155 23.0519 8.02155L32.7707 7.78938C33.2532 7.77846 33.759 8.04886 34.1376 8.32063C34.3563 8.47632 34.329 8.8669 34.1007 8.87646L24.2726 9.17281C24.026 9.16905 23.7828 9.11503 23.5579 9.01406C23.3329 8.91308 23.131 8.76727 22.9645 8.58557L22.9535 8.56781Z" fill="#6C6C6C"/>
    <path d="M18.6762 8.92788C18.9414 9.34851 19.7082 9.66807 20.393 9.64212C21.0779 9.61618 21.4182 9.25154 21.1503 8.82272C20.8824 8.3939 20.1128 8.08253 19.4294 8.11121C18.7459 8.13989 18.4124 8.50725 18.6762 8.92788Z" fill="#6C6C6C"/>
    <path d="M26.0371 11.8409L36.1358 11.3916C36.591 11.3711 37.0653 11.6811 37.3538 12.211L37.3852 12.2697C37.5574 12.5947 37.4385 12.9867 37.1638 13.0017L27.0076 13.548C26.521 13.5739 26.0261 13.2161 25.7568 12.6535L25.7459 12.6302C25.571 12.2601 25.7213 11.8504 26.0371 11.8409Z" fill="#6C6C6C"/>
    <path d="M21.2476 13.0316C21.4143 13.6038 22.1073 14.0504 22.7976 14.0299C23.4879 14.0094 23.9144 13.526 23.7449 12.951C23.5754 12.3761 22.8796 11.9295 22.1894 11.9541C21.4991 11.9787 21.0808 12.4594 21.2476 13.0316Z" fill="#6C6C6C"/>
    <path d="M28.2973 16.9557L38.2635 16.236C38.5615 16.2141 38.8677 16.4163 39.0413 16.7536C39.0509 16.7727 39.0604 16.7904 39.0686 16.8096C39.3707 17.42 39.1151 18.137 38.5834 18.1752L28.6309 19.011C28.2071 19.0465 27.7888 18.6956 27.6549 18.1916L27.648 18.1657C27.4785 17.5621 27.7902 16.9926 28.2973 16.9557Z" fill="#6C6C6C"/>
    <path d="M23.1895 18.2637C23.2756 19.023 23.9071 19.6293 24.6015 19.613C25.2959 19.5966 25.7921 18.9697 25.706 18.2077C25.6199 17.4456 24.9843 16.842 24.2885 16.8598C23.5928 16.8775 23.1034 17.5016 23.1895 18.2637Z" fill="#6C6C6C"/>
    <path d="M40.6278 23.0593C40.6278 23.0266 40.6141 22.9924 40.6059 22.9583C40.4979 22.4516 40.1234 22.0883 39.7447 22.128L29.5926 23.2068C29.147 23.2546 28.8559 23.7531 28.9461 24.3308C29.0363 24.9016 29.4683 25.3223 29.9125 25.2745L40.0714 24.171C40.487 24.1328 40.7426 23.6165 40.6278 23.0593Z" fill="#6C6C6C"/>
    <path d="M24.4782 24.6111C24.5138 25.4087 25.107 26.0519 25.8041 26.0465C26.5013 26.041 27.0426 25.3868 27.007 24.5852C26.9715 23.7836 26.3728 23.1403 25.6743 23.1485C24.9758 23.1567 24.4427 23.8122 24.4782 24.6111Z" fill="#6C6C6C"/>
    <path d="M30.7653 29.809L40.7862 28.3805C41.1963 28.3231 41.5927 28.7233 41.687 29.2764V29.305C41.7799 29.865 41.523 30.3744 41.1115 30.4372L31.1057 31.9845C30.6327 32.0582 30.1762 31.6062 30.0983 30.9903V30.9602C30.0204 30.3812 30.3197 29.8677 30.7653 29.809Z" fill="#6C6C6C"/>
    <path d="M25.3767 31.7146C25.4122 32.5149 26.0082 33.1663 26.708 33.1704C27.4079 33.1745 27.9506 32.5258 27.9137 31.7214C27.8768 30.9171 27.2781 30.2656 26.5768 30.2656C25.8756 30.2656 25.3411 30.9143 25.3767 31.7146Z" fill="#6C6C6C"/>
    <path d="M41.7137 42.6722C41.7137 42.7569 41.7629 42.817 41.8231 42.8088C41.8573 42.7953 41.8861 42.7711 41.9054 42.7399C41.9246 42.7086 41.9331 42.6719 41.9297 42.6353L41.9037 40.3738L41.8572 36.3014C41.8572 36.2181 41.808 36.1566 41.7479 36.1648C41.714 36.1775 41.6853 36.2009 41.666 36.2315C41.6468 36.2621 41.6381 36.2981 41.6413 36.3341L41.6877 40.4926L41.7137 42.6722Z" fill="#6C6C6C"/>
    <path d="M40.1261 36.5774L40.1672 40.5843V41.1647L40.1849 42.9537C40.1849 43.0398 40.2355 43.0998 40.297 43.0903L41.9018 42.8062C41.9362 42.793 41.9654 42.7689 41.9849 42.7376C42.0044 42.7063 42.0131 42.6695 42.0098 42.6328L42.0029 40.5993L41.9961 40.053L41.94 36.2701C41.94 36.1855 41.8895 36.1254 41.8307 36.1336L40.2287 36.4067C40.1951 36.4198 40.1667 36.4436 40.1482 36.4745C40.1296 36.5054 40.1219 36.5416 40.1261 36.5774Z" fill="#6F9EE0"/>
    <path d="M38.8051 36.7835L38.842 40.8655V41.5784L38.857 43.1953C38.857 43.28 38.909 43.3401 38.9677 43.3319L39.4858 43.2363C39.5205 43.2226 39.5497 43.198 39.5692 43.1662C39.5887 43.1344 39.5973 43.0972 39.5938 43.0601L39.576 41.3626V40.7166L39.5364 36.6688C39.5364 36.5841 39.4872 36.5227 39.4257 36.5322L38.9131 36.6142C38.8793 36.6272 38.8507 36.6507 38.8312 36.6811C38.8118 36.7116 38.8026 36.7475 38.8051 36.7835Z" fill="#6F9EE0"/>
    <path d="M35.5239 37.2796L35.5512 41.1472L35.558 42.2615L35.569 43.8307C35.569 43.9017 35.6127 43.9522 35.6633 43.9427L37.808 43.5466C37.8372 43.5363 37.8621 43.5164 37.8785 43.4901C37.8949 43.4637 37.9018 43.4327 37.8982 43.4019L37.8832 41.8259V41.0379L37.849 36.9108C37.849 36.8412 37.8052 36.7907 37.756 36.7975L35.6223 37.1375C35.592 37.1463 35.5657 37.1652 35.5477 37.191C35.5298 37.2169 35.5214 37.2482 35.5239 37.2796Z" fill="#6F9EE0"/>
    <path d="M32.7279 37.7056L32.7443 40.5735L32.7689 44.4111C32.7689 44.4821 32.8099 44.5326 32.8632 44.523L34.93 44.0765C34.9592 44.0649 34.9839 44.0444 35.0006 44.0179C35.0173 43.9914 35.0252 43.9602 35.023 43.929L35.012 42.3038L35.0038 41.0925L34.9792 37.3656C34.9792 37.2946 34.9382 37.2427 34.8849 37.2509L32.8168 37.5581C32.7872 37.5688 32.7623 37.5893 32.7461 37.6161C32.73 37.643 32.7235 37.6746 32.7279 37.7056Z" fill="#6F9EE0"/>
    <path d="M26.4928 38.7396L26.4996 45.4942C26.4996 45.5666 26.5447 45.6184 26.598 45.6089L27.5672 45.4423C27.5975 45.4309 27.6234 45.4099 27.6409 45.3826C27.6584 45.3553 27.6666 45.323 27.6642 45.2907V39.8184V38.5388C27.6642 38.4664 27.6218 38.4145 27.5685 38.4227L26.6007 38.5934C26.5679 38.6003 26.5388 38.619 26.5189 38.646C26.499 38.6729 26.4897 38.7062 26.4928 38.7396Z" fill="#6C6C6C"/>
    <path d="M30.768 37.9661L30.7762 39.691L30.7994 44.7439C30.7994 44.8163 30.8418 44.8655 30.8937 44.8573L32.3317 44.5487C32.362 44.5387 32.3878 44.5186 32.4048 44.4917C32.4218 44.4647 32.4288 44.4327 32.4247 44.4012L32.4151 42.0795L32.4083 40.4407L32.3959 37.764C32.3959 37.693 32.3536 37.6411 32.3003 37.6493L30.8623 37.8104C30.8301 37.8203 30.8028 37.8416 30.7854 37.8703C30.768 37.899 30.7618 37.9331 30.768 37.9661Z" fill="#6F9EE0"/>
    <path d="M29.5396 38.2319V38.9147L29.5465 41.0261L29.556 44.9387C29.556 45.0111 29.5984 45.063 29.6531 45.0521H29.6777L30.014 44.9892H30.0413C30.0718 44.9783 30.098 44.9577 30.1157 44.9306C30.1335 44.9035 30.1419 44.8713 30.1397 44.839L30.1329 41.3142V39.3026V38.139C30.1329 38.0666 30.0891 38.0161 30.0358 38.0243L29.6476 38.0858C29.6148 38.0927 29.5857 38.1113 29.5658 38.1383C29.5459 38.1652 29.5366 38.1985 29.5396 38.2319Z" fill="#6F9EE0"/>
    <path d="M27.7815 38.5149V39.9065L27.7883 45.2654C27.7883 45.3378 27.8334 45.3897 27.8881 45.3788L28.48 45.2695C28.5105 45.2587 28.5366 45.2382 28.5542 45.211C28.5718 45.1838 28.5798 45.1515 28.577 45.1193L28.5688 40.4514V38.3906C28.5688 38.3183 28.5237 38.265 28.4718 38.2745L27.8813 38.3688C27.8508 38.3787 27.8245 38.3984 27.8065 38.4248C27.7884 38.4513 27.7796 38.483 27.7815 38.5149Z" fill="#6C6C6C"/>
    <path d="M41.6854 40.152C41.2371 40.2982 40.7286 40.4402 40.1641 40.5781V41.1585L40.1818 42.9476C40.1818 43.0336 40.2324 43.0937 40.2939 43.0841L41.8987 42.8001C41.9331 42.7868 41.9623 42.7627 41.9818 42.7314C42.0013 42.7001 42.01 42.6633 42.0067 42.6266L41.9998 40.5931L41.993 40.0469L41.8973 40.081L41.6854 40.152Z" fill="#3074D3"/>
    <path d="M39.5791 40.7109C39.344 40.7628 39.0989 40.8134 38.8438 40.8625V41.5754L38.8588 43.1924C38.8588 43.277 38.9107 43.3371 38.9695 43.3289L39.4876 43.2333C39.5222 43.2196 39.5515 43.195 39.571 43.1632C39.5904 43.1315 39.5991 43.0942 39.5956 43.0572L39.5778 41.3596L39.5791 40.7109Z" fill="#3074D3"/>
    <path d="M35.5547 41.1483L35.5615 42.2627L35.5725 43.8319C35.5725 43.9029 35.6162 43.9534 35.6668 43.9438L37.8115 43.5478C37.8407 43.5375 37.8656 43.5175 37.882 43.4912C37.8984 43.4649 37.9053 43.4338 37.9017 43.403L37.8866 41.8271V41.0391C37.1159 41.1628 36.3336 41.1994 35.5547 41.1483Z" fill="#3074D3"/>
    <path d="M35.0044 41.0971C34.2337 41.007 33.4751 40.833 32.7422 40.5781L32.7668 44.4157C32.7668 44.4867 32.8078 44.5372 32.8611 44.5276L34.9306 44.077C34.9598 44.0654 34.9845 44.0449 35.0012 44.0184C35.0179 43.9919 35.0258 43.9607 35.0236 43.9295L35.0126 42.3043L35.0044 41.0971Z" fill="#3074D3"/>
    <path d="M30.8045 39.7076L30.7812 39.6953L30.8045 44.7483C30.8045 44.8207 30.8469 44.8698 30.8988 44.8616L32.3368 44.553C32.3671 44.5431 32.3929 44.5229 32.4099 44.496C32.4269 44.4691 32.4339 44.4371 32.4297 44.4055L32.4202 42.0839L32.4133 40.4451C32.0935 40.3249 31.7764 40.1897 31.4565 40.0354C31.3636 39.993 31.2733 39.948 31.1831 39.8988L31.0464 39.8278C30.9699 39.8005 30.8865 39.7568 30.8045 39.7076Z" fill="#3074D3"/>
    <path d="M30.1319 39.3046C29.9351 39.1804 29.7396 39.052 29.5469 38.9141L29.5537 41.0254L29.5633 44.938C29.5633 45.0104 29.6057 45.0623 29.6603 45.0514H29.6849L30.0212 44.9886H30.0485C30.0791 44.9776 30.1052 44.9571 30.123 44.9299C30.1407 44.9028 30.1491 44.8707 30.1469 44.8383L30.1319 41.3163V39.3046Z" fill="#3074D3"/>
    <path d="M27.7815 38.5149V39.9065L27.7883 45.2654C27.7883 45.3378 27.8334 45.3897 27.8881 45.3788L28.48 45.2695C28.5105 45.2587 28.5366 45.2382 28.5542 45.211C28.5718 45.1838 28.5798 45.1515 28.577 45.1193L28.5688 40.4514V38.3906C28.5688 38.3183 28.5237 38.265 28.4718 38.2745L27.8813 38.3688C27.8508 38.3787 27.8245 38.3984 27.8065 38.4248C27.7884 38.4513 27.7796 38.483 27.7815 38.5149Z" fill="#3074D3"/>
    <path d="M26.4928 38.7396L26.4996 45.4942C26.4996 45.5666 26.5447 45.6184 26.598 45.6089L27.5672 45.4423C27.5975 45.4309 27.6234 45.4099 27.6409 45.3826C27.6584 45.3553 27.6666 45.323 27.6642 45.2907V39.8184V38.5388C27.6642 38.4664 27.6218 38.4145 27.5685 38.4227L26.6007 38.5934C26.5679 38.6003 26.5388 38.619 26.5189 38.646C26.499 38.6729 26.4897 38.7062 26.4928 38.7396Z" fill="#424242"/>
    <path d="M29.2616 47.439C26.9816 48.5657 24.0031 41.9982 19.5565 42.5882C19.3767 42.6124 19.1986 42.6484 19.0234 42.696L21.3308 34.207C21.38 34.4942 21.4541 34.7766 21.5522 35.051C22.6827 38.2166 27.6309 36.3607 29.699 39.6383C31.3872 42.315 30.8842 46.636 29.2616 47.439Z" fill="#98B9EA"/>
    </g>
    <defs>
    <clipPath id="clip0_166_163615">
    <rect width="54" height="54" fill="white"/>
    </clipPath>
    </defs>
    </svg>
    