<svg width="16" height="16" viewBox="0 0 16 16" fill="none" xmlns="http://www.w3.org/2000/svg">
    <path d="M14.857 6.286H9.714V1.143C9.714 0.839859 9.59358 0.549132 9.37922 0.334778C9.16487 0.120424 8.87414 0 8.571 0H7.429C7.12586 0 6.83513 0.120424 6.62078 0.334778C6.40642 0.549132 6.286 0.839859 6.286 1.143V6.286H1.143C0.839858 6.286 0.549131 6.40642 0.334777 6.62078C0.120423 6.83513 0 7.12586 0 7.429L0 8.572C0 8.87514 0.120423 9.16587 0.334777 9.38022C0.549131 9.59458 0.839858 9.715 1.143 9.715H6.286V14.858C6.28626 15.161 6.40681 15.4514 6.62113 15.6656C6.83546 15.8797 7.12603 16 7.429 16H8.571C8.87414 16 9.16487 15.8796 9.37922 15.6652C9.59358 15.4509 9.714 15.1601 9.714 14.857V9.714H14.857C15.1601 9.714 15.4509 9.59358 15.6652 9.37922C15.8796 9.16487 16 8.87414 16 8.571V7.429C16 7.12586 15.8796 6.83513 15.6652 6.62078C15.4509 6.40642 15.1601 6.286 14.857 6.286Z" fill="currentColor"/>
    </svg>
    