<svg id="Direction" xmlns="http://www.w3.org/2000/svg" width="18" height="18" viewBox="0 0 18 18">
    <path id="Path_41161" data-name="Path 41161" d="M18,0H0V18H18Z" fill="#919191" opacity="0"/>
    <path id="arrow-right" d="M9.312,38.708l-.8-.8a.864.864,0,0,0-1.226,0L.255,44.93a.864.864,0,0,0,0,1.226l7.029,7.029a.864.864,0,0,0,1.226,0l.8-.8a.869.869,0,0,0-.014-1.24L4.941,46.991H15.332a.866.866,0,0,0,.868-.868V44.966a.866.866,0,0,0-.868-.868H4.941L9.3,39.948A.862.862,0,0,0,9.312,38.708Z" transform="translate(0.9 -36.545)" fill="currentColor"/>
  </svg>
  