<svg width="12" height="14" viewBox="0 0 12 14" fill="none" xmlns="http://www.w3.org/2000/svg">
    <path d="M0.492188 12.1146C0.492394 12.4278 0.616958 12.7282 0.838499 12.9495C1.06004 13.1709 1.36043 13.2953 1.67363 13.2953H10.3365C10.6496 13.2951 10.9498 13.1706 11.1712 12.9493C11.3925 12.7279 11.517 12.4277 11.5172 12.1146V5.42031H0.492188V12.1146ZM2.06719 7.38887C2.0676 7.28448 2.1093 7.1845 2.18319 7.11076C2.25707 7.03702 2.35713 6.99552 2.46152 6.99531H4.82363C4.92795 6.99552 5.02793 7.03705 5.10169 7.11081C5.17545 7.18457 5.21698 7.28455 5.21719 7.38887V9.75176C5.21698 9.85607 5.17545 9.95605 5.10169 10.0298C5.02793 10.1036 4.92795 10.1451 4.82363 10.1453H2.46152C2.35713 10.1451 2.25707 10.1036 2.18319 10.0299C2.1093 9.95612 2.0676 9.85614 2.06719 9.75176V7.38887ZM10.3365 2.27031H9.1543V1.08965C9.1541 0.985394 9.1127 0.885447 9.03913 0.811584C8.96555 0.737721 8.86577 0.695928 8.76152 0.695312H7.97363C7.86911 0.695518 7.76893 0.73713 7.69502 0.811037C7.62112 0.884944 7.5795 0.985125 7.5793 1.08965V2.27031H4.43008V1.08965C4.42987 0.98526 4.38837 0.885196 4.31463 0.811311C4.24089 0.737426 4.14091 0.695723 4.03652 0.695312H3.24863C3.14411 0.695518 3.04393 0.73713 2.97002 0.811037C2.89612 0.884944 2.8545 0.985125 2.8543 1.08965V2.27031H1.67363C1.36043 2.27031 1.06004 2.39468 0.838499 2.61607C0.616958 2.83747 0.492394 3.13778 0.492188 3.45098V4.63242H11.5172V3.45098C11.517 3.13791 11.3925 2.83772 11.1712 2.61635C10.9498 2.39498 10.6496 2.27052 10.3365 2.27031Z" fill="#919191"/>
    </svg>
    