<svg width="14" height="14" viewBox="0 0 14 14" fill="none" xmlns="http://www.w3.org/2000/svg">
<path d="M8.85874 6.99961L11.6443 4.21381C11.8085 4.04956 11.9008 3.82682 11.9008 3.59457C11.9008 3.36231 11.8085 3.13957 11.6443 2.97532L11.0251 2.35608C10.8609 2.19186 10.6382 2.09961 10.4059 2.09961C10.1737 2.09961 9.95097 2.19186 9.78674 2.35608L7.00196 5.14188L4.21559 2.35608C4.05136 2.19186 3.82863 2.09961 3.5964 2.09961C3.36416 2.09961 3.14143 2.19186 2.97721 2.35608L2.35801 2.97532C2.19381 3.13957 2.10156 3.36231 2.10156 3.59457C2.10156 3.82682 2.19381 4.04956 2.35801 4.21381L5.14359 6.99961L2.3588 9.78541C2.1946 9.94965 2.10235 10.1724 2.10235 10.4047C2.10235 10.6369 2.1946 10.8597 2.3588 11.0239L2.978 11.6431C3.14223 11.8074 3.36495 11.8996 3.59719 11.8996C3.82943 11.8996 4.05215 11.8074 4.21638 11.6431L7.00196 8.85734L9.78753 11.6431C9.95176 11.8074 10.1745 11.8996 10.4067 11.8996C10.639 11.8996 10.8617 11.8074 11.0259 11.6431L11.6451 11.0239C11.8093 10.8597 11.9016 10.6369 11.9016 10.4047C11.9016 10.1724 11.8093 9.94965 11.6451 9.78541L8.85874 6.99961Z" fill="currentColor"/>
</svg>
