<svg width="18" height="14" viewBox="0 0 18 14" fill="none" xmlns="http://www.w3.org/2000/svg">
    <path d="M6.0684 13.0716L1.0684 8.07158C0.984791 7.98801 0.918472 7.88878 0.873224 7.77957C0.827976 7.67035 0.804688 7.5533 0.804688 7.43508C0.804688 7.31687 0.827976 7.19981 0.873224 7.0906C0.918472 6.98139 0.984791 6.88216 1.0684 6.79858L2.3434 5.52758C2.42697 5.44398 2.5262 5.37766 2.63541 5.33241C2.74462 5.28716 2.86168 5.26388 2.9799 5.26388C3.09811 5.26388 3.21517 5.28716 3.32438 5.33241C3.43359 5.37766 3.53282 5.44398 3.6164 5.52758L6.7044 8.61558L14.3794 0.935583C14.463 0.851979 14.5622 0.785659 14.6714 0.740412C14.7806 0.695164 14.8977 0.671875 15.0159 0.671875C15.1341 0.671875 15.2512 0.695164 15.3604 0.740412C15.4696 0.785659 15.5688 0.851979 15.6524 0.935583L16.9254 2.20858C17.009 2.29216 17.0753 2.39139 17.1206 2.5006C17.1658 2.60981 17.1891 2.72687 17.1891 2.84508C17.1891 2.9633 17.1658 3.08035 17.1206 3.18957C17.0753 3.29878 17.009 3.39801 16.9254 3.48158L7.3414 13.0676C7.25782 13.1512 7.15859 13.2175 7.04938 13.2628C6.94017 13.308 6.82311 13.3313 6.7049 13.3313C6.58668 13.3313 6.46962 13.308 6.36041 13.2628C6.2512 13.2175 6.15197 13.1512 6.0684 13.0676V13.0716Z" fill="white"/>
    </svg>
    