<svg width="14" height="14" viewBox="0 0 14 14" fill="none" xmlns="http://www.w3.org/2000/svg">
<path d="M4.71899 11.7223L0.830106 7.83345C0.765081 7.76845 0.713499 7.69127 0.678306 7.60633C0.643114 7.52139 0.625 7.43034 0.625 7.3384C0.625 7.24645 0.643114 7.15541 0.678306 7.07047C0.713499 6.98552 0.765081 6.90835 0.830106 6.84334L1.82177 5.85479C1.88678 5.78976 1.96395 5.73818 2.0489 5.70299C2.13384 5.66779 2.22488 5.64968 2.31683 5.64968C2.40877 5.64968 2.49982 5.66779 2.58476 5.70299C2.6697 5.73818 2.74688 5.78976 2.81188 5.85479L5.21366 8.25656L11.1831 2.28323C11.2481 2.21821 11.3253 2.16662 11.4102 2.13143C11.4952 2.09624 11.5862 2.07812 11.6782 2.07812C11.7701 2.07812 11.8611 2.09624 11.9461 2.13143C12.031 2.16662 12.1082 2.21821 12.1732 2.28323L13.1633 3.27334C13.2284 3.33835 13.2799 3.41552 13.3151 3.50047C13.3503 3.58541 13.3684 3.67645 13.3684 3.7684C13.3684 3.86034 13.3503 3.95139 13.3151 4.03633C13.2799 4.12127 13.2284 4.19845 13.1633 4.26345L5.70911 11.7192C5.6441 11.7843 5.56692 11.8358 5.48198 11.871C5.39704 11.9062 5.30599 11.9243 5.21405 11.9243C5.12211 11.9243 5.03106 11.9062 4.94612 11.871C4.86118 11.8358 4.784 11.7843 4.71899 11.7192V11.7223Z" fill="#26A690"/>
</svg>
