<svg width="14" height="14" viewBox="0 0 14 14" fill="none" xmlns="http://www.w3.org/2000/svg">
<path d="M2.24701 6.84635C1.69011 7.59314 1.32912 8.46752 1.19701 9.38968L2.60868 8.67568C2.626 8.66678 2.64493 8.66143 2.66434 8.65994C2.68376 8.65845 2.70328 8.66086 2.72175 8.66702C2.74023 8.67318 2.75729 8.68296 2.77193 8.6958C2.78657 8.70864 2.7985 8.72428 2.80701 8.74179C2.81827 8.76485 2.82339 8.79041 2.82189 8.81603C2.8204 8.84164 2.81232 8.86643 2.79846 8.88802L0.810458 11.9073C0.724903 12.7007 0.703125 13.3019 0.703125 13.3019C0.703125 13.3019 5.79446 13.0351 7.1229 11.6911C7.99395 10.5716 8.49566 9.20917 8.55868 7.79213L6.12268 5.36857C4.70594 5.43374 3.34748 5.95171 2.24701 6.84635ZM13.0698 0.935238C12.923 0.787741 12.7238 0.704303 12.5157 0.703137C12.3077 0.701972 12.1076 0.783173 11.9591 0.929016L8.61468 4.21668L7.63235 3.24213C7.60693 3.21699 7.57678 3.19714 7.54363 3.18375C7.51048 3.17036 7.47501 3.16369 7.43926 3.16412C7.40351 3.16456 7.36821 3.17209 7.3354 3.18628C7.30259 3.20047 7.27292 3.22104 7.24812 3.24679C7.21894 3.27632 7.1971 3.31228 7.18435 3.35179L6.72857 4.73546L9.1669 7.15746L10.5669 6.67991C10.6348 6.6572 10.6908 6.60847 10.7228 6.54445C10.7547 6.48042 10.7599 6.40633 10.7372 6.33846C10.7242 6.29871 10.7018 6.26269 10.6719 6.23346L9.73857 5.30557L13.0698 2.02802C13.2144 1.88815 13.2978 1.69669 13.3015 1.49553C13.3053 1.29436 13.2293 1.09989 13.09 0.954683L13.0698 0.935238Z" fill="white"/>
</svg>
