<svg width="18" height="18" viewBox="0 0 18 18" fill="none" xmlns="http://www.w3.org/2000/svg">
<path d="M11.3464 9.00038L14.8644 5.48238C15.0718 5.27497 15.1883 4.99368 15.1883 4.70038C15.1883 4.40708 15.0718 4.12579 14.8644 3.91838L14.0824 3.13638C13.875 2.929 13.5937 2.8125 13.3004 2.8125C13.0071 2.8125 12.7258 2.929 12.5184 3.13638L9.00138 6.65438L5.48238 3.13638C5.27497 2.929 4.99368 2.8125 4.70038 2.8125C4.40708 2.8125 4.12579 2.929 3.91838 3.13638L3.13638 3.91838C2.929 4.12579 2.8125 4.40708 2.8125 4.70038C2.8125 4.99368 2.929 5.27497 3.13638 5.48238L6.65438 9.00038L3.13738 12.5184C2.93 12.7258 2.8135 13.0071 2.8135 13.3004C2.8135 13.5937 2.93 13.875 3.13738 14.0824L3.91938 14.8644C4.12679 15.0718 4.40808 15.1883 4.70138 15.1883C4.99468 15.1883 5.27597 15.0718 5.48338 14.8644L9.00138 11.3464L12.5194 14.8644C12.7268 15.0718 13.0081 15.1883 13.3014 15.1883C13.5947 15.1883 13.876 15.0718 14.0834 14.8644L14.8654 14.0824C15.0728 13.875 15.1893 13.5937 15.1893 13.3004C15.1893 13.0071 15.0728 12.7258 14.8654 12.5184L11.3464 9.00038Z" fill="#EF5350"/>
</svg>
