<svg width="18" height="18" viewBox="0 0 18 18" fill="none" xmlns="http://www.w3.org/2000/svg">
    <path d="M9.00313 0.453125C7.3121 0.453125 5.65904 0.954574 4.253 1.89406C2.84696 2.83355 1.75109 4.16887 1.10396 5.73118C0.456831 7.29349 0.287511 9.01261 0.617414 10.6711C0.947318 12.3297 1.76163 13.8531 2.95737 15.0489C4.15311 16.2446 5.67657 17.0589 7.33511 17.3888C8.99365 17.7187 10.7128 17.5494 12.2751 16.9023C13.8374 16.2552 15.1727 15.1593 16.1122 13.7533C17.0517 12.3472 17.5531 10.6942 17.5531 9.00313C17.5531 6.73552 16.6523 4.5608 15.0489 2.95736C13.4455 1.35393 11.2707 0.453125 9.00313 0.453125ZM10.9711 12.5231L7.93113 10.3131C7.87877 10.2746 7.83619 10.2243 7.80683 10.1663C7.77748 10.1082 7.76216 10.0441 7.76213 9.97913V4.17913C7.76265 4.06975 7.80634 3.96501 7.88368 3.88767C7.96102 3.81033 8.06576 3.76665 8.17513 3.76612H9.83013C9.9395 3.76665 10.0442 3.81033 10.1216 3.88767C10.1989 3.96501 10.2426 4.06975 10.2431 4.17913V8.92912L12.4281 10.5221C12.4721 10.554 12.5094 10.5943 12.5378 10.6407C12.5662 10.687 12.5852 10.7385 12.5936 10.7922C12.6021 10.8459 12.5999 10.9008 12.5871 10.9536C12.5743 11.0064 12.5512 11.0562 12.5191 11.1001L11.5471 12.4381C11.4815 12.5247 11.3846 12.5822 11.2771 12.5982C11.1697 12.6143 11.0602 12.5877 10.9721 12.5241" fill="#919191"/>
    </svg>
    