<svg width="54" height="54" viewBox="0 0 54 54" fill="none" xmlns="http://www.w3.org/2000/svg">
    <g clip-path="url(#clip0_166_171097)">
    <path d="M30.6873 3.81753L29.5977 1.25902L10.1926 0.0211411C8.18207 -0.100693 6.60096 0.311933 5.38958 1.05558C4.4959 1.61157 3.75321 2.37988 3.22747 3.29227C3.17625 3.3742 3.14889 3.46881 3.14844 3.56546C3.148 3.66211 3.1745 3.75697 3.22496 3.83936C3.27543 3.92176 3.34786 3.98844 3.4341 4.03189C3.52035 4.07534 3.61699 4.09385 3.71317 4.08534C7.68948 3.80144 23.6682 2.77275 30.6873 3.81753Z" fill="#919191"/>
    <path d="M5.39844 1.05693C5.6529 0.964447 5.91859 0.906464 6.18842 0.884523C7.12652 0.792573 8.76619 0.98337 10.4127 2.84651C12.2166 4.8855 14.0297 8.92901 14.9494 16.8137C16.457 29.7316 18.7385 41.238 23.041 49.1239C23.5213 49.9952 24.3073 50.6573 25.247 50.9823C26.1868 51.3074 27.2135 51.2722 28.1287 50.8835C32.5758 49.0055 41.2185 45.5355 50.5686 42.7506C51.4313 42.49 52.2974 42.2395 53.167 41.9989C53.3531 41.9466 53.5228 41.8477 53.6601 41.7116C53.7975 41.5754 53.8978 41.4064 53.9517 41.2206C54.0056 41.0348 54.0113 40.8383 53.9682 40.6497C53.9251 40.461 53.8347 40.2865 53.7055 40.1426C51.2839 37.4289 46.3178 30.143 44.2154 14.461C42.9432 4.97056 39.3929 2.01436 35.8161 1.6569L35.0996 1.61093H35.0319L10.4805 0.0397316L10.1946 0.0213411C10.0901 0.0144449 9.9879 0.00984768 9.88571 0.00639956C8.22078 -0.0499199 6.86013 0.268457 5.77161 0.844295C5.64416 0.912108 5.52015 0.98222 5.39844 1.05693Z" fill="#E5E5E5"/>
    <path d="M7.86719 1.07031C8.64224 1.32432 9.52982 1.8381 10.4174 2.8438C12.2213 4.88279 14.0332 8.9263 14.9529 16.811C16.472 29.8243 18.7731 41.4077 23.1398 49.2947C23.5958 50.1177 24.3399 50.7427 25.2288 51.0494C26.1177 51.356 27.0885 51.3226 27.9543 50.9555C32.3486 49.097 41.0969 45.5753 50.5744 42.7478C50.977 42.6275 51.3816 42.5088 51.788 42.3915C46.5062 42.5329 33.7195 41.7778 27.1689 31.8977C19.4792 20.2982 16.6178 2.50818 7.86719 1.07031Z" fill="#CCCCCC"/>
    <path d="M10.4844 0.0390625L11.5419 0.444792C12.2361 0.710948 12.8702 1.11347 13.4066 1.62865C13.6845 1.89494 14.0076 2.10941 14.3608 2.26196C14.7096 2.41209 15.0827 2.49776 15.4619 2.51482L37.5745 3.4642C37.8685 3.47685 38.0235 3.07571 37.8042 2.86078C37.5313 2.58953 37.2221 2.35745 36.8856 2.17115C36.5535 1.98798 36.197 1.85328 35.8269 1.77117L35.1024 1.61026H35.0346L10.4844 0.0390625Z" fill="#AAAAAA"/>
    <path d="M29.224 8.30227L39.6729 8.2379C40.2734 8.2379 40.6787 7.54827 40.4273 6.96784C40.3712 6.82896 40.2764 6.70912 40.1543 6.62253C40.0322 6.53594 39.8878 6.48625 39.7383 6.47935L29.309 6.06328C28.5121 6.03225 27.9541 6.93221 28.2997 7.6931C28.3775 7.87389 28.5065 8.02792 28.6707 8.13618C28.835 8.24443 29.0273 8.30217 29.224 8.30227Z" fill="#AAAAAA"/>
    <path d="M34.2832 26.4712L43.1969 25.2586C43.7526 25.1828 44.135 24.5839 44.0007 24.0035C43.9595 23.7943 43.8435 23.6072 43.6744 23.4775C43.5052 23.3478 43.2946 23.2843 43.0821 23.2989L34.1535 24.0886C33.4553 24.1495 32.9513 24.877 33.1063 25.6034C33.1542 25.8714 33.3029 26.1108 33.5219 26.2722C33.7409 26.4337 34.0133 26.5049 34.2832 26.4712Z" fill="#AAAAAA"/>
    <path d="M36.9256 32.8199L44.9769 31.1981C45.551 31.0832 45.9196 30.4177 45.7256 29.8292C45.6631 29.6156 45.5266 29.4312 45.3406 29.3092C45.1546 29.1872 44.9312 29.1356 44.7105 29.1637L36.5386 30.3039C35.8279 30.4028 35.3433 31.174 35.5339 31.9038C35.7004 32.5544 36.2963 32.9452 36.9256 32.8199Z" fill="#AAAAAA"/>
    <path d="M24.0902 42.4916C24.3194 43.1388 24.5922 43.7698 24.9066 44.38C25.0367 44.6415 25.2558 44.8478 25.5245 44.9618C25.7931 45.0758 26.0936 45.09 26.3718 45.0019L39.961 40.9101L40.6132 40.7135L48.8093 38.2458C49.2433 38.1148 49.4649 37.6022 49.2502 37.2252L48.4097 35.7448C48.3437 35.6307 48.2421 35.5416 48.1205 35.4911C47.9989 35.4406 47.8641 35.4316 47.7368 35.4655L35.7574 38.37L34.5667 38.6584L24.8791 41.0112C24.728 41.0531 24.5869 41.1253 24.4646 41.2234C24.3422 41.3215 24.2411 41.4435 24.1673 41.582C24.0935 41.7205 24.0486 41.8725 24.0354 42.0289C24.0221 42.1852 24.0408 42.3427 24.0902 42.4916Z" fill="#AAAAAA"/>
    <path d="M27.8774 20.3927L42.2095 19.3778C42.7113 19.3422 43.0856 18.833 43.003 18.2997C42.9806 18.1024 42.8861 17.9204 42.7377 17.7886C42.5894 17.6569 42.3976 17.5847 42.1992 17.586L27.8636 17.9664C27.1586 17.9848 26.6132 18.679 26.7257 19.4192C26.758 19.6976 26.8951 19.9533 27.109 20.1341C27.323 20.315 27.5977 20.4075 27.8774 20.3927Z" fill="#AAAAAA"/>
    <path d="M20.3731 14.4198L41.2846 13.6221C41.7784 13.6026 42.1561 13.0969 42.0792 12.5543C42.0619 12.3603 41.9748 12.1792 41.8342 12.0445C41.6936 11.9099 41.5089 11.8309 41.3145 11.8222L20.4167 11.7188C19.6256 11.7188 19.0102 12.513 19.1537 13.3578C19.2628 13.9968 19.776 14.4428 20.3731 14.4198Z" fill="#AAAAAA"/>
    <path d="M5.39844 1.05638C5.6529 0.963902 5.91859 0.905919 6.18842 0.883978C6.04948 0.865588 5.91055 0.852945 5.77161 0.84375C5.64416 0.911563 5.52015 0.981675 5.39844 1.05638Z" fill="#EEEEEE"/>
    <path d="M24.0902 42.4938C24.3194 43.141 24.5922 43.7719 24.9066 44.3822C25.0367 44.6437 25.2558 44.85 25.5245 44.964C25.7931 45.078 26.0936 45.0922 26.3718 45.004L39.961 40.9122C38.0867 40.359 36.2774 39.6053 34.5644 38.6641L24.8791 41.0134C24.728 41.0553 24.5869 41.1274 24.4646 41.2256C24.3422 41.3237 24.2411 41.4457 24.1673 41.5842C24.0935 41.7226 24.0486 41.8747 24.0354 42.031C24.0221 42.1874 24.0408 42.3449 24.0902 42.4938Z" fill="#919191"/>
    <path d="M42.7756 27.7049C42.7455 27.8231 42.7052 27.9385 42.655 28.0497C40.8311 32.0433 39.7004 36.3189 39.3114 40.6928C39.2884 40.9514 39.2689 41.2135 39.2528 41.4755C39.2367 41.7376 39.0037 41.8433 38.7281 41.8341C38.536 41.8256 38.3466 41.7868 38.1666 41.7192C36.0679 40.9322 34.1121 39.8062 32.3772 38.386C31.6688 37.8113 31.2715 37.0964 31.2175 36.3344C31.2061 36.1723 31.2095 36.0096 31.2279 35.8482C31.2828 35.4047 31.4324 34.9782 31.6665 34.5977C31.7063 34.5301 31.7633 34.4742 31.8316 34.4357C31.8999 34.3972 31.9771 34.3774 32.0555 34.3783C32.1339 34.3792 32.2107 34.4009 32.2781 34.441C32.3454 34.4811 32.401 34.5383 32.4392 34.6069C33.8849 37.1884 36.1836 38.5676 37.1343 39.0561C37.183 39.0803 37.2367 39.0925 37.2911 39.0919C37.3454 39.0913 37.3989 39.0779 37.447 39.0527C37.4952 39.0274 37.5367 38.9912 37.5681 38.9468C37.5996 38.9025 37.6201 38.8513 37.6281 38.7975C37.8577 37.0734 38.8096 30.8806 41.3874 25.79C41.4124 25.7417 41.4471 25.6991 41.4894 25.6649C41.5318 25.6307 41.5808 25.6058 41.6332 25.5916C41.6857 25.5775 41.7406 25.5744 41.7944 25.5826C41.8481 25.5909 41.8995 25.6102 41.9454 25.6394C42.2826 25.8532 42.5442 26.1675 42.6931 26.5382C42.8421 26.9088 42.8709 27.3169 42.7756 27.7049Z" fill="#3074D3"/>
    <path d="M39.3126 40.6866C39.2896 40.9452 39.2701 41.2072 39.254 41.4693C39.238 41.7313 39.0049 41.8371 38.7293 41.8279C38.5373 41.8193 38.3478 41.7806 38.1678 41.713C36.0691 40.9259 34.1134 39.8 32.3785 38.3798C31.67 37.8051 31.2727 37.0902 31.2188 36.3281C33.6495 38.5096 36.5167 39.8602 39.3126 40.6866Z" fill="#255BB9"/>
    <path d="M1.07517 34.3282C2.3187 35.6983 3.65754 36.5189 5.57163 35.7868C6.49021 35.4339 7.54888 34.7213 8.78667 33.5363C9.92456 32.449 10.5802 31.4502 10.8764 30.5387C11.5298 28.5353 10.4482 26.9584 8.94742 25.8182C7.03792 24.3688 4.09731 24.8562 2.07413 26.7825C1.96734 26.8837 1.86286 26.9894 1.76181 27.0986C-0.254476 29.2836 -0.617316 32.4616 1.07517 34.3282Z" fill="#6F9EE0"/>
    <path d="M3.1875 33.945C4.02152 34.5071 4.8178 35.1234 5.57122 35.7898C7.64722 37.615 10.2112 40.5229 9.43271 43.2814L14.6055 37.692L18.7253 33.2405C15.9409 34.922 12.8694 32.6129 10.8818 30.5452C10.1161 29.748 9.41429 28.8918 8.78281 27.9844L5.31861 30.0533L4.08656 32.3014L3.1875 33.945Z" fill="#6F9EE0"/>
    <path d="M2.66897 31.696C0.747981 29.7489 1.31521 28.18 2.07878 26.7812C1.97199 26.8824 1.8675 26.9881 1.76646 27.0973C-0.255571 29.2811 -0.618411 32.4615 1.07752 34.3281C2.32105 35.6981 3.65989 36.5188 5.57398 35.7866C7.64653 37.6118 10.2105 40.5197 9.43203 43.2782L14.6048 37.6888L12.4059 36.4487L8.78902 33.5407L7.77284 32.6959C7.77284 32.6959 5.59121 34.6499 2.66897 31.696Z" fill="#3074D3"/>
    <path d="M5.03722 49.3882C5.68367 50.0963 6.71248 50.4629 8.11447 50.3928C10.8254 50.2572 14.3344 48.5159 17.5931 45.916C18.9739 44.8132 20.2627 43.5997 21.4465 42.2874C21.7803 41.9173 22.1049 41.5395 22.4202 41.1541C22.9507 40.5036 23.4536 39.8346 23.9129 39.1542C26.8271 34.844 27.3657 31.2235 25.6778 29.6282C25.5474 29.5056 25.4055 29.3958 25.2541 29.3006C24.6271 28.9052 23.7878 28.7144 22.7406 28.7661C20.0733 28.9006 16.632 30.5879 13.4181 33.12C10.9862 35.0348 8.68284 37.4324 6.94442 40.0047C4.1106 44.1908 3.525 47.7285 5.03722 49.3882Z" fill="#6F9EE0"/>
    <path d="M4.96055 49.2856C4.97547 49.3097 5.00073 49.343 5.03518 49.3879C5.58518 50.0775 8.49135 53.1314 8.49135 53.1314L9.79114 52.882C9.79114 52.882 13.4448 49.7373 17.5911 45.9156C18.8541 44.7455 20.1746 43.5134 21.4445 42.287C21.7982 41.9422 22.1484 41.6054 22.4928 41.2664C26.646 37.1872 30.0137 33.4092 29.1767 32.6001C28.0609 31.5495 26.8916 30.5574 25.6734 29.6278L25.5988 29.5703L14.7526 35.3333L10.4881 37.601C10.4881 37.601 4.71827 48.8902 4.96055 49.2856Z" fill="#6F9EE0"/>
    <path d="M5.03732 49.3878C5.58732 50.0774 8.49349 53.1313 8.49349 53.1313L9.79328 52.8819C9.79328 52.8819 13.4469 49.7372 17.5932 45.9155C18.974 44.8127 20.2628 43.5992 21.4466 42.2869C21.8003 41.9421 22.1505 41.6053 22.495 41.2663C22.4651 41.2203 22.4387 41.1835 22.4203 41.1513C22.3859 41.1019 22.3687 41.0755 22.3687 41.0755L16.4151 36.678C15.8114 36.2949 15.2542 35.8428 14.7548 35.3309C14.1807 34.7344 13.6203 33.9723 13.4159 33.1172C10.984 35.032 8.68065 37.4296 6.94223 40.002C4.1107 44.1903 3.52511 47.7281 5.03732 49.3878Z" fill="#3074D3"/>
    <path d="M11.4403 53.9892C15.1789 53.803 20.4102 50.579 24.4681 46.2332C25.5726 45.0573 26.5802 43.7938 27.481 42.4552C30.4963 37.9427 31.0015 34.1613 29.162 32.5705C28.5006 31.9958 27.5373 31.712 26.2788 31.774C23.4588 31.9142 19.7913 33.7831 16.4167 36.5577C14.0927 38.468 11.9087 40.8104 10.2381 43.3092C6.14005 49.4468 6.67742 54.2271 11.4403 53.9892Z" fill="#98B9EA"/>
    <path d="M11.4403 53.9905C15.1789 53.8043 20.4102 50.5803 24.4681 46.2345C22.4449 46.2586 16.3535 45.592 16.4167 36.6774C16.4167 36.6384 16.4167 36.6004 16.4167 36.5625C14.0927 38.4728 11.9087 40.8152 10.2381 43.3139C6.14005 49.4482 6.67742 54.2284 11.4403 53.9905Z" fill="#6F9EE0"/>
    <path d="M13.0879 52.7337C17.0435 52.3889 23.1567 47.9063 26.7415 42.7019C30.3262 37.4975 30.0288 33.5621 26.0732 33.9034C22.1176 34.2448 16.0055 38.7308 12.4196 43.9352C8.83371 49.1396 9.13225 53.075 13.0879 52.7337ZM13.9146 43.7214C17.0631 39.2032 22.3805 35.2678 25.7942 34.9321C29.2079 34.5965 29.4237 37.986 26.2753 42.5054C23.1268 47.0247 17.8094 50.9579 14.3969 51.2935C10.9843 51.6291 10.7673 48.2396 13.9146 43.7214Z" fill="#255BB9"/>
    <path d="M22.4657 45.5989C25.7378 42.4359 27.3633 38.8072 26.0964 37.494C24.8295 36.1807 21.1499 37.6802 17.8778 40.8432C14.6057 44.0062 12.9802 47.6349 14.2471 48.9482C15.514 50.2614 19.1936 48.7619 22.4657 45.5989Z" fill="#255BB9"/>
    <path d="M15.1507 49.669L14.4101 49.1001C14.2862 49.0059 14.1783 48.8922 14.0909 48.7633C14.0112 48.6566 13.9634 48.5295 13.9531 48.3966C13.9531 48.1128 15.246 44.706 15.246 44.706L25.6088 37.3144L25.7649 37.25L26.4929 37.8247C26.6259 37.9728 26.7369 38.1392 26.8225 38.3189C26.9522 38.5982 15.1507 49.669 15.1507 49.669Z" fill="#255BB9"/>
    <path d="M13.4576 53.114C16.6038 52.8428 21.1197 49.9222 24.6276 46.1028C25.504 45.1553 26.3121 44.1467 27.0457 43.0846C30.6133 37.8859 30.3136 33.9459 26.3763 34.2861C23.8135 34.5056 20.3401 36.486 17.2445 39.2767C15.568 40.775 14.0724 42.4646 12.7882 44.311C9.22065 49.5142 9.52034 53.4531 13.4576 53.114ZM14.2774 44.1018C15.2215 42.7553 16.2936 41.5035 17.4787 40.364C20.3424 37.5929 23.6952 35.555 26.0996 35.3182C29.4972 34.9826 29.7131 38.3733 26.5819 42.8903C25.7948 44.0154 24.9165 45.0738 23.9559 46.0546C20.9705 49.1142 17.3271 51.421 14.7597 51.675C11.3621 52.0118 11.1462 48.6188 14.2774 44.1018Z" fill="#6F9EE0"/>
    <path d="M16.4935 49.9179C18.3123 49.7536 20.8327 48.2479 22.9902 46.1848C23.0821 46.0986 23.1716 46.0101 23.2612 45.9216C24.0751 45.1193 24.8141 44.2445 25.4692 43.3079C27.8334 39.8908 27.6509 37.3116 25.0559 37.5461C23.0476 37.7277 20.1839 39.5437 17.8967 41.9413C17.7968 42.0459 17.6992 42.1516 17.6004 42.2585C17.0515 42.8557 16.544 43.4897 16.0813 44.1561C13.7171 47.5721 13.9008 50.1513 16.4935 49.9179Z" fill="#6F9EE0"/>
    <path d="M16.4935 49.9142C18.3123 49.7498 20.8327 48.2441 22.9902 46.181C23.0821 46.0948 23.1716 46.0063 23.2612 45.9178C21.4619 45.5052 19.286 44.465 17.8967 41.9375C17.7968 42.0421 17.6992 42.1478 17.6004 42.2547C17.0515 42.852 16.544 43.486 16.0813 44.1523C13.7171 47.5683 13.9008 50.1475 16.4935 49.9142Z" fill="#3074D3"/>
    <path d="M13.4576 53.1186C16.6038 52.8473 21.1197 49.9268 24.6276 46.1074C24.4243 46.0993 24.1981 46.0833 23.9559 46.0557C20.9705 49.1153 17.3271 51.4221 14.7597 51.6761C11.3621 52.0106 11.1462 48.6199 14.2774 44.1029C15.2215 42.7564 16.2936 41.5047 17.4787 40.3651C17.3868 40.0234 17.3103 39.6621 17.2491 39.2812C15.5709 40.7793 14.0738 42.4689 12.7882 44.3155C9.22065 49.5187 9.52034 53.4577 13.4576 53.1186Z" fill="#3074D3"/>
    </g>
    <defs>
    <clipPath id="clip0_166_171097">
    <rect width="54" height="54" fill="white"/>
    </clipPath>
    </defs>
    </svg>
    