<svg width="164" height="18" viewBox="0 0 164 18" fill="none" xmlns="http://www.w3.org/2000/svg">
<path d="M20.7966 0L15.0966 10.456L11.9966 0H7.14062L11.6106 15.136C11.811 15.7944 12.2187 16.3705 12.7729 16.7784C13.3272 17.1864 13.9984 17.4044 14.6866 17.4C15.2643 17.4026 15.832 17.2492 16.3299 16.9562C16.8278 16.6632 17.2374 16.2413 17.5156 15.735L26.0497 0H20.7966Z" fill="url(#paint0_linear_284_2381)"/>
<path d="M4.83701 0H0L5.138 17.4H9.97501L4.83701 0Z" fill="url(#paint1_linear_284_2381)"/>
<path d="M32.037 4.55002H44.2421V0H32.037C31.3165 -6.07388e-08 30.603 0.141947 29.9373 0.417694C29.2715 0.693442 28.6667 1.0976 28.1572 1.60712C27.6477 2.11663 27.2435 2.72152 26.9677 3.38724C26.692 4.05295 26.55 4.76644 26.55 5.487C26.55 6.20756 26.692 6.92108 26.9677 7.58679C27.2435 8.25251 27.6477 8.8574 28.1572 9.36691C28.6667 9.87643 29.2715 10.2806 29.9373 10.5563C30.603 10.8321 31.3165 10.974 32.037 10.974H38.6371C38.8853 10.974 39.1234 11.0726 39.2989 11.2482C39.4744 11.4237 39.5731 11.6618 39.5731 11.91C39.5731 12.1582 39.4744 12.3963 39.2989 12.5719C39.1234 12.7474 38.8853 12.846 38.6371 12.846H21.778L19.2891 17.397H38.6411C40.0963 17.397 41.4919 16.8189 42.5209 15.7899C43.5499 14.7609 44.1281 13.3652 44.1281 11.91C44.1281 10.4548 43.5499 9.05913 42.5209 8.03012C41.4919 7.00111 40.0963 6.423 38.6411 6.423H32.041C31.7928 6.423 31.5547 6.3244 31.3792 6.14886C31.2037 5.97333 31.105 5.73524 31.105 5.487C31.105 5.23876 31.2037 5.0007 31.3792 4.82516C31.5547 4.64963 31.7928 4.55103 32.041 4.55103L32.037 4.55002Z" fill="url(#paint2_linear_284_2381)"/>
<path d="M61.3426 6.25H50.6696L50.3906 8.01001H61.0626L61.3426 6.25Z" fill="url(#paint3_linear_284_2381)"/>
<path d="M117.867 8.01199H122.319L120.83 17.397H122.597L124.086 8.01199H128.539L128.818 6.25H118.146L117.867 8.01199Z" fill="url(#paint4_linear_284_2381)"/>
<path d="M87.8047 17.395H89.5717L91.3407 6.25H89.5737L87.8047 17.395Z" fill="url(#paint5_linear_284_2381)"/>
<path d="M136.05 6.25L134.281 17.397L136.05 17.384L137.817 6.25H136.05Z" fill="url(#paint6_linear_284_2381)"/>
<path d="M88.0992 6.25H77.3102L77.0312 8.01001H87.8163L88.0992 6.25Z" fill="url(#paint7_linear_284_2381)"/>
<path d="M60.6118 11.1641H51.5367C51.063 11.1794 50.6089 11.3564 50.2497 11.6657C49.8906 11.975 49.6482 12.3979 49.5627 12.8641L48.8438 17.3971H50.6107L51.3167 12.9501C51.3194 12.9438 51.3234 12.9382 51.3284 12.9335C51.3334 12.9289 51.3393 12.9253 51.3458 12.9231H60.3328L60.6118 11.1641Z" fill="url(#paint8_linear_284_2381)"/>
<path d="M78.168 12.9251H87.038L87.317 11.1641H78.359C77.8836 11.1794 77.4278 11.3572 77.0675 11.6678C76.7073 11.9784 76.4643 12.4031 76.379 12.8711L75.947 15.5921C75.9062 15.8159 75.9152 16.046 75.9732 16.266C76.0313 16.486 76.1371 16.6905 76.283 16.8651C76.4292 17.0337 76.6107 17.168 76.8146 17.2586C77.0186 17.3491 77.2399 17.3937 77.463 17.3891H86.329L86.608 15.6291H77.708L78.132 12.9581C78.1349 12.95 78.1396 12.9428 78.1459 12.9371C78.1522 12.9313 78.1598 12.9272 78.168 12.9251Z" fill="url(#paint9_linear_284_2381)"/>
<path d="M73.8683 9.62452C73.9476 9.19969 73.9325 8.76262 73.8242 8.34424C73.7158 7.92587 73.5168 7.53644 73.2412 7.20353C72.9761 6.89737 72.6469 6.65329 72.2769 6.48859C71.9069 6.3239 71.5052 6.24263 71.1003 6.25053H62.5342L62.2542 8.01252H70.9082C71.0829 8.01002 71.2559 8.046 71.4151 8.1179C71.5743 8.18979 71.7157 8.29586 71.8293 8.42853C71.9543 8.58192 72.0445 8.76057 72.0939 8.95219C72.1433 9.1438 72.1506 9.34382 72.1152 9.53852C72.0355 9.97949 71.8072 10.3799 71.4682 10.673C71.1292 10.9661 70.7001 11.1343 70.2523 11.1495H63.4973C63.0168 11.1662 62.5564 11.3466 62.1926 11.6609C61.8288 11.9752 61.5834 12.4046 61.4973 12.8775L60.7812 17.3935H62.5482L63.2482 12.9635C63.252 12.9505 63.2594 12.9387 63.2694 12.9295C63.2795 12.9203 63.2919 12.9141 63.3052 12.9115H67.6162L72.2972 17.3935H74.9872L70.2943 12.8995C71.1651 12.8166 71.9851 12.452 72.6301 11.861C73.275 11.27 73.7097 10.4848 73.8683 9.62452Z" fill="url(#paint10_linear_284_2381)"/>
<path d="M102.148 11.152H95.7907L95.5107 12.914H101.853C101.859 12.9141 101.865 12.9155 101.871 12.9182C101.877 12.9209 101.882 12.9248 101.886 12.9296C101.89 12.9345 101.893 12.9402 101.895 12.9463C101.896 12.9524 101.897 12.9587 101.896 12.965L101.481 15.581C101.477 15.5915 101.471 15.601 101.463 15.6086C101.455 15.6161 101.445 15.6214 101.434 15.624H96.9017C96.442 15.6343 95.9856 15.5444 95.564 15.3607C95.1425 15.177 94.766 14.9038 94.4607 14.56C94.157 14.2011 93.9349 13.7804 93.8099 13.3271C93.6849 12.8739 93.6599 12.3989 93.7367 11.935C93.9067 10.878 94.4499 9.91691 95.2677 9.22601C96.1075 8.4694 97.1906 8.03869 98.3207 8.01199H104.454L104.734 6.25H98.5137C96.9096 6.28444 95.3709 6.89251 94.1767 7.96399C92.9987 8.96469 92.2182 10.3543 91.9767 11.881C91.8643 12.5725 91.9035 13.2801 92.0918 13.9549C92.28 14.6297 92.6126 15.2555 93.0667 15.789C93.5213 16.304 94.0826 16.7138 94.7115 16.9901C95.3404 17.2664 96.0219 17.4025 96.7087 17.389H101.241C101.719 17.3722 102.177 17.1926 102.54 16.8798C102.902 16.567 103.146 16.1398 103.233 15.669L103.664 12.956C103.705 12.7313 103.696 12.5003 103.638 12.2794C103.579 12.0586 103.473 11.8532 103.327 11.678C103.181 11.5092 103 11.3746 102.796 11.2837C102.592 11.1928 102.371 11.1478 102.148 11.152Z" fill="url(#paint11_linear_284_2381)"/>
<path d="M157.328 8.01199H163.575L163.855 6.25H157.52C155.983 6.30054 154.509 6.87646 153.344 7.88181C152.18 8.88715 151.395 10.2612 151.12 11.775C150.991 12.4755 151.016 13.196 151.196 13.8853C151.376 14.5747 151.705 15.2161 152.16 15.764C152.616 16.2874 153.182 16.7041 153.817 16.9844C154.452 17.2647 155.141 17.4019 155.835 17.386H162.082L162.362 15.623H156.034C155.57 15.6347 155.108 15.544 154.682 15.3574C154.256 15.1707 153.877 14.8927 153.57 14.543C153.265 14.1739 153.045 13.7422 152.926 13.2785C152.806 12.8149 152.79 12.3306 152.878 11.86C153.069 10.8069 153.615 9.85073 154.424 9.15067C155.234 8.4506 156.259 8.04876 157.328 8.01199Z" fill="url(#paint12_linear_284_2381)"/>
<path d="M149.386 6.24996L148.077 14.503L140.733 6.43496C140.614 6.31125 140.459 6.22739 140.291 6.19481C140.122 6.16224 139.947 6.18257 139.79 6.25298C139.631 6.31814 139.49 6.42261 139.382 6.55672C139.273 6.69083 139.201 6.85021 139.17 7.01998L137.523 17.395H139.29L140.611 9.06597L147.955 17.134C148.076 17.2562 148.23 17.3392 148.399 17.3719C148.567 17.4045 148.741 17.3854 148.898 17.317C149.058 17.2518 149.199 17.1473 149.307 17.0132C149.415 16.8791 149.488 16.7197 149.518 16.55L151.152 6.24996H149.386Z" fill="url(#paint13_linear_284_2381)"/>
<path d="M114.223 11.16H107.099L107.878 6.25H106.114L104.344 17.385H106.114L106.822 12.921H113.946L113.236 17.395H115.003L116.771 6.25H115.004L114.223 11.16Z" fill="url(#paint14_linear_284_2381)"/>
<defs>
<linearGradient id="paint0_linear_284_2381" x1="16.5951" y1="0" x2="16.5951" y2="17.4001" gradientUnits="userSpaceOnUse">
<stop stop-color="#003AC0"/>
<stop offset="0.377" stop-color="#0063B9"/>
<stop offset="1" stop-color="#34ADFF"/>
</linearGradient>
<linearGradient id="paint1_linear_284_2381" x1="4.9875" y1="0" x2="4.9875" y2="17.4" gradientUnits="userSpaceOnUse">
<stop stop-color="#003AC0"/>
<stop offset="0.377" stop-color="#0063B9"/>
<stop offset="1" stop-color="#34ADFF"/>
</linearGradient>
<linearGradient id="paint2_linear_284_2381" x1="31.7656" y1="0" x2="31.7656" y2="17.397" gradientUnits="userSpaceOnUse">
<stop stop-color="#003AC0"/>
<stop offset="0.377" stop-color="#0063B9"/>
<stop offset="1" stop-color="#34ADFF"/>
</linearGradient>
<linearGradient id="paint3_linear_284_2381" x1="55.8666" y1="6.25" x2="55.8666" y2="8.01001" gradientUnits="userSpaceOnUse">
<stop stop-color="#2C3236"/>
<stop offset="1" stop-color="#21292D"/>
</linearGradient>
<linearGradient id="paint4_linear_284_2381" x1="123.343" y1="6.25" x2="123.343" y2="17.397" gradientUnits="userSpaceOnUse">
<stop stop-color="#2C3236"/>
<stop offset="1" stop-color="#21292D"/>
</linearGradient>
<linearGradient id="paint5_linear_284_2381" x1="89.5727" y1="6.25" x2="89.5727" y2="17.395" gradientUnits="userSpaceOnUse">
<stop stop-color="#2C3236"/>
<stop offset="1" stop-color="#21292D"/>
</linearGradient>
<linearGradient id="paint6_linear_284_2381" x1="136.049" y1="6.25" x2="136.049" y2="17.397" gradientUnits="userSpaceOnUse">
<stop stop-color="#2C3236"/>
<stop offset="1" stop-color="#21292D"/>
</linearGradient>
<linearGradient id="paint7_linear_284_2381" x1="82.5652" y1="6.25" x2="82.5652" y2="8.01001" gradientUnits="userSpaceOnUse">
<stop stop-color="#2C3236"/>
<stop offset="1" stop-color="#21292D"/>
</linearGradient>
<linearGradient id="paint8_linear_284_2381" x1="54.7278" y1="11.1641" x2="54.7278" y2="17.3971" gradientUnits="userSpaceOnUse">
<stop stop-color="#2C3236"/>
<stop offset="1" stop-color="#21292D"/>
</linearGradient>
<linearGradient id="paint9_linear_284_2381" x1="81.6194" y1="11.1641" x2="81.6194" y2="17.3894" gradientUnits="userSpaceOnUse">
<stop stop-color="#2C3236"/>
<stop offset="1" stop-color="#21292D"/>
</linearGradient>
<linearGradient id="paint10_linear_284_2381" x1="67.8842" y1="6.25" x2="67.8842" y2="17.3935" gradientUnits="userSpaceOnUse">
<stop stop-color="#2C3236"/>
<stop offset="1" stop-color="#21292D"/>
</linearGradient>
<linearGradient id="paint11_linear_284_2381" x1="98.3239" y1="6.25" x2="98.3239" y2="17.3899" gradientUnits="userSpaceOnUse">
<stop stop-color="#2C3236"/>
<stop offset="1" stop-color="#21292D"/>
</linearGradient>
<linearGradient id="paint12_linear_284_2381" x1="157.447" y1="6.25" x2="157.447" y2="17.3872" gradientUnits="userSpaceOnUse">
<stop stop-color="#2C3236"/>
<stop offset="1" stop-color="#21292D"/>
</linearGradient>
<linearGradient id="paint13_linear_284_2381" x1="144.338" y1="6.17969" x2="144.338" y2="17.395" gradientUnits="userSpaceOnUse">
<stop stop-color="#2C3236"/>
<stop offset="1" stop-color="#21292D"/>
</linearGradient>
<linearGradient id="paint14_linear_284_2381" x1="110.557" y1="6.25" x2="110.557" y2="17.395" gradientUnits="userSpaceOnUse">
<stop stop-color="#2C3236"/>
<stop offset="1" stop-color="#21292D"/>
</linearGradient>
</defs>
</svg>
