<svg width="16" height="14" viewBox="0 0 16 14" fill="none" xmlns="http://www.w3.org/2000/svg">
<mask id="path-1-outside-1_695_12289" maskUnits="userSpaceOnUse" x="0.539062" y="0.78125" width="15" height="13" fill="black">
<rect fill="white" x="0.539062" y="0.78125" width="15" height="13"/>
<path d="M6.0482 11.0477L2.71487 7.71439C2.65913 7.65867 2.61492 7.59252 2.58475 7.51971C2.55459 7.4469 2.53906 7.36886 2.53906 7.29006C2.53906 7.21125 2.55459 7.13321 2.58475 7.0604C2.61492 6.98759 2.65913 6.92144 2.71487 6.86572L3.56487 6.01839C3.62059 5.96265 3.68674 5.91844 3.75955 5.88827C3.83235 5.85811 3.91039 5.84258 3.9892 5.84258C4.06801 5.84258 4.14605 5.85811 4.21886 5.88827C4.29166 5.91844 4.35782 5.96265 4.41353 6.01839L6.4722 8.07705L11.5889 2.95706C11.6446 2.90132 11.7107 2.85711 11.7835 2.82694C11.8564 2.79678 11.9344 2.78125 12.0132 2.78125C12.092 2.78125 12.17 2.79678 12.2429 2.82694C12.3157 2.85711 12.3818 2.90132 12.4375 2.95706L13.2862 3.80572C13.3419 3.86144 13.3862 3.92759 13.4163 4.0004C13.4465 4.07321 13.462 4.15125 13.462 4.23006C13.462 4.30886 13.4465 4.3869 13.4163 4.45971C13.3862 4.53252 13.3419 4.59867 13.2862 4.65439L6.89687 11.0451C6.84115 11.1008 6.775 11.145 6.70219 11.1752C6.62938 11.2053 6.55134 11.2209 6.47253 11.2209C6.39372 11.2209 6.31569 11.2053 6.24288 11.1752C6.17007 11.145 6.10392 11.1008 6.0482 11.0451V11.0477Z"/>
</mask>
<path d="M6.0482 11.0477L2.71487 7.71439C2.65913 7.65867 2.61492 7.59252 2.58475 7.51971C2.55459 7.4469 2.53906 7.36886 2.53906 7.29006C2.53906 7.21125 2.55459 7.13321 2.58475 7.0604C2.61492 6.98759 2.65913 6.92144 2.71487 6.86572L3.56487 6.01839C3.62059 5.96265 3.68674 5.91844 3.75955 5.88827C3.83235 5.85811 3.91039 5.84258 3.9892 5.84258C4.06801 5.84258 4.14605 5.85811 4.21886 5.88827C4.29166 5.91844 4.35782 5.96265 4.41353 6.01839L6.4722 8.07705L11.5889 2.95706C11.6446 2.90132 11.7107 2.85711 11.7835 2.82694C11.8564 2.79678 11.9344 2.78125 12.0132 2.78125C12.092 2.78125 12.17 2.79678 12.2429 2.82694C12.3157 2.85711 12.3818 2.90132 12.4375 2.95706L13.2862 3.80572C13.3419 3.86144 13.3862 3.92759 13.4163 4.0004C13.4465 4.07321 13.462 4.15125 13.462 4.23006C13.462 4.30886 13.4465 4.3869 13.4163 4.45971C13.3862 4.53252 13.3419 4.59867 13.2862 4.65439L6.89687 11.0451C6.84115 11.1008 6.775 11.145 6.70219 11.1752C6.62938 11.2053 6.55134 11.2209 6.47253 11.2209C6.39372 11.2209 6.31569 11.2053 6.24288 11.1752C6.17007 11.145 6.10392 11.1008 6.0482 11.0451V11.0477Z" fill="#3074D3"/>
<path d="M6.0482 11.0477L4.63399 12.4619C5.20598 13.0339 6.06622 13.205 6.81357 12.8955C7.56092 12.5859 8.0482 11.8566 8.0482 11.0477H6.0482ZM2.71487 7.71439L4.12908 6.30018L4.12885 6.29994L2.71487 7.71439ZM2.53906 7.29006H0.539062H2.53906ZM2.71487 6.86572L1.30288 5.44929L1.30088 5.45128L2.71487 6.86572ZM3.56487 6.01839L4.97686 7.43482L4.97931 7.43237L3.56487 6.01839ZM3.9892 5.84258V7.84258V5.84258ZM4.41353 6.01839L2.99909 7.43237L2.99932 7.4326L4.41353 6.01839ZM6.4722 8.07705L5.05799 9.49127C5.43314 9.86642 5.94198 10.0771 6.47253 10.0771C7.00307 10.077 7.51184 9.86608 7.88687 9.49081L6.4722 8.07705ZM11.5889 2.95706L10.1744 1.54307L10.1742 1.5433L11.5889 2.95706ZM12.4375 2.95706L11.0231 4.37104L11.0233 4.37127L12.4375 2.95706ZM13.2862 3.80572L11.872 5.21994L11.8722 5.22017L13.2862 3.80572ZM13.2862 4.65439L11.8722 3.23994L11.8718 3.24032L13.2862 4.65439ZM6.89687 11.0451L5.48251 9.63099L5.48242 9.63107L6.89687 11.0451ZM6.0482 11.0451L7.46265 9.63107C6.8907 9.05894 6.03041 8.88771 5.28298 9.19723C4.53556 9.50676 4.0482 10.2361 4.0482 11.0451H6.0482ZM7.46241 9.63351L4.12908 6.30018L1.30065 9.1286L4.63399 12.4619L7.46241 9.63351ZM4.12885 6.29994C4.2589 6.42995 4.36206 6.58431 4.43245 6.75419L0.737057 8.28523C0.867772 8.60073 1.05936 8.88739 1.30088 9.12883L4.12885 6.29994ZM4.43245 6.75419C4.50284 6.92408 4.53906 7.10617 4.53906 7.29006H0.539062C0.539062 7.63156 0.606341 7.96973 0.737057 8.28523L4.43245 6.75419ZM4.53906 7.29006C4.53906 7.47395 4.50283 7.65603 4.43245 7.82592L0.737057 6.29488C0.606342 6.61038 0.539062 6.94855 0.539062 7.29006H4.53906ZM4.43245 7.82592C4.36206 7.9958 4.2589 8.15016 4.12885 8.28017L1.30088 5.45128C1.05936 5.69272 0.867772 5.97938 0.737057 6.29488L4.43245 7.82592ZM4.12686 8.28216L4.97686 7.43482L2.15288 4.60196L1.30288 5.44929L4.12686 8.28216ZM4.97931 7.43237C4.8493 7.56242 4.69495 7.66559 4.52506 7.73597L2.99403 4.04058C2.67853 4.17129 2.39187 4.36288 2.15042 4.60441L4.97931 7.43237ZM4.52506 7.73597C4.35518 7.80636 4.17309 7.84258 3.9892 7.84258V3.84258C3.64769 3.84258 3.30953 3.90986 2.99403 4.04058L4.52506 7.73597ZM3.9892 7.84258C3.80531 7.84258 3.62322 7.80636 3.45334 7.73597L4.98437 4.04058C4.66887 3.90986 4.33071 3.84258 3.9892 3.84258V7.84258ZM3.45334 7.73597C3.28345 7.66559 3.1291 7.56242 2.99909 7.43237L5.82798 4.60441C5.58654 4.36288 5.29988 4.17129 4.98437 4.04058L3.45334 7.73597ZM2.99932 7.4326L5.05799 9.49127L7.88641 6.66284L5.82775 4.60418L2.99932 7.4326ZM7.88687 9.49081L13.0035 4.37081L10.1742 1.5433L5.05753 6.6633L7.88687 9.49081ZM13.0033 4.37104C12.8733 4.50109 12.7189 4.60425 12.5491 4.67464L11.018 0.979244C10.7025 1.10996 10.4159 1.30155 10.1744 1.54307L13.0033 4.37104ZM12.5491 4.67464C12.3792 4.74502 12.1971 4.78125 12.0132 4.78125V0.78125C11.6717 0.78125 11.3335 0.848529 11.018 0.979244L12.5491 4.67464ZM12.0132 4.78125C11.8293 4.78125 11.6472 4.74502 11.4773 4.67464L13.0084 0.979244C12.6929 0.848529 12.3547 0.78125 12.0132 0.78125V4.78125ZM11.4773 4.67464C11.3075 4.60425 11.1531 4.50109 11.0231 4.37104L13.852 1.54307C13.6105 1.30155 13.3239 1.10996 13.0084 0.979244L11.4773 4.67464ZM11.0233 4.37127L11.872 5.21994L14.7004 2.39151L13.8517 1.54284L11.0233 4.37127ZM11.8722 5.22017C11.7422 5.09016 11.639 4.9358 11.5686 4.76592L15.264 3.23488C15.1333 2.91938 14.9417 2.63272 14.7002 2.39128L11.8722 5.22017ZM11.5686 4.76592C11.4982 4.59603 11.462 4.41395 11.462 4.23006H15.462C15.462 3.88855 15.3947 3.55038 15.264 3.23488L11.5686 4.76592ZM11.462 4.23006C11.462 4.04616 11.4982 3.86408 11.5686 3.69419L15.264 5.22523C15.3947 4.90973 15.462 4.57157 15.462 4.23006H11.462ZM11.5686 3.69419C11.639 3.52431 11.7422 3.36995 11.8722 3.23994L14.7002 6.06883C14.9417 5.82739 15.1333 5.54073 15.264 5.22523L11.5686 3.69419ZM11.8718 3.24032L5.48251 9.63099L8.31123 12.4591L14.7006 6.06845L11.8718 3.24032ZM5.48242 9.63107C5.61243 9.50102 5.76679 9.39786 5.93667 9.32747L7.46771 13.0229C7.78321 12.8921 8.06987 12.7006 8.31131 12.459L5.48242 9.63107ZM5.93667 9.32747C6.10656 9.25709 6.28864 9.22086 6.47253 9.22086V13.2209C6.81404 13.2209 7.15221 13.1536 7.46771 13.0229L5.93667 9.32747ZM6.47253 9.22086C6.65643 9.22086 6.83851 9.25709 7.0084 9.32747L5.47736 13.0229C5.79286 13.1536 6.13102 13.2209 6.47253 13.2209V9.22086ZM7.0084 9.32747C7.17828 9.39786 7.33264 9.50102 7.46265 9.63107L4.63376 12.459C4.8752 12.7006 5.16186 12.8921 5.47736 13.0229L7.0084 9.32747ZM4.0482 11.0451V11.0477H8.0482V11.0451H4.0482Z" fill="white" mask="url(#path-1-outside-1_695_12289)"/>
</svg>
