<svg width="14" height="14" viewBox="0 0 14 14" fill="none" xmlns="http://www.w3.org/2000/svg">
<path d="M13.1556 4.41526C13.1379 4.3452 13.1019 4.2811 13.0514 4.2295C13.0008 4.17789 12.9374 4.14064 12.8677 4.12154C12.798 4.10244 12.7245 4.10218 12.6547 4.12078C12.5848 4.13939 12.5212 4.17619 12.4702 4.22743L9.93623 6.76143L7.62331 6.37585L7.23773 4.06293L9.77231 1.52951C9.82385 1.47827 9.86077 1.4142 9.87928 1.34392C9.89778 1.27364 9.89719 1.1997 9.87757 1.12972C9.85795 1.05975 9.82001 0.996275 9.76767 0.945859C9.71533 0.895444 9.65048 0.859911 9.57981 0.842929C8.7282 0.62864 7.83456 0.647969 6.99301 0.898881C6.15146 1.14979 5.39315 1.623 4.79794 2.26867C4.20273 2.91434 3.79265 3.70857 3.61089 4.56771C3.42913 5.42685 3.48242 6.31911 3.76515 7.15051L1.34315 9.57543C0.961464 9.98933 0.754678 10.5348 0.766072 11.0977C0.777467 11.6607 1.00616 12.1973 1.40428 12.5955C1.8024 12.9936 2.33908 13.2223 2.902 13.2337C3.46491 13.2451 4.01041 13.0383 4.42431 12.6566L6.84281 10.2375C7.67512 10.5197 8.56808 10.5723 9.42778 10.3899C10.2875 10.2075 11.0821 9.7968 11.7281 9.20098C12.3742 8.60516 12.8477 7.84626 13.0989 7.00409C13.3501 6.16193 13.3697 5.26763 13.1556 4.41526ZM2.88256 11.935C2.72104 11.935 2.56315 11.8871 2.42885 11.7974C2.29455 11.7076 2.18987 11.5801 2.12806 11.4309C2.06625 11.2816 2.05008 11.1174 2.08159 10.959C2.1131 10.8006 2.19088 10.6551 2.30509 10.5409C2.41931 10.4267 2.56482 10.3489 2.72324 10.3174C2.88166 10.2859 3.04586 10.302 3.19509 10.3638C3.34432 10.4257 3.47186 10.5303 3.5616 10.6646C3.65133 10.7989 3.69923 10.9568 3.69923 11.1183C3.69923 11.3349 3.61319 11.5427 3.46003 11.6958C3.30688 11.849 3.09916 11.935 2.88256 11.935Z" fill="#EF5350"/>
</svg>
