<svg width="14" height="14" viewBox="0 0 14 14" fill="none" xmlns="http://www.w3.org/2000/svg">
<path fill-rule="evenodd" clip-rule="evenodd" d="M12.1218 5.52937V1.68871C12.1176 1.51485 12.0448 1.34971 11.9192 1.22945C11.7935 1.10918 11.6254 1.04359 11.4515 1.04704H8.41351V3.05021C8.42072 3.11054 8.40682 3.17152 8.37418 3.22277C8.34153 3.27403 8.29215 3.3124 8.23442 3.33137C7.45107 3.38283 6.66519 3.38283 5.88184 3.33137C5.73192 3.27596 5.70684 3.15404 5.70684 3.01346C5.71072 2.61488 5.70943 2.21631 5.70814 1.81602C5.70749 1.61523 5.70684 1.414 5.70684 1.21212V1.04704H2.39934C2.31256 1.0451 2.22625 1.06034 2.14538 1.09188C2.06451 1.12342 1.99067 1.17063 1.92811 1.23081C1.86555 1.29098 1.81551 1.36293 1.78085 1.44251C1.74619 1.5221 1.72761 1.60775 1.72617 1.69454V5.52937C1.72761 5.61616 1.74619 5.70181 1.78085 5.7814C1.81551 5.86098 1.86555 5.93293 1.92811 5.9931C1.99067 6.05328 2.06451 6.10049 2.14538 6.13203C2.22625 6.16357 2.31256 6.17881 2.39934 6.17687H11.4486C11.5354 6.17881 11.6217 6.16357 11.7025 6.13203C11.7834 6.10049 11.8573 6.05328 11.9198 5.9931C11.9824 5.93293 12.0324 5.86098 12.0671 5.7814C12.1017 5.70181 12.1203 5.61616 12.1218 5.52937ZM13.2974 8.25604V12.5062C13.2977 12.564 13.2865 12.6214 13.2645 12.6749C13.2425 12.7284 13.2101 12.777 13.1692 12.8179C13.1283 12.8588 13.0797 12.8912 13.0262 12.9132C12.9727 12.9352 12.9154 12.9463 12.8575 12.946H8.36937C8.31202 12.9457 8.25531 12.934 8.20248 12.9117C8.14964 12.8893 8.10173 12.8568 8.06148 12.816C8.02122 12.7751 7.98942 12.7267 7.96788 12.6736C7.94634 12.6204 7.93549 12.5636 7.93595 12.5062V8.24787C7.93641 8.13306 7.98222 8.02309 8.06341 7.94191C8.14459 7.86073 8.25456 7.81491 8.36937 7.81445H9.73729V7.99762C9.73729 8.12834 9.738 8.25827 9.73872 8.38772V8.38784C9.74014 8.64541 9.74156 8.90109 9.73729 9.15729C9.73729 9.24887 9.75537 9.3282 9.84695 9.36495C10.3571 9.40765 10.8698 9.40765 11.38 9.36495C11.4715 9.32762 11.4896 9.25529 11.4896 9.16312V7.8162H12.8575C12.9154 7.81589 12.9727 7.82706 13.0262 7.84905C13.0797 7.87105 13.1283 7.90343 13.1692 7.94434C13.2101 7.98524 13.2425 8.03385 13.2645 8.08735C13.2865 8.14086 13.2977 8.19819 13.2974 8.25604ZM6.05965 8.25909V12.5093C6.06011 12.5666 6.04926 12.6235 6.02773 12.6766C6.00619 12.7298 5.97438 12.7782 5.93413 12.819C5.89387 12.8599 5.84596 12.8924 5.79313 12.9147C5.7403 12.937 5.68359 12.9487 5.62624 12.9491H1.13515C1.07731 12.9494 1.01997 12.9382 0.96647 12.9162C0.912967 12.8942 0.864357 12.8619 0.823453 12.821C0.782549 12.78 0.750163 12.7314 0.728169 12.6779C0.706175 12.6244 0.695009 12.5671 0.695319 12.5093V8.25092C0.696551 8.1354 0.743546 8.02508 0.825998 7.94416C0.90845 7.86324 1.01963 7.81832 1.13515 7.81925H2.5054V9.16092C2.5054 9.2525 2.51707 9.33184 2.60924 9.36859C3.11934 9.41129 3.63213 9.41129 4.14224 9.36859C4.23382 9.33125 4.2519 9.25892 4.2519 9.16675V7.81925H5.62682C5.68417 7.81963 5.74088 7.83132 5.79371 7.85364C5.84654 7.87595 5.89446 7.90847 5.93471 7.94932C5.97496 7.99017 6.00677 8.03855 6.02831 8.09171C6.04985 8.14486 6.0607 8.20174 6.06024 8.25909H6.05965Z" fill="#3074D3"/>
</svg>
