<svg width="30" height="30" viewBox="0 0 30 30" fill="none" xmlns="http://www.w3.org/2000/svg">
<circle cx="15" cy="15" r="15" fill="#3074D3"/>
<path d="M20.4965 8.4306L6.6818 12.9865C6.50276 13.0453 6.34834 13.162 6.24283 13.3181C6.13732 13.4743 6.0867 13.6611 6.09892 13.8492C6.11115 14.0372 6.18552 14.2159 6.31036 14.3571C6.4352 14.4982 6.60342 14.5939 6.78858 14.6291L12.8605 15.7866C13.1955 15.8504 13.5035 16.0134 13.7446 16.2545C13.9857 16.4956 14.1487 16.8037 14.2125 17.1386L15.3729 23.2148C15.4077 23.4003 15.5032 23.5689 15.6444 23.6941C15.7856 23.8193 15.9645 23.8939 16.1528 23.9062C16.3411 23.9186 16.5282 23.8679 16.6845 23.7621C16.8408 23.6564 16.9575 23.5016 17.0162 23.3223L21.5706 9.50469C21.6198 9.35514 21.6265 9.1949 21.59 9.04177C21.5535 8.88865 21.4752 8.74865 21.3639 8.63734C21.2526 8.52603 21.1126 8.44778 20.9595 8.41128C20.8063 8.37478 20.6461 8.38147 20.4965 8.4306Z" fill="white"/>
</svg>
