<svg width="14" height="14" viewBox="0 0 14 14" fill="none" xmlns="http://www.w3.org/2000/svg">
<path d="M3.06512 2.27345H1.49013C1.28468 2.27235 1.08704 2.35204 0.939813 2.49534C0.792589 2.63863 0.707583 2.83405 0.703125 3.03945V8.52945C0.703628 8.63163 0.724492 8.73269 0.764495 8.82671C0.804499 8.92074 0.862841 9.00585 0.936112 9.07708C1.00938 9.1483 1.09612 9.2042 1.19124 9.24153C1.28636 9.27885 1.38797 9.29684 1.49013 9.29445H3.06512C3.2704 9.29555 3.4679 9.216 3.61509 9.07292C3.76229 8.92984 3.84741 8.73467 3.85212 8.52945V3.06145C3.85226 2.95801 3.832 2.85557 3.79251 2.75997C3.75301 2.66437 3.69506 2.5775 3.62197 2.50431C3.54888 2.43112 3.46208 2.37306 3.36653 2.33345C3.27098 2.29384 3.16856 2.27345 3.06512 2.27345ZM12.2031 7.39745C12.3461 7.24298 12.445 7.05295 12.4894 6.84721C12.5338 6.64147 12.5221 6.42758 12.4556 6.2279C12.3891 6.02821 12.2701 5.85006 12.1112 5.71207C11.9522 5.57407 11.7592 5.4813 11.5521 5.44345C11.6461 5.29048 11.7042 5.11822 11.722 4.93959C11.7398 4.76095 11.7169 4.58061 11.6551 4.41209C11.5932 4.24357 11.4939 4.09127 11.3647 3.96663C11.2355 3.84199 11.0798 3.74825 10.9091 3.69245C10.9302 3.61488 10.9406 3.53482 10.9401 3.45445C10.9401 3.14123 10.8157 2.84083 10.5942 2.61935C10.3727 2.39787 10.0723 2.27345 9.75912 2.27345H8.31512C7.46339 2.27338 6.6346 2.54952 5.95312 3.06045L5.11312 3.69045C4.9688 3.7979 4.85115 3.93713 4.7693 4.09737C4.68745 4.2576 4.64359 4.43454 4.64112 4.61445V8.55245C4.64126 8.72885 4.68095 8.90298 4.75727 9.06202C4.83359 9.22106 4.9446 9.36097 5.08213 9.47145L5.48212 9.79245C7.49712 11.4264 6.59113 13.2994 8.14412 13.2994C8.30215 13.303 8.45931 13.2751 8.60642 13.2173C8.75354 13.1595 8.88766 13.0729 9.00095 12.9627C9.11425 12.8525 9.20445 12.7208 9.26629 12.5753C9.32813 12.4298 9.36037 12.2735 9.36112 12.1154C9.24738 11.2767 8.95772 10.4715 8.51113 9.75245H12.1181C12.4259 9.75605 12.7229 9.63905 12.9455 9.42648C13.1681 9.2139 13.2986 8.92265 13.3092 8.61504C13.3198 8.30743 13.2096 8.00789 13.0021 7.78052C12.7946 7.55315 12.5064 7.41601 12.1991 7.39845L12.2031 7.39745Z" fill="#AAAAAA"/>
</svg>
