<svg width="14" height="12" viewBox="0 0 14 12" fill="none" xmlns="http://www.w3.org/2000/svg">
    <path d="M10.9426 0.273448H12.5176C12.723 0.272379 12.9207 0.352092 13.0679 0.495403C13.2152 0.638713 13.3002 0.834141 13.3047 1.03956V6.52989C13.3042 6.6321 13.2833 6.73319 13.2433 6.82725C13.2033 6.92131 13.145 7.00646 13.0717 7.07771C12.9984 7.14896 12.9117 7.2049 12.8165 7.24225C12.7214 7.2796 12.6198 7.29761 12.5176 7.29523H10.9426C10.7372 7.2963 10.5397 7.21669 10.3925 7.07355C10.2453 6.93041 10.1602 6.73517 10.1555 6.52989V1.06134C10.1554 0.957907 10.1756 0.855469 10.2152 0.759883C10.2547 0.664296 10.3126 0.577434 10.3857 0.504262C10.4588 0.431089 10.5456 0.373042 10.6412 0.333438C10.7367 0.293833 10.8391 0.273448 10.9426 0.273448ZM1.80524 5.39589C1.6624 5.2414 1.56366 5.05138 1.51932 4.8457C1.47499 4.64001 1.48669 4.42619 1.5532 4.22657C1.61972 4.02695 1.73861 3.84884 1.89745 3.71085C2.0563 3.57287 2.24928 3.48006 2.45624 3.44212C2.36224 3.28921 2.30412 3.11699 2.28625 2.9384C2.26837 2.75981 2.29121 2.57948 2.35304 2.41098C2.41487 2.24248 2.51409 2.09019 2.64324 1.96555C2.77238 1.8409 2.9281 1.74715 3.09869 1.69134C3.07751 1.61353 3.06704 1.5332 3.06758 1.45256C3.06799 1.1397 3.19256 0.839789 3.41393 0.618708C3.63531 0.397626 3.93538 0.273448 4.24824 0.273448H5.69258C6.54436 0.273392 7.37319 0.549579 8.05469 1.06056L8.89469 1.69056C9.03892 1.79792 9.15652 1.93703 9.23839 2.09712C9.32025 2.25721 9.36419 2.43399 9.3668 2.61378V6.55167C9.36666 6.72812 9.32697 6.9023 9.25066 7.0614C9.17434 7.22049 9.06333 7.36046 8.9258 7.47101L8.52447 7.79145C6.50924 9.42478 7.41535 11.2984 5.86213 11.2984C5.70408 11.3022 5.54687 11.2743 5.3997 11.2166C5.25252 11.1588 5.11835 11.0723 5.00501 10.9621C4.89167 10.8519 4.80145 10.7202 4.73962 10.5746C4.67779 10.4291 4.64559 10.2728 4.64491 10.1147C4.75847 9.27602 5.0479 8.47082 5.49424 7.75178H1.88769C1.58126 7.75276 1.28651 7.63433 1.06595 7.42161C0.845383 7.20889 0.716359 6.91862 0.706242 6.61236C0.696124 6.3061 0.805708 6.00795 1.01175 5.78114C1.21779 5.55432 1.50409 5.4167 1.80991 5.39745L1.80524 5.39589Z" fill="#EF5350"/>
    </svg>
    