<svg width="12" height="18" viewBox="0 0 12 18" fill="none" xmlns="http://www.w3.org/2000/svg">
    <path d="M8.49039 8.20505L4.36339 7.09513C4.13786 7.04122 3.93635 6.91458 3.78995 6.73477C3.64356 6.55495 3.56043 6.33195 3.55339 6.10019C3.5656 5.81317 3.69126 5.54272 3.90277 5.34829C4.11428 5.15386 4.39433 5.05134 4.68139 5.06326H7.21439C7.67592 5.06209 8.12861 5.18989 8.52139 5.43224C8.63698 5.50096 8.7714 5.5312 8.90529 5.51862C9.03918 5.50604 9.16562 5.45129 9.26639 5.36224L10.5954 4.16232C10.658 4.10672 10.7068 4.03735 10.7381 3.95967C10.7693 3.88199 10.7821 3.79812 10.7754 3.71466C10.7687 3.63121 10.7427 3.55044 10.6995 3.47873C10.6563 3.40701 10.597 3.3463 10.5264 3.30138C9.56231 2.61624 8.40914 2.2476 7.22639 2.24645V0.563562C7.22292 0.486149 7.20423 0.410177 7.1714 0.339986C7.13856 0.269795 7.09222 0.206761 7.03501 0.154482C6.97781 0.102204 6.91087 0.0617065 6.83801 0.035303C6.76515 0.00889938 6.6878 -0.00289295 6.61039 0.00059951H5.38839C5.23288 -0.00509706 5.08142 0.0508668 4.96698 0.156306C4.85255 0.261745 4.7844 0.408121 4.77739 0.563562V2.25045H4.67739C4.12093 2.22582 3.56547 2.31788 3.04671 2.5207C2.52795 2.72353 2.05737 3.03264 1.66521 3.42817C1.27305 3.82369 0.967978 4.29689 0.769611 4.81734C0.571244 5.33779 0.483966 5.89398 0.513387 6.45017C0.643598 7.27267 1.01851 8.0369 1.58928 8.6433C2.16005 9.24971 2.90022 9.67018 3.71339 9.84994L7.62939 10.9049C7.85467 10.9592 8.05591 11.086 8.20222 11.2657C8.34853 11.4454 8.43185 11.6682 8.43939 11.8998C8.42717 12.1867 8.30165 12.4569 8.09036 12.6513C7.87907 12.8457 7.59928 12.9484 7.31239 12.9367H4.78439C4.32285 12.9379 3.87017 12.8101 3.47739 12.5678C3.36179 12.499 3.22737 12.4688 3.09348 12.4814C2.95959 12.494 2.83315 12.5487 2.73239 12.6378L1.40339 13.8337C1.34079 13.8893 1.29195 13.9587 1.26072 14.0363C1.22948 14.114 1.21671 14.1979 1.2234 14.2813C1.23009 14.3648 1.25606 14.4456 1.29926 14.5173C1.34247 14.589 1.40173 14.6497 1.47239 14.6946C2.43646 15.3798 3.58963 15.7484 4.77239 15.7495V17.4364C4.77585 17.5139 4.79454 17.5898 4.82738 17.66C4.86021 17.7302 4.90656 17.7932 4.96376 17.8455C5.02096 17.8978 5.0879 17.9383 5.16076 17.9647C5.23362 17.9911 5.31097 18.0029 5.38839 17.9994H6.61039C6.76589 18.0051 6.91735 17.9491 7.03179 17.8437C7.14622 17.7383 7.21437 17.5919 7.22139 17.4364V15.7426C8.07194 15.7619 8.90927 15.5296 9.62834 15.0749C10.3474 14.6203 10.9162 13.9634 11.2634 13.1867C11.4417 12.6785 11.5102 12.1383 11.4645 11.6016C11.4188 11.065 11.2598 10.5441 10.9981 10.0734C10.7363 9.60267 10.3778 9.19277 9.94603 8.87073C9.5143 8.54868 9.0192 8.3218 8.49339 8.20505H8.49039Z" fill="#919191"/>
    </svg>
    