<svg width="12" height="12" viewBox="0 0 12 12" fill="none" xmlns="http://www.w3.org/2000/svg">
    <path d="M4.18734 11.5971L5.58648 10.1974H11.3785C11.4351 10.1972 11.4892 10.2184 11.5301 10.2576C11.5711 10.2967 11.5961 10.3513 11.5984 10.4079V11.3797C11.5981 11.4378 11.574 11.4932 11.5329 11.5342C11.4917 11.5752 11.4365 11.5983 11.3785 11.5984L4.18734 11.5971ZM0.402535 11.1282C0.397072 11.0897 0.397072 11.0506 0.402535 11.0121L0.682638 8.51071L6.56479 2.62641C6.5889 2.60176 6.61773 2.58237 6.64951 2.569C6.68128 2.55563 6.71478 2.5485 6.74925 2.5485C6.78372 2.5485 6.81858 2.55563 6.85036 2.569C6.88213 2.58237 6.91097 2.60176 6.93507 2.62641L9.36308 5.05531C9.38743 5.07945 9.40592 5.1084 9.4191 5.14005C9.43229 5.1717 9.4396 5.20554 9.4396 5.23983C9.4396 5.27412 9.43229 5.30796 9.4191 5.33961C9.40592 5.37126 9.38743 5.40022 9.36308 5.42436L3.47956 11.3087L0.979136 11.593C0.961647 11.593 0.941972 11.593 0.924482 11.593C0.795704 11.5926 0.671243 11.5456 0.574696 11.4604C0.478148 11.3751 0.416112 11.2574 0.399802 11.1296L0.402535 11.1282ZM9.96291 4.46209L7.5349 2.03319C7.51022 2.00867 7.49088 1.97921 7.47752 1.94708C7.46415 1.91495 7.45702 1.88074 7.45702 1.84594C7.45702 1.81113 7.46415 1.77692 7.47752 1.74479C7.49088 1.71266 7.51022 1.6832 7.5349 1.65868L8.48862 0.704613C8.68624 0.508327 8.95343 0.398437 9.23191 0.398438C9.5104 0.398438 9.77759 0.508327 9.97521 0.704613L11.2896 2.02089C11.4853 2.21914 11.5938 2.48724 11.593 2.76583C11.5922 3.04442 11.4823 3.31089 11.2855 3.50803H11.2896L10.3359 4.46209C10.2862 4.51103 10.2185 4.53864 10.1487 4.53864C10.079 4.53864 10.0126 4.51103 9.96291 4.46209Z" fill="#AAAAAA"/>
    </svg>
    