<svg width="16" height="16" viewBox="0 0 16 16" fill="none" xmlns="http://www.w3.org/2000/svg">
    <path d="M5.66831 15.1951L7.46722 13.3956H14.914C14.9869 13.3953 15.0564 13.4225 15.109 13.4729C15.1617 13.5232 15.1939 13.5934 15.1969 13.6662V14.9157C15.1964 14.9904 15.1654 15.0615 15.1126 15.1143C15.0597 15.167 14.9887 15.1966 14.914 15.1969L5.66831 15.1951ZM0.802143 14.5923C0.795119 14.5428 0.795119 14.4925 0.802143 14.443L1.16228 11.2269L8.72504 3.66141C8.75604 3.62971 8.79311 3.60479 8.83396 3.5876C8.87481 3.57041 8.91788 3.56124 8.9622 3.56124C9.00652 3.56124 9.05135 3.57041 9.0922 3.5876C9.13306 3.60479 9.17013 3.62971 9.20112 3.66141L12.3228 6.78428C12.3541 6.81532 12.3779 6.85254 12.3949 6.89324C12.4118 6.93393 12.4212 6.97744 12.4212 7.02153C12.4212 7.06561 12.4118 7.10912 12.3949 7.14982C12.3779 7.19051 12.3541 7.22774 12.3228 7.25877L4.75832 14.8243L1.54349 15.1898C1.521 15.1898 1.4957 15.1898 1.47322 15.1898C1.30765 15.1894 1.14763 15.129 1.02349 15.0194C0.89936 14.9098 0.819599 14.7584 0.79863 14.5941L0.802143 14.5923ZM13.0941 6.02158L9.97233 2.89871C9.94059 2.86718 9.91573 2.8293 9.89855 2.78799C9.88136 2.74668 9.87219 2.70269 9.87219 2.65794C9.87219 2.6132 9.88136 2.56921 9.89855 2.5279C9.91573 2.48659 9.94059 2.44871 9.97233 2.41718L11.1985 1.19053C11.4526 0.938161 11.7961 0.796875 12.1542 0.796875C12.5123 0.796875 12.8558 0.938161 13.1099 1.19053L14.7999 2.88289C15.0514 3.13778 15.1909 3.48248 15.1898 3.84066C15.1888 4.19885 15.0476 4.54146 14.7946 4.79492H14.7999L13.5736 6.02158C13.5097 6.08449 13.4227 6.11999 13.333 6.11999C13.2433 6.11999 13.158 6.08449 13.0941 6.02158Z" fill="#919191"/>
    </svg>
    