<svg width="18" height="18" viewBox="0 0 18 18" fill="none" xmlns="http://www.w3.org/2000/svg">
<path d="M8.6959 14.3086C8.60398 14.3086 8.51325 14.291 8.42832 14.2558C8.3434 14.2207 8.26676 14.1685 8.20176 14.1035C8.13676 14.0385 8.0846 13.9619 8.04942 13.8769C8.01424 13.792 7.99668 13.6993 7.99668 13.6074V12.3476C7.99668 12.2557 8.01424 12.165 8.04942 12.0801C8.0846 11.9951 8.13676 11.9185 8.20176 11.8535C8.26676 11.7885 8.3434 11.7363 8.42832 11.7012C8.51325 11.666 8.60398 11.6484 8.6959 11.6484H9.29551C9.48116 11.6484 9.66033 11.7222 9.7916 11.8535C9.92288 11.9848 9.99668 12.162 9.99668 12.3476V13.6074C9.99668 13.7931 9.92288 13.9722 9.7916 14.1035C9.66033 14.2348 9.48116 14.3086 9.29551 14.3086H8.6959ZM4.99668 13.6582L4.43809 13.459C4.35141 13.4275 4.27168 13.3787 4.20372 13.3164C4.13575 13.2541 4.08045 13.1793 4.04161 13.0957C4.00276 13.0121 3.98092 12.9202 3.97715 12.8281C3.97338 12.736 3.98824 12.6451 4.02012 12.5586L4.44981 11.373C4.48087 11.286 4.52829 11.2051 4.59043 11.1367C4.65258 11.0683 4.72747 11.0138 4.81114 10.9746C4.89481 10.9354 4.98639 10.9122 5.07872 10.9082C5.17104 10.9042 5.26342 10.9194 5.3502 10.9512L5.91465 11.1582C6.00115 11.1898 6.08128 11.2364 6.14903 11.2988C6.21678 11.3612 6.27249 11.4379 6.31114 11.5215C6.34978 11.6051 6.37 11.6951 6.37364 11.7871C6.37727 11.8791 6.3626 11.9702 6.33067 12.0566L5.90098 13.2441C5.85069 13.3792 5.76147 13.4957 5.64317 13.5781C5.52487 13.6605 5.38303 13.7048 5.23887 13.7051C5.15443 13.7049 5.07163 13.6884 4.99278 13.6582H4.99668ZM12.108 13.2344L11.6783 12.0547C11.6464 11.9683 11.6317 11.8752 11.6354 11.7832C11.639 11.6912 11.6592 11.6012 11.6979 11.5176C11.7365 11.434 11.7922 11.3593 11.86 11.2969C11.9277 11.2345 12.0078 11.1859 12.0943 11.1543L12.6549 10.9551C12.7413 10.9231 12.8324 10.9085 12.9244 10.9121C13.0165 10.9157 13.1064 10.9359 13.19 10.9746C13.2737 11.0132 13.3503 11.069 13.4127 11.1367C13.4751 11.2045 13.5236 11.2846 13.5553 11.3711L13.985 12.5566C14.0168 12.6432 14.0317 12.734 14.0279 12.8262C14.0242 12.9183 14.0004 13.0101 13.9615 13.0937C13.9227 13.1774 13.8693 13.2521 13.8014 13.3144C13.7334 13.3768 13.6537 13.4256 13.567 13.457L13.0025 13.6562C12.916 13.6881 12.8232 13.703 12.7311 13.6992C12.6389 13.6954 12.5491 13.6736 12.4654 13.6348C12.3818 13.5959 12.307 13.5406 12.2447 13.4726C12.1824 13.4047 12.1336 13.3249 12.1022 13.2383L12.108 13.2344ZM1.17833 11.5762L0.723247 11.1894C0.652083 11.1313 0.59239 11.0597 0.549419 10.9785C0.506448 10.8973 0.47931 10.8083 0.471294 10.7168C0.463278 10.6253 0.474344 10.5327 0.502544 10.4453C0.530744 10.3579 0.57733 10.2766 0.637309 10.207L1.43614 9.23631C1.55675 9.09544 1.72795 9.00826 1.9127 8.99217C2.09745 8.97609 2.28128 9.03246 2.42442 9.15038L2.88536 9.5371C3.0263 9.65636 3.11534 9.82583 3.13145 10.0098C3.14756 10.1937 3.08936 10.3776 2.97129 10.5195L2.16075 11.4902C2.04028 11.6313 1.86901 11.7202 1.68418 11.7363C1.49935 11.7524 1.3155 11.6943 1.17247 11.5762H1.17833ZM15.8326 11.4765L15.0221 10.5117C14.904 10.3698 14.8478 10.1859 14.8639 10.0019C14.88 9.81802 14.9671 9.64854 15.108 9.52928L15.5689 9.14256C15.7119 9.02415 15.8958 8.96631 16.0807 8.98241C16.2656 8.9985 16.4369 9.08717 16.5572 9.2285L17.358 10.1933C17.4174 10.2638 17.461 10.3457 17.4889 10.4336C17.5167 10.5214 17.5281 10.6133 17.5201 10.7051C17.5121 10.7969 17.4846 10.887 17.442 10.9687C17.3994 11.0504 17.3427 11.1225 17.2721 11.1816L16.817 11.5625C16.6912 11.6698 16.5311 11.7286 16.3658 11.7285C16.2638 11.7283 16.1633 11.7053 16.0709 11.6621C15.9785 11.6189 15.8962 11.5566 15.8307 11.4785L15.8326 11.4765ZM5.18809 9.57616C3.80981 8.89062 2.6347 7.85636 1.77989 6.57616C1.72433 6.49414 1.68596 6.40219 1.66856 6.30467C1.65116 6.20715 1.65457 6.10592 1.67832 6.00975C1.70208 5.91358 1.74642 5.82428 1.80723 5.74608C1.86805 5.66788 1.94448 5.60333 2.03184 5.55663L3.00059 5.03514C3.14881 4.9514 3.32269 4.92595 3.48887 4.96288C3.65506 4.99981 3.80218 5.09573 3.90098 5.23436C4.46307 6.07247 5.22166 6.76111 6.11192 7.23631C7.00217 7.71152 7.99535 7.96033 9.0045 7.96092C10.0136 7.96152 11.0082 7.71243 11.899 7.23827C12.7898 6.76411 13.5508 6.07963 14.1139 5.24217C14.2093 5.10216 14.3532 5.00157 14.5182 4.96288C14.6831 4.92418 14.8568 4.95021 15.0045 5.03319L15.9791 5.55272C16.0661 5.59984 16.1434 5.6657 16.2037 5.74413C16.264 5.82255 16.3055 5.91163 16.3287 6.0078C16.3519 6.10397 16.3544 6.20543 16.3365 6.30272C16.3186 6.40001 16.2811 6.49261 16.2252 6.5742C15.0657 8.3306 13.3069 9.60402 11.276 10.1562C9.24511 10.7085 7.08126 10.5016 5.192 9.5742L5.18809 9.57616Z" fill="currentColor"/>
</svg>
