<svg width="18" height="18" viewBox="0 0 18 18" fill="none" xmlns="http://www.w3.org/2000/svg">
<path d="M0.996284 8.58626C1.7305 7.09064 2.86927 5.8308 4.28335 4.94971C5.69742 4.06862 7.33017 3.60156 8.99628 3.60156C10.6624 3.60156 12.2951 4.06862 13.7092 4.94971C15.1233 5.8308 16.2621 7.09064 16.9963 8.58626C17.0606 8.71353 17.0941 8.85416 17.0941 8.99677C17.0941 9.13938 17.0606 9.27998 16.9963 9.40726C16.2621 10.9029 15.1233 12.1627 13.7092 13.0438C12.2951 13.9249 10.6624 14.392 8.99628 14.392C7.33017 14.392 5.69742 13.9249 4.28335 13.0438C2.86927 12.1627 1.7305 10.9029 0.996284 9.40726C0.931953 9.27998 0.898438 9.13938 0.898438 8.99677C0.898438 8.85416 0.931953 8.71353 0.996284 8.58626ZM8.99628 13.0473C9.7973 13.0473 10.5803 12.8097 11.2463 12.3647C11.9124 11.9197 12.4315 11.2872 12.738 10.5471C13.0445 9.80709 13.1247 8.99276 12.9685 8.20714C12.8122 7.42151 12.4265 6.69989 11.8601 6.13348C11.2937 5.56708 10.572 5.18136 9.7864 5.02509C9.00078 4.86882 8.18646 4.94902 7.44642 5.25555C6.70638 5.56209 6.07385 6.08119 5.62883 6.74721C5.18381 7.41323 4.94629 8.19624 4.94629 8.99725C4.94629 9.52911 5.05104 10.0558 5.25457 10.5471C5.45811 11.0385 5.75643 11.485 6.1325 11.861C6.50858 12.2371 6.95505 12.5354 7.44642 12.739C7.93779 12.9425 8.46443 13.0473 8.99628 13.0473ZM8.99628 6.29726C9.23735 6.30074 9.47685 6.33674 9.70829 6.40427C9.51732 6.66353 9.42563 6.98265 9.44984 7.30374C9.47406 7.62483 9.61258 7.92659 9.84027 8.15428C10.068 8.38197 10.3697 8.52048 10.6908 8.54469C11.0119 8.56891 11.331 8.47722 11.5903 8.28625C11.7377 8.83011 11.711 9.40653 11.5137 9.93437C11.3164 10.4622 10.9586 10.9149 10.4906 11.2287C10.0226 11.5426 9.46795 11.7018 8.90473 11.6839C8.34152 11.666 7.79809 11.472 7.35091 11.1291C6.90374 10.7862 6.57534 10.3118 6.41193 9.77249C6.24852 9.23321 6.25833 8.65627 6.43997 8.12285C6.62161 7.58943 6.96594 7.12639 7.42451 6.7989C7.88308 6.47142 8.43279 6.29598 8.99628 6.29726Z" fill="currentColor"/>
</svg>
