<svg width="18" height="18" viewBox="0 0 18 18" fill="none" xmlns="http://www.w3.org/2000/svg">
<path d="M3.5189 6.03638L14.4745 6.03638C14.643 6.03617 14.8079 6.08603 14.9481 6.17962C15.0883 6.27321 15.1975 6.40632 15.262 6.56208C15.3264 6.71784 15.3432 6.88923 15.3101 7.05452C15.277 7.21981 15.1956 7.37155 15.0762 7.49052L9.59905 12.9689C9.51999 13.0481 9.4261 13.111 9.32274 13.1538C9.21938 13.1967 9.10859 13.2187 8.99669 13.2187C8.8848 13.2187 8.774 13.1967 8.67064 13.1538C8.56728 13.111 8.47339 13.0481 8.39433 12.9689L2.92233 7.49052C2.80322 7.37186 2.72191 7.22059 2.68867 7.05578C2.65544 6.89096 2.67175 6.72 2.73557 6.56445C2.79938 6.4089 2.90784 6.27574 3.04725 6.18176C3.18665 6.08778 3.35078 6.03719 3.5189 6.03638Z" fill="#919191"/>
</svg>
