<svg width="54" height="54" viewBox="0 0 54 54" fill="none" xmlns="http://www.w3.org/2000/svg">
    <g clip-path="url(#clip0_166_163545)">
    <path d="M29.3861 17.5456C29.6143 17.6833 29.8731 17.762 30.1392 17.7746C30.4053 17.7871 30.6703 17.7331 30.9104 17.6175C31.4667 17.3257 31.2624 16.8069 31.8096 16.2892C32.2081 15.9153 33.0365 15.5131 33.7607 15.893C34.4445 16.2507 34.8855 17.2254 34.7368 17.8981C34.5163 18.9063 33.1508 18.4463 31.9613 19.5709C30.7718 20.6956 31.3382 21.9154 30.0911 22.5294C29.5601 22.7898 28.6144 22.9844 27.9256 22.4899C26.991 21.8202 26.8231 20.1687 27.3642 19.267C27.4118 19.1879 27.5453 19.1241 27.61 18.9498C27.7577 18.5577 27.5695 17.9265 27.2307 17.6195C26.4458 16.9103 25.1299 18.1818 23.9354 17.4746C22.9623 16.8981 22.8167 15.4483 22.8056 15.3226C22.6751 13.8322 23.8281 12.4269 25.3089 12.5374C26.5095 12.6275 27.6151 13.6904 28.1471 14.5404C28.9967 15.9062 28.5527 17.0015 29.3861 17.5456Z" fill="#EEEEEE"/>
    <path d="M34.5013 20.1804C34.9282 20.4428 35.1173 20.9909 34.9616 21.5431C34.8436 21.9582 34.6014 22.327 34.2677 22.5999C33.6972 23.0649 32.8921 23.2078 32.4157 22.838C31.7623 22.3263 31.8978 20.9737 32.7191 20.3263C33.2471 19.9109 33.9713 19.8511 34.5013 20.1804Z" fill="#EEEEEE"/>
    <path d="M53.2001 52.1371C51.3876 52.5859 47.7261 50.8412 43.9341 51.2485C43.7743 51.2657 43.6246 51.286 43.485 51.3083C41.0838 51.6903 41.4621 52.7926 37.9311 53.512C35.3964 54.0287 31.2099 54.2739 29.0595 53.5292C26.9092 52.7845 27.9844 51.4633 28.0481 51.3934C28.2069 51.207 28.9179 50.3802 31.0703 50.0124C33.8771 49.5332 36.1276 50.3447 38.6624 49.7895C39.6981 49.5626 40.656 49.135 40.394 48.8179C40.0643 48.4126 38.0211 48.4855 37.6984 48.1441C37.1351 47.5483 42.2551 46.1826 43.9341 46.5615C45.1165 46.8269 43.6145 47.7337 44.5481 48.5727C44.6495 48.6615 44.76 48.7393 44.8778 48.8047C46.3758 49.6619 49.9948 49.0134 52.3313 49.8533C54.2338 50.5393 54.4898 51.8189 53.2001 52.1371Z" fill="#E5E5E5"/>
    <path d="M33.5872 48.8893C32.1095 49.2388 30.4112 49.0818 30.1139 49.0534C28.8859 48.9399 27.1118 48.5823 27.0107 48.0949C26.8772 47.4526 29.682 46.7413 32.0498 46.946C33.6681 47.0858 35.2218 47.6674 34.9932 48.2135C34.8354 48.5924 33.8785 48.8194 33.5872 48.8893Z" fill="#E5E5E5"/>
    <path d="M26.1923 52.1371C24.3798 52.5859 20.7183 50.8412 16.9263 51.2485C16.7665 51.2657 16.6168 51.286 16.4772 51.3083C14.076 51.6903 14.4543 52.7926 10.9233 53.512C8.38854 54.0287 4.2021 54.2739 2.05173 53.5292C-0.0986423 52.7845 0.976545 51.4633 1.04027 51.3934C1.19907 51.207 1.91012 50.3802 4.06252 50.0124C6.86933 49.5332 9.11983 50.3447 11.6546 49.7895C12.6903 49.5626 13.6481 49.135 13.3862 48.8179C13.0564 48.4126 11.0133 48.4855 10.6906 48.1441C10.1273 47.5483 15.2422 46.1826 16.9263 46.5615C18.1087 46.8269 16.6067 47.7337 17.5403 48.5727C17.6417 48.6615 17.7522 48.7393 17.87 48.8047C19.368 49.6619 22.987 49.0134 25.3235 49.8533C27.226 50.5393 27.4819 51.8189 26.1923 52.1371Z" fill="#E5E5E5"/>
    <path d="M6.58332 48.8893C5.10557 49.2388 3.40731 49.0818 3.10994 49.0534C1.88203 48.9399 0.107927 48.5823 0.00678062 48.0949C-0.126733 47.4526 2.67805 46.7413 5.04589 46.946C6.66423 47.0858 8.21784 47.6674 7.98925 48.2135C7.83147 48.5924 6.87462 48.8194 6.58332 48.8893Z" fill="#E5E5E5"/>
    <path d="M16.2576 53.5204C15.5021 53.0746 16.4023 52.2458 17.9893 51.9784C20.7 51.5204 24.671 52.8284 24.2775 53.3715C23.8355 53.9743 17.5564 54.2844 16.2576 53.5204Z" fill="#E5E5E5"/>
    <path d="M33.3191 29.7057C33.3656 30.6691 33.471 31.6287 33.6347 32.5791C33.7978 33.552 34.0608 34.5054 34.4195 35.4242C34.6084 35.9018 34.8382 36.3621 35.1063 36.8001C35.3758 37.2461 35.6969 37.6586 36.0632 38.0291L36.1148 38.0797L36.2685 38.2266C36.3211 38.2753 36.3777 38.3219 36.4324 38.3685C36.5335 38.4698 36.662 38.5509 36.7783 38.64C37.0264 38.8172 37.2889 38.9731 37.5632 39.1061C38.1393 39.3829 38.7579 39.5607 39.3929 39.6319C39.4738 39.6451 39.5487 39.6491 39.6245 39.6552L39.8531 39.6735L40.0807 39.6907L40.195 39.6998H40.3103C40.6138 39.6998 40.9233 39.718 41.2318 39.6998L41.4624 39.6907H41.5777L41.693 39.6785L42.1542 39.6309C42.308 39.6137 42.4576 39.5813 42.6114 39.5559L42.839 39.5164C42.9148 39.5002 42.9897 39.481 43.0645 39.4627C43.6612 39.3289 44.2388 39.121 44.784 38.8437C45.3084 38.5842 45.7917 38.2486 46.2183 37.8477C46.618 37.4717 46.9608 37.0392 47.2358 36.564C47.4851 36.1098 47.6725 35.6242 47.7931 35.1202C47.8713 34.7654 47.9174 34.4042 47.9307 34.0411C47.9367 33.9023 47.9388 33.7655 47.9367 33.6278C47.9347 33.49 47.9206 33.3795 47.9115 33.2559L47.8983 33.0705C47.8912 33.0087 47.8801 32.9479 47.871 32.8861L47.8144 32.5183C47.7881 32.3967 47.7587 32.2752 47.7304 32.1546C47.2702 30.2133 46.0524 28.4645 44.6373 26.9498C43.282 25.4874 42.0827 23.8874 41.0588 22.1757C40.5744 21.3445 40.1551 20.477 39.8046 19.5809C39.6342 19.1402 39.4896 18.6899 39.3717 18.2323C39.31 18.0064 39.2705 17.7804 39.224 17.5535C39.2078 17.44 39.1845 17.3265 39.1744 17.2151C39.1653 17.1411 39.1583 17.0641 39.1532 16.9922L38.8154 17.1016C38.694 17.1411 38.5736 17.1806 38.4512 17.2161C38.4512 17.2333 38.4512 17.2495 38.4563 17.2658C38.4664 17.3894 38.4887 17.5099 38.5038 17.6315C38.5463 17.8726 38.5888 18.1138 38.6505 18.3499C38.7661 18.8251 38.909 19.2933 39.0783 19.7521C39.4275 20.6795 39.8482 21.5782 40.3366 22.4401C41.3612 24.2014 42.567 25.8504 43.9344 27.3602L44.432 27.9336C44.5129 28.0289 44.5969 28.1221 44.6748 28.2173L44.9024 28.5091C44.9762 28.6104 45.0561 28.7026 45.1269 28.8019L45.3353 29.1059C45.402 29.2072 45.4779 29.3085 45.5376 29.4098L45.7267 29.7138C45.9715 30.1199 46.1881 30.5424 46.375 30.9783C46.4216 31.0857 46.459 31.1951 46.5005 31.3045C46.5419 31.4139 46.5885 31.5203 46.6188 31.6308C46.6805 31.8516 46.7594 32.0705 46.8009 32.2944C46.8241 32.4059 46.8504 32.5173 46.8727 32.6287L46.9202 32.9641C46.9273 33.0198 46.9364 33.0756 46.9425 33.1313L46.9526 33.2995C46.9587 33.4119 46.9678 33.5244 46.9708 33.6369C46.9739 34.0834 46.9253 34.5288 46.8262 34.9642C46.7152 35.4019 46.5468 35.823 46.3255 36.2165C46.0859 36.617 45.7903 36.9811 45.4475 37.2975C45.0861 37.6311 44.677 37.9087 44.2338 38.1213C43.7701 38.3501 43.2798 38.5203 42.7742 38.6279C42.7105 38.642 42.6468 38.6593 42.5821 38.6724L42.3798 38.7038C42.2473 38.7241 42.1178 38.7525 41.9843 38.7656L41.5797 38.8031L41.4786 38.8133H41.3774L41.1751 38.8204C40.9051 38.8356 40.6309 38.8204 40.3589 38.8143H40.2577L39.9543 38.7869L39.752 38.7697C39.6842 38.7658 39.6167 38.7583 39.5497 38.7474C38.575 38.6339 37.6682 38.1903 36.9796 37.49C36.6725 37.1792 36.403 36.8334 36.1765 36.4596L36.1279 36.3806C35.8903 35.9809 35.6873 35.5616 35.521 35.1273C35.1955 34.2578 34.9602 33.3571 34.8191 32.4393C34.6723 31.5204 34.5831 30.5932 34.552 29.6631C34.5156 28.733 34.5278 27.7989 34.5743 26.8657C34.5986 26.3997 34.6323 25.9336 34.6754 25.4675C34.7189 25.0055 34.7695 24.5334 34.8353 24.0835L33.5305 23.9548C33.4647 24.4452 33.4212 24.9153 33.3828 25.3956C33.3444 25.8758 33.3181 26.351 33.2999 26.8282C33.2695 27.7898 33.2705 28.7472 33.3191 29.7057Z" fill="#3074D3"/>
    <path d="M36.0622 38.0338L36.1138 38.0844L36.2675 38.2313C36.3201 38.28 36.3768 38.3266 36.4314 38.3732C36.5325 38.4745 36.661 38.5556 36.7773 38.6447C37.0254 38.8219 37.2879 38.9778 37.5622 39.1108C38.1383 39.3877 38.7569 39.5654 39.3919 39.6366C39.4728 39.6498 39.5477 39.6539 39.6236 39.6599L39.8521 39.6782L40.0797 39.6954L40.194 39.7045H40.3093C40.6128 39.7045 40.9223 39.7228 41.2308 39.7045L41.4614 39.6954H41.5767L41.692 39.6833L42.1532 39.6356C42.307 39.6184 42.4567 39.586 42.6104 39.5607L42.838 39.5211C42.9138 39.5049 42.9887 39.4857 43.0635 39.4674C43.6602 39.3337 44.2378 39.1257 44.783 38.8484C45.3075 38.5889 45.7908 38.2533 46.2173 37.8524C46.6171 37.4764 46.9599 37.044 47.2348 36.5687C47.4841 36.1145 47.6715 35.6289 47.7921 35.1249C47.8704 34.7701 47.9164 34.409 47.9297 34.0459C47.9186 32.2586 47.1792 30.2454 45.3181 28.2403C39.9573 22.4651 39.5234 19.4255 39.5234 19.4255L38.8154 17.1094C38.694 17.1489 38.5737 17.1884 38.4513 17.2239C38.4513 17.2411 38.4513 17.2573 38.4563 17.2735C38.4664 17.3971 38.4887 17.5177 38.5039 17.6393C38.5463 17.8804 38.5888 18.1216 38.6505 18.3576C38.7659 18.8318 38.9084 19.299 39.0774 19.7568C39.4265 20.6842 39.8472 21.5829 40.3356 22.4448C41.3602 24.2061 42.566 25.8551 43.9334 27.3649L44.431 27.9384C44.512 28.0336 44.5959 28.1268 44.6738 28.2221L44.9014 28.5139C44.9752 28.6152 45.0551 28.7074 45.1259 28.8067L45.3343 29.1106C45.401 29.2119 45.4769 29.3132 45.5366 29.4146L45.7257 29.7185C45.9705 30.1246 46.1871 30.5471 46.3741 30.983C46.4206 31.0904 46.458 31.1998 46.4995 31.3092C46.5409 31.4187 46.5875 31.525 46.6178 31.6355C46.6795 31.8564 46.7584 32.0752 46.7999 32.2991C46.8231 32.4106 46.8494 32.522 46.8717 32.6335L46.9192 32.9688C46.9263 33.0246 46.9354 33.0803 46.9415 33.136L46.9516 33.3042C46.9577 33.4167 46.9668 33.5291 46.9698 33.6416C46.9729 34.0881 46.9244 34.5335 46.8252 34.9689C46.7142 35.4066 46.5459 35.8277 46.3245 36.2212C45.8568 37.0025 45.1808 37.6377 44.3724 38.0551C43.4863 38.6052 41.6182 39.3479 38.4331 38.7957C36.8208 38.5161 36.0946 37.6579 35.8093 36.7126C35.7628 36.9902 35.8821 37.4877 36.0622 38.0338Z" fill="#255BB9"/>
    <path d="M6.6179 15.1039C11.1007 14.6905 26.0451 13.4088 31.9369 14.0998C32.5195 14.1685 33.1101 14.0923 33.6563 13.8779L39.097 11.737C39.614 11.5337 40.0586 11.1805 40.3739 10.7226C40.6893 10.2646 40.861 9.72284 40.8671 9.16656L40.9217 4.10061C40.9281 3.60796 40.7754 3.12644 40.4863 2.72784C40.1972 2.32924 39.7872 2.03494 39.3175 1.88881C29.2383 -1.21054 16.512 0.244403 11.5245 1.00936C10.8552 1.11253 10.2135 1.34993 9.63785 1.70734C9.06224 2.06475 8.56454 2.53484 8.17454 3.08944L5.17556 7.34484C4.4612 8.35978 4.13194 9.59679 4.24703 10.8333C4.33234 11.8642 4.51833 12.8843 4.80232 13.8789C4.918 14.2612 5.16179 14.5918 5.49254 14.815C5.8233 15.0381 6.22076 15.1402 6.6179 15.1039Z" fill="#AAAAAA"/>
    <path d="M39.1469 10.621C35.2265 9.77195 24.8296 8.25824 10.7733 11.8632L6.34007 14.6049C6.28939 14.6385 6.25121 14.688 6.23147 14.7456C6.21173 14.8032 6.21153 14.8658 6.2309 14.9235C6.25027 14.9812 6.28813 15.031 6.33859 15.065C6.38906 15.0989 6.4493 15.1153 6.50999 15.1115C11.0727 14.69 27.5929 13.2634 32.7868 14.2209L39.2318 11.6879C39.3433 11.644 39.4377 11.5654 39.5011 11.4637C39.5646 11.3619 39.5937 11.2425 39.5842 11.1229C39.5746 11.0033 39.527 10.89 39.4483 10.7996C39.3695 10.7092 39.2639 10.6466 39.1469 10.621Z" fill="#919191"/>
    <path d="M36.236 9.10938L28.9909 11.8734L30.9784 48.485L37.0938 50.8528L36.236 9.10938Z" fill="#919191"/>
    <path d="M16.2338 21.7778L17.6852 45.7904L25.9964 45.1825L36.9688 44.4732L36.4782 20.6511C36.4743 20.4604 36.3983 20.2783 36.2656 20.1416C36.1329 20.0049 35.9533 19.9237 35.7631 19.9145C32.15 19.7584 28.5309 19.8139 24.9242 20.0807C22.8224 20.2327 20.6559 20.4687 18.5905 20.8254C17.7742 20.9672 17.3464 20.9672 16.2338 21.7778Z" fill="#6C6C6C"/>
    <path d="M16.4679 22.779L18.4595 45.5879L26.0981 45.1827C26.3004 34.6455 25.3051 23.0718 25.0259 20.0859C22.6277 20.2592 20.1709 20.5176 17.8557 20.9563C17.4403 21.0345 17.0687 21.2641 16.8124 21.6007C16.5561 21.9373 16.4334 22.3571 16.4679 22.779Z" fill="#6C6C6C"/>
    <path d="M9.30371 36.2656C9.59501 38.6264 9.82967 40.6223 9.97937 41.9131C10.0964 42.9316 10.4611 43.9057 11.0414 44.7501L15.2541 50.8809C15.4348 51.1439 15.6715 51.3634 15.9472 51.5235C16.2229 51.6837 16.5306 51.7805 16.8482 51.807C16.9424 51.8152 17.037 51.8169 17.1314 51.812L18.0893 51.7664L18.6658 51.7391L19.3627 51.7056L36.5121 50.8799H36.5212L37.0947 50.8525L37.7086 50.8252H37.7359L37.9382 50.816C38.3115 50.7997 38.6643 50.6403 38.9237 50.3709C39.1831 50.1015 39.3293 49.7425 39.332 49.3682V49.0035L39.4453 36.2656H36.7983L36.8995 41.0763C30.2572 41.7754 22.4477 41.9415 18.1874 41.9577C18.064 40.0144 17.9274 38.1076 17.7828 36.2656H9.30371Z" fill="#AAAAAA"/>
    <path d="M18.1786 41.9586L18.3121 44.6385L18.6327 51.0408C18.6341 51.0725 18.6382 51.104 18.6449 51.1351C18.6753 51.3013 18.765 51.4508 18.8973 51.5558C19.0296 51.6607 19.1955 51.7139 19.364 51.7055L36.5154 50.8848H36.5245C36.6781 50.8752 36.8222 50.8067 36.9267 50.6935C37.0313 50.5803 37.0882 50.4311 37.0859 50.2769V50.2181L37.0778 49.8128L36.8977 41.0781C30.2534 41.7762 22.4439 41.9444 18.1786 41.9586Z" fill="#CCCCCC"/>
    <path d="M36.2392 9.11719L36.7976 36.2707L36.8987 41.0813L37.0788 49.816L37.0869 50.2213C37.0903 50.3856 37.1579 50.542 37.2751 50.657C37.3924 50.772 37.5499 50.8363 37.714 50.8363H37.7413L37.9436 50.8272H37.9891C38.3501 50.8116 38.6913 50.6577 38.9422 50.3973C39.1931 50.1369 39.3346 49.7899 39.3374 49.428V49.3814V49.0166L39.4486 36.2707L39.6641 9.70484L36.2392 9.11719Z" fill="#AAAAAA"/>
    <path d="M15.3203 50.971C15.2991 50.9426 15.2768 50.9132 15.2566 50.8828L15.295 50.9385C15.3029 50.9498 15.3113 50.9606 15.3203 50.971Z" fill="#919191"/>
    <path d="M5.8541 14.2796C6.93636 17.9747 8.39388 28.8847 9.3042 36.2658C9.62078 38.8251 9.87062 40.9599 10.0122 42.2234C10.1063 43.0374 10.398 43.8159 10.8619 44.4909L15.2951 50.9429C15.3323 50.9993 15.3873 51.0416 15.4513 51.0632C15.5153 51.0847 15.5846 51.0843 15.6483 51.062C15.712 51.0397 15.7665 50.9967 15.8031 50.9399C15.8397 50.8831 15.8563 50.8157 15.8504 50.7483C15.6744 48.3633 15.2435 42.7107 14.6478 36.2658C13.7921 27.0144 12.5925 16.0162 11.3008 10.3281L5.8541 14.2796Z" fill="#6C6C6C"/>
    <path d="M11.304 10.33C12.5956 16.0181 13.7952 27.0162 14.6509 36.2677C14.7248 37.0711 14.7966 37.8624 14.8653 38.6365C14.8649 38.6385 14.8649 38.6406 14.8653 38.6426C14.8724 38.7277 14.8805 38.8118 14.8876 38.8969C14.9604 39.7267 15.0312 40.5352 15.098 41.3174C15.098 41.3448 15.098 41.3711 15.1051 41.3975C15.1172 41.5373 15.1293 41.6761 15.1405 41.8139C15.1405 41.8271 15.1405 41.8392 15.1405 41.8514C15.1789 42.3168 15.217 42.771 15.2548 43.2141C15.279 43.512 15.3033 43.8058 15.3276 44.0936C15.3579 44.4556 15.3866 44.8082 15.4136 45.1513C15.4247 45.2871 15.4358 45.4208 15.4469 45.5566C15.538 46.6954 15.6189 47.7188 15.6856 48.5962L15.6978 48.7502C15.7059 48.8515 15.713 48.9447 15.72 49.04C15.7271 49.1352 15.7342 49.2365 15.7423 49.3318C15.7504 49.427 15.7554 49.5101 15.7625 49.5962C15.7625 49.6428 15.7686 49.6884 15.7726 49.734C15.7828 49.8606 15.7918 49.9822 15.7999 50.0998L15.809 50.2173C15.8232 50.4098 15.8364 50.5881 15.8485 50.7512V50.7614C15.8686 51.0241 15.9785 51.2718 16.1599 51.4627C16.3412 51.6536 16.5828 51.7759 16.8438 51.809C16.9107 51.8187 16.9785 51.8217 17.0461 51.8181H17.127L18.0848 51.7725C18.2388 51.7652 18.3835 51.6971 18.4876 51.5832C18.5916 51.4693 18.6465 51.3189 18.6401 51.1646C18.6401 51.1555 18.6401 51.1474 18.6401 51.1383C18.5592 48.9508 18.456 46.7897 18.3367 44.6691C18.2848 43.7585 18.2305 42.8561 18.1739 41.9618C18.0505 40.0185 17.9139 38.1117 17.7693 36.2697C16.5333 20.5298 14.6742 8.71094 14.6742 8.71094L11.304 10.33Z" fill="#AAAAAA"/>
    <path d="M39.3359 49.0078C39.0032 49.2895 38.3184 49.6978 37.0723 49.8184L37.0804 50.2236C37.0838 50.388 37.1514 50.5444 37.2686 50.6593C37.3859 50.7743 37.5434 50.8387 37.7075 50.8387H37.7348L37.9371 50.8295H37.9826C38.3436 50.814 38.6848 50.6601 38.9357 50.3997C39.1866 50.1392 39.3281 49.7922 39.3309 49.4303V49.3837L39.3359 49.0078Z" fill="#919191"/>
    <path d="M14.8704 38.6406C14.8775 38.7257 14.8856 38.8098 14.8927 38.8949C14.9665 39.7237 15.0373 40.5333 15.103 41.3154C15.103 41.3428 15.103 41.3691 15.1101 41.3955C15.1223 41.5353 15.1344 41.6741 15.1455 41.8119C15.1455 41.8251 15.1455 41.8372 15.1455 41.8494C15.1846 42.3148 15.2227 42.769 15.2598 43.2121C15.2848 43.5107 15.309 43.8038 15.3326 44.0916C15.363 44.4536 15.3917 44.8062 15.4186 45.1494C15.4298 45.2851 15.4409 45.4189 15.452 45.5546C15.543 46.6935 15.6239 47.7168 15.6907 48.5942C15.6958 48.6459 15.6988 48.6955 15.7028 48.7482C15.7109 48.8495 15.718 48.9427 15.7251 49.038C15.7322 49.1332 15.7403 49.2345 15.7474 49.3298C15.7544 49.425 15.7605 49.5081 15.7676 49.5942C15.7676 49.6408 15.7747 49.6864 15.7777 49.732C15.7878 49.8587 15.7969 49.9802 15.805 50.0978L15.8141 50.2153C15.8283 50.4078 15.8414 50.5861 15.8535 50.7493V50.7594C15.8566 50.8218 15.8403 50.8837 15.8069 50.9365C15.7736 50.9894 15.7248 51.0306 15.6671 51.0547C15.6095 51.0787 15.5459 51.0844 15.485 51.0709C15.424 51.0574 15.3687 51.0254 15.3266 50.9793C15.5085 51.2149 15.7373 51.4101 15.9985 51.5526C16.2596 51.6951 16.5475 51.7817 16.8438 51.807C16.9107 51.8167 16.9785 51.8197 17.0461 51.8161H17.127L18.0848 51.7706C18.2388 51.7632 18.3835 51.6951 18.4876 51.5812C18.5916 51.4674 18.6465 51.3169 18.6401 51.1626C18.6401 51.1535 18.6401 51.1454 18.6401 51.1363C18.5592 48.9488 18.456 46.7877 18.3367 44.6671L18.3074 44.6397C16.561 43.0513 15.3585 40.9523 14.8704 38.6406Z" fill="#919191"/>
    <path d="M18.1786 41.9586L18.3121 44.6385L18.6327 51.0408C18.6341 51.0725 18.6382 51.104 18.6449 51.1351C18.6753 51.3013 18.765 51.4508 18.8973 51.5558C19.0296 51.6607 19.1955 51.7139 19.364 51.7055L36.5154 50.8848H36.5245C36.6781 50.8752 36.8222 50.8067 36.9267 50.6935C37.0313 50.5803 37.0882 50.4311 37.0859 50.2769V50.2181L37.0778 49.8128L36.8977 41.0781C30.2534 41.7762 22.4439 41.9444 18.1786 41.9586Z" fill="#CCCCCC"/>
    <path d="M18.3091 44.6328L18.6297 51.0352C18.6311 51.0669 18.6352 51.0984 18.6418 51.1294C18.6723 51.2956 18.762 51.4452 18.8943 51.5501C19.0266 51.655 19.1924 51.7082 19.361 51.6998L36.5154 50.8791H36.5245C36.6781 50.8695 36.8222 50.801 36.9267 50.6878C37.0313 50.5746 37.0882 50.4254 37.0859 50.2712V50.2125L37.0778 49.8072C36.8593 49.8274 36.6236 49.8386 36.3697 49.8386C34.4975 49.8386 24.0754 49.9166 18.3445 44.6612L18.3091 44.6328Z" fill="#AAAAAA"/>
    <path d="M25.343 24.9197L28.5575 24.794C28.6673 24.7914 28.7755 24.767 28.8758 24.7222C28.9761 24.6773 29.0665 24.613 29.1418 24.5329C29.217 24.4527 29.2757 24.3584 29.3143 24.2554C29.3529 24.1524 29.3707 24.0428 29.3666 23.9328L29.2746 22.0929C29.2615 21.8446 29.1507 21.6116 28.9664 21.445C28.7821 21.2784 28.5394 21.1919 28.2914 21.2043L25.0183 21.3461C24.908 21.3503 24.7997 21.3767 24.6998 21.4238C24.5999 21.4709 24.5105 21.5377 24.4369 21.6202C24.3634 21.7026 24.3072 21.7991 24.2717 21.9038C24.2362 22.0085 24.2222 22.1194 24.2304 22.2296L24.369 24.0585C24.3899 24.2998 24.5027 24.5239 24.684 24.6843C24.8653 24.8446 25.1013 24.9289 25.343 24.9197Z" fill="#CCCCCC"/>
    <path d="M24.4956 31.9966L30.5957 31.7525C30.6938 31.7498 30.7905 31.7278 30.8801 31.6876C30.9696 31.6475 31.0504 31.5899 31.1177 31.5184C31.185 31.4468 31.2375 31.3626 31.2722 31.2706C31.3069 31.1787 31.3231 31.0807 31.3199 30.9824L31.1611 27.031C31.1506 26.7848 31.043 26.5528 30.8619 26.386C30.6808 26.2192 30.441 26.1313 30.1952 26.1414L23.9463 26.3977C23.8467 26.4016 23.7488 26.4257 23.6587 26.4685C23.5686 26.5113 23.488 26.5719 23.4218 26.6466C23.3557 26.7214 23.3053 26.8088 23.2738 26.9036C23.2423 26.9984 23.2302 27.0986 23.2383 27.1982L23.5296 31.1496C23.5524 31.3876 23.6651 31.6078 23.8447 31.7653C24.0243 31.9227 24.2571 32.0055 24.4956 31.9966Z" fill="#CCCCCC"/>
    <path d="M20.0693 28.5297L21.8576 28.4567C21.918 28.455 21.9774 28.441 22.0322 28.4155C22.087 28.3899 22.136 28.3535 22.1763 28.3083C22.2165 28.2632 22.2471 28.2103 22.2662 28.1529C22.2854 28.0955 22.2926 28.0348 22.2875 27.9744L22.2086 26.943C22.1982 26.8126 22.1379 26.6912 22.0402 26.6044C21.9426 26.5175 21.8152 26.4718 21.6846 26.477L19.8812 26.5509C19.8203 26.5528 19.7605 26.5673 19.7054 26.5933C19.6503 26.6194 19.6012 26.6565 19.5611 26.7024C19.521 26.7483 19.4907 26.802 19.4721 26.8601C19.4536 26.9183 19.4472 26.9796 19.4533 27.0403L19.5454 28.0707C19.5575 28.1998 19.6185 28.3194 19.716 28.4048C19.8135 28.4902 19.9399 28.5349 20.0693 28.5297Z" fill="#CCCCCC"/>
    <path d="M20.3843 32.1533L22.1452 32.0824C22.2043 32.0812 22.2625 32.0679 22.3162 32.0434C22.37 32.0189 22.4181 31.9837 22.4578 31.9398C22.4975 31.896 22.5278 31.8445 22.5469 31.7886C22.5661 31.7326 22.5736 31.6733 22.569 31.6143L22.4921 30.6153C22.4803 30.4886 22.4205 30.3712 22.3249 30.2873C22.2293 30.2035 22.1053 30.1595 21.9783 30.1644L20.2022 30.2354C20.1428 30.2368 20.0843 30.2504 20.0303 30.2754C19.9763 30.3004 19.9281 30.3363 19.8886 30.3807C19.849 30.4252 19.819 30.4773 19.8004 30.5339C19.7818 30.5904 19.775 30.6502 19.7804 30.7095L19.8694 31.7075C19.8831 31.8332 19.9439 31.9491 20.0394 32.0318C20.1349 32.1145 20.2581 32.1579 20.3843 32.1533Z" fill="#CCCCCC"/>
    <path d="M32.6581 28.0167L34.42 27.9458C34.5417 27.9411 34.6566 27.8888 34.7402 27.8001C34.8238 27.7115 34.8693 27.5936 34.8671 27.4716L34.8408 26.4585C34.8394 26.396 34.8255 26.3344 34.8 26.2773C34.7745 26.2203 34.7379 26.1689 34.6923 26.1263C34.6467 26.0836 34.593 26.0505 34.5344 26.0289C34.4759 26.0073 34.4136 25.9976 34.3513 26.0005L32.5741 26.0734C32.5134 26.0757 32.4537 26.0899 32.3985 26.1152C32.3433 26.1405 32.2935 26.1765 32.2522 26.2211C32.2109 26.2658 32.1787 26.3181 32.1576 26.3751C32.1365 26.4322 32.1268 26.4929 32.1291 26.5537L32.1665 27.5669C32.1691 27.6288 32.1839 27.6896 32.21 27.7458C32.2362 27.802 32.2732 27.8524 32.3189 27.8943C32.3646 27.9361 32.418 27.9684 32.4763 27.9894C32.5345 28.0105 32.5963 28.0197 32.6581 28.0167Z" fill="#CCCCCC"/>
    <path d="M32.7863 31.581L34.5209 31.5121C34.6398 31.5084 34.7524 31.4582 34.8347 31.3721C34.917 31.2861 34.9623 31.1712 34.9609 31.0521L34.9366 30.0693C34.9344 30.0083 34.9202 29.9484 34.8946 29.893C34.8691 29.8375 34.8329 29.7877 34.788 29.7464C34.7431 29.7052 34.6905 29.6732 34.6332 29.6525C34.5759 29.6317 34.515 29.6226 34.4542 29.6256L32.7043 29.6965C32.6451 29.6982 32.5868 29.7116 32.5327 29.7359C32.4786 29.7602 32.4298 29.7949 32.3891 29.8381C32.3485 29.8813 32.3167 29.9321 32.2956 29.9876C32.2746 30.0431 32.2646 30.1022 32.2664 30.1615L32.3028 31.1433C32.3056 31.2039 32.3204 31.2634 32.3463 31.3182C32.3722 31.3731 32.4086 31.4223 32.4536 31.463C32.4985 31.5036 32.5511 31.535 32.6081 31.5553C32.6652 31.5756 32.7258 31.5843 32.7863 31.581Z" fill="#CCCCCC"/>
    <path d="M22.1841 34.152C22.2933 35.3608 22.5442 38.1855 22.7283 40.5665C22.7536 40.8968 23.0792 41.1542 23.4505 41.137C24.4002 41.0944 26.2219 41.0113 28.0819 40.9191C29.8146 40.833 31.5806 40.7388 32.7053 40.6628C33.0411 40.6395 33.295 40.3912 33.289 40.0913C33.2647 38.9687 33.1878 36.2351 33.0078 33.8035C32.9825 33.4712 32.6639 33.2148 32.2947 33.227L27.7067 33.3769L22.789 33.539C22.4258 33.5502 22.1507 33.8248 22.1841 34.152Z" fill="#919191"/>
    <path d="M28.0819 40.9201C29.8217 40.834 31.5958 40.7397 32.7195 40.6627C33.0472 40.6394 33.295 40.3973 33.289 40.1045C33.2657 38.9899 33.1878 36.232 33.0057 33.7872C32.9815 33.465 32.673 33.2158 32.3149 33.2269L27.7067 33.3779C27.8149 34.8612 28.0172 37.9393 28.0819 40.9201Z" fill="#AAAAAA"/>
    <path d="M31.9826 37.6768C31.5022 37.5846 30.5918 37.4803 29.6977 37.7548C29.6183 37.7776 29.5474 37.8231 29.4934 37.8858C29.4395 37.9484 29.4051 38.0254 29.3943 38.1074C29.3295 38.6779 29.2335 40.0062 29.7301 40.0963C30.3612 40.2118 32.1262 40.4459 32.369 39.8937C32.546 39.4884 32.4469 38.5451 32.3801 38.0608C32.3629 37.963 32.3151 37.8731 32.2437 37.8041C32.1723 37.7351 32.0809 37.6905 31.9826 37.6768Z" fill="#6C6C6C"/>
    <path d="M26.3009 37.9737C25.8195 37.8815 24.9081 37.7771 24.018 38.0517C23.9382 38.0737 23.8667 38.1189 23.8127 38.1817C23.7587 38.2445 23.7245 38.322 23.7146 38.4043C23.657 38.9737 23.5791 40.3 24.0757 40.3902C24.7079 40.5057 26.4749 40.7397 26.7055 40.1875C26.8774 39.7822 26.7672 38.841 26.6944 38.3567C26.6759 38.2601 26.6283 38.1716 26.5579 38.1031C26.4875 38.0346 26.3978 37.9894 26.3009 37.9737Z" fill="#6C6C6C"/>
    <path d="M32.1817 37.3463C31.7124 37.2541 30.795 37.1436 29.912 37.404C29.8237 37.4259 29.7445 37.475 29.6857 37.5445C29.6269 37.614 29.5914 37.7002 29.5842 37.791C29.561 38.3726 29.565 39.6746 30.0617 39.7647C30.7019 39.8802 32.4841 40.1143 32.6915 39.5621C32.8412 39.1497 32.6682 38.1821 32.5681 37.7039C32.5463 37.6126 32.498 37.5299 32.4292 37.4662C32.3604 37.4025 32.2742 37.3608 32.1817 37.3463Z" fill="#DADADA"/>
    <path d="M26.5212 37.6509C26.0509 37.5587 25.1325 37.4483 24.2535 37.7087C24.1657 37.7304 24.087 37.7795 24.0288 37.8488C23.9707 37.9182 23.936 38.0043 23.9298 38.0947C23.9147 38.6753 23.9359 39.9762 24.4356 40.0664C25.0758 40.1819 26.8631 40.4159 27.0563 39.8637C27.2009 39.4524 27.0158 38.4858 26.9086 38.0076C26.8859 37.9167 26.8371 37.8345 26.7682 37.7711C26.6994 37.7077 26.6135 37.666 26.5212 37.6509Z" fill="#DADADA"/>
    <path d="M29.5923 35.7933L31.7619 35.7214C31.8333 35.723 31.9025 35.6964 31.9543 35.6472C32.0062 35.5981 32.0367 35.5304 32.0391 35.4589L32.0259 34.6312C32.0195 34.5508 31.9814 34.4763 31.9202 34.4241C31.8589 34.3718 31.7794 34.3461 31.6992 34.3525L29.5236 34.4245C29.4881 34.4235 29.4528 34.4296 29.4197 34.4423C29.3865 34.4551 29.3562 34.4742 29.3305 34.4987C29.3047 34.5231 29.2841 34.5524 29.2697 34.5849C29.2552 34.6174 29.2473 34.6524 29.2464 34.6879L29.2656 35.5157C29.2723 35.5958 29.3105 35.6701 29.3717 35.7221C29.4329 35.7741 29.5123 35.7997 29.5923 35.7933Z" fill="#424242"/>
    <path d="M23.9538 35.9985L26.2154 35.9154C26.246 35.9161 26.2764 35.9107 26.3049 35.8996C26.3333 35.8886 26.3594 35.8719 26.3814 35.8508C26.4035 35.8296 26.4212 35.8043 26.4335 35.7763C26.4458 35.7482 26.4525 35.7181 26.4531 35.6875L26.4268 34.7756C26.4204 34.7096 26.3884 34.6488 26.3377 34.6062C26.2871 34.5636 26.2217 34.5425 26.1557 34.5476L23.887 34.6307C23.8565 34.63 23.826 34.6354 23.7976 34.6466C23.7691 34.6578 23.7431 34.6745 23.7211 34.6958C23.699 34.7171 23.6815 34.7425 23.6693 34.7706C23.6572 34.7988 23.6508 34.829 23.6504 34.8597L23.6827 35.7716C23.6894 35.8373 23.7215 35.8979 23.7721 35.9403C23.8228 35.9827 23.888 36.0036 23.9538 35.9985Z" fill="#424242"/>
    <path d="M4.54939 32.1151C4.54939 32.2164 4.54939 32.2924 4.55748 32.3795L4.57063 32.6297C4.58075 32.7959 4.59389 32.9611 4.60907 33.1252C4.63941 33.4545 4.67684 33.7807 4.72437 34.107C4.817 34.7594 4.94258 35.4066 5.10064 36.0462C5.41044 37.3435 5.89141 38.5936 6.53085 39.7636C7.18526 40.9369 8.06019 42.0261 9.16875 42.8539C9.44502 43.0605 9.73347 43.2503 10.0325 43.4223C10.333 43.5917 10.6431 43.7436 10.9611 43.8772C11.5957 44.1377 12.2577 44.3257 12.9344 44.4375C13.6012 44.5441 14.2763 44.5895 14.9513 44.5732C15.6215 44.5602 16.2896 44.4924 16.9489 44.3706C17.6165 44.2473 18.2701 44.0576 18.9 43.8042C19.5388 43.5431 20.1423 43.2027 20.6964 42.791C20.838 42.6897 20.9695 42.5762 21.101 42.4668C21.2325 42.3574 21.3619 42.2358 21.4833 42.1102C21.6047 41.9845 21.724 41.8579 21.8414 41.7282L21.9526 41.5945C21.9557 41.591 21.9584 41.5873 21.9607 41.5833C22.0325 41.4972 22.1033 41.409 22.163 41.3168C22.3726 41.0362 22.5587 40.7387 22.7193 40.4273C22.8823 40.1176 23.0203 39.7954 23.132 39.4637C23.3539 38.805 23.4829 38.1186 23.5153 37.4242C23.5444 36.7406 23.4952 36.056 23.3687 35.3836C23.1087 34.0683 22.6351 32.8046 21.9668 31.6429C21.318 30.5009 20.5501 29.431 19.6758 28.4514C18.8149 27.4785 17.8835 26.5706 16.8892 25.735C16.397 25.3162 15.8913 24.9136 15.3721 24.5273L14.9877 24.2395C14.8653 24.1463 14.7399 24.0551 14.6195 23.9599C14.4506 23.8302 14.2857 23.6954 14.1219 23.5597L13.9044 23.3763C12.9717 22.5864 12.1409 21.6831 11.4314 20.6873C10.7406 19.6954 10.1984 18.5991 9.93949 17.4451C9.8086 16.8757 9.75686 16.291 9.78574 15.7074C9.81651 15.135 9.94479 14.572 10.165 14.0428C10.3559 13.5932 10.6186 13.1777 10.9428 12.8128C10.9954 12.754 11.044 12.6973 11.1047 12.6415C11.5099 12.2367 11.9831 11.9065 12.5025 11.6658L12.546 11.6456L12.5824 11.6192L20.042 6.37698C19.7048 6.20001 19.3677 6.01966 19.0305 5.83594L12.0069 10.7134C11.3895 11.0029 10.8258 11.3955 10.34 11.8745C9.84114 12.3736 9.44128 12.9629 9.16166 13.6112C8.88903 14.2545 8.72826 14.9399 8.68628 15.6375C8.64664 16.3242 8.70281 17.0131 8.85318 17.6842C9.14549 19.0175 9.74932 20.2415 10.4998 21.3317C11.2586 22.411 12.1492 23.3909 13.1509 24.2486C13.2675 24.3493 13.3842 24.4482 13.5008 24.5455C13.6344 24.657 13.7689 24.7664 13.9054 24.8728C14.042 24.9792 14.1633 25.0754 14.2938 25.1767L14.6691 25.4614C15.1667 25.8377 15.6516 26.2288 16.1236 26.6347C17.0686 27.4377 17.9533 28.3094 18.7706 29.2427C19.5825 30.1632 20.2945 31.1675 20.8946 32.2387C21.4952 33.2894 21.919 34.432 22.1489 35.6207C22.2547 36.1982 22.2941 36.786 22.2662 37.3725C22.2366 37.9487 22.1266 38.5179 21.9395 39.0635C21.5605 40.1494 20.8583 41.0928 19.9277 41.7667C19.459 42.1091 18.9493 42.3913 18.4105 42.6066C17.8618 42.8232 17.2929 42.9845 16.7122 43.0879C16.1227 43.1922 15.5256 43.2477 14.927 43.2541C14.3333 43.2652 13.7399 43.2225 13.1539 43.1264C12.5788 43.0277 12.0166 42.8645 11.4779 42.6401C10.9442 42.4157 10.4408 42.1246 9.97993 41.7738C9.05445 41.0747 8.30495 40.1416 7.72943 39.097C7.15651 38.0316 6.7276 36.8946 6.45398 35.7159C6.3106 35.1216 6.19751 34.5203 6.11514 33.9145C6.07266 33.6105 6.03928 33.3066 6.01399 33.0026C6.00084 32.8506 5.98972 32.6987 5.98163 32.5477L5.9705 32.3228C5.9705 32.2508 5.9705 32.1698 5.9705 32.111L4.54939 32.1151Z" fill="#3074D3"/>
    <path d="M4.5541 32.1147C4.5541 32.216 4.55409 32.292 4.56219 32.3792L4.57533 32.6294C4.58545 32.7956 4.5986 32.9607 4.61377 33.1249C4.64412 33.4542 4.68154 33.7804 4.72908 34.1067C4.8217 34.759 4.94728 35.4063 5.10534 36.0459C5.41514 37.3432 5.89611 38.5933 6.53555 39.7633C7.18997 40.9366 8.06489 42.0258 9.17346 42.8535C9.44973 43.0602 9.73817 43.25 10.0372 43.4219C10.3377 43.5914 10.6478 43.7433 10.9658 43.8769C11.6004 44.1374 12.2624 44.3254 12.9391 44.4371C13.6059 44.5437 14.281 44.5892 14.956 44.5729C15.6263 44.5598 16.2943 44.4921 16.9536 44.3703C17.6212 44.247 18.2748 44.0572 18.9047 43.8039C19.5435 43.5428 20.147 43.2024 20.7011 42.7907C20.8427 42.6894 20.9742 42.5759 21.1057 42.4665C21.2372 42.3571 21.3666 42.2355 21.488 42.1099C21.6094 41.9842 21.7287 41.8576 21.8461 41.7279L21.9573 41.5941C21.9604 41.5907 21.9631 41.5869 21.9654 41.583C22.2852 41.1797 22.5211 40.7163 22.6593 40.2202C23.4533 37.1189 23.1873 33.2688 19.4226 28.9141C19.3827 29.192 19.299 29.4618 19.1748 29.7135C19.8314 30.5047 20.414 31.3546 20.9155 32.2525C21.509 33.2999 21.9272 34.4376 22.1536 35.6204C22.2594 36.1979 22.2988 36.7857 22.2709 37.3722C22.2413 37.9484 22.1314 38.5175 21.9442 39.0632C21.5652 40.149 20.863 41.0925 19.9324 41.7664C19.4637 42.1088 18.954 42.391 18.4152 42.6063C17.8665 42.8229 17.2976 42.9841 16.7169 43.0876C16.1587 43.1866 15.5936 43.2415 15.0268 43.2517C12.9846 43.3338 10.2547 42.8738 8.19739 40.4229C6.03387 37.8453 5.86495 35.4035 6.1077 33.8017C6.0723 33.5362 6.04398 33.2698 6.02072 33.0033C6.00757 32.8513 5.99645 32.6993 5.98836 32.5484L5.97722 32.3235C5.97722 32.2515 5.97722 32.1704 5.97722 32.1117L4.5541 32.1147Z" fill="#255BB9"/>
    <path d="M5.46486 20.5607C6.17289 21.6752 7.89237 19.9528 8.6004 23.3976C9.32461 26.9215 10.2906 32.5883 8.90384 32.8203C8.22717 32.9338 7.69008 32.9216 7.4625 33.2256C7.53735 33.338 7.80943 33.4839 8.6004 33.4282C10.0164 33.3269 10.421 33.5295 10.6233 32.2124C10.8256 30.8952 10.1176 20.7633 7.89237 20.3581C5.66715 19.9528 5.46486 20.5607 5.46486 20.5607Z" fill="#255BB9"/>
    <path d="M7.08301 27.9592C7.08301 28.4658 7.18416 28.3645 7.18416 28.3645C7.18416 28.3645 7.37027 28.2146 7.88005 28.0525C8.34611 27.9104 8.82416 27.8114 9.30823 27.7566C10.9266 27.554 9.40938 27.25 9.40938 27.25C9.40938 27.25 7.58874 27.4091 7.16696 27.7992C7.14239 27.8183 7.12218 27.8425 7.10771 27.8701C7.09323 27.8977 7.08481 27.9281 7.08301 27.9592Z" fill="#255BB9"/>
    <path d="M4.65103 32.8245C5.61394 33.3068 6.39075 33.3676 6.47166 32.3351C6.50808 31.8508 6.39176 31.1254 6.06708 30.0889C5.92098 29.6267 5.83198 29.1483 5.80208 28.6644C5.73067 27.4019 6.11639 26.1561 6.88839 25.1557C6.97771 25.0374 7.07504 24.9253 7.17969 24.8203L6.92075 24.8537L4.04415 25.2256L3.53842 26.7454C3.53842 26.7454 3.23498 32.1153 4.65103 32.8245Z" fill="#98B9EA"/>
    <path d="M4.65216 32.8244C5.61507 33.3066 6.39187 33.3674 6.47279 32.335C6.37164 32.5842 6.10361 32.7494 5.46133 32.5204C4.04528 32.0138 4.14643 27.961 4.65216 27.5558C4.94447 27.3217 5.43806 27.9316 5.8032 28.6642C5.7318 27.4018 6.11752 26.1559 6.88951 25.1555C6.90165 25.0461 6.91176 24.9448 6.92188 24.8516L4.04528 25.2254L3.53955 26.7452C3.53955 26.7452 3.23611 32.1151 4.65216 32.8244Z" fill="#6F9EE0"/>
    <path d="M6.9787 27.5515C6.9787 27.5515 6.87755 29.6792 8.09131 30.4897C9.30506 31.3003 7.78787 32.1108 7.07984 30.895C6.37182 29.6792 5.96723 28.362 6.37182 27.2475C6.77641 26.133 6.9787 27.5515 6.9787 27.5515Z" fill="#3074D3"/>
    <path d="M9.20066 26.8458C9.22781 28.2775 9.39723 29.703 9.70639 31.1012C10.2121 33.3302 7.69459 33.1275 7.58232 32.6209C7.38002 31.7091 8.79607 32.5196 8.89722 31.6078C8.99836 30.6959 7.9869 28.7708 8.08805 27.0484C8.18919 25.326 9.20066 26.8458 9.20066 26.8458Z" fill="#3074D3"/>
    <path d="M6.27404 21.6819C6.88092 23.2017 8.09468 23.303 8.09468 23.303L8.39812 22.9362L9.51073 21.5806L10.2188 20.6687V19.3516L8.19582 19.4529L6.56028 21.3506L6.27404 21.6819Z" fill="#98B9EA"/>
    <path d="M8.14685 22.4602C8.19978 22.5026 8.26381 22.5289 8.33126 22.5357C8.39871 22.5426 8.4667 22.5298 8.52706 22.4988C8.58742 22.4679 8.63757 22.4202 8.6715 22.3614C8.70543 22.3026 8.72168 22.2352 8.71832 22.1674C8.69763 21.9857 8.61969 21.8154 8.4958 21.6811C8.03862 21.1319 7.25271 21.7398 8.14685 22.4602Z" fill="#B1CFF2"/>
    <path d="M5.66051 21.1719C6.26738 22.6917 8.59375 23.5022 8.59375 23.5022L8.57858 23.4607C8.4016 22.9673 8.09644 22.5301 7.69456 22.1942L7.68343 22.1851C7.46091 21.9997 7.26975 21.8487 7.10488 21.7251C6.7864 21.4851 6.41775 21.3206 6.02666 21.2438L5.66051 21.1719Z" fill="#255BB9"/>
    <path d="M8.69976 23.6021C8.69976 23.6021 9.91351 26.439 9.30664 27.3509C8.69976 28.2628 3.84474 27.3509 3.13671 26.743C2.42869 26.1351 2.65627 25.2232 2.93442 22.9942C3.03556 22.1836 4.55276 21.8797 5.26078 21.2718C5.96881 20.6639 8.39632 22.7916 8.69976 23.6021Z" fill="#98B9EA"/>
    <path d="M7.63613 24.513C7.63613 24.513 8.89742 26.742 6.6722 26.5393C4.44698 26.3367 3.8401 25.3235 4.34584 24.0064C4.85157 22.6892 6.57106 22.5879 7.63613 24.513Z" fill="#6F9EE0"/>
    <path d="M5.45921 20.5624C5.45921 20.5624 5.61599 20.0923 7.16858 20.2584C7.37964 20.2794 7.61868 20.3132 7.88571 20.3598C10.1109 20.765 10.8189 30.8969 10.6167 32.2141C10.4144 33.5312 10.0098 33.3286 8.59373 33.4299C8.35423 33.452 8.11302 33.4473 7.87458 33.4157C7.61767 33.3752 7.50135 33.2962 7.45583 33.2283C7.21814 33.4877 7.30513 33.9092 7.78456 34.4441C7.87988 34.5471 7.98837 34.6371 8.10722 34.7116C9.37357 35.5374 12.5475 35.8606 12.6396 34.8494C12.6628 34.592 12.6811 34.1006 12.6669 33.3732C12.6204 31.0195 12.236 26.1795 10.6055 18.7164C10.5673 18.5399 10.466 18.3835 10.3207 18.2766C10.1754 18.1697 9.99614 18.1196 9.81659 18.1358C8.62104 18.2442 6.14295 18.5107 5.60991 18.8916L5.52899 18.9494C4.89278 19.4033 4.77849 19.4915 5.45921 20.5624Z" fill="#3074D3"/>
    <path d="M7.78456 34.4414C7.87988 34.5444 7.98836 34.6343 8.10721 34.7089C9.37356 35.5346 12.5475 35.8578 12.6396 34.8467C12.6628 34.5893 12.6811 34.0979 12.6669 33.3704C12.3989 33.6399 11.7444 34.0361 10.2121 34.0361C8.63419 34.0361 8.01012 33.7676 7.87458 33.414C7.61767 33.3735 7.50135 33.2944 7.45583 33.2266C7.21814 33.4859 7.30513 33.9074 7.78456 34.4414Z" fill="#255BB9"/>
    <path d="M5.4625 20.5631C5.4625 20.5631 5.61928 20.093 7.17188 20.2591C7.02825 20.1973 5.47969 19.5165 5.5333 18.9531C4.89608 19.404 4.78178 19.4921 5.4625 20.5631Z" fill="#255BB9"/>
    <path d="M7.07797 27.9638C7.07797 28.4703 7.17911 28.369 7.17911 28.369C7.17911 28.369 7.36522 28.2191 7.875 28.057L7.5837 27.8624C7.5837 27.8624 7.24789 27.9486 7.16293 27.8047C7.13829 27.8236 7.11798 27.8476 7.10333 27.875C7.08868 27.9025 7.08003 27.9327 7.07797 27.9638Z" fill="#6F9EE0"/>
    <path d="M10.4173 27.3516C10.4173 27.3516 8.39435 27.6555 7.58518 27.8582C6.77601 28.0608 6.77601 28.9727 9.30467 28.5674C11.8333 28.1621 10.4173 27.3516 10.4173 27.3516Z" fill="#6F9EE0"/>
    <path d="M9.52492 19.1347C9.44633 18.9252 9.48861 18.7154 9.61934 18.6662C9.75008 18.617 9.91976 18.747 9.99834 18.9566C10.0769 19.1661 10.0346 19.3758 9.90391 19.425C9.77318 19.4742 9.6035 19.3442 9.52492 19.1347Z" fill="#6F9EE0"/>
    <path d="M11.7419 34.8421C11.603 34.8274 11.5094 34.6351 11.5328 34.4125C11.5562 34.1899 11.6878 34.0213 11.8266 34.036C11.9655 34.0506 12.0592 34.243 12.0358 34.4655C12.0124 34.6881 11.8808 34.8567 11.7419 34.8421Z" fill="#6F9EE0"/>
    <path d="M8.86284 17.6981C9.15516 19.0314 9.759 20.2554 10.5095 21.3456C11.2682 22.4249 12.1588 23.4048 13.1606 24.2625C13.2772 24.3632 13.3939 24.4621 13.5105 24.5594L14.1346 23.5675L13.9171 23.3841C12.9844 22.5943 12.1536 21.691 11.4441 20.6951C10.7533 19.7032 10.2111 18.6069 9.95219 17.4529C9.82131 16.8835 9.76957 16.2988 9.79845 15.7153C9.82922 15.1428 9.9575 14.5798 10.1777 14.0506C10.3992 13.5279 10.7181 13.0523 11.1174 12.6493C11.5226 12.2445 11.9958 11.9143 12.5152 11.6737L12.5587 11.6534L12.5951 11.627L20.0547 6.3848C19.7175 6.20783 19.3804 6.02748 19.0432 5.84375L12.0196 10.7212C11.4022 11.0107 10.8385 11.4034 10.3527 11.8824C9.85384 12.3814 9.45399 12.9707 9.17437 13.619C8.90174 14.2623 8.74096 14.9477 8.69899 15.6454C8.65778 16.3339 8.71294 17.0248 8.86284 17.6981Z" fill="#3074D3"/>
    <path d="M12.5621 11.6612L12.5186 11.6815C11.9992 11.9221 11.526 12.2524 11.1208 12.6572C11.0651 12.7129 11.0115 12.7696 10.9589 12.8284C10.527 12.8385 10.0183 13.0148 9.71282 13.6764C9.10594 14.9936 7.99333 19.3503 15.4782 25.2268C17.7459 27.007 19.3905 28.7223 20.5547 30.3586C20.5361 30.7208 20.4928 31.0813 20.4252 31.4377C19.9332 30.6713 19.3848 29.9429 18.7846 29.2583C17.9674 28.325 17.0827 27.4534 16.1376 26.6503C15.6656 26.2451 15.1808 25.854 14.6832 25.4771L14.3079 25.1924C14.1774 25.091 14.0469 24.9958 13.9195 24.8884C13.792 24.781 13.6474 24.6726 13.5149 24.5611C13.3976 24.4639 13.2809 24.3649 13.1649 24.2643C12.1632 23.4065 11.2726 22.4266 10.5139 21.3473C9.7634 20.2551 9.15955 19.0311 8.86724 17.6998C8.71688 17.0287 8.6607 16.3398 8.70034 15.6532C8.74232 14.9555 8.90309 14.2702 9.17573 13.6268C9.45534 12.9785 9.8552 12.3892 10.3541 11.8902C10.8399 11.4112 11.4036 11.0185 12.021 10.7291L19.0446 5.85156C19.3817 6.03529 19.7189 6.21563 20.056 6.3926L12.5965 11.6348L12.5621 11.6612Z" fill="#255BB9"/>
    <path d="M4.24317 10.8192C4.2634 11.0401 4.2887 11.2711 4.31803 11.5102C4.31803 11.5385 4.32511 11.5659 4.32916 11.5933C4.36051 11.8344 4.39793 12.0826 4.44143 12.3349C4.46368 12.4605 4.48694 12.5872 4.51223 12.7138C4.52538 12.7797 4.53852 12.8445 4.55268 12.9104C4.56685 12.9763 4.58101 13.0421 4.59618 13.107C4.62855 13.2478 4.66294 13.3896 4.69733 13.5305C4.71655 13.6034 4.73677 13.6764 4.75801 13.7483C4.77116 13.7949 4.78432 13.8415 4.79848 13.8881C4.79848 13.9003 4.80556 13.9124 4.81062 13.9246C4.84827 14.0415 4.89846 14.1539 4.96031 14.26C5.11072 14.4879 5.3438 14.6483 5.61018 14.7071C5.87656 14.7659 6.15534 14.7186 6.38748 14.5751L9.27116 12.7929C10.31 12.1516 11.4468 11.6854 12.6363 11.4129C25.758 8.3936 35.4175 9.81814 39.1518 10.6287C39.3441 10.67 39.5429 10.6706 39.7355 10.6307C39.9282 10.5907 40.1103 10.511 40.2705 10.3966C40.4306 10.2823 40.5652 10.1357 40.6657 9.96633C40.7662 9.79695 40.8304 9.60846 40.8541 9.41287C40.8541 9.3997 40.8541 9.38552 40.8541 9.37133C40.8541 9.35715 40.8541 9.32979 40.8541 9.30953C40.8541 9.28926 40.8541 9.27609 40.8541 9.25988V9.25279C40.8541 9.22645 40.8541 9.19909 40.8541 9.17274L40.9219 4.35502V4.08957C40.9231 3.60821 40.7724 3.13876 40.4914 2.74828C40.2104 2.3578 39.8134 2.06625 39.3571 1.91526L39.3187 1.90209C39.2095 1.86865 39.1002 1.83522 38.99 1.80077L38.9445 1.7876C38.7988 1.74403 38.6542 1.70249 38.5075 1.66196C38.3608 1.62143 38.2041 1.57888 38.0594 1.53937L37.7347 1.45527C37.5416 1.40563 37.3484 1.35396 37.1532 1.31039L36.697 1.20907C36.5827 1.18273 36.4674 1.1574 36.3521 1.13308C36.0082 1.0581 35.6623 0.987515 35.3143 0.92132C35.1606 0.892275 35.0058 0.86391 34.8501 0.836216C34.6953 0.807846 34.5405 0.781498 34.3848 0.755156L33.9175 0.679166C33.4906 0.61162 33.0625 0.550159 32.6329 0.494771C32.1225 0.427225 31.611 0.368122 31.0985 0.317463C30.9418 0.301252 30.785 0.286053 30.6272 0.271868C22.8308 -0.448511 15.1427 0.474505 11.5257 1.02467C10.3078 1.21194 9.20098 1.84075 8.41546 2.79167C8.33252 2.89299 8.25261 2.99431 8.17675 3.10374L5.16968 7.37332C4.46598 8.37709 4.13793 9.59716 4.24317 10.8192Z" fill="#AAAAAA"/>
    <path d="M10.2442 10.1709C9.8062 8.58327 9.2681 6.04016 9.29035 3.19512C9.29183 3.08141 9.2569 2.97022 9.19067 2.87786C9.12445 2.7855 9.03042 2.71683 8.92237 2.68193C8.81433 2.64702 8.69796 2.64772 8.59034 2.68392C8.48272 2.72012 8.38952 2.78991 8.3244 2.88306L4.93701 7.69369C4.39817 8.45664 4.13847 9.38238 4.20169 10.3148C4.27046 11.3351 4.43634 12.7222 4.82879 13.9826C4.87639 14.1364 4.95845 14.2773 5.06873 14.3945C5.179 14.5117 5.31456 14.6021 5.46504 14.6588C5.61552 14.7155 5.77695 14.737 5.93699 14.7216C6.09703 14.7063 6.25146 14.6545 6.38847 14.5702L9.20235 12.8184C9.63815 12.549 9.97515 12.1455 10.1629 11.6683C10.3507 11.1911 10.3792 10.6657 10.2442 10.1709Z" fill="#AAAAAA"/>
    <path d="M9.29326 3.67413C9.31327 4.8964 9.42315 6.11552 9.62199 7.32162C9.77688 8.26928 9.98147 9.20812 10.2349 10.1342C10.3584 10.592 10.6541 10.9842 11.0599 11.2284C11.4657 11.4726 11.9501 11.55 12.4116 11.4443C16.5657 10.4939 27.9881 8.36621 39.179 10.6337C39.3825 10.673 39.5921 10.6671 39.7931 10.6164C39.9941 10.5657 40.1815 10.4714 40.3421 10.3401C40.5027 10.2089 40.6326 10.044 40.7226 9.85697C40.8126 9.66995 40.8606 9.46542 40.8631 9.25782L40.9217 4.02773C40.9274 3.55861 40.7818 3.10018 40.5067 2.72052C40.2315 2.34086 39.8414 2.06023 39.3944 1.9203C29.304 -1.21046 16.5272 0.250564 11.5256 1.01755C10.8962 1.1162 10.3236 1.43941 9.91339 1.92761C9.50316 2.41581 9.28292 3.03609 9.29326 3.67413Z" fill="#CCCCCC"/>
    <path d="M9.61831 7.32031C9.7732 8.26798 9.97779 9.20682 10.2313 10.1329C10.355 10.5905 10.6507 10.9824 11.0565 11.2265C11.4622 11.4705 11.9466 11.5477 12.4079 11.442C16.562 10.4916 27.9845 8.3639 39.1753 10.6314C39.3788 10.6707 39.5885 10.6648 39.7894 10.6141C39.9904 10.5634 40.1778 10.469 40.3384 10.3378C40.499 10.2066 40.6289 10.0417 40.719 9.85465C40.809 9.66763 40.8569 9.4631 40.8594 9.2555C40.1878 9.44497 38.3853 9.6466 34.032 8.70231C28.0927 7.41251 10.8189 10.0235 9.61831 7.32031Z" fill="#AAAAAA"/>
    </g>
    <defs>
    <clipPath id="clip0_166_163545">
    <rect width="54" height="54" fill="white" transform="matrix(-1 0 0 1 54 0)"/>
    </clipPath>
    </defs>
    </svg>
    