<svg width="54" height="54" viewBox="0 0 54 54" fill="none" xmlns="http://www.w3.org/2000/svg">
    <g clip-path="url(#clip0_166_163477)">
    <path d="M32.9253 45.6065C33.9268 44.9525 35.1327 45.1291 36.205 45.9272C37.3366 46.767 36.8429 47.8578 37.8234 49.1798C38.9306 50.6737 41.3855 51.7471 43.2966 50.812C45.6202 49.6782 46.5903 45.8551 44.9034 43.5818C43.7416 42.0228 41.4505 43.5179 40.1598 41.9798C38.7923 40.3535 40.6407 38.0302 39.2094 35.7068C38.3811 34.3628 36.6303 33.2999 35.0142 33.7041C33.3982 34.1084 34.101 36.4921 32.0261 38.834C30.2555 40.8321 28.7127 40.4255 27.6798 42.24C27.0327 43.3761 26.2462 45.5961 27.3452 46.8867C28.4896 48.2284 31.0827 47.8683 32.0087 46.7264C32.2677 46.4104 32.4827 45.897 32.9253 45.6065Z" fill="#E5E5E5"/>
    <path d="M28.6608 50.0628C29.9771 49.0243 30.7973 49.5552 31.6873 48.6688C32.3669 47.9951 32.152 47.4259 32.8595 47.0042C33.416 46.6731 34.2537 46.6069 34.7509 47.0042C35.6188 47.6895 35.3318 49.633 34.6347 50.8098C33.5078 52.7103 30.9321 53.2284 29.2626 52.5523C29.1035 52.4884 27.8464 51.9819 27.8243 51.2059C27.8162 50.7389 28.2681 50.3683 28.6608 50.0628Z" fill="#E5E5E5"/>
    <path d="M30.314 33.7196C29.129 33.5872 27.5257 34.9974 27.1586 36.4263C26.8728 37.5449 27.3654 38.6009 28.3703 38.6416C29.6006 38.6904 31.1052 37.2023 31.4142 35.8199C31.6419 34.8034 31.2225 33.8207 30.314 33.7196Z" fill="#E5E5E5"/>
    <path d="M45.1261 19.1549C44.285 18.9957 43.6843 18.2325 43.4218 17.1731C43.1453 16.0579 43.8865 15.6827 43.9028 14.3642C43.919 12.8749 42.9977 10.8989 41.5257 10.4075C39.7389 9.81161 37.5582 11.5437 37.535 13.8101C37.5187 15.3655 39.4473 15.7338 39.51 17.3497C39.5821 19.062 37.5547 19.4232 37.3654 21.5804C37.2573 22.8281 37.7859 24.4137 38.8664 25.0573C39.9469 25.7009 40.5707 23.9049 42.7352 23.6529C44.5836 23.4368 45.2772 24.5206 46.6318 24.0106C47.4811 23.6923 48.8706 22.8072 48.8044 21.4445C48.7335 20.0238 47.1244 18.8215 46.116 18.9911C45.8383 19.0387 45.4991 19.2257 45.1261 19.1549Z" fill="#E5E5E5"/>
    <path d="M8.29358 16.8084C7.73941 17.3544 7.59651 18.3848 7.7487 19.1038C7.96364 20.1424 8.70021 20.1493 9.20675 21.318C9.5762 22.1636 9.85271 23.6878 9.14518 24.5625C8.47831 25.3931 7.083 25.4546 6.24883 24.8122C5.0092 23.8353 6.01648 22.0242 4.90116 19.4953C3.78584 16.9664 2.04199 17.0697 1.61445 14.7697C1.43205 13.7915 1.45993 12.214 2.30456 11.4694C3.45124 10.4529 5.6447 11.2289 6.65662 12.631C6.74492 12.7472 6.78907 12.9981 6.9947 13.2119C7.45942 13.6835 8.33657 13.7927 8.83498 13.4616C9.99677 12.703 8.72693 9.88253 9.99677 8.49201C11.0342 7.35823 12.9628 8.04361 13.1255 8.10402C15.1005 8.83703 16.583 11.4879 16.0009 13.6928C15.5292 15.4806 13.8225 16.5121 12.5608 16.7968C10.5358 17.2452 9.24625 15.8674 8.29358 16.8084Z" fill="#E5E5E5"/>
    <path d="M15.9828 18.3084C14.9152 17.8739 14.1391 19.1216 12.3244 18.6255C11.8596 18.4989 11.4426 18.291 10.9476 18.5094C10.4527 18.7278 10.0019 19.3086 9.90784 19.9347C9.71382 21.2358 11.2148 21.6656 11.6587 23.3291C12.2395 25.5107 10.2355 26.921 10.8454 28.3812C11.4263 29.7752 14.0264 30.3235 15.7505 29.2281C18.1194 27.7179 17.8266 23.7496 17.7522 22.7436C17.7046 22.0455 17.4746 18.9194 15.9828 18.3084Z" fill="#EEEEEE"/>
    <path d="M3.3577 23.0206C2.89298 23.512 2.12736 23.4621 1.4512 22.8731C0.928233 22.4012 0.529269 21.808 0.289412 21.1457C-0.145098 19.9841 -0.0974644 18.6505 0.527579 18.1521C1.38614 17.4691 3.10211 18.525 3.69927 20.192C4.07801 21.2631 3.93743 22.4108 3.3577 23.0206Z" fill="#E5E5E5"/>
    <path d="M53.9952 38.582C53.9952 38.582 53.4503 41.4374 49.362 42.8651C45.2736 44.2928 11.8036 46.292 10.2503 46.292C9.16054 46.292 7.38881 45.0072 7.93369 42.7222C8.47857 40.4372 53.9952 38.582 53.9952 38.582Z" fill="#AAAAAA"/>
    <path d="M11.8842 44.1507C11.8842 44.1507 54.271 43.5861 53.9991 38.6526C53.9988 38.6292 53.9969 38.6059 53.9933 38.5829C53.3125 33.5877 49.5285 28.7656 49.5285 28.7656C43.9066 29.681 33.2484 30.3315 24.3746 30.7474C16.3037 31.1226 9.70703 31.3015 9.70703 31.3015C12.1561 38.5829 11.8842 44.1507 11.8842 44.1507Z" fill="#DADADA"/>
    <path d="M11.8838 44.1533C11.8838 44.1533 54.2706 43.5887 53.9987 38.6551C53.1854 39.1082 51.308 39.9109 47.452 40.5847C41.7279 41.5837 22.3736 44.1463 18.5606 35.1585C18.0157 33.8737 18.6977 31.0183 23.3309 31.0183C24.2313 31.0183 24.509 30.915 24.3707 30.75C16.2998 31.1252 9.70312 31.3041 9.70312 31.3041C12.1557 38.5854 11.8838 44.1533 11.8838 44.1533Z" fill="#CCCCCC"/>
    <path d="M12.0757 43.7388C12.042 44.6461 11.5866 45.4953 10.8291 45.9367C10.3167 46.2352 9.68122 46.3398 9.00738 45.8205C7.38784 44.5787 5.34309 42.2949 5.206 36.0126C5.06891 29.7303 6.29576 27.4453 6.29576 27.4453L9.87988 31.3508C9.87988 31.3508 12.3278 36.9001 12.0757 43.7388Z" fill="#AAAAAA"/>
    <path d="M43.5952 26.7344H7.44731C5.78827 26.7344 5.7511 28.4478 6.70493 29.1611L9.15514 30.8745C9.99511 31.3648 10.6167 32.1396 11.5786 32.1013L48.7617 30.0486C49.7248 30.0103 49.9398 28.6128 49.0371 28.2596L46.5752 27.2978C45.6257 26.9261 44.615 26.735 43.5952 26.7344Z" fill="#E5E5E5"/>
    <path d="M8.47592 28.1118C8.50824 28.1513 8.54764 28.1844 8.5921 28.2094L10.889 29.5209C10.9749 29.5697 11.0632 29.615 11.1515 29.6568C11.6465 29.8897 12.1893 30.0032 12.7362 29.9879L14.4603 29.9344L15.6035 29.8984L42.7569 29.0434H42.8126L46.7743 28.9191C47.1496 28.9099 47.2449 28.3697 46.8986 28.2221L46.0656 27.8853C45.1892 27.5034 44.2427 27.3084 43.2866 27.3126H42.4827H42.277L14.839 27.4171H14.0955L8.77915 27.4369C8.70179 27.4371 8.62633 27.4608 8.56267 27.5048C8.49901 27.5487 8.45014 27.6109 8.42248 27.6831C8.39178 27.7527 8.38054 27.8294 8.38995 27.9048C8.39936 27.9803 8.42907 28.0519 8.47592 28.1118Z" fill="#6C6C6C"/>
    <path d="M7.38923 19.7384C7.38923 19.7384 8.03867 24.7986 8.41974 27.6889C8.43833 27.8375 8.45692 27.9793 8.47551 28.1152C8.50782 28.1547 8.54723 28.1877 8.59168 28.2128L10.8885 29.5243C10.9745 29.5731 11.0628 29.6184 11.1511 29.6602L43.5383 28.6147C43.653 28.6076 43.7647 28.5755 43.8656 28.5205C43.9665 28.4655 44.0541 28.3891 44.1222 28.2966C44.1904 28.2041 44.2374 28.0978 44.2599 27.9852C44.2825 27.8725 44.2801 27.7563 44.2528 27.6447V27.6226L44.1947 27.3613L42.2813 18.5907C42.0094 17.4488 41.468 17.5917 41.468 17.5917H8.61492C6.98028 17.5975 7.38923 19.7384 7.38923 19.7384Z" fill="#919191"/>
    <path d="M7.38923 19.7366C7.38923 19.7366 8.03867 24.7968 8.41974 27.687C8.43833 27.8357 8.45692 27.9775 8.47551 28.1134C8.50782 28.1528 8.54723 28.1859 8.59168 28.2109L10.8885 29.5225C10.9745 29.5713 11.0628 29.6166 11.1511 29.6584L43.5383 28.6129C43.653 28.6058 43.7647 28.5736 43.8656 28.5187C43.9665 28.4637 44.0541 28.3873 44.1222 28.2948C44.1904 28.2023 44.2374 28.096 44.2599 27.9833C44.2825 27.8707 44.2801 27.7545 44.2528 27.6429V27.6208C43.8288 27.8113 42.8831 28.0123 40.7826 28.0123C36.958 28.0123 21.6421 28.6803 20.6638 17.5898H8.61492C6.98028 17.5957 7.38923 19.7366 7.38923 19.7366Z" fill="#6C6C6C"/>
    <path d="M2.46484 4.49448C2.46504 4.85063 2.49144 5.20629 2.54385 5.55857L3.09337 9.26079C3.31644 10.771 4.81747 11.526 5.46923 10.4585C5.55248 10.3091 5.67388 10.1845 5.82105 10.0973C5.96821 10.0102 6.13586 9.96363 6.30688 9.96244C6.63683 9.96244 6.99118 10.1274 7.29208 10.4585L9.03825 12.381C9.64006 13.0432 10.4556 13.0432 10.8599 12.381L11.708 10.9952L11.7406 10.9429L11.8974 10.6873C12.3017 10.024 13.1161 10.024 13.7179 10.6873L15.3793 12.5146C15.9799 13.1768 16.7944 13.1768 17.201 12.5146L18.9437 9.66621L17.5112 0.0453053L6.0176 0H5.86076C4.81515 0.0267183 3.84505 0.569216 3.19793 1.62633C2.71579 2.41626 2.46484 3.41646 2.46484 4.49448ZM4.53515 2.16418C4.17965 2.16418 4.07044 1.88887 4.2935 1.54734C4.51657 1.20581 4.98361 0.930494 5.33911 0.930494C5.69462 0.930494 5.80383 1.20697 5.58076 1.54734C5.3577 1.88771 4.8895 2.16418 4.53515 2.16418ZM3.25719 5.50862C3.2957 5.2949 3.40608 5.10076 3.57005 4.95837C3.73401 4.81597 3.94171 4.73386 4.15873 4.72565C4.257 4.72297 4.3546 4.74252 4.44426 4.78282C4.53392 4.82313 4.61332 4.88315 4.67654 4.95842C4.73975 5.0337 4.78515 5.12227 4.80936 5.21754C4.83356 5.3128 4.83593 5.4123 4.81631 5.50862C4.77803 5.72296 4.66721 5.91763 4.50243 6.05997C4.33765 6.20232 4.12893 6.28368 3.91127 6.29042C3.8128 6.29386 3.71483 6.2749 3.62476 6.23496C3.53469 6.19502 3.45487 6.13515 3.39132 6.05986C3.32777 5.98457 3.28215 5.89583 3.25791 5.80034C3.23367 5.70485 3.23143 5.6051 3.25138 5.50862H3.25719Z" fill="#CCCCCC"/>
    <path d="M5.84375 0H6.01802C7.04853 0.0580833 8.13829 0.608713 9.0712 1.64956L9.10954 1.69022C10.0886 2.81794 10.7212 4.20435 10.9312 5.68287L11.6655 10.7466L11.7015 10.9894L11.7189 11.1055L14.089 27.4176L14.1471 27.8172L14.4538 29.9326L15.597 29.8966L42.7503 29.0416L42.5563 27.7162L42.4773 27.3119L42.3855 26.8345L38.6922 7.81801C38.3216 6.11152 37.8034 4.51191 36.8589 3.17135C36.2228 2.24048 35.4028 1.44979 34.4493 0.848015C33.6259 0.31893 32.6722 0.0278532 31.6936 0.00697015L24.4312 0H5.84375ZM13.7846 12.1382C14.0591 12.1473 14.3222 12.2503 14.5299 12.43C14.7375 12.6097 14.8772 12.8553 14.9255 13.1257C14.9502 13.2471 14.9472 13.3726 14.9166 13.4927C14.886 13.6129 14.8285 13.7245 14.7486 13.8193C14.6687 13.914 14.5684 13.9895 14.4551 14.04C14.3419 14.0905 14.2187 14.1147 14.0948 14.1107C13.8209 14.1017 13.5584 13.999 13.3511 13.8197C13.1439 13.6404 13.0045 13.3954 12.9562 13.1257C12.9309 13.0042 12.9334 12.8786 12.9636 12.7582C12.9938 12.6379 13.051 12.526 13.1307 12.4309C13.2105 12.3358 13.3107 12.2601 13.424 12.2094C13.5373 12.1587 13.6606 12.1344 13.7846 12.1382ZM12.94 7.01878C13.2141 7.02754 13.4768 7.13016 13.6843 7.30949C13.8918 7.48881 14.0314 7.73395 14.0797 8.00387C14.1046 8.12532 14.1018 8.25084 14.0713 8.37103C14.0408 8.49121 13.9836 8.60293 13.9037 8.69782C13.8239 8.79271 13.7237 8.8683 13.6105 8.91893C13.4973 8.96955 13.3741 8.99389 13.2502 8.99013C12.976 8.98127 12.7133 8.87843 12.506 8.69886C12.2987 8.51929 12.1594 8.27391 12.1116 8.00387C12.0866 7.88258 12.0895 7.75721 12.1199 7.63716C12.1503 7.51712 12.2075 7.40552 12.2872 7.31074C12.3669 7.21595 12.467 7.14045 12.5801 7.08988C12.6931 7.03932 12.8162 7.01501 12.94 7.01878ZM32.3907 0.561084C32.1583 0.660988 31.6645 0.642401 31.2811 0.519264C30.8978 0.396128 30.7746 0.213746 31.0058 0.113843C31.237 0.0139399 31.7319 0.0336881 32.1153 0.156825C32.4987 0.279961 32.623 0.461181 32.3907 0.561084ZM35.7401 3.87648C35.2498 3.909 34.6515 3.54308 34.4017 3.06331C34.1519 2.58354 34.3459 2.16186 34.8362 2.13398C35.3265 2.1061 35.926 2.46738 36.1746 2.94714C36.4232 3.42691 36.2246 3.84279 35.7401 3.87648ZM37.3561 8.9878C37.0862 8.97831 36.8272 8.87847 36.6208 8.70427C36.4143 8.53007 36.2723 8.29161 36.2176 8.02711C36.1897 7.90987 36.1894 7.78778 36.2165 7.67038C36.2437 7.55298 36.2976 7.44344 36.3741 7.35032C36.4506 7.2572 36.5475 7.18302 36.6574 7.13357C36.7673 7.08412 36.8872 7.06073 37.0076 7.06525C37.2779 7.07474 37.5371 7.17471 37.7438 7.34913C37.9505 7.52354 38.0926 7.7623 38.1473 8.02711C38.1757 8.14454 38.1763 8.26695 38.1493 8.3847C38.1223 8.50245 38.0683 8.61232 37.9916 8.70567C37.9149 8.79902 37.8176 8.87329 37.7074 8.92266C37.5971 8.97202 37.4769 8.99511 37.3561 8.99013V8.9878ZM38.2414 13.9481C37.9713 13.9389 37.712 13.8391 37.5053 13.6649C37.2987 13.4907 37.1565 13.2521 37.1017 12.9874C37.0739 12.8701 37.0736 12.748 37.1007 12.6305C37.1279 12.5131 37.1818 12.4035 37.2582 12.3103C37.3347 12.2171 37.4316 12.1428 37.5415 12.0932C37.6514 12.0436 37.7712 12.0201 37.8917 12.0244C38.1621 12.0342 38.4214 12.1344 38.628 12.309C38.8347 12.4836 38.9767 12.7225 39.0314 12.9874C39.0597 13.1048 39.0604 13.2271 39.0335 13.3447C39.0065 13.4624 38.9527 13.5722 38.8761 13.6655C38.7995 13.7588 38.7024 13.8331 38.5923 13.8826C38.4821 13.932 38.362 13.9552 38.2414 13.9504V13.9481ZM39.129 18.8422C38.8591 18.8327 38.6001 18.7329 38.3937 18.5587C38.1872 18.3845 38.0452 18.146 37.9905 17.8815C37.9624 17.7642 37.9619 17.642 37.989 17.5244C38.016 17.4069 38.0699 17.2972 38.1464 17.2039C38.2229 17.1106 38.32 17.0364 38.43 16.9868C38.54 16.9373 38.6599 16.9139 38.7805 16.9185C39.0508 16.9279 39.3102 17.028 39.5167 17.2027C39.7232 17.3774 39.865 17.6165 39.9191 17.8815C39.9472 17.9987 39.9477 18.1208 39.9207 18.2383C39.8936 18.3558 39.8397 18.4653 39.7632 18.5584C39.6866 18.6515 39.5895 18.7256 39.4795 18.7749C39.3694 18.8241 39.2495 18.8472 39.129 18.8422ZM40.0178 23.7351C39.7473 23.7258 39.4878 23.6257 39.2811 23.451C39.0744 23.2764 38.9324 23.0372 38.8781 22.7721C38.8504 22.6549 38.8502 22.5328 38.8775 22.4155C38.9049 22.2981 38.9589 22.1887 39.0355 22.0957C39.1121 22.0027 39.2092 21.9286 39.3191 21.8793C39.429 21.83 39.5489 21.8068 39.6693 21.8114C39.9392 21.8209 40.1982 21.9208 40.4046 22.095C40.6111 22.2692 40.7531 22.5076 40.8078 22.7721C40.8359 22.8895 40.8364 23.0119 40.8093 23.1295C40.7822 23.2471 40.7282 23.3569 40.6515 23.4502C40.5749 23.5435 40.4777 23.6178 40.3675 23.6672C40.2574 23.7166 40.1373 23.7399 40.0166 23.7351H40.0178ZM39.7913 27.2294C39.8443 27.0706 39.9476 26.9334 40.0855 26.8385C40.2234 26.7436 40.3884 26.6961 40.5557 26.7032C40.8463 26.7072 41.1249 26.8199 41.3364 27.0192C41.5229 27.1881 41.65 27.4125 41.6989 27.6592C41.7268 27.7765 41.7271 27.8986 41.7 28.016C41.6728 28.1334 41.6189 28.2429 41.5424 28.336C41.4659 28.4291 41.369 28.5033 41.2591 28.5528C41.1492 28.6022 41.0293 28.6256 40.9089 28.6211C40.6386 28.6116 40.3794 28.5116 40.1727 28.3372C39.966 28.1628 39.8239 27.9241 39.7692 27.6592C39.7402 27.5165 39.7473 27.3687 39.7901 27.2294H39.7913ZM16.157 27.1888C16.4311 27.1977 16.694 27.3004 16.9016 27.4796C17.1092 27.6589 17.2491 27.9039 17.2978 28.1739C17.3231 28.2954 17.3203 28.4211 17.2899 28.5415C17.2595 28.6619 17.2021 28.7738 17.1221 28.8687C17.0421 28.9637 16.9416 29.0393 16.8281 29.0898C16.7147 29.1402 16.5913 29.1643 16.4672 29.1601C16.1931 29.151 15.9305 29.0481 15.7232 28.8686C15.5159 28.6891 15.3766 28.4438 15.3286 28.1739C15.3037 28.0527 15.3065 27.9274 15.3368 27.8074C15.3672 27.6875 15.4243 27.576 15.5038 27.4812C15.5834 27.3864 15.6834 27.3109 15.7963 27.2603C15.9092 27.2096 16.0321 27.1852 16.1558 27.1888H16.157ZM15.3669 22.1715C15.6412 22.1803 15.9041 22.2831 16.1116 22.4627C16.3191 22.6423 16.4586 22.8877 16.5067 23.1578C16.5317 23.2792 16.5288 23.4047 16.4983 23.5248C16.4679 23.6449 16.4106 23.7566 16.3307 23.8514C16.2509 23.9462 16.1506 24.0217 16.0374 24.0722C15.9242 24.1227 15.801 24.1468 15.6771 24.1429C15.4031 24.1339 15.1404 24.0312 14.933 23.8519C14.7256 23.6726 14.5859 23.4276 14.5374 23.1578C14.5125 23.0364 14.5153 22.911 14.5457 22.7909C14.5761 22.6708 14.6333 22.5592 14.713 22.4643C14.7927 22.3694 14.8928 22.2938 15.0058 22.2431C15.1189 22.1924 15.2419 22.168 15.3658 22.1715H15.3669ZM14.5758 17.1555C14.6665 17.1555 14.7568 17.168 14.8441 17.1926C15.0643 17.252 15.2632 17.3725 15.4176 17.5403C15.572 17.7081 15.6757 17.9162 15.7166 18.1406C15.7299 18.2295 15.7299 18.32 15.7166 18.4089C15.6931 18.6115 15.5943 18.7979 15.4398 18.9311C15.2853 19.0643 15.0864 19.1346 14.8825 19.128C14.6081 19.1189 14.3452 19.0159 14.1377 18.8361C13.9302 18.6564 13.7908 18.4108 13.7428 18.1406C13.7177 18.019 13.7206 17.8933 13.7512 17.773C13.7818 17.6527 13.8393 17.5409 13.9194 17.446C13.9995 17.3512 14.1001 17.2757 14.2136 17.2254C14.3271 17.1751 14.4505 17.1512 14.5746 17.1555H14.5758ZM11.5632 2.28616C12.086 2.22575 12.7332 2.59748 13.0085 3.11559C13.2839 3.63369 13.0817 4.10068 12.5577 4.16108C12.0338 4.22149 11.389 3.84976 11.1136 3.33282C10.8383 2.81588 11.0381 2.34656 11.5621 2.28732L11.5632 2.28616ZM8.39853 0.163795C8.682 0.0360116 9.29659 0.0476283 9.77292 0.19516C10.2493 0.342691 10.4038 0.561084 10.1215 0.688867C9.83915 0.816651 9.2234 0.805034 8.74706 0.657502C8.27073 0.509971 8.11505 0.291578 8.39853 0.163795Z" fill="#EEEEEE"/>
    <path d="M11.668 10.75L11.704 10.9928L11.7214 11.109L14.0915 27.4211L14.1496 27.8207L14.4563 29.9361L15.5995 29.9L42.7528 29.0451L42.5576 27.7184L42.4786 27.3142L42.3869 26.8367C42.1208 26.8913 41.7665 26.9529 41.3331 27.0249C41.5196 27.1938 41.6467 27.4183 41.6956 27.665C41.7234 27.7822 41.7238 27.9043 41.6966 28.0217C41.6695 28.1391 41.6156 28.2487 41.5391 28.3418C41.4626 28.4349 41.3656 28.5091 41.2557 28.5585C41.1458 28.608 41.026 28.6314 40.9056 28.6269C40.6353 28.6174 40.376 28.5174 40.1694 28.343C39.9627 28.1686 39.8206 27.9298 39.7659 27.665C39.7375 27.5204 39.7463 27.3709 39.7914 27.2305C39.0316 27.3142 38.1579 27.385 37.1971 27.4199C37.2064 27.4468 37.2138 27.4744 37.2192 27.5024C37.2364 27.5869 37.2351 27.6742 37.2155 27.7582C37.1959 27.8422 37.1584 27.921 37.1056 27.9893C37.0528 28.0575 36.9859 28.1136 36.9095 28.1536C36.833 28.1937 36.7489 28.2168 36.6627 28.2214L31.7727 28.3376L27.5647 28.4387H27.5508C27.4103 28.4365 27.2753 28.3843 27.1699 28.2915C27.0644 28.1986 26.9956 28.0712 26.9757 27.9322C26.9597 27.8473 26.962 27.76 26.9825 27.6761C27.003 27.5923 27.0412 27.5137 27.0946 27.4458C27.148 27.3779 27.2153 27.3223 27.292 27.2825C27.3686 27.2428 27.4529 27.2199 27.5392 27.2154L29.2087 27.1771L31.3719 27.1283C27.9272 26.6427 24.1561 25.502 20.7218 23.1531L19.8446 23.1694H19.8365C19.6957 23.167 19.5603 23.1143 19.455 23.0207C19.3497 22.9272 19.2815 22.799 19.2626 22.6594C19.2481 22.5727 19.2523 22.4839 19.275 22.3989C19.2976 22.314 19.3382 22.2348 19.3939 22.1668C18.0241 21.0653 16.7912 19.8036 15.7215 18.4089C15.698 18.6115 15.5992 18.7979 15.4446 18.9311C15.2901 19.0643 15.0912 19.1345 14.8873 19.1279C14.6129 19.1189 14.35 19.0158 14.1425 18.8361C13.935 18.6563 13.7956 18.4108 13.7476 18.1405C13.7226 18.0192 13.7254 17.8938 13.7558 17.7738C13.7863 17.6538 13.8435 17.5422 13.9232 17.4474C14.0029 17.3526 14.103 17.2771 14.216 17.2265C14.3291 17.176 14.4521 17.1517 14.5759 17.1554C14.6667 17.1555 14.757 17.168 14.8443 17.1926C13.5491 15.247 12.5049 13.1455 11.7365 10.9382C11.7121 10.8743 11.69 10.8127 11.668 10.75ZM16.1571 27.191C16.4313 27.2 16.6941 27.3026 16.9018 27.4819C17.1094 27.6612 17.2492 27.9062 17.298 28.1761C17.3232 28.2977 17.3205 28.4234 17.2901 28.5438C17.2596 28.6642 17.2022 28.7761 17.1223 28.871C17.0423 28.966 16.9418 29.0416 16.8283 29.092C16.7149 29.1425 16.5914 29.1666 16.4673 29.1624C16.1933 29.1533 15.9306 29.0504 15.7234 28.8709C15.5161 28.6913 15.3768 28.4461 15.3288 28.1761C15.3038 28.0548 15.3066 27.9295 15.337 27.8094C15.3674 27.6894 15.4246 27.5778 15.5044 27.483C15.5841 27.3882 15.6842 27.3127 15.7972 27.2621C15.9103 27.2116 16.0333 27.1873 16.1571 27.191ZM15.3671 22.1738C15.6414 22.1826 15.9043 22.2854 16.1118 22.465C16.3193 22.6445 16.4587 22.8899 16.5068 23.1601C16.5318 23.2815 16.529 23.4069 16.4985 23.5271C16.468 23.6472 16.4107 23.7589 16.3309 23.8537C16.2511 23.9485 16.1508 24.024 16.0376 24.0744C15.9244 24.1249 15.8012 24.1491 15.6773 24.1452C15.4033 24.1362 15.1406 24.0335 14.9332 23.8542C14.7257 23.6749 14.5861 23.4299 14.5376 23.1601C14.5126 23.0386 14.5155 22.9131 14.546 22.7929C14.5764 22.6727 14.6337 22.561 14.7135 22.4661C14.7933 22.3712 14.8936 22.2956 15.0068 22.245C15.12 22.1944 15.2432 22.17 15.3671 22.1738Z" fill="#DADADA"/>
    <path d="M8.23413 41.1441C9.50796 40.8662 10.0391 38.343 9.42053 35.5086C8.80193 32.6741 7.26781 30.6016 5.99398 30.8796C4.72015 31.1575 4.18897 33.6806 4.80758 36.5151C5.42618 39.3496 6.9603 41.422 8.23413 41.1441Z" fill="#CCCCCC"/>
    <path d="M6.02528 30.875C6.02528 30.875 4.50217 31.7741 4.17338 32.2481C3.8446 32.722 6.43423 40.8642 6.43423 40.8642C6.43423 40.8642 7.38806 41.4357 8.20596 41.1499C9.02386 40.8642 8.88677 36.8669 7.79701 34.0115C6.70725 31.1561 6.02528 30.875 6.02528 30.875Z" fill="#CCCCCC"/>
    <path d="M6.58568 40.8963C7.69088 40.6551 8.15166 38.4657 7.61487 36.0061C7.07807 33.5464 5.74697 31.748 4.64177 31.9891C3.53657 32.2303 3.07578 34.4197 3.61258 36.8793C4.14937 39.339 5.48048 41.1374 6.58568 40.8963Z" fill="#DADADA"/>
    <path d="M23.9411 7.03635L32.866 7.02589C32.9483 7.02335 33.0291 7.00284 33.1026 6.96579C33.1762 6.92873 33.2407 6.87604 33.2918 6.8114C33.3428 6.74676 33.3791 6.67173 33.3981 6.59159C33.417 6.51145 33.4182 6.42813 33.4016 6.34748C33.3811 6.21945 33.3162 6.10272 33.2183 6.01775C33.1204 5.93278 32.9956 5.88501 32.866 5.88281H23.9388C23.857 5.8852 23.7767 5.90534 23.7034 5.94183C23.6302 5.97833 23.5657 6.03031 23.5146 6.09418C23.4634 6.15805 23.4267 6.23227 23.4071 6.31171C23.3875 6.39115 23.3854 6.47391 23.4009 6.55425V6.56471C23.42 6.69479 23.4849 6.81377 23.5839 6.90024C23.683 6.9867 23.8096 7.03497 23.9411 7.03635Z" fill="#6F9EE0"/>
    <path d="M24.8267 12.2795L33.7957 12.2179C33.8789 12.2149 33.9605 12.1938 34.0347 12.156C34.109 12.1183 34.1741 12.0648 34.2256 11.9994C34.2771 11.934 34.3138 11.8581 34.333 11.7771C34.3523 11.6961 34.3537 11.6118 34.3371 11.5302C34.3162 11.3997 34.2499 11.2807 34.1497 11.1944C34.0496 11.1081 33.9221 11.06 33.7899 11.0586L24.8185 11.1074C24.7359 11.1103 24.6548 11.131 24.5809 11.1682C24.507 11.2054 24.442 11.2581 24.3905 11.3228C24.3389 11.3875 24.302 11.4626 24.2822 11.5429C24.2624 11.6232 24.2603 11.7069 24.276 11.7881V11.7997C24.2956 11.9322 24.3619 12.0532 24.4628 12.1412C24.5638 12.2291 24.6928 12.2782 24.8267 12.2795Z" fill="#6F9EE0"/>
    <path d="M25.7239 17.5926L34.7371 17.4764C34.8213 17.473 34.9037 17.4514 34.9787 17.4131C35.0537 17.3747 35.1194 17.3205 35.1714 17.2542C35.2233 17.1879 35.2602 17.1111 35.2795 17.0291C35.2988 16.9471 35.3001 16.8619 35.2831 16.7794C35.2617 16.6466 35.194 16.5257 35.0919 16.4381C34.9898 16.3504 34.86 16.3018 34.7255 16.3008L25.71 16.4018C25.6264 16.4052 25.5446 16.4265 25.4701 16.4644C25.3955 16.5023 25.33 16.5558 25.2781 16.6213C25.2261 16.6868 25.1889 16.7628 25.169 16.844C25.1491 16.9252 25.147 17.0098 25.1628 17.0919V17.1035C25.1823 17.2387 25.2496 17.3624 25.3526 17.4522C25.4556 17.5419 25.5873 17.5917 25.7239 17.5926Z" fill="#6F9EE0"/>
    <path d="M29.207 27.1793C30.0772 27.6079 30.9358 27.9924 31.7711 28.3409L36.6611 28.2248C36.7472 28.2202 36.8314 28.197 36.9078 28.157C36.9842 28.1169 37.0511 28.0608 37.1039 27.9926C37.1567 27.9244 37.1942 27.8456 37.2138 27.7615C37.2334 27.6775 37.2347 27.5903 37.2176 27.5057C37.2121 27.4777 37.2048 27.4502 37.1955 27.4232C35.249 27.4967 33.2998 27.3996 31.3703 27.1328L29.207 27.1793Z" fill="#3074D3"/>
    <path d="M31.3711 27.1275C33.3006 27.3942 35.2498 27.4914 37.1963 27.4179C37.1602 27.3004 37.0878 27.1975 36.9894 27.1238C36.8911 27.0501 36.772 27.0095 36.6491 27.0078H36.6363L31.3711 27.1275Z" fill="#6F9EE0"/>
    <path d="M26.6364 22.9763L35.6984 22.8114C35.7835 22.8072 35.8667 22.7847 35.9424 22.7454C36.018 22.7061 36.0842 22.6509 36.1365 22.5836C36.1889 22.5163 36.226 22.4385 36.2454 22.3555C36.2648 22.2725 36.2661 22.1863 36.2491 22.1028C36.2266 21.9675 36.157 21.8446 36.0526 21.7557C35.9482 21.6669 35.8157 21.6178 35.6786 21.6172L26.6166 21.7705C26.5325 21.7744 26.4501 21.7963 26.3751 21.8347C26.3001 21.8732 26.2342 21.9272 26.1819 21.9933C26.1296 22.0594 26.0921 22.1359 26.0719 22.2177C26.0517 22.2995 26.0493 22.3847 26.0648 22.4675V22.4791C26.0848 22.6167 26.1535 22.7425 26.2584 22.8337C26.3633 22.925 26.4974 22.9756 26.6364 22.9763Z" fill="#6F9EE0"/>
    <path d="M17.26 7.05113H19.0666C19.1492 7.04867 19.2303 7.02836 19.3044 6.99159C19.3784 6.95482 19.4436 6.90246 19.4955 6.83812C19.5473 6.77378 19.5847 6.69897 19.6049 6.61883C19.6251 6.5387 19.6278 6.45513 19.6126 6.37388C19.5939 6.24159 19.5286 6.1203 19.4286 6.03175C19.3285 5.9432 19.2002 5.89317 19.0666 5.89062H17.2589C17.1763 5.89292 17.0952 5.91308 17.0212 5.94972C16.9471 5.98636 16.8819 6.0386 16.83 6.10286C16.7781 6.16712 16.7408 6.24186 16.7205 6.32193C16.7003 6.40201 16.6977 6.48552 16.7128 6.56671C16.7309 6.6996 16.7961 6.82159 16.8965 6.91049C16.9969 6.99938 17.1259 7.04929 17.26 7.05113Z" fill="#6F9EE0"/>
    <path d="M18.1192 12.3915L19.9281 12.3811C20.0117 12.3781 20.0937 12.3572 20.1684 12.3197C20.2432 12.2821 20.309 12.2289 20.3613 12.1636C20.4136 12.0983 20.4512 12.0225 20.4714 11.9413C20.4917 11.8601 20.4942 11.7756 20.4788 11.6933C20.4596 11.5585 20.3929 11.435 20.2906 11.3451C20.1883 11.2552 20.0573 11.2048 19.9211 11.2031L18.111 11.2136C18.0276 11.2165 17.9459 11.2374 17.8713 11.2748C17.7967 11.3122 17.7311 11.3652 17.6788 11.4303C17.6266 11.4953 17.5889 11.5708 17.5685 11.6517C17.548 11.7326 17.5453 11.8169 17.5603 11.899C17.5792 12.0343 17.646 12.1584 17.7485 12.2488C17.851 12.3391 17.9825 12.3898 18.1192 12.3915Z" fill="#6F9EE0"/>
    <path d="M18.9633 17.6756L20.7746 17.6524C20.859 17.6488 20.9416 17.6271 21.017 17.5889C21.0923 17.5506 21.1585 17.4966 21.2112 17.4305C21.2638 17.3644 21.3017 17.2878 21.3221 17.2058C21.3426 17.1239 21.3453 17.0385 21.3299 16.9554C21.3102 16.8182 21.2422 16.6926 21.138 16.6012C21.0338 16.5098 20.9004 16.4587 20.7618 16.457L18.9494 16.4779C18.8648 16.4812 18.7819 16.5026 18.7063 16.5407C18.6308 16.5789 18.5643 16.6329 18.5115 16.699C18.4587 16.7652 18.4208 16.8419 18.4003 16.924C18.3798 17.0062 18.3773 17.0917 18.3929 17.1749C18.4121 17.3129 18.4803 17.4394 18.585 17.5313C18.6897 17.6232 18.824 17.6744 18.9633 17.6756Z" fill="#6F9EE0"/>
    <path d="M21.2305 21.9304C21.5759 22.2348 21.9264 22.5287 22.2819 22.8121L22.247 22.5961C22.2203 22.4104 22.1276 22.2405 21.986 22.1175C21.8444 21.9944 21.6632 21.9264 21.4756 21.9258L21.2305 21.9304Z" fill="#6F9EE0"/>
    <path d="M20.7168 28.6025L22.5315 28.5595C22.618 28.5548 22.7025 28.5318 22.7793 28.4919C22.8562 28.452 22.9237 28.3961 22.9772 28.328C23.0308 28.26 23.0692 28.1813 23.0899 28.0972C23.1106 28.0131 23.1131 27.9256 23.0973 27.8404C23.0771 27.6979 23.0059 27.5675 22.897 27.4733C22.7881 27.3791 22.6488 27.3275 22.5048 27.3281L20.6901 27.3699C20.6038 27.3743 20.5194 27.3971 20.4426 27.4366C20.3658 27.4762 20.2983 27.5317 20.2446 27.5994C20.191 27.6672 20.1524 27.7456 20.1314 27.8294C20.1105 27.9132 20.1076 28.0005 20.1231 28.0855C20.1423 28.2291 20.2132 28.3608 20.3224 28.456C20.4317 28.5511 20.5719 28.6032 20.7168 28.6025Z" fill="#3074D3"/>
    <path d="M26.9756 27.932C26.9955 28.0711 27.0643 28.1985 27.1697 28.2913C27.2751 28.3841 27.4102 28.4363 27.5507 28.4385H27.5646L31.7726 28.3374C30.9373 27.9889 30.0787 27.6056 29.2085 27.1758L27.539 27.2141C27.4527 27.2186 27.3683 27.2415 27.2915 27.2813C27.2147 27.3211 27.1474 27.3769 27.094 27.4449C27.0406 27.5129 27.0024 27.5916 26.982 27.6756C26.9615 27.7597 26.9594 27.8471 26.9756 27.932Z" fill="#3074D3"/>
    <path d="M19.2625 22.6605C19.2814 22.8001 19.3497 22.9283 19.455 23.0218C19.5603 23.1154 19.6956 23.1681 19.8365 23.1705H19.8434L20.7206 23.1542C20.2706 22.8491 19.8279 22.5203 19.3927 22.168C19.3371 22.2361 19.2968 22.3152 19.2744 22.4002C19.2519 22.4851 19.2479 22.5739 19.2625 22.6605Z" fill="#3074D3"/>
    <path d="M19.3906 22.1667C19.8267 22.5198 20.2693 22.8486 20.7186 23.1529L22.0256 23.1297C22.0639 23.1277 22.1014 23.1175 22.1355 23.0999C22.1697 23.0822 22.1996 23.0575 22.2235 23.0274C22.2473 22.9973 22.2645 22.9625 22.2738 22.9252C22.2832 22.888 22.2845 22.8492 22.2777 22.8114C21.9222 22.5279 21.5717 22.234 21.2263 21.9297L19.8228 21.9529C19.7397 21.9555 19.6581 21.976 19.5835 22.0128C19.5089 22.0497 19.4432 22.1022 19.3906 22.1667Z" fill="#6F9EE0"/>
    <path d="M22.6449 2.26346L31.5652 2.25532C31.9067 2.25532 31.9974 2.00905 31.7545 1.74303C31.5503 1.53269 31.2736 1.40807 30.9808 1.39453H22.0536C21.7143 1.39453 21.6214 1.63616 21.8584 1.89986L21.8654 1.90799C22.0698 2.12234 22.349 2.24966 22.6449 2.26346Z" fill="#6F9EE0"/>
    <path d="M15.9649 2.27043H17.7715C18.1201 2.27043 18.2095 2.02532 17.9714 1.75929C17.7646 1.53942 17.4805 1.4086 17.179 1.39453H15.3713C15.0285 1.39453 14.9333 1.63732 15.1691 1.90334C15.3767 2.12429 15.6621 2.25591 15.9649 2.27043Z" fill="#6F9EE0"/>
    <path d="M1.16876 22.687L1.84144 22.4872C2.50066 22.2894 3.18514 22.1884 3.87341 22.1875H4.42642C4.60815 22.5853 4.84991 22.9528 5.14324 23.2771C5.42905 23.5745 5.75551 23.8057 6.05293 24.0903C6.35035 24.3749 6.66287 24.6909 6.96609 24.9941C7.55945 25.6026 8.19246 26.1711 8.86097 26.6959C9.2873 27.0065 9.7319 27.2913 10.1924 27.5486L0 39.7182V24.476C0 23.6256 0.482143 22.8926 1.16876 22.687Z" fill="#6F9EE0"/>
    <path d="M3.57031 23.0584L4.58456 24.27C4.81898 24.5525 5.09848 24.7943 5.41175 24.9856C5.78654 25.2153 6.20987 25.3541 6.64789 25.3911H6.66997L11.4333 25.7396L11.5355 25.7477C12.6251 25.8679 13.6409 26.3569 14.4145 27.1336L16.0991 28.775C16.3481 29.0331 16.6666 29.2137 17.016 29.2949C17.3654 29.3761 17.7309 29.3545 18.0683 29.2327L20.2304 28.4358C20.5998 28.2987 20.7241 27.7481 20.4627 27.4089C20.3126 27.2135 20.142 27.0348 19.9539 26.8757L18.8513 25.9463C18.5255 25.667 18.1436 25.4607 17.7314 25.3411C17.5505 25.2895 17.3648 25.2568 17.1772 25.2435L10.311 24.8079C9.93918 24.7827 9.57596 24.6844 9.24217 24.5186C8.89296 24.3441 8.57811 24.108 8.31274 23.8216L7.36937 22.8168C7.19854 22.6252 6.98988 22.4711 6.75654 22.3641C6.52319 22.2572 6.27022 22.1997 6.01356 22.1953H3.86773C3.63537 22.1953 3.47505 22.3998 3.446 22.6309C3.43618 22.7069 3.44215 22.7841 3.46354 22.8577C3.48493 22.9312 3.52128 22.9996 3.57031 23.0584Z" fill="#6F9EE0"/>
    <path d="M19.6315 27.8493C18.1503 27.2023 16.217 26.4925 14.9844 25.1055L17.1639 25.2437C17.3515 25.257 17.5372 25.2897 17.7181 25.3413C18.1303 25.4609 18.5122 25.6672 18.838 25.9465L19.9406 26.8758C20.3564 27.2337 20.6884 27.6787 20.913 28.1792C21.177 28.7632 21.3125 29.397 21.3103 30.0379V47.3049C21.3103 48.7639 20.6214 50.0929 19.5339 50.755V28.5068C19.8337 28.5637 19.9452 27.9864 19.6315 27.8493Z" fill="#98B9EA"/>
    <path d="M12.8676 25.1133L14.2885 25.2074C15.434 26.843 17.3161 27.5516 18.9856 28.2707V51.0823L18.0817 51.612C17.7419 51.8116 17.3646 51.9389 16.9734 51.9861C16.5715 52.0317 16.1645 51.988 15.7814 51.8583L10.9844 50.232V25.3015L12.8676 25.1133Z" fill="#98B9EA"/>
    <path d="M16.9766 31.2946V50.7839C16.9766 51.4634 17.5726 51.9095 18.0849 51.611L19.5058 50.7781L20.886 49.9649C21.0231 49.8753 21.1349 49.752 21.2106 49.6067C21.2863 49.4614 21.3233 49.2992 21.3182 49.1355V30.0377C21.3182 29.7104 21.2832 29.384 21.2136 29.0642C21.1044 28.5624 20.6571 28.2789 20.2412 28.4323L19.0573 28.8691L18.2998 29.149C17.5121 29.4359 16.9766 30.3072 16.9766 31.2946Z" fill="#98B9EA"/>
    <path d="M16.9766 31.2935V50.7827C16.9766 51.4623 17.5726 51.9084 18.0849 51.6098L19.5058 50.7769L20.886 49.9638C21.0231 49.8742 21.1349 49.7508 21.2106 49.6056C21.2863 49.4603 21.3233 49.298 21.3182 49.1343V48.6801C21.1764 48.9229 20.8662 49.261 20.1343 49.6153C18.7924 50.2751 17.4494 50.4644 17.4494 36.0412C17.4494 31.9045 18.1128 29.7833 19.0573 28.8633L18.2998 29.1432C17.5121 29.4348 16.9766 30.3061 16.9766 31.2935Z" fill="#98B9EA"/>
    <path d="M6.82282 25.4047L12.0892 25.7927C12.7655 25.8429 13.445 25.8297 14.1189 25.7532L17.7204 25.3432C17.5396 25.2915 17.3538 25.2588 17.1662 25.2456L10.3001 24.81H10.2896C9.53419 24.7625 8.77588 24.796 8.0276 24.9099L6.8112 25.0957C6.65436 25.1178 6.66598 25.3931 6.82282 25.4047Z" fill="#98B9EA"/>
    <path d="M14.4948 27.2214L16.0923 28.7792C16.3413 29.0373 16.6598 29.2179 17.0092 29.2991C17.3586 29.3803 17.7241 29.3587 18.0615 29.2368L19.7066 28.6305L20.2236 28.4399C20.593 28.3029 20.7174 27.7522 20.456 27.413C20.3058 27.2177 20.1352 27.039 19.9471 26.8798L18.8446 25.9505L18.8341 25.9424C18.5985 25.7405 18.3238 25.5893 18.0272 25.4981C17.7306 25.407 17.4184 25.3779 17.11 25.4126L14.9467 25.6589L14.8875 25.6659C14.2346 25.7402 13.9848 26.7253 14.4948 27.2214Z" fill="#B1CDEF"/>
    <path d="M14.4947 27.2187L16.0922 28.7765C16.3412 29.0346 16.6597 29.2152 17.0091 29.2964C17.3585 29.3776 17.724 29.356 18.0614 29.2342L19.7065 28.6278C19.5752 28.6069 19.4741 28.5534 19.4579 28.4431C19.4207 28.1283 15.7889 26.0535 15.7889 26.0535C15.6912 26.1621 15.5573 26.2315 15.4122 26.2489C15.2671 26.2662 15.1206 26.2302 15.0001 26.1476C14.6736 25.9536 14.7596 25.7585 14.949 25.6562L14.8897 25.6632C14.2345 25.7376 13.9847 26.7227 14.4947 27.2187Z" fill="#98B9EA"/>
    <path d="M3.55651 23.0422L4.7183 24.4304C5.18301 24.981 5.82665 25.2435 6.47376 25.1471L8.02591 24.9148C8.47088 24.8474 8.64282 24.1876 8.31055 23.8298L7.3695 22.8168C7.19868 22.6252 6.99002 22.4711 6.75667 22.3641C6.52333 22.2572 6.27035 22.1997 6.01369 22.1953H3.8516C3.47983 22.1918 3.29394 22.7285 3.55651 23.0422Z" fill="#6F9EE0"/>
    <path d="M1.13275 22.6986C0.46704 22.8973 0 23.6105 0 24.4307V43.0928C0 45.1153 1.12461 46.8914 2.75344 47.4444L15.7818 51.8587H15.7934C16.387 52.0562 16.9738 51.5102 16.9738 50.7679V30.9964C16.9802 30.5867 16.9056 30.1798 16.7543 29.799C16.603 29.4182 16.3779 29.0711 16.092 28.7776L14.4074 27.1362L14.3284 27.0595C13.5807 26.3064 12.5903 25.8425 11.5331 25.7503L11.4309 25.7422L6.66751 25.3937H6.64544C6.24754 25.3573 5.86109 25.2409 5.50932 25.0515C5.15754 24.862 4.84768 24.6034 4.59836 24.2913L3.56205 23.0471C3.11476 22.5127 2.46532 22.299 1.85189 22.4825H1.84144L1.13275 22.6986Z" fill="#6F9EE0"/>
    <path d="M13.1496 31.6727L13.0601 31.5798C13.0272 31.543 12.9864 31.5139 12.9409 31.4948C12.8953 31.4756 12.8461 31.4669 12.7967 31.4691C12.7473 31.4713 12.6991 31.4845 12.6554 31.5076C12.6118 31.5308 12.5738 31.5634 12.5443 31.603L2.70626 43.5287C2.6394 43.6145 2.60148 43.7193 2.59793 43.8281C2.59438 43.9368 2.62539 44.0439 2.68651 44.1339C2.71523 44.1801 2.75472 44.2187 2.8016 44.2463C2.84849 44.2739 2.90136 44.2898 2.95572 44.2925C3.01007 44.2953 3.06427 44.2848 3.1137 44.262C3.16312 44.2393 3.20629 44.2049 3.23952 44.1618L13.1624 32.329C13.2376 32.2355 13.2776 32.1185 13.2753 31.9985C13.2729 31.8785 13.2284 31.7632 13.1496 31.6727Z" fill="#3074D3"/>
    <path d="M2.68134 31.2698C2.71196 31.2325 2.75115 31.2031 2.79557 31.1842C2.83999 31.1652 2.88833 31.1573 2.93648 31.1611C2.98462 31.1648 3.03114 31.1802 3.07208 31.2058C3.11302 31.2314 3.14717 31.2665 3.17161 31.3082L13.2153 46.0915C13.2758 46.1824 13.3011 46.2923 13.2863 46.4006C13.2716 46.5088 13.2178 46.6079 13.1351 46.6793L13.0445 46.7444C13.0107 46.7703 12.9718 46.7887 12.9303 46.7984C12.8889 46.8081 12.8458 46.8088 12.8041 46.8006C12.7623 46.7923 12.7228 46.7753 12.6881 46.7506C12.6534 46.7258 12.6244 46.694 12.603 46.6572L2.64997 31.81C2.59813 31.728 2.57328 31.6317 2.57891 31.5349C2.58453 31.438 2.62035 31.3453 2.68134 31.2698Z" fill="#3074D3"/>
    <path d="M5.72956 41.7112L9.18123 42.3827C9.81209 42.5058 10.3848 41.9238 10.3848 41.1606V36.1097C10.3848 35.4603 9.96428 34.9213 9.42172 34.8748L5.97121 34.5774C5.37056 34.5263 4.85938 35.0932 4.85938 35.8123V40.4891C4.85938 41.0967 5.22766 41.6136 5.72956 41.7112Z" fill="#3074D3"/>
    <path d="M6.27045 40.8328L8.44764 41.2417C8.94721 41.3358 9.39683 40.8514 9.39683 40.2195V36.8692C9.39683 36.3314 9.06804 35.883 8.63934 35.8377L6.46331 35.6053C5.98 35.5542 5.56641 36.0305 5.56641 36.6369V39.8082C5.56641 40.3217 5.86499 40.7561 6.27045 40.8328Z" fill="#255BB9"/>
    <path d="M16.1706 27.3564C16.8805 28.2207 18.1352 28.8108 18.9729 28.6761C19.007 28.6707 19.0395 28.6637 19.0705 28.6552C19.3888 28.5785 19.584 28.3915 19.6514 28.1406C19.683 28.0122 19.6853 27.8785 19.6583 27.7491C19.6564 27.7322 19.6533 27.7156 19.649 27.6991C19.6172 27.5631 19.5676 27.4319 19.5015 27.3088C19.4185 27.1517 19.3192 27.0037 19.2052 26.8674C18.6046 26.1355 17.6136 25.5988 16.8154 25.5338C16.6881 25.5228 16.5599 25.5259 16.4332 25.5431H16.4042C16.2909 25.5538 16.181 25.5874 16.0811 25.6419C15.9812 25.6965 15.8935 25.7707 15.8233 25.8602C15.5828 26.2064 15.6885 26.7663 16.1706 27.3564Z" fill="#98B9EA"/>
    <path d="M15.7539 26.0229L17.923 27.6585L18.9907 28.0581L19.5925 28.2835L19.654 28.1394V28.1371L19.8969 27.5644L19.5042 27.3053L16.8181 25.5315L16.1861 25.1133L16.1687 25.1505L15.8306 25.8614L15.7539 26.0229Z" fill="#98B9EA"/>
    <path d="M16.1726 27.3533C16.8824 28.2176 18.1372 28.8077 18.9748 28.6729C19.0089 28.6675 19.0414 28.6605 19.0724 28.652C18.9493 28.5905 18.7889 28.4429 18.9469 28.1281C18.9596 28.1032 18.974 28.0791 18.9899 28.0561C19.0646 27.9502 19.1656 27.8657 19.283 27.8109C19.4004 27.7561 19.53 27.7329 19.6591 27.7436C19.6852 27.7446 19.7111 27.7469 19.737 27.7506L19.6498 27.6936L18.1558 26.7132L16.6559 25.8652L16.4317 25.5376L16.1645 25.1484L15.8322 25.8594C15.5847 26.2032 15.6904 26.7631 16.1726 27.3533Z" fill="#6F9EE0"/>
    <path d="M20.5791 27.3751C21.033 26.6799 20.3492 25.4298 19.0517 24.5827C17.7542 23.7357 16.3344 23.6126 15.8805 24.3077C15.4266 25.0029 16.1104 26.2531 17.4079 27.1001C18.7054 27.9471 20.1252 28.0702 20.5791 27.3751Z" fill="#255BB9"/>
    <path d="M15.7578 24.6391L16.0959 23.625L20.9754 26.2817C20.9754 26.2817 20.7675 27.3272 20.4026 27.5596C20.0378 27.7919 15.8821 25.1584 15.8821 25.1584L15.7578 24.6391Z" fill="#255BB9"/>
    <path d="M21.06 26.5733C21.5166 25.8759 20.8317 24.6198 19.53 23.7676C18.2284 22.9154 16.803 22.79 16.3464 23.4873C15.8897 24.1847 16.5747 25.4408 17.8763 26.293C19.178 27.1451 20.6033 27.2706 21.06 26.5733Z" fill="#3074D3"/>
    <path d="M16.8721 24.6313C16.9571 24.7871 17.0587 24.9332 17.1754 25.0669C17.649 25.5956 18.2543 25.9892 18.9297 26.2077C19.2023 26.2997 19.4909 26.3353 19.7778 26.3122C20.5422 26.2228 20.6189 25.5188 19.9486 24.7393C19.2782 23.9599 18.1118 23.4034 17.3462 23.494C16.7281 23.5672 16.5596 24.0412 16.8721 24.6313Z" fill="#255BB9"/>
    <path d="M16.8711 24.6328C16.956 24.7886 17.0577 24.9347 17.1743 25.0684C17.6479 25.5971 18.2533 25.9907 18.9286 26.2092C18.6428 25.6377 17.9957 24.6746 16.8711 24.6328Z" fill="#1251AD"/>
    <path d="M4.58416 24.2678C4.81858 24.5502 5.09808 24.792 5.41135 24.9834C5.67392 24.8776 6.04569 24.8672 6.47555 25.0182C8.05443 25.5839 12.712 25.3946 12.712 25.3946L13.4788 25.1623C13.4788 25.1623 10.6592 24.9299 8.84444 24.7348C7.02973 24.5396 6.71256 23.5115 6.71256 23.5115L5.61002 22.3789C5.38579 22.3789 5.1453 22.387 4.91295 22.4021C4.19264 22.4498 3.88244 23.5173 4.42035 24.0912L4.58416 24.2678Z" fill="#6F9EE0"/>
    <path d="M4.9126 22.9038C5.0268 23.1043 5.19064 23.2722 5.38839 23.3912C5.58614 23.5102 5.81116 23.5763 6.04186 23.5834H6.10343L10.1128 23.3789H10.1232C10.7634 23.3464 11.3745 23.6879 11.7637 24.2885L11.7997 24.3454C11.8136 24.3675 11.8276 24.3907 11.8404 24.4151L12.2028 25.047C12.2563 25.1507 12.335 25.2392 12.4316 25.3046C12.5283 25.3699 12.6397 25.41 12.7558 25.4211L13.4715 25.4676C13.5845 25.474 13.6978 25.474 13.8107 25.4676C13.9276 25.4628 14.044 25.4508 14.1593 25.4316H14.1709L14.4335 25.3874L14.6449 25.3514C14.677 25.341 14.7062 25.3233 14.7304 25.2998C14.7545 25.2763 14.773 25.2475 14.7842 25.2157C14.7954 25.1839 14.7992 25.15 14.7952 25.1165C14.7912 25.083 14.7795 25.0509 14.7611 25.0227L14.6356 24.8159L13.597 23.0734C13.1938 22.3996 12.5432 22 11.8543 22L10.6309 22.0627H10.6054L5.12869 22.3497C4.89517 22.3624 4.76854 22.6807 4.9126 22.9038Z" fill="#6F9EE0"/>
    <path d="M6.5625 22.2815L11.8428 22.0039L13.1847 23.1354L13.2637 24.0775L11.2898 22.8531L6.86921 22.7578L6.5625 22.2815Z" fill="#6F9EE0"/>
    <path d="M4.9126 22.9066C5.0268 23.1072 5.19064 23.275 5.38839 23.394C5.58614 23.513 5.81116 23.5792 6.04186 23.5862H6.10343L10.1128 23.3817C10.7564 23.348 11.3698 23.6896 11.7637 24.2901L11.7997 24.3471C11.8136 24.3691 11.8276 24.3924 11.8404 24.4168L12.2028 25.0487C12.2563 25.1524 12.335 25.2409 12.4316 25.3063C12.5283 25.3716 12.6397 25.4117 12.7558 25.4228L13.4715 25.4692C13.6144 25.4785 13.7039 25.2869 13.6225 25.1451L12.5351 23.2226C12.1052 22.4721 11.3838 22.0377 10.6228 22.0679H10.6054L5.12869 22.3525C4.89517 22.3653 4.76854 22.6836 4.9126 22.9066Z" fill="#3074D3"/>
    <path d="M11.8438 22.0039L12.5327 23.2213L13.619 25.1404C13.6669 25.2372 13.7432 25.3171 13.8376 25.3695C13.932 25.422 14.0401 25.4446 14.1476 25.4343H14.1592L14.4218 25.3902L14.6332 25.3541C14.6653 25.3437 14.6945 25.3261 14.7187 25.3026C14.7428 25.279 14.7612 25.2503 14.7725 25.2185C14.7837 25.1867 14.7875 25.1527 14.7835 25.1192C14.7795 25.0858 14.7678 25.0536 14.7494 25.0254L14.6239 24.8186L13.5853 23.0761C13.1879 22.4035 12.5373 22.0039 11.8438 22.0039Z" fill="#6F9EE0"/>
    </g>
    <defs>
    <clipPath id="clip0_166_163477">
    <rect width="54" height="54" fill="white"/>
    </clipPath>
    </defs>
    </svg>
    