<svg width="54" height="54" viewBox="0 0 54 54" fill="none" xmlns="http://www.w3.org/2000/svg">
    <g clip-path="url(#clip0_166_163454)">
    <path d="M38.7031 39.0149C37.5269 38.8825 36.1604 38.2078 35.9736 37.2874C35.737 36.1202 37.571 35.4206 37.4068 34.4119C37.1204 32.6549 30.9934 31.3836 30.0481 33.0681C29.3201 34.3644 32.3123 36.2289 32.1334 39.1813C31.9591 42.0115 28.0363 41.9142 27.1249 45.0568C26.3811 47.6221 27.8098 50.9866 29.3212 51.2436C31.4451 51.6047 32.3225 45.5832 36.0823 44.9945C38.9669 44.5417 39.9553 47.8394 44.1203 48.17C46.9506 48.3964 50.8361 47.2168 51.7135 44.3968C52.5909 41.5768 49.9689 38.6764 49.8285 38.5247C49.4515 38.1194 47.7828 36.324 45.471 36.3127C42.455 36.3025 41.5844 39.3376 38.7031 39.0149Z" fill="#E5E5E5"/>
    <path d="M28.4697 41.269C29.9743 40.4199 30.298 38.7365 30.3547 38.4388C30.589 37.2229 30.4464 35.2214 29.2667 34.5184C27.7134 33.5912 24.7382 35.1444 24.2491 37.4709C23.9095 39.0671 24.7144 41.1535 26.1817 41.6437C27.1983 41.9856 28.1731 41.4354 28.4697 41.269Z" fill="#E5E5E5"/>
    <path d="M39.5721 50.4796C39.6446 49.0215 37.8083 47.2996 36.1101 47.3008C33.2084 47.3008 31.5035 52.3419 32.5394 53.5544C33.6885 54.9004 39.4498 52.9838 39.5721 50.4796Z" fill="#E5E5E5"/>
    <path d="M13.4029 4.8867C14.278 4.84934 15.2652 4.3999 15.3535 3.69688C15.4667 2.80481 14.0471 2.16292 14.1082 1.39085C14.2214 0.0436768 18.7499 -0.608399 19.556 0.750092C20.1809 1.79387 18.0389 3.07538 18.3423 5.37688C18.6378 7.57651 21.5768 7.71688 22.4406 10.2074C23.1459 12.235 22.2651 14.7652 21.1455 14.8829C19.5729 15.0471 18.5699 10.3376 15.7113 9.67537C13.5195 9.16481 12.9659 11.669 9.85933 11.6995C7.74905 11.7199 4.76478 10.5958 3.94399 8.36217C3.1232 6.12858 4.92667 4.02405 5.0229 3.91424C5.28329 3.6199 6.43353 2.32028 8.16794 2.44255C10.4311 2.58292 11.2586 4.98179 13.4029 4.8867Z" fill="#EEEEEE"/>
    <path d="M20.9064 6.11376C20.6951 5.64983 20.581 5.14755 20.571 4.63785C20.5611 4.12814 20.6556 3.6218 20.8487 3.14999C21.2257 2.21263 22.2152 0.980931 23.3496 1.21187C24.8451 1.51527 26.2274 4.28093 25.5357 6.09904C25.0613 7.34433 23.5737 8.24999 22.3341 7.70546C21.4736 7.33187 21.0389 6.39791 20.9064 6.11376Z" fill="#EEEEEE"/>
    <path d="M41.3678 19.401C42.2282 22.3501 46.5427 23.3701 47.616 21.9493C48.19 21.1908 47.7156 19.89 48.3711 19.478C49.0968 19.0251 50.0206 20.3972 50.8086 19.9376C51.3679 19.6104 51.7415 18.4263 51.2875 17.4697C51.1783 17.2262 51.0151 17.0108 50.8103 16.8398C50.6056 16.6688 50.3645 16.5466 50.1055 16.4825C49.9921 16.4577 49.8819 16.4197 49.7772 16.3693C49.2519 16.1168 48.8398 15.5644 48.721 14.8851C48.6841 14.6841 48.6795 14.4785 48.7074 14.2761C48.7979 13.6489 49.1783 13.4984 49.3787 12.8146C49.6663 11.8308 49.3017 10.6897 49.0334 10.1655C47.8764 7.91269 43.7419 7.82892 42.9573 9.57118C42.2882 11.0599 44.1766 13.6184 43.2777 14.7968C42.9777 15.1874 42.7116 14.9768 42.2294 15.4082C41.9589 15.6588 41.7454 15.9645 41.6033 16.3048C41.1787 17.2591 41.1142 18.5327 41.3678 19.401Z" fill="#EEEEEE"/>
    <path d="M53.1146 15.2009C52.6935 15.811 51.4459 15.6424 50.9874 14.7073C50.6058 13.9397 50.8323 12.7737 51.4583 12.5076C52.0844 12.2416 52.8327 12.9978 53.1101 13.7224C53.1316 13.779 53.469 14.6869 53.1146 15.2009Z" fill="#EEEEEE"/>
    <path d="M8.68735 40.4263C8.29833 40.2482 7.9762 39.9509 7.76772 39.5773C7.55925 39.2037 7.4753 38.7734 7.52806 38.3489C7.61076 37.7567 7.4966 37.1537 7.20314 36.6327C5.99403 34.6153 2.11877 35.1474 1.65574 36.2738C1.11458 37.5927 5.49024 39.1527 5.45514 42.2851C5.44156 43.5927 4.66265 44.3783 4.01848 45.2195C3.51355 45.8761 3.08787 46.5678 3.16825 47.5719C3.3143 49.3832 5.02607 51.1572 6.86916 51.4097C9.1753 51.7255 11.5211 49.6323 12.1788 47.1078C12.3006 46.6414 12.3607 46.1611 12.3577 45.6791C12.3396 43.4568 10.878 41.3851 8.68735 40.4263Z" fill="#E5E5E5"/>
    <path d="M5.55923 30.8924C5.46186 32.0381 3.23724 33.2992 1.88549 32.7241C0.172586 31.9951 0.293723 28.5004 0.866577 26.4853C1.11791 25.5921 1.67491 23.6155 2.98365 23.4456C3.91991 23.3234 5.06449 24.1498 5.28073 25.1087C5.57168 26.397 3.99124 27.0626 4.20521 28.5298C4.38182 29.7807 5.63395 30.006 5.55923 30.8924Z" fill="#E5E5E5"/>
    <path d="M0.13162 14.0114L3.9265 29.3747L4.39067 31.254L4.96352 33.5725L7.39985 43.434L7.96591 45.7038V45.7129C8.15418 46.4594 8.49261 47.1598 8.96055 47.7713C9.4285 48.3828 10.0161 48.8924 10.6876 49.2693C11.3591 49.6461 12.1003 49.8822 12.866 49.963C13.6317 50.0439 14.4059 49.9679 15.1413 49.7397L36.7649 43.0095L49.9914 38.8932L50.7466 38.6589C51.1574 38.5307 51.5386 38.3222 51.8682 38.0455C52.1977 37.7688 52.4691 37.4294 52.6664 37.047C52.8638 36.6646 52.9833 36.2468 53.0179 35.8179C53.0525 35.389 53.0016 34.9574 52.8682 34.5483L52.858 34.5178L51.5436 30.6212L51.0319 29.1019L45.1697 11.7415L43.8723 7.89248C43.8621 7.86079 43.8508 7.83022 43.8384 7.79965C43.5943 7.16368 43.1575 6.6199 42.5891 6.24438C42.0207 5.86886 41.3492 5.68038 40.6684 5.70531H40.5801H40.5473L38.043 5.90682L11.9249 7.8472L10.5721 7.94456L4.1767 8.42003C3.52178 8.47014 2.88564 8.66233 2.31254 8.98323C1.73944 9.30412 1.24313 9.74601 0.858146 10.2782C0.473157 10.8103 0.208731 11.4199 0.0832628 12.0647C-0.0422055 12.7094 -0.0257038 13.3737 0.13162 14.0114Z" fill="#6C6C6C"/>
    <path d="M0.632812 10.5129C0.632812 10.5129 1.58153 7.94196 4.9779 7.48913C8.37427 7.0363 11.9971 14.2816 11.9971 14.2816L53.9988 34.6589C53.9988 34.6589 54.0917 37.6023 50.8221 38.6212C47.5525 39.6401 28.8657 33.8665 28.8657 33.8665L1.80796 16.6261L0.632812 10.5129Z" fill="#6C6C6C"/>
    <path d="M1.09645 13.0471L4.89132 28.4105L5.35549 30.2898L5.92835 32.6083L8.36467 42.4709L8.93074 44.7407V44.7498C9.119 45.4964 9.45744 46.1968 9.92538 46.8082C10.3933 47.4197 10.981 47.9294 11.6524 48.3062C12.3239 48.683 13.0651 48.9191 13.8308 48.9999C14.5966 49.0808 15.3708 49.0048 16.1061 48.7766L37.7297 42.0464L50.9563 37.9301L51.7114 37.6958C52.122 37.5669 52.5028 37.3578 52.8319 37.0805C53.1611 36.8033 53.4318 36.4635 53.6286 36.0808C53.8253 35.698 53.9441 35.2801 53.978 34.8511C54.0119 34.4222 53.9603 33.9907 53.8262 33.5819L53.816 33.5513L52.5016 29.6547L51.9899 28.1354L46.1391 10.7728L44.8417 6.92373C44.8315 6.89204 44.8202 6.86147 44.8077 6.8309C44.5636 6.19493 44.1268 5.65115 43.5585 5.27563C42.9901 4.90011 42.3185 4.71163 41.6378 4.73656H41.5495H41.5166L39.0067 4.92336L12.8886 6.86373L11.5358 6.96449L5.14039 7.43996C4.48386 7.48979 3.84613 7.6824 3.27177 8.00432C2.69742 8.32624 2.20031 8.7697 1.81517 9.30371C1.43004 9.83772 1.16618 10.4494 1.04204 11.096C0.917894 11.7426 0.936463 12.4085 1.09645 13.0471Z" fill="#E5E5E5"/>
    <path d="M1.05057 12.8544L1.09812 13.0446L4.89299 28.408L5.35603 30.285L5.92889 32.6035L8.11502 41.4574L8.92561 44.7348L8.94713 44.8231L8.9675 44.9046L8.97656 44.9397C9.36953 46.3635 10.3099 47.5741 11.5923 48.3071C12.8747 49.0401 14.395 49.2361 15.8214 48.8521C15.8791 48.8374 15.9346 48.8205 15.9946 48.8023L16.0297 48.7921L16.1089 48.7672L37.7325 42.0371L50.9591 37.9208L51.7142 37.6865L51.7459 37.6763C51.8218 37.6525 51.8965 37.6254 51.9723 37.5959L52.0957 37.5427C52.1376 37.5246 52.1784 37.5054 52.2191 37.485C52.8325 37.1744 53.3313 36.6769 53.6433 36.0642C53.683 35.9884 53.7181 35.9114 53.7509 35.8378C53.7837 35.7642 53.8109 35.6816 53.8369 35.6023C53.9434 35.2779 53.9976 34.9385 53.9977 34.5971C53.9977 34.3357 53.9661 34.0754 53.9037 33.8216C53.8833 33.7401 53.8596 33.6597 53.8324 33.5782L53.8222 33.5476L52.5078 29.651C50.8519 27.6467 49.0897 25.7326 47.2287 23.9171C46.4362 23.1472 45.6041 22.3718 44.7267 21.5997C43.9078 20.8782 43.0508 20.1612 42.1557 19.4488L41.9236 19.2608C40.7858 18.3676 39.5869 17.4869 38.3246 16.6344C31.6835 12.1435 23.3002 8.38045 12.9809 7.12498C12.5043 7.06837 12.0231 7.01177 11.5386 6.96875L5.14319 7.44422L4.95752 7.45781C4.32473 7.50468 3.7098 7.68918 3.15573 7.99841C2.60166 8.30764 2.12181 8.73414 1.74972 9.2481C1.37763 9.76206 1.12228 10.3511 1.00152 10.974C0.880758 11.5969 0.897497 12.2386 1.05057 12.8544Z" fill="#CCCCCC"/>
    <path d="M5.35156 30.2891L5.92442 32.6076L8.11055 41.4615L8.92115 44.7389L8.94266 44.8272L8.96303 44.9087L8.97209 44.9438C9.36506 46.3676 10.3054 47.5782 11.5878 48.3112C12.8702 49.0442 14.3905 49.2402 15.8169 48.8562C15.8746 48.8415 15.9301 48.8245 15.9901 48.8064L16.0252 48.7962L16.1045 48.7713L37.728 42.0411L50.9546 37.9249L51.7097 37.6906L51.7414 37.6804C51.8173 37.6566 51.892 37.6294 51.9679 37.6L52.0913 37.5468C52.1331 37.5287 52.1739 37.5094 52.2147 37.4891C52.8281 37.1785 53.3268 36.681 53.6389 36.0683C53.6785 35.9925 53.7136 35.9155 53.7464 35.8419C53.7793 35.7683 53.8064 35.6857 53.8325 35.6064C53.9389 35.2819 53.9932 34.9426 53.9932 34.6011C53.7236 34.8321 53.4329 35.0371 53.1249 35.2136L53.0117 35.2781C52.9358 35.3211 52.8577 35.3642 52.7751 35.4083C52.1406 35.7352 51.4834 36.0159 50.8086 36.2483L50.6274 36.3117L50.5142 36.3502L50.3082 36.4193C50.1293 36.4781 49.9429 36.537 49.7489 36.5959L49.4217 36.6943C47.0624 37.386 41.2546 39.1589 34.5173 40.0974C31.694 40.5042 28.8449 40.7047 25.9924 40.6974C25.9056 40.6974 25.8185 40.6974 25.7309 40.6974C25.5441 40.6974 25.3562 40.6917 25.1648 40.6872L24.8252 40.6759L24.4856 40.6634L24.1946 40.6498L23.9376 40.6362L23.5776 40.6147C23.2606 40.5943 22.9459 40.5694 22.6312 40.5423L22.2915 40.5106L21.9711 40.4777C21.8579 40.4653 21.7504 40.454 21.6405 40.4404L21.2771 40.3962C21.1639 40.3815 21.0405 40.3657 20.9239 40.3487L20.8798 40.343C20.7326 40.3226 20.5865 40.3011 20.4405 40.2785C20.2945 40.2559 20.1371 40.2309 19.9876 40.206C19.8382 40.1811 19.6967 40.1562 19.5518 40.1291C19.3763 40.0974 19.2008 40.0634 19.0276 40.0283C18.9144 40.0079 18.8136 39.9853 18.7072 39.9626L18.6416 39.9479C18.5057 39.9196 18.3687 39.8891 18.234 39.8574C18.0993 39.8257 17.9623 39.794 17.8276 39.7611L17.7902 39.7521C17.6498 39.717 17.5094 39.6808 17.3702 39.6389C17.2309 39.597 17.1155 39.5709 16.9898 39.5347C16.9207 39.5155 16.8517 39.4962 16.7826 39.4747L16.5562 39.4091L16.2064 39.2959C16.1316 39.2732 16.0569 39.2494 15.9799 39.2234C15.9029 39.1974 15.8339 39.1759 15.7614 39.1509C15.7218 39.1385 15.6833 39.1249 15.6482 39.1102H15.638C15.5316 39.074 15.4252 39.0366 15.3188 38.997L15.252 38.9732L15.0086 38.8826L14.8274 38.8125C14.4614 38.6698 14.1017 38.5189 13.7485 38.3596C13.6636 38.3211 13.5776 38.2815 13.4927 38.2408L13.4157 38.2045L13.1598 38.08L13.024 38.0121C12.9515 37.9759 12.8802 37.9396 12.81 37.8989C12.7692 37.8785 12.7285 37.857 12.69 37.8355C12.6051 37.7913 12.5224 37.7472 12.4398 37.7019C12.3311 37.6423 12.2224 37.5811 12.1137 37.5185C12.0005 37.4574 11.8986 37.394 11.7922 37.3294C11.6858 37.2649 11.5794 37.2004 11.4741 37.1336C11.3688 37.0668 11.2635 37 11.1605 36.9309C11.0575 36.8619 10.9533 36.7928 10.8503 36.7215C10.7473 36.6502 10.6239 36.5676 10.5208 36.4883C10.4178 36.4091 10.3363 36.3525 10.2457 36.2834C10.1552 36.2143 10.0476 36.1317 9.95025 36.057C9.85288 35.9823 9.76345 35.9076 9.67174 35.8306L9.65589 35.8181C9.5608 35.7389 9.46683 35.6574 9.37286 35.5759C9.2789 35.4943 9.2087 35.4321 9.12719 35.3585C9.01398 35.2521 8.89398 35.1434 8.77963 35.0325C8.70265 34.96 8.62679 34.8853 8.55321 34.806L8.54302 34.7959C8.46603 34.7189 8.39018 34.6408 8.31659 34.5615L8.2498 34.4925C8.09885 34.334 7.95092 34.1713 7.80601 34.0045L7.73355 33.9208C7.66222 33.837 7.5909 33.7532 7.51958 33.6672C7.43806 33.5676 7.35655 33.4668 7.27617 33.3649C7.19579 33.263 7.11654 33.16 7.03842 33.0547C6.96031 32.9494 6.9037 32.8725 6.83691 32.7796L6.78936 32.7332C6.63841 32.5211 6.49199 32.3038 6.35009 32.0811C6.27764 31.9679 6.20632 31.8547 6.13612 31.7415C6.06593 31.6283 6.01272 31.5355 5.95159 31.4313C5.94366 31.4177 5.93574 31.4053 5.92895 31.3917C5.79309 31.1562 5.66063 30.914 5.53383 30.6672C5.47496 30.5381 5.4127 30.4147 5.35156 30.2891Z" fill="#AAAAAA"/>
    <path d="M4.83949 16.4912C5.71462 19.9553 9.18232 22.3689 12.4643 21.8538C15.6343 21.358 17.3845 18.3104 16.489 15.0704C15.6048 11.8701 12.4213 9.52327 9.27289 9.80403C6.01237 10.0916 3.97568 13.0735 4.83949 16.4912Z" fill="#6C6C6C"/>
    <path d="M43.0718 25.7602L45.9576 25.1466C46.1877 25.0972 46.4049 24.9998 46.5949 24.8609C46.7849 24.722 46.9436 24.5446 47.0605 24.3403C47.1775 24.1361 47.2501 23.9094 47.2736 23.6752C47.2972 23.441 47.2712 23.2045 47.1972 22.981C47.0379 22.4994 46.7088 22.0921 46.2714 21.8351C45.834 21.5781 45.3181 21.4888 44.8198 21.584L42.5182 22.0176C42.2575 22.0669 42.0103 22.171 41.7929 22.323C41.5755 22.475 41.3928 22.6714 41.2569 22.8992C41.121 23.127 41.035 23.381 41.0046 23.6445C40.9741 23.908 41 24.175 41.0804 24.4278L41.1528 24.6542C41.2782 25.0439 41.5441 25.3731 41.8988 25.5775C42.2536 25.782 42.6717 25.8471 43.0718 25.7602Z" fill="#6F9EE0"/>
    <path d="M34.1874 27.6659L37.4094 26.9754C37.6727 26.9189 37.9214 26.8081 38.1395 26.65C38.3576 26.4919 38.5402 26.2901 38.6758 26.0573C38.8113 25.8246 38.8968 25.5661 38.9267 25.2985C38.9566 25.0308 38.9303 24.7598 38.8494 24.5029L38.8302 24.4429C38.6892 23.9927 38.3876 23.61 37.9829 23.3675C37.5782 23.125 37.0986 23.0396 36.635 23.1275L33.5568 23.7082C33.2855 23.7597 33.0281 23.8676 32.8011 24.0249C32.5742 24.1822 32.3829 24.3854 32.2395 24.6214C32.0962 24.8574 32.004 25.1208 31.969 25.3947C31.934 25.6686 31.957 25.9468 32.0363 26.2112L32.1031 26.4376C32.2329 26.8666 32.5193 27.2311 32.9055 27.4586C33.2916 27.6862 33.7492 27.7602 34.1874 27.6659Z" fill="#6F9EE0"/>
    <path d="M24.3761 29.7674L27.9706 28.9976C28.2554 28.9363 28.5244 28.8168 28.7609 28.6467C28.9975 28.4767 29.1963 28.2596 29.3451 28.0091C29.4939 27.7587 29.5893 27.4802 29.6256 27.1912C29.6618 26.9021 29.6379 26.6087 29.5555 26.3293C29.4127 25.8443 29.0947 25.4297 28.6633 25.1661C28.2318 24.9025 27.7178 24.8087 27.2211 24.9029L23.5247 25.6014C23.2359 25.6558 22.9616 25.7696 22.7191 25.9357C22.4766 26.1018 22.2713 26.3164 22.1162 26.566C21.9611 26.8157 21.8596 27.0948 21.8181 27.3857C21.7766 27.6767 21.7961 27.9731 21.8752 28.2561C22.0214 28.779 22.3615 29.2264 22.8262 29.5072C23.2909 29.7881 23.8452 29.8811 24.3761 29.7674Z" fill="#6F9EE0"/>
    <path d="M12.89 32.2327L17.5487 31.2343C17.8293 31.1741 18.0946 31.0573 18.3285 30.891C18.5623 30.7247 18.7598 30.5125 18.9088 30.2673C19.0578 30.0221 19.1552 29.749 19.1951 29.4648C19.2349 29.1807 19.2163 28.8914 19.1405 28.6146C18.9854 28.0492 18.6231 27.5629 18.1257 27.2524C17.6284 26.9419 17.0323 26.8301 16.4562 26.9392L11.9764 27.7848C11.6903 27.8389 11.4184 27.951 11.1774 28.1143C10.9363 28.2775 10.7313 28.4885 10.5751 28.7341C10.4188 28.9797 10.3145 29.2548 10.2687 29.5423C10.2229 29.8297 10.2365 30.1236 10.3088 30.4056L10.379 30.6795C10.5156 31.2128 10.8534 31.6724 11.3216 31.962C11.7897 32.2516 12.3519 32.3486 12.89 32.2327Z" fill="#6F9EE0"/>
    <path d="M39.9667 36.5834L48.9319 34.0702C49.1605 34.0061 49.3737 33.8964 49.5587 33.7476C49.7436 33.5988 49.8966 33.4142 50.0082 33.2047C50.1198 32.9952 50.1878 32.7653 50.2081 32.5288C50.2284 32.2923 50.2006 32.0541 50.1263 31.8287C49.9863 31.4067 49.6915 31.0535 49.3014 30.8403C48.9112 30.627 48.4548 30.5696 48.024 30.6796L38.9942 32.9834C38.7639 33.0422 38.5479 33.1471 38.3593 33.2918C38.1707 33.4365 38.0135 33.618 37.8971 33.8252C37.7806 34.0324 37.7075 34.2611 37.682 34.4974C37.6565 34.7337 37.6793 34.9727 37.7488 35.2L37.8134 35.4072C37.9479 35.8454 38.2484 36.2136 38.6507 36.4334C39.053 36.6531 39.5252 36.707 39.9667 36.5834Z" fill="#6F9EE0"/>
    <path d="M40.556 19.4984L44.0577 18.9029C44.2664 18.8672 44.465 18.7868 44.6399 18.6673C44.8147 18.5478 44.9617 18.3919 45.0708 18.2104C45.1799 18.0289 45.2485 17.826 45.272 17.6155C45.2954 17.405 45.2732 17.1919 45.2068 16.9908L44.5151 14.9056C44.4069 14.5803 44.1885 14.3031 43.8977 14.1216C43.6069 13.9401 43.2619 13.8659 42.9222 13.9116L39.4126 14.3882C39.2002 14.4173 38.9967 14.4924 38.8164 14.6084C38.6361 14.7243 38.4833 14.8782 38.3687 15.0594C38.2541 15.2405 38.1804 15.4445 38.1528 15.6571C38.1253 15.8697 38.1445 16.0857 38.2091 16.2901L38.9099 18.4942C39.0176 18.8317 39.2433 19.119 39.5456 19.3034C39.848 19.4879 40.2067 19.5571 40.556 19.4984Z" fill="#A8C9EF"/>
    </g>
    <defs>
    <clipPath id="clip0_166_163454">
    <rect width="54" height="54" fill="white"/>
    </clipPath>
    </defs>
    </svg>
    