<svg width="14" height="14" viewBox="0 0 14 14" fill="none" xmlns="http://www.w3.org/2000/svg">
<path d="M9.66695 11.7286H1.7922C1.68797 11.7289 1.58808 11.7704 1.51431 11.844C1.44055 11.9177 1.3989 12.0175 1.39844 12.1218V12.9093C1.39875 13.0136 1.44033 13.1136 1.51411 13.1874C1.58789 13.2612 1.68787 13.3028 1.7922 13.3031H9.66753C9.77187 13.3028 9.87185 13.2612 9.94563 13.1874C10.0194 13.1136 10.061 13.0136 10.0613 12.9093V12.1218C10.0608 12.0174 10.0191 11.9175 9.94522 11.8438C9.87133 11.7702 9.77129 11.7287 9.66695 11.7286ZM13.5358 3.3434L11.5424 1.35007C11.4685 1.27679 11.3686 1.23568 11.2645 1.23568C11.1604 1.23568 11.0605 1.27679 10.9865 1.35007L10.7082 1.62833C10.635 1.70229 10.5939 1.80219 10.5939 1.9063C10.5939 2.01041 10.635 2.11031 10.7082 2.18427L11.6358 3.11181V4.64079C11.6367 4.97138 11.7565 5.29061 11.9734 5.54009C12.1903 5.78957 12.4898 5.95262 12.8171 5.99943V9.95634C12.8171 10.113 12.7549 10.2632 12.6441 10.374C12.5333 10.4848 12.3831 10.547 12.2264 10.547C12.0698 10.547 11.9195 10.4848 11.8088 10.374C11.698 10.2632 11.6358 10.113 11.6358 9.95634V9.16881C11.6358 8.88444 11.5798 8.60286 11.4709 8.34014C11.3621 8.07742 11.2026 7.8387 11.0015 7.63762C10.8005 7.43655 10.5617 7.27704 10.299 7.16822C10.0363 7.0594 9.75472 7.00339 9.47036 7.00339H9.27377V2.27819C9.27377 1.86046 9.10782 1.45983 8.81244 1.16445C8.51706 0.869069 8.11643 0.703125 7.6987 0.703125H3.76104C3.3433 0.703125 2.94268 0.869069 2.6473 1.16445C2.35191 1.45983 2.18597 1.86046 2.18597 2.27819V10.9405H9.27377V8.1841H9.47036C9.73136 8.1841 9.98168 8.28779 10.1662 8.47235C10.3508 8.6569 10.4545 8.90722 10.4545 9.16823V9.8525C10.4448 10.304 10.601 10.7434 10.8935 11.0874C11.1861 11.4314 11.5946 11.6562 12.0418 11.7192C12.2887 11.7444 12.5381 11.7176 12.7739 11.6405C13.0098 11.5635 13.2269 11.4379 13.4113 11.2718C13.5957 11.1057 13.7432 10.9029 13.8444 10.6763C13.9456 10.4497 13.9983 10.2045 13.999 9.95634V4.4582C13.9989 4.25109 13.9581 4.04602 13.8787 3.85473C13.7993 3.66344 13.683 3.48968 13.5364 3.3434H13.5358ZM7.6987 5.42832H3.76104V2.27819H7.6987V5.42832Z" fill="#26A690"/>
</svg>
