<svg width="14" height="8" viewBox="0 0 14 8" fill="none" xmlns="http://www.w3.org/2000/svg">
    <path d="M1.5189 0.0363755L12.4745 0.036375C12.643 0.0361733 12.8079 0.086028 12.9481 0.17962C13.0883 0.273211 13.1975 0.406323 13.262 0.562081C13.3264 0.717839 13.3432 0.889227 13.3101 1.05452C13.277 1.21981 13.1956 1.37155 13.0762 1.49052L7.59905 6.96895C7.51999 7.04814 7.4261 7.11096 7.32274 7.15382C7.21938 7.19669 7.10859 7.21875 6.99669 7.21875C6.8848 7.21875 6.774 7.19669 6.67064 7.15382C6.56728 7.11096 6.47339 7.04814 6.39433 6.96895L0.922332 1.49052C0.803217 1.37186 0.721912 1.22059 0.688674 1.05578C0.655435 0.890964 0.671753 0.72 0.735567 0.564452C0.799382 0.408904 0.907835 0.275739 1.04725 0.181757C1.18665 0.0877762 1.35078 0.037188 1.5189 0.0363755Z" fill="currentColor"/>
    </svg>
    