<svg width="18" height="18" viewBox="0 0 18 18" fill="none" xmlns="http://www.w3.org/2000/svg">
<path d="M17.438 7.875H15.649C15.4153 6.49487 14.7579 5.22166 13.7681 4.23186C12.7783 3.24207 11.5051 2.58474 10.125 2.351V0.563C10.1251 0.489113 10.1107 0.415925 10.0825 0.347625C10.0543 0.279324 10.0129 0.217252 9.96075 0.164959C9.90855 0.112667 9.84655 0.0711808 9.7783 0.0428752C9.71005 0.0145695 9.63689 -1.16967e-07 9.563 0L8.438 0C8.36411 -1.16967e-07 8.29095 0.0145695 8.2227 0.0428752C8.15445 0.0711808 8.09245 0.112667 8.04025 0.164959C7.98805 0.217252 7.94668 0.279324 7.91849 0.347625C7.89031 0.415925 7.87587 0.489113 7.876 0.563V2.351C6.49569 2.58455 5.22225 3.2418 4.23227 4.23161C3.24228 5.22141 2.5848 6.49473 2.351 7.875H0.563001C0.48903 7.87487 0.41576 7.88934 0.347394 7.91759C0.279029 7.94583 0.216912 7.9873 0.164606 8.03961C0.1123 8.09191 0.0708351 8.15403 0.0425884 8.22239C0.0143417 8.29076 -0.000130848 8.36403 8.91348e-07 8.438V9.563C-0.000130848 9.63697 0.0143417 9.71024 0.0425884 9.77861C0.0708351 9.84697 0.1123 9.90909 0.164606 9.9614C0.216912 10.0137 0.279029 10.0552 0.347394 10.0834C0.41576 10.1117 0.48903 10.1261 0.563001 10.126H2.351C2.58474 11.5061 3.24207 12.7793 4.23186 13.7691C5.22166 14.7589 6.49487 15.4163 7.875 15.65V17.439C7.87513 17.5128 7.8898 17.5859 7.91816 17.654C7.94653 17.7221 7.98803 17.784 8.04031 17.8361C8.09259 17.8882 8.15462 17.9295 8.22286 17.9576C8.29109 17.9857 8.3642 18.0001 8.438 18H9.563C9.63689 18.0001 9.71008 17.9857 9.77838 17.9575C9.84668 17.9293 9.90875 17.8879 9.96104 17.8357C10.0133 17.7835 10.0548 17.7215 10.0831 17.6533C10.1114 17.585 10.126 17.5119 10.126 17.438V15.649C11.5061 15.4153 12.7793 14.7579 13.7691 13.7681C14.7589 12.7783 15.4163 11.5051 15.65 10.125H17.439C17.5879 10.1247 17.7306 10.0654 17.8357 9.96004C17.9409 9.85467 18 9.71188 18 9.563V8.438C18.0001 8.36411 17.9857 8.29093 17.9575 8.22262C17.9293 8.15432 17.8879 8.09225 17.8357 8.03996C17.7835 7.98767 17.7215 7.94618 17.6533 7.91788C17.585 7.88957 17.5119 7.875 17.438 7.875ZM9 13.5C8.10999 13.5 7.23996 13.2361 6.49993 12.7416C5.75991 12.2471 5.18314 11.5443 4.84254 10.7221C4.50195 9.89981 4.41283 8.99501 4.58647 8.12209C4.7601 7.24918 5.18868 6.44736 5.81802 5.81802C6.44736 5.18868 7.24918 4.7601 8.12209 4.58647C8.99501 4.41283 9.89981 4.50195 10.7221 4.84254C11.5443 5.18314 12.2471 5.75991 12.7416 6.49993C13.2361 7.23995 13.5 8.10998 13.5 9C13.5 10.1935 13.0259 11.3381 12.182 12.182C11.3381 13.0259 10.1935 13.5 9 13.5ZM9 5.906C8.38807 5.906 7.78987 6.08746 7.28107 6.42743C6.77226 6.76741 6.3757 7.25062 6.14152 7.81598C5.90734 8.38133 5.84607 9.00343 5.96545 9.60361C6.08483 10.2038 6.37951 10.7551 6.81221 11.1878C7.24492 11.6205 7.79621 11.9152 8.39639 12.0345C8.99657 12.1539 9.61867 12.0927 10.184 11.8585C10.7494 11.6243 11.2326 11.2277 11.5726 10.7189C11.9125 10.2101 12.094 9.61194 12.094 9C12.094 8.17942 11.768 7.39245 11.1878 6.81221C10.6076 6.23197 9.82058 5.906 9 5.906Z" fill="#919191"/>
</svg>
