<svg width="15" height="14" viewBox="0 0 15 14" fill="none" xmlns="http://www.w3.org/2000/svg">
<path d="M13.3897 1.87953C13.3905 4.90757 12.1885 7.81194 10.048 9.95375C7.9075 12.0956 5.00387 13.2994 1.97582 13.3004H1.97116C1.83767 13.3003 1.70816 13.2549 1.60377 13.1717C1.49938 13.0885 1.42628 12.9724 1.39638 12.8423L1.07827 11.4664L0.8986 10.6886L0.803711 10.2834C0.773048 10.1474 0.790852 10.005 0.854048 9.88073C0.917244 9.75647 1.02186 9.65818 1.14982 9.60286L3.90082 8.42142C4.01845 8.37063 4.14947 8.35971 4.27389 8.39032C4.39831 8.42093 4.5093 8.4914 4.58993 8.59097L4.90104 8.97053L5.4206 9.60442L5.80949 10.0851C7.72516 9.182 9.26715 7.64083 10.1713 5.72564L9.69371 5.33675L9.0606 4.81642L8.68104 4.50531C8.5812 4.4247 8.51054 4.31357 8.47991 4.18896C8.44929 4.06434 8.46038 3.93312 8.51149 3.81542L9.6906 1.05742C9.74613 0.931018 9.84404 0.827973 9.96743 0.766062C10.0908 0.704151 10.232 0.68726 10.3665 0.718305L10.7748 0.810083L11.5526 0.988971L12.9246 1.3063C13.0546 1.33651 13.1706 1.40984 13.2536 1.51434C13.3367 1.61885 13.3819 1.74838 13.3819 1.88186" fill="#919191"/>
</svg>
