<svg width="15" height="14" viewBox="0 0 15 14" fill="none" xmlns="http://www.w3.org/2000/svg">
<path d="M12.6891 2.10156H1.48915C1.30053 2.10463 1.12085 2.18246 0.98959 2.31795C0.858332 2.45344 0.786236 2.6355 0.789147 2.82412V11.1829C0.786236 11.3715 0.858332 11.5536 0.98959 11.6891C1.12085 11.8245 1.30053 11.9024 1.48915 11.9054H12.6891C12.8778 11.9024 13.0574 11.8245 13.1887 11.6891C13.32 11.5536 13.3921 11.3715 13.3891 11.1829V2.82412C13.3921 2.6355 13.32 2.45344 13.1887 2.31795C13.0574 2.18246 12.8778 2.10463 12.6891 2.10156ZM2.88915 4.70167C2.95018 4.58942 3.05325 4.50599 3.17575 4.46968C3.29824 4.43337 3.43014 4.44715 3.54248 4.508L3.55881 4.51734C3.59177 4.53704 3.62231 4.56054 3.64981 4.58734L7.0907 7.23179L10.5308 4.58734C10.6218 4.49874 10.7442 4.44981 10.8711 4.45127C10.9981 4.45273 11.1193 4.50446 11.2083 4.59512L11.223 4.61067C11.3123 4.70948 11.3599 4.83897 11.3558 4.97205C11.3517 5.10513 11.2964 5.23149 11.2013 5.32467C11.1747 5.35125 11.1452 5.37474 11.1134 5.39467L9.01803 7.00467L11.1134 8.61467C11.2263 8.68492 11.3077 8.79613 11.3404 8.92502C11.3732 9.0539 11.3548 9.19047 11.2891 9.30612C11.2539 9.37153 11.2039 9.42785 11.1431 9.47061C11.0823 9.51337 11.0124 9.5414 10.9389 9.55249C10.8654 9.56358 10.7904 9.55742 10.7197 9.53451C10.649 9.51159 10.5846 9.47254 10.5316 9.42045L8.2037 7.63156L7.38237 8.26156C7.29892 8.32595 7.19649 8.36088 7.09109 8.36088C6.98569 8.36088 6.88326 8.32595 6.79981 8.26156L5.97848 7.63156L3.65059 9.42045C3.59629 9.45317 3.53606 9.47484 3.47336 9.48422C3.41067 9.4936 3.34673 9.49051 3.28523 9.47511C3.22373 9.45972 3.16588 9.43233 3.11499 9.39452C3.06411 9.35671 3.02119 9.30922 2.9887 9.25478L2.97937 9.23923C2.92364 9.1402 2.90212 9.02557 2.91815 8.91308C2.93418 8.80058 2.98687 8.69652 3.06804 8.61701L5.16337 7.00701L3.06804 5.39701C2.95408 5.32752 2.87166 5.21638 2.83827 5.08716C2.80487 4.95793 2.82312 4.82078 2.88915 4.70479V4.70167Z" fill="#919191"/>
</svg>
