<svg width="18" height="18" viewBox="0 0 18 18" fill="none" xmlns="http://www.w3.org/2000/svg">
    <path d="M9.00313 0.453125C7.3121 0.453125 5.65904 0.954574 4.253 1.89406C2.84696 2.83354 1.75109 4.16887 1.10396 5.73118C0.45683 7.29349 0.287511 9.01261 0.617415 10.6711C0.947318 12.3297 1.76163 13.8531 2.95736 15.0489C4.1531 16.2446 5.67657 17.0589 7.3351 17.3888C8.99364 17.7187 10.7128 17.5494 12.2751 16.9023C13.8374 16.2552 15.1727 15.1593 16.1122 13.7532C17.0517 12.3472 17.5531 10.6942 17.5531 9.00312C17.5531 6.73552 16.6523 4.5608 15.0489 2.95736C13.4455 1.35393 11.2707 0.453125 9.00313 0.453125V0.453125ZM10.7831 13.7041C10.3431 13.8781 9.99213 14.0115 9.73013 14.1041C9.43556 14.2004 9.12697 14.2467 8.81713 14.2411C8.36888 14.2688 7.92619 14.13 7.57413 13.8511C7.43149 13.7296 7.31779 13.5777 7.24132 13.4066C7.16485 13.2355 7.12755 13.0495 7.13213 12.8621C7.13253 12.7026 7.14355 12.5432 7.16513 12.3851C7.18713 12.2231 7.22313 12.0401 7.27113 11.8361L7.82213 9.89012C7.87013 9.70312 7.91213 9.52612 7.94613 9.36112C7.97744 9.21043 7.99386 9.05703 7.99513 8.90312C8.005 8.8108 7.99657 8.71744 7.97032 8.62838C7.94407 8.53932 7.9005 8.45632 7.84213 8.38412C7.67014 8.2651 7.4611 8.21187 7.25313 8.23412C7.10476 8.23463 6.95725 8.25652 6.81513 8.29912C6.66713 8.34512 6.53813 8.38612 6.43213 8.42612L6.57713 7.82612C6.93713 7.68012 7.28179 7.55579 7.61113 7.45312C7.91236 7.35226 8.22748 7.29896 8.54513 7.29512C8.98693 7.26697 9.42345 7.4038 9.77013 7.67912C9.91116 7.80374 10.0229 7.95803 10.0972 8.13093C10.1716 8.30382 10.2067 8.49103 10.2001 8.67912C10.2001 8.76379 10.1901 8.91279 10.1701 9.12612C10.1532 9.32497 10.1163 9.52162 10.0601 9.71312L9.51213 11.6531C9.46713 11.8091 9.42712 11.9871 9.39113 12.1861C9.36124 12.3354 9.34352 12.4869 9.33813 12.6391C9.32637 12.7343 9.33578 12.8309 9.36569 12.922C9.3956 13.0131 9.44526 13.0964 9.51113 13.1661C9.69054 13.2769 9.90122 13.326 10.1111 13.3061C10.2646 13.3029 10.4169 13.2794 10.5641 13.2361C10.689 13.2043 10.8114 13.1632 10.9301 13.1131L10.7831 13.7041ZM10.6831 5.83012C10.4339 6.06505 10.1025 6.19287 9.76013 6.18612C9.41693 6.19227 9.08482 6.06459 8.83413 5.83012C8.71255 5.72192 8.61563 5.58889 8.5499 5.44C8.48417 5.29112 8.45117 5.12986 8.45313 4.96712C8.45208 4.80361 8.48598 4.64176 8.55255 4.49241C8.61912 4.34306 8.71682 4.20966 8.83913 4.10112C9.08867 3.86438 9.4212 3.7351 9.76513 3.74112C10.1082 3.73459 10.44 3.864 10.6881 4.10112C10.8089 4.21043 10.9054 4.34384 10.9715 4.49274C11.0376 4.64164 11.0717 4.80273 11.0717 4.96562C11.0717 5.12852 11.0376 5.28961 10.9715 5.43851C10.9054 5.58741 10.8089 5.72081 10.6881 5.83012H10.6831Z" fill="currentColor"/>
    </svg>
    