<svg width="18" height="18" viewBox="0 0 18 18" fill="none" xmlns="http://www.w3.org/2000/svg">
<path d="M16.1985 2.70312H1.79855C1.55604 2.70707 1.32502 2.80714 1.15626 2.98134C0.987498 3.15554 0.894804 3.38962 0.898547 3.63213V14.3791C0.894804 14.6216 0.987498 14.8557 1.15626 15.0299C1.32502 15.2041 1.55604 15.3042 1.79855 15.3081H16.1985C16.4411 15.3042 16.6721 15.2041 16.8408 15.0299C17.0096 14.8557 17.1023 14.6216 17.0985 14.3791V3.63213C17.1023 3.38962 17.0096 3.15554 16.8408 2.98134C16.6721 2.80714 16.4411 2.70707 16.1985 2.70312ZM3.59855 6.04612C3.67701 5.9018 3.80954 5.79453 3.96703 5.74785C4.12453 5.70116 4.29411 5.71888 4.43855 5.79712L4.45955 5.80912C4.50192 5.83445 4.54119 5.86466 4.57655 5.89912L9.00055 9.29913L13.4235 5.89912C13.5405 5.78521 13.6979 5.7223 13.8611 5.72417C14.0244 5.72605 14.1802 5.79256 14.2945 5.90913L14.3135 5.92912C14.4283 6.05616 14.4895 6.22265 14.4842 6.39375C14.479 6.56486 14.4078 6.72732 14.2855 6.84712C14.2514 6.8813 14.2135 6.91149 14.1725 6.93713L11.4785 9.00713L14.1725 11.0771C14.3177 11.1674 14.4223 11.3104 14.4645 11.4761C14.5066 11.6418 14.483 11.8174 14.3985 11.9661C14.3532 12.0502 14.2889 12.1226 14.2108 12.1776C14.1326 12.2326 14.0427 12.2686 13.9483 12.2829C13.8538 12.2971 13.7573 12.2892 13.6664 12.2598C13.5755 12.2303 13.4927 12.1801 13.4245 12.1131L10.4315 9.81313L9.37555 10.6231C9.26826 10.7059 9.13656 10.7508 9.00105 10.7508C8.86553 10.7508 8.73383 10.7059 8.62655 10.6231L7.57055 9.81313L4.57755 12.1131C4.50773 12.1552 4.43029 12.183 4.34968 12.1951C4.26907 12.2072 4.18687 12.2032 4.1078 12.1834C4.02873 12.1636 3.95435 12.1284 3.88892 12.0798C3.8235 12.0312 3.76831 11.9701 3.72655 11.9001L3.71455 11.8801C3.64289 11.7528 3.61523 11.6054 3.63584 11.4608C3.65645 11.3162 3.72418 11.1824 3.82855 11.0801L6.52255 9.01012L3.82855 6.94012C3.68203 6.85079 3.57607 6.7079 3.53313 6.54175C3.49019 6.3756 3.51366 6.19926 3.59855 6.05013V6.04612Z" fill="currentColor"/>
</svg>
