<svg width="14" height="14" viewBox="0 0 14 14" fill="none" xmlns="http://www.w3.org/2000/svg">
<path d="M10.1531 10.9185V5.40348C10.1536 5.30121 10.1745 5.20007 10.2146 5.10598C10.2547 5.01188 10.3131 4.92672 10.3865 4.85549C10.4598 4.78425 10.5467 4.72837 10.6419 4.6911C10.7372 4.65384 10.8389 4.63595 10.9411 4.63848H12.5161C12.7214 4.63738 12.9189 4.71693 13.0661 4.86001C13.2133 5.00309 13.2984 5.19826 13.3031 5.40348V10.8935C13.3026 10.9957 13.2818 11.0967 13.2418 11.1907C13.2018 11.2848 13.1434 11.3699 13.0701 11.4411C12.9969 11.5123 12.9101 11.5682 12.815 11.6056C12.7199 11.6429 12.6183 11.6609 12.5161 11.6585H10.9411C10.8391 11.6692 10.736 11.6578 10.6388 11.6251C10.5415 11.5924 10.4525 11.5391 10.3777 11.4689C10.3029 11.3986 10.2442 11.3131 10.2054 11.2182C10.1667 11.1232 10.1488 11.021 10.1531 10.9185ZM0.703125 5.43048C0.703125 5.11726 0.827551 4.81687 1.04903 4.59539C1.27051 4.37391 1.5709 4.24948 1.88412 4.24948H5.49013C5.04348 3.5305 4.75381 2.72523 4.64013 1.88648C4.64101 1.72832 4.67341 1.57193 4.73543 1.42645C4.79746 1.28096 4.88786 1.1493 5.00135 1.03915C5.11485 0.929008 5.24916 0.842593 5.39644 0.784957C5.54372 0.727322 5.70102 0.699622 5.85913 0.703479C7.41313 0.703479 6.50812 2.57748 8.52212 4.18848L8.92212 4.50848C9.05946 4.61935 9.17031 4.75947 9.24661 4.91864C9.3229 5.0778 9.36271 5.25198 9.36312 5.42848V9.36648C9.3632 9.54982 9.32059 9.73067 9.23867 9.89469C9.15674 10.0587 9.03775 10.2014 8.89112 10.3115L8.05113 10.9415C7.37015 11.4535 6.5411 11.7301 5.68913 11.7295H4.24712C4.06971 11.7306 3.89434 11.6915 3.7342 11.6152C3.57406 11.5388 3.43331 11.4271 3.32254 11.2885C3.21176 11.1499 3.13384 10.988 3.09462 10.815C3.05541 10.642 3.05592 10.4623 3.09612 10.2895C2.92625 10.2359 2.77086 10.1443 2.64182 10.0215C2.51277 9.89871 2.41349 9.74807 2.35156 9.58107C2.28962 9.41407 2.26666 9.23513 2.28444 9.0579C2.30221 8.88067 2.36025 8.70985 2.45413 8.55848C2.2467 8.52104 2.05318 8.42845 1.89389 8.29042C1.73459 8.1524 1.61539 7.97404 1.54879 7.77406C1.4822 7.57408 1.47068 7.35986 1.51543 7.15389C1.56018 6.94792 1.65956 6.7578 1.80313 6.60348C1.50527 6.58372 1.22603 6.45161 1.02184 6.23387C0.81765 6.01612 0.703737 5.72899 0.703125 5.43048V5.43048Z" fill="#26A690"/>
</svg>
