<svg width="14" height="12" viewBox="0 0 14 12" fill="none" xmlns="http://www.w3.org/2000/svg">
    <path d="M10.1453 10.911V5.39888C10.1458 5.29667 10.1667 5.19558 10.2067 5.10152C10.2467 5.00746 10.305 4.92232 10.3783 4.85106C10.4516 4.77981 10.5383 4.72388 10.6335 4.68653C10.7286 4.64918 10.8302 4.63117 10.9324 4.63355H12.5074C12.7128 4.63248 12.9103 4.71208 13.0575 4.85522C13.2047 4.99837 13.2898 5.1936 13.2945 5.39888V10.8892C13.294 10.9914 13.2732 11.0925 13.2332 11.1866C13.1932 11.2806 13.1348 11.3658 13.0616 11.437C12.9883 11.5083 12.9015 11.5642 12.8064 11.6016C12.7112 11.6389 12.6096 11.6569 12.5074 11.6545H10.9324C10.8302 11.6652 10.7268 11.6536 10.6294 11.6206C10.5321 11.5876 10.443 11.534 10.3682 11.4634C10.2935 11.3928 10.2349 11.3069 10.1964 11.2116C10.1579 11.1162 10.1405 11.0137 10.1453 10.911ZM0.695313 5.42299C0.695313 5.26788 0.725877 5.11429 0.78526 4.97099C0.844643 4.8277 0.93168 4.69751 1.0414 4.58786C1.15111 4.47822 1.28136 4.39126 1.4247 4.33198C1.56803 4.27269 1.72164 4.24223 1.87676 4.24233H5.48176C5.03537 3.52332 4.74594 2.7181 4.63242 1.87944C4.6332 1.72124 4.66552 1.56478 4.72749 1.41922C4.78945 1.27366 4.87982 1.14191 4.9933 1.03169C5.10678 0.921463 5.2411 0.834974 5.38841 0.777277C5.53571 0.71958 5.69305 0.691833 5.8512 0.695661C7.40676 0.695661 6.49987 2.56933 8.51431 4.1801L8.91565 4.49977C9.05285 4.61074 9.16356 4.75091 9.23971 4.91009C9.31587 5.06927 9.35555 5.24343 9.35587 5.41988V9.35777C9.35596 9.54113 9.31334 9.72199 9.2314 9.88602C9.14945 10.05 9.03043 10.1927 8.88376 10.3028L8.04376 10.9328C7.36294 11.4446 6.53416 11.7211 5.68242 11.7207H4.23887C4.06144 11.7218 3.88607 11.6827 3.72594 11.6062C3.56581 11.5298 3.42509 11.4181 3.31437 11.2794C3.20364 11.1408 3.1258 10.9788 3.08668 10.8058C3.04757 10.6327 3.0482 10.453 3.08853 10.2802C2.91864 10.227 2.76316 10.1357 2.63402 10.0131C2.50489 9.89056 2.40551 9.74008 2.3435 9.57319C2.28149 9.40631 2.25849 9.22745 2.27628 9.05031C2.29406 8.87317 2.35215 8.70244 2.44609 8.55122C2.2392 8.51345 2.04626 8.42079 1.88744 8.28292C1.72863 8.14505 1.60977 7.96704 1.54332 7.76751C1.47686 7.56797 1.46523 7.35425 1.50966 7.14868C1.55409 6.94312 1.65294 6.75327 1.79587 6.59899C1.49736 6.57943 1.21749 6.447 1.01309 6.22858C0.808683 6.01016 0.695068 5.72214 0.695313 5.42299Z" fill="white"/>
    </svg>
    