<svg xmlns="http://www.w3.org/2000/svg" width="18" height="18" viewBox="0 0 18 18">
    <g id="List" transform="translate(0.5 0.5)">
      <rect id="Rectangle_52458" data-name="Rectangle 52458" width="18" height="18" fill="none" stroke="rgba(0,0,0,0)" stroke-width="1"/>
      <path id="Path_35308" data-name="Path 35308" d="M4.116,13.461H1.624A.623.623,0,0,0,1,14.084v2.492a.623.623,0,0,0,.624.624H4.116a.623.623,0,0,0,.623-.624V14.084a.623.623,0,0,0-.623-.623M4.116,1H1.624A.623.623,0,0,0,1,1.623V4.115a.623.623,0,0,0,.624.623H4.116a.622.622,0,0,0,.623-.623V1.623A.623.623,0,0,0,4.116,1m0,6.231H1.624A.623.623,0,0,0,1,7.854v2.492a.623.623,0,0,0,.624.624H4.116a.623.623,0,0,0,.623-.624V7.854a.623.623,0,0,0-.623-.623m12.461,6.853H6.954a.623.623,0,0,0-.624.623v1.247a.623.623,0,0,0,.624.623h9.623a.623.623,0,0,0,.623-.623V14.707a.623.623,0,0,0-.623-.623m0-12.461H6.954a.623.623,0,0,0-.624.623V3.492a.623.623,0,0,0,.624.623h9.623a.623.623,0,0,0,.623-.623V2.246a.623.623,0,0,0-.623-.623m0,6.231H6.954a.623.623,0,0,0-.624.623V9.723a.623.623,0,0,0,.624.623h9.623a.623.623,0,0,0,.623-.623V8.476a.623.623,0,0,0-.623-.623" transform="translate(-0.1 -0.1)" fill="#919191" stroke="rgba(0,0,0,0)" stroke-width="1"/>
    </g>
  </svg>
  