<svg xmlns="http://www.w3.org/2000/svg" width="14" height="14" viewBox="0 0 14 14">
    <g id="Group_104082" data-name="Group 104082" transform="translate(-0.127)">
      <g id="Group_101670" data-name="Group 101670" transform="translate(0.127)">
        <rect id="Rectangle_52459" data-name="Rectangle 52459" width="14" height="14" fill="#919191" opacity="0"/>
        <path id="pallet-boxes" d="M1.089,4.585,5.6,4.6a.628.628,0,0,0,.622-.63v-6.36A.613.613,0,0,0,5.6-3H1.089a.628.628,0,0,0-.622.63V3.973A.613.613,0,0,0,1.089,4.585Zm7,0h3.267a.624.624,0,0,0,.622-.612V-.322a.628.628,0,0,0-.622-.63H8.089a.628.628,0,0,0-.622.63V3.973A.613.613,0,0,0,8.089,4.585Zm4.044,2.339a.315.315,0,0,0,.311-.315v-.63a.315.315,0,0,0-.311-.315H.311A.316.316,0,0,0,0,5.979v.63a.315.315,0,0,0,.311.315h.933v1.26H.311A.316.316,0,0,0,0,8.5v.63a.315.315,0,0,0,.311.315H12.133a.315.315,0,0,0,.311-.315V8.5a.315.315,0,0,0-.311-.315H11.2V6.924ZM5.6,8.184H2.489V6.924H5.6Zm4.356,0H6.844V6.924H9.956Z" transform="translate(0.619 3.778)" fill="#919191"/>
      </g>
    </g>
  </svg>
  