<svg width="16" height="18" viewBox="0 0 16 18" fill="none" xmlns="http://www.w3.org/2000/svg">
    <path d="M12.5338 2.05834C11.7099 1.39514 10.7511 0.919895 9.72437 0.665814C8.69768 0.411732 7.62789 0.38495 6.58978 0.587339C5.42459 0.801893 4.33335 1.30996 3.41913 2.06354C2.50491 2.81713 1.7979 3.79134 1.36491 4.89416C0.931909 5.99697 0.787215 7.19197 0.944494 8.36625C1.10177 9.54054 1.55583 10.6553 2.26378 11.6053C3.26378 12.9343 6.15778 16.0053 7.35378 17.2673C7.43695 17.3565 7.53758 17.4276 7.6494 17.4762C7.76123 17.5248 7.88185 17.5499 8.00378 17.5499C8.1257 17.5499 8.24633 17.5248 8.35815 17.4762C8.46997 17.4276 8.5706 17.3565 8.65378 17.2673C9.84378 16.0063 12.7178 12.9273 13.7158 11.6083C14.8006 10.1754 15.2836 8.37579 15.0619 6.59225C14.8403 4.80872 13.9314 3.18206 12.5288 2.05834M12.4878 7.45834C12.5048 8.34842 12.2575 9.22357 11.7771 9.97306C11.2967 10.7225 10.6047 11.3127 9.78882 11.6688C8.97291 12.025 8.0697 12.1311 7.19346 11.9738C6.31722 11.8165 5.50733 11.4028 4.86625 10.7851C4.22517 10.1674 3.78171 9.37344 3.59198 8.50365C3.40226 7.63385 3.47478 6.72732 3.80039 5.89876C4.12599 5.07019 4.69004 4.35682 5.42118 3.8489C6.15231 3.34098 7.01767 3.06133 7.90778 3.04534H7.98978C9.17225 3.03548 10.3103 3.4953 11.154 4.32384C11.9977 5.15237 12.4782 6.28188 12.4898 7.46434L12.4878 7.45834Z" fill="#919191"/>
    </svg>
    