<svg width="18" height="18" viewBox="0 0 18 18" fill="none" xmlns="http://www.w3.org/2000/svg">
<path d="M13.5338 2.05834C12.7099 1.39514 11.7511 0.919895 10.7244 0.665814C9.69768 0.411732 8.62789 0.38495 7.58978 0.587339C6.42459 0.801893 5.33335 1.30996 4.41913 2.06354C3.50491 2.81713 2.7979 3.79134 2.36491 4.89416C1.93191 5.99697 1.78721 7.19197 1.94449 8.36625C2.10177 9.54054 2.55583 10.6553 3.26378 11.6053C4.26378 12.9343 7.15778 16.0053 8.35378 17.2673C8.43695 17.3565 8.53758 17.4276 8.6494 17.4762C8.76123 17.5248 8.88185 17.5499 9.00378 17.5499C9.1257 17.5499 9.24633 17.5248 9.35815 17.4762C9.46997 17.4276 9.5706 17.3565 9.65378 17.2673C10.8438 16.0063 13.7178 12.9273 14.7158 11.6083C15.8006 10.1754 16.2836 8.37579 16.0619 6.59225C15.8403 4.80872 14.9314 3.18206 13.5288 2.05834M13.4878 7.45834C13.5048 8.34842 13.2575 9.22357 12.7771 9.97306C12.2967 10.7225 11.6047 11.3127 10.7888 11.6688C9.97291 12.025 9.0697 12.1311 8.19346 11.9738C7.31722 11.8165 6.50733 11.4028 5.86625 10.7851C5.22517 10.1674 4.78171 9.37344 4.59198 8.50365C4.40226 7.63385 4.47478 6.72732 4.80039 5.89876C5.12599 5.07019 5.69004 4.35682 6.42118 3.8489C7.15231 3.34098 8.01767 3.06133 8.90778 3.04534H8.98978C10.1722 3.03548 11.3103 3.4953 12.154 4.32384C12.9977 5.15237 13.4782 6.28188 13.4898 7.46434L13.4878 7.45834Z" fill="currentColor"/>
</svg>
