<svg width="18" height="14" viewBox="0 0 18 14" fill="none" xmlns="http://www.w3.org/2000/svg">
    <path d="M16.1985 0.703125H1.79855C1.55604 0.707072 1.32502 0.80714 1.15626 0.981339C0.987498 1.15554 0.894804 1.38962 0.898547 1.63213V12.3791C0.894804 12.6216 0.987498 12.8557 1.15626 13.0299C1.32502 13.2041 1.55604 13.3042 1.79855 13.3081H16.1985C16.4411 13.3042 16.6721 13.2041 16.8408 13.0299C17.0096 12.8557 17.1023 12.6216 17.0985 12.3791V1.63213C17.1023 1.38962 17.0096 1.15554 16.8408 0.981339C16.6721 0.80714 16.4411 0.707072 16.1985 0.703125ZM3.59855 4.04612C3.67701 3.90181 3.80954 3.79453 3.96703 3.74785C4.12453 3.70116 4.29411 3.71888 4.43855 3.79712L4.45955 3.80912C4.50192 3.83446 4.54119 3.86466 4.57655 3.89912L9.00055 7.29913L13.4235 3.89912C13.5405 3.78521 13.6979 3.7223 13.8611 3.72417C14.0244 3.72605 14.1802 3.79256 14.2945 3.90913L14.3135 3.92912C14.4283 4.05616 14.4895 4.22265 14.4842 4.39375C14.479 4.56486 14.4078 4.72732 14.2855 4.84712C14.2514 4.8813 14.2135 4.91149 14.1725 4.93713L11.4785 7.00713L14.1725 9.07713C14.3177 9.16744 14.4223 9.31042 14.4645 9.47614C14.5066 9.64185 14.483 9.81744 14.3985 9.96613C14.3532 10.0502 14.2889 10.1226 14.2108 10.1776C14.1326 10.2326 14.0427 10.2686 13.9483 10.2829C13.8538 10.2972 13.7573 10.2892 13.6664 10.2598C13.5755 10.2303 13.4927 10.1801 13.4245 10.1131L10.4315 7.81313L9.37555 8.62312C9.26826 8.70592 9.13656 8.75082 9.00105 8.75082C8.86553 8.75082 8.73383 8.70592 8.62655 8.62312L7.57055 7.81313L4.57755 10.1131C4.50773 10.1552 4.43029 10.183 4.34968 10.1951C4.26907 10.2072 4.18687 10.2032 4.1078 10.1834C4.02873 10.1636 3.95435 10.1284 3.88892 10.0798C3.8235 10.0312 3.76832 9.97012 3.72655 9.90012L3.71455 9.88012C3.64289 9.75281 3.61523 9.60542 3.63584 9.46079C3.65645 9.31615 3.72418 9.18236 3.82855 9.08012L6.52255 7.01013L3.82855 4.94012C3.68203 4.85079 3.57607 4.7079 3.53313 4.54175C3.49019 4.3756 3.51366 4.19926 3.59855 4.05013V4.04612Z" fill="#919191"/>
    </svg>
    