<svg width="14" height="14" viewBox="0 0 14 14" fill="none" xmlns="http://www.w3.org/2000/svg">
<path d="M13.4698 10.3231L10.2988 3.06412C10.2467 2.9399 10.1595 2.83363 10.0477 2.75838C9.936 2.68313 9.80471 2.6422 9.67001 2.64062H7.45335L7.51168 3.16563C7.51438 3.19097 7.51172 3.21659 7.50386 3.24083C7.496 3.26508 7.48312 3.28739 7.46606 3.30632C7.449 3.32526 7.42814 3.34038 7.40484 3.35071C7.38154 3.36104 7.35633 3.36636 7.33085 3.36629H6.66993C6.64445 3.36636 6.61923 3.36104 6.59594 3.35071C6.57264 3.34038 6.55178 3.32526 6.53472 3.30632C6.51766 3.28739 6.50478 3.26508 6.49692 3.24083C6.48906 3.21659 6.48639 3.19097 6.4891 3.16563L6.54743 2.64062H4.33076C4.19607 2.6422 4.06477 2.68313 3.95304 2.75838C3.84132 2.83363 3.75403 2.9399 3.70193 3.06412L0.528014 10.3231C0.477886 10.4314 0.45526 10.5503 0.462146 10.6694C0.469032 10.7885 0.505216 10.904 0.567486 11.0058C0.629757 11.1075 0.716186 11.1923 0.819101 11.2526C0.922016 11.313 1.03823 11.3469 1.15743 11.3515H5.62518L5.85851 9.13488C5.86789 9.04566 5.90998 8.96308 5.97666 8.90308C6.04334 8.84307 6.12989 8.8099 6.2196 8.80996H7.7806C7.8703 8.8099 7.95685 8.84307 8.02353 8.90308C8.09022 8.96308 8.13231 9.04566 8.14168 9.13488L8.37501 11.3515H12.8404C12.9596 11.3469 13.0758 11.313 13.1788 11.2526C13.2817 11.1923 13.3681 11.1075 13.4304 11.0058C13.4926 10.904 13.5288 10.7885 13.5357 10.6694C13.5426 10.5503 13.52 10.4314 13.4698 10.3231ZM6.37418 4.25646C6.37894 4.21185 6.40006 4.17059 6.43345 4.14065C6.46685 4.1107 6.51016 4.09418 6.55501 4.09429H7.44635C7.49121 4.09418 7.53451 4.1107 7.56791 4.14065C7.6013 4.17059 7.62242 4.21185 7.62718 4.25646L7.7316 5.24521C7.7356 5.28316 7.73159 5.32154 7.71981 5.35784C7.70804 5.39414 7.68877 5.42756 7.66325 5.45594C7.63773 5.48432 7.60653 5.50702 7.57168 5.52257C7.53683 5.53812 7.49909 5.54618 7.46093 5.54621H6.54101C6.50282 5.54627 6.46505 5.53827 6.43015 5.52275C6.39525 5.50723 6.36402 5.48454 6.33848 5.45614C6.31294 5.42774 6.29368 5.39428 6.28194 5.35793C6.2702 5.32159 6.26625 5.28318 6.27035 5.24521L6.37418 4.25646ZM7.62718 8.08662H6.37301C6.32209 8.08667 6.27173 8.07599 6.22521 8.05529C6.17869 8.03459 6.13704 8.00432 6.10298 7.96647C6.06893 7.92862 6.04322 7.88402 6.02753 7.83557C6.01184 7.78713 6.00653 7.73593 6.01193 7.68529L6.1286 6.59621C6.13797 6.50699 6.18006 6.42442 6.24675 6.36441C6.31343 6.30441 6.39998 6.27123 6.48968 6.27129H7.51401C7.60372 6.27123 7.69027 6.30441 7.75695 6.36441C7.82363 6.42442 7.86572 6.50699 7.8751 6.59621L7.99176 7.68529C7.99694 7.73608 7.99133 7.78739 7.97532 7.83587C7.95931 7.88435 7.93324 7.9289 7.89883 7.96661C7.86442 8.00433 7.82244 8.03436 7.77563 8.05474C7.72882 8.07511 7.67823 8.08538 7.62718 8.08488V8.08662Z" fill="#6F9EE0"/>
</svg>
