<svg width="18" height="18" viewBox="0 0 18 18" fill="none" xmlns="http://www.w3.org/2000/svg">
<path d="M8.4068 4.76416L2.7548 10.4132C2.59664 10.5716 2.50781 10.7863 2.50781 11.0102C2.50781 11.234 2.59664 11.4487 2.7548 11.6072V11.6072L3.5548 12.4072C3.71332 12.5648 3.92777 12.6532 4.1513 12.6532C4.37484 12.6532 4.58929 12.5648 4.7478 12.4072L9.0068 8.17716L13.2688 12.4172C13.4271 12.5753 13.6416 12.6641 13.8653 12.6641C14.089 12.6641 14.3035 12.5753 14.4618 12.4172L15.2618 11.6172C15.4199 11.4589 15.5087 11.2444 15.5087 11.0207C15.5087 10.797 15.4199 10.5824 15.2618 10.4242L9.5968 4.76416C9.4388 4.60673 9.22485 4.51834 9.0018 4.51834C8.77876 4.51834 8.56481 4.60673 8.4068 4.76416V4.76416Z" fill="#919191"/>
</svg>
