<svg width="18" height="18" viewBox="0 0 18 18" fill="none" xmlns="http://www.w3.org/2000/svg">
<path d="M17.0984 6.46607C17.0978 7.28515 16.9167 8.09403 16.5678 8.83512C16.219 9.57621 15.711 10.2313 15.0802 10.7537C14.4493 11.2761 13.711 11.653 12.9179 11.8575C12.1247 12.062 11.2963 12.0892 10.4914 11.9371L9.73144 12.7921C9.66017 12.8723 9.5727 12.9365 9.47479 12.9805C9.37688 13.0244 9.27076 13.0471 9.16344 13.0471H7.98544V14.3131C7.98544 14.5144 7.90547 14.7074 7.76313 14.8498C7.62079 14.9921 7.42774 15.0721 7.22644 15.0721H5.96144V16.3381C5.96144 16.4381 5.94167 16.5371 5.90328 16.6294C5.86489 16.7218 5.80862 16.8056 5.73772 16.8762C5.66681 16.9467 5.58267 17.0025 5.49012 17.0404C5.39757 17.0784 5.29845 17.0976 5.19844 17.0971H1.65744C1.45614 17.0971 1.26308 17.0171 1.12074 16.8748C0.978403 16.7324 0.898438 16.5394 0.898438 16.3381V13.8681C0.898385 13.6667 0.978228 13.4736 1.12044 13.3311L6.24044 8.21107C5.98809 7.44563 5.9049 6.63454 5.9966 5.83381C6.0883 5.03309 6.35271 4.26181 6.77157 3.57323C7.19042 2.88466 7.75375 2.29521 8.42263 1.84559C9.09152 1.39596 9.85003 1.09688 10.6458 0.968992C11.4415 0.841106 12.2556 0.887465 13.0316 1.10487C13.8077 1.32227 14.5274 1.70553 15.1409 2.22819C15.7544 2.75085 16.2472 3.40045 16.5851 4.13212C16.9231 4.86379 17.0982 5.66011 17.0984 6.46607ZM11.5294 4.94707C11.5294 5.2475 11.6185 5.54118 11.7854 5.79098C11.9523 6.04078 12.1896 6.23547 12.4671 6.35044C12.7447 6.46541 13.0501 6.49549 13.3448 6.43688C13.6394 6.37827 13.9101 6.2336 14.1225 6.02116C14.335 5.80872 14.4796 5.53806 14.5382 5.24341C14.5969 4.94875 14.5668 4.64333 14.4518 4.36577C14.3368 4.08821 14.1421 3.85097 13.8923 3.68406C13.6425 3.51715 13.3489 3.42807 13.0484 3.42807C12.6456 3.42807 12.2592 3.5881 11.9743 3.87297C11.6895 4.15784 11.5294 4.5442 11.5294 4.94707Z" fill="currentColor"/>
</svg>
