<svg width="54" height="54" viewBox="0 0 54 54" fill="none" xmlns="http://www.w3.org/2000/svg">
    <g clip-path="url(#clip0_166_171054)">
    <path d="M32.1759 3.51663L31.1708 1.15978L13.2711 0.0194748C11.4165 -0.0927561 9.95697 0.287347 8.84062 0.972379C8.02675 1.48055 7.3491 2.17941 6.86635 3.00842C6.81848 3.08638 6.79309 3.17604 6.79297 3.26751C6.79285 3.35898 6.818 3.4487 6.86566 3.52679C6.91332 3.60488 6.98162 3.66829 7.06304 3.71002C7.14447 3.75176 7.23584 3.77021 7.32708 3.76333C11.05 3.49652 25.7204 2.55738 32.1759 3.51663Z" fill="#919191"/>
    <path d="M8.85156 0.973622C9.0859 0.88835 9.33064 0.834933 9.5792 0.814805C10.1001 0.765884 10.6254 0.824998 11.1224 0.988445C11.8331 1.22244 12.6561 1.69571 13.4769 2.62215C15.1408 4.50466 16.8111 8.22522 17.6584 15.4885C19.1127 27.9292 21.3454 38.949 25.6763 46.2217C25.9936 46.7552 26.4938 47.1554 27.0841 47.348C27.6743 47.5406 28.3144 47.5125 28.8855 47.2689C32.6127 45.6722 41.1802 42.1571 50.5145 39.3809C50.8859 39.2701 51.2591 39.1607 51.634 39.0527C52.2547 38.8734 52.8764 38.697 53.4992 38.5233C53.6122 38.4926 53.7152 38.433 53.7981 38.3504C53.8811 38.2678 53.9411 38.1651 53.9723 38.0523C54.0035 37.9395 54.0048 37.8206 53.9761 37.7071C53.9474 37.5937 53.8896 37.4896 53.8085 37.4053C51.7717 35.3025 46.7196 28.6904 44.6542 13.318C43.4828 4.57877 40.2047 1.8577 36.9097 1.52631L36.2487 1.48396H36.1863L13.5394 0.0365999L13.2746 0.0196594C13.1793 0.0133067 13.0839 0.00907149 12.9897 0.00589514C11.4539 -0.0459852 10.1999 0.247298 9.19579 0.777747C9.07928 0.840215 8.96277 0.904801 8.85156 0.973622Z" fill="#E5E5E5"/>
    <path d="M11.1211 0.98877C11.8318 1.22276 12.6548 1.69604 13.4756 2.62247C15.1395 4.50498 16.8098 8.22555 17.6571 15.4888C19.1262 28.0555 21.3896 39.1727 25.8126 46.4423C26.1021 46.9152 26.5525 47.2678 27.0812 47.4353C27.6099 47.6027 28.1813 47.5739 28.6904 47.3539C32.3021 45.7975 41.0115 42.2082 50.5153 39.3813C50.8867 39.2704 51.2599 39.161 51.6349 39.053C46.7627 39.1833 34.968 38.4877 28.9255 29.3864C21.8323 18.7011 19.1961 2.31331 11.1211 0.98877Z" fill="#CCCCCC"/>
    <path d="M13.5391 0.0371094L14.5145 0.41086C15.1548 0.656293 15.7396 1.02706 16.2346 1.50141C16.4907 1.74694 16.7888 1.94454 17.1148 2.08479C17.4365 2.2232 17.7806 2.30212 18.1305 2.31773L38.5235 3.19228C38.7946 3.20393 38.9376 2.83441 38.7353 2.63642C38.4836 2.3866 38.1984 2.17282 37.888 2.00115C37.5821 1.83242 37.2536 1.70835 36.9125 1.63269L36.2442 1.48552H36.1817L13.5391 0.0371094Z" fill="#AAAAAA"/>
    <path d="M30.8239 7.64704L40.4622 7.58775C41.0151 7.58775 41.39 6.95248 41.1581 6.42309C41.1061 6.29531 41.0187 6.18505 40.9061 6.10532C40.7935 6.02559 40.6604 5.97972 40.5226 5.97311L30.9033 5.58983C30.1672 5.56124 29.6525 6.39027 29.9713 7.09118C30.0441 7.25658 30.1634 7.39721 30.3148 7.49591C30.4662 7.59462 30.6431 7.64713 30.8239 7.64704Z" fill="#AAAAAA"/>
    <path d="M35.4941 24.3823L43.7132 23.2653C44.2269 23.1954 44.5796 22.6438 44.4546 22.1091C44.4164 21.9165 44.3093 21.7443 44.1534 21.6249C43.9974 21.5054 43.8033 21.4468 43.6072 21.4601L35.3755 22.1875C34.7305 22.2436 34.2666 22.9138 34.4085 23.583C34.4529 23.8297 34.5902 24.05 34.7921 24.1987C34.994 24.3474 35.2452 24.4131 35.4941 24.3823Z" fill="#AAAAAA"/>
    <path d="M37.9304 30.2345L45.354 28.7426C45.8836 28.6368 46.2236 28.0237 46.0446 27.4816C45.987 27.2846 45.8609 27.1146 45.6891 27.0022C45.5173 26.8898 45.3109 26.8424 45.1073 26.8686L37.5714 27.9168C36.9158 28.0078 36.4688 28.7183 36.6435 29.3906C36.7059 29.6711 36.8752 29.9162 37.1156 30.0738C37.3559 30.2314 37.6482 30.289 37.9304 30.2345Z" fill="#AAAAAA"/>
    <path d="M26.0936 39.144C26.305 39.7402 26.5566 40.3214 26.8467 40.8836C26.9667 41.1244 27.1688 41.3145 27.4166 41.4195C27.6644 41.5245 27.9416 41.5376 28.1982 41.4564L40.7333 37.6871L41.3349 37.5061L48.8951 35.2328C49.2955 35.1121 49.4999 34.6399 49.3019 34.2926L48.5266 32.9289C48.4657 32.8239 48.372 32.7417 48.2598 32.6952C48.1476 32.6487 48.0233 32.6404 47.9059 32.6717L36.8557 35.3472L35.7574 35.6129L26.8192 37.7803C26.68 37.8191 26.5501 37.8857 26.4375 37.9762C26.3249 38.0667 26.2318 38.1791 26.164 38.3067C26.0961 38.4342 26.0549 38.5742 26.0428 38.7181C26.0307 38.862 26.048 39.0069 26.0936 39.144Z" fill="#AAAAAA"/>
    <path d="M29.5888 18.7855L42.8091 17.8506C43.272 17.8178 43.6162 17.3487 43.54 16.8575C43.5193 16.6757 43.4322 16.5081 43.2953 16.3867C43.1584 16.2653 42.9815 16.1988 42.7985 16.2L29.575 16.5504C28.9236 16.5674 28.4216 17.2069 28.5254 17.8887C28.5552 18.1454 28.6818 18.3811 28.8794 18.5477C29.0769 18.7143 29.3306 18.7994 29.5888 18.7855Z" fill="#AAAAAA"/>
    <path d="M22.6636 13.2882L41.953 12.5534C42.4084 12.5354 42.7558 12.0695 42.6859 11.5698C42.6308 11.1802 42.3353 10.8975 41.9805 10.8953L22.7039 10.8C21.9741 10.8 21.4064 11.5317 21.5388 12.3099C21.6384 12.8986 22.1129 13.3094 22.6636 13.2882Z" fill="#AAAAAA"/>
    <path d="M8.85156 0.975416C9.08624 0.890063 9.33134 0.836646 9.58026 0.816599C9.4521 0.799658 9.32395 0.788011 9.19579 0.779541C9.07928 0.842009 8.96277 0.906595 8.85156 0.975416Z" fill="#EEEEEE"/>
    <path d="M26.0929 39.1443C26.3043 39.7405 26.5559 40.3217 26.8459 40.8839C26.9659 41.1247 27.168 41.3148 27.4158 41.4198C27.6636 41.5248 27.9408 41.5379 28.1974 41.4567L40.7325 37.6874C39.0036 37.1778 37.3346 36.4835 35.7545 35.6165L26.8163 37.7838C26.6776 37.8228 26.5484 37.8896 26.4362 37.9799C26.3241 38.0703 26.2314 38.1824 26.1638 38.3096C26.0962 38.4367 26.0551 38.5762 26.0429 38.7197C26.0307 38.8632 26.0477 39.0076 26.0929 39.1443Z" fill="#919191"/>
    <path d="M6.05719 50.3121C6.08861 50.7191 10.7519 50.693 16.473 50.2544C17.8599 50.1483 19.1828 50.0256 20.3888 49.8999C24.1585 49.5007 26.7976 49.0329 26.7744 48.7219C26.7451 48.3304 22.4264 48.3391 17.0039 48.731L16.3586 48.7795C10.6389 49.2204 6.02646 49.9062 6.05719 50.3121Z" fill="#6F9EE0"/>
    <path d="M5.87002 47.922L6.05373 50.3149L17.3983 49.4445L26.7703 48.7273L26.5868 46.3336L20.0995 46.8309L5.87002 47.922Z" fill="#6F9EE0"/>
    <path d="M5.86896 47.9229L6.05247 50.3167C6.08389 50.7236 10.7472 50.6976 16.4683 50.259C17.8552 50.1528 19.1781 50.0302 20.384 49.9044C19.1774 49.9341 17.9894 49.841 17.3978 49.4474C17.2188 49.3415 17.0875 49.1707 17.0312 48.9706C17.0121 48.8946 17.0014 48.8168 16.9995 48.7385C16.9624 47.2502 20.2873 46.9237 20.2873 46.9237L20.0991 46.8329L5.86896 47.9229Z" fill="#3074D3"/>
    <path d="M5.87102 47.9248C5.90244 48.3318 10.5658 48.3058 16.2869 47.8671C17.6584 47.7622 18.9674 47.643 20.1633 47.5158L20.1749 47.5185C23.9579 47.1187 26.6108 46.6483 26.5879 46.3402C26.5563 45.9341 21.8932 45.9592 16.1721 46.3978C14.831 46.5013 13.5436 46.6169 12.3669 46.7418C8.53914 47.14 5.84694 47.6136 5.87102 47.9248Z" fill="#98B9EA"/>
    <path d="M5.87142 47.9228C5.90284 48.3298 10.5662 48.3037 16.2873 47.8651C17.6588 47.7602 18.9677 47.6409 20.1637 47.5138C17.0649 47.7235 11.5763 47.9348 12.3682 46.7363C8.53954 47.1379 5.84734 47.6115 5.87142 47.9228Z" fill="#6F9EE0"/>
    <path d="M3.59314 18.281C3.61531 18.5965 6.44536 18.6492 10.3934 18.4544C11.5195 18.3979 12.737 18.3209 14.0072 18.2229C19.7281 17.7852 24.3407 17.0985 24.3097 16.6935C24.2788 16.2885 19.6152 16.3116 13.8941 16.7503C12.7879 16.8348 11.7237 16.9289 10.7253 17.0277C6.56248 17.4463 3.56716 17.9534 3.59314 18.281Z" fill="#6F9EE0"/>
    <path d="M3.58898 18.2815L3.77248 20.6752L13.9656 19.8941L24.4893 19.0868L24.3056 16.694L10.1527 17.7791L3.58898 18.2815Z" fill="#6F9EE0"/>
    <path d="M3.59351 18.2778L3.77701 20.6715L13.9699 19.8913L13.3265 19.3326C13.3265 19.3326 11.1398 19.4304 10.3933 18.453C10.272 18.2954 10.1926 18.1096 10.1626 17.9131C10.1549 17.8678 10.1528 17.8219 10.1562 17.7761C10.1753 17.4983 10.3906 17.2473 10.7252 17.0263C6.56285 17.4431 3.56753 17.9502 3.59351 18.2778Z" fill="#3074D3"/>
    <path d="M14.1903 20.6196C19.9112 20.1816 24.5235 19.4968 24.4923 19.0902C24.4611 18.6836 19.7981 18.7091 14.0773 19.1472C8.35641 19.5853 3.74406 20.27 3.77527 20.6766C3.80649 21.0832 8.46946 21.0577 14.1903 20.6196Z" fill="#255BB9"/>
    <path d="M23.455 46.5735C23.4629 46.675 23.778 46.7336 24.1593 46.7039C24.5224 46.6757 24.8144 46.5796 24.8348 46.4817C24.8369 46.4772 24.838 46.4723 24.8381 46.4674C24.8302 46.3659 24.5151 46.3072 24.134 46.336C24.086 46.3401 24.038 46.3442 23.9941 46.3511C23.6789 46.3921 23.448 46.4844 23.455 46.5735Z" fill="#3074D3"/>
    <path d="M21.3611 19.3225C21.3691 19.424 21.6841 19.4827 22.0663 19.4532C22.4485 19.4237 22.7502 19.3185 22.7425 19.216C22.7348 19.1136 22.4195 19.0558 22.0382 19.0855C21.6569 19.1152 21.3543 19.2165 21.3611 19.3225Z" fill="#3074D3"/>
    <path d="M21.3657 19.3257L23.4599 46.5712L24.319 46.5056L24.8412 46.4647L22.8035 19.9414L22.7479 19.2194L21.3657 19.3257Z" fill="#3074D3"/>
    <path d="M21.3612 19.3287L23.4552 46.5752C23.4631 46.6767 23.7782 46.7354 24.1595 46.7057C24.5226 46.6775 24.8146 46.5813 24.835 46.4834C24.665 46.527 24.488 46.5356 24.3145 46.5087C24.1939 46.4901 24.0817 46.4357 23.9925 46.3524C23.8814 46.2401 23.815 46.0912 23.8057 45.9335C23.8057 45.9335 21.9104 21.8895 21.8639 20.7849C21.8323 20.0486 22.4084 19.9363 22.7981 19.9443L22.7425 19.2223C22.7355 19.1209 22.4196 19.0621 22.0383 19.0918C21.6569 19.1215 21.3543 19.2227 21.3612 19.3287Z" fill="#255BB9"/>
    <path d="M5.52908 20.5428C5.53699 20.6443 5.85205 20.703 6.23426 20.6735C6.61648 20.644 6.91831 20.5379 6.9104 20.4363C6.90249 20.3348 6.58654 20.276 6.20522 20.3057C5.8239 20.3354 5.52228 20.4406 5.52908 20.5428Z" fill="#3074D3"/>
    <path d="M7.62304 47.7937C7.63094 47.8953 7.946 47.9539 8.32732 47.9242C8.61486 47.9014 8.86432 47.835 8.95957 47.7598C8.97222 47.7522 8.98281 47.7415 8.99046 47.7288C8.9981 47.7162 9.00256 47.7018 9.00346 47.6871C8.99518 47.5996 8.76031 47.5441 8.45058 47.5488C8.40231 47.55 8.35095 47.5524 8.29828 47.5564C7.91859 47.5789 7.61635 47.6869 7.62304 47.7937Z" fill="#3074D3"/>
    <path d="M5.52583 20.5381L7.62001 47.7836L8.64668 47.7054L9.00133 47.6771L7.15624 23.6644L6.90804 20.4318L5.52583 20.5381Z" fill="#3074D3"/>
    <path d="M5.52908 20.5428L7.62204 47.7937C7.62994 47.8953 7.945 47.9539 8.32632 47.9242C8.61386 47.9014 8.86332 47.835 8.95857 47.7598C8.85286 47.7729 8.74557 47.7572 8.64802 47.7144C8.56912 47.677 8.50111 47.6201 8.45048 47.549C8.35856 47.4097 8.30598 47.2482 8.29827 47.0815C8.29827 47.0815 6.83509 27.7166 6.69873 25.6939C6.59563 24.1774 6.96682 23.7795 7.16018 23.6702L6.9104 20.4363C6.9016 20.3346 6.58654 20.276 6.20522 20.3057C5.8239 20.3354 5.52228 20.4406 5.52908 20.5428Z" fill="#255BB9"/>
    <g opacity="0.6">
    <path d="M8.54427 43.3198C7.97682 35.9034 13.0103 35.2571 12.9364 34.2892C12.8626 33.3213 7.68149 32.0975 7.11096 24.6823C6.86784 21.5224 7.58511 20.494 7.58511 20.494L20.7452 19.4826C20.7452 19.4826 21.5977 20.391 21.8409 23.5509C22.4083 30.9673 17.4781 32.9683 17.5522 33.9353C17.6262 34.9023 22.7025 34.7739 23.2727 42.1909C23.5207 45.4159 22.7577 46.5129 22.7577 46.5129L9.73108 47.5124C9.73108 47.5124 8.79141 46.5446 8.54427 43.3198Z" fill="#98B9EA"/>
    <path d="M16.2757 47.5341C19.874 47.2585 22.7721 46.7887 22.7488 46.4846C22.7254 46.1805 19.7895 46.1574 16.1911 46.433C12.5928 46.7085 9.69471 47.1784 9.71805 47.4824C9.7414 47.7865 12.6773 47.8096 16.2757 47.5341Z" fill="#98B9EA"/>
    <path d="M14.2078 20.574C17.842 20.2957 20.7692 19.8236 20.7458 19.5196C20.7225 19.2155 17.7575 19.1946 14.1233 19.4729C10.4891 19.7512 7.56189 20.2233 7.58524 20.5274C7.60858 20.8314 10.5736 20.8523 14.2078 20.574Z" fill="#98B9EA"/>
    </g>
    <path d="M8.7705 27.9159C8.69263 27.993 8.63901 28.0911 8.61626 28.1983C8.5935 28.3054 8.60259 28.4169 8.64242 28.5189C8.71112 28.6964 8.78254 28.866 8.85719 29.0298C9.17497 29.7317 9.57744 30.3922 10.0556 30.9964C12.1303 32.1619 15.6052 31.6814 17.3788 31.592C19.9207 31.4641 20.414 27.3979 18.156 27.771C17.3896 27.9057 16.611 27.9584 15.8333 27.9281C14.6431 27.8778 13.4799 27.622 11.8688 27.2461C10.1982 26.8633 9.24019 27.4492 8.7705 27.9159Z" fill="white"/>
    <path d="M17.297 44.2596C16.481 44.3219 16.2309 40.5611 16.2309 40.5611C15.7539 34.362 16.2955 34.6238 16.3791 33.9598C16.4383 33.2875 19.316 32.0585 20.4915 28.9709L20.5352 28.8538C20.5983 28.6905 20.6238 28.5151 20.6098 28.3406C20.5959 28.1661 20.5428 27.997 20.4545 27.8458C20.0553 27.1903 18.9193 26.7365 15.8374 27.9331L15.5612 28.0423C10.3189 30.1659 8.75839 28.1609 8.64299 28.5184C8.71169 28.6959 8.78311 28.8655 8.85776 29.0293C9.17554 29.7312 9.57801 30.3917 10.0562 30.9959C11.3841 32.6797 13.4862 33.366 14.0163 33.8886C14.0483 33.9212 14.0822 33.9518 14.1178 33.9804C14.3272 34.1514 15.1662 35.1602 15.8616 40.5672C15.9712 41.4068 15.9918 42.2557 15.9231 43.0996C15.8672 43.7576 15.7593 44.3793 15.546 44.3984L17.297 44.2596Z" fill="#E5E5E5"/>
    <path d="M10.005 46.5274C10.0885 46.7288 10.1985 46.9181 10.3322 47.0903L10.342 47.0925C10.5406 47.3608 13.115 47.3871 16.2432 47.1475C19.3714 46.9078 21.911 46.4887 22.0666 46.194L22.0765 46.1963C22.1224 46.1149 22.1608 46.0295 22.1911 45.9411C22.1948 45.925 22.2031 45.9091 22.2097 45.8927C22.2349 45.8232 22.2631 45.7412 22.2909 45.644C22.2972 45.6163 22.3037 45.5877 22.3157 45.5556C22.3277 45.5236 22.3296 45.4948 22.3361 45.4662C22.3416 45.4441 22.342 45.421 22.3372 45.3987C22.3324 45.3764 22.3227 45.3555 22.3087 45.3375C22.2946 45.3196 22.2767 45.305 22.2562 45.295C22.2357 45.285 22.2132 45.2797 22.1904 45.2796C21.6492 45.2842 20.1537 45.3467 16.0915 45.6585C13.3137 45.8717 11.3171 46.0561 10.1633 46.1882C10.1294 46.1922 10.0968 46.2041 10.0682 46.2229C10.0396 46.2416 10.0158 46.2668 9.99858 46.2963C9.98136 46.3258 9.97122 46.359 9.96897 46.3931C9.96672 46.4272 9.97241 46.4614 9.98561 46.4929L10.005 46.5274Z" fill="#E5E5E5"/>
    <path d="M19.6734 46.0034C19.7353 45.9717 19.787 45.9231 19.8224 45.8632C19.8578 45.8033 19.8754 45.7346 19.8732 45.6651C19.871 45.5956 19.8491 45.5281 19.81 45.4705C19.7709 45.413 19.7162 45.3677 19.6524 45.3401C18.9901 45.0629 18.4034 44.6318 17.9413 44.0825C16.9345 42.8557 15.2438 42.9199 14.3111 44.361C13.3783 45.8022 12.0821 45.8283 12.0102 46.3623C11.9194 47.0368 16.082 47.8449 19.6734 46.0034Z" fill="#E5E5E5"/>
    <path d="M10.2429 46.1972C10.2038 46.1856 10.1623 46.1855 10.1233 46.1969C10.0842 46.2082 10.0492 46.2305 10.0224 46.2611C9.99558 46.2917 9.97814 46.3294 9.9721 46.3696C9.96606 46.4099 9.97169 46.451 9.98831 46.4881C10.0751 46.7033 10.1911 46.9054 10.3332 47.0889L10.343 47.0911C10.5416 47.3593 13.116 47.3857 16.2442 47.146C19.3724 46.9064 21.912 46.4873 22.0676 46.1926L22.0775 46.1949C22.0775 46.1949 22.2135 45.9822 22.3432 45.4671C22.3498 45.4397 22.3486 45.411 22.3398 45.3843C22.3309 45.3576 22.3147 45.3338 22.293 45.3159C22.2713 45.2979 22.245 45.2863 22.2171 45.2826C22.1891 45.2788 22.1607 45.2829 22.135 45.2945C21.7097 45.4882 21.0664 45.7094 20.0985 45.9139C19.1305 46.1184 17.8436 46.3103 16.1198 46.4413C14.4502 46.5695 13.1915 46.576 12.2441 46.5171C11.2967 46.4581 10.6694 46.3283 10.2429 46.1972Z" fill="#CCCCCC"/>
    <path d="M22.5938 40.2379C22.5938 40.2379 21.7605 36.538 18.7028 35.552C15.6452 34.5659 20.8358 38.7317 21.3065 42.5032C21.6351 45.152 23.1876 42.6895 22.5938 40.2379Z" fill="white"/>
    <path d="M20.9327 24.8602C20.9327 24.8602 21.5005 25.4657 21.1266 27.2619C20.7528 29.0582 19.2204 30.3927 19.3893 28.1706C19.5581 25.9485 20.1662 24.0203 20.9327 24.8602Z" fill="white"/>
    </g>
    <defs>
    <clipPath id="clip0_166_171054">
    <rect width="54" height="54" fill="white"/>
    </clipPath>
    </defs>
    </svg>
    