<svg width="18" height="18" viewBox="0 0 18 18" fill="none" xmlns="http://www.w3.org/2000/svg">
    <path d="M17.0993 2.41877C17.1003 6.31197 15.5548 10.0462 12.8028 12.7999C10.0507 15.5537 6.31748 17.1014 2.42427 17.1028H2.41827C2.24664 17.1026 2.08014 17.0443 1.94592 16.9373C1.81171 16.8303 1.71771 16.681 1.67927 16.5138L1.27027 14.7448L1.03927 13.7448L0.917271 13.2238C0.877847 13.0489 0.900738 12.8658 0.98199 12.706C1.06324 12.5463 1.19775 12.4199 1.36227 12.3488L4.89927 10.8298C5.05051 10.7645 5.21896 10.7504 5.37893 10.7898C5.53889 10.8291 5.6816 10.9197 5.78527 11.0478L6.18527 11.5358L6.85327 12.3508L7.35327 12.9688C9.81628 11.8077 11.7988 9.82615 12.9613 7.36376L12.3473 6.86376L11.5333 6.19477L11.0453 5.79477C10.9169 5.69113 10.8261 5.54825 10.7867 5.38803C10.7473 5.22782 10.7616 5.0591 10.8273 4.90777L12.3433 1.36177C12.4147 1.19926 12.5405 1.06677 12.6992 0.987168C12.8579 0.907569 13.0393 0.885852 13.2123 0.925767L13.7373 1.04377L14.7373 1.27377L16.5013 1.68177C16.6684 1.72061 16.8175 1.81488 16.9243 1.94924C17.0311 2.08361 17.0892 2.25015 17.0893 2.42177" fill="#919191"/>
    </svg>
    