<svg width="74" height="74" viewBox="0 0 74 74" fill="none" xmlns="http://www.w3.org/2000/svg">
<path d="M37 0C44.3179 0 51.4715 2.17001 57.5561 6.23562C63.6407 10.3012 68.3831 16.0798 71.1835 22.8407C73.984 29.6016 74.7167 37.041 73.2891 44.2183C71.8614 51.3956 68.3375 57.9884 63.163 63.163C57.9884 68.3375 51.3956 71.8614 44.2183 73.2891C37.041 74.7167 29.6016 73.984 22.8407 71.1835C16.0798 68.3831 10.3012 63.6407 6.23562 57.5561C2.17001 51.4715 0 44.3179 0 37C0 27.187 3.8982 17.7759 10.837 10.837C17.7759 3.8982 27.187 0 37 0V0Z" fill="#AFDFD6"/>
<path opacity="0.5" d="M7.73438 59.6427C16.4228 53.9231 26.5968 50.875 36.9989 50.875C47.4009 50.875 57.5749 53.9231 66.2634 59.6427C62.809 64.1151 58.3744 67.7353 53.3009 70.2245C48.2275 72.7137 42.6506 74.0056 36.9994 74.0007C31.3481 74.0054 25.7711 72.7134 20.6975 70.2242C15.624 67.735 11.1892 64.115 7.73438 59.6427H7.73438Z" fill="#127E5A"/>
<path opacity="0.5" d="M37 13.875C41.5737 13.875 46.0447 15.2313 49.8476 17.7723C53.6504 20.3133 56.6144 23.9249 58.3647 28.1504C60.115 32.376 60.5729 37.0257 59.6807 41.5115C58.7884 45.9973 56.5859 50.1178 53.3518 53.3518C50.1178 56.5859 45.9973 58.7884 41.5115 59.6807C37.0257 60.5729 32.376 60.115 28.1504 58.3647C23.9249 56.6144 20.3133 53.6504 17.7723 49.8476C15.2313 46.0447 13.875 41.5737 13.875 37C13.875 30.8669 16.3114 24.9849 20.6482 20.6482C24.9849 16.3114 30.8669 13.875 37 13.875V13.875Z" fill="#127E5A"/>
</svg>
