<svg width="14" height="14" viewBox="0 0 14 14" fill="none" xmlns="http://www.w3.org/2000/svg">
<path d="M10.5228 1.60006C9.88198 1.08424 9.13624 0.714606 8.33771 0.516987C7.53917 0.319368 6.70711 0.298538 5.89969 0.455951C4.99343 0.622827 4.14469 1.01799 3.43363 1.60411C2.72257 2.19023 2.17268 2.94796 1.8359 3.8057C1.49912 4.66344 1.38658 5.59288 1.50891 6.50622C1.63124 7.41955 1.9844 8.28662 2.53502 9.02551C3.3128 10.0592 5.56369 12.4477 6.49391 13.4293C6.5586 13.4986 6.63687 13.5539 6.72384 13.5917C6.81081 13.6295 6.90463 13.649 6.99946 13.649C7.0943 13.649 7.18811 13.6295 7.27509 13.5917C7.36206 13.5539 7.44032 13.4986 7.50502 13.4293C8.43057 12.4485 10.6659 10.0537 11.4421 9.02784C12.2859 7.91336 12.6616 6.51364 12.4891 5.12644C12.3167 3.73924 11.6099 2.47407 10.5189 1.60006M10.487 5.80006C10.5003 6.49235 10.3079 7.17302 9.93426 7.75596C9.5606 8.33889 9.02242 8.79789 8.38783 9.07489C7.75324 9.35189 7.05074 9.43444 6.36922 9.31209C5.6877 9.18974 5.05778 8.868 4.55917 8.38756C4.06055 7.90713 3.71564 7.28959 3.56807 6.61308C3.4205 5.93657 3.47691 5.2315 3.73016 4.58705C3.98341 3.94261 4.42211 3.38777 4.99077 2.99272C5.55943 2.59767 6.23249 2.38017 6.9248 2.36773H6.98857C7.90827 2.36006 8.79342 2.7177 9.44965 3.36212C10.1059 4.00653 10.4795 4.88504 10.4886 5.80473L10.487 5.80006Z" fill="#919191"/>
</svg>
