<svg width="18" height="18" viewBox="0 0 18 18" fill="none" xmlns="http://www.w3.org/2000/svg">
    <path d="M16.9144 5.68123C16.8916 5.59115 16.8454 5.50874 16.7803 5.44239C16.7153 5.37604 16.6338 5.32815 16.5442 5.30359C16.4546 5.27903 16.3601 5.2787 16.2703 5.30262C16.1805 5.32653 16.0987 5.37385 16.0332 5.43973L12.7752 8.69773L9.8014 8.20198L9.30565 5.22823L12.5644 1.97098C12.6307 1.9051 12.6781 1.82272 12.7019 1.73237C12.7257 1.64201 12.725 1.54693 12.6997 1.45697C12.6745 1.367 12.6257 1.28539 12.5584 1.22057C12.4911 1.15575 12.4078 1.11006 12.3169 1.08823C11.222 0.812715 10.073 0.837567 8.99102 1.16017C7.90903 1.48277 6.93405 2.09118 6.16878 2.92133C5.40351 3.75147 4.87627 4.77262 4.64258 5.87723C4.40889 6.98185 4.4774 8.12903 4.8409 9.19798L1.7269 12.3157C1.23617 12.8479 0.9703 13.5493 0.98495 14.273C0.9996 14.9967 1.29363 15.6868 1.8055 16.1986C2.31737 16.7105 3.0074 17.0045 3.73114 17.0192C4.45488 17.0338 5.15624 16.768 5.6884 16.2772L8.7979 13.167C9.86801 13.5298 11.0161 13.5974 12.1214 13.3629C13.2268 13.1284 14.2484 12.6004 15.079 11.8343C15.9096 11.0682 16.5185 10.0925 16.8414 9.00973C17.1644 7.92694 17.1896 6.77713 16.9144 5.68123ZM3.70615 15.3495C3.49848 15.3495 3.29548 15.2879 3.12281 15.1725C2.95013 15.0571 2.81555 14.8932 2.73608 14.7013C2.65661 14.5094 2.63581 14.2983 2.67633 14.0946C2.71684 13.891 2.81685 13.7039 2.96369 13.557C3.11054 13.4102 3.29763 13.3102 3.50131 13.2697C3.70499 13.2291 3.91611 13.2499 4.10797 13.3294C4.29983 13.4089 4.46382 13.5435 4.5792 13.7161C4.69457 13.8888 4.75615 14.0918 4.75615 14.2995C4.75615 14.578 4.64553 14.845 4.44862 15.0419C4.2517 15.2389 3.98463 15.3495 3.70615 15.3495Z" fill="#919191"/>
    </svg>
    