<svg width="18" height="18" viewBox="0 0 18 18" fill="none" xmlns="http://www.w3.org/2000/svg">
<path d="M7.78645 2.1645L8.58645 1.3645C8.66676 1.28365 8.76226 1.21949 8.86747 1.1757C8.97267 1.13192 9.0855 1.10938 9.19945 1.10938C9.3134 1.10938 9.42623 1.13192 9.53144 1.1757C9.63664 1.21949 9.73215 1.28365 9.81245 1.3645L16.8414 8.3895C16.9223 8.4698 16.9865 8.56531 17.0303 8.67052C17.074 8.77572 17.0966 8.88855 17.0966 9.0025C17.0966 9.11646 17.074 9.22928 17.0303 9.33449C16.9865 9.43969 16.9223 9.5352 16.8414 9.6155L9.81445 16.6415C9.73415 16.7224 9.63864 16.7865 9.53344 16.8303C9.42823 16.8741 9.3154 16.8966 9.20145 16.8966C9.0875 16.8966 8.97467 16.8741 8.86946 16.8303C8.76426 16.7865 8.66876 16.7224 8.58845 16.6415L7.78845 15.8415C7.707 15.7597 7.64266 15.6625 7.5992 15.5555C7.55574 15.4486 7.53403 15.334 7.53533 15.2186C7.53663 15.1031 7.56093 14.9891 7.60679 14.8832C7.65265 14.7772 7.71917 14.6815 7.80245 14.6015L12.1595 10.4505H1.76645C1.65214 10.4508 1.5389 10.4284 1.43327 10.3847C1.32765 10.341 1.23172 10.2768 1.15103 10.1958C1.07033 10.1148 1.00647 10.0187 0.96312 9.9129C0.91977 9.80713 0.897792 9.69382 0.898452 9.5795V8.4225C0.898452 8.30861 0.920918 8.19583 0.964563 8.09063C1.00821 7.98544 1.07218 7.88988 1.1528 7.80944C1.23343 7.729 1.32913 7.66525 1.43443 7.62185C1.53973 7.57844 1.65256 7.55624 1.76645 7.5565H12.1575L7.79845 3.4045C7.71444 3.32492 7.64731 3.22923 7.60107 3.12315C7.55483 3.01707 7.53042 2.90276 7.5293 2.78705C7.52818 2.67133 7.55037 2.55658 7.59455 2.44962C7.63873 2.34266 7.704 2.2457 7.78645 2.1645Z" fill="white"/>
</svg>
