<svg width="18" height="18" viewBox="0 0 18 18" fill="none" xmlns="http://www.w3.org/2000/svg">
<path d="M11.3909 9.00313L14.9724 5.42138C15.1835 5.21021 15.3021 4.92383 15.3021 4.62521C15.3021 4.3266 15.1835 4.04021 14.9724 3.82904L14.1763 3.03287C13.9651 2.82173 13.6788 2.70312 13.3802 2.70312C13.0816 2.70312 12.7952 2.82173 12.5841 3.03287L9.00363 6.61462L5.42116 3.03287C5.21001 2.82173 4.92365 2.70312 4.62506 2.70312C4.32647 2.70312 4.0401 2.82173 3.82895 3.03287L3.03285 3.82904C2.82173 4.04021 2.70312 4.3266 2.70312 4.62521C2.70313 4.92383 2.82173 5.21021 3.03285 5.42138L6.6143 9.00313L3.03386 12.5849C2.82275 12.796 2.70414 13.0824 2.70414 13.381C2.70414 13.6797 2.82275 13.966 3.03386 14.1772L3.82997 14.9734C4.04112 15.1845 4.32748 15.3031 4.62607 15.3031C4.92466 15.3031 5.21103 15.1845 5.42218 14.9734L9.00363 11.3916L12.5851 14.9734C12.7962 15.1845 13.0826 15.3031 13.3812 15.3031C13.6798 15.3031 13.9661 15.1845 14.1773 14.9734L14.9734 14.1772C15.1845 13.966 15.3031 13.6797 15.3031 13.381C15.3031 13.0824 15.1845 12.796 14.9734 12.5849L11.3909 9.00313Z" fill="#919191"/>
</svg>
