<svg width="18" height="18" viewBox="0 0 18 18" fill="none" xmlns="http://www.w3.org/2000/svg">
<path d="M17.3211 15.2401L15.4631 13.3831C15.3882 13.3083 15.2991 13.249 15.2011 13.2089C15.1031 13.1687 14.9981 13.1484 14.8921 13.1491H14.3601C15.477 11.7694 16.0848 10.0472 16.0811 8.27213C16.084 6.50121 15.4853 4.78183 14.383 3.39576C13.2808 2.00968 11.7404 1.03913 10.0143 0.643159C8.28824 0.247186 6.47885 0.449276 4.88266 1.21631C3.28648 1.98335 1.99818 3.26983 1.2289 4.86494C0.459615 6.46004 0.254976 8.26915 0.648519 9.99579C1.04206 11.7224 2.01044 13.2642 3.39496 14.3684C4.77948 15.4726 6.49802 16.0737 8.26894 16.0733C10.0399 16.0729 11.7581 15.471 13.1421 14.3661V14.8841C13.1413 14.9898 13.1616 15.0945 13.2018 15.1922C13.242 15.2899 13.3012 15.3786 13.3761 15.4531L15.2351 17.3201C15.3858 17.4691 15.5892 17.5527 15.8011 17.5527C16.013 17.5527 16.2164 17.4691 16.3671 17.3201L17.3181 16.3831C17.4661 16.2305 17.5489 16.0262 17.5489 15.8136C17.5489 15.601 17.4661 15.3968 17.3181 15.2441M8.26812 13.4021C7.25454 13.3994 6.26452 13.0963 5.42309 12.5312C4.58166 11.9661 3.92657 11.1643 3.54056 10.2271C3.15455 9.28988 3.05493 8.2593 3.25429 7.26552C3.45366 6.27173 3.94305 5.35932 4.66067 4.64352C5.37829 3.92771 6.29194 3.44063 7.28622 3.24378C8.28051 3.04693 9.31083 3.14916 10.2471 3.53754C11.1833 3.92592 11.9834 4.58304 12.5464 5.42589C13.1094 6.26875 13.4099 7.25954 13.4101 8.27313C13.4099 8.9477 13.2766 9.6156 13.0179 10.2386C12.7593 10.8616 12.3803 11.4275 11.9027 11.9039C11.4251 12.3803 10.8582 12.7578 10.2346 13.0149C9.61093 13.272 8.94269 13.4036 8.26812 13.4021Z" fill="currentColor"/>
</svg>
