<svg width="18" height="18" viewBox="0 0 18 18" fill="none" xmlns="http://www.w3.org/2000/svg">
<path d="M16.9116 5.68145C16.8888 5.59146 16.8424 5.50915 16.7774 5.4429C16.7123 5.37666 16.6309 5.32885 16.5413 5.30435C16.4518 5.27985 16.3573 5.27954 16.2676 5.30345C16.1779 5.32736 16.0961 5.37463 16.0306 5.44045L12.7726 8.70245L9.79862 8.20245L9.29862 5.22845L12.5566 1.97045C12.6226 1.9044 12.6699 1.82198 12.6935 1.73163C12.7171 1.64129 12.7162 1.54629 12.691 1.45639C12.6657 1.36649 12.617 1.28493 12.5498 1.22009C12.4826 1.15525 12.3994 1.10947 12.3086 1.08745C11.2134 0.81246 10.0644 0.837937 8.98244 1.1612C7.90052 1.48446 6.92582 2.09354 6.16102 2.92427C5.39621 3.75501 4.86962 4.77663 4.63671 5.88153C4.40381 6.98643 4.47321 8.13369 4.83762 9.20245L1.71962 12.3165C1.19382 12.8422 0.898437 13.5554 0.898438 14.299C0.898438 15.0425 1.19382 15.7557 1.71962 16.2815C2.24541 16.8072 2.95853 17.1026 3.70212 17.1026C4.4457 17.1026 5.15882 16.8072 5.68462 16.2815L8.79462 13.1715C9.86507 13.5347 11.0137 13.6027 12.1195 13.3681C13.2253 13.1336 14.2474 12.6052 15.0782 11.8387C15.9091 11.0721 16.5178 10.0958 16.8405 9.01237C17.1631 7.92898 17.1877 6.77864 16.9116 5.68245M3.69862 15.3495C3.49079 15.3485 3.28793 15.2859 3.11567 15.1696C2.94341 15.0534 2.80948 14.8886 2.73082 14.6963C2.65216 14.5039 2.63229 14.2925 2.67373 14.0889C2.71517 13.8852 2.81606 13.6984 2.96364 13.5521C3.11122 13.4058 3.29887 13.3065 3.50287 13.2668C3.70687 13.2271 3.91806 13.2488 4.10974 13.3291C4.30142 13.4094 4.46499 13.5447 4.57978 13.718C4.69456 13.8912 4.7554 14.0946 4.75462 14.3025C4.75409 14.4406 4.72635 14.5772 4.67299 14.7046C4.61962 14.832 4.54168 14.9476 4.44361 15.0448C4.34553 15.142 4.22926 15.219 4.10143 15.2713C3.9736 15.3235 3.83672 15.3501 3.69862 15.3495" fill="currentColor"/>
</svg>
