<svg width="18" height="18" viewBox="0 0 18 18" fill="none" xmlns="http://www.w3.org/2000/svg">
<path fill-rule="evenodd" clip-rule="evenodd" d="M8.3504 16.3379L3.8014 11.7889C3.6735 11.6603 3.58652 11.4967 3.55142 11.3187C3.51633 11.1408 3.53469 10.9564 3.60419 10.7888C3.6737 10.6213 3.79123 10.478 3.942 10.3772C4.09276 10.2763 4.27001 10.2223 4.4514 10.2219H13.5514C13.7328 10.2223 13.9101 10.2763 14.0608 10.3772C14.2116 10.478 14.3291 10.6213 14.3986 10.7888C14.4681 10.9564 14.4865 11.1408 14.4514 11.3187C14.4163 11.4967 14.3293 11.6603 14.2014 11.7889L9.65041 16.3379C9.5654 16.4239 9.46418 16.4922 9.3526 16.5388C9.24103 16.5854 9.12132 16.6094 9.00041 16.6094C8.87949 16.6094 8.75978 16.5854 8.64821 16.5388C8.53663 16.4922 8.43541 16.4239 8.3504 16.3379ZM3.7974 6.20848L8.3484 1.65748C8.43341 1.57149 8.53463 1.50323 8.64621 1.45664C8.75778 1.41005 8.87749 1.38605 8.9984 1.38605C9.11932 1.38605 9.23903 1.41005 9.3506 1.45664C9.46218 1.50323 9.5634 1.57149 9.6484 1.65748L14.2014 6.20848C14.3296 6.33735 14.4166 6.50133 14.4516 6.67968C14.4865 6.85802 14.4678 7.04272 14.3978 7.21044C14.3278 7.37816 14.2097 7.52137 14.0583 7.62194C13.9069 7.72252 13.7291 7.77595 13.5474 7.77549L4.4474 7.77549C4.266 7.77516 4.08876 7.72115 3.93799 7.62027C3.78723 7.51939 3.66969 7.37615 3.60019 7.2086C3.53069 7.04104 3.51233 6.85666 3.54742 6.67869C3.58251 6.50072 3.6695 6.33711 3.7974 6.20848ZM9.00835 2.29022L13.5632 6.84309C13.5657 6.84572 13.5677 6.84926 13.5684 6.85283C13.5691 6.85651 13.5687 6.86033 13.5673 6.8638C13.5658 6.86728 13.5634 6.87024 13.5603 6.87232C13.5571 6.87439 13.5535 6.87549 13.5497 6.87549L4.44882 6.87549C4.44515 6.87544 4.44156 6.87433 4.43849 6.87227C4.43538 6.87019 4.43295 6.86723 4.43151 6.86376C4.43007 6.8603 4.42969 6.85649 4.43042 6.85281C4.43112 6.84924 4.43307 6.84571 4.43559 6.84309L8.98481 2.29389L8.98845 2.29021C8.98974 2.2889 8.99129 2.28786 8.99301 2.28714C8.99474 2.28641 8.99657 2.28605 8.9984 2.28605C9.00023 2.28605 9.00207 2.28641 9.0038 2.28714C9.00552 2.28786 9.00706 2.28891 9.00835 2.29022Z" fill="white"/>
</svg>
