<svg xmlns="http://www.w3.org/2000/svg" width="18" height="18" viewBox="0 0 18 18">
  <g id="Group_104070" data-name="Group 104070" transform="translate(-775.874 -244.001)">
    <rect id="Rectangle_60352" data-name="Rectangle 60352" width="18" height="18" transform="translate(775.874 244.001)" fill="#919191" opacity="0"/>
    <path id="Path_41803" data-name="Path 41803" d="M782.343,257.4h-1.29v-11.72a.683.683,0,0,0-.683-.683h-1.86a.683.683,0,0,0-.683.683V257.4h-1.29a.512.512,0,0,0-.373.864l2.9,3.074a.513.513,0,0,0,.724.02l.021-.02,2.9-3.074a.513.513,0,0,0-.372-.864Zm8.477-5.523h-6.068a.581.581,0,0,0-.58.581v1.58a.581.581,0,0,0,.58.581h6.068a.581.581,0,0,0,.581-.581v-1.58A.581.581,0,0,0,790.821,251.879Zm2.323-4.742h-8.391a.581.581,0,0,0-.58.581v1.58a.581.581,0,0,0,.58.581h8.391a.581.581,0,0,0,.58-.581v-1.58A.581.581,0,0,0,793.144,247.137Zm-4.646,9.484h-3.745a.581.581,0,0,0-.58.581v1.58a.581.581,0,0,0,.58.581H788.5a.581.581,0,0,0,.581-.581V257.2A.581.581,0,0,0,788.5,256.622Z" transform="translate(0 -0.25)" fill="#919191"/>
  </g>
</svg>
