<svg width="18" height="18" viewBox="0 0 18 18" fill="none" xmlns="http://www.w3.org/2000/svg">
<path d="M4.4526 10.2266H13.5526C13.734 10.2269 13.9112 10.2809 14.062 10.3818C14.2128 10.4827 14.3303 10.6259 14.3998 10.7935C14.4693 10.961 14.4877 11.1454 14.4526 11.3234C14.4175 11.5013 14.3305 11.6649 14.2026 11.7936L9.6516 16.3446C9.56659 16.4306 9.46537 16.4988 9.35379 16.5454C9.24222 16.592 9.12251 16.616 9.0016 16.616C8.88068 16.616 8.76097 16.592 8.6494 16.5454C8.53782 16.4988 8.4366 16.4306 8.3516 16.3446L3.7986 11.7936C3.67045 11.6647 3.58339 11.5007 3.54842 11.3224C3.51345 11.144 3.53215 10.9593 3.60215 10.7916C3.67215 10.6239 3.79031 10.4807 3.94168 10.3801C4.09306 10.2795 4.27086 10.2261 4.4526 10.2266Z" fill="#6F9EE0"/>
<path opacity="0.4" d="M14.1986 6.21106L9.6496 1.66206C9.56459 1.57607 9.46337 1.5078 9.35179 1.46121C9.24022 1.41462 9.12051 1.39063 8.99959 1.39062C8.87868 1.39063 8.75897 1.41462 8.6474 1.46121C8.53582 1.5078 8.4346 1.57607 8.34959 1.66206L3.7986 6.21106C3.67069 6.33968 3.58371 6.50329 3.54861 6.68126C3.51352 6.85924 3.53188 7.04361 3.60138 7.21117C3.67089 7.37873 3.78842 7.52197 3.93919 7.62284C4.08995 7.72372 4.2672 7.77773 4.44859 7.77805H13.5486C13.73 7.77773 13.9072 7.72372 14.058 7.62284C14.2088 7.52197 14.3263 7.37873 14.3958 7.21117C14.4653 7.04361 14.4837 6.85924 14.4486 6.68126C14.4135 6.50329 14.3265 6.33968 14.1986 6.21106Z" fill="#6F9EE0"/>
</svg>
