<svg width="14" height="14" viewBox="0 0 14 14" fill="none" xmlns="http://www.w3.org/2000/svg">
<path d="M6.54123 10.2928L2.14523 5.89914C2.02222 5.77592 1.95312 5.60892 1.95312 5.43481C1.95313 5.26069 2.02222 5.09369 2.14523 4.97047L2.76745 4.34825C2.89074 4.22567 3.05753 4.15686 3.2314 4.15686C3.40526 4.15686 3.57205 4.22567 3.69534 4.34825L7.00789 7.63825L10.3228 4.34047C10.4459 4.21751 10.6127 4.14844 10.7867 4.14844C10.9607 4.14844 11.1276 4.21751 11.2507 4.34047L11.8729 4.9627C11.9959 5.08578 12.0649 5.25265 12.0649 5.42664C12.0649 5.60063 11.9959 5.7675 11.8729 5.89059L7.46678 10.2928C7.34389 10.4153 7.17748 10.484 7.00401 10.484C6.83053 10.484 6.66412 10.4153 6.54123 10.2928Z" fill="currentColor"/>
</svg>
