<svg width="18" height="18" viewBox="0 0 18 18" fill="none" xmlns="http://www.w3.org/2000/svg">
<path d="M6.46763 4.85481H5.17759V16.5748C5.17759 16.756 5.10566 16.9297 4.97758 17.0578C4.84949 17.1858 4.67575 17.2578 4.49461 17.2578H2.63462C2.45348 17.2578 2.27974 17.1858 2.15165 17.0578C2.02356 16.9297 1.95164 16.756 1.95164 16.5748V4.85481H0.661598C0.561425 4.85505 0.463381 4.82589 0.379615 4.77095C0.295849 4.71601 0.230049 4.6377 0.190345 4.54573C0.150641 4.45376 0.138822 4.35216 0.156288 4.25352C0.173753 4.15489 0.219742 4.06354 0.288612 3.9908L3.18864 0.916794C3.28211 0.81834 3.41078 0.760965 3.54649 0.757217C3.68219 0.753469 3.81387 0.803661 3.91264 0.896805L3.93363 0.916794L6.83359 3.9908C6.90194 4.06365 6.94758 4.15486 6.96482 4.25325C6.98206 4.35164 6.9702 4.45295 6.9307 4.54469C6.8912 4.63644 6.82573 4.71464 6.74241 4.76973C6.65908 4.82482 6.56147 4.8544 6.46159 4.85481H6.46763ZM14.9446 10.3778H8.87662C8.72271 10.3775 8.57515 10.3162 8.46641 10.2073C8.35766 10.0983 8.29661 9.95073 8.29661 9.79681V8.21681C8.29661 8.06289 8.35766 7.91527 8.46641 7.80634C8.57515 7.69741 8.72271 7.63607 8.87662 7.6358H14.9446C15.0987 7.6358 15.2465 7.69703 15.3554 7.80598C15.4644 7.91494 15.5256 8.06272 15.5256 8.21681V9.79681C15.5251 9.95039 15.4638 10.0975 15.3551 10.206C15.2464 10.3145 15.0992 10.3755 14.9456 10.3758L14.9446 10.3778ZM17.2676 15.1198H8.87662C8.72271 15.1195 8.57515 15.0582 8.46641 14.9493C8.35766 14.8403 8.29661 14.6927 8.29661 14.5388V12.9588C8.29661 12.8049 8.35766 12.6573 8.46641 12.5483C8.57515 12.4394 8.72271 12.3781 8.87662 12.3778H17.2676C17.4215 12.3781 17.569 12.4394 17.6778 12.5483C17.7865 12.6573 17.8476 12.8049 17.8476 12.9588V14.5388C17.8471 14.6922 17.7859 14.8392 17.6775 14.9476C17.569 15.0561 17.422 15.1173 17.2686 15.1178L17.2676 15.1198ZM12.6216 5.63582H8.87662C8.72271 5.63555 8.57515 5.57422 8.46641 5.46529C8.35766 5.35636 8.29661 5.20871 8.29661 5.05479V3.47481C8.29661 3.32089 8.35766 3.17325 8.46641 3.06432C8.57515 2.95539 8.72271 2.89408 8.87662 2.89381H12.6246C12.7009 2.89381 12.7765 2.90884 12.847 2.93803C12.9175 2.96723 12.9815 3.01003 13.0354 3.06398C13.0894 3.11793 13.1322 3.18197 13.1614 3.25246C13.1906 3.32295 13.2056 3.39851 13.2056 3.47481V5.05479C13.2048 5.20836 13.1433 5.35539 13.0344 5.4637C12.9255 5.57201 12.7782 5.6328 12.6246 5.6328L12.6216 5.63582Z" fill="#919191"/>
</svg>
