<svg width="18" height="18" viewBox="0 0 18 18" fill="none" xmlns="http://www.w3.org/2000/svg">
<path d="M6.46763 13.1452H5.17759V1.42519C5.17759 1.24404 5.10566 1.07033 4.97758 0.942245C4.84949 0.814158 4.67575 0.742188 4.49461 0.742188H2.63462C2.45348 0.742188 2.27974 0.814158 2.15165 0.942245C2.02356 1.07033 1.95164 1.24404 1.95164 1.42519V13.1452H0.661598C0.561425 13.145 0.463381 13.1741 0.379615 13.229C0.295849 13.284 0.230049 13.3623 0.190345 13.4543C0.150641 13.5462 0.138822 13.6478 0.156288 13.7465C0.173753 13.8451 0.219742 13.9365 0.288612 14.0092L3.18864 17.0832C3.28211 17.1817 3.41078 17.239 3.54649 17.2428C3.68219 17.2465 3.81387 17.1963 3.91264 17.1032L3.93363 17.0832L6.83359 14.0092C6.90194 13.9364 6.94758 13.8451 6.96482 13.7467C6.98206 13.6484 6.9702 13.5471 6.9307 13.4553C6.8912 13.3636 6.82573 13.2854 6.74241 13.2303C6.65908 13.1752 6.56147 13.1456 6.46159 13.1452H6.46763ZM14.9446 7.62219H8.87662C8.72271 7.62246 8.57515 7.68379 8.46641 7.79272C8.35766 7.90165 8.29661 8.04927 8.29661 8.20319V9.78319C8.29661 9.93711 8.35766 10.0847 8.46641 10.1937C8.57515 10.3026 8.72271 10.3639 8.87662 10.3642H14.9446C15.0987 10.3642 15.2465 10.303 15.3554 10.194C15.4644 10.0851 15.5256 9.93728 15.5256 9.78319V8.20319C15.5251 8.04961 15.4638 7.9025 15.3551 7.79401C15.2464 7.68551 15.0992 7.62445 14.9456 7.62419L14.9446 7.62219ZM17.2676 2.88019H8.87662C8.72271 2.88045 8.57515 2.94179 8.46641 3.05072C8.35766 3.15965 8.29661 3.30728 8.29661 3.4612V5.0412C8.29661 5.19512 8.35766 5.34275 8.46641 5.45168C8.57515 5.56061 8.72271 5.62193 8.87662 5.62219H17.2676C17.4215 5.62193 17.569 5.56061 17.6778 5.45168C17.7865 5.34275 17.8476 5.19512 17.8476 5.0412V3.4612C17.8471 3.3078 17.7859 3.16084 17.6775 3.05237C17.569 2.9439 17.422 2.88271 17.2686 2.88219L17.2676 2.88019ZM12.6216 12.3642H8.87662C8.72271 12.3644 8.57515 12.4258 8.46641 12.5347C8.35766 12.6436 8.29661 12.7913 8.29661 12.9452V14.5252C8.29661 14.6791 8.35766 14.8268 8.46641 14.9357C8.57515 15.0446 8.72271 15.1059 8.87662 15.1062H12.6246C12.7009 15.1062 12.7765 15.0912 12.847 15.062C12.9175 15.0328 12.9815 14.99 13.0354 14.936C13.0894 14.8821 13.1322 14.818 13.1614 14.7475C13.1906 14.6771 13.2056 14.6015 13.2056 14.5252V12.9452C13.2048 12.7916 13.1433 12.6446 13.0344 12.5363C12.9255 12.428 12.7782 12.3672 12.6246 12.3672L12.6216 12.3642Z" fill="#919191"/>
</svg>
