<svg width="18" height="18" viewBox="0 0 18 18" fill="none" xmlns="http://www.w3.org/2000/svg">
    <path d="M17.5094 6.91355C17.4579 6.73995 17.3561 6.58549 17.2169 6.46964C17.0778 6.35378 16.9074 6.28173 16.7274 6.26255L11.7914 5.79455L9.84037 1.02855C9.77566 0.859275 9.66109 0.713633 9.51182 0.610885C9.36254 0.508137 9.18559 0.453125 9.00437 0.453125C8.82315 0.453125 8.6462 0.508137 8.49692 0.610885C8.34765 0.713633 8.23308 0.859275 8.16837 1.02855L6.21737 5.79455L1.28037 6.26255C1.1004 6.28198 0.930174 6.35413 0.791054 6.46995C0.651934 6.58576 0.550114 6.74008 0.498372 6.91355C0.442893 7.08945 0.438337 7.27746 0.485233 7.45584C0.532128 7.63422 0.628558 7.79568 0.763372 7.92155L4.49537 11.3365L3.39537 16.3935C3.355 16.5734 3.36677 16.7611 3.42929 16.9345C3.49182 17.1079 3.60251 17.2598 3.74837 17.3725C3.8904 17.4815 4.06237 17.5442 4.24115 17.5525C4.41994 17.5607 4.59695 17.514 4.74837 17.4185L9.00437 14.7625L13.2604 17.4185C13.4118 17.5138 13.5888 17.5605 13.7676 17.5522C13.9463 17.544 14.1183 17.4813 14.2604 17.3725C14.4062 17.2598 14.5169 17.1079 14.5795 16.9345C14.642 16.7611 14.6537 16.5734 14.6134 16.3935L13.5134 11.3365L17.2444 7.92155C17.3792 7.79568 17.4756 7.63422 17.5225 7.45584C17.5694 7.27746 17.5649 7.08945 17.5094 6.91355Z" fill="currentColor"/>
    </svg>
    