<svg width="18" height="6" viewBox="0 0 18 6" fill="none" xmlns="http://www.w3.org/2000/svg">
    <path d="M2.50001 0.5C2.99447 0.5 3.47781 0.646195 3.88893 0.920898C4.30005 1.1956 4.62061 1.58615 4.80983 2.04297C4.99905 2.49978 5.04838 3.00235 4.95192 3.4873C4.85545 3.97226 4.61747 4.41795 4.26783 4.76758C3.9182 5.11721 3.47276 5.35569 2.98781 5.45215C2.50285 5.54861 2.00004 5.49879 1.54323 5.30957C1.08641 5.12035 0.696104 4.7998 0.4214 4.38867C0.146696 3.97755 1.33514e-05 3.49445 1.33514e-05 3C1.33514e-05 2.33696 0.26335 1.70126 0.732191 1.23242C1.20103 0.763581 1.83697 0.5 2.50001 0.5ZM9.00001 0.5C9.49447 0.5 9.97781 0.646195 10.3889 0.920898C10.8001 1.1956 11.1206 1.58615 11.3098 2.04297C11.499 2.49978 11.5484 3.00235 11.4519 3.4873C11.3555 3.97226 11.1175 4.41795 10.7678 4.76758C10.4182 5.11721 9.97276 5.35569 9.48781 5.45215C9.00285 5.54861 8.50004 5.49879 8.04323 5.30957C7.58641 5.12035 7.1961 4.7998 6.9214 4.38867C6.6467 3.97755 6.50001 3.49445 6.50001 3C6.50001 2.33696 6.76335 1.70126 7.23219 1.23242C7.70103 0.763581 8.33697 0.5 9.00001 0.5ZM15.5 0.5C15.9945 0.5 16.4778 0.646195 16.8889 0.920898C17.3001 1.1956 17.6206 1.58615 17.8098 2.04297C17.999 2.49978 18.0484 3.00235 17.9519 3.4873C17.8555 3.97226 17.6175 4.41795 17.2678 4.76758C16.9182 5.11721 16.4728 5.35569 15.9878 5.45215C15.5029 5.54861 15 5.49879 14.5432 5.30957C14.0864 5.12035 13.6961 4.7998 13.4214 4.38867C13.1467 3.97755 13 3.49445 13 3C13 2.33696 13.2633 1.70126 13.7322 1.23242C14.201 0.763581 14.837 0.5 15.5 0.5Z" fill="#919191"/>
    </svg>
    