<svg width="206" height="38" viewBox="0 0 206 38" fill="none" xmlns="http://www.w3.org/2000/svg">
<path d="M14.7702 38C11.935 38 9.38949 37.4513 7.13357 36.3538C4.90814 35.2563 3.15523 33.7168 1.87485 31.7353C0.62495 29.7537 0 27.513 0 25.0132C0 22.5134 0.62495 20.288 1.87485 18.3369C3.15523 16.3554 4.90814 14.8159 7.13357 13.7184C9.38949 12.6209 11.935 12.0722 14.7702 12.0722C17.8187 12.0722 20.4252 12.7276 22.5897 14.0385C24.7541 15.3494 26.2479 17.1633 27.071 19.4801L19.0686 23.4128C18.0931 21.2178 16.645 20.1203 14.7244 20.1203C13.505 20.1203 12.4838 20.5471 11.6607 21.4007C10.868 22.2543 10.4717 23.4585 10.4717 25.0132C10.4717 26.5985 10.868 27.8179 11.6607 28.6715C12.4838 29.5251 13.505 29.9519 14.7244 29.9519C16.645 29.9519 18.0931 28.8544 19.0686 26.6594L27.071 30.5921C26.2479 32.9089 24.7541 34.7228 22.5897 36.0337C20.4252 37.3446 17.8187 38 14.7702 38Z" fill="#2F2F2F"/>
<path d="M40.6629 12.0722C45.0528 12.0722 48.4062 13.063 50.7231 15.0445C53.04 16.9956 54.1984 20.0136 54.1984 24.0987V37.5427H44.5956V34.2503C43.4066 36.7501 41.044 38 37.5077 38C35.5262 38 33.8342 37.6647 32.4319 36.994C31.0601 36.2928 30.0083 35.363 29.2767 34.2046C28.5755 33.0156 28.2249 31.6895 28.2249 30.2262C28.2249 27.7569 29.17 25.8821 31.0601 24.6017C32.9501 23.3213 35.8158 22.6811 39.6569 22.6811H43.8182C43.4828 20.73 41.9128 19.7545 39.1082 19.7545C37.9802 19.7545 36.837 19.9374 35.6786 20.3032C34.5201 20.6386 33.5294 21.1111 32.7063 21.7208L29.4138 14.9073C30.8467 14.0233 32.5691 13.3373 34.5811 12.8496C36.6236 12.3313 38.6509 12.0722 40.6629 12.0722ZM40.6172 31.781C41.3489 31.781 42.0043 31.5828 42.5835 31.1865C43.1627 30.7902 43.5895 30.1957 43.8639 29.4031V27.6655H41.3031C39.1996 27.6655 38.1479 28.3666 38.1479 29.769C38.1479 30.3482 38.3613 30.8359 38.7881 31.2322C39.2454 31.5981 39.8551 31.781 40.6172 31.781Z" fill="#2F2F2F"/>
<path d="M68.4963 15.2274C70.3254 13.1239 73.0234 12.0722 76.5902 12.0722V21.2178C75.7671 21.0959 75.0049 21.0349 74.3038 21.0349C70.7675 21.0349 68.9993 22.8335 68.9993 26.4308V37.5427H58.6648V12.5295H68.4963V15.2274Z" fill="#2F2F2F"/>
<path d="M89.3508 15.2274C91.1799 13.1239 93.8779 12.0722 97.4447 12.0722V21.2178C96.6216 21.0959 95.8594 21.0349 95.1583 21.0349C91.622 21.0349 89.8538 22.8335 89.8538 26.4308V37.5427H79.5193V12.5295H89.3508V15.2274Z" fill="#2F2F2F"/>
<path d="M100.374 12.5295H110.708V37.5427H100.374V12.5295ZM105.541 10.5174C103.681 10.5174 102.172 10.0297 101.014 9.05415C99.886 8.04813 99.322 6.78299 99.322 5.25873C99.322 3.73446 99.886 2.48456 101.014 1.50902C102.172 0.503008 103.681 0 105.541 0C107.431 0 108.94 0.472524 110.068 1.41757C111.196 2.36262 111.76 3.58203 111.76 5.07581C111.76 6.66105 111.196 7.97192 110.068 9.00842C108.94 10.0144 107.431 10.5174 105.541 10.5174Z" fill="#2F2F2F"/>
<path d="M141.903 25.0132C141.903 25.1657 141.857 25.9735 141.766 27.4368H124.389C124.755 28.3819 125.364 29.1135 126.218 29.6318C127.072 30.1195 128.139 30.3634 129.419 30.3634C130.516 30.3634 131.431 30.2262 132.163 29.9519C132.925 29.6775 133.748 29.205 134.632 28.5343L140.028 33.9759C137.589 36.6586 133.946 38 129.099 38C126.081 38 123.429 37.4513 121.142 36.3538C118.856 35.2258 117.088 33.6711 115.838 31.6895C114.588 29.708 113.963 27.4826 113.963 25.0132C113.963 22.5134 114.573 20.288 115.792 18.3369C117.042 16.3554 118.734 14.8159 120.868 13.7184C123.032 12.6209 125.456 12.0722 128.139 12.0722C130.669 12.0722 132.97 12.5752 135.043 13.5812C137.147 14.5872 138.808 16.0658 140.028 18.0168C141.278 19.9679 141.903 22.3 141.903 25.0132ZM128.23 19.1143C127.163 19.1143 126.279 19.4039 125.578 19.9832C124.877 20.5624 124.419 21.3855 124.206 22.4525H132.254C132.041 21.416 131.583 20.6081 130.882 20.0289C130.181 19.4192 129.297 19.1143 128.23 19.1143Z" fill="#2F2F2F"/>
<path d="M154.996 15.2274C156.825 13.1239 159.523 12.0722 163.089 12.0722V21.2178C162.266 21.0959 161.504 21.0349 160.803 21.0349C157.267 21.0349 155.499 22.8335 155.499 26.4308V37.5427H145.164V12.5295H154.996V15.2274Z" fill="#2F2F2F"/>
<path d="M177.219 12.0547C181.609 12.0547 184.963 13.0455 187.279 15.027C189.596 16.9781 190.755 19.9961 190.755 24.0812V37.5252H181.152V34.2328C179.963 36.7326 177.6 37.9825 174.064 37.9825C172.082 37.9825 170.391 37.6472 168.988 36.9765C167.616 36.2753 166.565 35.3455 165.833 34.1871C165.132 32.9981 164.781 31.672 164.781 30.2087C164.781 27.7394 165.726 25.8646 167.616 24.5842C169.506 23.3038 172.372 22.6636 176.213 22.6636H180.375C180.039 20.7125 178.469 19.737 175.665 19.737C174.537 19.737 173.393 19.9199 172.235 20.2857C171.076 20.6211 170.086 21.0936 169.263 21.7033L165.97 14.8898C167.403 14.0057 169.125 13.3198 171.137 12.8321C173.18 12.3138 175.207 12.0547 177.219 12.0547ZM177.174 31.7635C177.905 31.7635 178.561 31.5653 179.14 31.169C179.719 30.7727 180.146 30.1782 180.42 29.3856V27.648H177.859C175.756 27.648 174.704 28.3491 174.704 29.7514C174.704 30.3307 174.918 30.8184 175.344 31.2147C175.802 31.5806 176.411 31.7635 177.174 31.7635Z" fill="#3074D3"/>
<path d="M199.885 37.9825C198.148 37.9825 196.7 37.4338 195.541 36.3363C194.413 35.2083 193.849 33.7755 193.849 32.0378C193.849 30.3002 194.413 28.8979 195.541 27.8309C196.7 26.7334 198.148 26.1847 199.885 26.1847C201.623 26.1847 203.056 26.7334 204.184 27.8309C205.342 28.8979 205.921 30.3002 205.921 32.0378C205.921 33.7755 205.342 35.2083 204.184 36.3363C203.056 37.4338 201.623 37.9825 199.885 37.9825Z" fill="#3074D3"/>
</svg>
