<svg width="128" height="24" viewBox="0 0 128 24" fill="none" xmlns="http://www.w3.org/2000/svg">
<path d="M9.18146 23.6217C7.41908 23.6217 5.83672 23.2805 4.43439 22.5983C3.05101 21.9161 1.96136 20.9591 1.16545 19.7274C0.388483 18.4956 0 17.1027 0 15.5488C0 13.9949 0.388483 12.6115 1.16545 11.3987C1.96136 10.1669 3.05101 9.20989 4.43439 8.52767C5.83672 7.84546 7.41908 7.50435 9.18146 7.50435C11.0765 7.50435 12.6968 7.91179 14.0422 8.72665C15.3877 9.54152 16.3163 10.6691 16.8279 12.1093L11.8535 14.5539C11.2471 13.1895 10.3469 12.5073 9.15304 12.5073C8.39502 12.5073 7.76018 12.7726 7.24852 13.3032C6.75581 13.8338 6.50946 14.5823 6.50946 15.5488C6.50946 16.5342 6.75581 17.2922 7.24852 17.8228C7.76018 18.3534 8.39502 18.6188 9.15304 18.6188C10.3469 18.6188 11.2471 17.9365 11.8535 16.5721L16.8279 19.0167C16.3163 20.4569 15.3877 21.5845 14.0422 22.3994C12.6968 23.2142 11.0765 23.6217 9.18146 23.6217Z" fill="#2F2F2F"/>
<path d="M25.277 7.50435C28.0059 7.50435 30.0904 8.12024 31.5306 9.35202C32.9709 10.5648 33.691 12.4409 33.691 14.9803V23.3374H27.7216V21.2908C26.9825 22.8447 25.5139 23.6217 23.3156 23.6217C22.0839 23.6217 21.0321 23.4132 20.1604 22.9963C19.3076 22.5604 18.6538 21.9824 18.199 21.2623C17.7632 20.5233 17.5452 19.6989 17.5452 18.7893C17.5452 17.2543 18.1327 16.0889 19.3076 15.293C20.4826 14.497 22.2639 14.0991 24.6516 14.0991H27.2384C27.0299 12.8863 26.054 12.2798 24.3105 12.2798C23.6094 12.2798 22.8987 12.3936 22.1786 12.621C21.4585 12.8294 20.8426 13.1231 20.3309 13.5021L18.2843 9.26674C19.175 8.71718 20.2457 8.29079 21.4964 7.98759C22.7661 7.66543 24.0263 7.50435 25.277 7.50435ZM25.2486 19.7558C25.7034 19.7558 26.1108 19.6326 26.4709 19.3862C26.8309 19.1399 27.0962 18.7704 27.2668 18.2776V17.1975H25.675C24.3674 17.1975 23.7136 17.6333 23.7136 18.5051C23.7136 18.8651 23.8462 19.1683 24.1115 19.4147C24.3958 19.6421 24.7748 19.7558 25.2486 19.7558Z" fill="#2F2F2F"/>
<path d="M42.5788 9.46572C43.7159 8.15814 45.393 7.50435 47.6102 7.50435V13.1895C47.0985 13.1137 46.6248 13.0758 46.1889 13.0758C43.9907 13.0758 42.8915 14.1938 42.8915 16.43V23.3374H36.4674V7.78861H42.5788V9.46572Z" fill="#2F2F2F"/>
<path d="M55.5425 9.46572C56.6795 8.15814 58.3566 7.50435 60.5738 7.50435V13.1895C60.0621 13.1137 59.5884 13.0758 59.1525 13.0758C56.9543 13.0758 55.8552 14.1938 55.8552 16.43V23.3374H49.431V7.78861H55.5425V9.46572Z" fill="#2F2F2F"/>
<path d="M62.3946 7.78861H68.8188V23.3374H62.3946V7.78861ZM65.6067 6.53788C64.4507 6.53788 63.5127 6.23468 62.7925 5.62826C62.0914 5.0029 61.7408 4.21646 61.7408 3.26894C61.7408 2.32142 62.0914 1.54446 62.7925 0.938044C63.5127 0.312681 64.4507 0 65.6067 0C66.7816 0 67.7196 0.293731 68.4208 0.881194C69.122 1.46865 69.4726 2.22667 69.4726 3.15524C69.4726 4.14066 69.122 4.95553 68.4208 5.59984C67.7196 6.2252 66.7816 6.53788 65.6067 6.53788Z" fill="#2F2F2F"/>
<path d="M88.2099 15.5488C88.2099 15.6435 88.1815 16.1457 88.1246 17.0553H77.3229C77.5503 17.6428 77.9293 18.0976 78.4599 18.4198C78.9905 18.723 79.6538 18.8746 80.4497 18.8746C81.1319 18.8746 81.7004 18.7893 82.1553 18.6188C82.629 18.4482 83.1407 18.1545 83.6902 17.7376L87.0444 21.1202C85.5284 22.7878 83.2638 23.6217 80.2507 23.6217C78.3746 23.6217 76.726 23.2805 75.3047 22.5983C73.8834 21.8972 72.7843 20.9307 72.0073 19.6989C71.2304 18.4672 70.8419 17.0838 70.8419 15.5488C70.8419 13.9949 71.2209 12.6115 71.9789 11.3987C72.7559 10.1669 73.8076 9.20989 75.1341 8.52767C76.4796 7.84546 77.9862 7.50435 79.6538 7.50435C81.2267 7.50435 82.6574 7.81703 83.9461 8.4424C85.2536 9.06776 86.2864 9.98685 87.0444 11.1997C87.8214 12.4125 88.2099 13.8622 88.2099 15.5488ZM79.7106 11.8819C79.0474 11.8819 78.4978 12.0619 78.062 12.422C77.6261 12.782 77.3419 13.2937 77.2092 13.957H82.2121C82.0794 13.3126 81.7952 12.8105 81.3593 12.4504C80.9235 12.0714 80.3739 11.8819 79.7106 11.8819Z" fill="#2F2F2F"/>
<path d="M96.3487 9.46572C97.4857 8.15814 99.1628 7.50435 101.38 7.50435V13.1895C100.868 13.1137 100.395 13.0758 99.9588 13.0758C97.7605 13.0758 96.6614 14.1938 96.6614 16.43V23.3374H90.2372V7.78861H96.3487V9.46572Z" fill="#2F2F2F"/>
<path d="M110.161 7.5C112.89 7.5 114.975 8.11589 116.415 9.34766C117.855 10.5605 118.575 12.4366 118.575 14.9759V23.333H112.606V21.2864C111.867 22.8403 110.398 23.6173 108.2 23.6173C106.968 23.6173 105.917 23.4088 105.045 22.9919C104.192 22.5561 103.538 21.9781 103.083 21.258C102.648 20.5189 102.43 19.6946 102.43 18.785C102.43 17.25 103.017 16.0845 104.192 15.2886C105.367 14.4927 107.148 14.0947 109.536 14.0947H112.123C111.914 12.8819 110.938 12.2755 109.195 12.2755C108.494 12.2755 107.783 12.3892 107.063 12.6166C106.343 12.8251 105.727 13.1188 105.215 13.4978L103.169 9.26239C104.059 8.71282 105.13 8.28644 106.381 7.98324C107.651 7.66108 108.911 7.5 110.161 7.5ZM110.133 19.7514C110.588 19.7514 110.995 19.6282 111.355 19.3819C111.715 19.1355 111.981 18.766 112.151 18.2733V17.1931H110.559C109.252 17.1931 108.598 17.629 108.598 18.5007C108.598 18.8608 108.731 19.164 108.996 19.4103C109.28 19.6377 109.659 19.7514 110.133 19.7514Z" fill="#3074D3"/>
<path d="M124.251 23.6173C123.171 23.6173 122.271 23.2762 121.551 22.594C120.85 21.8928 120.499 21.0021 120.499 19.922C120.499 18.8418 120.85 17.9701 121.551 17.3068C122.271 16.6246 123.171 16.2835 124.251 16.2835C125.331 16.2835 126.222 16.6246 126.923 17.3068C127.643 17.9701 128.003 18.8418 128.003 19.922C128.003 21.0021 127.643 21.8928 126.923 22.594C126.222 23.2762 125.331 23.6173 124.251 23.6173Z" fill="#3074D3"/>
</svg>
