<svg width="18" height="18" viewBox="0 0 18 18" fill="none" xmlns="http://www.w3.org/2000/svg">
<path fill-rule="evenodd" clip-rule="evenodd" d="M10.7244 0.665814C11.7511 0.919895 12.7099 1.39514 13.5338 2.05834H13.5288C14.9314 3.18206 15.8403 4.80872 16.0619 6.59225C16.2836 8.37579 15.8006 10.1754 14.7158 11.6083C13.7178 12.9273 10.8438 16.0063 9.65378 17.2673C9.5706 17.3565 9.46997 17.4276 9.35815 17.4762C9.24633 17.5248 9.1257 17.5499 9.00378 17.5499C8.88185 17.5499 8.76122 17.5248 8.6494 17.4762C8.53758 17.4276 8.43695 17.3565 8.35378 17.2673C7.15778 16.0053 4.26378 12.9343 3.26378 11.6053C2.55583 10.6553 2.10177 9.54054 1.94449 8.36625C1.78721 7.19197 1.93191 5.99697 2.36491 4.89416C2.7979 3.79134 3.50491 2.81713 4.41913 2.06354C5.33335 1.30996 6.42459 0.801893 7.58978 0.587339C8.62789 0.38495 9.69768 0.411732 10.7244 0.665814ZM4.63645 8.68898L7.38645 11.439V11.4368C7.43241 11.4828 7.48699 11.5192 7.54705 11.5441C7.60712 11.569 7.6715 11.5818 7.73652 11.5818C7.80154 11.5818 7.86592 11.569 7.92599 11.5441C7.98605 11.5192 8.04063 11.4828 8.0866 11.4368L13.3578 6.16448C13.4038 6.11851 13.4403 6.06394 13.4651 6.00387C13.49 5.9438 13.5028 5.87942 13.5028 5.8144C13.5028 5.74939 13.49 5.68501 13.4651 5.62494C13.4403 5.56487 13.4038 5.5103 13.3578 5.46433L12.6576 4.76418C12.6117 4.7182 12.5571 4.68172 12.497 4.65684C12.437 4.63195 12.3726 4.61914 12.3076 4.61914C12.2426 4.61914 12.1782 4.63195 12.1181 4.65684C12.058 4.68172 12.0035 4.7182 11.9575 4.76418L7.73625 8.98818L6.03785 7.28978C5.99188 7.2438 5.9373 7.20732 5.87724 7.18244C5.81717 7.15755 5.75279 7.14474 5.68777 7.14474C5.62275 7.14474 5.55837 7.15755 5.4983 7.18244C5.43824 7.20732 5.38366 7.2438 5.3377 7.28978L4.63645 7.98883C4.59046 8.0348 4.55399 8.08937 4.5291 8.14944C4.50421 8.20951 4.49141 8.27389 4.49141 8.3389C4.49141 8.40392 4.50421 8.4683 4.5291 8.52837C4.55399 8.58844 4.59046 8.64301 4.63645 8.68898Z" fill="currentColor"/>
</svg>
