<svg width="18" height="18" viewBox="0 0 18 18" fill="none" xmlns="http://www.w3.org/2000/svg">
    <path d="M9.00313 0.453125C7.3121 0.453125 5.65904 0.954574 4.253 1.89406C2.84696 2.83355 1.75109 4.16887 1.10396 5.73118C0.456828 7.29349 0.287512 9.01261 0.617415 10.6711C0.947319 12.3297 1.76163 13.8531 2.95737 15.0489C4.1531 16.2446 5.67657 17.0589 7.3351 17.3888C8.99364 17.7187 10.7128 17.5494 12.2751 16.9023C13.8374 16.2552 15.1727 15.1593 16.1122 13.7533C17.0517 12.3472 17.5531 10.6942 17.5531 9.00313C17.5529 6.73561 16.652 4.56103 15.0486 2.95765C13.4452 1.35428 11.2706 0.45339 9.00313 0.453125M9.00313 13.8891C8.76164 13.8891 8.52557 13.8175 8.32477 13.6833C8.12398 13.5492 7.96749 13.3585 7.87507 13.1354C7.78266 12.9123 7.75848 12.6668 7.80559 12.4299C7.8527 12.1931 7.96899 11.9755 8.13975 11.8047C8.31051 11.634 8.52807 11.5177 8.76492 11.4706C9.00177 11.4235 9.24728 11.4477 9.47039 11.5401C9.69349 11.6325 9.88419 11.789 10.0184 11.9898C10.1525 12.1906 10.2241 12.4266 10.2241 12.6681C10.2241 12.8285 10.1925 12.9872 10.1312 13.1354C10.0698 13.2835 9.97988 13.4181 9.8665 13.5315C9.75312 13.6449 9.61852 13.7348 9.47039 13.7962C9.32225 13.8575 9.16347 13.8891 9.00313 13.8891ZM10.4631 4.78912L9.97413 9.67513C9.959 9.82586 9.88842 9.96561 9.77607 10.0672C9.66372 10.1689 9.51762 10.2251 9.36613 10.2251H8.63913C8.48781 10.2249 8.34195 10.1685 8.22982 10.0669C8.11768 9.9653 8.04723 9.82569 8.03213 9.67513L7.54313 4.78912C7.53477 4.70428 7.54423 4.61862 7.5709 4.53765C7.59758 4.45667 7.64088 4.38216 7.69802 4.31889C7.75517 4.25563 7.82491 4.205 7.90276 4.17025C7.98062 4.13551 8.06487 4.11741 8.15013 4.11713H9.85313C9.93839 4.11741 10.0226 4.13551 10.1005 4.17025C10.1783 4.205 10.2481 4.25563 10.3052 4.31889C10.3624 4.38216 10.4057 4.45667 10.4324 4.53765C10.459 4.61862 10.4685 4.70428 10.4601 4.78912" fill="#FFA726"/>
    </svg>
    