<svg width="33" height="12" viewBox="0 0 33 12" fill="none" xmlns="http://www.w3.org/2000/svg">
<path d="M5.54296 10.6882C5.54272 10.4286 5.46554 10.175 5.32117 9.95931C5.17679 9.74361 4.97171 9.57555 4.73184 9.47636C4.49196 9.37718 4.22807 9.35132 3.9735 9.40205C3.71893 9.45279 3.48512 9.57784 3.30162 9.76141C3.11811 9.94498 2.99315 10.1788 2.94252 10.4334C2.8919 10.6879 2.91788 10.9518 3.01719 11.1916C3.11649 11.4314 3.28467 11.6364 3.50046 11.7806C3.71624 11.9249 3.96996 12.0019 4.22953 12.0021C4.40207 12.0021 4.57291 11.9681 4.7323 11.902C4.89169 11.836 5.03651 11.7392 5.15848 11.6172C5.28045 11.4952 5.37718 11.3504 5.44315 11.1909C5.50912 11.0315 5.54304 10.8607 5.54296 10.6882ZM26.1017 10.6882C26.1015 10.4286 26.0243 10.175 25.8799 9.95931C25.7355 9.74361 25.5305 9.57555 25.2906 9.47636C25.0507 9.37718 24.7868 9.35132 24.5323 9.40205C24.2777 9.45279 24.0439 9.57784 23.8604 9.76141C23.6769 9.94498 23.5519 10.1788 23.5013 10.4334C23.4507 10.6879 23.4766 10.9518 23.5759 11.1916C23.6753 11.4314 23.8434 11.6364 24.0592 11.7806C24.275 11.9249 24.5287 12.0019 24.7883 12.0021C24.9603 12.0025 25.1307 11.969 25.2898 11.9035C25.4488 11.8381 25.5935 11.7419 25.7154 11.6206C25.8373 11.4993 25.9341 11.3551 26.0003 11.1964C26.0665 11.0376 26.1007 10.8674 26.1011 10.6954V10.6882H26.1017ZM2.59451 11.1022C2.53169 10.8534 2.52649 10.5935 2.5793 10.3424C2.6321 10.0913 2.74153 9.8555 2.89923 9.65306C3.05694 9.45061 3.25877 9.28683 3.48936 9.17417C3.71994 9.06151 3.9732 9.00295 4.22983 9.00295C4.48647 9.00295 4.73973 9.06151 4.97031 9.17417C5.2009 9.28683 5.40273 9.45061 5.56043 9.65306C5.71814 9.8555 5.82756 10.0913 5.88037 10.3424C5.93318 10.5935 5.92798 10.8534 5.86516 11.1022H16.4925C16.5327 11.1018 16.5711 11.0859 16.5995 11.0576C16.628 11.0294 16.6443 10.9911 16.6449 10.951V10.726H17.8066C17.8463 10.7262 17.8845 10.7106 17.9128 10.6827C17.9411 10.6549 17.9573 10.6169 17.9578 10.5772V9.97727H23.2685C23.4383 9.59469 23.7506 9.29338 24.1391 9.13735H10.163V3.82127C10.1631 3.74753 10.1487 3.67449 10.1205 3.60633C10.0924 3.53817 10.0511 3.47623 9.99897 3.42403C9.94688 3.37183 9.88501 3.3304 9.8169 3.3021C9.74879 3.27381 9.67578 3.25921 9.60203 3.25913H9.27802C6.23717 3.25913 6.20417 3.25913 5.89696 3.89566L5.13195 5.6055C4.26733 5.77048 3.31812 5.94506 2.95811 6.00866C1.68669 6.24564 0.751274 7.06575 0.751274 8.44262V9.41752C0.721189 9.64856 0.766262 9.88314 0.879827 10.0866C0.993393 10.29 1.16942 10.4515 1.38188 10.5472V10.9528C1.38165 10.9724 1.38528 10.9919 1.39257 11.0101C1.39985 11.0283 1.41066 11.0449 1.42437 11.0589C1.43807 11.073 1.45441 11.0842 1.47245 11.0919C1.49049 11.0996 1.50987 11.1037 1.52949 11.104L2.59451 11.1022ZM2.60831 7.04535C2.22901 7.21517 1.92357 7.5159 1.74789 7.89247C1.62768 7.91726 1.50522 7.92952 1.38248 7.92907C1.46373 7.62216 1.62512 7.34236 1.85012 7.11834C2.07511 6.89432 2.35562 6.73413 2.66291 6.65419C2.66595 6.78659 2.64792 6.91862 2.60951 7.04535H2.60831ZM9.20302 3.90887C9.24699 3.95297 9.27325 4.01168 9.27682 4.07385V5.20714C9.27452 5.30652 9.23557 5.40155 9.16746 5.47397C9.09935 5.54639 9.00688 5.59109 8.90782 5.5995L6.13397 5.74948C6.11756 5.75021 6.10116 5.74766 6.08574 5.74201C6.07032 5.73636 6.05617 5.7277 6.04412 5.71654C6.03206 5.70538 6.02234 5.69194 6.01552 5.677C6.0087 5.66206 6.0049 5.64591 6.00436 5.62949C6.00335 5.611 6.00664 5.59252 6.01397 5.5755L6.64878 4.09185C6.67895 4.02503 6.72846 3.96879 6.79092 3.93039C6.85339 3.892 6.92593 3.87321 6.99918 3.87647L9.03922 3.84827C9.09842 3.85225 9.15525 3.87307 9.20302 3.90827M28.5936 11.0746C28.6529 11.0731 28.7094 11.0489 28.7514 11.0071C28.7935 10.9652 28.8179 10.9089 28.8198 10.8496V9.28973C28.8191 9.24962 28.8028 9.21135 28.7744 9.1831C28.7459 9.15485 28.7075 9.13886 28.6674 9.13855H25.4423C25.8297 9.29448 26.1405 9.59602 26.3081 9.97847H27.9881C28.0386 10.1494 28.0655 10.3264 28.068 10.5046V10.849C28.0676 10.9079 28.0906 10.9646 28.1318 11.0067C28.173 11.0489 28.2292 11.073 28.2882 11.074L28.5936 11.0746ZM28.6722 8.82358C28.7123 8.82296 28.7506 8.80666 28.7788 8.77819C28.8071 8.74971 28.8231 8.71131 28.8234 8.67119V1.76287C28.8223 1.61362 28.762 1.47089 28.6558 1.36597C28.5497 1.26105 28.4062 1.20249 28.257 1.20313H11.0433C10.8944 1.20345 10.7517 1.26271 10.6465 1.36795C10.5412 1.4732 10.482 1.61584 10.4816 1.76467V8.82238L28.6722 8.82358Z" fill="#919191"/>
</svg>
