<svg width="33" height="12" viewBox="0 0 33 12" fill="none" xmlns="http://www.w3.org/2000/svg">
<path d="M8.32441 12C8.36405 11.9995 8.4019 11.9834 8.42977 11.9553C8.45763 11.9271 8.47325 11.889 8.47325 11.8494V11.8128L18.7178 11.8128C18.7439 11.8124 18.7687 11.8019 18.7872 11.7835C18.8056 11.7652 18.8163 11.7404 18.8169 11.7144V9.88421H19.0149C19.1988 9.5474 19.4916 9.283 19.8455 9.13436H18.2851C18.2251 9.1342 18.1674 9.15786 18.1248 9.20014C18.0821 9.24242 18.058 9.29988 18.0577 9.35992V11.063H16.7776V9.06838L21.0266 8.22855L21.7702 9.13436H21.1701C21.5283 9.27987 21.8252 9.54481 22.0103 9.88421H22.8205C23.0056 9.54481 23.3024 9.27987 23.6607 9.13436L22.7377 9.13436L21.868 8.05458L26.0091 7.23635V9.13436H24.9804C25.3382 9.28072 25.6348 9.54543 25.8207 9.88421H26.0091V11.6617C26.0097 11.7017 26.026 11.7399 26.0546 11.7681C26.0831 11.7962 26.1215 11.8121 26.1615 11.8122H32.2099C32.2348 11.8122 32.2594 11.8073 32.2824 11.7977C32.3054 11.7881 32.3262 11.7741 32.3438 11.7564C32.3613 11.7387 32.3751 11.7178 32.3845 11.6947C32.3939 11.6716 32.3986 11.6469 32.3983 11.6221V11.2489C32.3984 11.2243 32.3936 11.1999 32.3841 11.1771C32.3746 11.1544 32.3607 11.1337 32.3432 11.1164C32.3256 11.0991 32.3048 11.0854 32.2819 11.0763C32.259 11.0671 32.2345 11.0626 32.2099 11.063H26.7665L31.1122 7.10377H32.2099C32.2352 7.10363 32.2603 7.0984 32.2836 7.08839C32.3069 7.07838 32.328 7.0638 32.3456 7.04551C32.3632 7.02722 32.3769 7.00559 32.3859 6.9819C32.395 6.95822 32.3992 6.93295 32.3983 6.90761V6.54109C32.3985 6.51636 32.3937 6.49185 32.3843 6.46899C32.3749 6.44613 32.361 6.42538 32.3434 6.40796C32.3259 6.39053 32.305 6.37677 32.2821 6.3675C32.2592 6.35822 32.2346 6.3536 32.2099 6.35392L26.7665 6.35392V2.4943H26.9549C27.0072 2.49431 27.0574 2.47371 27.0946 2.437C27.1318 2.40028 27.153 2.35038 27.1536 2.29814V1.93042C27.1531 1.88083 27.133 1.83344 27.0977 1.7986C27.0624 1.76376 27.0148 1.74429 26.9651 1.74445H26.7665V0.152972C26.766 0.112978 26.7498 0.0747728 26.7214 0.0466032C26.693 0.0184326 26.6547 0.00255775 26.6147 0.00240326H26.1615C26.1215 0.00255585 26.0831 0.0184116 26.0546 0.0465651C26.026 0.0747185 26.0097 0.112924 26.0091 0.152972V1.74205L16.78 1.74205V0.150574C16.7799 0.130671 16.7759 0.11098 16.7682 0.0926294C16.7604 0.0742798 16.7492 0.0576324 16.735 0.043643C16.7209 0.0296535 16.7041 0.0185966 16.6856 0.0111084C16.6672 0.00361919 16.6474 -0.000154495 16.6275 3.8147e-06H16.1744C16.1343 0.000156403 16.0959 0.0160122 16.0674 0.0441656C16.0389 0.07232 16.0226 0.110524 16.022 0.150574V1.74205L8.301 1.74205V0.150574C8.30038 0.110627 8.28414 0.0725117 8.25577 0.0443745C8.22739 0.0162373 8.18913 0.000312805 8.14917 3.8147e-06H7.69605C7.67614 -0.000154495 7.65639 0.00361919 7.63794 0.0111084C7.6195 0.0185966 7.60271 0.0296535 7.58855 0.043643C7.57438 0.0576324 7.56312 0.0742798 7.55541 0.0926294C7.5477 0.11098 7.54369 0.130671 7.54361 0.150574V1.74205H7.0875C7.06807 1.74173 7.04877 1.74529 7.03072 1.7525C7.01267 1.75971 6.99625 1.77044 6.9824 1.78407C6.96854 1.79769 6.95754 1.81393 6.95003 1.83185C6.94252 1.84977 6.93866 1.869 6.93866 1.88842V2.34193C6.9385 2.3816 6.95407 2.41972 6.98197 2.44794C7.00986 2.47616 7.04781 2.49218 7.0875 2.4925H7.54361V9.18715L0.7973 9.80803C0.771757 9.80981 0.74684 9.81674 0.724049 9.8284C0.701258 9.84007 0.681067 9.85622 0.664692 9.8759C0.648317 9.89557 0.636097 9.91836 0.628769 9.94288C0.621441 9.96741 0.619158 9.99316 0.622057 10.0186L0.650261 10.3803C0.652739 10.4055 0.660175 10.43 0.672142 10.4524C0.684109 10.4747 0.700373 10.4945 0.719999 10.5105C0.739626 10.5266 0.76223 10.5386 0.786514 10.5459C0.810801 10.5532 0.836287 10.5556 0.861515 10.5531L1.73414 10.4709L3.28553 11.0642H0.742687C0.723879 11.0638 0.705175 11.0671 0.687654 11.0739C0.670134 11.0808 0.65414 11.091 0.640589 11.1041C0.627037 11.1171 0.616198 11.1327 0.60869 11.1499C0.601185 11.1672 0.597162 11.1857 0.596849 11.2045V11.6689C0.597479 11.7071 0.613121 11.7436 0.640404 11.7704C0.667685 11.7972 0.70442 11.8122 0.742687 11.8122H7.36177V11.8494C7.3624 11.8895 7.37871 11.9277 7.40722 11.9558C7.43572 11.984 7.47413 11.9998 7.5142 12H8.32441ZM11.8293 11.0762L11.8197 11.063H11.8293V11.0762ZM12.6299 11.0762V11.063H12.6395L12.6299 11.0762ZM7.54361 11.063H5.38306L3.43317 10.3203L7.54361 9.9382V11.063ZM8.301 11.063V9.87102L11.2442 9.60047L11.8197 11.0648L8.301 11.063ZM16.0226 11.063H12.6401L13.2811 9.40251L16.022 9.15656L16.0226 11.063ZM12.2302 10.0432L12.025 9.52608L12.4421 9.48949L12.2302 10.0432ZM26.7665 10.0432V7.10377L30.0013 7.10377L26.7665 10.0432ZM10.9663 8.86742L8.301 9.11337V2.4967H8.48105L10.9663 8.86742ZM12.7451 8.70065L11.7435 8.79903L9.29246 2.4943L15.1595 2.4943L12.7451 8.70065ZM16.022 8.40071L13.5913 8.62327L15.9764 2.4943H16.022V8.40071ZM20.4973 7.56928L16.7806 8.30293V2.982L20.4973 7.56928ZM26.0091 6.4757L21.3279 7.40251L17.3597 2.4943L26.0091 2.4943V6.4757ZM21.8356 10.6869C21.8283 10.3402 21.6853 10.0102 21.4374 9.7677C21.1896 9.52515 20.8565 9.38932 20.5096 9.38932C20.1627 9.38932 19.8296 9.52515 19.5818 9.7677C19.3339 10.0102 19.1909 10.3402 19.1836 10.6869C19.1909 11.0335 19.3339 11.3635 19.5818 11.606C19.8296 11.8486 20.1627 11.9844 20.5096 11.9844C20.8565 11.9844 21.1896 11.8486 21.4374 11.606C21.6853 11.3635 21.8283 11.0335 21.8356 10.6869ZM25.6418 10.6869C25.6439 10.4246 25.5681 10.1676 25.4239 9.94852C25.2798 9.72941 25.0737 9.55804 24.832 9.45614C24.5902 9.35424 24.3236 9.32641 24.066 9.37617C23.8084 9.42593 23.5714 9.55105 23.385 9.73564C23.1986 9.92024 23.0713 10.156 23.0192 10.413C22.9671 10.6701 22.9925 10.9368 23.0922 11.1793C23.192 11.4219 23.3615 11.6294 23.5794 11.7755C23.7973 11.9216 24.0537 11.9997 24.3161 12C24.6661 12.0016 25.0025 11.8641 25.2512 11.6179C25.5 11.3717 25.6407 11.0368 25.6424 10.6869H25.6418Z" fill="#919191"/>
</svg>
