<svg width="33" height="12" viewBox="0 0 33 12" fill="none" xmlns="http://www.w3.org/2000/svg">
<path d="M24.1176 10.6872C24.1176 10.4276 24.0406 10.1738 23.8964 9.95797C23.7522 9.74211 23.5473 9.57384 23.3075 9.47445C23.0677 9.37505 22.8038 9.34898 22.5491 9.39954C22.2945 9.45009 22.0606 9.57501 21.8769 9.75849C21.6933 9.94196 21.5682 10.1758 21.5174 10.4303C21.4666 10.6849 21.4924 10.9489 21.5916 11.1888C21.6908 11.4287 21.8588 11.6338 22.0746 11.7782C22.2903 11.9226 22.544 11.9998 22.8036 12C22.9761 12.0002 23.147 11.9664 23.3065 11.9006C23.4659 11.8347 23.6108 11.738 23.7328 11.6161C23.8549 11.4942 23.9517 11.3493 24.0177 11.19C24.0837 11.0306 24.1177 10.8597 24.1176 10.6872ZM27.888 10.6872C27.8879 10.4277 27.8108 10.1741 27.6666 9.95841C27.5224 9.74271 27.3174 9.57461 27.0777 9.47537C26.8379 9.37613 26.5741 9.35019 26.3197 9.40084C26.0652 9.45149 25.8314 9.57645 25.6479 9.75993C25.4645 9.94341 25.3395 10.1772 25.2888 10.4317C25.2382 10.6861 25.2641 10.9499 25.3634 11.1897C25.4626 11.4294 25.6307 11.6344 25.8464 11.7786C26.0621 11.9228 26.3157 11.9999 26.5752 12C26.7476 12.0001 26.9184 11.9662 27.0777 11.9002C27.237 11.8343 27.3817 11.7376 27.5037 11.6157C27.6256 11.4937 27.7223 11.349 27.7882 11.1897C27.8542 11.0304 27.8881 10.8596 27.888 10.6872ZM10.59 12C10.6296 11.9995 10.6675 11.9834 10.6953 11.9553C10.7232 11.9271 10.7388 11.889 10.7388 11.8494V11.772C10.739 11.7323 10.7234 11.6942 10.6955 11.666C10.6676 11.6377 10.6297 11.6217 10.59 11.6214H10.5594V11.4348L20.9784 11.4348C21.0181 11.4345 21.056 11.4185 21.0839 11.3902C21.1118 11.362 21.1274 11.3239 21.1272 11.2842V9.888H21.3228C21.504 9.5514 21.7949 9.28694 22.1472 9.1386H21.1272V5.8836L20.2506 5.4036L22.7556 1.0674L25.2756 1.8474L24.3672 9.1386H23.46C23.8162 9.28419 24.1106 9.54912 24.2928 9.888H25.095C25.2776 9.54941 25.5719 9.28457 25.9278 9.1386H25.1256L26.0028 2.0742L30.03 3.3342L29.1156 10.6836H29.0028V9.1386H27.2328C27.5887 9.28488 27.8831 9.54961 28.0662 9.888H28.2534V11.2842C28.2534 11.324 28.2692 11.3623 28.2973 11.3905C28.3254 11.4187 28.3636 11.4346 28.4034 11.4348H32.1012C32.1409 11.4345 32.1788 11.4185 32.2067 11.3902C32.2346 11.362 32.2502 11.3239 32.25 11.2842V10.8342C32.25 10.7946 32.2344 10.7565 32.2065 10.7283C32.1787 10.7001 32.1408 10.6841 32.1012 10.6836H29.8812L30.7578 3.5592L31.8834 3.9114C31.9212 3.92228 31.9617 3.91819 31.9966 3.89998C32.0314 3.88177 32.0579 3.85084 32.0706 3.8136L32.2068 3.3792C32.2161 3.34144 32.2113 3.30158 32.1933 3.26711C32.1753 3.23264 32.1453 3.20593 32.109 3.192L21.9264 0.0239992C21.9066 0.0178556 21.8857 0.0158033 21.8651 0.0179691C21.8445 0.0201349 21.8245 0.026474 21.8064 0.0365992L16.3056 3.2358L9.81001 3.2358L0.855019 6.0318C0.824617 6.04155 0.798086 6.06068 0.779224 6.08644C0.760363 6.1122 0.750139 6.14327 0.750019 6.1752V9.0714C0.750175 9.11129 0.766094 9.14951 0.794302 9.17771C0.822512 9.20592 0.860725 9.22184 0.900618 9.222H5.71562L7.66501 9.9714L8.51281 11.4348H9.81001V11.6214H9.78841C9.74847 11.6214 9.71017 11.6373 9.68192 11.6655C9.65368 11.6938 9.63781 11.7321 9.63781 11.772V11.8464C9.6375 11.8664 9.64115 11.8863 9.64857 11.9049C9.65599 11.9234 9.66702 11.9404 9.68103 11.9547C9.69504 11.9689 9.71174 11.9803 9.73018 11.9881C9.74861 11.9959 9.7684 11.9999 9.78841 12L10.59 12ZM9.81001 10.6866H8.94781L5.82062 5.2722L9.81001 4.0236V10.6866ZM15.0972 10.6866L10.56 10.6866V3.9906H15.0978L15.0972 10.6866ZM19.2234 5.7L16.3434 10.6866H15.8478V3.9906H16.11L19.2234 5.7ZM20.3778 6.33V10.6836H17.205L19.875 6.057L20.3778 6.33ZM6.67621 8.25H1.50122V6.6192L5.08622 5.5014L6.67621 8.25ZM22.0278 0.836999L19.5972 5.0442L17.07 3.657L21.9522 0.813599L22.0278 0.836999Z" fill="#919191"/>
</svg>
