<svg width="33" height="12" viewBox="0 0 33 12" fill="none" xmlns="http://www.w3.org/2000/svg">
<path d="M7.57982 12C7.61966 11.9995 7.65772 11.9834 7.68578 11.9551C7.71385 11.9268 7.72966 11.8887 7.72982 11.8488V11.7744C7.7295 11.7348 7.71358 11.6969 7.6855 11.6689C7.65742 11.6409 7.61945 11.6252 7.57982 11.625H7.55642V9.74111L21.282 9.74111C21.4275 9.40688 21.6675 9.12243 21.9724 8.92269C22.2774 8.72295 22.6341 8.61662 22.9986 8.61677C23.4028 8.61367 23.7964 8.74564 24.117 8.99175C24.3818 9.18193 24.5893 9.44113 24.717 9.74111H27.357C27.5026 9.40669 27.7428 9.12211 28.0479 8.92236C28.3531 8.7226 28.71 8.61639 29.0748 8.61677C29.4786 8.61338 29.872 8.7454 30.192 8.99175C30.4517 9.18525 30.656 9.44369 30.7842 9.74111H31.242L31.4964 10.1539V10.8451C31.4979 10.9042 31.5223 10.9605 31.5643 11.0022C31.6063 11.0439 31.6628 11.0678 31.722 11.0688H32.022C32.0517 11.0692 32.0812 11.0638 32.1087 11.0527C32.1363 11.0416 32.1614 11.0252 32.1826 11.0044C32.2038 10.9836 32.2207 10.9588 32.2322 10.9315C32.2438 10.9041 32.2498 10.8748 32.25 10.8451V8.30298C32.2498 8.26325 32.234 8.22519 32.2059 8.1971C32.1778 8.169 32.1397 8.15315 32.1 8.15299L0.900021 8.15299C0.880301 8.15291 0.860758 8.15674 0.842524 8.16425C0.824289 8.17176 0.807724 8.1828 0.793779 8.19675C0.779835 8.21069 0.768787 8.22726 0.761278 8.24549C0.753767 8.26372 0.749943 8.28326 0.750021 8.30298V8.84296C0.750021 8.86263 0.753906 8.8821 0.761452 8.90027C0.768997 8.91843 0.780056 8.93493 0.793991 8.94881C0.807928 8.96269 0.824469 8.97368 0.842663 8.98115C0.860859 8.98862 0.880352 8.99243 0.900021 8.99235H4.84982L6.81002 9.74111V11.625H6.77942C6.73979 11.625 6.70179 11.6408 6.67377 11.6688C6.64576 11.6968 6.63002 11.7348 6.63002 11.7744V11.8488C6.62985 11.8882 6.64515 11.9262 6.67264 11.9544C6.70012 11.9827 6.7376 11.9991 6.77702 12H7.57982ZM24.4998 10.4959C24.4998 10.1992 24.4118 9.90922 24.247 9.66256C24.0822 9.4159 23.8479 9.22365 23.5738 9.11012C23.2997 8.9966 22.9981 8.9669 22.7072 9.02477C22.4162 9.08265 22.1489 9.2255 21.9391 9.43527C21.7294 9.64504 21.5865 9.9123 21.5286 10.2033C21.4708 10.4942 21.5005 10.7958 21.614 11.0699C21.7275 11.3439 21.9198 11.5782 22.1665 11.743C22.4131 11.9078 22.7031 11.9958 22.9998 11.9958C23.3976 11.9958 23.7792 11.8378 24.0605 11.5565C24.3418 11.2752 24.4998 10.8937 24.4998 10.4959ZM30.5742 10.4959C30.5742 10.1992 30.4862 9.90922 30.3214 9.66256C30.1566 9.4159 29.9223 9.22365 29.6482 9.11012C29.3741 8.9966 29.0725 8.9669 28.7816 9.02477C28.4906 9.08265 28.2233 9.2255 28.0135 9.43527C27.8038 9.64504 27.6609 9.9123 27.603 10.2033C27.5451 10.4942 27.5749 10.7958 27.6884 11.0699C27.8019 11.3439 27.9942 11.5782 28.2408 11.743C28.4875 11.9078 28.7775 11.9958 29.0742 11.9958C29.472 11.9958 29.8536 11.8378 30.1349 11.5565C30.4162 11.2752 30.5742 10.8937 30.5742 10.4959ZM9.56222 7.83681V1.02055C9.56222 0.871451 9.50298 0.72846 9.39755 0.623033C9.29212 0.517605 9.14912 0.458377 9.00002 0.458377C8.85091 0.458377 8.70791 0.517605 8.60248 0.623033C8.49705 0.72846 8.43781 0.871451 8.43781 1.02055V7.68622C8.43774 7.70599 8.44155 7.72559 8.44905 7.74389C8.45654 7.76219 8.46757 7.77884 8.4815 7.79288C8.49543 7.80692 8.51199 7.81807 8.53023 7.82572C8.54847 7.83336 8.56804 7.83733 8.58782 7.83741L9.56222 7.83681ZM11.0622 7.83681V1.02055C11.0622 0.946645 11.0477 0.873464 11.0194 0.805185C10.9911 0.736906 10.9496 0.674867 10.8974 0.622608C10.8451 0.57035 10.7831 0.528896 10.7148 0.500614C10.6465 0.472333 10.5733 0.457776 10.4994 0.457776C10.4255 0.457776 10.3523 0.472333 10.284 0.500614C10.2158 0.528896 10.1537 0.57035 10.1015 0.622608C10.0492 0.674867 10.0077 0.736906 9.97945 0.805185C9.95117 0.873464 9.93661 0.946645 9.93661 1.02055V7.83741L11.0622 7.83681ZM14.0622 7.83681V1.38533C14.0622 1.22621 13.999 1.0736 13.8865 0.961087C13.774 0.848571 13.6213 0.78536 13.4622 0.78536H12.0408C11.8817 0.78536 11.7291 0.848571 11.6165 0.961087C11.504 1.0736 11.4408 1.22621 11.4408 1.38533V7.83741L14.0622 7.83681ZM32.1 7.83741C32.1198 7.83733 32.1393 7.83336 32.1576 7.82572C32.1758 7.81807 32.1924 7.80692 32.2063 7.79288C32.2202 7.77884 32.2313 7.76219 32.2388 7.74389C32.2463 7.72559 32.2501 7.70599 32.25 7.68622V1.77231C32.2499 1.69848 32.2353 1.6254 32.207 1.55722C32.1786 1.48905 32.1372 1.42712 32.0849 1.37497C32.0326 1.32282 31.9706 1.28148 31.9024 1.2533C31.8342 1.22512 31.761 1.21066 31.6872 1.21074H27.9504V7.83741L32.1 7.83741ZM18.5634 7.83741V1.20894H14.4384V7.83621L18.5634 7.83741ZM23.0634 7.83741V1.20894H18.9384V7.83621L23.0634 7.83741ZM27.5634 7.83741V1.20894L23.4396 1.20894V7.83621L27.5634 7.83741Z" fill="#919191"/>
</svg>
