<svg width="33" height="12" viewBox="0 0 33 12" fill="none" xmlns="http://www.w3.org/2000/svg">
<path fill-rule="evenodd" clip-rule="evenodd" d="M31.6895 2.6441e-05H1.31466H1.31226C1.23822 -0.000695035 1.16479 0.013355 1.09625 0.0413513C1.02771 0.0693476 0.965444 0.110727 0.913092 0.163074C0.86074 0.215421 0.819353 0.277684 0.791354 0.346216C0.763355 0.414748 0.749305 0.488171 0.750027 0.562197V7.68625C0.750027 7.72603 0.765831 7.76418 0.793963 7.79231C0.822095 7.82044 0.86025 7.83625 0.900035 7.83625H32.1017C32.1415 7.83625 32.1797 7.82044 32.2078 7.79231C32.2359 7.76418 32.2517 7.72603 32.2517 7.68625V0.562197C32.2524 0.488171 32.2384 0.414748 32.2104 0.346216C32.1824 0.277684 32.141 0.215421 32.0887 0.163074C32.0363 0.110727 31.974 0.0693476 31.9055 0.0413513C31.837 0.013355 31.7635 -0.000695035 31.6895 2.6441e-05ZM27.6165 0.593396H27.9537V7.24707H27.6165V0.593396ZM23.0712 0.593396H23.4912V7.24707H23.0712V0.593396ZM18.526 0.593396H18.946V7.24707H18.526V0.593396ZM13.9735 0.593396H14.4008V7.24707H13.9735V0.593396ZM9.42829 0.593396H9.84832V7.24707H9.42829V0.593396ZM4.88305 0.593396H5.30307V7.24707H4.88305V0.593396ZM7.64191 11.9885C7.62367 11.9961 7.60412 12 7.58437 12H6.78273C6.76277 12.0003 6.74296 11.9966 6.72444 11.9892C6.70592 11.9818 6.68908 11.9707 6.67488 11.9567C6.66069 11.9427 6.64944 11.926 6.64179 11.9075C6.63413 11.8891 6.63023 11.8693 6.63032 11.8494V11.7738C6.62981 11.754 6.63338 11.7342 6.64079 11.7158C6.6482 11.6974 6.65931 11.6807 6.67342 11.6668C6.68753 11.6529 6.70435 11.642 6.72284 11.6348C6.74133 11.6276 6.7611 11.6243 6.78092 11.625H6.81033V10.1707H6.3003L5.58026 8.99233H0.900008C0.860272 8.99217 0.822208 8.97632 0.79411 8.94822C0.766012 8.92013 0.750158 8.88207 0.75 8.84233V8.30236C0.750158 8.26263 0.766012 8.22457 0.79411 8.19648C0.822208 8.16838 0.860272 8.15253 0.900008 8.15237H32.1017C32.1415 8.15237 32.1796 8.16817 32.2078 8.1963C32.2359 8.22443 32.2517 8.26258 32.2517 8.30236V10.845C32.2514 10.9046 32.2276 10.9615 32.1854 11.0036C32.1433 11.0456 32.0862 11.0693 32.0267 11.0694H31.7267C31.6676 11.0679 31.6114 11.0438 31.5697 11.002C31.5279 10.9603 31.5038 10.9041 31.5023 10.845V10.1539L30.7894 8.99173H29.8516V9.74109H29.4381C29.3093 9.44402 29.1052 9.18571 28.8459 8.99173C28.5258 8.74605 28.1328 8.61429 27.7293 8.61735C27.3235 8.61756 26.9286 8.74888 26.6036 8.99173C26.3443 9.18571 26.1402 9.44402 26.0114 9.74109H25.4713C25.3435 9.44123 25.136 9.18209 24.8713 8.99173C24.5515 8.74635 24.159 8.6146 23.7558 8.61735C23.3501 8.61756 22.9552 8.74888 22.6302 8.99173C22.3709 9.18571 22.1668 9.44402 22.0379 9.74109H21.6251V8.99173H8.78443L8.07039 10.1701H7.56277V11.625H7.58437C7.60414 11.6243 7.62385 11.6277 7.64226 11.635C7.66068 11.6422 7.67743 11.6531 7.69148 11.667C7.70553 11.681 7.71658 11.6976 7.72395 11.716C7.73133 11.7343 7.73488 11.754 7.73438 11.7738V11.8494C7.73446 11.8691 7.73063 11.8887 7.72313 11.907C7.71563 11.9252 7.70459 11.9418 7.69065 11.9558C7.67671 11.9698 7.66015 11.9809 7.64191 11.9885ZM25.0013 9.66314C25.1661 9.9098 25.2541 10.1998 25.2541 10.4965C25.2541 10.8943 25.0961 11.2758 24.8148 11.5571C24.5334 11.8384 24.1519 11.9964 23.754 11.9964C23.4574 11.9964 23.1673 11.9084 22.9206 11.7436C22.674 11.5788 22.4817 11.3445 22.3681 11.0705C22.2546 10.7964 22.2249 10.4948 22.2828 10.2038C22.3407 9.91288 22.4835 9.64561 22.6933 9.43585C22.9031 9.22608 23.1704 9.08322 23.4614 9.02535C23.7524 8.96747 24.054 8.99718 24.3281 9.1107C24.6022 9.22423 24.8365 9.41648 25.0013 9.66314ZM28.9735 9.66314C29.1384 9.9098 29.2263 10.1998 29.2263 10.4965C29.2263 10.8943 29.0683 11.2758 28.787 11.5571C28.5057 11.8384 28.1241 11.9964 27.7263 11.9964C27.4296 11.9964 27.1395 11.9084 26.8929 11.7436C26.6462 11.5788 26.4539 11.3445 26.3404 11.0705C26.2268 10.7964 26.1971 10.4948 26.255 10.2038C26.3129 9.91288 26.4557 9.64561 26.6655 9.43585C26.8753 9.22608 27.1426 9.08322 27.4336 9.02535C27.7246 8.96747 28.0262 8.99718 28.3003 9.1107C28.5744 9.22423 28.8087 9.41648 28.9735 9.66314Z" fill="white"/>
</svg>
