<svg width="33" height="12" viewBox="0 0 33 12" fill="none" xmlns="http://www.w3.org/2000/svg">
<path d="M25.2522 10.5C25.2522 10.2033 25.1642 9.91332 24.9994 9.66664C24.8345 9.41997 24.6003 9.22771 24.3262 9.11418C24.0521 9.00065 23.7505 8.97094 23.4595 9.02882C23.1686 9.0867 22.9013 9.22956 22.6915 9.43934C22.4817 9.64912 22.3389 9.91639 22.281 10.2074C22.2231 10.4983 22.2528 10.7999 22.3663 11.074C22.4799 11.3481 22.6721 11.5824 22.9188 11.7472C23.1655 11.912 23.4555 12 23.7522 12C24.15 12 24.5315 11.842 24.8128 11.5607C25.0941 11.2794 25.2522 10.8978 25.2522 10.5ZM29.2242 10.5C29.2242 10.2034 29.1362 9.91337 28.9714 9.66671C28.8066 9.42005 28.5724 9.22779 28.2983 9.11424C28.0243 9.00069 27.7227 8.97095 27.4317 9.02878C27.1408 9.08661 26.8735 9.22941 26.6637 9.43913C26.4539 9.64885 26.311 9.91606 26.2531 10.207C26.1951 10.4979 26.2247 10.7995 26.3382 11.0736C26.4516 11.3477 26.6438 11.582 26.8904 11.7469C27.137 11.9118 27.4269 11.9999 27.7236 12C27.9206 12.0001 28.1157 11.9613 28.2978 11.886C28.4798 11.8106 28.6453 11.7002 28.7846 11.5609C28.924 11.4216 29.0345 11.2562 29.1099 11.0742C29.1853 10.8921 29.2242 10.697 29.2242 10.5ZM10.9284 12C10.968 11.9995 11.0059 11.9836 11.0339 11.9555C11.062 11.9275 11.0779 11.8896 11.0784 11.85V11.7726C11.0781 11.733 11.0621 11.6951 11.0341 11.6671C11.006 11.6391 10.968 11.6234 10.9284 11.6232H10.8978V10.176L11.4072 10.176L12.1206 9L12.7656 9L13.8828 10.8354H17.4978L18.1578 9.7476H22.0344C22.1798 9.413 22.4201 9.12829 22.7254 8.9286C23.0308 8.7289 23.3879 8.62294 23.7528 8.6238C24.1568 8.62052 24.5502 8.753 24.87 9C25.1347 9.19053 25.3422 9.44991 25.47 9.75H26.01C26.1392 9.45298 26.3432 9.19456 26.6022 9C26.9275 8.75778 27.3222 8.62671 27.7278 8.6262C28.1316 8.6227 28.5251 8.75427 28.8456 9C29.1046 9.19419 29.3083 9.45274 29.4366 9.75H29.85V9H30.7884L31.5 10.1616V10.8426C31.5001 10.9024 31.5239 10.9597 31.5662 11.0019C31.6085 11.0442 31.6658 11.068 31.7256 11.0682H32.0256C32.0552 11.0686 32.0847 11.063 32.1122 11.0518C32.1397 11.0406 32.1646 11.024 32.1856 11.003C32.2065 10.9819 32.223 10.9569 32.2341 10.9293C32.2451 10.9018 32.2505 10.8723 32.25 10.8426V8.3076C32.2498 8.26787 32.2339 8.2298 32.2059 8.20171C32.1778 8.17361 32.1397 8.15776 32.1 8.1576L14.6922 8.1576V7.8438L32.1 7.8438C32.1397 7.84364 32.1778 7.82779 32.2059 7.79969C32.2339 7.7716 32.2498 7.73353 32.25 7.6938V2.16C32.2507 2.08597 32.2366 2.01254 32.2086 1.94401C32.1806 1.87547 32.1393 1.81321 32.0869 1.76086C32.0346 1.70851 31.9723 1.66712 31.9038 1.63912C31.8352 1.61113 31.7618 1.59708 31.6878 1.5978L3.75778 1.5978L3.21778 0.0978012C3.2062 0.069335 3.18647 0.0449238 3.16106 0.0276318C3.13566 0.0103388 3.10571 0.000934601 3.07498 0.000600815H0.901182C0.861551 0.000757217 0.82358 0.0165291 0.7955 0.0444965C0.767422 0.072464 0.751497 0.110371 0.751183 0.150001V0.690001C0.751341 0.729734 0.767197 0.767797 0.795292 0.795893C0.823389 0.823989 0.861448 0.839843 0.901182 0.84H1.98118L4.46998 7.74C4.47958 7.769 4.49761 7.79448 4.52176 7.81319C4.54591 7.83189 4.5751 7.84297 4.60558 7.845L12.6756 7.845V8.16L4.64998 8.16C4.61025 8.16016 4.57218 8.17601 4.54409 8.20411C4.51599 8.23221 4.50014 8.27027 4.49998 8.31V8.85C4.4999 8.86972 4.50373 8.88926 4.51124 8.9075C4.51875 8.92573 4.52979 8.9423 4.54374 8.95624C4.55768 8.97019 4.57425 8.98123 4.59248 8.98874C4.61072 8.99625 4.63026 9.00008 4.64998 9H8.92498L9.63838 10.176H10.1478V11.6232H10.1244C10.0847 11.6234 10.0468 11.6391 10.0187 11.6671C9.99062 11.6951 9.97469 11.733 9.97438 11.7726V11.8488C9.97484 11.8884 9.9908 11.9263 10.0188 11.9543C10.0469 11.9824 10.0847 11.9983 10.1244 11.9988L10.9284 12Z" fill="#919191"/>
</svg>
