<svg width="33" height="12" viewBox="0 0 33 12" fill="none" xmlns="http://www.w3.org/2000/svg">
<path d="M7.58342 12C7.62321 11.9995 7.6612 11.9834 7.68917 11.9551C7.71714 11.9268 7.73282 11.8886 7.73282 11.8488V11.7744C7.73266 11.7347 7.71691 11.6967 7.68896 11.6685C7.66101 11.6403 7.6231 11.6243 7.58342 11.6238H7.56001V9.74171L21.2856 9.74171C21.4308 9.40723 21.6707 9.12252 21.9757 8.92264C22.2807 8.72276 22.6375 8.61644 23.0022 8.61677C23.4062 8.61308 23.7997 8.74489 24.12 8.99115C24.3849 9.18175 24.5924 9.44135 24.72 9.74171H27.36C27.5054 9.40709 27.7455 9.1223 28.0507 8.92241C28.3559 8.72253 28.7129 8.61629 29.0778 8.61677C29.4818 8.61308 29.8753 8.74489 30.1956 8.99115C30.4543 9.18634 30.6585 9.44481 30.7884 9.74171H31.245L31.5012 10.1539V10.8439C31.5024 10.9029 31.5263 10.9593 31.568 11.0012C31.6097 11.0431 31.6659 11.0673 31.725 11.0688H32.025C32.0846 11.0685 32.1416 11.0447 32.1837 11.0026C32.2259 10.9605 32.2497 10.9034 32.25 10.8439V8.30238C32.2501 8.28269 32.2463 8.26317 32.2388 8.24494C32.2313 8.22671 32.2204 8.21013 32.2065 8.19615C32.1926 8.18216 32.1761 8.17105 32.158 8.16344C32.1398 8.15583 32.1203 8.15187 32.1006 8.15179L0.900621 8.15179C0.860727 8.15195 0.822514 8.16787 0.794306 8.19607C0.766096 8.22428 0.750179 8.26249 0.750021 8.30238V8.84236C0.750494 8.88204 0.76655 8.91995 0.794724 8.9479C0.822899 8.97584 0.860935 8.9916 0.900621 8.99175H4.85282L6.81002 9.74171V11.6238H6.77942C6.73973 11.6243 6.70183 11.6403 6.67388 11.6685C6.64592 11.6967 6.63017 11.7347 6.63002 11.7744V11.8488C6.63001 11.8887 6.64578 11.927 6.67388 11.9553C6.70197 11.9836 6.74012 11.9997 6.78002 12H7.58342ZM24.5034 10.4953C24.5034 10.1986 24.4154 9.90862 24.2506 9.66196C24.0858 9.4153 23.8515 9.22305 23.5774 9.10953C23.3033 8.996 23.0017 8.9663 22.7108 9.02417C22.4198 9.08205 22.1525 9.2249 21.9427 9.43467C21.733 9.64444 21.5901 9.9117 21.5322 10.2027C21.4744 10.4936 21.5041 10.7952 21.6176 11.0693C21.7311 11.3433 21.9234 11.5776 22.1701 11.7424C22.4167 11.9072 22.7067 11.9952 23.0034 11.9952C23.4012 11.9952 23.7828 11.8372 24.0641 11.5559C24.3454 11.2746 24.5034 10.8931 24.5034 10.4953ZM30.5778 10.4953C30.5778 10.1986 30.4898 9.90862 30.325 9.66196C30.1602 9.4153 29.9259 9.22305 29.6518 9.10953C29.3777 8.996 29.0761 8.9663 28.7852 9.02417C28.4942 9.08205 28.2269 9.2249 28.0171 9.43467C27.8074 9.64444 27.6645 9.9117 27.6066 10.2027C27.5487 10.4936 27.5785 10.7952 27.692 11.0693C27.8055 11.3433 27.9978 11.5776 28.2444 11.7424C28.4911 11.9072 28.7811 11.9952 29.0778 11.9952C29.4755 11.995 29.8569 11.8369 30.1381 11.5557C30.4192 11.2744 30.5772 10.893 30.5772 10.4953H30.5778Z" fill="#919191"/>
</svg>
