<svg width="33" height="12" viewBox="0 0 33 12" fill="none" xmlns="http://www.w3.org/2000/svg">
<path fill-rule="evenodd" clip-rule="evenodd" d="M0.75 8.36563V7.16563C0.750158 7.12589 0.766012 7.08783 0.794108 7.05974C0.822205 7.03164 0.860266 7.01578 0.9 7.01562H4.935C5.53159 7.0161 6.10361 7.25332 6.52546 7.67517C6.94731 8.09702 7.18452 8.66903 7.185 9.26563V9.74564H17.115L18.0822 8.15564H32.0964C32.1361 8.1558 32.1742 8.17164 32.2023 8.19973C32.2304 8.22783 32.2462 8.26591 32.2464 8.30564V10.8478C32.2462 10.9075 32.2225 10.9646 32.1803 11.0068C32.1381 11.0489 32.081 11.0727 32.0214 11.0728H31.7214C31.6621 11.0715 31.6057 11.0473 31.5638 11.0054C31.5219 10.9635 31.4977 10.9071 31.4964 10.8478V10.1578L31.2414 9.74503H30.7842C30.6555 9.44772 30.4513 9.18919 30.192 8.99503C29.8719 8.74875 29.4786 8.61674 29.0748 8.62003C28.7101 8.6199 28.3533 8.72629 28.0482 8.92615C27.7432 9.12601 27.5031 9.41062 27.3576 9.74503H26.8026C26.6739 9.44772 26.4697 9.18919 26.2104 8.99503C25.8929 8.75558 25.5058 8.62661 25.1082 8.62783C24.7463 8.62727 24.3922 8.7328 24.0897 8.93137C23.7871 9.12993 23.5494 9.41281 23.406 9.74503H22.8438C22.7151 9.44772 22.5109 9.18919 22.2516 8.99503C21.9315 8.74875 21.5382 8.61674 21.1344 8.62003C20.7697 8.6199 20.4129 8.72629 20.1078 8.92615C19.8028 9.12601 19.5627 9.41062 19.4172 9.74503H18.7872L17.82 11.3428H6.495C6.38849 11.3433 6.28295 11.3227 6.18446 11.2821C6.08597 11.2416 5.99649 11.182 5.92118 11.1067C5.84587 11.0313 5.78622 10.9419 5.74568 10.8434C5.70515 10.7449 5.68452 10.6393 5.685 10.5328V9.26563C5.68436 9.06691 5.60514 8.87651 5.46463 8.73599C5.32411 8.59548 5.13371 8.51626 4.935 8.51563H0.9C0.860266 8.51547 0.822205 8.49961 0.794108 8.47152C0.766012 8.44342 0.750158 8.40536 0.75 8.36563ZM19.8875 9.66625C19.7227 9.91292 19.6348 10.2029 19.6348 10.4996C19.6348 10.8974 19.7928 11.279 20.0741 11.5603C20.3554 11.8416 20.7369 11.9996 21.1348 11.9996C21.4314 11.9996 21.7214 11.9116 21.9681 11.7468C22.2148 11.582 22.407 11.3477 22.5206 11.0736C22.6341 10.7995 22.6638 10.4979 22.6059 10.207C22.548 9.916 22.4052 9.64872 22.1954 9.43894C21.9856 9.22916 21.7184 9.08631 21.4274 9.02844C21.1364 8.97056 20.8348 9.00025 20.5607 9.11378C20.2866 9.22731 20.0524 9.41957 19.8875 9.66625ZM27.5777 10.4996C27.5777 10.2029 27.6657 9.91292 27.8305 9.66625C27.9953 9.41957 28.2296 9.22731 28.5037 9.11378C28.7778 9.00025 29.0794 8.97056 29.3703 9.02844C29.6613 9.08631 29.9286 9.22916 30.1384 9.43894C30.3482 9.64872 30.491 9.916 30.5489 10.207C30.6068 10.4979 30.5771 10.7995 30.4635 11.0736C30.35 11.3477 30.1577 11.582 29.9111 11.7468C29.6644 11.9116 29.3744 11.9996 29.0777 11.9996C28.6799 11.9996 28.2984 11.8416 28.0171 11.5603C27.7358 11.279 27.5777 10.8974 27.5777 10.4996ZM23.859 9.66625C23.6942 9.91292 23.6062 10.2029 23.6062 10.4996C23.6062 10.8974 23.7643 11.279 24.0456 11.5603C24.3269 11.8416 24.7084 11.9996 25.1062 11.9996C25.4029 11.9996 25.6929 11.9116 25.9396 11.7468C26.1863 11.582 26.3785 11.3477 26.4921 11.0736C26.6056 10.7995 26.6353 10.4979 26.5774 10.207C26.5195 9.916 26.3767 9.64872 26.1669 9.43894C25.9571 9.22916 25.6898 9.08631 25.3989 9.02844C25.1079 8.97056 24.8063 9.00025 24.5322 9.11378C24.2581 9.22731 24.0239 9.41957 23.859 9.66625Z" fill="#919191"/>
</svg>
