<svg width="33" height="12" viewBox="0 0 33 12" fill="none" xmlns="http://www.w3.org/2000/svg">
<path d="M25.2534 10.5001C25.2534 10.2034 25.1654 9.91342 25.0006 9.66676C24.8358 9.4201 24.6015 9.22785 24.3274 9.11433C24.0533 9.0008 23.7517 8.9711 23.4608 9.02897C23.1698 9.08685 22.9025 9.2297 22.6927 9.43947C22.483 9.64924 22.3401 9.9165 22.2822 10.2075C22.2243 10.4984 22.2541 10.8 22.3676 11.0741C22.4811 11.3481 22.6734 11.5824 22.92 11.7472C23.1667 11.912 23.4567 12 23.7534 12C24.1512 12 24.5328 11.842 24.8141 11.5607C25.0954 11.2794 25.2534 10.8979 25.2534 10.5001ZM29.2248 10.5001C29.2248 10.2035 29.1369 9.91352 28.9721 9.66689C28.8073 9.42025 28.5731 9.228 28.2991 9.11444C28.0251 9.00088 27.7235 8.97111 27.4326 9.02888C27.1417 9.08666 26.8744 9.2294 26.6646 9.43904C26.4547 9.64869 26.3118 9.91584 26.2538 10.2067C26.1958 10.4976 26.2253 10.7991 26.3386 11.0732C26.452 11.3473 26.6441 11.5817 26.8906 11.7466C27.1371 11.9116 27.427 11.9998 27.7236 12C27.9207 12.0002 28.1159 11.9615 28.298 11.8862C28.4801 11.8109 28.6456 11.7004 28.785 11.5611C28.9245 11.4218 29.035 11.2564 29.1105 11.0743C29.186 10.8923 29.2248 10.6971 29.2248 10.5001ZM7.58282 12C7.62277 11.9997 7.66098 11.9836 7.68917 11.9553C7.71736 11.927 7.73326 11.8888 7.73342 11.8488V11.7726C7.7331 11.7329 7.7171 11.6949 7.68889 11.6669C7.66068 11.6389 7.62255 11.6232 7.58282 11.6232H7.56122V10.1761H8.07002L8.78282 9.00015L14.7984 9.00015V9.37333H21.6222V9.74831H22.035C22.1806 9.41395 22.4207 9.12935 22.7257 8.92942C23.0307 8.72949 23.3875 8.62291 23.7522 8.62277C24.1564 8.62063 24.5498 8.75344 24.87 9.00015C25.1345 9.19089 25.342 9.45019 25.47 9.75011H26.01C26.1387 9.45282 26.3429 9.1943 26.6022 9.00015C26.9272 8.75707 27.322 8.62534 27.7278 8.62457C28.1317 8.62172 28.5249 8.75392 28.845 9.00015C29.1044 9.1944 29.3087 9.45288 29.4378 9.75011H29.85V9.00015H30.7878L31.5012 10.1617V10.8511C31.5026 10.9101 31.5267 10.9664 31.5684 11.0082C31.6102 11.05 31.6665 11.0741 31.7256 11.0754H32.0256C32.0851 11.0754 32.1422 11.0518 32.1843 11.0097C32.2264 10.9676 32.25 10.9106 32.25 10.8511V0.562775C32.2502 0.488883 32.2359 0.415672 32.2077 0.34736C32.1795 0.279046 32.1381 0.216979 32.0859 0.164729C32.0336 0.112479 31.9715 0.0710793 31.9032 0.0429115C31.8349 0.0147438 31.7617 0.000365257 31.6878 0.000602722L1.83782 0.000602722C1.79349 0.000523567 1.74958 0.00918674 1.7086 0.0260963C1.66762 0.0430059 1.63037 0.0678301 1.599 0.0991488C1.56762 0.130466 1.54273 0.167665 1.52575 0.208612C1.50876 0.24956 1.50002 0.293456 1.50002 0.337786H0.562824C0.488894 0.337786 0.415691 0.352366 0.347403 0.380693C0.279116 0.40902 0.217087 0.450536 0.164867 0.502866C0.112644 0.555195 0.0712585 0.617311 0.0430756 0.685656C0.0148926 0.754 0.000465393 0.82723 0.00062561 0.901157V6.21629C0.00172424 6.36505 0.0613098 6.5074 0.166504 6.61259C0.2717 6.71778 0.414061 6.77736 0.562824 6.77846H1.50062V8.43618C1.50141 8.5852 1.56083 8.72792 1.66605 8.83347C1.77126 8.93901 1.9138 8.99889 2.06282 9.00015H5.58062L6.30062 10.1779H6.81002V11.6232H6.77942C6.7598 11.6232 6.74037 11.6271 6.72225 11.6346C6.70412 11.6421 6.68765 11.6531 6.67378 11.667C6.6599 11.6808 6.6489 11.6973 6.64139 11.7154C6.63388 11.7336 6.63002 11.753 6.63002 11.7726V11.8476C6.62978 11.8675 6.63348 11.8872 6.64091 11.9057C6.64833 11.9241 6.65933 11.9409 6.67328 11.955C6.68722 11.9692 6.70383 11.9805 6.72215 11.9882C6.74047 11.9959 6.76014 11.9999 6.78002 12H7.58282ZM3.51842 6.74906C3.51903 6.7591 3.51751 6.76915 3.51396 6.77855C3.51041 6.78796 3.50492 6.79651 3.49784 6.80364C3.49076 6.81078 3.48225 6.81634 3.47288 6.81996C3.4635 6.82358 3.45346 6.82518 3.44342 6.82466H3.25502C3.2452 6.82458 3.23549 6.82256 3.22646 6.81871C3.21742 6.81486 3.20924 6.80926 3.20238 6.80223C3.19551 6.79521 3.19011 6.78689 3.18648 6.77776C3.18285 6.76864 3.18106 6.75888 3.18122 6.74906C3.18233 6.72974 3.19043 6.71148 3.20401 6.69768C3.21759 6.68388 3.23572 6.67549 3.25502 6.67407H3.44342C3.46306 6.67422 3.48187 6.682 3.49587 6.69578C3.50986 6.70955 3.51795 6.72823 3.51842 6.74786V6.74906ZM4.98062 6.74906C4.98123 6.7591 4.97971 6.76915 4.97616 6.77855C4.97261 6.78796 4.96712 6.79651 4.96004 6.80364C4.95296 6.81078 4.94445 6.81634 4.93508 6.81996C4.9257 6.82358 4.91566 6.82518 4.90562 6.82466H4.53902C4.51897 6.82466 4.49974 6.81669 4.48557 6.80252C4.47139 6.78834 4.46342 6.76911 4.46342 6.74906C4.46483 6.72954 4.47327 6.71118 4.48717 6.6974C4.50106 6.68361 4.51948 6.67532 4.53902 6.67407H4.90562C4.92526 6.67422 4.94407 6.682 4.95807 6.69578C4.97206 6.70955 4.98015 6.72823 4.98062 6.74786V6.74906ZM6.44282 6.74906C6.44283 6.7688 6.43511 6.78776 6.42132 6.80189C6.40753 6.81602 6.38876 6.82419 6.36902 6.82466H6.00122C5.98117 6.82466 5.96194 6.81669 5.94776 6.80252C5.93358 6.78834 5.92562 6.76911 5.92562 6.74906C5.92703 6.72954 5.93546 6.71118 5.94936 6.6974C5.96326 6.68361 5.98168 6.67532 6.00122 6.67407H6.36902C6.38798 6.67571 6.40575 6.68403 6.41915 6.69755C6.43255 6.71106 6.44073 6.72889 6.44222 6.74786L6.44282 6.74906ZM7.89902 6.74906C7.89962 6.7591 7.8981 6.76915 7.89456 6.77855C7.89101 6.78796 7.88552 6.79651 7.87844 6.80364C7.87136 6.81078 7.86285 6.81634 7.85347 6.81996C7.84409 6.82358 7.83406 6.82518 7.82402 6.82466H7.46402C7.45403 6.8252 7.44404 6.82361 7.43472 6.81997C7.42539 6.81634 7.41696 6.81076 7.40997 6.8036C7.40298 6.79644 7.3976 6.78787 7.3942 6.77847C7.39079 6.76906 7.38943 6.75904 7.39022 6.74906C7.39014 6.73929 7.39198 6.7296 7.39565 6.72055C7.39932 6.71149 7.40473 6.70324 7.41159 6.69628C7.41844 6.68932 7.4266 6.68377 7.43559 6.67996C7.44459 6.67615 7.45425 6.67415 7.46402 6.67407H7.82402C7.84355 6.67437 7.86221 6.68223 7.87608 6.69598C7.88995 6.70974 7.89796 6.72833 7.89842 6.74786L7.89902 6.74906ZM9.36122 6.74906C9.36183 6.75915 9.3603 6.76925 9.35671 6.7787C9.35313 6.78815 9.34758 6.79673 9.34044 6.80388C9.33329 6.81103 9.32471 6.81657 9.31526 6.82016C9.30581 6.82374 9.29571 6.82527 9.28562 6.82466H8.91902C8.89897 6.82466 8.87974 6.81669 8.86556 6.80252C8.85138 6.78834 8.84342 6.76911 8.84342 6.74906C8.84483 6.72954 8.85326 6.71118 8.86716 6.6974C8.88106 6.68361 8.89948 6.67532 8.91902 6.67407H9.28562C9.30526 6.67422 9.32406 6.682 9.33806 6.69578C9.35206 6.70955 9.36015 6.72823 9.36062 6.74786L9.36122 6.74906ZM10.8234 6.74906C10.8234 6.7688 10.8157 6.78776 10.8019 6.80189C10.7881 6.81602 10.7694 6.82419 10.7496 6.82466H10.3818C10.3618 6.82466 10.3425 6.81669 10.3284 6.80252C10.3142 6.78834 10.3062 6.76911 10.3062 6.74906C10.3076 6.72954 10.3161 6.71118 10.33 6.6974C10.3439 6.68361 10.3623 6.67532 10.3818 6.67407H10.7496C10.7685 6.67583 10.7862 6.68419 10.7996 6.69768C10.813 6.71117 10.8212 6.72893 10.8228 6.74786L10.8234 6.74906ZM12.2796 6.74906C12.2802 6.75915 12.2787 6.76925 12.2751 6.7787C12.2715 6.78815 12.266 6.79673 12.2588 6.80388C12.2517 6.81103 12.2431 6.81657 12.2337 6.82016C12.2242 6.82374 12.2141 6.82527 12.204 6.82466H11.844C11.834 6.8252 11.824 6.82361 11.8147 6.81997C11.8054 6.81634 11.797 6.81076 11.79 6.8036C11.783 6.79644 11.7776 6.78787 11.7742 6.77847C11.7708 6.76906 11.7694 6.75904 11.7702 6.74906C11.7701 6.73929 11.772 6.7296 11.7757 6.72055C11.7793 6.71149 11.7847 6.70324 11.7916 6.69628C11.7984 6.68932 11.8066 6.68377 11.8156 6.67996C11.8246 6.67615 11.8342 6.67415 11.844 6.67407H12.204C12.2235 6.67437 12.2422 6.68223 12.2561 6.69598C12.2699 6.70974 12.278 6.72833 12.2784 6.74786L12.2796 6.74906ZM13.7418 6.74906C13.7424 6.75915 13.7409 6.76925 13.7373 6.7787C13.7337 6.78815 13.7282 6.79673 13.721 6.80388C13.7139 6.81103 13.7053 6.81657 13.6959 6.82016C13.6864 6.82374 13.6763 6.82527 13.6662 6.82466H13.2996C13.2797 6.8245 13.2606 6.81647 13.2465 6.80231C13.2325 6.78815 13.2246 6.76901 13.2246 6.74906C13.226 6.72963 13.2344 6.71136 13.2481 6.69758C13.2619 6.68381 13.2802 6.67546 13.2996 6.67407H13.6662C13.6857 6.67437 13.7044 6.68223 13.7183 6.69598C13.7321 6.70974 13.7401 6.72833 13.7406 6.74786L13.7418 6.74906ZM15.204 6.74906C15.204 6.7688 15.1963 6.78776 15.1825 6.80189C15.1687 6.81602 15.1499 6.82419 15.1302 6.82466H14.7624C14.7425 6.8245 14.7234 6.81647 14.7093 6.80231C14.6953 6.78815 14.6874 6.76901 14.6874 6.74906C14.6888 6.72963 14.6972 6.71136 14.7109 6.69758C14.7247 6.68381 14.743 6.67546 14.7624 6.67407H15.1302C15.149 6.67598 15.1664 6.68442 15.1796 6.69791C15.1928 6.71139 15.2008 6.72908 15.2022 6.74786L15.204 6.74906ZM16.6602 6.74906C16.6608 6.75915 16.6593 6.76925 16.6557 6.7787C16.6521 6.78815 16.6466 6.79673 16.6394 6.80388C16.6323 6.81103 16.6237 6.81657 16.6143 6.82016C16.6048 6.82374 16.5947 6.82527 16.5846 6.82466H16.2246C16.2146 6.8252 16.2046 6.82361 16.1953 6.81997C16.186 6.81634 16.1775 6.81076 16.1706 6.8036C16.1636 6.79644 16.1582 6.78787 16.1548 6.77847C16.1514 6.76906 16.15 6.75904 16.1508 6.74906C16.1507 6.73929 16.1526 6.7296 16.1562 6.72055C16.1599 6.71149 16.1653 6.70324 16.1722 6.69628C16.179 6.68932 16.1872 6.68377 16.1962 6.67996C16.2052 6.67615 16.2148 6.67415 16.2246 6.67407H16.5846C16.604 6.67452 16.6225 6.68245 16.6363 6.69619C16.65 6.70993 16.658 6.72844 16.6584 6.74786L16.6602 6.74906ZM18.1224 6.74906C18.123 6.75915 18.1215 6.76925 18.1179 6.7787C18.1143 6.78815 18.1088 6.79673 18.1016 6.80388C18.0945 6.81103 18.0859 6.81657 18.0764 6.82016C18.067 6.82374 18.0569 6.82527 18.0468 6.82466H17.6802C17.6603 6.8245 17.6412 6.81647 17.6271 6.80231C17.6131 6.78815 17.6052 6.76901 17.6052 6.74906C17.6066 6.72963 17.615 6.71136 17.6287 6.69758C17.6425 6.68381 17.6608 6.67546 17.6802 6.67407H18.0468C18.0662 6.67452 18.0847 6.68245 18.0985 6.69619C18.1122 6.70993 18.1202 6.72844 18.1206 6.74786L18.1224 6.74906ZM19.5846 6.74906C19.5846 6.7688 19.5769 6.78776 19.5631 6.80189C19.5493 6.81602 19.5305 6.82419 19.5108 6.82466H19.143C19.123 6.82466 19.1037 6.81669 19.0896 6.80252C19.0754 6.78834 19.0674 6.76911 19.0674 6.74906C19.0688 6.72954 19.0773 6.71118 19.0912 6.6974C19.105 6.68361 19.1235 6.67532 19.143 6.67407H19.5108C19.5294 6.67611 19.5468 6.68461 19.5598 6.69808C19.5729 6.71156 19.5808 6.72917 19.5822 6.74786L19.5846 6.74906ZM21.0408 6.74906C21.0414 6.75915 21.0399 6.76925 21.0363 6.7787C21.0327 6.78815 21.0272 6.79673 21.02 6.80388C21.0129 6.81103 21.0043 6.81657 20.9948 6.82016C20.9854 6.82374 20.9753 6.82527 20.9652 6.82466H20.6052C20.5952 6.8252 20.5852 6.82361 20.5759 6.81997C20.5666 6.81634 20.5581 6.81076 20.5512 6.8036C20.5442 6.79644 20.5388 6.78787 20.5354 6.77847C20.532 6.76906 20.5306 6.75904 20.5314 6.74906C20.5313 6.73929 20.5332 6.7296 20.5368 6.72055C20.5405 6.71149 20.5459 6.70324 20.5528 6.69628C20.5596 6.68932 20.5678 6.68377 20.5768 6.67996C20.5858 6.67615 20.5954 6.67415 20.6052 6.67407H20.9652C20.9845 6.67468 21.0029 6.68266 21.0165 6.69639C21.0301 6.71012 21.038 6.72854 21.0384 6.74786L21.0408 6.74906ZM22.503 6.74906C22.5036 6.7591 22.5021 6.76915 22.4985 6.77855C22.495 6.78796 22.4895 6.79651 22.4824 6.80364C22.4753 6.81078 22.4668 6.81634 22.4575 6.81996C22.4481 6.82358 22.438 6.82518 22.428 6.82466H22.0614C22.0414 6.82466 22.0221 6.81669 22.0079 6.80252C21.9938 6.78834 21.9858 6.76911 21.9858 6.74906C21.9872 6.72954 21.9956 6.71118 22.0095 6.6974C22.0234 6.68361 22.0419 6.67532 22.0614 6.67407H22.428C22.4472 6.67483 22.4654 6.68288 22.4789 6.69659C22.4924 6.7103 22.5002 6.72864 22.5006 6.74786L22.503 6.74906ZM23.9652 6.74906C23.9654 6.75888 23.9636 6.76864 23.9599 6.77776C23.9563 6.78689 23.9509 6.79521 23.9441 6.80223C23.9372 6.80926 23.929 6.81486 23.92 6.81871C23.9109 6.82256 23.9012 6.82458 23.8914 6.82466H23.5236C23.5036 6.82466 23.4843 6.81669 23.4701 6.80252C23.456 6.78834 23.448 6.76911 23.448 6.74906C23.4494 6.72954 23.4578 6.71118 23.4717 6.6974C23.4856 6.68361 23.5041 6.67532 23.5236 6.67407H23.8914C23.91 6.67602 23.9274 6.6845 23.9403 6.69801C23.9533 6.71152 23.961 6.72918 23.9622 6.74786L23.9652 6.74906ZM25.4214 6.74906C25.422 6.75915 25.4205 6.76925 25.4169 6.7787C25.4133 6.78815 25.4078 6.79673 25.4006 6.80388C25.3935 6.81103 25.3849 6.81657 25.3754 6.82016C25.366 6.82374 25.3559 6.82527 25.3458 6.82466H24.9858C24.9758 6.8252 24.9658 6.82361 24.9565 6.81997C24.9472 6.81634 24.9387 6.81076 24.9318 6.8036C24.9248 6.79644 24.9194 6.78787 24.916 6.77847C24.9126 6.76906 24.9112 6.75904 24.912 6.74906C24.9119 6.73929 24.9138 6.7296 24.9174 6.72055C24.9211 6.71149 24.9265 6.70324 24.9334 6.69628C24.9402 6.68932 24.9484 6.68377 24.9574 6.67996C24.9664 6.67615 24.976 6.67415 24.9858 6.67407H25.3458C25.365 6.67483 25.3832 6.68288 25.3967 6.69659C25.4102 6.7103 25.418 6.72864 25.4184 6.74786L25.4214 6.74906ZM26.8836 6.74906C26.8842 6.75915 26.8827 6.76925 26.8791 6.7787C26.8755 6.78815 26.87 6.79673 26.8628 6.80388C26.8557 6.81103 26.8471 6.81657 26.8376 6.82016C26.8282 6.82374 26.8181 6.82527 26.808 6.82466H26.4414C26.4214 6.82466 26.4021 6.81669 26.3879 6.80252C26.3738 6.78834 26.3658 6.76911 26.3658 6.74906C26.3672 6.72954 26.3756 6.71118 26.3895 6.6974C26.4034 6.68361 26.4219 6.67532 26.4414 6.67407H26.805C26.8247 6.67406 26.8437 6.68178 26.8578 6.69557C26.872 6.70936 26.8801 6.72813 26.8806 6.74786L26.8836 6.74906ZM28.3458 6.74906C28.346 6.75888 28.3442 6.76864 28.3405 6.77776C28.3369 6.78689 28.3315 6.79521 28.3246 6.80223C28.3178 6.80926 28.3096 6.81486 28.3006 6.81871C28.2915 6.82256 28.2818 6.82458 28.272 6.82466H27.9042C27.8842 6.82466 27.8649 6.81669 27.8507 6.80252C27.8366 6.78834 27.8286 6.76911 27.8286 6.74906C27.83 6.72954 27.8384 6.71118 27.8523 6.6974C27.8662 6.68361 27.8847 6.67532 27.9042 6.67407H28.2684C28.2876 6.67533 28.3056 6.68352 28.3192 6.69709C28.3328 6.71066 28.3409 6.72871 28.3422 6.74786L28.3458 6.74906ZM29.802 6.74906C29.8026 6.75915 29.8011 6.76925 29.7975 6.7787C29.7939 6.78815 29.7884 6.79673 29.7812 6.80388C29.7741 6.81103 29.7655 6.81657 29.756 6.82016C29.7466 6.82374 29.7365 6.82527 29.7264 6.82466H29.3664C29.3564 6.8252 29.3464 6.82361 29.3371 6.81997C29.3278 6.81634 29.3193 6.81076 29.3124 6.8036C29.3054 6.79644 29.3 6.78787 29.2966 6.77847C29.2932 6.76906 29.2918 6.75904 29.2926 6.74906C29.2925 6.73929 29.2944 6.7296 29.298 6.72055C29.3017 6.71149 29.3071 6.70324 29.314 6.69628C29.3208 6.68932 29.329 6.68377 29.338 6.67996C29.347 6.67615 29.3566 6.67415 29.3664 6.67407H29.7264C29.7455 6.67497 29.7636 6.68309 29.7769 6.69679C29.7903 6.71048 29.798 6.72873 29.7984 6.74786L29.802 6.74906ZM31.0842 6.74906C31.0848 6.75915 31.0833 6.76925 31.0797 6.7787C31.0761 6.78815 31.0706 6.79673 31.0634 6.80388C31.0563 6.81103 31.0477 6.81657 31.0382 6.82016C31.0288 6.82374 31.0187 6.82527 31.0086 6.82466H30.8214C30.8013 6.82466 30.7821 6.81669 30.7679 6.80252C30.7538 6.78834 30.7458 6.76911 30.7458 6.74906C30.7472 6.72954 30.7556 6.71118 30.7695 6.6974C30.7834 6.68361 30.8019 6.67532 30.8214 6.67407H31.0056C31.0252 6.67422 31.044 6.682 31.058 6.69578C31.072 6.70955 31.0801 6.72823 31.0806 6.74786L31.0842 6.74906ZM3.51842 4.50038C3.51903 4.51041 3.51751 4.52046 3.51396 4.52986C3.51041 4.53927 3.50492 4.54782 3.49784 4.55496C3.49076 4.56209 3.48225 4.56765 3.47288 4.57128C3.4635 4.5749 3.45346 4.5765 3.44342 4.57597H3.25502C3.2452 4.57589 3.23549 4.57387 3.22646 4.57002C3.21742 4.56617 3.20924 4.56057 3.20238 4.55355C3.19551 4.54652 3.19011 4.5382 3.18648 4.52908C3.18285 4.51995 3.18106 4.5102 3.18122 4.50038C3.18236 4.48118 3.1905 4.46306 3.20411 4.44946C3.21771 4.43586 3.23582 4.42772 3.25502 4.42658H3.44342C3.45319 4.4265 3.46288 4.42835 3.47194 4.43201C3.481 4.43568 3.48924 4.44109 3.49621 4.44794C3.50317 4.4548 3.50872 4.46295 3.51253 4.47195C3.51634 4.48095 3.51834 4.49061 3.51842 4.50038ZM4.98062 4.50038C4.98123 4.51041 4.97971 4.52046 4.97616 4.52986C4.97261 4.53927 4.96712 4.54782 4.96004 4.55496C4.95296 4.56209 4.94445 4.56765 4.93508 4.57128C4.9257 4.5749 4.91566 4.5765 4.90562 4.57597H4.53902C4.51897 4.57597 4.49974 4.56801 4.48557 4.55383C4.47139 4.53965 4.46342 4.52043 4.46342 4.50038C4.46486 4.48097 4.47334 4.46277 4.48726 4.44918C4.50118 4.43559 4.51959 4.42755 4.53902 4.42658H4.90562C4.91539 4.4265 4.92508 4.42835 4.93414 4.43201C4.9432 4.43568 4.95144 4.44109 4.95841 4.44794C4.96537 4.4548 4.97092 4.46295 4.97473 4.47195C4.97854 4.48095 4.98054 4.49061 4.98062 4.50038ZM6.44282 4.50038C6.44283 4.52012 6.43511 4.53908 6.42132 4.5532C6.40753 4.56733 6.38876 4.5755 6.36902 4.57597H6.00122C5.98117 4.57597 5.96194 4.56801 5.94776 4.55383C5.93358 4.53965 5.92562 4.52043 5.92562 4.50038C5.92706 4.48097 5.93554 4.46277 5.94946 4.44918C5.96338 4.43559 5.98179 4.42755 6.00122 4.42658H6.36902C6.38803 4.42811 6.40586 4.43639 6.41928 4.44993C6.43271 4.46346 6.44085 4.48136 6.44222 4.50038H6.44282ZM7.89902 4.50038C7.89962 4.51041 7.8981 4.52046 7.89456 4.52986C7.89101 4.53927 7.88552 4.54782 7.87844 4.55496C7.87136 4.56209 7.86285 4.56765 7.85347 4.57128C7.84409 4.5749 7.83406 4.5765 7.82402 4.57597H7.46402C7.45403 4.57652 7.44404 4.57492 7.43472 4.57129C7.42539 4.56766 7.41696 4.56207 7.40997 4.55491C7.40298 4.54776 7.3976 4.53919 7.3942 4.52978C7.39079 4.52037 7.38943 4.51035 7.39022 4.50038C7.39014 4.49066 7.39199 4.48103 7.39567 4.47204C7.39935 4.46305 7.40479 4.45489 7.41166 4.44802C7.41853 4.44115 7.42669 4.43571 7.43568 4.43203C7.44467 4.42835 7.4543 4.4265 7.46402 4.42658H7.82402C7.84365 4.42658 7.86248 4.43434 7.87642 4.44816C7.89035 4.46198 7.89826 4.48075 7.89842 4.50038H7.89902ZM9.36122 4.50038C9.36183 4.51046 9.3603 4.52057 9.35671 4.53002C9.35313 4.53946 9.34758 4.54805 9.34044 4.55519C9.33329 4.56234 9.32471 4.56789 9.31526 4.57147C9.30581 4.57505 9.29571 4.57659 9.28562 4.57597H8.91902C8.89897 4.57597 8.87974 4.56801 8.86556 4.55383C8.85138 4.53965 8.84342 4.52043 8.84342 4.50038C8.84486 4.48097 8.85333 4.46277 8.86726 4.44918C8.88118 4.43559 8.89959 4.42755 8.91902 4.42658H9.28562C9.29539 4.4265 9.30508 4.42835 9.31413 4.43201C9.32319 4.43568 9.33144 4.44109 9.3384 4.44794C9.34537 4.4548 9.35091 4.46295 9.35472 4.47195C9.35854 4.48095 9.36054 4.49061 9.36062 4.50038H9.36122ZM10.8234 4.50038C10.8234 4.52012 10.8157 4.53908 10.8019 4.5532C10.7881 4.56733 10.7694 4.5755 10.7496 4.57597H10.3818C10.3618 4.57597 10.3425 4.56801 10.3284 4.55383C10.3142 4.53965 10.3062 4.52043 10.3062 4.50038C10.3077 4.48097 10.3161 4.46277 10.3301 4.44918C10.344 4.43559 10.3624 4.42755 10.3818 4.42658H10.7496C10.7686 4.42811 10.7865 4.43639 10.7999 4.44993C10.8133 4.46346 10.8214 4.48136 10.8228 4.50038H10.8234ZM12.2796 4.50038C12.2802 4.51046 12.2787 4.52057 12.2751 4.53002C12.2715 4.53946 12.266 4.54805 12.2588 4.55519C12.2517 4.56234 12.2431 4.56789 12.2337 4.57147C12.2242 4.57505 12.2141 4.57659 12.204 4.57597H11.844C11.834 4.57652 11.824 4.57492 11.8147 4.57129C11.8054 4.56766 11.797 4.56207 11.79 4.55491C11.783 4.54776 11.7776 4.53919 11.7742 4.52978C11.7708 4.52037 11.7694 4.51035 11.7702 4.50038C11.7701 4.49066 11.772 4.48103 11.7757 4.47204C11.7794 4.46305 11.7848 4.45489 11.7917 4.44802C11.7985 4.44115 11.8067 4.43571 11.8157 4.43203C11.8247 4.42835 11.8343 4.4265 11.844 4.42658H12.204C12.2236 4.42658 12.2425 4.43434 12.2564 4.44816C12.2703 4.46198 12.2783 4.48075 12.2784 4.50038H12.2796ZM13.7418 4.50038C13.7424 4.51046 13.7409 4.52057 13.7373 4.53002C13.7337 4.53946 13.7282 4.54805 13.721 4.55519C13.7139 4.56234 13.7053 4.56789 13.6959 4.57147C13.6864 4.57505 13.6763 4.57659 13.6662 4.57597H13.2996C13.2797 4.57581 13.2606 4.56778 13.2465 4.55362C13.2325 4.53946 13.2246 4.52032 13.2246 4.50038C13.226 4.48107 13.2344 4.46294 13.2482 4.44937C13.262 4.43579 13.2803 4.42769 13.2996 4.42658H13.6662C13.6858 4.42658 13.7047 4.43434 13.7186 4.44816C13.7325 4.46198 13.7405 4.48075 13.7406 4.50038H13.7418ZM15.204 4.50038C15.204 4.52012 15.1963 4.53908 15.1825 4.5532C15.1687 4.56733 15.1499 4.5755 15.1302 4.57597H14.7624C14.7425 4.57581 14.7234 4.56778 14.7093 4.55362C14.6953 4.53946 14.6874 4.52032 14.6874 4.50038C14.6888 4.48107 14.6972 4.46294 14.711 4.44937C14.7248 4.43579 14.7431 4.42769 14.7624 4.42658H15.1302C15.149 4.42838 15.1665 4.43678 15.1797 4.45029C15.1929 4.4638 15.2009 4.48155 15.2022 4.50038H15.204ZM16.6602 4.50038C16.6608 4.51046 16.6593 4.52057 16.6557 4.53002C16.6521 4.53946 16.6466 4.54805 16.6394 4.55519C16.6323 4.56234 16.6237 4.56789 16.6143 4.57147C16.6048 4.57505 16.5947 4.57659 16.5846 4.57597H16.2246C16.2146 4.57652 16.2046 4.57492 16.1953 4.57129C16.186 4.56766 16.1775 4.56207 16.1706 4.55491C16.1636 4.54776 16.1582 4.53919 16.1548 4.52978C16.1514 4.52037 16.15 4.51035 16.1508 4.50038C16.1507 4.49066 16.1526 4.48103 16.1563 4.47204C16.1599 4.46305 16.1654 4.45489 16.1722 4.44802C16.1791 4.44115 16.1873 4.43571 16.1963 4.43203C16.2053 4.42835 16.2149 4.4265 16.2246 4.42658H16.5846C16.6041 4.42674 16.6228 4.43456 16.6366 4.44837C16.6504 4.46217 16.6583 4.48085 16.6584 4.50038H16.6602ZM18.1224 4.50038C18.123 4.51046 18.1215 4.52057 18.1179 4.53002C18.1143 4.53946 18.1088 4.54805 18.1016 4.55519C18.0945 4.56234 18.0859 4.56789 18.0764 4.57147C18.067 4.57505 18.0569 4.57659 18.0468 4.57597H17.6802C17.6603 4.57581 17.6412 4.56778 17.6271 4.55362C17.6131 4.53946 17.6052 4.52032 17.6052 4.50038C17.6066 4.48107 17.615 4.46294 17.6288 4.44937C17.6426 4.43579 17.6609 4.42769 17.6802 4.42658H18.0468C18.0663 4.42674 18.085 4.43456 18.0988 4.44837C18.1126 4.46217 18.1205 4.48085 18.1206 4.50038H18.1224ZM19.5846 4.50038C19.5846 4.52012 19.5769 4.53908 19.5631 4.5532C19.5493 4.56733 19.5305 4.5755 19.5108 4.57597H19.143C19.123 4.57597 19.1037 4.56801 19.0896 4.55383C19.0754 4.53965 19.0674 4.52043 19.0674 4.50038C19.0688 4.48097 19.0773 4.46277 19.0912 4.44918C19.1052 4.43559 19.1236 4.42755 19.143 4.42658H19.5108C19.5295 4.42851 19.5469 4.43697 19.56 4.45047C19.573 4.46397 19.5809 4.48164 19.5822 4.50038H19.5846ZM21.0408 4.50038C21.0414 4.51046 21.0399 4.52057 21.0363 4.53002C21.0327 4.53946 21.0272 4.54805 21.02 4.55519C21.0129 4.56234 21.0043 4.56789 20.9948 4.57147C20.9854 4.57505 20.9753 4.57659 20.9652 4.57597H20.6052C20.5952 4.57652 20.5852 4.57492 20.5759 4.57129C20.5666 4.56766 20.5581 4.56207 20.5512 4.55491C20.5442 4.54776 20.5388 4.53919 20.5354 4.52978C20.532 4.52037 20.5306 4.51035 20.5314 4.50038C20.5313 4.49066 20.5332 4.48103 20.5369 4.47204C20.5405 4.46305 20.546 4.45489 20.5528 4.44802C20.5597 4.44115 20.5679 4.43571 20.5769 4.43203C20.5859 4.42835 20.5955 4.4265 20.6052 4.42658H20.9652C20.9846 4.42689 21.0032 4.43479 21.0168 4.44858C21.0305 4.46236 21.0383 4.48096 21.0384 4.50038H21.0408ZM22.503 4.50038C22.5036 4.51041 22.5021 4.52046 22.4985 4.52986C22.495 4.53927 22.4895 4.54782 22.4824 4.55496C22.4753 4.56209 22.4668 4.56765 22.4575 4.57128C22.4481 4.5749 22.438 4.5765 22.428 4.57597H22.0614C22.0414 4.57597 22.0221 4.56801 22.0079 4.55383C21.9938 4.53965 21.9858 4.52043 21.9858 4.50038C21.9872 4.48097 21.9957 4.46277 22.0096 4.44918C22.0236 4.43559 22.042 4.42755 22.0614 4.42658H22.428C22.4473 4.42705 22.4657 4.43501 22.4792 4.44878C22.4928 4.46255 22.5005 4.48106 22.5006 4.50038H22.503ZM23.9652 4.50038C23.9654 4.5102 23.9636 4.51995 23.9599 4.52908C23.9563 4.5382 23.9509 4.54652 23.9441 4.55355C23.9372 4.56057 23.929 4.56617 23.92 4.57002C23.9109 4.57387 23.9012 4.57589 23.8914 4.57597H23.5236C23.5036 4.57597 23.4843 4.56801 23.4701 4.55383C23.456 4.53965 23.448 4.52043 23.448 4.50038C23.4494 4.48097 23.4579 4.46277 23.4718 4.44918C23.4858 4.43559 23.5042 4.42755 23.5236 4.42658H23.8914C23.9101 4.42841 23.9275 4.43686 23.9404 4.45039C23.9534 4.46392 23.9611 4.48165 23.9622 4.50038H23.9652ZM25.4214 4.50038C25.422 4.51046 25.4205 4.52057 25.4169 4.53002C25.4133 4.53946 25.4078 4.54805 25.4006 4.55519C25.3935 4.56234 25.3849 4.56789 25.3754 4.57147C25.366 4.57505 25.3559 4.57659 25.3458 4.57597H24.9858C24.9758 4.57652 24.9658 4.57492 24.9565 4.57129C24.9472 4.56766 24.9387 4.56207 24.9318 4.55491C24.9248 4.54776 24.9194 4.53919 24.916 4.52978C24.9126 4.52037 24.9112 4.51035 24.912 4.50038C24.9119 4.49066 24.9138 4.48103 24.9175 4.47204C24.9211 4.46305 24.9266 4.45489 24.9334 4.44802C24.9403 4.44115 24.9485 4.43571 24.9575 4.43203C24.9665 4.42835 24.9761 4.4265 24.9858 4.42658H25.3458C25.3651 4.42705 25.3835 4.43501 25.397 4.44878C25.4106 4.46255 25.4183 4.48106 25.4184 4.50038H25.4214ZM26.8836 4.50038C26.8842 4.51046 26.8827 4.52057 26.8791 4.53002C26.8755 4.53946 26.87 4.54805 26.8628 4.55519C26.8557 4.56234 26.8471 4.56789 26.8376 4.57147C26.8282 4.57505 26.8181 4.57659 26.808 4.57597H26.4414C26.4214 4.57597 26.4021 4.56801 26.3879 4.55383C26.3738 4.53965 26.3658 4.52043 26.3658 4.50038C26.3672 4.48097 26.3757 4.46277 26.3896 4.44918C26.4036 4.43559 26.422 4.42755 26.4414 4.42658H26.805C26.8148 4.42642 26.8246 4.42821 26.8337 4.43184C26.8428 4.43547 26.8511 4.44087 26.8582 4.44773C26.8652 4.45459 26.8708 4.46278 26.8747 4.47181C26.8785 4.48085 26.8805 4.49056 26.8806 4.50038H26.8836ZM28.3458 4.50038C28.346 4.5102 28.3442 4.51995 28.3405 4.52908C28.3369 4.5382 28.3315 4.54652 28.3246 4.55355C28.3178 4.56057 28.3096 4.56617 28.3006 4.57002C28.2915 4.57387 28.2818 4.57589 28.272 4.57597H27.9042C27.8842 4.57597 27.8649 4.56801 27.8507 4.55383C27.8366 4.53965 27.8286 4.52043 27.8286 4.50038C27.83 4.48097 27.8385 4.46277 27.8524 4.44918C27.8664 4.43559 27.8848 4.42755 27.9042 4.42658H28.2684C28.2876 4.42772 28.3057 4.43586 28.3193 4.44946C28.3329 4.46306 28.3411 4.48118 28.3422 4.50038H28.3458ZM29.802 4.50038C29.8026 4.51046 29.8011 4.52057 29.7975 4.53002C29.7939 4.53946 29.7884 4.54805 29.7812 4.55519C29.7741 4.56234 29.7655 4.56789 29.756 4.57147C29.7466 4.57505 29.7365 4.57659 29.7264 4.57597H29.3664C29.3564 4.57652 29.3464 4.57492 29.3371 4.57129C29.3278 4.56766 29.3193 4.56207 29.3124 4.55491C29.3054 4.54776 29.3 4.53919 29.2966 4.52978C29.2932 4.52037 29.2918 4.51035 29.2926 4.50038C29.2925 4.49066 29.2944 4.48103 29.2981 4.47204C29.3017 4.46305 29.3072 4.45489 29.314 4.44802C29.3209 4.44115 29.3291 4.43571 29.3381 4.43203C29.3471 4.42835 29.3567 4.4265 29.3664 4.42658H29.7264C29.7456 4.4272 29.7638 4.43523 29.7773 4.44899C29.7907 4.46274 29.7983 4.48116 29.7984 4.50038H29.802ZM31.0842 4.50038C31.0848 4.51046 31.0833 4.52057 31.0797 4.53002C31.0761 4.53946 31.0706 4.54805 31.0634 4.55519C31.0563 4.56234 31.0477 4.56789 31.0382 4.57147C31.0288 4.57505 31.0187 4.57659 31.0086 4.57597H30.8214C30.8013 4.57597 30.7821 4.56801 30.7679 4.55383C30.7538 4.53965 30.7458 4.52043 30.7458 4.50038C30.7472 4.48097 30.7557 4.46277 30.7696 4.44918C30.7836 4.43559 30.802 4.42755 30.8214 4.42658H31.0056C31.0154 4.4265 31.0251 4.42835 31.0341 4.43201C31.0432 4.43568 31.0514 4.44109 31.0584 4.44794C31.0653 4.4548 31.0709 4.46295 31.0747 4.47195C31.0785 4.48095 31.0805 4.49061 31.0806 4.50038H31.0842ZM1.50422 3.56262H0.589827C0.56431 3.56407 0.538769 3.56029 0.514765 3.55152C0.490761 3.54275 0.4688 3.52917 0.450226 3.51162C0.431652 3.49407 0.416857 3.47291 0.406744 3.44944C0.396631 3.42597 0.391415 3.40069 0.391415 3.37513C0.391415 3.34958 0.396631 3.32429 0.406744 3.30082C0.416857 3.27736 0.431652 3.2562 0.450226 3.23864C0.4688 3.22109 0.490761 3.20752 0.514765 3.19875C0.538769 3.18998 0.56431 3.1862 0.589827 3.18764H1.50062L1.50422 3.56262ZM1.50422 2.43828H0.589827C0.56431 2.43972 0.538769 2.43595 0.514765 2.42718C0.490761 2.41841 0.4688 2.40483 0.450226 2.38728C0.431652 2.36973 0.416857 2.34857 0.406744 2.3251C0.396631 2.30163 0.391415 2.27634 0.391415 2.25079C0.391415 2.22523 0.396631 2.19995 0.406744 2.17648C0.416857 2.15301 0.431652 2.13185 0.450226 2.1143C0.4688 2.09675 0.490761 2.08317 0.514765 2.0744C0.538769 2.06563 0.56431 2.06186 0.589827 2.0633H1.50062L1.50422 2.43828ZM3.52262 2.25049C3.52332 2.26055 3.52187 2.27064 3.51836 2.28009C3.51485 2.28954 3.50936 2.29813 3.50226 2.30529C3.49516 2.31244 3.48661 2.318 3.47719 2.32159C3.46776 2.32517 3.45768 2.32671 3.44762 2.32609H3.25922C3.24938 2.32609 3.23963 2.32412 3.23056 2.3203C3.22149 2.31648 3.21327 2.31088 3.20639 2.30384C3.19951 2.29679 3.19411 2.28845 3.19051 2.27928C3.18691 2.27012 3.18518 2.26033 3.18542 2.25049C3.18669 2.23133 3.19487 2.21329 3.20845 2.19972C3.22202 2.18614 3.24007 2.17796 3.25922 2.17669H3.44762C3.46617 2.17771 3.48368 2.18558 3.49676 2.19877C3.50984 2.21196 3.51756 2.22954 3.51842 2.24809L3.52262 2.25049ZM4.98482 2.25049C4.98552 2.26055 4.98407 2.27064 4.98056 2.28009C4.97705 2.28954 4.97156 2.29813 4.96445 2.30529C4.95735 2.31244 4.94881 2.318 4.93938 2.32159C4.92996 2.32517 4.91988 2.32671 4.90982 2.32609H4.54322C4.53327 2.32617 4.52341 2.32427 4.5142 2.32049C4.50499 2.31672 4.49662 2.31116 4.48959 2.30412C4.48255 2.29709 4.47698 2.28872 4.47321 2.27951C4.46944 2.27031 4.46754 2.26044 4.46762 2.25049C4.46918 2.23113 4.4777 2.213 4.4916 2.19943C4.5055 2.18587 4.52383 2.17779 4.54322 2.17669H4.90982C4.92837 2.17771 4.94588 2.18558 4.95896 2.19877C4.97204 2.21196 4.97976 2.22954 4.98062 2.24809L4.98482 2.25049ZM6.44702 2.25049C6.44718 2.26031 6.44539 2.27006 6.44176 2.27919C6.43813 2.28832 6.43273 2.29663 6.42587 2.30366C6.41901 2.31069 6.41082 2.31629 6.40179 2.32014C6.39275 2.32399 6.38304 2.32601 6.37322 2.32609H6.00542C5.99547 2.32617 5.9856 2.32427 5.97639 2.32049C5.96719 2.31672 5.95882 2.31116 5.95179 2.30412C5.94475 2.29709 5.93918 2.28872 5.93541 2.27951C5.93164 2.27031 5.92974 2.26044 5.92982 2.25049C5.93151 2.23118 5.94006 2.21311 5.95393 2.19957C5.9678 2.18603 5.98607 2.17791 6.00542 2.17669H6.37322C6.39106 2.17915 6.40755 2.18752 6.42006 2.20047C6.43257 2.21341 6.44037 2.23018 6.44222 2.24809L6.44702 2.25049ZM7.90322 2.25049C7.90392 2.26055 7.90247 2.27064 7.89895 2.28009C7.89544 2.28954 7.88995 2.29813 7.88285 2.30529C7.87575 2.31244 7.86721 2.318 7.85778 2.32159C7.84836 2.32517 7.83828 2.32671 7.82822 2.32609H7.46822C7.4582 2.32673 7.44817 2.3252 7.4388 2.32161C7.42943 2.31801 7.42095 2.31243 7.41394 2.30525C7.40693 2.29807 7.40156 2.28946 7.39819 2.28001C7.39482 2.27055 7.39353 2.26048 7.39442 2.25049C7.39442 2.23092 7.40219 2.21215 7.41603 2.19831C7.42988 2.18447 7.44864 2.17669 7.46822 2.17669H7.82822C7.84666 2.17786 7.86402 2.18579 7.87698 2.19896C7.88993 2.21214 7.89757 2.22963 7.89842 2.24809L7.90322 2.25049ZM9.36542 2.25049C9.36613 2.2606 9.36466 2.27075 9.36111 2.28024C9.35757 2.28974 9.35202 2.29836 9.34485 2.30552C9.33769 2.31269 9.32907 2.31824 9.31957 2.32178C9.31008 2.32533 9.29993 2.3268 9.28982 2.32609H8.92322C8.91327 2.32617 8.9034 2.32427 8.89419 2.32049C8.88498 2.31672 8.87662 2.31116 8.86958 2.30412C8.86255 2.29709 8.85698 2.28872 8.85321 2.27951C8.84944 2.27031 8.84754 2.26044 8.84762 2.25049C8.8493 2.23118 8.85786 2.21311 8.87173 2.19957C8.8856 2.18603 8.90387 2.17791 8.92322 2.17669H9.28982C9.30832 2.17784 9.32575 2.18575 9.33881 2.19891C9.35186 2.21208 9.35962 2.22958 9.36062 2.24809L9.36542 2.25049ZM10.8276 2.25049C10.8278 2.27028 10.8201 2.28933 10.8063 2.30349C10.7925 2.31765 10.7736 2.32577 10.7538 2.32609L10.386 2.32609C10.3761 2.32617 10.3662 2.32427 10.357 2.32049C10.3478 2.31672 10.3394 2.31116 10.3324 2.30412C10.3253 2.29709 10.3198 2.28872 10.316 2.27951C10.3122 2.27031 10.3103 2.26044 10.3104 2.25049C10.3121 2.23118 10.3207 2.21311 10.3345 2.19957C10.3484 2.18603 10.3667 2.17791 10.386 2.17669L10.7538 2.17669C10.7717 2.17915 10.7881 2.18752 10.8007 2.20047C10.8132 2.21341 10.821 2.23018 10.8228 2.24809L10.8276 2.25049ZM12.2838 2.25049C12.2845 2.2606 12.2831 2.27075 12.2795 2.28024C12.276 2.28974 12.2704 2.29836 12.2633 2.30552C12.2561 2.31269 12.2475 2.31824 12.238 2.32178C12.2285 2.32533 12.2183 2.3268 12.2082 2.32609H11.8482C11.8382 2.32673 11.8282 2.3252 11.8188 2.32161C11.8094 2.31801 11.8009 2.31243 11.7939 2.30525C11.7869 2.29807 11.7816 2.28946 11.7782 2.28001C11.7748 2.27055 11.7735 2.26048 11.7744 2.25049C11.7744 2.23092 11.7822 2.21215 11.796 2.19831C11.8099 2.18447 11.8286 2.17669 11.8482 2.17669H12.2082C12.2266 2.17799 12.2439 2.18596 12.2568 2.19911C12.2698 2.21225 12.2774 2.22968 12.2784 2.24809L12.2838 2.25049ZM13.746 2.25049C13.7467 2.2606 13.7453 2.27075 13.7417 2.28024C13.7382 2.28974 13.7326 2.29836 13.7255 2.30552C13.7183 2.31269 13.7097 2.31824 13.7002 2.32178C13.6907 2.32533 13.6805 2.3268 13.6704 2.32609H13.3038C13.2939 2.32609 13.2841 2.32413 13.275 2.32032C13.2658 2.31651 13.2575 2.31094 13.2506 2.30391C13.2436 2.29688 13.2381 2.28854 13.2343 2.27937C13.2306 2.27021 13.2287 2.26039 13.2288 2.25049C13.2304 2.23123 13.2388 2.21317 13.2526 2.19962C13.2663 2.18607 13.2845 2.17793 13.3038 2.17669H13.6704C13.6888 2.17799 13.7061 2.18596 13.719 2.19911C13.732 2.21225 13.7396 2.22968 13.7406 2.24809L13.746 2.25049ZM15.2082 2.25049C15.2084 2.27028 15.2007 2.28933 15.1869 2.30349C15.1731 2.31765 15.1542 2.32577 15.1344 2.32609H14.7666C14.7567 2.32609 14.7469 2.32413 14.7378 2.32032C14.7286 2.31651 14.7203 2.31094 14.7134 2.30391C14.7064 2.29688 14.7009 2.28854 14.6971 2.27937C14.6934 2.27021 14.6915 2.26039 14.6916 2.25049C14.6932 2.23123 14.7016 2.21317 14.7154 2.19962C14.7291 2.18607 14.7473 2.17793 14.7666 2.17669H15.1344C15.152 2.1794 15.1682 2.18788 15.1805 2.2008C15.1928 2.21372 15.2004 2.23036 15.2022 2.24809L15.2082 2.25049ZM16.6644 2.25049C16.6651 2.2606 16.6637 2.27075 16.6601 2.28024C16.6566 2.28974 16.651 2.29836 16.6438 2.30552C16.6367 2.31269 16.6281 2.31824 16.6186 2.32178C16.6091 2.32533 16.5989 2.3268 16.5888 2.32609H16.2288C16.2188 2.32673 16.2088 2.3252 16.1994 2.32161C16.19 2.31801 16.1815 2.31243 16.1745 2.30525C16.1675 2.29807 16.1622 2.28946 16.1588 2.28001C16.1554 2.27055 16.1541 2.26048 16.155 2.25049C16.155 2.23092 16.1628 2.21215 16.1766 2.19831C16.1905 2.18447 16.2092 2.17669 16.2288 2.17669H16.5888C16.6071 2.17812 16.6242 2.18616 16.637 2.19929C16.6499 2.21243 16.6574 2.22977 16.6584 2.24809L16.6644 2.25049ZM18.1266 2.25049C18.1273 2.2606 18.1259 2.27075 18.1223 2.28024C18.1188 2.28974 18.1132 2.29836 18.106 2.30552C18.0989 2.31269 18.0903 2.31824 18.0808 2.32178C18.0713 2.32533 18.0611 2.3268 18.051 2.32609H17.6844C17.6745 2.32609 17.6647 2.32413 17.6556 2.32032C17.6464 2.31651 17.6381 2.31094 17.6312 2.30391C17.6242 2.29688 17.6187 2.28854 17.6149 2.27937C17.6112 2.27021 17.6093 2.26039 17.6094 2.25049C17.611 2.23123 17.6194 2.21317 17.6332 2.19962C17.6469 2.18607 17.6651 2.17793 17.6844 2.17669H18.051C18.0693 2.178 18.0866 2.18599 18.0994 2.19915C18.1122 2.21231 18.1198 2.22973 18.1206 2.24809L18.1266 2.25049ZM19.5888 2.25049C19.589 2.27028 19.5813 2.28933 19.5675 2.30349C19.5537 2.31765 19.5348 2.32577 19.515 2.32609H19.1472C19.1373 2.32617 19.1274 2.32427 19.1182 2.32049C19.109 2.31672 19.1006 2.31116 19.0936 2.30412C19.0865 2.29709 19.081 2.28872 19.0772 2.27951C19.0734 2.27031 19.0715 2.26044 19.0716 2.25049C19.0732 2.23113 19.0817 2.213 19.0956 2.19943C19.1095 2.18587 19.1278 2.17779 19.1472 2.17669H19.515C19.5325 2.17952 19.5486 2.18805 19.5608 2.20096C19.5729 2.21388 19.5804 2.23044 19.5822 2.24809L19.5888 2.25049ZM21.045 2.25049C21.0457 2.2606 21.0443 2.27075 21.0407 2.28024C21.0372 2.28974 21.0316 2.29836 21.0244 2.30552C21.0173 2.31269 21.0087 2.31824 20.9992 2.32178C20.9897 2.32533 20.9795 2.3268 20.9694 2.32609H20.6094C20.5994 2.32673 20.5894 2.3252 20.58 2.32161C20.5706 2.31801 20.5621 2.31243 20.5551 2.30525C20.5481 2.29807 20.5427 2.28946 20.5394 2.28001C20.536 2.27055 20.5347 2.26048 20.5356 2.25049C20.5356 2.23092 20.5434 2.21215 20.5572 2.19831C20.5711 2.18447 20.5898 2.17669 20.6094 2.17669H20.9694C20.9876 2.17814 21.0047 2.18619 21.0174 2.19934C21.0301 2.21249 21.0376 2.22982 21.0384 2.24809L21.045 2.25049ZM22.5072 2.25049C22.5079 2.26055 22.5065 2.27064 22.5029 2.28009C22.4994 2.28954 22.4939 2.29813 22.4868 2.30529C22.4797 2.31244 22.4712 2.318 22.4618 2.32159C22.4523 2.32517 22.4423 2.32671 22.4322 2.32609H22.0656C22.0557 2.32617 22.0458 2.32427 22.0366 2.32049C22.0274 2.31672 22.019 2.31116 22.012 2.30412C22.0049 2.29709 21.9994 2.28872 21.9956 2.27951C21.9918 2.27031 21.9899 2.26044 21.99 2.25049C21.9916 2.23113 22.0001 2.213 22.014 2.19943C22.0279 2.18587 22.0462 2.17779 22.0656 2.17669H22.4322C22.4503 2.17828 22.4673 2.18639 22.4798 2.19952C22.4924 2.21266 22.4998 2.22992 22.5006 2.24809L22.5072 2.25049ZM23.9694 2.25049C23.9696 2.26033 23.9679 2.27012 23.9643 2.27928C23.9607 2.28845 23.9553 2.29679 23.9484 2.30384C23.9416 2.31088 23.9333 2.31648 23.9243 2.3203C23.9152 2.32412 23.9054 2.32609 23.8956 2.32609H23.5278C23.5179 2.32617 23.508 2.32427 23.4988 2.32049C23.4896 2.31672 23.4812 2.31116 23.4742 2.30412C23.4671 2.29709 23.4616 2.28872 23.4578 2.27951C23.454 2.27031 23.4521 2.26044 23.4522 2.25049C23.4538 2.23113 23.4623 2.213 23.4762 2.19943C23.4901 2.18587 23.5084 2.17779 23.5278 2.17669H23.8956C23.9131 2.17944 23.9291 2.18797 23.9412 2.20091C23.9533 2.21385 23.9607 2.23046 23.9622 2.24809L23.9694 2.25049ZM25.4256 2.25049C25.4263 2.2606 25.4248 2.27075 25.4213 2.28024C25.4178 2.28974 25.4122 2.29836 25.405 2.30552C25.3979 2.31269 25.3893 2.31824 25.3798 2.32178C25.3703 2.32533 25.3601 2.3268 25.35 2.32609L24.99 2.32609C24.98 2.32673 24.97 2.3252 24.9606 2.32161C24.9512 2.31801 24.9427 2.31243 24.9357 2.30525C24.9287 2.29807 24.9233 2.28946 24.92 2.28001C24.9166 2.27055 24.9153 2.26048 24.9162 2.25049C24.9162 2.23092 24.924 2.21215 24.9378 2.19831C24.9517 2.18447 24.9704 2.17669 24.99 2.17669L25.35 2.17669C25.3681 2.1784 25.3849 2.18655 25.3975 2.19966C25.4101 2.21277 25.4175 2.22996 25.4184 2.24809L25.4256 2.25049ZM26.8878 2.25049C26.8885 2.2606 26.887 2.27075 26.8835 2.28024C26.88 2.28974 26.8744 2.29836 26.8672 2.30552C26.8601 2.31269 26.8514 2.31824 26.842 2.32178C26.8325 2.32533 26.8223 2.3268 26.8122 2.32609H26.4456C26.4357 2.32617 26.4258 2.32427 26.4166 2.32049C26.4074 2.31672 26.399 2.31116 26.392 2.30412C26.3849 2.29709 26.3794 2.28872 26.3756 2.27951C26.3718 2.27031 26.3699 2.26044 26.37 2.25049C26.3717 2.23118 26.3802 2.21311 26.3941 2.19957C26.408 2.18603 26.4263 2.17791 26.4456 2.17669H26.805C26.8243 2.17666 26.843 2.18405 26.857 2.19733C26.8711 2.21061 26.8795 2.22878 26.8806 2.24809L26.8878 2.25049ZM28.35 2.25049C28.3502 2.26033 28.3485 2.27012 28.3449 2.27928C28.3413 2.28845 28.3359 2.29679 28.329 2.30384C28.3222 2.31088 28.3139 2.31648 28.3049 2.3203C28.2958 2.32412 28.286 2.32609 28.2762 2.32609H27.9084C27.8985 2.32617 27.8886 2.32427 27.8794 2.32049C27.8702 2.31672 27.8618 2.31116 27.8548 2.30412C27.8477 2.29709 27.8422 2.28872 27.8384 2.27951C27.8346 2.27031 27.8327 2.26044 27.8328 2.25049C27.8344 2.23113 27.8429 2.213 27.8568 2.19943C27.8707 2.18587 27.889 2.17779 27.9084 2.17669H28.2684C28.2872 2.17789 28.3049 2.18573 28.3184 2.19881C28.332 2.21189 28.3404 2.22936 28.3422 2.24809L28.35 2.25049ZM29.8062 2.25049C29.8069 2.2606 29.8054 2.27075 29.8019 2.28024C29.7983 2.28974 29.7928 2.29836 29.7856 2.30552C29.7785 2.31269 29.7698 2.31824 29.7604 2.32178C29.7509 2.32533 29.7407 2.3268 29.7306 2.32609H29.3706C29.3606 2.32673 29.3506 2.3252 29.3412 2.32161C29.3318 2.31801 29.3233 2.31243 29.3163 2.30525C29.3093 2.29807 29.3039 2.28946 29.3006 2.28001C29.2972 2.27055 29.2959 2.26048 29.2968 2.25049C29.2968 2.2408 29.2987 2.2312 29.3024 2.22225C29.3061 2.2133 29.3116 2.20516 29.3184 2.19831C29.3253 2.19146 29.3334 2.18602 29.3424 2.18231C29.3513 2.1786 29.3609 2.17669 29.3706 2.17669H29.7306C29.7486 2.17841 29.7654 2.18659 29.7779 2.19971C29.7903 2.21283 29.7976 2.23001 29.7984 2.24809L29.8062 2.25049ZM31.0884 2.25049C31.0891 2.2606 31.0876 2.27075 31.0841 2.28024C31.0805 2.28974 31.075 2.29836 31.0678 2.30552C31.0607 2.31269 31.052 2.31824 31.0426 2.32178C31.0331 2.32533 31.0229 2.3268 31.0128 2.32609H30.8256C30.8156 2.32617 30.8058 2.32427 30.7966 2.32049C30.7874 2.31672 30.779 2.31116 30.772 2.30412C30.7649 2.29709 30.7594 2.28872 30.7556 2.27951C30.7518 2.27031 30.7499 2.26044 30.75 2.25049C30.7516 2.23113 30.7601 2.213 30.774 2.19943C30.7879 2.18587 30.8062 2.17779 30.8256 2.17669H31.0056C31.0249 2.17667 31.0434 2.18408 31.0574 2.19737C31.0714 2.21067 31.0797 2.22883 31.0806 2.24809L31.0884 2.25049ZM1.50842 1.47833H0.594027C0.569298 1.47865 0.544754 1.47403 0.52183 1.46476C0.498907 1.45548 0.478062 1.44172 0.46052 1.42429C0.442976 1.40686 0.429087 1.3861 0.419661 1.36324C0.410236 1.34038 0.405462 1.31587 0.405624 1.29114C0.406252 1.24148 0.426342 1.19405 0.461573 1.15905C0.496801 1.12404 0.544361 1.10426 0.594027 1.10395H1.50062L1.50842 1.47833Z" fill="#919191"/>
</svg>
