<svg width="33" height="12" viewBox="0 0 33 12" fill="none" xmlns="http://www.w3.org/2000/svg">
<path fill-rule="evenodd" clip-rule="evenodd" d="M2.96895 6.00539L3.62092 5.88512L3.62096 5.88512L3.62131 5.88505L3.62144 5.88503L3.62204 5.88492L3.62274 5.88479C4.41731 5.73836 5.61688 5.51731 6.29118 5.39041L6.98115 3.8532H6.74118C6.55398 3.8532 6.53838 3.7704 6.59118 3.7032L7.00397 3.2532C7.03627 3.20393 7.08106 3.16412 7.13375 3.13777C7.18645 3.11142 7.24517 3.09949 7.30397 3.1032H7.58178C8.96177 1.9254 12.0596 1.26435e-06 15.1717 1.26435e-06H15.7118C15.7857 -0.000155638 15.859 0.0142923 15.9273 0.0425196C15.9957 0.070747 16.0578 0.112212 16.1101 0.164504C16.1623 0.216797 16.2038 0.27889 16.232 0.347244C16.2603 0.415597 16.2747 0.488843 16.2746 0.562796V9.1422H20.9545C20.8958 9.19589 20.8407 9.25341 20.7896 9.3144C20.7286 9.39014 20.6734 9.47038 20.6246 9.55441C20.594 9.60541 20.5664 9.65809 20.5418 9.71221C20.4978 9.79845 20.4626 9.88892 20.4368 9.98222C20.3887 10.1532 20.3635 10.3297 20.3618 10.5072V10.8522C20.3616 10.9118 20.3379 10.969 20.2957 11.0111C20.2535 11.0533 20.1964 11.077 20.1368 11.0772H19.8368C19.7776 11.0757 19.7212 11.0515 19.6793 11.0096C19.6375 10.9678 19.6133 10.9114 19.6118 10.8522V10.7322H16.274V10.9572C16.2738 10.997 16.2579 11.035 16.2298 11.0631C16.2017 11.0912 16.1637 11.1071 16.124 11.1072H6.42796C6.52461 10.8249 6.55249 10.5236 6.50929 10.2284C6.46609 9.93314 6.35308 9.65245 6.17959 9.40968C6.00611 9.16691 5.77717 8.96904 5.51184 8.83253C5.24651 8.69603 4.95245 8.62482 4.65407 8.62482C4.35568 8.62482 4.06159 8.69603 3.79626 8.83253C3.53093 8.96904 3.30203 9.16691 3.12854 9.40968C2.95506 9.65245 2.84201 9.93314 2.79881 10.2284C2.75561 10.5236 2.78352 10.8249 2.88018 11.1072H1.53798C1.49825 11.1071 1.46017 11.0912 1.43207 11.0631C1.40398 11.035 1.38814 10.997 1.38798 10.9572V10.5522C1.17891 10.4522 1.00642 10.2892 0.894806 10.0861C0.783197 9.88306 0.738063 9.65009 0.765753 9.42001V8.44501C0.763953 7.06261 1.69395 6.24539 2.96895 6.00539ZM7.20678 5.74322L9.97456 5.60039C10.0752 5.59252 10.1693 5.54753 10.2386 5.47412C10.3079 5.40071 10.3475 5.30414 10.3496 5.2032V4.07099C10.3482 4.041 10.3409 4.01159 10.3281 3.98449C10.3152 3.95738 10.297 3.93314 10.2746 3.91319C10.2258 3.87351 10.1646 3.85228 10.1017 3.8532L8.06957 3.87539C7.99609 3.87409 7.92365 3.893 7.86017 3.93003C7.79669 3.96706 7.74458 4.02081 7.70955 4.08541L7.08735 5.5704C7.07774 5.5897 7.0735 5.61122 7.07509 5.63273C7.07667 5.65423 7.08402 5.67492 7.09636 5.69261C7.1087 5.71029 7.12558 5.72431 7.14522 5.73322C7.16486 5.74212 7.18652 5.74559 7.20795 5.74322H7.20678ZM22.2353 11.9994C23.0637 11.9994 23.7353 11.3278 23.7353 10.4994C23.7353 9.67099 23.0637 8.99942 22.2353 8.99942C21.4068 8.99942 20.7353 9.67099 20.7353 10.4994C20.7353 11.3278 21.4068 11.9994 22.2353 11.9994ZM27.7067 10.4994C27.7067 11.3278 27.0352 11.9994 26.2067 11.9994C25.3783 11.9994 24.7068 11.3278 24.7068 10.4994C24.7068 9.67099 25.3783 8.99942 26.2067 8.99942C27.0352 8.99942 27.7067 9.67099 27.7067 10.4994ZM23.5862 9.01246L22.8212 8.71246C22.7798 8.69978 22.745 8.67157 22.724 8.63376C22.7029 8.59595 22.6973 8.55148 22.7084 8.50965L22.7312 8.43465C22.7541 8.39584 22.7909 8.36728 22.8342 8.35478C22.8775 8.34229 22.924 8.3468 22.964 8.36745L24.9212 9.13964C24.6768 9.36837 24.4982 9.65845 24.404 9.97966H24.029C23.9348 9.65845 23.7562 9.36837 23.5118 9.13964L23.5862 9.01246ZM6.15364 10.4994C6.15364 11.3278 5.48207 11.9994 4.65364 11.9994C3.82521 11.9994 3.15364 11.3278 3.15364 10.4994C3.15364 9.67099 3.82521 8.99942 4.65364 8.99942C5.48207 8.99942 6.15364 9.67099 6.15364 10.4994ZM27.4864 9.14063H28.6793C28.719 9.14079 28.757 9.15662 28.7851 9.18472C28.8132 9.21282 28.8291 9.25089 28.8293 9.29063V10.8506C28.8277 10.9098 28.8035 10.9662 28.7617 11.008C28.7198 11.0499 28.6635 11.0741 28.6043 11.0756H28.3043C28.2446 11.0755 28.1875 11.0517 28.1453 11.0095C28.1032 10.9674 28.0794 10.9102 28.0793 10.8506V10.5056C28.0775 10.3281 28.0522 10.1515 28.0043 9.98061C27.9784 9.88732 27.9432 9.7969 27.8992 9.71063C27.8746 9.65653 27.8469 9.60385 27.8164 9.55283C27.7676 9.46879 27.7124 9.38855 27.6514 9.31282C27.6003 9.25183 27.5452 9.19432 27.4864 9.14063ZM2.6143 7.04151C2.23475 7.21142 1.92893 7.5121 1.75263 7.88871C1.63157 7.91646 1.50779 7.93055 1.38359 7.93071C1.46667 7.62369 1.62923 7.344 1.85489 7.11983C2.08055 6.89567 2.36133 6.73496 2.66891 6.65391C2.66789 6.78495 2.64953 6.91528 2.6143 7.04151Z" fill="#919191"/>
</svg>
