<svg width="33" height="12" viewBox="0 0 33 12" fill="none" xmlns="http://www.w3.org/2000/svg">
<path d="M6.14864 10.4983C6.14864 10.2017 6.06066 9.91164 5.89582 9.66497C5.73098 9.41829 5.49669 9.22604 5.22258 9.1125C4.94847 8.99897 4.64684 8.96927 4.35584 9.02715C4.06484 9.08502 3.79755 9.22788 3.58775 9.43766C3.37795 9.64744 3.23508 9.91472 3.17719 10.2057C3.11931 10.4967 3.14902 10.7983 3.26256 11.0723C3.3761 11.3464 3.56838 11.5807 3.81507 11.7455C4.06177 11.9103 4.3518 11.9983 4.6485 11.9983C5.04636 11.9983 5.42793 11.8403 5.70926 11.559C5.99059 11.2777 6.14864 10.8961 6.14864 10.4983ZM20.73 10.4983C20.729 10.2017 20.6401 9.91203 20.4746 9.66591C20.309 9.41979 20.0741 9.22828 19.7997 9.11559C19.5253 9.0029 19.2237 8.97409 18.9329 9.0328C18.6421 9.09152 18.3753 9.23511 18.1661 9.44544C17.9569 9.65577 17.8148 9.92339 17.7577 10.2145C17.7006 10.5055 17.7311 10.807 17.8454 11.0807C17.9596 11.3545 18.1524 11.5882 18.3995 11.7524C18.6466 11.9166 18.9368 12.0038 19.2334 12.0031C19.4296 12.0034 19.624 11.9651 19.8054 11.8903C19.9868 11.8155 20.1517 11.7057 20.2906 11.5672C20.4296 11.4287 20.5399 11.2642 20.6153 11.0831C20.6907 10.9019 20.7296 10.7077 20.73 10.5115V10.4983ZM24.7011 10.4983C24.7002 10.2017 24.6113 9.91203 24.4457 9.66591C24.2801 9.41979 24.0453 9.22828 23.7709 9.11559C23.4965 9.0029 23.1948 8.97409 22.9041 9.0328C22.6133 9.09152 22.3464 9.23511 22.1373 9.44544C21.9281 9.65577 21.786 9.92339 21.7289 10.2145C21.6718 10.5055 21.7023 10.807 21.8165 11.0807C21.9308 11.3545 22.1236 11.5882 22.3707 11.7524C22.6177 11.9166 22.9079 12.0038 23.2046 12.0031C23.4008 12.0034 23.5951 11.9651 23.7765 11.8903C23.9579 11.8155 24.1228 11.7057 24.2618 11.5672C24.4008 11.4287 24.5111 11.2642 24.5865 11.0831C24.6618 10.9019 24.7008 10.7077 24.7011 10.5115V10.4983ZM2.87714 11.1031C2.78154 10.8214 2.75444 10.521 2.79811 10.2267C2.84178 9.93248 2.95496 9.65287 3.12826 9.41107C3.30156 9.16927 3.53 8.97225 3.79464 8.83634C4.05927 8.70042 4.3525 8.62953 4.65 8.62953C4.94751 8.62953 5.24073 8.70042 5.50537 8.83634C5.77001 8.97225 5.99845 9.16927 6.17175 9.41107C6.34505 9.65287 6.45822 9.93248 6.50189 10.2267C6.54556 10.521 6.51847 10.8214 6.42286 11.1031H13.1225C13.1613 11.1031 13.1985 11.0877 13.226 11.0602C13.2535 11.0328 13.2689 10.9956 13.2689 10.9567V10.7293H16.6088V10.8493C16.6103 10.9088 16.6346 10.9655 16.6767 11.0076C16.7188 11.0497 16.7755 11.074 16.835 11.0755H17.135C17.1648 11.0756 17.1943 11.0698 17.2219 11.0585C17.2494 11.0472 17.2745 11.0305 17.2956 11.0095C17.3167 10.9885 17.3335 10.9636 17.345 10.9361C17.3564 10.9086 17.3624 10.8791 17.3624 10.8493V10.5031C17.3629 10.326 17.3878 10.1497 17.4363 9.97932C17.4489 9.93252 17.4633 9.89592 17.4729 9.85032C17.4729 9.84552 17.4825 9.83532 17.4855 9.82692C17.5183 9.72813 17.5652 9.63457 17.6247 9.54912C17.7084 9.39399 17.8192 9.25502 17.9517 9.13872H12.709C12.8581 9.13856 13.001 9.07928 13.1064 8.97388C13.2118 8.86848 13.2711 8.72558 13.2713 8.57652V1.76713C13.2723 1.69399 13.2589 1.62136 13.2318 1.5534C13.2047 1.48545 13.1645 1.4235 13.1135 1.37112C13.0624 1.31873 13.0015 1.27692 12.9343 1.2481C12.867 1.21927 12.7948 1.20399 12.7216 1.20313H11.5455C10.827 1.20225 10.1188 1.37429 9.4808 1.70471C8.84278 2.03512 8.29365 2.51422 7.8798 3.10153H7.76578C7.70726 3.09792 7.6488 3.10964 7.59619 3.13553C7.54357 3.16141 7.49862 3.20057 7.46576 3.24913L7.05232 3.70033C7.00072 3.77413 7.03252 3.85153 7.20473 3.85153H7.45316L6.7967 5.30773C6.61668 5.33593 3.64701 5.88433 2.96475 6.01333C1.68964 6.24313 0.757753 7.06332 0.757753 8.44032V9.41772C0.730501 9.64747 0.775488 9.88 0.886464 10.083C0.99744 10.286 1.16889 10.4494 1.37701 10.5505V10.9549C1.37724 10.9747 1.38137 10.9942 1.38916 11.0124C1.39695 11.0306 1.40824 11.0471 1.42239 11.0609C1.43655 11.0747 1.45328 11.0856 1.47165 11.093C1.49001 11.1003 1.50964 11.104 1.52942 11.1037L2.87714 11.1031ZM2.61012 7.04532C2.23057 7.21524 1.92475 7.51592 1.74844 7.89252C1.62739 7.92028 1.5036 7.93436 1.37941 7.93452C1.46249 7.62751 1.62505 7.34782 1.85071 7.12365C2.07636 6.89949 2.35714 6.73878 2.66473 6.65772C2.66371 6.78877 2.64535 6.9191 2.61012 7.04532ZM10.7379 3.91273C10.761 3.93401 10.7794 3.9599 10.7919 3.98874C10.8044 4.01757 10.8107 4.0487 10.8105 4.08013V5.20693C10.8081 5.3054 10.7698 5.39959 10.7026 5.47168C10.6355 5.54377 10.5443 5.58876 10.4462 5.59813L7.66858 5.75053C7.65187 5.75076 7.63528 5.74771 7.61976 5.74154C7.60423 5.73536 7.59007 5.72619 7.57809 5.71455C7.56611 5.7029 7.55654 5.68901 7.54993 5.67367C7.54332 5.65832 7.5398 5.64183 7.53956 5.62513C7.53894 5.60827 7.54202 5.59147 7.54857 5.57593L8.17082 4.09213C8.20384 4.02538 8.2553 3.9695 8.31912 3.93111C8.38293 3.89272 8.45641 3.87343 8.53085 3.87553L10.568 3.85213C10.6296 3.85325 10.6892 3.8743 10.7379 3.91213M25.6006 11.0749C25.6599 11.0731 25.7163 11.0486 25.7581 11.0066C25.8 10.9645 25.8241 10.908 25.8256 10.8487V9.28872C25.8254 9.26895 25.8212 9.24941 25.8135 9.23123C25.8057 9.21304 25.7944 9.19657 25.7802 9.18276C25.7661 9.16894 25.7493 9.15804 25.731 9.1507C25.7126 9.14335 25.693 9.13969 25.6732 9.13992H24.4791C24.5391 9.19266 24.5947 9.25025 24.6453 9.31212C24.7065 9.38771 24.7616 9.46796 24.8103 9.55212C24.8421 9.60852 24.8703 9.66012 24.8937 9.70932C24.9375 9.79676 24.9729 9.88817 24.9993 9.98232C25.0455 10.1532 25.0707 10.3291 25.0743 10.5061V10.8517C25.0742 10.8813 25.0798 10.9106 25.091 10.9379C25.1022 10.9653 25.1186 10.9902 25.1394 11.0112C25.1602 11.0322 25.1849 11.0489 25.2121 11.0603C25.2394 11.0718 25.2686 11.0778 25.2982 11.0779L25.6006 11.0749ZM21.4002 9.97932C21.4976 9.65939 21.676 9.37004 21.9181 9.13932L19.9631 8.36592C19.9217 8.3473 19.875 8.34452 19.8317 8.35813C19.7885 8.37174 19.7517 8.40078 19.7285 8.43972L19.7051 8.50992C19.6946 8.5526 19.7008 8.59764 19.7223 8.63595C19.7438 8.67426 19.779 8.70299 19.8209 8.71632L20.5757 9.01632L20.5115 9.13632C20.7549 9.36529 20.9323 9.65539 21.0252 9.97632L21.4002 9.97932Z" fill="#919191"/>
</svg>
