<svg width="33" height="12" viewBox="0 0 33 12" fill="none" xmlns="http://www.w3.org/2000/svg">
<path d="M4.86663 10.4999C4.86663 10.2032 4.77865 9.91325 4.61383 9.6666C4.449 9.41995 4.21473 9.22772 3.94064 9.1142C3.66654 9.00068 3.36494 8.97097 3.07396 9.02884C2.78298 9.08671 2.51571 9.22956 2.30592 9.43932C2.09614 9.64907 1.95328 9.91631 1.8954 10.2072C1.83752 10.4982 1.86723 10.7997 1.98076 11.0738C2.09429 11.3479 2.28655 11.5821 2.53323 11.7469C2.77991 11.9117 3.06993 11.9997 3.3666 11.9997C3.76443 11.9997 4.14597 11.8417 4.42728 11.5604C4.70859 11.2791 4.86663 10.8976 4.86663 10.4999ZM17.8701 10.4999C17.8701 10.2032 17.7821 9.91325 17.6173 9.6666C17.4524 9.41995 17.2182 9.22772 16.9441 9.1142C16.67 9.00068 16.3684 8.97097 16.0774 9.02884C15.7864 9.08671 15.5191 9.22956 15.3094 9.43932C15.0996 9.64907 14.9567 9.91631 14.8988 10.2072C14.8409 10.4982 14.8707 10.7997 14.9842 11.0738C15.0977 11.3479 15.29 11.5821 15.5367 11.7469C15.7833 11.9117 16.0734 11.9997 16.37 11.9997H16.3736C16.7708 11.9987 17.1515 11.8403 17.432 11.5591C17.7125 11.278 17.8701 10.897 17.8701 10.4999ZM7.97588 11.0998C7.99495 11.1001 8.0139 11.0967 8.03164 11.0897C8.04937 11.0827 8.06556 11.0722 8.07927 11.059C8.09297 11.0457 8.10393 11.0299 8.11152 11.0124C8.11911 10.9949 8.12317 10.9761 8.12349 10.957V10.7284H11.3845C11.4044 10.7286 11.4241 10.7248 11.4425 10.7174C11.4609 10.7099 11.4777 10.6989 11.4918 10.685C11.506 10.6711 11.5172 10.6545 11.525 10.6362C11.5327 10.6179 11.5368 10.5983 11.5369 10.5785V9.97852H14.5676C14.6607 9.65699 14.8392 9.36672 15.0842 9.13861L13.1264 8.3743C13.0873 8.35295 13.0413 8.34771 12.9984 8.3597C12.9555 8.37169 12.919 8.39996 12.8966 8.43849L12.8732 8.51588C12.8631 8.55806 12.8693 8.6025 12.8905 8.64032C12.9117 8.67814 12.9465 8.70655 12.9878 8.71986L13.7534 9.01622L13.6796 9.13621H8.22129C8.26108 9.13527 8.29893 9.1188 8.32673 9.09032C8.35454 9.06185 8.3701 9.02363 8.37009 8.98383V5.99677C8.37073 5.8877 8.33897 5.7809 8.27883 5.6899C8.21869 5.5989 8.13288 5.52781 8.03228 5.48563V2.08162C8.03181 1.89313 8.10616 1.71214 8.23901 1.5784C8.37187 1.44466 8.55237 1.3691 8.7409 1.36831C8.80064 1.37215 8.86036 1.3606 8.91436 1.33476C8.96836 1.30892 9.01482 1.26965 9.0493 1.22073L9.45431 0.769578C9.50891 0.689787 9.38891 0.617188 9.30671 0.617188H8.7289C8.34416 0.618617 7.97574 0.772729 7.70459 1.04564C7.43344 1.31855 7.28175 1.68794 7.28287 2.07263V5.49223C7.18678 5.53655 7.10538 5.60743 7.04828 5.69652C6.99119 5.7856 6.96079 5.88916 6.96067 5.99497V3.82802C6.96106 3.75459 6.94699 3.68181 6.91925 3.61382C6.89151 3.54583 6.85065 3.48397 6.799 3.43177C6.74735 3.37957 6.68592 3.33805 6.61823 3.30959C6.55053 3.28113 6.47789 3.26628 6.40446 3.26589H6.07565C3.039 3.26589 3.003 3.26588 2.68859 3.89761L0.908959 7.87215C0.826755 8.04915 0.778712 8.24007 0.767357 8.43489C0.759662 8.4853 0.756449 8.53629 0.757757 8.58727V9.41218C0.728016 9.66263 0.784335 9.91575 0.917464 10.13C1.05059 10.3442 1.25262 10.5068 1.49037 10.591C1.47246 10.2129 1.56927 9.83822 1.7681 9.51608C1.96693 9.19394 2.25849 8.9394 2.60454 8.78585C2.9506 8.63231 3.33498 8.58693 3.70729 8.65566C4.07959 8.72439 4.42243 8.90403 4.69083 9.17101C4.94045 9.41636 5.1151 9.72768 5.19436 10.0686C5.27362 10.4095 5.25422 10.7659 5.13843 11.0962L7.97588 11.0998ZM2.53019 7.89975C2.13667 8.036 1.80627 8.31091 1.60077 8.67307C1.47897 8.69084 1.35545 8.69366 1.23296 8.68146C1.33812 8.38159 1.5215 8.11525 1.76412 7.91C2.00674 7.70474 2.2998 7.56803 2.61299 7.51399C2.6021 7.64488 2.57406 7.77377 2.52959 7.89735L2.53019 7.89975ZM6.00125 3.91621C6.02538 3.93426 6.04481 3.95786 6.05786 3.98502C6.07092 4.01217 6.07723 4.04208 6.07625 4.07219V5.20486C6.07479 5.30403 6.03599 5.39901 5.9676 5.47085C5.8992 5.54268 5.80624 5.58609 5.70724 5.59242L2.93459 5.74361C2.90153 5.74474 2.86936 5.73277 2.84508 5.71029C2.82081 5.68782 2.8064 5.65666 2.80499 5.62361C2.80426 5.60572 2.80754 5.58789 2.81459 5.57142L3.4368 4.08719C3.47081 4.02165 3.52265 3.96704 3.58634 3.92968C3.65004 3.89231 3.723 3.87372 3.79681 3.87602L5.82785 3.85502C5.89174 3.8527 5.954 3.87553 6.00125 3.91861M18.7665 11.071C18.8256 11.0692 18.8818 11.0449 18.9236 11.0031C18.9654 10.9613 18.9897 10.9051 18.9915 10.846V9.28259C18.9914 9.26305 18.9875 9.24373 18.9799 9.22571C18.9724 9.20768 18.9613 9.19132 18.9475 9.17756C18.9336 9.1638 18.9171 9.15291 18.8991 9.1455C18.881 9.1381 18.8616 9.13433 18.8421 9.13441H17.6499C17.7086 9.18724 17.7637 9.24396 17.8149 9.30419C17.875 9.38103 17.9309 9.46114 17.9823 9.54416C18.0093 9.59936 18.0423 9.64975 18.0645 9.70135C18.1064 9.78823 18.1401 9.8788 18.1653 9.97191C18.215 10.143 18.2415 10.3199 18.2439 10.4981V10.8436C18.2445 10.9033 18.2686 10.9603 18.3109 11.0024C18.3532 11.0445 18.4104 11.0683 18.4701 11.0686L18.7665 11.071Z" fill="#919191"/>
</svg>
