<svg width="33" height="12" viewBox="0 0 33 12" fill="none" xmlns="http://www.w3.org/2000/svg">
<path d="M7.58258 12C7.62252 12 7.66083 11.9841 7.68907 11.9559C7.71731 11.9276 7.73318 11.8893 7.73318 11.8494V11.775C7.73318 11.7351 7.71731 11.6968 7.68907 11.6685C7.66083 11.6403 7.62252 11.6244 7.58258 11.6244H7.56098V9.3372H8.07158L8.78378 8.16H12.7666L13.8832 9.9972H17.4982L18.616 8.16H21.6238V9.7494H22.0354C22.1813 9.41526 22.4216 9.13096 22.7267 8.93135C23.0318 8.73173 23.3885 8.62547 23.7532 8.6256C24.1574 8.62159 24.5512 8.75343 24.8716 9C25.1362 9.19016 25.3437 9.44912 25.4716 9.7488H26.0116C26.14 9.45167 26.3442 9.19346 26.6038 9C26.9281 8.75623 27.323 8.62461 27.7288 8.625C28.1325 8.62124 28.5258 8.75331 28.8454 9C29.1051 9.19341 29.3095 9.45161 29.4382 9.7488H29.8516V9H30.7882L31.5016 10.1622V10.8438C31.5014 10.8734 31.5071 10.9028 31.5183 10.9303C31.5296 10.9577 31.5461 10.9827 31.567 11.0037C31.5879 11.0247 31.6128 11.0414 31.6402 11.0528C31.6676 11.0641 31.6969 11.07 31.7266 11.07H32.0266C32.0564 11.0706 32.086 11.0651 32.1136 11.0539C32.1413 11.0428 32.1663 11.0261 32.1874 11.005C32.2084 10.9838 32.2249 10.9586 32.236 10.9309C32.247 10.9032 32.2523 10.8736 32.2516 10.8438V8.3106C32.2516 8.29085 32.2478 8.27128 32.2403 8.25301C32.2328 8.23475 32.2218 8.21814 32.2078 8.20415C32.1939 8.19015 32.1773 8.17905 32.1591 8.17148C32.1409 8.1639 32.1213 8.16 32.1016 8.16H29.8516C30.6472 8.16 31.4103 7.84393 31.9729 7.28132C32.5355 6.71871 32.8516 5.95565 32.8516 5.16V3.66C32.8516 2.86435 32.5355 2.10129 31.9729 1.53868C31.4103 0.97607 30.6472 0.66 29.8516 0.66L3.75158 0.66C2.95593 0.66 2.19287 0.97607 1.63026 1.53868C1.06765 2.10129 0.751583 2.86435 0.751583 3.66V5.16C0.751583 5.95565 1.06765 6.71871 1.63026 7.28132C2.19287 7.84393 2.95593 8.16 3.75158 8.16H5.58038L6.30038 9.3378H6.81158V11.6244H6.78218C6.74224 11.6244 6.70393 11.6403 6.67569 11.6685C6.64745 11.6968 6.63158 11.7351 6.63158 11.775V11.8494C6.63158 11.8892 6.64736 11.9275 6.67548 11.9557C6.70359 11.9839 6.74174 11.9998 6.78158 12H7.58258ZM25.2478 10.5C25.2478 10.2033 25.1598 9.91332 24.995 9.66664C24.8301 9.41997 24.5959 9.22771 24.3218 9.11418C24.0477 9.00065 23.7461 8.97094 23.4551 9.02882C23.1642 9.0867 22.8969 9.22956 22.6871 9.43934C22.4773 9.64912 22.3345 9.91639 22.2766 10.2074C22.2187 10.4983 22.2484 10.7999 22.3619 11.074C22.4755 11.3481 22.6677 11.5824 22.9144 11.7472C23.1611 11.912 23.4511 12 23.7478 12C24.1456 12 24.5271 11.842 24.8084 11.5607C25.0897 11.2794 25.2478 10.8978 25.2478 10.5ZM29.2192 10.5C29.2192 10.2034 29.1312 9.91337 28.9664 9.66671C28.8016 9.42005 28.5674 9.22779 28.2933 9.11424C28.0193 9.00069 27.7177 8.97095 27.4268 9.02878C27.1358 9.08661 26.8685 9.22941 26.6587 9.43913C26.4489 9.64885 26.306 9.91606 26.2481 10.207C26.1901 10.4979 26.2197 10.7995 26.3332 11.0736C26.4466 11.3477 26.6388 11.582 26.8854 11.7469C27.132 11.9118 27.4219 11.9999 27.7186 12C27.9156 12.0001 28.1107 11.9613 28.2928 11.886C28.4748 11.8106 28.6403 11.7002 28.7796 11.5609C28.919 11.4216 29.0295 11.2562 29.1049 11.0742C29.1803 10.8921 29.2192 10.697 29.2192 10.5Z" fill="#919191"/>
</svg>
