<svg width="33" height="12" viewBox="0 0 33 12" fill="none" xmlns="http://www.w3.org/2000/svg">
<path d="M5.24632 10.5C5.24632 10.2033 5.15834 9.91331 4.99352 9.66663C4.82869 9.41996 4.59442 9.22771 4.32033 9.11418C4.04623 9.00064 3.74463 8.97093 3.45365 9.02881C3.16268 9.08669 2.8954 9.22956 2.68561 9.43934C2.47583 9.64911 2.33297 9.91638 2.27509 10.2074C2.21721 10.4983 2.24692 10.7999 2.36045 11.074C2.47398 11.3481 2.66624 11.5824 2.91292 11.7472C3.1596 11.912 3.44962 12 3.74629 12C4.14412 12 4.52566 11.842 4.80697 11.5607C5.08828 11.2793 5.24632 10.8978 5.24632 10.5ZM23.1938 10.5C23.1938 10.2033 23.1059 9.91331 22.941 9.66663C22.7762 9.41996 22.5419 9.22771 22.2678 9.11418C21.9937 9.00064 21.6921 8.97093 21.4012 9.02881C21.1102 9.08669 20.8429 9.22956 20.6331 9.43934C20.4233 9.64911 20.2805 9.91638 20.2226 10.2074C20.1647 10.4983 20.1944 10.7999 20.308 11.074C20.4215 11.3481 20.6138 11.5824 20.8604 11.7472C21.1071 11.912 21.3971 12 21.6938 12C22.0916 12 22.4732 11.842 22.7545 11.5607C23.0358 11.2793 23.1938 10.8978 23.1938 10.5ZM27.1641 10.5C27.1641 10.2033 27.0761 9.91331 26.9113 9.66663C26.7465 9.41996 26.5122 9.22771 26.2381 9.11418C25.964 9.00064 25.6624 8.97093 25.3714 9.02881C25.0805 9.08669 24.8132 9.22956 24.6034 9.43934C24.3936 9.64911 24.2508 9.91638 24.1929 10.2074C24.135 10.4983 24.1647 10.7999 24.2782 11.074C24.3918 11.3481 24.584 11.5824 24.8307 11.7472C25.0774 11.912 25.3674 12 25.6641 12C26.0619 12 26.4434 11.842 26.7248 11.5607C27.0061 11.2793 27.1641 10.8978 27.1641 10.5ZM31.1356 10.5C31.1356 10.2033 31.0476 9.91331 30.8828 9.66663C30.7179 9.41996 30.4837 9.22771 30.2096 9.11418C29.9355 9.00064 29.6339 8.97093 29.3429 9.02881C29.0519 9.08669 28.7846 9.22956 28.5749 9.43934C28.3651 9.64911 28.2222 9.91638 28.1643 10.2074C28.1065 10.4983 28.1362 10.7999 28.2497 11.074C28.3632 11.3481 28.5555 11.5824 28.8022 11.7472C29.0489 11.912 29.3389 12 29.6355 12H29.6391C30.0357 11.999 30.4158 11.8411 30.6962 11.5607C30.9767 11.2802 31.1346 10.9002 31.1356 10.5036V10.5ZM14.8153 11.7762L15.2191 11.1H18.3511C18.3915 11.0997 18.4301 11.0835 18.4586 11.055C18.4871 11.0265 18.5032 10.9879 18.5036 10.9476V10.7214H19.0754V10.8414C19.0761 10.9002 19.0996 10.9565 19.1408 10.9984C19.1821 11.0403 19.238 11.0647 19.2968 11.0664H19.5968C19.6561 11.0653 19.7127 11.0413 19.7547 10.9993C19.7966 10.9573 19.8207 10.9007 19.8218 10.8414V10.5C19.8224 10.3228 19.8476 10.1465 19.8968 9.97619C19.9202 9.88108 19.9557 9.78934 20.0024 9.70319C20.0239 9.64829 20.0514 9.59596 20.0846 9.54719C20.1313 9.46252 20.1855 9.38219 20.2466 9.30719C20.2978 9.24473 20.3533 9.18598 20.4128 9.13139H13.1791V0.727763C13.1828 0.667673 13.1708 0.607646 13.1441 0.553648C13.1175 0.49965 13.0772 0.453561 13.0273 0.419962L12.579 0.0173668C12.5064 -0.0468334 12.429 0.0815591 12.429 0.164959V9.13499H12.0822V3.81898C12.0818 3.66991 12.0223 3.5271 11.9168 3.42175C11.8114 3.3164 11.6685 3.25709 11.5194 3.25677H11.199C8.16357 3.25677 8.12517 3.25677 7.81676 3.89217L6.97675 5.76718C5.86793 5.80378 3.50329 5.90638 2.96388 6.00718C1.69366 6.24178 0.75824 7.05719 0.75824 8.43899V9.4116C0.729872 9.64338 0.775165 9.87821 0.887701 10.0828C1.00024 10.2874 1.17431 10.4514 1.38525 10.5516V10.9476C1.38556 10.9877 1.40155 11.0261 1.42981 11.0546C1.45806 11.0831 1.49634 11.0994 1.53645 11.1H1.96546C1.86991 10.8175 1.84301 10.5164 1.887 10.2215C1.93098 9.92653 2.04459 9.64633 2.2184 9.40404C2.39222 9.16176 2.62125 8.96435 2.88653 8.82818C3.1518 8.69201 3.4457 8.62099 3.74389 8.62099C4.04208 8.62099 4.33598 8.69201 4.60126 8.82818C4.86654 8.96435 5.09557 9.16176 5.26938 9.40404C5.4432 9.64633 5.5568 9.92653 5.60079 10.2215C5.64477 10.5164 5.61788 10.8175 5.52232 11.1H10.788L11.199 11.775L14.8153 11.7762ZM2.61887 7.04279C2.23665 7.20976 1.92944 7.51183 1.75606 7.89118C1.63391 7.91654 1.5094 7.92882 1.38465 7.92779C1.46754 7.62084 1.62997 7.3412 1.85553 7.11712C2.08108 6.89304 2.36178 6.73245 2.66927 6.65158C2.67175 6.78375 2.65477 6.91557 2.61887 7.04279ZM11.124 3.90717C11.1469 3.92817 11.1653 3.95364 11.178 3.98202C11.1907 4.0104 11.1975 4.04109 11.1978 4.07218V5.20438C11.1966 5.30429 11.1578 5.40009 11.0892 5.47277C11.0207 5.54546 10.9273 5.58972 10.8276 5.59678L8.05497 5.74318C8.03398 5.74513 8.01285 5.7415 7.99371 5.73268C7.97456 5.72387 7.95808 5.71016 7.94591 5.69295C7.93375 5.67574 7.92633 5.65562 7.92441 5.63463C7.92249 5.61364 7.92613 5.59252 7.93497 5.57338L8.55898 4.08957C8.59177 4.02239 8.64308 3.96598 8.70686 3.92696C8.77064 3.88795 8.84423 3.86797 8.91898 3.86938L10.953 3.84598C11.0151 3.84625 11.0754 3.86738 11.124 3.90597M32.0344 11.0682C32.0935 11.0664 32.1497 11.0421 32.1915 11.0003C32.2333 10.9585 32.2576 10.9023 32.2594 10.8432V9.28319C32.2591 9.24287 32.2429 9.20429 32.2144 9.17577C32.1859 9.14726 32.1473 9.13111 32.107 9.13079H30.9142C30.9747 9.18432 31.0303 9.24316 31.0804 9.30659C31.1413 9.38233 31.1965 9.46256 31.2454 9.54659C31.2736 9.59699 31.3054 9.6522 31.3288 9.7026C31.3726 9.79003 31.4079 9.88145 31.4344 9.9756C31.4831 10.1459 31.508 10.3222 31.5082 10.4994V10.8414C31.5087 10.9011 31.5327 10.9583 31.575 11.0004C31.6174 11.0425 31.6746 11.0662 31.7344 11.0664L32.0344 11.0682ZM23.8664 9.97739C23.9582 9.65554 24.1365 9.36502 24.3819 9.13739H22.9718C23.2171 9.36591 23.3968 9.65595 23.492 9.97739H23.8664ZM27.8367 9.97739C27.9291 9.65581 28.1073 9.36544 28.3521 9.13739H26.9433C27.1881 9.36633 27.3676 9.65623 27.4635 9.97739H27.8367ZM31.8448 8.81879C31.8851 8.81848 31.9237 8.80232 31.9522 8.77381C31.9807 8.7453 31.9969 8.70671 31.9972 8.66639L31.8448 7.25219C31.8398 7.10455 31.7789 6.96432 31.6744 6.85992C31.5699 6.75552 31.4296 6.69477 31.282 6.68998H22.4432L25.3515 3.87777L30.5878 2.93877C30.6664 2.99204 30.752 3.03424 30.8422 3.06417V5.11018H30.6514C30.5021 5.11097 30.3593 5.17081 30.2541 5.2766C30.1488 5.3824 30.0898 5.52555 30.0898 5.67478V6.31138H31.282C31.5303 6.31631 31.767 6.41726 31.9424 6.59303C32.1178 6.76879 32.2183 7.00569 32.2228 7.25398L32.2594 7.60438V5.67778C32.2594 5.52835 32.2002 5.38502 32.0947 5.27918C31.9892 5.17335 31.846 5.11366 31.6966 5.11318H31.591V3.03837C31.8429 2.9374 32.0479 2.74582 32.1657 2.5013C32.2835 2.25678 32.3055 1.97704 32.2274 1.71711C32.1493 1.45719 31.9768 1.2359 31.7437 1.09678C31.5107 0.957656 31.234 0.910771 30.9682 0.965362C30.9316 0.976162 23.7314 2.26497 18.8942 3.13437C18.7953 2.97961 18.6527 2.85766 18.4845 2.78391C18.3163 2.71016 18.13 2.68793 17.9491 2.72004C17.7683 2.75215 17.601 2.83715 17.4685 2.96429C17.336 3.09144 17.2441 3.25503 17.2045 3.43437C16.5601 3.54477 15.9973 3.65217 15.5683 3.72477L15.2239 2.76477H15.5431C15.6073 2.76477 15.6631 2.72817 15.6631 2.69217V1.95117C15.6631 1.91037 15.6091 1.87377 15.5431 1.87377H13.6297C13.5697 1.87377 13.5097 1.91037 13.5097 1.95117V2.69397C13.5097 2.73057 13.5697 2.76657 13.6297 2.76657H14.0191L14.8651 5.11258H14.0731C13.9241 5.1143 13.7818 5.17444 13.6768 5.28004C13.5718 5.38563 13.5124 5.52825 13.5115 5.67718V8.81999L31.8448 8.81879ZM21.3554 6.68938H18.1153V5.67778C18.1166 5.58576 18.0945 5.49492 18.0511 5.41379C18.0076 5.33266 17.9443 5.2639 17.8669 5.21398L24.0218 4.10757L21.3554 6.68938ZM17.1907 3.80937L15.6991 4.07878L15.6475 3.93717L17.1769 3.66537C17.1771 3.71346 17.1815 3.76146 17.1901 3.80878L17.1907 3.80937ZM30.247 1.46937L19.0382 3.47998C19.0293 3.43095 19.014 3.38332 18.9926 3.33837L30.367 1.30316C30.3244 1.35957 30.2884 1.40877 30.247 1.46937Z" fill="#919191"/>
</svg>
