<svg width="33" height="12" viewBox="0 0 33 12" fill="none" xmlns="http://www.w3.org/2000/svg">
<path d="M6.42831 10.6871C6.42831 10.4275 6.35135 10.1738 6.20715 9.95799C6.06295 9.74218 5.85799 9.57399 5.6182 9.47466C5.3784 9.37534 5.11454 9.34935 4.85997 9.39999C4.60541 9.45062 4.37158 9.5756 4.18804 9.75913C4.00451 9.94266 3.87953 10.1765 3.82889 10.4311C3.77826 10.6856 3.80424 10.9495 3.90357 11.1893C4.0029 11.4291 4.1711 11.634 4.38691 11.7782C4.60272 11.9224 4.85644 11.9994 5.11599 11.9994C5.28819 11.9995 5.45872 11.9656 5.61783 11.8998C5.77694 11.8339 5.92151 11.7373 6.04327 11.6156C6.16503 11.4938 6.26161 11.3492 6.32747 11.1901C6.39333 11.031 6.42719 10.8605 6.42711 10.6883L6.42831 10.6871ZM20.64 10.6871C20.639 10.3403 20.5004 10.0082 20.2546 9.76351C20.0089 9.51887 19.6761 9.38175 19.3293 9.38227C18.9826 9.38278 18.6502 9.52089 18.4052 9.76627C18.1602 10.0116 18.0226 10.3442 18.0226 10.691C18.0226 11.0377 18.1602 11.3703 18.4052 11.6157C18.6502 11.8611 18.9826 11.9992 19.3293 11.9997C19.6761 12.0002 20.0089 11.8631 20.2546 11.6185C20.5004 11.3738 20.639 11.0416 20.64 10.6949V10.6871ZM3.43224 10.7279C3.42079 10.3901 3.51145 10.0568 3.69238 9.77139C3.87331 9.48598 4.1361 9.26176 4.44644 9.12801C4.75677 8.99426 5.10022 8.9572 5.43195 9.02166C5.76367 9.08613 6.06825 9.24913 6.3059 9.48938C6.46728 9.65214 6.59439 9.8456 6.67973 10.0583C6.76507 10.2711 6.8069 10.4987 6.80275 10.7279H17.6421C17.6379 10.4989 17.6795 10.2713 17.7645 10.0586C17.8496 9.84593 17.9763 9.65239 18.1372 9.48938C18.3755 9.24959 18.6804 9.08703 19.0124 9.02279C19.3443 8.95856 19.6879 8.99562 19.9985 9.12918C20.3091 9.26273 20.5723 9.48659 20.754 9.7717C20.9357 10.0568 21.0275 10.3899 21.0174 10.7279H23.1332C23.193 10.7279 23.2504 10.7042 23.2928 10.6621C23.3351 10.6199 23.3591 10.5627 23.3594 10.5029V9.36277C23.3598 9.33369 23.3545 9.30481 23.3437 9.2778C23.333 9.25078 23.317 9.22615 23.2967 9.20531C23.2764 9.18447 23.2522 9.16783 23.2255 9.15634C23.1988 9.14485 23.1701 9.13873 23.141 9.13834H23.063C23.063 5.52481 22.9856 3.25781 22.0465 3.25781H9.27617C6.2351 3.25781 6.19789 3.25781 5.89786 3.88967L5.12499 5.60822L2.9558 6.00426C1.67948 6.24428 0.75 7.06275 0.75 8.43988V9.41617C0.75 10.1674 1.07223 10.7291 2.39295 10.7291L3.43224 10.7279ZM2.60357 7.04536C2.22227 7.21465 1.91558 7.51686 1.74069 7.89563C1.62005 7.91711 1.49779 7.92815 1.37526 7.92864C1.45808 7.62323 1.61996 7.34504 1.84456 7.12213C2.06915 6.89922 2.34855 6.73945 2.65457 6.65892C2.65659 6.78954 2.63941 6.91974 2.60357 7.04536ZM9.20416 3.91367C9.24797 3.95484 9.27474 4.01094 9.27917 4.07089V5.20259C9.27694 5.30305 9.23744 5.39909 9.16835 5.47205C9.09927 5.54502 9.00552 5.5897 8.90534 5.59742L6.13729 5.74144C6.1163 5.74338 6.09517 5.73976 6.07602 5.73094C6.05687 5.72212 6.04039 5.70841 6.02822 5.6912C6.01606 5.67398 6.00864 5.65387 6.00672 5.63288C6.0048 5.61189 6.00844 5.59076 6.01728 5.57162L6.63833 4.08349C6.67353 4.01928 6.72578 3.96603 6.7893 3.92961C6.85282 3.89319 6.92517 3.87501 6.99836 3.87707L9.02715 3.85367C9.09052 3.85298 9.15219 3.87418 9.20176 3.91367H9.20416Z" fill="#919191"/>
</svg>
