<svg width="32" height="32" viewBox="0 0 32 32" fill="none" xmlns="http://www.w3.org/2000/svg">
<path d="M18.6473 20.7989L18.6233 20.8129L1.73734 30.6599C1.61968 30.7284 1.52787 30.8337 1.47613 30.9596C1.4244 31.0856 1.41561 31.225 1.45114 31.3564C1.48667 31.4879 1.56454 31.6039 1.67268 31.6866C1.78082 31.7693 1.91321 31.814 2.04934 31.8139H10.1043C11.2007 31.8134 12.2773 31.5221 13.2243 30.9699L16.5873 29.0079C16.9522 28.7947 17.3554 28.6555 17.7741 28.5982C18.1927 28.541 18.6185 28.5668 19.0272 28.6743C19.4358 28.7818 19.8193 28.9687 20.1556 29.2245C20.492 29.4803 20.7746 29.7998 20.9873 30.1649L20.9953 30.1779L21.3453 30.7779C21.5264 31.0914 21.7867 31.3519 22.1002 31.533C22.4137 31.7141 22.7693 31.8096 23.1313 31.8099H30.0883C30.2695 31.8099 30.4475 31.7623 30.6044 31.6717C30.7614 31.5812 30.8917 31.4509 30.9823 31.294C31.0729 31.1371 31.1206 30.9591 31.1206 30.778C31.1206 30.5968 31.0729 30.4188 30.9823 30.2619L26.7713 22.9719C26.3808 22.2955 25.8609 21.7028 25.2411 21.2275C24.6214 20.7522 23.9141 20.4037 23.1597 20.2019C22.4052 20.0001 21.6183 19.9489 20.8441 20.0514C20.0698 20.1538 19.3234 20.4078 18.6473 20.7989Z" fill="url(#paint0_linear_2912_41042)"/>
<path d="M9.89062 25.9073C15.5226 22.6183 18.5396 25.4963 21.3766 30.7363C21.5549 31.0631 21.8181 31.3358 22.1384 31.5255C22.4588 31.7152 22.8243 31.815 23.1966 31.8143H30.0896C30.2708 31.8144 30.4488 31.7667 30.6057 31.6761C30.7626 31.5856 30.893 31.4553 30.9836 31.2984C31.0742 31.1415 31.1219 30.9635 31.1219 30.7824C31.1219 30.6012 31.0742 30.4232 30.9836 30.2663L26.7716 22.9733C25.9832 21.6076 24.6846 20.611 23.1615 20.2027C21.6383 19.7945 20.0154 20.008 18.6496 20.7963L18.6256 20.8103L9.89062 25.9073Z" fill="url(#paint1_linear_2912_41042)"/>
<path d="M14.9259 0.515588L0.966858 24.6916C0.898054 24.8097 0.870325 24.9472 0.88801 25.0827C0.905695 25.2182 0.967795 25.344 1.0646 25.4405C1.1614 25.537 1.28744 25.5986 1.42301 25.6158C1.55858 25.633 1.69603 25.6048 1.81386 25.5356L18.6489 15.7086C20.0062 14.9156 20.9944 13.6174 21.3975 12.0979C21.8006 10.5784 21.5857 8.96113 20.7999 7.59959L16.7129 0.515588C16.6222 0.358815 16.492 0.228643 16.3352 0.138143C16.1783 0.0476424 16.0004 0 15.8194 0C15.6383 0 15.4604 0.0476424 15.3036 0.138143C15.1467 0.228643 15.0165 0.358815 14.9259 0.515588Z" fill="url(#paint2_linear_2912_41042)"/>
<defs>
<linearGradient id="paint0_linear_2912_41042" x1="4.46776" y1="31.7513" x2="8.84881" y2="23.0888" gradientUnits="userSpaceOnUse">
<stop stop-color="white"/>
<stop offset="1" stop-color="white" stop-opacity="0.2"/>
</linearGradient>
<linearGradient id="paint1_linear_2912_41042" x1="18.0329" y1="21.3634" x2="29.1794" y2="30.2213" gradientUnits="userSpaceOnUse">
<stop stop-color="white"/>
<stop offset="1" stop-color="white" stop-opacity="0.5"/>
</linearGradient>
<linearGradient id="paint2_linear_2912_41042" x1="11.2396" y1="0" x2="0.547668" y2="27.0066" gradientUnits="userSpaceOnUse">
<stop stop-color="white"/>
<stop offset="1" stop-color="white" stop-opacity="0.502"/>
</linearGradient>
</defs>
</svg>
