<svg width="10" height="10" viewBox="0 0 10 10" fill="none" xmlns="http://www.w3.org/2000/svg">
<path fill-rule="evenodd" clip-rule="evenodd" d="M6.12388 8.89619C6.33092 9.17752 6.63034 9.37704 6.9697 9.4598L6.67443 6.71705C6.35857 6.86294 6.106 7.11797 5.96318 7.43523L4.59681 7.57672C4.44772 7.34052 4.24516 7.1427 4.00551 6.99925L4.98281 1.13469C4.98984 1.07162 4.97262 1.00824 4.93464 0.957404C4.89665 0.906568 4.84075 0.872078 4.77827 0.860949L3.79251 0.707167C3.76103 0.70132 3.72869 0.701823 3.69739 0.708634C3.6661 0.715444 3.63648 0.728431 3.61027 0.746836C3.58406 0.76524 3.56179 0.788691 3.54476 0.815813C3.52773 0.842935 3.51628 0.87318 3.51109 0.904783L2.84213 4.90317V4.91086L2.51841 6.87469C2.16332 7.0046 1.86144 7.2488 1.66019 7.5689C1.45895 7.88901 1.36973 8.26689 1.40655 8.64321C1.45166 9.03083 1.62622 9.3919 1.90197 9.66802C2.17773 9.94414 2.53857 10.1192 2.92614 10.1648C3.3137 10.2104 3.70532 10.124 4.03766 9.91942C4.37 9.71488 4.62362 9.40421 4.75751 9.03766L6.12388 8.89619ZM11.7968 13.0013L10.8672 13.1143L9.57844 2.454L10.5081 2.34174C10.8777 2.29765 11.2497 2.40178 11.5426 2.63135C11.8356 2.86092 12.0257 3.19722 12.0713 3.56662L13.0224 11.4319C13.0677 11.8025 12.9641 12.1758 12.7345 12.4701C12.5049 12.7645 12.168 12.9558 11.7976 13.0021L11.7968 13.0013ZM9.06097 2.51835L10.3428 13.1802L9.42005 13.2933C9.23658 13.3155 9.05052 13.3012 8.87255 13.2514C8.69459 13.2015 8.52822 13.117 8.38298 13.0027C8.23775 12.8884 8.11651 12.7466 8.02622 12.5853C7.93593 12.424 7.87837 12.2465 7.85684 12.063L6.90645 4.19383C6.88337 4.01073 6.89679 3.82486 6.94594 3.64698C6.99509 3.46909 7.079 3.30271 7.19282 3.15744C7.30663 3.01216 7.44811 2.89088 7.60906 2.80058C7.77002 2.71029 7.94727 2.65279 8.13057 2.63138L9.06097 2.51835Z" fill="currentColor"/>
</svg>
