<svg width="10" height="10" viewBox="0 0 10 10" fill="none" xmlns="http://www.w3.org/2000/svg">
<path d="M5.5625 0.5H7.53125C7.99707 0.5 8.375 0.877754 8.375 1.34375V5H1.625V1.34375C1.625 0.877754 2.00275 0.5 2.46875 0.5H2.75L3.3125 1.625L3.875 0.5H4.4375L5 1.625L5.5625 0.5ZM8.375 5.5625V6.125C8.375 6.74551 7.87051 7.25 7.25 7.25H6.125V8.375C6.125 8.99551 5.62051 9.5 5 9.5C4.37949 9.5 3.875 8.99551 3.875 8.375V7.25H2.75C2.12861 7.25 1.625 6.74551 1.625 6.125V5.5625H8.375ZM5 8.65625C5.15469 8.65625 5.28125 8.52969 5.28125 8.375C5.28125 8.22031 5.15469 8.09375 5 8.09375C4.84531 8.09375 4.71875 8.22031 4.71875 8.375C4.71875 8.52969 4.84531 8.65625 5 8.65625Z" fill="currentColor"/>
</svg>
