<svg width="10" height="10" viewBox="0 0 10 10" fill="none" xmlns="http://www.w3.org/2000/svg">
<g clip-path="url(#clip0_2249_6809)">
<path d="M8.59993 3.50645C8.6861 3.21308 8.69289 2.90212 8.61962 2.60527C8.54636 2.30842 8.39565 2.03632 8.18287 1.81669C7.96609 1.59774 7.69301 1.44292 7.39378 1.36934C7.09454 1.29576 6.78078 1.30628 6.48715 1.39974C6.34498 1.12791 6.13094 0.900282 5.86833 0.741638C5.60572 0.582995 5.30461 0.499416 4.99778 0.500003C4.69 0.500466 4.38812 0.584392 4.12429 0.742838C3.86046 0.901284 3.64457 1.12832 3.49962 1.39974C3.20621 1.30984 2.89384 1.3016 2.5961 1.37591C2.29835 1.45022 2.02651 1.60427 1.80979 1.82149C1.59308 2.03871 1.43969 2.31088 1.36614 2.60873C1.29258 2.90658 1.30164 3.21884 1.39233 3.51193C1.12261 3.65686 0.897209 3.87215 0.740089 4.1349C0.582969 4.39766 0.5 4.69806 0.5 5.00418C0.5 5.31031 0.582969 5.61071 0.740089 5.87347C0.897209 6.13622 1.12261 6.3515 1.39233 6.49643C1.3026 6.78974 1.2945 7.10195 1.36891 7.39951C1.44331 7.69707 1.5974 7.96875 1.81463 8.18535C2.03185 8.40195 2.304 8.55529 2.60184 8.6289C2.89968 8.70251 3.21195 8.6936 3.50511 8.60314C3.66249 8.9031 3.9075 9.14804 4.20754 9.30538C4.60366 9.51366 5.06614 9.55672 5.49392 9.42513C5.92169 9.29354 6.27997 8.99802 6.49044 8.60314C6.78427 8.68969 7.0959 8.69616 7.39306 8.62189C7.69023 8.54762 7.96215 8.3953 8.18067 8.1807C8.39628 7.96291 8.54889 7.69083 8.62232 7.39333C8.69575 7.09583 8.68725 6.78401 8.59774 6.49095C8.86994 6.3481 9.09788 6.13356 9.25691 5.87054C9.41594 5.60752 9.5 5.30604 9.5 4.9987C9.5 4.69136 9.41594 4.38988 9.25691 4.12686C9.09788 3.86384 8.86994 3.6493 8.59774 3.50645M7.25324 4.14834L4.5862 6.79269C4.5653 6.81359 4.54049 6.83017 4.51318 6.84148C4.48588 6.8528 4.45661 6.85862 4.42705 6.85862C4.39749 6.85862 4.36822 6.8528 4.34092 6.84148C4.31361 6.83017 4.2888 6.81359 4.26791 6.79269L2.72585 5.24009C2.70494 5.2192 2.68836 5.1944 2.67704 5.1671C2.66573 5.1398 2.6599 5.11054 2.6599 5.08099C2.6599 5.05144 2.66573 5.02218 2.67704 4.99488C2.68836 4.96758 2.70494 4.94278 2.72585 4.92189L3.25267 4.39522C3.27357 4.37431 3.29838 4.35773 3.32568 4.34642C3.35299 4.33511 3.38226 4.32929 3.41182 4.32929C3.44138 4.32929 3.47064 4.33511 3.49795 4.34642C3.52526 4.35773 3.55007 4.37431 3.57096 4.39522L4.43254 5.26204L6.41362 3.29797C6.43404 3.27724 6.45839 3.26077 6.48524 3.24953C6.51209 3.23829 6.54091 3.2325 6.57002 3.2325C6.59913 3.2325 6.62794 3.23829 6.65479 3.24953C6.68165 3.26077 6.70599 3.27724 6.72642 3.29797L7.25324 3.83013C7.27415 3.85102 7.29073 3.87583 7.30205 3.90313C7.31336 3.93042 7.31919 3.95969 7.31919 3.98924C7.31919 4.01879 7.31336 4.04805 7.30205 4.07535C7.29073 4.10264 7.27415 4.12745 7.25324 4.14834Z" fill="currentColor"/>
</g>
<defs>
<clipPath id="clip0_2249_6809">
<rect width="10" height="10" fill="white"/>
</clipPath>
</defs>
</svg>
