<svg width="10" height="10" viewBox="0 0 10 10" fill="none" xmlns="http://www.w3.org/2000/svg">
<path fill-rule="evenodd" clip-rule="evenodd" d="M6.87512 4.70768C6.67211 4.75202 6.50175 4.57952 6.50175 4.37172C6.50175 4.16392 6.67596 4.00188 6.86915 3.92534C6.99458 3.87565 7.10984 3.80056 7.20709 3.70331C7.39416 3.51624 7.49925 3.26252 7.49925 2.99797C7.49925 2.73342 7.39416 2.4797 7.20709 2.29263C7.10984 2.19538 6.99458 2.12029 6.86915 2.07059C6.67596 1.99406 6.50175 1.83202 6.50175 1.62422C6.50175 1.41642 6.67211 1.24392 6.87512 1.28826C7.19989 1.35919 7.50047 1.52182 7.73919 1.76053C8.06738 2.08872 8.25175 2.53384 8.25175 2.99797C8.25175 3.10426 8.24208 3.20955 8.22323 3.31267C8.51027 3.39299 8.7747 3.54605 8.98919 3.76053C9.31738 4.08872 9.50175 4.53384 9.50175 4.99797C9.50175 5.4621 9.31738 5.90722 8.98919 6.23541C8.7747 6.44989 8.51027 6.60295 8.22323 6.68327C8.24208 6.78639 8.25175 6.89168 8.25175 6.99797C8.25175 7.4621 8.06738 7.90722 7.73919 8.23541C7.50047 8.47412 7.19989 8.63675 6.87512 8.70768C6.67211 8.75202 6.50175 8.57952 6.50175 8.37172C6.50175 8.16392 6.67596 8.00188 6.86915 7.92534C6.99458 7.87565 7.10984 7.80056 7.20709 7.70331C7.39416 7.51624 7.49925 7.26252 7.49925 6.99797C7.49925 6.73342 7.39416 6.4797 7.20709 6.29263C7.10984 6.19538 6.99458 6.12029 6.86915 6.07059C6.67596 5.99406 6.50175 5.83202 6.50175 5.62422C6.50175 5.41642 6.67211 5.24392 6.87512 5.28826C7.19989 5.35919 7.50047 5.52182 7.73919 5.76053C7.81871 5.84005 7.88978 5.92644 7.95184 6.01829C8.00289 5.98009 8.06013 5.94873 8.11915 5.92534C8.24458 5.87565 8.35984 5.80056 8.45709 5.70331C8.64416 5.51624 8.74925 5.26252 8.74925 4.99797C8.74925 4.73342 8.64416 4.4797 8.45709 4.29263C8.35984 4.19538 8.24458 4.12029 8.11915 4.07059C8.06013 4.04721 8.00289 4.01585 7.95184 3.97765C7.88978 4.0695 7.81871 4.15589 7.73919 4.23541C7.50047 4.47412 7.19989 4.63675 6.87512 4.70768ZM2.87675 2.49797C2.66964 2.49797 2.50175 2.66586 2.50175 2.87297C2.50175 3.08008 2.66964 3.24797 2.87675 3.24797H4.37675C4.58386 3.24797 4.75175 3.08008 4.75175 2.87297C4.75175 2.66586 4.58386 2.49797 4.37675 2.49797H2.87675ZM3.50175 4.24797C3.50175 4.52411 3.27789 4.74797 3.00175 4.74797C2.72561 4.74797 2.50175 4.52411 2.50175 4.24797C2.50175 3.97183 2.72561 3.74797 3.00175 3.74797C3.27789 3.74797 3.50175 3.97183 3.50175 4.24797ZM3.50175 5.74797C3.50175 6.02411 3.27789 6.24797 3.00175 6.24797C2.72561 6.24797 2.50175 6.02411 2.50175 5.74797C2.50175 5.47183 2.72561 5.24797 3.00175 5.24797C3.27789 5.24797 3.50175 5.47183 3.50175 5.74797ZM4.25175 4.74797C4.52789 4.74797 4.75175 4.52411 4.75175 4.24797C4.75175 3.97183 4.52789 3.74797 4.25175 3.74797C3.97561 3.74797 3.75175 3.97183 3.75175 4.24797C3.75175 4.52411 3.97561 4.74797 4.25175 4.74797ZM4.75175 5.74797C4.75175 6.02411 4.52789 6.24797 4.25175 6.24797C3.97561 6.24797 3.75175 6.02411 3.75175 5.74797C3.75175 5.47183 3.97561 5.24797 4.25175 5.24797C4.52789 5.24797 4.75175 5.47183 4.75175 5.74797ZM0.598808 4.49838C0.545205 4.29833 0.663924 4.0927 0.863973 4.0391L1.58842 3.84498C1.78847 3.79138 1.99409 3.9101 2.0477 4.11015C2.1013 4.3102 1.98258 4.51582 1.78253 4.56943L1.05809 4.76354C0.858038 4.81714 0.652412 4.69843 0.598808 4.49838ZM5.36397 3.0391C5.16392 3.0927 5.04521 3.29833 5.09881 3.49838C5.15241 3.69843 5.35804 3.81714 5.55809 3.76354L6.28253 3.56943C6.48258 3.51582 6.6013 3.3102 6.5477 3.11015C6.49409 2.9101 6.28847 2.79138 6.08842 2.84498L5.36397 3.0391ZM0.598808 5.53565C0.545205 5.7357 0.663924 5.94133 0.863973 5.99493L1.58842 6.18904C1.78847 6.24265 1.99409 6.12393 2.0477 5.92388C2.1013 5.72383 1.98258 5.5182 1.78253 5.4646L1.05809 5.27048C0.858038 5.21688 0.652412 5.3356 0.598808 5.53565ZM5.36397 6.99493C5.16392 6.94133 5.04521 6.7357 5.09881 6.53565C5.15241 6.3356 5.35804 6.21688 5.55809 6.27048L6.28253 6.4646C6.48258 6.5182 6.6013 6.72383 6.5477 6.92388C6.49409 7.12393 6.28847 7.24265 6.08842 7.18904L5.36397 6.99493ZM2.50175 7.12297C2.50175 6.91586 2.66964 6.74797 2.87675 6.74797H4.37675C4.58386 6.74797 4.75175 6.91586 4.75175 7.12297C4.75175 7.33008 4.58386 7.49797 4.37675 7.49797H2.87675C2.66964 7.49797 2.50175 7.33008 2.50175 7.12297Z" fill="currentColor"/>
</svg>
