<svg width="10" height="10" viewBox="0 0 10 10" fill="none" xmlns="http://www.w3.org/2000/svg">
<path d="M13.2953 6.16437V9.76548C13.3124 9.99765 13.294 10.2311 13.2409 10.4577C13.1784 10.6726 13.0631 10.8685 12.9055 11.0275C12.7479 11.1864 12.5531 11.3034 12.3387 11.3677C12.0599 11.4247 11.7747 11.4431 11.4909 11.4222C11.3733 11.4222 11.2606 11.3754 11.1774 11.2923C11.0943 11.2092 11.0476 11.0964 11.0476 10.9788V9.64493H9.70201V10.2477C9.70103 10.3076 9.69584 10.3674 9.68646 10.4266C9.65549 10.6456 9.54461 10.8454 9.37518 10.9875C9.20574 11.1297 8.98972 11.2042 8.76868 11.1966H5.63424C5.39648 11.1978 5.16347 11.1301 4.96334 11.0018C4.76322 10.8734 4.60453 10.6898 4.50646 10.4733H3.7909C3.57371 10.4602 3.3687 10.3685 3.21413 10.2154C3.05956 10.0623 2.966 9.8581 2.9509 9.64104V8.76993H2.04868C2.04868 9.21326 2.05646 9.64882 2.04868 10.0999C2.04888 10.1808 2.02639 10.2601 1.98377 10.3289C1.94115 10.3976 1.88011 10.453 1.80757 10.4888C1.67094 10.5391 1.52405 10.5552 1.37979 10.5355C1.24121 10.5539 1.10026 10.5406 0.967569 10.4966C0.891224 10.4613 0.826127 10.4055 0.779462 10.3355C0.732797 10.2655 0.706379 10.184 0.703125 10.0999V6.10993C0.705687 5.9971 0.750085 5.88926 0.827699 5.80733C0.905313 5.72541 1.0106 5.67525 1.12312 5.6666C1.29424 5.65882 1.46535 5.65882 1.63646 5.6666C1.74898 5.67525 1.85427 5.72541 1.93188 5.80733C2.0095 5.88926 2.0539 5.9971 2.05646 6.10993V7.43993H2.9509C2.9509 6.82548 2.94313 6.21882 2.9509 5.61215C2.96728 5.39555 3.06125 5.19213 3.21556 5.03925C3.36987 4.88637 3.57416 4.79429 3.7909 4.77993C4.41312 4.77215 5.03535 4.77993 5.64979 4.77993V3.90104H3.84535C3.72658 3.89827 3.61343 3.84986 3.52943 3.76585C3.44542 3.68184 3.397 3.5687 3.39424 3.44993V3.4266C3.39053 3.24998 3.39832 3.07331 3.41757 2.89771H3.40979C3.43965 2.79879 3.5019 2.7128 3.58655 2.65355C3.67119 2.5943 3.7733 2.56524 3.87646 2.57104H8.79124C8.87583 2.57207 8.95847 2.59663 9.0299 2.64196C9.10133 2.68729 9.15873 2.7516 9.19568 2.82771C9.23442 2.932 9.25034 3.0434 9.24235 3.15437C9.24235 3.27104 9.24235 3.38771 9.23457 3.51215C9.2209 3.61992 9.16826 3.71897 9.0866 3.7906C9.00493 3.86224 8.89987 3.90152 8.79124 3.90104H7.00235V4.77993H8.7679C9.0056 4.77273 9.23662 4.85917 9.41119 5.02065C9.58576 5.18214 9.68992 5.40573 9.70124 5.64326V6.55326H11.0468V5.22326C11.0472 5.1345 11.0741 5.04787 11.1239 4.97445C11.1738 4.90102 11.2444 4.84413 11.3268 4.81104C11.4257 4.7854 11.528 4.77491 11.6301 4.77993C11.8383 4.76937 12.0471 4.78241 12.2523 4.81882C12.4496 4.86321 12.6345 4.95122 12.7933 5.07639C12.9521 5.20156 13.0809 5.36071 13.1701 5.54215C13.2582 5.73746 13.3015 5.95022 13.2953 6.16437Z" fill="currentColor"/>
</svg>
