<svg width="10" height="10" viewBox="0 0 10 10" fill="none" xmlns="http://www.w3.org/2000/svg">
<g clip-path="url(#clip0_2249_6821)">
<path d="M9.4674 8.15319L8.18481 3.30371C8.15519 3.18329 8.08599 3.07596 7.98805 2.9985C7.8901 2.92104 7.76892 2.87782 7.64346 2.8756H6.58158C6.64986 2.70657 6.68491 2.52624 6.68485 2.34426C6.6773 1.91464 6.49743 1.50554 6.18475 1.20676C5.87206 0.907985 5.45211 0.743946 5.01708 0.750657H4.99917C4.5604 0.738375 4.13465 0.898712 3.81556 1.1964C3.49648 1.4941 3.31019 1.90477 3.29767 2.33809V2.34426C3.2993 2.52608 3.33429 2.7061 3.40094 2.8756H2.3578C2.23228 2.87738 2.11093 2.92038 2.01291 2.99783C1.91488 3.07527 1.84576 3.18275 1.81645 3.3033L0.532613 8.15319C0.496743 8.27924 0.490365 8.4117 0.513961 8.54055C0.537558 8.6694 0.590512 8.79126 0.668818 8.89692C0.747124 9.00258 0.848732 9.08927 0.965959 9.15044C1.08319 9.21161 1.21296 9.24566 1.34547 9.25H8.65329C8.78591 9.24584 8.91583 9.21193 9.03321 9.15084C9.15059 9.08974 9.25236 9.00307 9.3308 8.89739C9.40925 8.79171 9.46231 8.66978 9.48598 8.54084C9.50964 8.41191 9.50329 8.27934 9.4674 8.15319ZM4.99917 1.81292C5.14534 1.8095 5.2869 1.86355 5.39271 1.9632C5.49853 2.06284 5.55993 2.19991 5.56343 2.34426C5.55972 2.48854 5.49824 2.62548 5.39247 2.72507C5.28671 2.82467 5.14528 2.8788 4.99917 2.8756C4.85172 2.87888 4.70879 2.82518 4.60083 2.72594C4.49287 2.62669 4.42841 2.48974 4.42118 2.34426C4.42841 2.19877 4.49287 2.06182 4.60083 1.96258C4.70879 1.86334 4.85172 1.80964 4.99917 1.81292Z" fill="currentColor"/>
</g>
<defs>
<clipPath id="clip0_2249_6821">
<rect width="10" height="10" fill="white"/>
</clipPath>
</defs>
</svg>
