<svg width="10" height="10" viewBox="0 0 10 10" fill="none" xmlns="http://www.w3.org/2000/svg">
<path d="M9.6202 7.37812L7.3552 2.19312C7.31799 2.10439 7.25564 2.02848 7.17584 1.97474C7.09603 1.92099 7.00225 1.89175 6.90604 1.89062H5.3227L5.36437 2.26563C5.3663 2.28373 5.3644 2.30203 5.35878 2.31935C5.35317 2.33666 5.34397 2.3526 5.33178 2.36612C5.3196 2.37965 5.3047 2.39045 5.28806 2.39783C5.27142 2.40521 5.25341 2.409 5.2352 2.40896H4.76312C4.74492 2.409 4.72691 2.40521 4.71027 2.39783C4.69363 2.39045 4.67873 2.37965 4.66654 2.36612C4.65436 2.3526 4.64516 2.33666 4.63954 2.31935C4.63393 2.30203 4.63202 2.28373 4.63395 2.26563L4.67562 1.89062H3.09229C2.99608 1.89175 2.90229 1.92099 2.82249 1.97474C2.74268 2.02848 2.68033 2.10439 2.64312 2.19312L0.376037 7.37812C0.340231 7.45544 0.32407 7.5404 0.328988 7.62547C0.333906 7.71053 0.359752 7.79306 0.404231 7.86574C0.44871 7.93841 0.510446 7.99898 0.583956 8.04207C0.657467 8.08515 0.740478 8.10941 0.82562 8.11271H4.01687L4.18354 6.52938C4.19023 6.46565 4.2203 6.40667 4.26793 6.36381C4.31556 6.32095 4.37738 6.29725 4.44145 6.29729H5.55645C5.62053 6.29725 5.68235 6.32095 5.72998 6.36381C5.77761 6.40667 5.80767 6.46565 5.81437 6.52938L5.98104 8.11271H9.17062C9.25576 8.10941 9.33877 8.08515 9.41228 8.04207C9.48579 7.99898 9.54753 7.93841 9.59201 7.86574C9.63649 7.79306 9.66233 7.71053 9.66725 7.62547C9.67217 7.5404 9.65601 7.45544 9.6202 7.37812V7.37812ZM4.55187 3.04479C4.55527 3.01293 4.57035 2.98346 4.59421 2.96207C4.61806 2.94068 4.649 2.92888 4.68104 2.92896H5.3177C5.34974 2.92888 5.38068 2.94068 5.40453 2.96207C5.42839 2.98346 5.44347 3.01293 5.44687 3.04479L5.52145 3.75104C5.52431 3.77815 5.52145 3.80556 5.51304 3.83149C5.50463 3.85742 5.49086 3.88129 5.47263 3.90156C5.45441 3.92184 5.43212 3.93805 5.40723 3.94916C5.38233 3.96026 5.35538 3.96602 5.32812 3.96604H4.67104C4.64376 3.96608 4.61677 3.96037 4.59185 3.94929C4.56692 3.9382 4.54461 3.92199 4.52637 3.9017C4.50813 3.88142 4.49437 3.85752 4.48598 3.83156C4.4776 3.8056 4.47478 3.77816 4.4777 3.75104L4.55187 3.04479ZM5.44687 5.78062H4.55104C4.51466 5.78065 4.47869 5.77303 4.44546 5.75824C4.41223 5.74346 4.38249 5.72184 4.35816 5.6948C4.33383 5.66776 4.31547 5.6359 4.30426 5.6013C4.29306 5.5667 4.28926 5.53013 4.29312 5.49396L4.37645 4.71604C4.38315 4.65232 4.41321 4.59333 4.46085 4.55047C4.50848 4.50761 4.57029 4.48392 4.63437 4.48396H5.36604C5.43011 4.48392 5.49193 4.50761 5.53956 4.55047C5.58719 4.59333 5.61726 4.65232 5.62395 4.71604L5.70729 5.49396C5.71098 5.53024 5.70698 5.56689 5.69554 5.60151C5.6841 5.63614 5.66549 5.66796 5.64091 5.6949C5.61633 5.72184 5.58634 5.74329 5.5529 5.75785C5.51947 5.7724 5.48334 5.77974 5.44687 5.77937V5.78062Z" fill="currentColor"/>
</svg>
