<svg width="10" height="10" viewBox="0 0 10 10" fill="none" xmlns="http://www.w3.org/2000/svg">
<g clip-path="url(#clip0_2249_6846)">
<path d="M3.01472 9.48692C2.81023 9.47284 2.61423 9.39628 2.45115 9.26679C2.28807 9.1373 2.16511 8.96061 2.0976 8.75873C2.02989 8.55401 2.02357 8.33263 2.07948 8.12407C2.1354 7.91551 2.25089 7.72969 2.41058 7.59134C2.43129 7.57526 2.44734 7.55352 2.45697 7.52853C2.46659 7.50353 2.4694 7.47624 2.4651 7.44968C2.28335 5.55638 2.1036 3.66309 1.92585 1.76979L1.91712 1.67592C1.88706 1.6749 1.85698 1.67642 1.82715 1.68047C1.54526 1.70664 1.26281 1.72484 0.982006 1.75955C0.88948 1.78354 0.791805 1.77266 0.706212 1.72884C0.620619 1.68502 0.552608 1.61107 0.514177 1.52004L0.5 1.37042C0.512575 1.30072 0.541734 1.23544 0.584797 1.18057C0.627861 1.1257 0.683449 1.083 0.746456 1.05639L1.42312 0.985843C1.55016 0.977309 1.67448 0.971621 1.80153 0.961381C1.98299 0.930487 2.16879 0.975974 2.31814 1.08786C2.46749 1.19974 2.56819 1.36888 2.59815 1.55815C2.6036 1.59202 2.60688 1.62623 2.60796 1.66056C2.78353 3.51517 2.95856 5.36978 3.13304 7.2244L3.14449 7.32964C3.18321 7.33533 3.22028 7.33989 3.25354 7.34842C3.40147 7.37481 3.54188 7.43535 3.66452 7.5256C3.78715 7.61586 3.88892 7.73356 3.96238 7.87011C3.97378 7.89749 3.99411 7.91976 4.01977 7.93299C4.04542 7.94622 4.07473 7.94954 4.10251 7.94236C5.38931 7.80696 6.67721 7.67952 7.96401 7.54128C8.12186 7.51938 8.28239 7.53347 8.43451 7.58258C8.58663 7.63169 8.72673 7.71465 8.84515 7.82573C8.97996 7.94258 9.12124 8.05104 9.26827 8.15057C9.35921 8.21135 9.43418 8.29484 9.48637 8.39349L9.5 8.54368C9.4874 8.61315 9.45829 8.6782 9.41532 8.73287C9.37235 8.78755 9.31691 8.83008 9.25409 8.85658L9.11014 8.8725C9.06256 8.85808 9.01637 8.83903 8.97219 8.81561C8.77426 8.66883 8.57634 8.52263 8.38713 8.36561C8.3439 8.32565 8.29315 8.29556 8.23813 8.27724C8.18311 8.25892 8.12503 8.25278 8.06761 8.25923L4.14558 8.66144C4.12454 8.661 4.10401 8.66828 4.08757 8.682C4.07113 8.69572 4.05982 8.71502 4.05562 8.73654C4.01384 8.8807 3.94298 9.01386 3.84781 9.12709C3.75264 9.24033 3.63535 9.331 3.50382 9.39304C3.4313 9.42661 3.35714 9.44994 3.28571 9.47725L3.06052 9.5C3.04684 9.4943 3.03257 9.49029 3.01799 9.48806M4.14395 7.50715C3.9873 7.29743 3.7746 7.14084 3.53272 7.05715C3.51101 7.05236 3.49152 7.04001 3.47744 7.02212C3.46337 7.00423 3.45555 6.98187 3.45529 6.95873C3.38259 6.15506 3.30752 5.35177 3.2301 4.54886C3.21424 4.47795 3.226 4.40337 3.2628 4.3415C3.29961 4.27964 3.35845 4.23554 3.42639 4.2189H3.42966C3.45331 4.21248 3.47779 4.20998 3.50218 4.21151L5.60905 3.99362L7.69193 3.77971C7.91439 3.75695 8.01581 3.84343 8.03926 4.08009C8.12541 4.99602 8.21174 5.911 8.29825 6.82503C8.308 6.86045 8.31097 6.89752 8.30698 6.93412C8.30299 6.97073 8.29213 7.00616 8.27502 7.03839C8.2579 7.07062 8.23487 7.099 8.20723 7.12194C8.1796 7.14488 8.1479 7.16191 8.11396 7.17206C8.08471 7.18055 8.05423 7.18344 8.02399 7.1806L4.2819 7.56744C4.27284 7.56858 4.26369 7.56858 4.25463 7.56744C4.23334 7.56826 4.2122 7.56349 4.19314 7.55355C4.17408 7.5436 4.15773 7.52882 4.14558 7.51056L4.14395 7.50715ZM7.24809 5.62978H7.21701C6.88386 5.66163 6.55071 5.6969 6.21756 5.73217C6.14735 5.736 6.08145 5.76867 6.03425 5.82303C5.98704 5.8774 5.96238 5.94904 5.96565 6.02232V6.0354C5.97539 6.10656 6.01169 6.17082 6.06663 6.21419C6.12157 6.25756 6.19072 6.27652 6.259 6.26694H6.26499C6.43184 6.24987 6.59815 6.23167 6.76499 6.21403C6.93184 6.1964 7.09215 6.18218 7.25573 6.16341C7.28953 6.16259 7.32284 6.15483 7.35377 6.14058C7.38469 6.12633 7.41263 6.10587 7.43597 6.08035C7.45931 6.05483 7.47761 6.02476 7.48981 5.99187C7.50201 5.95897 7.50789 5.92389 7.50709 5.88863C7.50524 5.81779 7.47697 5.75051 7.42829 5.7011C7.37961 5.65169 7.31437 5.62405 7.24646 5.62408L7.24809 5.62978ZM3.1374 3.61473C3.13203 3.59127 3.12965 3.56717 3.13032 3.54305C3.0627 2.75835 2.98873 1.97497 2.9084 1.19292C2.89164 1.12064 2.89796 1.04463 2.92641 0.976446C2.95485 0.908261 3.00386 0.851632 3.06598 0.815171L6.11941 0.5C6.18763 0.523247 6.24664 0.569259 6.28733 0.63094C6.32802 0.692622 6.34815 0.766553 6.3446 0.841344C6.4173 1.62529 6.49146 2.40866 6.56707 3.19147C6.58364 3.27051 6.56955 3.35319 6.52786 3.42142C6.48617 3.48965 6.42028 3.53788 6.3446 3.55556C6.32149 3.56068 6.29788 3.56297 6.27426 3.56239C5.34297 3.65038 4.41294 3.74691 3.48419 3.85196C3.4632 3.85648 3.44182 3.85877 3.42039 3.85879C3.35433 3.85803 3.29044 3.83403 3.23908 3.79066C3.18772 3.74729 3.15189 3.68711 3.1374 3.61985V3.61473ZM5.57743 2.5469H5.56652C5.32697 2.56397 5.08888 2.58881 4.85224 2.62143C4.7858 2.63092 4.72564 2.66737 4.6848 2.72286C4.64397 2.77835 4.62576 2.84841 4.63413 2.91783C4.64274 2.98818 4.6774 3.05222 4.7307 3.09624C4.784 3.14026 4.8517 3.16076 4.9193 3.15335C5.03544 3.14311 5.15049 3.12832 5.26499 3.11751L5.58724 3.08394H5.60251C5.66907 3.07676 5.73047 3.0433 5.77416 2.99042C5.81785 2.93754 5.84051 2.86924 5.83751 2.79949C5.83512 2.73127 5.80748 2.66668 5.76041 2.61926C5.71334 2.57184 5.65049 2.5453 5.58506 2.5452L5.57743 2.5469Z" fill="currentColor"/>
</g>
<defs>
<clipPath id="clip0_2249_6846">
<rect width="10" height="10" fill="white"/>
</clipPath>
</defs>
</svg>
