<svg width="10" height="10" viewBox="0 0 10 10" fill="none" xmlns="http://www.w3.org/2000/svg">
<path d="M8.86064 6.57279L8.25733 6.23022L8.72146 6.10661C8.79184 6.08784 8.85183 6.04239 8.88831 5.98019C8.9248 5.91799 8.93482 5.84409 8.91619 5.77462L8.84451 5.5121C8.82547 5.44275 8.77935 5.38364 8.71623 5.34769C8.6531 5.31173 8.57811 5.30185 8.50762 5.32021L7.24366 5.65455L6.10275 5.00353L7.24127 4.35605L8.50523 4.69039C8.57579 4.70876 8.65087 4.6989 8.71409 4.66295C8.77731 4.62701 8.82355 4.56789 8.84272 4.4985L8.9144 4.23597C8.93303 4.16651 8.92301 4.09261 8.88652 4.0304C8.85003 3.9682 8.79005 3.92275 8.71967 3.90399L8.25495 3.78038L8.85885 3.4378C8.92195 3.4015 8.96799 3.34216 8.987 3.27263C9.00601 3.20311 8.99645 3.12901 8.9604 3.06638L8.68323 2.59549C8.64651 2.53335 8.58639 2.48799 8.51594 2.46926C8.44549 2.45052 8.37038 2.45992 8.30691 2.49542L7.70301 2.83859L7.82845 2.38064C7.84708 2.31118 7.83705 2.23728 7.80057 2.17507C7.76408 2.11287 7.7041 2.06742 7.63372 2.04866L7.36731 1.97802C7.29682 1.95967 7.22182 1.96955 7.1587 2.0055C7.09557 2.04145 7.04945 2.10056 7.03041 2.16991L6.69112 3.41543L5.57112 4.04997V2.68672L6.52686 1.74493C6.58008 1.69211 6.60994 1.6207 6.60994 1.54627C6.60994 1.47184 6.58008 1.40043 6.52686 1.34761L6.32735 1.14807C6.27375 1.09563 6.20128 1.0662 6.12575 1.0662C6.05022 1.0662 5.97775 1.09563 5.92415 1.14807L5.57112 1.49477V0.781949C5.57097 0.707219 5.54077 0.635595 5.48715 0.582753C5.43352 0.529911 5.36084 0.500156 5.285 0.5H4.71395C4.63822 0.500311 4.56569 0.530135 4.51219 0.58296C4.45869 0.635785 4.42858 0.707321 4.42842 0.781949V1.49241L4.07659 1.14807C4.02289 1.09559 3.95033 1.06614 3.8747 1.06614C3.79906 1.06614 3.7265 1.09559 3.6728 1.14807L3.4697 1.34702C3.44292 1.37294 3.42164 1.40386 3.40712 1.43797C3.3926 1.47207 3.38512 1.50869 3.38512 1.54568C3.38512 1.58267 3.3926 1.61929 3.40712 1.6534C3.42164 1.68751 3.44292 1.71843 3.4697 1.74434L4.42544 2.68613V4.04997L3.30723 3.41367L2.96794 2.16756C2.94877 2.09816 2.90253 2.03905 2.83931 2.00311C2.77609 1.96716 2.70102 1.9573 2.63045 1.97567L2.36404 2.0463C2.29366 2.06507 2.23368 2.11052 2.19719 2.17272C2.1607 2.23492 2.15068 2.30882 2.16931 2.37829L2.29475 2.83623L1.69144 2.49307C1.66003 2.47524 1.62536 2.46369 1.58941 2.45907C1.55346 2.45446 1.51695 2.45686 1.48194 2.46615C1.44694 2.47545 1.41414 2.49144 1.38541 2.51323C1.35669 2.53502 1.3326 2.56217 1.31452 2.59313L1.03736 3.06403C1.0193 3.09502 1.00761 3.12922 1.00297 3.16466C0.998324 3.20011 1.00082 3.23611 1.0103 3.2706C1.01979 3.3051 1.03608 3.33741 1.05825 3.3657C1.08042 3.39398 1.10803 3.41769 1.1395 3.43545L1.74281 3.77802L1.27868 3.90105C1.2435 3.91027 1.2105 3.92624 1.18157 3.94804C1.15265 3.96984 1.12837 3.99704 1.11012 4.02809C1.09187 4.05914 1.08001 4.09343 1.07521 4.12899C1.07041 4.16456 1.07277 4.20071 1.08216 4.23538L1.15384 4.49791C1.17302 4.5673 1.21925 4.62642 1.28247 4.66236C1.34569 4.69831 1.42077 4.70817 1.49133 4.6898L2.75529 4.35546L3.89381 5.00294L2.75529 5.65042L1.49133 5.31668C1.42076 5.29814 1.34561 5.30793 1.28235 5.3439C1.21909 5.37987 1.17288 5.43908 1.15384 5.50857L1.08216 5.7705C1.06352 5.84004 1.07352 5.91402 1.11 5.97632C1.14648 6.03862 1.20647 6.08418 1.27689 6.10307L1.74162 6.2261L1.13771 6.57103C1.07461 6.60733 1.02857 6.66667 1.00956 6.73619C0.990556 6.80572 1.00011 6.87982 1.03617 6.94245L1.31333 7.41334C1.34984 7.4757 1.40992 7.52128 1.48042 7.54014C1.55093 7.559 1.62615 7.5496 1.68965 7.514L2.29355 7.17083L2.16811 7.62819C2.14947 7.69773 2.15948 7.77171 2.19595 7.834C2.23243 7.8963 2.29242 7.94186 2.36284 7.96076L2.62925 8.03139C2.69974 8.04975 2.77474 8.03987 2.83786 8.00392C2.90099 7.96796 2.94711 7.90885 2.96615 7.8395L3.30544 6.59398L4.42663 5.9571V7.32034L3.4709 8.26213C3.44417 8.28814 3.42295 8.31912 3.40846 8.35327C3.39398 8.38742 3.38652 8.42407 3.38652 8.46109C3.38652 8.4981 3.39398 8.53475 3.40846 8.5689C3.42295 8.60305 3.44417 8.63403 3.4709 8.66004L3.6728 8.85899C3.7264 8.91144 3.79886 8.94087 3.8744 8.94087C3.94993 8.94087 4.0224 8.91144 4.076 8.85899L4.42783 8.5123V9.21864C4.42798 9.29321 4.45812 9.36469 4.51163 9.41742C4.56514 9.47015 4.63768 9.49984 4.71335 9.5H5.285C5.36068 9.49984 5.43321 9.47015 5.48672 9.41742C5.54024 9.36469 5.57037 9.29321 5.57053 9.21864V8.51524L5.92236 8.86194C5.97606 8.91442 6.04862 8.94386 6.12426 8.94386C6.19989 8.94386 6.27245 8.91442 6.32615 8.86194L6.52805 8.66298C6.58131 8.61006 6.61119 8.53856 6.61119 8.46403C6.61119 8.3895 6.58131 8.31799 6.52805 8.26508L5.57232 7.32328V5.9571L6.69351 6.59398L7.0328 7.8395C7.05184 7.90885 7.09796 7.96796 7.16109 8.00392C7.22421 8.03987 7.29921 8.04975 7.3697 8.03139L7.63611 7.96076C7.70653 7.94186 7.76652 7.8963 7.803 7.834C7.83947 7.77171 7.84948 7.69773 7.83084 7.62819L7.7054 7.17083L8.3093 7.51341C8.34065 7.5313 8.37528 7.5429 8.4112 7.54755C8.44711 7.5522 8.48361 7.54981 8.51859 7.54051C8.55356 7.53121 8.58632 7.51519 8.61499 7.49336C8.64366 7.47154 8.66766 7.44434 8.68562 7.41334L8.96279 6.94245C8.98105 6.91165 8.9929 6.87758 8.99765 6.84221C9.00239 6.80685 8.99994 6.77091 8.99043 6.7365C8.98092 6.70208 8.96455 6.66988 8.94226 6.64177C8.91998 6.61366 8.89223 6.59021 8.86064 6.57279Z" fill="currentColor"/>
</svg>
