<svg width="10" height="10" viewBox="0 0 10 10" fill="none" xmlns="http://www.w3.org/2000/svg">
<path d="M0.846898 2.86081L4.82316 1.28366C4.93651 1.23878 5.06291 1.23878 5.17627 1.28366L9.1531 2.86081C9.32931 2.93077 9.48035 3.05147 9.58674 3.20735C9.69313 3.36323 9.74999 3.54713 9.75 3.73536V8.397C9.75008 8.44342 9.7409 8.48941 9.723 8.53231C9.7051 8.5752 9.67884 8.61417 9.64571 8.64698C9.61258 8.67978 9.57324 8.70576 9.52995 8.72344C9.48666 8.74112 9.44028 8.75015 9.39346 8.75H8.68154C8.63472 8.75015 8.58834 8.74112 8.54505 8.72344C8.50176 8.70576 8.46242 8.67978 8.42929 8.64698C8.39616 8.61417 8.36989 8.5752 8.352 8.53231C8.3341 8.48941 8.32492 8.44342 8.325 8.397V4.49754C8.32294 4.37325 8.27223 4.25463 8.18359 4.16673C8.09496 4.07883 7.97533 4.02855 7.85 4.0265H2.15C2.02467 4.02855 1.90504 4.07883 1.81641 4.16673C1.72777 4.25463 1.67706 4.37325 1.675 4.49754V8.397C1.675 8.4434 1.66577 8.48935 1.64785 8.53222C1.62992 8.57508 1.60365 8.61402 1.57054 8.64681C1.53742 8.67959 1.49811 8.70558 1.45486 8.72329C1.41161 8.741 1.36526 8.75007 1.31846 8.75H0.606536C0.559742 8.75007 0.513393 8.741 0.470139 8.72329C0.426885 8.70558 0.387577 8.67959 0.354462 8.64681C0.321347 8.61402 0.295075 8.57508 0.277151 8.53222C0.259226 8.48935 0.25 8.4434 0.25 8.397V3.73536C0.250009 3.54713 0.306874 3.36323 0.413263 3.20735C0.519653 3.05147 0.670689 2.93077 0.846898 2.86081ZM2.15 4.49754H7.85V5.6167H2.15V4.49754ZM2.15 6.1008H7.85V7.57295H2.15V6.1008ZM4.2875 7.0724H5.7125C5.77549 7.0724 5.8359 7.04759 5.88044 7.00342C5.92498 6.95925 5.95 6.89934 5.95 6.83688C5.95 6.77441 5.92498 6.71451 5.88044 6.67034C5.8359 6.62617 5.77549 6.60135 5.7125 6.60135H4.2875C4.22451 6.60135 4.1641 6.62617 4.11956 6.67034C4.07502 6.71451 4.05 6.77441 4.05 6.83688C4.05 6.89934 4.07502 6.95925 4.11956 7.00342C4.1641 7.04759 4.22451 7.0724 4.2875 7.0724Z" fill="currentColor"/>
</svg>
