<svg width="10" height="10" viewBox="0 0 10 10" fill="none" xmlns="http://www.w3.org/2000/svg">
<g clip-path="url(#clip0_2249_6843)">
<path d="M5 0.5C4.10999 0.5 3.23996 0.763917 2.49994 1.25838C1.75991 1.75285 1.18314 2.45566 0.842544 3.27793C0.50195 4.10019 0.412835 5.00499 0.586468 5.87791C0.760102 6.75082 1.18869 7.55264 1.81802 8.18198C2.44736 8.81132 3.24918 9.2399 4.12209 9.41353C4.99501 9.58716 5.89981 9.49806 6.72208 9.15746C7.54434 8.81687 8.24715 8.24009 8.74161 7.50007C9.23608 6.76005 9.5 5.89001 9.5 5C9.5 3.80652 9.0259 2.66193 8.18198 1.81802C7.33807 0.974102 6.19348 0.5 5 0.5ZM5 7.68353C4.46925 7.68353 3.95041 7.52615 3.50911 7.23128C3.0678 6.93641 2.72385 6.5173 2.52074 6.02694C2.31763 5.53659 2.26448 4.99702 2.36803 4.47646C2.47157 3.95591 2.72716 3.47775 3.10245 3.10245C3.47775 2.72715 3.95591 2.47157 4.47647 2.36803C4.99702 2.26448 5.53659 2.31763 6.02695 2.52074C6.5173 2.72385 6.93641 3.0678 7.23128 3.50911C7.52615 3.95041 7.68354 4.46924 7.68354 5C7.68209 5.71127 7.39889 6.393 6.89595 6.89594C6.393 7.39889 5.71127 7.68208 5 7.68353ZM3.88159 5C3.8817 4.76136 3.95867 4.5291 4.1011 4.33762L3.42939 3.40964C3.17013 3.65714 2.97677 3.96546 2.86685 4.30662C2.75693 4.64778 2.73393 5.01099 2.79994 5.36329L3.88268 5.01152V5.00165M4.09287 5.64976L3.01067 6.00152C3.1702 6.31981 3.40378 6.59518 3.69178 6.80449C3.97978 7.01381 4.3138 7.15097 4.66579 7.20445V6.06298C4.43499 5.99115 4.23387 5.84609 4.09287 5.64976ZM5 3.88159C5.12019 3.88315 5.23934 3.90409 5.35287 3.94359L6.02293 3.02165C5.70864 2.85238 5.35725 2.76377 5.00028 2.76377C4.6433 2.76377 4.29191 2.85238 3.97762 3.02165L4.64768 3.94359C4.76121 3.90409 4.88036 3.88315 5.00055 3.88159M6.57116 3.40964L5.89671 4.33762C6.03914 4.5291 6.11611 4.76136 6.11622 5V5.00988L7.19896 5.3622C7.26468 5.01006 7.24153 4.64709 7.13163 4.30616C7.02172 3.96522 6.82852 3.65709 6.56951 3.40964H6.57116ZM5.33586 6.06134V7.20281C5.68785 7.14933 6.02187 7.01216 6.30987 6.80285C6.59787 6.59353 6.83144 6.31817 6.99098 5.99988L5.90878 5.64811C5.76778 5.84444 5.56666 5.98951 5.33586 6.06134ZM5.00055 4.55274C4.91209 4.55274 4.82562 4.57898 4.75207 4.62812C4.67852 4.67727 4.62119 4.74711 4.58734 4.82884C4.55349 4.91056 4.54463 5.00049 4.56189 5.08725C4.57914 5.17401 4.62174 5.25371 4.68429 5.31626C4.74684 5.37881 4.82654 5.42141 4.91329 5.43866C5.00005 5.45592 5.08998 5.44706 5.17171 5.41321C5.25343 5.37936 5.32328 5.32203 5.37243 5.24848C5.42158 5.17493 5.44781 5.08846 5.44781 5C5.44766 4.88142 5.40049 4.76774 5.31665 4.6839C5.2328 4.60005 5.11913 4.55289 5.00055 4.55274Z" fill="currentColor"/>
</g>
<defs>
<clipPath id="clip0_2249_6843">
<rect width="10" height="10" fill="white"/>
</clipPath>
</defs>
</svg>
