<svg width="10" height="10" viewBox="0 0 10 10" fill="none" xmlns="http://www.w3.org/2000/svg">
<path d="M7.93847 2.05658C7.76094 1.62249 7.57701 1.18841 7.41113 0.754321C7.3776 0.632738 7.31219 0.522072 7.22154 0.433515C7.13088 0.344958 7.01819 0.281651 6.89486 0.25L3.10574 0.255758C3.0005 0.276432 2.90208 0.32259 2.8193 0.390106C2.73651 0.457622 2.67195 0.544386 2.63137 0.642633C2.44163 1.12393 2.24606 1.61098 2.04409 2.09169C1.9853 2.24269 1.9853 2.4099 2.04409 2.5609C2.24024 3.04795 2.4358 3.5396 2.63719 4.02723C2.68124 4.14331 2.76123 4.24267 2.86576 4.31111C2.97028 4.37955 3.094 4.41359 3.21924 4.40835H3.48582C3.48506 4.434 3.48701 4.45967 3.49164 4.48492C3.51867 4.64825 3.6099 4.79439 3.74543 4.89145C3.88096 4.98852 4.0498 5.02863 4.21512 5.00306C4.27332 4.9973 4.33153 5.00306 4.39322 5.00306C4.39322 5.09114 4.39905 5.16138 4.39322 5.23795C4.39606 5.36052 4.36352 5.48135 4.29939 5.58628C4.23527 5.6912 4.14223 5.77587 4.03119 5.83035C3.89505 5.89462 3.76757 5.97546 3.6517 6.071C3.22789 6.41376 2.95873 6.90872 2.9032 7.44742C2.84766 7.98612 3.01029 8.52462 3.35544 8.94494C3.58744 9.25913 3.90862 9.49804 4.27818 9.63129C4.64774 9.76455 5.04901 9.78616 5.43101 9.69336C5.85184 9.61224 6.23648 9.40294 6.53102 9.09477C6.82557 8.7866 7.01527 8.39501 7.07354 7.97487C7.11989 7.79032 7.10956 7.59629 7.04386 7.41758C6.98636 7.30116 6.89213 7.20641 6.7754 7.14762C6.65867 7.08883 6.52576 7.06919 6.39676 7.09168C6.26775 7.11418 6.14965 7.17757 6.06027 7.27229C5.97089 7.36702 5.9151 7.48793 5.90131 7.61678C5.89485 7.72787 5.87691 7.83803 5.84776 7.94551C5.78532 8.1433 5.65377 8.31267 5.47665 8.42332C5.29952 8.53396 5.08837 8.57866 4.88098 8.54943C4.69546 8.52363 4.52265 8.44137 4.38651 8.31407C4.25037 8.18677 4.15764 8.02073 4.12119 7.83897C4.08473 7.65721 4.10634 7.46873 4.18304 7.29966C4.25973 7.13059 4.3877 6.98932 4.54921 6.89541C4.73109 6.79381 4.90194 6.67401 5.05909 6.5379C5.37665 6.2322 5.56705 5.82002 5.59282 5.38245C5.59864 5.25925 5.60446 5.12971 5.61028 4.995C6.06137 5.03587 6.43504 4.94836 6.51187 4.40259H6.74469C6.88514 4.41611 7.02595 4.38072 7.14283 4.30252C7.25972 4.22432 7.34534 4.10823 7.38494 3.97427C7.56887 3.51715 7.75221 3.05946 7.94196 2.60177C7.98023 2.51588 8 2.42304 8 2.32917C8 2.23531 7.98023 2.14247 7.94196 2.05658M3.63133 3.08882C3.45671 2.57874 3.28734 2.07385 3.11505 1.56377H3.74366C3.88044 1.95698 4.25994 3.08882 4.25994 3.08882H3.63133ZM4.94151 3.08882C4.7669 2.5845 4.60334 2.08018 4.43164 1.56377H5.06025L5.57594 3.08882H4.94151ZM5.71854 3.51715V3.51139H5.72436L5.71854 3.51715ZM6.2581 3.08882C6.08349 2.57874 5.91411 2.07385 5.74241 1.56377H6.37684L6.89253 3.08882H6.2581Z" fill="currentColor"/>
</svg>
