<svg width="10" height="10" viewBox="0 0 10 10" fill="none" xmlns="http://www.w3.org/2000/svg">
<path d="M7.57465 0.500001H2.42536C2.23811 0.499782 2.05267 0.535988 1.87964 0.606546C1.7066 0.677104 1.54939 0.780628 1.41699 0.911189C1.28459 1.04175 1.1796 1.19679 1.10805 1.36741C1.0365 1.53804 0.999785 1.72091 1.00001 1.90556V6.96667C0.999306 7.18535 1.05038 7.40117 1.14916 7.59696C1.24795 7.79275 1.39171 7.9631 1.56902 8.09444V8.93889C1.5688 9.01264 1.58336 9.0857 1.61188 9.15387C1.6404 9.22205 1.6823 9.284 1.73518 9.33614C1.78807 9.38829 1.85088 9.42961 1.92002 9.45773C1.98916 9.48585 2.06325 9.50022 2.13803 9.5H2.71268C2.86341 9.49941 3.0078 9.44011 3.11438 9.335C3.22096 9.2299 3.2811 9.08752 3.28169 8.93889V8.37222H6.71831V8.93889C6.71809 9.01264 6.73265 9.0857 6.76117 9.15387C6.78969 9.22205 6.83159 9.284 6.88447 9.33614C6.93736 9.38829 7.00017 9.42961 7.06931 9.45773C7.13845 9.48585 7.21254 9.50022 7.28732 9.5H7.86197C8.01243 9.49855 8.15631 9.43897 8.2627 9.33405C8.3691 9.22913 8.42952 9.08725 8.43098 8.93889V8.09444C8.60736 7.96224 8.75044 7.79171 8.84913 7.59612C8.94781 7.40053 8.99944 7.18513 9 6.96667V1.90556C9.00022 1.72091 8.96351 1.53804 8.89195 1.36741C8.8204 1.19679 8.71542 1.04175 8.58302 0.911189C8.45062 0.780628 8.2934 0.677104 8.12037 0.606546C7.94734 0.535988 7.76189 0.499782 7.57465 0.500001ZM2.35212 7.23889C2.35212 7.30519 2.32541 7.36878 2.27786 7.41566C2.23032 7.46255 2.16584 7.48889 2.0986 7.48889C2.03136 7.48889 1.96688 7.46255 1.91933 7.41566C1.87179 7.36878 1.84508 7.30519 1.84508 7.23889C1.84433 7.17258 1.87032 7.1087 1.91734 7.0613C1.96435 7.01389 2.02854 6.98685 2.09578 6.98611C2.16302 6.98537 2.2278 7.01101 2.27587 7.05737C2.32395 7.10373 2.35137 7.16703 2.35212 7.23333V7.23889ZM3.16902 7.23889C3.16902 7.30519 3.14231 7.36878 3.09476 7.41566C3.04722 7.46255 2.98274 7.48889 2.9155 7.48889C2.84826 7.48889 2.78378 7.46255 2.73623 7.41566C2.68869 7.36878 2.66198 7.30519 2.66198 7.23889C2.66123 7.17258 2.68722 7.1087 2.73424 7.0613C2.78126 7.01389 2.84544 6.98685 2.91268 6.98611C2.97992 6.98537 3.0447 7.01101 3.09277 7.05737C3.14084 7.10373 3.16827 7.16703 3.16902 7.23333V7.23889ZM4.74648 1.73333C4.74648 1.70387 4.75835 1.6756 4.77948 1.65477C4.80062 1.63393 4.82927 1.62222 4.85916 1.62222H5.14085C5.17073 1.62222 5.19939 1.63393 5.22052 1.65477C5.24165 1.6756 5.25352 1.70387 5.25352 1.73333V5.95333C5.25352 5.9828 5.24165 6.01106 5.22052 6.0319C5.19939 6.05274 5.17073 6.06444 5.14085 6.06444H4.85916C4.82927 6.06444 4.80062 6.05274 4.77948 6.0319C4.75835 6.01106 4.74648 5.9828 4.74648 5.95333V1.73333ZM6.01409 7.48889H3.98592C3.91868 7.48889 3.8542 7.46255 3.80665 7.41566C3.75911 7.36878 3.7324 7.30519 3.7324 7.23889C3.7324 7.17258 3.75911 7.10899 3.80665 7.06211C3.8542 7.01523 3.91868 6.98889 3.98592 6.98889H6.01409C6.08133 6.98889 6.14581 7.01523 6.19335 7.06211C6.2409 7.10899 6.26761 7.17258 6.26761 7.23889C6.26761 7.30519 6.2409 7.36878 6.19335 7.41566C6.14581 7.46255 6.08133 7.48889 6.01409 7.48889ZM7.33803 7.23889C7.33803 7.30519 7.31132 7.36878 7.26377 7.41566C7.21623 7.46255 7.15175 7.48889 7.08451 7.48889C7.01727 7.48889 6.95279 7.46255 6.90524 7.41566C6.8577 7.36878 6.83099 7.30519 6.83099 7.23889C6.83062 7.20606 6.83681 7.17348 6.84921 7.143C6.86161 7.11253 6.87997 7.08477 6.90325 7.0613C6.92653 7.03782 6.95427 7.0191 6.98489 7.0062C7.0155 6.9933 7.0484 6.98647 7.08169 6.98611C7.11498 6.98574 7.14802 6.99185 7.17892 7.00408C7.20982 7.0163 7.23798 7.03441 7.26178 7.05737C7.28559 7.08033 7.30457 7.10768 7.31765 7.13787C7.33074 7.16806 7.33766 7.2005 7.33803 7.23333V7.23889ZM8.15493 7.23889C8.15493 7.30519 8.12822 7.36878 8.08068 7.41566C8.03313 7.46255 7.96865 7.48889 7.90141 7.48889C7.83417 7.48889 7.76969 7.46255 7.72214 7.41566C7.6746 7.36878 7.64789 7.30519 7.64789 7.23889C7.64714 7.17258 7.67313 7.1087 7.72015 7.0613C7.76717 7.01389 7.83135 6.98685 7.89859 6.98611C7.96583 6.98537 8.03061 7.01101 8.07868 7.05737C8.12676 7.10373 8.15418 7.16703 8.15493 7.23333V7.23889Z" fill="currentColor"/>
</svg>
