<svg width="10" height="10" viewBox="0 0 10 10" fill="none" xmlns="http://www.w3.org/2000/svg">
<g clip-path="url(#clip0_2249_6815)">
<path d="M8.65556 4.44024V0.609756C8.65556 0.580647 8.64385 0.55273 8.62302 0.532147C8.60218 0.511564 8.57392 0.5 8.54445 0.5H7.6389C7.60943 0.5 7.58117 0.511564 7.56033 0.532147C7.5395 0.55273 7.52779 0.580647 7.52779 0.609756V1.90488C7.52706 1.69843 7.44371 1.50064 7.29592 1.35465C7.14814 1.20867 6.94791 1.12633 6.73891 1.12561H3.25559C3.04659 1.12633 2.84636 1.20867 2.69858 1.35465C2.55079 1.50064 2.46744 1.69843 2.46671 1.90488V0.609756C2.46671 0.580647 2.455 0.55273 2.43417 0.532147C2.41333 0.511564 2.38507 0.5 2.3556 0.5H1.45005C1.42058 0.5 1.39232 0.511564 1.37148 0.532147C1.35065 0.55273 1.33894 0.580647 1.33894 0.609756V4.44573C1.08958 4.55372 0.877453 4.73111 0.728479 4.95623C0.579505 5.18135 0.500132 5.44446 0.500056 5.71341V6.99756C0.498089 7.21379 0.547893 7.42742 0.645405 7.62102C0.742918 7.81462 0.885377 7.98271 1.06116 8.11158V8.94573C1.06094 9.01858 1.07531 9.09075 1.10343 9.1581C1.13155 9.22544 1.17287 9.28663 1.22502 9.33814C1.27717 9.38965 1.33911 9.43047 1.40728 9.45825C1.47546 9.48603 1.54852 9.50022 1.62227 9.5H2.18893C2.3373 9.49857 2.47918 9.43971 2.5841 9.33607C2.68901 9.23244 2.74859 9.09229 2.75004 8.94573V8.38597H7.25001V8.94573C7.24979 9.01858 7.26416 9.09075 7.29228 9.1581C7.3204 9.22544 7.36172 9.28663 7.41387 9.33814C7.46601 9.38965 7.52796 9.43047 7.59613 9.45825C7.66431 9.48603 7.73737 9.50022 7.81112 9.5H8.37223C8.52086 9.49942 8.66324 9.44084 8.76834 9.33702C8.87345 9.2332 8.93275 9.09255 8.93334 8.94573V8.11158C9.10888 7.98212 9.25148 7.81404 9.34984 7.62067C9.4482 7.4273 9.49961 7.21396 9.5 6.99756V5.71341C9.49961 5.44312 9.41955 5.17878 9.26959 4.95269C9.11964 4.7266 8.90627 4.54853 8.65556 4.44024ZM2.75004 6.1689C2.74931 6.31639 2.68938 6.45757 2.58341 6.56148C2.47745 6.66538 2.33409 6.72353 2.18477 6.72317C2.03546 6.7228 1.89239 6.66396 1.78695 6.55954C1.6815 6.45512 1.62228 6.31365 1.62228 6.16616C1.62228 6.01867 1.6815 5.8772 1.78695 5.77277C1.89239 5.66835 2.03546 5.60951 2.18477 5.60915C2.33409 5.60878 2.47745 5.66693 2.58341 5.77084C2.68938 5.87474 2.74931 6.01592 2.75004 6.16341V6.1689ZM6.00002 7.51341H4.00003C3.93373 7.51341 3.87014 7.48739 3.82326 7.44108C3.77637 7.39477 3.75004 7.33196 3.75004 7.26646C3.75004 7.20097 3.77637 7.13815 3.82326 7.09184C3.87014 7.04553 3.93373 7.01951 4.00003 7.01951H6.00002C6.06633 7.01951 6.12991 7.04553 6.1768 7.09184C6.22368 7.13815 6.25002 7.20097 6.25002 7.26646C6.25002 7.33196 6.22368 7.39477 6.1768 7.44108C6.12991 7.48739 6.06633 7.51341 6.00002 7.51341ZM6.00002 6.41585H4.00003C3.93373 6.41585 3.87014 6.38983 3.82326 6.34352C3.77637 6.29721 3.75004 6.2344 3.75004 6.1689C3.75004 6.1034 3.77637 6.04059 3.82326 5.99428C3.87014 5.94797 3.93373 5.92195 4.00003 5.92195H6.00002C6.06633 5.92195 6.12991 5.94797 6.1768 5.99428C6.22368 6.04059 6.25002 6.1034 6.25002 6.1689C6.25002 6.2344 6.22368 6.29721 6.1768 6.34352C6.12991 6.38983 6.06633 6.41585 6.00002 6.41585ZM2.46671 4.50061L2.78338 3.24939C2.80961 3.13064 2.87636 3.0244 2.97245 2.94847C3.06853 2.87254 3.18811 2.83153 3.31115 2.83232H6.66668C6.79265 2.82993 6.9157 2.86991 7.01564 2.94569C7.11557 3.02148 7.18647 3.12857 7.21668 3.24939L7.52779 4.50061H2.46671ZM7.81112 6.72317C7.69936 6.72371 7.58996 6.69144 7.4968 6.63044C7.40365 6.56944 7.33094 6.48248 7.28792 6.38059C7.2449 6.27869 7.2335 6.16647 7.25517 6.05817C7.27683 5.94986 7.3306 5.85036 7.40962 5.7723C7.48865 5.69423 7.58938 5.64113 7.69902 5.61972C7.80866 5.59832 7.92227 5.60958 8.02542 5.65208C8.12857 5.69458 8.21661 5.76639 8.27836 5.85841C8.3401 5.95043 8.37278 6.0585 8.37223 6.1689C8.37164 6.31572 8.31234 6.45637 8.20724 6.56019C8.10214 6.66401 7.95976 6.72259 7.81112 6.72317Z" fill="currentColor"/>
</g>
<defs>
<clipPath id="clip0_2249_6815">
<rect width="10" height="10" fill="white"/>
</clipPath>
</defs>
</svg>
