<svg width="24" height="24" viewBox="0 0 24 24" fill="none" xmlns="http://www.w3.org/2000/svg">
<path d="M15.1853 12.0016L19.9606 7.2259C20.2421 6.94434 20.4002 6.5625 20.4002 6.16434C20.4002 5.76619 20.2421 5.38435 19.9606 5.10279L18.8991 4.04122C18.6176 3.75971 18.2357 3.60156 17.8376 3.60156C17.4395 3.60156 17.0577 3.75971 16.7762 4.04122L12.0022 8.81689L7.22561 4.04122C6.94408 3.75971 6.56226 3.60156 6.16414 3.60156C5.76602 3.60156 5.3842 3.75971 5.10266 4.04122L4.04119 5.10279C3.7597 5.38435 3.60156 5.76619 3.60156 6.16434C3.60156 6.5625 3.7597 6.94434 4.04119 7.2259L8.81646 12.0016L4.04255 16.7772C3.76106 17.0588 3.60292 17.4406 3.60292 17.8388C3.60292 18.2369 3.76106 18.6188 4.04255 18.9003L5.10402 19.9619C5.38556 20.2434 5.76737 20.4016 6.16549 20.4016C6.56362 20.4016 6.94543 20.2434 7.22697 19.9619L12.0022 15.1862L16.7775 19.9619C17.059 20.2434 17.4409 20.4016 17.839 20.4016C18.2371 20.4016 18.6189 20.2434 18.9005 19.9619L19.9619 18.9003C20.2434 18.6188 20.4016 18.2369 20.4016 17.8388C20.4016 17.4406 20.2434 17.0588 19.9619 16.7772L15.1853 12.0016Z" fill="white"/>
</svg>
