<svg width="18" height="18" viewBox="0 0 18 18" fill="none" xmlns="http://www.w3.org/2000/svg">
<path d="M8.99556 17.0023H1.61556C1.16556 17.0023 1.00176 16.8394 1.00176 16.393V15.2599C0.991933 15.1449 1.02341 15.0302 1.09055 14.9363C1.15768 14.8424 1.25608 14.7756 1.36806 14.7478C1.51476 14.6965 1.66326 14.6506 1.81266 14.6002C2.05491 14.5375 2.2672 14.3912 2.41197 14.1872C2.55675 13.9831 2.62469 13.7344 2.60376 13.4851V2.22156C2.58953 1.96434 2.66232 1.70983 2.81041 1.49904C2.9585 1.28825 3.17326 1.13347 3.42006 1.05966C3.55283 1.0211 3.69042 1.0017 3.82866 1.00206H14.1787C14.4836 0.983831 14.7834 1.08729 15.0121 1.28976C15.2409 1.49222 15.3801 1.77715 15.3991 2.08206C15.4026 2.12909 15.4026 2.17632 15.3991 2.22336V13.4581C15.3711 13.719 15.4403 13.9811 15.5934 14.1943C15.7464 14.4074 15.9727 14.5567 16.2289 14.6137C16.3801 14.6641 16.5349 14.7136 16.6789 14.7712C16.7724 14.8009 16.8537 14.8605 16.9102 14.9408C16.9668 15.0211 16.9955 15.1176 16.9921 15.2158C16.9921 15.6487 16.9984 16.0816 16.9921 16.5154C16.994 16.5824 16.9817 16.6491 16.9559 16.711C16.9302 16.7729 16.8916 16.8287 16.8426 16.8745C16.7937 16.9204 16.7356 16.9553 16.6721 16.977C16.6087 16.9987 16.5413 17.0067 16.4746 17.0005H8.99556M5.26776 5.26986V6.01956C5.26364 6.09222 5.2739 6.16499 5.29797 6.23367C5.32205 6.30236 5.35945 6.36562 5.40804 6.41981C5.45662 6.474 5.51544 6.51805 5.5811 6.54945C5.64676 6.58085 5.71798 6.59896 5.79066 6.60276C5.81223 6.60453 5.8339 6.60453 5.85546 6.60276H7.35396C7.49957 6.60912 7.64179 6.5576 7.74954 6.45946C7.85729 6.36132 7.92183 6.22453 7.92906 6.07896C7.92994 6.06187 7.92994 6.04475 7.92906 6.02766C7.93266 5.52306 7.93266 5.01936 7.92906 4.51656C7.9327 4.44404 7.92201 4.37152 7.8976 4.30314C7.8732 4.23475 7.83555 4.17185 7.78683 4.11802C7.7381 4.0642 7.67924 4.0205 7.61361 3.98943C7.54799 3.95836 7.47688 3.94053 7.40436 3.93696C7.38579 3.93563 7.36714 3.93563 7.34857 3.93696H5.85456C5.78199 3.93245 5.70924 3.94228 5.64047 3.96589C5.5717 3.9895 5.50825 4.02644 5.45376 4.07458C5.39926 4.12272 5.35479 4.18113 5.32288 4.24646C5.29096 4.3118 5.27224 4.38278 5.26776 4.45536C5.26776 4.47696 5.26776 4.49826 5.26776 4.51926V5.26896M11.3824 6.60186H12.1654C12.238 6.60377 12.3104 6.5913 12.3782 6.56516C12.4461 6.53902 12.5081 6.49974 12.5607 6.44955C12.6133 6.39937 12.6555 6.33929 12.6848 6.27275C12.7141 6.20622 12.7299 6.13455 12.7315 6.06186V6.03126C12.7351 5.52666 12.7351 5.02146 12.7315 4.51566C12.735 4.44314 12.7242 4.37065 12.6996 4.30231C12.6751 4.23398 12.6374 4.17114 12.5886 4.1174C12.5398 4.06366 12.4808 4.02006 12.4152 3.9891C12.3495 3.95814 12.2784 3.94042 12.2059 3.93696H10.6444C10.5721 3.93382 10.4999 3.94494 10.4319 3.9697C10.364 3.99447 10.3015 4.03237 10.2482 4.08127C10.1949 4.13016 10.1517 4.18907 10.1212 4.25465C10.0906 4.32023 10.0733 4.39118 10.0702 4.46346C10.0693 4.48085 10.0693 4.49827 10.0702 4.51566C10.0666 5.01426 10.0666 5.51346 10.0702 6.01326C10.061 6.15992 10.1105 6.3042 10.2077 6.4144C10.3049 6.5246 10.4419 6.5917 10.5886 6.60096H11.3851M7.92906 9.53676V8.80326C7.94179 8.65659 7.89576 8.51087 7.80108 8.39813C7.7064 8.28539 7.57083 8.21487 7.42416 8.20206C7.39721 8.19983 7.37012 8.19983 7.34316 8.20206H5.85906C5.78636 8.19666 5.71331 8.20566 5.64409 8.22853C5.57487 8.2514 5.51084 8.2877 5.45566 8.33535C5.40049 8.383 5.35525 8.44107 5.32255 8.50622C5.28984 8.57138 5.27031 8.64234 5.26506 8.71506C5.26328 8.74173 5.26328 8.76849 5.26506 8.79516V10.2766C5.26018 10.3493 5.26971 10.4222 5.2931 10.4913C5.31648 10.5603 5.35328 10.624 5.40136 10.6788C5.44944 10.7336 5.50787 10.7783 5.57329 10.8104C5.63871 10.8426 5.70983 10.8615 5.78256 10.8661C5.80354 10.8674 5.82459 10.8674 5.84556 10.8661H7.34677C7.41948 10.8703 7.49232 10.8602 7.5611 10.8362C7.62989 10.8123 7.69327 10.775 7.74762 10.7265C7.80197 10.678 7.84621 10.6193 7.87781 10.5536C7.90941 10.488 7.92774 10.4168 7.93176 10.3441C7.93353 10.3231 7.93353 10.302 7.93176 10.2811V9.53406M11.3986 8.20206H10.6291C10.4824 8.19867 10.3404 8.25365 10.2343 8.3549C10.1281 8.45616 10.0665 8.59541 10.063 8.74206V8.77356C10.063 9.27846 10.063 9.78336 10.063 10.2847C10.0593 10.3571 10.07 10.4295 10.0944 10.4977C10.1187 10.566 10.1563 10.6288 10.2049 10.6826C10.2536 10.7363 10.3123 10.7799 10.3779 10.811C10.4434 10.842 10.5144 10.8598 10.5868 10.8634H12.1483C12.2948 10.8692 12.4377 10.8167 12.5455 10.7173C12.6533 10.6179 12.7173 10.4798 12.7234 10.3333C12.7242 10.3168 12.7242 10.3002 12.7234 10.2838V8.78436C12.731 8.63904 12.6813 8.49653 12.5848 8.38759C12.4883 8.27865 12.3528 8.21201 12.2077 8.20206H11.3977" fill="white"/>
</svg>
