<svg width="24" height="24" viewBox="0 0 24 24" fill="none" xmlns="http://www.w3.org/2000/svg">
<path fill-rule="evenodd" clip-rule="evenodd" d="M16.5031 5.7H21.0031C21.4805 5.7 21.9383 5.88964 22.2759 6.22721C22.6135 6.56477 22.8031 7.02261 22.8031 7.5V10.2C22.8031 10.6774 22.6135 11.1352 22.2759 11.4728C21.9383 11.8104 21.4805 12 21.0031 12H13.8031V11.55C13.8031 11.4307 13.7557 11.3162 13.6713 11.2318C13.5869 11.1474 13.4725 11.1 13.3531 11.1H10.6531C10.5338 11.1 10.4193 11.1474 10.3349 11.2318C10.2505 11.3162 10.2031 11.4307 10.2031 11.55V12H3.00312C2.52574 12 2.0679 11.8104 1.73033 11.4728C1.39277 11.1352 1.20312 10.6774 1.20312 10.2V7.5C1.20312 7.02261 1.39277 6.56477 1.73033 6.22721C2.0679 5.88964 2.52574 5.7 3.00312 5.7H7.50312V4.8C7.50312 4.32261 7.69277 3.86477 8.03033 3.52721C8.3679 3.18964 8.82574 3 9.30312 3H14.7031C15.1805 3 15.6384 3.18964 15.9759 3.52721C16.3135 3.86477 16.5031 4.32261 16.5031 4.8V5.7ZM9.30312 5.7H14.7031V4.8H9.30312V5.7ZM22.3114 12.4414C22.3947 12.4336 22.4786 12.4491 22.5535 12.4863C22.6287 12.5237 22.692 12.5814 22.7361 12.6528C22.7802 12.7243 22.8034 12.8067 22.8031 12.8907V19.2015C22.8031 19.6789 22.6135 20.1367 22.2759 20.4743C21.9384 20.8118 21.4805 21.0015 21.0031 21.0015H3.00313C2.52574 21.0015 2.0679 20.8118 1.73033 20.4743C1.39277 20.1367 1.20312 19.6789 1.20312 19.2015V12.8907C1.20312 12.8071 1.2264 12.7252 1.27033 12.6541C1.31427 12.583 1.37713 12.5256 1.45188 12.4882C1.52663 12.4508 1.6103 12.435 1.69354 12.4425C1.77677 12.45 1.85627 12.4805 1.92313 12.5307C2.23269 12.7693 2.61228 12.8992 3.00313 12.9003H10.2031V14.2503C10.2031 14.3696 10.2505 14.4841 10.3349 14.5685C10.4193 14.6529 10.5338 14.7003 10.6531 14.7003H13.3519C13.4713 14.7003 13.5857 14.6529 13.6701 14.5685C13.7545 14.4841 13.8019 14.3696 13.8019 14.2503V12.9003H21.0019C21.3928 12.8992 21.7724 12.7693 22.0819 12.5307C22.1486 12.4802 22.2281 12.4493 22.3114 12.4414Z" fill="white"/>
</svg>
