<svg width="24" height="24" viewBox="0 0 24 24" fill="none" xmlns="http://www.w3.org/2000/svg">
<path d="M19.1579 2.08717H10.9259L10.8959 2.02357C10.8203 1.82336 10.6861 1.65062 10.5108 1.52794C10.3354 1.40526 10.1271 1.33835 9.91314 1.33597H5.03634C4.58935 1.3334 4.15954 1.50794 3.84089 1.82142C3.52224 2.1349 3.34069 2.5618 3.33594 3.00877V20.9968C3.34069 21.4438 3.5222 21.8709 3.84081 22.1845C4.15943 22.4982 4.58924 22.673 5.03634 22.6708H17.7095C17.8076 22.6707 17.9042 22.6466 17.9908 22.6006C18.0774 22.5546 18.1514 22.488 18.2063 22.4068C18.2614 22.3253 18.2963 22.2318 18.308 22.1341C18.3196 22.0364 18.3078 21.9374 18.2735 21.8452H19.1579C19.3578 21.8438 19.5553 21.803 19.7394 21.7252C19.9235 21.6474 20.0904 21.5342 20.2307 21.3919C20.371 21.2496 20.4819 21.081 20.5571 20.8959C20.6322 20.7107 20.6702 20.5126 20.6687 20.3128V3.65197C20.6787 3.24907 20.5286 2.85864 20.2513 2.56623C19.9739 2.27382 19.592 2.10327 19.1891 2.09197H19.1579M18.9587 20.0452H17.6159L16.8623 18.0304C17.0903 17.9927 17.2941 17.8662 17.429 17.6786C17.5639 17.4911 17.6191 17.2577 17.5823 17.0296C17.5537 16.8184 17.4478 16.6254 17.2851 16.4878C17.1224 16.3501 16.9145 16.2777 16.7015 16.2844H16.2095L15.5939 14.632H16.8515C17.0822 14.62 17.2995 14.52 17.4585 14.3526C17.6176 14.1851 17.7062 13.9629 17.7062 13.732C17.7062 13.501 17.6176 13.2789 17.4585 13.1114C17.2995 12.9439 17.0822 12.8439 16.8515 12.832H14.9315L14.3135 11.176H16.8467C17.0747 11.1821 17.2959 11.0979 17.4622 10.9418C17.6284 10.7857 17.7263 10.5702 17.7346 10.3423C17.7428 10.1144 17.6607 9.8924 17.5061 9.72469C17.3515 9.55699 17.137 9.4571 16.9091 9.44676H13.6559L13.0355 7.80037H16.8491C17.0798 7.78845 17.2971 7.68843 17.4561 7.52095C17.6152 7.35348 17.7038 7.13133 17.7038 6.90037C17.7038 6.6694 17.6152 6.44725 17.4561 6.27978C17.2971 6.1123 17.0798 6.01228 16.8491 6.00037H12.3779L11.5847 3.89077H18.9587V20.0404V20.0452Z" fill="white"/>
</svg>
