<svg width="24" height="24" viewBox="0 0 24 24" fill="none" xmlns="http://www.w3.org/2000/svg">
<path d="M12.0016 0.601563C9.74686 0.601563 7.54279 1.27016 5.66807 2.52281C3.79335 3.77546 2.33218 5.55589 1.46934 7.63897C0.606502 9.72205 0.380744 12.0142 0.820615 14.2256C1.26049 16.437 2.34623 18.4683 3.94055 20.0626C5.53487 21.6569 7.56615 22.7426 9.77754 23.1825C11.9889 23.6224 14.2811 23.3966 16.3642 22.5338C18.4472 21.6709 20.2277 20.2098 21.4803 18.3351C22.733 16.4603 23.4016 14.2563 23.4016 12.0016C23.4017 10.5044 23.107 9.02195 22.5341 7.63876C21.9613 6.25557 21.1216 4.99878 20.063 3.94015C19.0044 2.88153 17.7476 2.04182 16.3644 1.46898C14.9812 0.896138 13.4987 0.601387 12.0016 0.601563ZM12.0016 3.54423C13.9879 3.54748 15.9098 4.24911 17.4311 5.52636C18.9523 6.8036 19.9759 8.5751 20.3229 10.5309H16.0069C15.75 10.086 15.3808 9.71636 14.9363 9.45897C14.4917 9.20158 13.9873 9.06546 13.4736 9.06423H10.5322C10.0185 9.06546 9.51413 9.20158 9.06954 9.45897C8.62495 9.71636 8.25576 10.086 7.9989 10.5309H3.68023C4.02694 8.57499 5.05053 6.80333 6.57182 5.52605C8.0931 4.24876 10.0152 3.54722 12.0016 3.54423ZM3.68023 13.4722H8.3349L10.5349 16.4149V20.3242C8.8295 20.0199 7.25842 19.1999 6.03347 17.975C4.80852 16.75 3.9886 15.179 3.68423 13.4736M13.4762 20.3242V16.4149L15.6682 13.4722H20.3162C20.0119 15.1776 19.1919 16.7487 17.967 17.9737C16.742 19.1986 15.171 20.0185 13.4656 20.3229" fill="white"/>
</svg>
