<svg width="14" height="14" viewBox="0 0 14 14" fill="none" xmlns="http://www.w3.org/2000/svg">
<path fill-rule="evenodd" clip-rule="evenodd" d="M11.4171 1.12214L12.8785 2.58591C13.0957 2.80605 13.2169 3.10319 13.2158 3.41242C13.2146 3.72166 13.0911 4.01787 12.8723 4.23637H12.8785L11.8184 5.29648C11.7634 5.35143 11.6889 5.38229 11.6111 5.38229C11.5334 5.38229 11.4588 5.35143 11.4039 5.29648L8.70419 2.59681C8.64924 2.54182 8.61836 2.46726 8.61836 2.38952C8.61836 2.31179 8.64924 2.23725 8.70419 2.18226L9.76428 1.12214C9.9839 0.903807 10.281 0.78125 10.5907 0.78125C10.9003 0.78125 11.1974 0.903807 11.4171 1.12214ZM8.04343 3.25447L10.7431 5.95414C10.797 6.00934 10.827 6.08357 10.8266 6.16074C10.8261 6.23791 10.7953 6.31178 10.7407 6.36636L4.20039 12.9075L1.4214 13.2186C1.34535 13.2271 1.26839 13.2206 1.19486 13.1994C1.12133 13.1782 1.05272 13.1427 0.992915 13.0949C0.93311 13.0472 0.883297 12.9881 0.846322 12.9212C0.809348 12.8542 0.785905 12.7805 0.777393 12.7045C0.772119 12.6614 0.772119 12.6177 0.777393 12.5746L1.08852 9.79558L7.62961 3.25447C7.68457 3.19975 7.75895 3.16904 7.8365 3.16904C7.91404 3.16904 7.98847 3.19975 8.04343 3.25447Z" fill="white"/>
</svg>
