<svg width="24" height="24" viewBox="0 0 24 24" fill="none" xmlns="http://www.w3.org/2000/svg">
<path d="M12.0099 23.3999H11.9879C8.96261 23.3986 6.06173 22.1955 3.92344 20.0554C1.78515 17.9152 0.584613 15.0133 0.585939 11.9879C0.587265 8.96261 1.79034 6.06173 3.93051 3.92344C6.07067 1.78515 8.97261 0.584613 11.9979 0.585939C15.0191 0.593332 17.9145 1.79677 20.0508 3.93309C22.1871 6.0694 23.3905 8.96474 23.3979 11.9859V11.9999C23.3924 15.0196 22.1912 17.9142 20.0571 20.0506C17.923 22.187 15.0296 23.3912 12.0099 23.3999ZM11.9879 3.33494C10.8499 3.33566 9.72315 3.56053 8.67202 3.9967C7.62089 4.43288 6.66596 5.07182 5.86176 5.87704C5.05756 6.68226 4.41983 7.638 3.98499 8.68968C3.55015 9.74137 3.32672 10.8684 3.32744 12.0064C3.32816 13.1445 3.55303 14.2712 3.9892 15.3224C4.42538 16.3735 5.06432 17.3284 5.86954 18.1326C6.67476 18.9368 7.6305 19.5745 8.68219 20.0094C9.73387 20.4442 10.8609 20.6677 11.9989 20.6669H12.0139C14.3123 20.6635 16.5152 19.7472 18.1379 18.1195C19.7607 16.4919 20.6704 14.2863 20.6669 11.9879C20.6635 9.68957 19.7472 7.48671 18.1195 5.86396C16.4919 4.24121 14.2863 3.33149 11.9879 3.33494ZM12.0139 19.8349H11.9719C9.92385 19.7866 7.97602 18.9385 6.54533 17.4722C5.11464 16.0059 4.31475 14.0378 4.31684 11.9891C4.31893 9.94045 5.12284 7.97399 6.55652 6.51058C7.9902 5.04717 9.93975 4.20307 11.9879 4.15894H12.0069C14.0862 4.15801 16.0807 4.98312 17.5517 6.45275C19.0226 7.92238 19.8495 9.91614 19.8504 11.9954C19.8514 14.0747 19.0263 16.0692 17.5566 17.5402C16.087 19.0111 14.0932 19.838 12.0139 19.8389V19.8349ZM15.1139 14.5509C14.7452 14.5509 14.3863 14.6701 14.0909 14.8909C13.8725 15.0497 13.6943 15.2574 13.5705 15.4974C13.4467 15.7373 13.3808 16.0029 13.3779 16.2729C13.373 16.6491 13.4929 17.0163 13.7189 17.3169C13.8824 17.5353 14.0947 17.7123 14.3388 17.8339C14.583 17.9554 14.8522 18.0181 15.1249 18.0169C15.4444 18.0155 15.7572 17.9259 16.0289 17.7579C16.3006 17.59 16.5206 17.3502 16.6647 17.0652C16.8088 16.7801 16.8713 16.4607 16.8454 16.1424C16.8195 15.824 16.7062 15.519 16.5179 15.2609C16.3552 15.0426 16.1439 14.8651 15.9008 14.7426C15.6576 14.62 15.3892 14.5558 15.1169 14.5549L15.1139 14.5509ZM8.88794 14.5759C8.61992 14.5761 8.3556 14.6386 8.1159 14.7585C7.87621 14.8784 7.66772 15.0525 7.50694 15.2669C7.28695 15.5626 7.17029 15.9224 7.17494 16.2909C7.17769 16.5579 7.24148 16.8207 7.36142 17.0592C7.48136 17.2977 7.65428 17.5056 7.86694 17.6669C8.15896 17.8827 8.51285 17.9985 8.87594 17.9969C9.14515 17.9971 9.41073 17.9348 9.65176 17.8149C9.8928 17.695 10.1027 17.5208 10.2649 17.3059C10.4759 17.0179 10.5913 16.671 10.5949 16.3139C10.5977 16.0405 10.5357 15.7703 10.414 15.5254C10.2924 15.2805 10.1145 15.0679 9.89494 14.9049C9.60364 14.6893 9.25034 14.5739 8.88794 14.5759ZM11.9879 9.32594C11.6369 9.3264 11.2894 9.39599 10.9653 9.53075C10.6412 9.6655 10.3468 9.86278 10.0989 10.1113C9.59824 10.6133 9.31751 11.2935 9.31844 12.0024C9.31937 12.7114 9.60188 13.3909 10.1038 13.8915C10.6058 14.3921 11.286 14.6729 11.9949 14.6719H12.0019C12.7109 14.6701 13.39 14.3867 13.89 13.8841C14.39 13.3815 14.6698 12.7009 14.6679 11.9919C14.6661 11.283 14.3827 10.6039 13.8801 10.1039C13.3775 9.60392 12.6969 9.32408 11.9879 9.32594ZM17.0429 8.63594C16.8616 8.63596 16.6813 8.66464 16.5089 8.72094C16.1606 8.83813 15.8579 9.06204 15.644 9.3609C15.43 9.65975 15.3156 10.0184 15.3169 10.3859C15.3224 10.655 15.3909 10.9191 15.5169 11.1569C15.6429 11.3947 15.823 11.5996 16.0426 11.7552C16.2622 11.9108 16.5152 12.0127 16.7813 12.0528C17.0474 12.0929 17.3193 12.07 17.5749 11.9859C17.7889 11.9184 17.9874 11.8091 18.1589 11.6644C18.3305 11.5198 18.4717 11.3426 18.5744 11.1431C18.6771 10.9436 18.7393 10.7257 18.7575 10.5021C18.7756 10.2784 18.7492 10.0534 18.6799 9.83994V9.82594C18.5682 9.47903 18.349 9.17669 18.0539 8.96274C17.7589 8.74879 17.4034 8.63433 17.0389 8.63594H17.0429ZM6.94594 8.64894C6.58366 8.64949 6.23094 8.76515 5.93868 8.97922C5.64642 9.1933 5.42974 9.49471 5.31994 9.83994C5.19086 10.2712 5.23396 10.7358 5.44021 11.136C5.64645 11.5361 5.99977 11.8408 6.42594 11.9859C6.59654 12.0427 6.77514 12.0717 6.95494 12.0719C7.40899 12.0707 7.84397 11.8892 8.16419 11.5673C8.48441 11.2454 8.66363 10.8095 8.66244 10.3554C8.66125 9.90139 8.47973 9.46641 8.15782 9.14619C7.83592 8.82597 7.39999 8.64675 6.94594 8.64794V8.64894ZM11.9979 4.94894C11.6552 4.94914 11.3202 5.05097 11.0353 5.24156C10.7504 5.43215 10.5285 5.70293 10.3975 6.01967C10.2665 6.33641 10.2324 6.68488 10.2994 7.02101C10.3665 7.35714 10.5317 7.66584 10.7742 7.90806C11.0167 8.15029 11.3256 8.31516 11.6618 8.38183C11.998 8.44851 12.3465 8.41399 12.6631 8.28264C12.9796 8.15129 13.2502 7.92901 13.4404 7.64391C13.6307 7.35881 13.7321 7.02369 13.7319 6.68094C13.7278 6.22235 13.5437 5.78372 13.2194 5.45943C12.8952 5.13514 12.4565 4.95111 11.9979 4.94694V4.94894Z" fill="white"/>
</svg>
