<svg width="24" height="24" viewBox="0 0 24 24" fill="none" xmlns="http://www.w3.org/2000/svg">
<path d="M16.573 20.1039H3.07347C2.89477 20.1044 2.72353 20.1756 2.59708 20.3019C2.47063 20.4281 2.39923 20.5992 2.39844 20.7779V22.128C2.39897 22.3069 2.47025 22.4783 2.59673 22.6047C2.72321 22.7312 2.8946 22.8025 3.07347 22.803H16.574C16.7529 22.8025 16.9243 22.7312 17.0508 22.6047C17.1772 22.4783 17.2485 22.3069 17.2491 22.128V20.7779C17.2483 20.5991 17.1767 20.4278 17.0501 20.3015C16.9234 20.1752 16.7519 20.1042 16.573 20.1039V20.1039ZM23.2053 5.72931L19.7882 2.31217C19.6614 2.18655 19.4901 2.11608 19.3116 2.11608C19.1332 2.11608 18.9619 2.18655 18.8351 2.31217L18.3581 2.78919C18.2325 2.91597 18.162 3.08723 18.162 3.26571C18.162 3.44419 18.2325 3.61545 18.3581 3.74223L19.9482 5.3323V7.95341C19.9497 8.52014 20.1551 9.06739 20.527 9.49506C20.8988 9.92274 21.4122 10.2023 21.9733 10.2825V17.0658C21.9733 17.3343 21.8666 17.5919 21.6767 17.7818C21.4868 17.9716 21.2293 18.0783 20.9607 18.0783C20.6922 18.0783 20.4346 17.9716 20.2447 17.7818C20.0548 17.5919 19.9482 17.3343 19.9482 17.0658V15.7157C19.9482 15.2282 19.8522 14.7455 19.6656 14.2951C19.479 13.8448 19.2056 13.4355 18.8609 13.0908C18.5162 12.7461 18.107 12.4727 17.6566 12.2861C17.2062 12.0996 16.7235 12.0036 16.236 12.0036H15.899V3.90324C15.899 3.18712 15.6145 2.50034 15.1082 1.99397C14.6018 1.4876 13.915 1.20313 13.1989 1.20312H6.44861C5.73249 1.20313 5.04571 1.4876 4.53934 1.99397C4.03297 2.50034 3.74849 3.18712 3.74849 3.90324V18.7529H15.899V14.0277H16.236C16.6835 14.0277 17.1126 14.2054 17.429 14.5218C17.7453 14.8382 17.9231 15.2673 17.9231 15.7147V16.8878C17.9065 17.6618 18.1743 18.415 18.6757 19.0047C19.1772 19.5945 19.8776 19.9799 20.6442 20.0879C21.0674 20.1311 21.4949 20.0851 21.8993 19.953C22.3036 19.8209 22.6758 19.6055 22.9919 19.3208C23.308 19.0361 23.5609 18.6884 23.7344 18.3C23.9079 17.9116 23.9982 17.4912 23.9993 17.0658V7.64039C23.9993 7.28535 23.9292 6.93381 23.7931 6.60588C23.6571 6.27795 23.4576 5.98008 23.2063 5.72931H23.2053ZM13.1989 9.30346H6.44861V3.90324H13.1989V9.30346Z" fill="white"/>
</svg>
