<svg width="18" height="18" viewBox="0 0 18 18" fill="none" xmlns="http://www.w3.org/2000/svg">
<path d="M9.019 0.903352C7.93783 0.860036 6.86445 1.10367 5.90793 1.60951C4.9514 2.11535 4.14581 2.86536 3.573 3.78335C3.4611 3.9447 3.41598 4.1431 3.44712 4.33697C3.47825 4.53085 3.58321 4.70515 3.74 4.82335L5.105 5.85835C5.26278 5.9781 5.46111 6.03143 5.65766 6.00695C5.85422 5.98248 6.03341 5.88214 6.157 5.72735C6.95 4.73435 7.537 4.16235 8.775 4.16235C9.748 4.16235 10.952 4.78835 10.952 5.73235C10.952 6.44635 10.363 6.81235 9.402 7.35135C8.281 7.97935 6.802 8.76135 6.802 10.7184V11.0284C6.802 11.2297 6.88197 11.4227 7.02431 11.565C7.16665 11.7074 7.3597 11.7874 7.561 11.7874H9.854C10.0553 11.7874 10.2484 11.7074 10.3907 11.565C10.533 11.4227 10.613 11.2297 10.613 11.0284V10.8454C10.613 9.48935 14.577 9.43235 14.577 5.76335C14.572 3.00335 11.705 0.903352 9.019 0.903352ZM8.702 12.7194C8.26847 12.7194 7.84467 12.8479 7.48419 13.0888C7.12372 13.3296 6.84277 13.672 6.67686 14.0725C6.51095 14.473 6.46754 14.9138 6.55212 15.339C6.6367 15.7642 6.84547 16.1548 7.15202 16.4613C7.45858 16.7679 7.84916 16.9767 8.27436 17.0612C8.69957 17.1458 9.14031 17.1024 9.54084 16.9365C9.94138 16.7706 10.2837 16.4896 10.5246 16.1292C10.7654 15.7687 10.894 15.3449 10.894 14.9114C10.8935 14.3302 10.6624 13.7729 10.2514 13.362C9.84043 12.951 9.28319 12.7199 8.702 12.7194Z" fill="#919191"/>
</svg>
