<svg width="18" height="18" viewBox="0 0 18 18" fill="none" xmlns="http://www.w3.org/2000/svg">
<path d="M16.8744 9.54912L11.4744 14.9491C11.3663 15.0567 11.2287 15.1298 11.0791 15.1593C10.9295 15.1888 10.7745 15.1735 10.6336 15.1151C10.4927 15.0567 10.3722 14.958 10.2873 14.8313C10.2024 14.7046 10.1569 14.5556 10.1564 14.4031V11.3151H5.78444C5.68315 11.3153 5.58283 11.2954 5.48923 11.2567C5.39563 11.218 5.31058 11.1612 5.23896 11.0896C5.16734 11.018 5.11056 10.9329 5.07186 10.8393C5.03316 10.7457 5.01331 10.6454 5.01344 10.5441V7.45713C5.01331 7.35584 5.03316 7.25553 5.07186 7.16192C5.11056 7.06832 5.16734 6.98328 5.23896 6.91166C5.31058 6.84004 5.39563 6.78325 5.48923 6.74455C5.58283 6.70585 5.68315 6.68599 5.78444 6.68612H10.1564V3.60013C10.1569 3.44762 10.2024 3.29864 10.2873 3.17196C10.3722 3.04527 10.4927 2.94653 10.6336 2.88816C10.7745 2.82979 10.9295 2.81441 11.0791 2.84394C11.2287 2.87347 11.3663 2.9466 11.4744 3.05413L16.8744 8.45413C17.0187 8.59981 17.0997 8.79657 17.0997 9.00162C17.0997 9.20668 17.0187 9.40344 16.8744 9.54912ZM7.07444 14.7891V13.5001C7.07417 13.3978 7.03342 13.2998 6.96109 13.2275C6.88876 13.1551 6.79073 13.1144 6.68844 13.1141H3.98844C3.85327 13.1143 3.7194 13.0877 3.5945 13.0361C3.4696 12.9844 3.35611 12.9086 3.26053 12.813C3.16495 12.7175 3.08916 12.604 3.0375 12.4791C2.98583 12.3542 2.95931 12.2203 2.95944 12.0851V5.91413C2.95931 5.77896 2.98583 5.6451 3.0375 5.52019C3.08916 5.39529 3.16495 5.2818 3.26053 5.18622C3.35611 5.09065 3.4696 5.01485 3.5945 4.96319C3.7194 4.91152 3.85327 4.885 3.98844 4.88513H6.68844C6.79073 4.88487 6.88876 4.84411 6.96109 4.77178C7.03342 4.69945 7.07417 4.60142 7.07444 4.49913V3.21412C7.07417 3.11183 7.03342 3.0138 6.96109 2.94147C6.88876 2.86914 6.79073 2.82839 6.68844 2.82813H3.98844C3.58288 2.82773 3.18122 2.90726 2.8064 3.06215C2.43159 3.21705 2.09097 3.44428 1.80401 3.73087C1.51705 4.01746 1.28938 4.35778 1.134 4.7324C0.978613 5.10701 0.898569 5.50857 0.898438 5.91413L0.898438 12.0861C0.898703 12.9045 1.22392 13.6893 1.8026 14.268C2.38128 14.8466 3.16606 15.1719 3.98444 15.1721H6.68444C6.78673 15.1719 6.88476 15.1311 6.95709 15.0588C7.02942 14.9864 7.07017 14.8884 7.07044 14.7861L7.07444 14.7891Z" fill="#E57373"/>
</svg>
