<svg width="24" height="24" viewBox="0 0 24 24" fill="none" xmlns="http://www.w3.org/2000/svg">
<path d="M23.09 17.7012L17.6541 5.25725C17.5647 5.0443 17.4151 4.86211 17.2236 4.73312C17.032 4.60412 16.807 4.53395 16.5761 4.53125H12.7761L12.8761 5.43125C12.8807 5.47469 12.8761 5.51862 12.8626 5.56018C12.8492 5.60174 12.8271 5.63999 12.7978 5.67245C12.7686 5.7049 12.7328 5.73083 12.6929 5.74854C12.653 5.76626 12.6097 5.77536 12.5661 5.77525H11.4331C11.3894 5.77536 11.3461 5.76626 11.3062 5.74854C11.2663 5.73083 11.2305 5.7049 11.2013 5.67245C11.172 5.63999 11.1499 5.60174 11.1365 5.56018C11.123 5.51862 11.1184 5.47469 11.1231 5.43125L11.2231 4.53125H7.42305C7.19214 4.53395 6.96707 4.60412 6.77553 4.73312C6.584 4.86211 6.43436 5.0443 6.34505 5.25725L0.904051 17.7012C0.818116 17.8868 0.779329 18.0907 0.791134 18.2949C0.802938 18.499 0.864968 18.6971 0.971718 18.8715C1.07847 19.0459 1.22663 19.1913 1.40306 19.2947C1.57948 19.3981 1.77871 19.4563 1.98305 19.4642H9.64205L10.0421 15.6643C10.0581 15.5113 10.1303 15.3697 10.2446 15.2669C10.3589 15.164 10.5073 15.1071 10.6611 15.1072H13.3371C13.4908 15.1071 13.6392 15.164 13.7535 15.2669C13.8678 15.3697 13.94 15.5113 13.9561 15.6643L14.3561 19.4642H22.0111C22.2154 19.4563 22.4146 19.3981 22.591 19.2947C22.7675 19.1913 22.9156 19.0459 23.0224 18.8715C23.1291 18.6971 23.1912 18.499 23.203 18.2949C23.2148 18.0907 23.176 17.8868 23.09 17.7012V17.7012ZM10.9261 7.30125C10.9342 7.22478 10.9704 7.15406 11.0277 7.10271C11.0849 7.05137 11.1592 7.02306 11.2361 7.02325H12.7641C12.841 7.02306 12.9152 7.05137 12.9724 7.10271C13.0297 7.15406 13.0659 7.22478 13.0741 7.30125L13.2531 8.99625C13.2599 9.06131 13.253 9.1271 13.2328 9.18933C13.2127 9.25156 13.1796 9.30886 13.1359 9.35751C13.0921 9.40615 13.0387 9.44507 12.9789 9.47173C12.9192 9.49838 12.8545 9.51219 12.7891 9.51225H11.2121C11.1466 9.51235 11.0818 9.49864 11.022 9.47204C10.9622 9.44543 10.9086 9.40653 10.8649 9.35784C10.8211 9.30916 10.788 9.25179 10.7679 9.18949C10.7478 9.12719 10.741 9.06134 10.7481 8.99625L10.9261 7.30125ZM13.0741 13.8672H10.9241C10.8368 13.8673 10.7504 13.849 10.6707 13.8135C10.5909 13.778 10.5195 13.7262 10.4611 13.6613C10.4028 13.5964 10.3587 13.5199 10.3318 13.4369C10.3049 13.3538 10.2958 13.2661 10.3051 13.1793L10.5051 11.3122C10.5211 11.1593 10.5933 11.0178 10.7076 10.9149C10.8219 10.812 10.9703 10.7551 11.1241 10.7552H12.8801C13.0338 10.7551 13.1822 10.812 13.2965 10.9149C13.4108 11.0178 13.483 11.1593 13.4991 11.3122L13.6991 13.1793C13.7079 13.2663 13.6983 13.3543 13.6709 13.4374C13.6434 13.5205 13.5987 13.5969 13.5397 13.6615C13.4807 13.7262 13.4088 13.7776 13.3285 13.8126C13.2483 13.8475 13.1616 13.8651 13.0741 13.8643V13.8672Z" fill="white"/>
</svg>
