<svg width="24" height="24" viewBox="0 0 24 24" fill="none" xmlns="http://www.w3.org/2000/svg">
<path d="M20.291 1.20312H3.70003C3.6081 1.20312 3.51707 1.22123 3.43215 1.25641C3.34722 1.29159 3.27004 1.34314 3.20504 1.40814C3.14003 1.47314 3.08848 1.55033 3.0533 1.63525C3.01812 1.72018 3.00002 1.81121 3.00002 1.90314V1.90314V20.0211C2.99935 20.1139 3.01713 20.2059 3.05233 20.2917C3.08752 20.3775 3.13944 20.4555 3.20504 20.5211L5.27901 22.5961C5.34419 22.6627 5.42197 22.7155 5.50783 22.7516C5.59369 22.7877 5.68588 22.8062 5.77901 22.8062C5.87214 22.8062 5.96433 22.7877 6.05019 22.7516C6.13604 22.7155 6.21383 22.6627 6.27901 22.5961L7.85506 21.0191L9.43105 22.5961C9.49657 22.662 9.57449 22.7144 9.6603 22.7501C9.74611 22.7858 9.83811 22.8041 9.93105 22.8041C10.024 22.8041 10.116 22.7858 10.2018 22.7501C10.2876 22.7144 10.3655 22.662 10.431 22.5961V22.5961L12.008 21.0191L13.5841 22.5961C13.6492 22.6619 13.7266 22.7141 13.812 22.7498C13.8974 22.7854 13.989 22.8037 14.0816 22.8037C14.1741 22.8037 14.2657 22.7854 14.3511 22.7498C14.4365 22.7141 14.514 22.6619 14.5791 22.5961L16.155 21.0191L17.732 22.5961C17.7971 22.6619 17.8746 22.7141 17.96 22.7498C18.0454 22.7854 18.137 22.8037 18.2295 22.8037C18.322 22.8037 18.4136 22.7854 18.499 22.7498C18.5844 22.7141 18.6619 22.6619 18.727 22.5961L20.801 20.5211C20.8668 20.4556 20.9189 20.3776 20.9542 20.2918C20.9896 20.206 21.0076 20.114 21.007 20.0211V1.90613C21.007 1.8142 20.9889 1.72317 20.9538 1.63824C20.9186 1.55332 20.867 1.47613 20.802 1.41113C20.737 1.34613 20.6598 1.29458 20.5749 1.2594C20.49 1.22422 20.3989 1.20612 20.307 1.20612L20.291 1.20312ZM11.291 5.94116V5.12811C11.291 4.94127 11.3653 4.76212 11.4974 4.63C11.6295 4.49789 11.8087 4.42365 11.9956 4.42365C12.1824 4.42365 12.3616 4.49789 12.4937 4.63C12.6258 4.76212 12.7 4.94127 12.7 5.12811V5.92816H13.5C13.6869 5.92816 13.8661 6.00234 13.9982 6.13446C14.1303 6.26658 14.2045 6.44578 14.2045 6.63263C14.2045 6.81947 14.1303 6.99868 13.9982 7.1308C13.8661 7.26292 13.6869 7.33716 13.5 7.33716H11.49C11.2778 7.33716 11.0744 7.42144 10.9243 7.57147C10.7743 7.7215 10.69 7.92497 10.69 8.13715C10.69 8.34932 10.7743 8.55279 10.9243 8.70282C11.0744 8.85285 11.2778 8.93713 11.49 8.93713H12.4961C13.0639 8.93968 13.609 9.16043 14.0187 9.55371C14.4283 9.94699 14.6712 10.4827 14.6969 11.05C14.7225 11.6173 14.5292 12.1727 14.1568 12.6014C13.7843 13.0301 13.2614 13.2993 12.6961 13.3531V14.1682C12.6961 14.355 12.6218 14.5342 12.4897 14.6663C12.3576 14.7984 12.1784 14.8726 11.9915 14.8726C11.8047 14.8726 11.6255 14.7984 11.4934 14.6663C11.3612 14.5342 11.287 14.355 11.287 14.1682V13.3682H10.487C10.3 13.3682 10.1208 13.2938 9.98854 13.1616C9.85633 13.0294 9.78206 12.8501 9.78206 12.6631C9.78206 12.4762 9.85633 12.2968 9.98854 12.1646C10.1208 12.0324 10.3 11.9581 10.487 11.9581H12.4981C12.7102 11.9581 12.9137 11.8738 13.0637 11.7238C13.2138 11.5738 13.2981 11.3703 13.2981 11.1581C13.2981 10.946 13.2138 10.7425 13.0637 10.5925C12.9137 10.4424 12.7102 10.3582 12.4981 10.3582H11.491C10.9213 10.3583 10.3735 10.1387 9.96163 9.74518C9.54972 9.35161 9.30545 8.81436 9.27968 8.24524C9.25391 7.67612 9.44861 7.119 9.82326 6.68982C10.1979 6.26064 10.7236 5.99249 11.291 5.94116V5.94116ZM15.767 18.6552H8.22005C8.0332 18.6552 7.854 18.5809 7.72188 18.4488C7.58976 18.3167 7.51552 18.1375 7.51552 17.9506C7.51552 17.7638 7.58976 17.5846 7.72188 17.4525C7.854 17.3203 8.0332 17.2462 8.22005 17.2462H15.763C15.9499 17.2462 16.1291 17.3203 16.2612 17.4525C16.3933 17.5846 16.4675 17.7638 16.4675 17.9506C16.4675 18.1375 16.3933 18.3167 16.2612 18.4488C16.1291 18.5809 15.9499 18.6552 15.763 18.6552V18.6552H15.767Z" fill="white"/>
</svg>
