<svg width="24" height="24" viewBox="0 0 24 24" fill="none" xmlns="http://www.w3.org/2000/svg">
<path d="M22.5525 7.57237C22.5222 7.45227 22.4605 7.34238 22.3738 7.25391C22.287 7.16545 22.1784 7.10159 22.0589 7.06885C21.9394 7.03611 21.8134 7.03566 21.6937 7.06755C21.574 7.09944 21.4649 7.16253 21.3775 7.25037L17.0335 11.5944L13.0685 10.9334L12.4075 6.96837L16.7525 2.62537C16.8409 2.53753 16.9042 2.4277 16.9359 2.30722C16.9676 2.18674 16.9666 2.05998 16.933 1.94002C16.8993 1.82006 16.8343 1.71125 16.7446 1.62482C16.6548 1.53839 16.5437 1.47748 16.4225 1.44837C14.9626 1.08102 13.4307 1.11415 11.988 1.54429C10.5454 1.97442 9.2454 2.78564 8.22504 3.8925C7.20468 4.99936 6.50169 6.36089 6.1901 7.83371C5.87851 9.30652 5.96987 10.8361 6.45454 12.2614L2.30254 16.4184C1.64822 17.1279 1.29373 18.0631 1.31327 19.0281C1.3328 19.993 1.72484 20.9131 2.40734 21.5956C3.08983 22.2781 4.00986 22.6701 4.97485 22.6896C5.93984 22.7092 6.87499 22.3547 7.58454 21.7004L11.7305 17.5534C13.1573 18.0371 14.6881 18.1273 16.1619 17.8146C17.6357 17.5019 18.9979 16.7979 20.1054 15.7765C21.2129 14.7551 22.0246 13.4541 22.4552 12.0104C22.8859 10.5667 22.9195 9.03357 22.5525 7.57237M4.94154 20.4634C4.66464 20.4634 4.39397 20.3813 4.16374 20.2274C3.93351 20.0736 3.75407 19.8549 3.64811 19.5991C3.54214 19.3433 3.51442 19.0618 3.56844 18.7902C3.62246 18.5187 3.7558 18.2692 3.95159 18.0734C4.14738 17.8776 4.39684 17.7443 4.66841 17.6903C4.93999 17.6363 5.22148 17.664 5.47729 17.7699C5.73311 17.8759 5.95176 18.0553 6.1056 18.2856C6.25943 18.5158 6.34154 18.7865 6.34154 19.0634C6.34154 19.4347 6.19404 19.7908 5.93149 20.0533C5.66894 20.3159 5.31284 20.4634 4.94154 20.4634Z" fill="currentColor"/>
</svg>
