<svg width="24" height="24" viewBox="0 0 24 24" fill="none" xmlns="http://www.w3.org/2000/svg">
<path d="M21.1328 4.52694L12.8072 1.05774C12.5534 0.95257 12.2814 0.898438 12.0068 0.898438C11.7321 0.898438 11.4601 0.95257 11.2064 1.05774L2.88436 4.52694C2.50466 4.68427 2.18013 4.95065 1.95179 5.2924C1.72346 5.63415 1.60158 6.03593 1.60156 6.44694C1.60156 15.0545 6.56596 21.0041 11.2016 22.9373C11.455 23.0431 11.7268 23.0975 12.0014 23.0975C12.2759 23.0975 12.5478 23.0431 12.8012 22.9373C16.5212 21.3893 22.4108 16.0433 22.4108 6.44694C22.4106 6.03645 22.289 5.63517 22.0614 5.29355C21.8338 4.95194 21.5103 4.68522 21.1316 4.52694M12.0044 20.2505V3.72894L19.6328 6.90774C19.49 13.4729 16.0724 18.2297 12.0044 20.2505Z" fill="white"/>
</svg>
