<svg width="18" height="18" viewBox="0 0 18 18" fill="none" xmlns="http://www.w3.org/2000/svg">
<path fill-rule="evenodd" clip-rule="evenodd" d="M2.08531 3.1977L3.14101 2.1348L3.13741 2.1384C3.23146 2.04329 3.34336 1.96766 3.46668 1.91586C3.59001 1.86405 3.72234 1.83709 3.8561 1.8365C3.98987 1.83592 4.12243 1.86172 4.2462 1.91245C4.36998 1.96317 4.48253 2.03781 4.57741 2.1321L5.18671 2.7351C5.81387 2.35338 6.49504 2.06848 7.20721 1.89V1.0242C7.20721 0.755015 7.31383 0.496788 7.50375 0.306023C7.69368 0.115259 7.95143 0.00749084 8.22061 0.0063008L9.72001 3.99584e-07C9.9891 -0.000238179 10.2473 0.106368 10.4378 0.296391C10.6283 0.486415 10.7356 0.744309 10.7361 1.0134V1.8702C11.4491 2.04307 12.1318 2.32284 12.7611 2.7L13.3623 2.0916C13.4563 1.99638 13.5682 1.92066 13.6915 1.86879C13.8148 1.81692 13.9472 1.78991 14.081 1.78933C14.2148 1.78874 14.3474 1.81459 14.4712 1.86538C14.595 1.91617 14.7075 1.99091 14.8023 2.0853L15.8634 3.1401C15.9586 3.23415 16.0342 3.34607 16.086 3.46944C16.1378 3.5928 16.1647 3.72518 16.1652 3.85898C16.1657 3.99277 16.1398 4.12535 16.0889 4.2491C16.0381 4.37285 15.9633 4.48534 15.8688 4.5801L15.2631 5.1912C15.6453 5.81736 15.9308 6.49762 16.11 7.209H16.9758C17.2453 7.20924 17.5038 7.31616 17.6947 7.50639C17.8856 7.69662 17.9934 7.95469 17.9946 8.2242L18 9.72C17.9993 9.98848 17.8925 10.2458 17.7028 10.4358C17.5131 10.6258 17.256 10.7331 16.9875 10.7343H16.1298C15.956 11.4481 15.6763 12.1319 15.3 12.7629L15.9111 13.365C16.0057 13.4588 16.081 13.5703 16.1325 13.6931C16.184 13.816 16.2108 13.9478 16.2114 14.081C16.212 14.2142 16.1863 14.3462 16.1359 14.4695C16.0855 14.5928 16.0112 14.705 15.9174 14.7996L14.8608 15.8652C14.767 15.9598 14.6554 16.0349 14.5325 16.0864C14.4097 16.1378 14.2778 16.1646 14.1446 16.1651C14.0114 16.1656 13.8794 16.1398 13.7561 16.0893C13.6329 16.0388 13.5208 15.9645 13.4262 15.8706L12.8151 15.264C12.1876 15.6458 11.5061 15.931 10.7937 16.11V16.9749C10.7937 17.2443 10.687 17.5028 10.4969 17.6937C10.3068 17.8846 10.0488 17.9925 9.77941 17.9937L8.28001 18C8.14697 18.0007 8.0151 17.9752 7.89192 17.9249C7.76875 17.8746 7.65669 17.8006 7.56216 17.7069C7.46763 17.6133 7.39247 17.502 7.34099 17.3793C7.2895 17.2567 7.2627 17.125 7.26211 16.992V16.1307C6.54921 15.9571 5.86654 15.6771 5.23711 15.3L4.63501 15.9111C4.54123 16.0057 4.42974 16.081 4.30689 16.1325C4.18403 16.184 4.05223 16.2108 3.91901 16.2114C3.7858 16.212 3.65377 16.1863 3.53047 16.1359C3.40717 16.0854 3.29501 16.0112 3.20041 15.9174L2.13481 14.8599C2.04024 14.7661 1.96509 14.6545 1.91364 14.5316C1.86219 14.4088 1.83545 14.2769 1.83494 14.1437C1.83444 14.0105 1.86019 13.8785 1.91071 13.7552C1.96124 13.632 2.03555 13.5198 2.12941 13.4253L2.73601 12.8151C2.35348 12.1879 2.06824 11.5064 1.89001 10.7937H1.02331C0.753969 10.7937 0.495606 10.687 0.304816 10.4968C0.114026 10.3067 0.0063626 10.0487 0.00541002 9.7794L1.00187e-05 8.28C-0.000582619 8.14689 0.0251225 8.01498 0.0756496 7.89184C0.126177 7.7687 0.20053 7.65675 0.294441 7.56242C0.388353 7.46809 0.499972 7.39324 0.62289 7.34216C0.745808 7.29109 0.877603 7.2648 1.01071 7.2648H1.87021C2.04388 6.55207 2.3236 5.86945 2.70001 5.2398L2.09071 4.6377C1.99555 4.54365 1.9199 4.43173 1.8681 4.30836C1.81631 4.185 1.78939 4.05262 1.78889 3.91882C1.78838 3.78503 1.81431 3.65245 1.86518 3.5287C1.91605 3.40495 1.99086 3.29246 2.08531 3.1977ZM8.03585 4.27187C7.09918 4.46266 6.24014 4.92699 5.56741 5.6061V5.6079C4.66577 6.51722 4.16227 7.74747 4.16767 9.02801C4.17307 10.3086 4.68693 11.5345 5.59621 12.4362C6.27464 13.1096 7.13757 13.5667 8.07581 13.7496C9.01406 13.9325 9.98548 13.833 10.8672 13.4636C11.7489 13.0943 12.5012 12.4718 13.029 11.6749C13.5568 10.8779 13.8364 9.94226 13.8324 8.98636C13.8283 8.03046 13.5409 7.09723 13.0064 6.30474C12.4718 5.51225 11.7143 4.8961 10.8295 4.53424C9.94474 4.17238 8.97252 4.08107 8.03585 4.27187ZM10.2022 6.47745C9.66021 6.22065 9.05001 6.14492 8.46169 6.26143C7.91872 6.36932 7.41993 6.63579 7.02841 7.02716C6.63688 7.41852 6.3702 7.9172 6.26209 8.46013C6.14534 9.0484 6.22083 9.65863 6.4774 10.2007C6.73398 10.7428 7.15805 11.1881 7.68702 11.4707C8.21598 11.7534 8.82181 11.8585 9.41508 11.7705C10.0083 11.6825 10.5576 11.4061 10.9818 10.9821C11.4059 10.5581 11.6826 10.009 11.7708 9.41577C11.859 8.82254 11.7541 8.21667 11.4717 7.68759C11.1893 7.15851 10.7442 6.73425 10.2022 6.47745Z" fill="#919191"/>
</svg>
