<svg width="18" height="18" viewBox="0 0 18 18" fill="none" xmlns="http://www.w3.org/2000/svg">
<path d="M17.5531 9.00312C17.5531 10.6942 17.0517 12.3472 16.1122 13.7533C15.1727 15.1593 13.8374 16.2552 12.2751 16.9023C10.7128 17.5494 8.99364 17.7187 7.33511 17.3888C5.67657 17.0589 4.1531 16.2446 2.95737 15.0489C1.76163 13.8531 0.947318 12.3297 0.617415 10.6711C0.287511 9.01261 0.45683 7.29349 1.10396 5.73118C1.75109 4.16887 2.84696 2.83355 4.253 1.89406C5.65904 0.954574 7.3121 0.453125 9.00313 0.453125C11.2707 0.453125 13.4455 1.35393 15.0489 2.95736C16.6523 4.5608 17.5531 6.73552 17.5531 9.00312ZM8.01413 13.5301L14.3531 7.18713C14.4565 7.08363 14.5145 6.94337 14.5145 6.79712C14.5145 6.65088 14.4565 6.51062 14.3531 6.40713L13.5731 5.62712C13.4696 5.5238 13.3294 5.46577 13.1831 5.46577C13.0369 5.46577 12.8966 5.5238 12.7931 5.62712L7.62013 10.8001L5.20513 8.38513C5.10163 8.2818 4.96137 8.22377 4.81513 8.22377C4.66889 8.22377 4.52862 8.2818 4.42513 8.38513L3.64513 9.16512C3.54181 9.26862 3.48377 9.40888 3.48377 9.55512C3.48377 9.70137 3.54181 9.84163 3.64513 9.94513L7.23013 13.5301C7.28145 13.5819 7.34251 13.623 7.40979 13.651C7.47707 13.6791 7.54924 13.6935 7.62213 13.6935C7.69502 13.6935 7.76719 13.6791 7.83447 13.651C7.90175 13.623 7.96281 13.5819 8.01413 13.5301Z" fill="#4DB6A2"/>
</svg>
