<svg width="24" height="24" viewBox="0 0 24 24" fill="none" xmlns="http://www.w3.org/2000/svg">
<path fill-rule="evenodd" clip-rule="evenodd" d="M5.01786 3.61655C4.72821 3.56893 4.43119 3.59619 4.15506 3.69574C4.02693 3.76735 3.92146 3.87345 3.85061 4.002C3.77976 4.13054 3.74638 4.27638 3.75426 4.42295V15.9429C3.75243 16.1321 3.8195 16.3154 3.94293 16.4587C4.06637 16.602 4.23774 16.6955 4.42505 16.7217C4.58906 16.736 4.75306 16.74 4.91706 16.744C5.11306 16.7487 5.30906 16.7535 5.50506 16.7757C7.04442 16.8607 8.54374 17.2979 9.88746 18.0537C10.4614 18.393 10.9883 18.8061 11.4547 19.2825V7.25015C11.4643 7.03403 11.3972 6.82147 11.2651 6.65015C10.8509 6.02038 10.3217 5.47443 9.70506 5.04095C8.30954 4.13084 6.68379 3.63679 5.01786 3.61655ZM18.2762 3.67159C18.1728 3.68256 18.0694 3.69353 17.9657 3.70298C16.5742 3.85534 15.246 4.36642 14.1113 5.18618C13.5287 5.63113 13.0328 6.17945 12.6485 6.80378C12.564 6.99854 12.5314 7.21186 12.5537 7.42298V19.2898C13.0199 18.8124 13.5473 18.3988 14.1221 18.0598C15.5866 17.2428 17.2277 16.7939 18.9041 16.7518C18.9817 16.7487 19.0595 16.7469 19.1373 16.7452H19.1374C19.2736 16.742 19.4097 16.7389 19.5449 16.729C19.6975 16.7165 19.8429 16.6593 19.9631 16.5645C20.0833 16.4698 20.1729 16.3416 20.2205 16.1962C20.2559 16.0588 20.2693 15.9166 20.2601 15.775V4.38218C20.2615 4.22931 20.2177 4.07943 20.1342 3.95134C20.0507 3.82326 19.9313 3.72267 19.7909 3.66218C19.5571 3.59522 19.3117 3.57845 19.0709 3.61298C18.8044 3.61557 18.5404 3.64357 18.2762 3.67159ZM1.20312 6.9539C1.21075 6.77775 1.27756 6.60932 1.39275 6.47584C1.50794 6.34235 1.66479 6.25162 1.83793 6.2183C2.07223 6.19954 2.30742 6.19433 2.54233 6.2027V15.8375C2.53481 16.1801 2.60928 16.5195 2.75953 16.8275C2.9095 17.1262 3.13283 17.382 3.4086 17.5709C3.68438 17.7598 4.00359 17.8756 4.33633 17.9075C4.50469 17.9257 4.67306 17.9299 4.84207 17.9341H4.84208C4.9742 17.9374 5.10672 17.9407 5.23993 17.9507C6.11274 17.9995 6.97533 18.1629 7.80552 18.4367C8.76238 18.7332 9.6404 19.2409 10.3747 19.9223C8.95339 19.5978 7.49368 19.4734 6.03792 19.5527C4.75981 19.6125 3.48937 19.784 2.24113 20.0651C2.13245 20.0969 2.01853 20.1066 1.90604 20.0939C1.79354 20.0811 1.68471 20.046 1.58593 19.9907C1.4772 19.9251 1.38574 19.8344 1.31915 19.7263C1.25256 19.6182 1.21278 19.4957 1.20312 19.3691V6.9539ZM22.1653 6.21692C21.9325 6.19942 21.699 6.19461 21.4657 6.20252C21.4657 9.31532 21.4617 12.4253 21.4537 15.5325C21.4743 15.8614 21.4427 16.1915 21.3601 16.5105C21.2677 16.8116 21.1049 17.0863 20.8852 17.3119C20.6654 17.5375 20.395 17.7075 20.0965 17.8077C19.7046 17.9071 19.3005 17.9499 18.8965 17.9349C17.999 17.9768 17.1112 18.1382 16.2565 18.4149C15.2777 18.7092 14.3792 19.2236 13.6297 19.9185C15.4013 19.5242 17.2257 19.4245 19.0297 19.6233C19.986 19.7185 20.9357 19.8712 21.8737 20.0805C21.983 20.1013 22.0955 20.0987 22.2037 20.0727C22.3119 20.0468 22.4133 19.9982 22.5014 19.9302C22.5894 19.8621 22.662 19.7761 22.7143 19.6779C22.7666 19.5797 22.7975 19.4715 22.8049 19.3605V6.95132C22.7968 6.7747 22.7291 6.60602 22.613 6.47269C22.4969 6.33936 22.3391 6.24922 22.1653 6.21692Z" fill="white"/>
</svg>
